solid OpenSCAD_Model
  facet normal 0 1 -0
    outer loop
      vertex 1.00974 1.74893 0
      vertex -1.00974 1.74893 1.3
      vertex 1.00974 1.74893 1.3
    endloop
  endfacet
  facet normal 0 1 0
    outer loop
      vertex -1.00974 1.74893 1.3
      vertex 1.00974 1.74893 0
      vertex -1.00974 1.74893 0
    endloop
  endfacet
  facet normal 0.866024 0.500002 0
    outer loop
      vertex 2.01949 0 1.3
      vertex 1.00974 1.74893 0
      vertex 1.00974 1.74893 1.3
    endloop
  endfacet
  facet normal 0.866024 0.500002 0
    outer loop
      vertex 1.00974 1.74893 0
      vertex 2.01949 0 1.3
      vertex 2.01949 0 0
    endloop
  endfacet
  facet normal 0.866024 -0.500002 0
    outer loop
      vertex 1.00974 -1.74893 1.3
      vertex 2.01949 0 0
      vertex 2.01949 0 1.3
    endloop
  endfacet
  facet normal 0.866024 -0.500002 0
    outer loop
      vertex 2.01949 0 0
      vertex 1.00974 -1.74893 1.3
      vertex 1.00974 -1.74893 0
    endloop
  endfacet
  facet normal -0.866024 0.500002 0
    outer loop
      vertex -2.01949 0 0
      vertex -1.00974 1.74893 1.3
      vertex -1.00974 1.74893 0
    endloop
  endfacet
  facet normal -0.866024 0.500002 0
    outer loop
      vertex -1.00974 1.74893 1.3
      vertex -2.01949 0 0
      vertex -2.01949 0 1.3
    endloop
  endfacet
  facet normal 0 0 -1
    outer loop
      vertex 0.788675 -0.433578 0
      vertex 2.01949 0 0
      vertex 1.00974 -1.74893 0
    endloop
  endfacet
  facet normal 0 0 -1
    outer loop
      vertex 0.892902 0.1128 0
      vertex 2.01949 0 0
      vertex 0.9 0 0
    endloop
  endfacet
  facet normal -0 0 -1
    outer loop
      vertex 2.01949 0 0
      vertex 0.892902 -0.1128 0
      vertex 0.9 0 0
    endloop
  endfacet
  facet normal 0 0 -1
    outer loop
      vertex 2.01949 0 0
      vertex 0.871724 -0.223821 0
      vertex 0.892902 -0.1128 0
    endloop
  endfacet
  facet normal 0 0 -1
    outer loop
      vertex 2.01949 0 0
      vertex 0.836799 -0.331311 0
      vertex 0.871724 -0.223821 0
    endloop
  endfacet
  facet normal 0 0 -1
    outer loop
      vertex 2.01949 0 0
      vertex 0.788675 -0.433578 0
      vertex 0.836799 -0.331311 0
    endloop
  endfacet
  facet normal 0 0 -1
    outer loop
      vertex 1.00974 -1.74893 0
      vertex 0.728115 -0.529006 0
      vertex 0.788675 -0.433578 0
    endloop
  endfacet
  facet normal 0 0 -1
    outer loop
      vertex 1.00974 -1.74893 0
      vertex 0.656072 -0.616092 0
      vertex 0.728115 -0.529006 0
    endloop
  endfacet
  facet normal 0 0 -1
    outer loop
      vertex 1.00974 -1.74893 0
      vertex 0.573681 -0.693461 0
      vertex 0.656072 -0.616092 0
    endloop
  endfacet
  facet normal 0 0 -1
    outer loop
      vertex 1.00974 -1.74893 0
      vertex 0.482244 -0.759894 0
      vertex 0.573681 -0.693461 0
    endloop
  endfacet
  facet normal 0 0 -1
    outer loop
      vertex 1.00974 -1.74893 0
      vertex 0.383201 -0.814343 0
      vertex 0.482244 -0.759894 0
    endloop
  endfacet
  facet normal 0 0 -1
    outer loop
      vertex 1.00974 -1.74893 0
      vertex 0.278115 -0.85595 0
      vertex 0.383201 -0.814343 0
    endloop
  endfacet
  facet normal 0 0 -1
    outer loop
      vertex 1.00974 -1.74893 0
      vertex 0.168643 -0.884058 0
      vertex 0.278115 -0.85595 0
    endloop
  endfacet
  facet normal 0 0 -1
    outer loop
      vertex 1.00974 -1.74893 0
      vertex 0.0565109 -0.898224 0
      vertex 0.168643 -0.884058 0
    endloop
  endfacet
  facet normal 0 0 -1
    outer loop
      vertex 1.00974 -1.74893 0
      vertex -0.0565109 -0.898224 0
      vertex 0.0565109 -0.898224 0
    endloop
  endfacet
  facet normal 0 0 -1
    outer loop
      vertex -1.00974 -1.74893 0
      vertex -0.0565109 -0.898224 0
      vertex 1.00974 -1.74893 0
    endloop
  endfacet
  facet normal -0 0 -1
    outer loop
      vertex -0.0565109 -0.898224 0
      vertex -1.00974 -1.74893 0
      vertex -0.168643 -0.884058 0
    endloop
  endfacet
  facet normal -0 0 -1
    outer loop
      vertex -0.168643 -0.884058 0
      vertex -1.00974 -1.74893 0
      vertex -0.278115 -0.85595 0
    endloop
  endfacet
  facet normal -0 0 -1
    outer loop
      vertex -0.278115 -0.85595 0
      vertex -1.00974 -1.74893 0
      vertex -0.383201 -0.814343 0
    endloop
  endfacet
  facet normal 0 0 -1
    outer loop
      vertex -0.871724 -0.223821 0
      vertex -2.01949 0 0
      vertex -0.892902 -0.1128 0
    endloop
  endfacet
  facet normal 0 0 -1
    outer loop
      vertex -0.836799 -0.331311 0
      vertex -2.01949 0 0
      vertex -0.871724 -0.223821 0
    endloop
  endfacet
  facet normal 0 0 -1
    outer loop
      vertex -0.788675 -0.433578 0
      vertex -2.01949 0 0
      vertex -0.836799 -0.331311 0
    endloop
  endfacet
  facet normal 0 0 -1
    outer loop
      vertex -2.01949 0 0
      vertex -0.788675 -0.433578 0
      vertex -1.00974 -1.74893 0
    endloop
  endfacet
  facet normal -0 0 -1
    outer loop
      vertex -0.728115 -0.529006 0
      vertex -1.00974 -1.74893 0
      vertex -0.788675 -0.433578 0
    endloop
  endfacet
  facet normal -0 0 -1
    outer loop
      vertex -0.656072 -0.616092 0
      vertex -1.00974 -1.74893 0
      vertex -0.728115 -0.529006 0
    endloop
  endfacet
  facet normal -0 0 -1
    outer loop
      vertex -0.573681 -0.693461 0
      vertex -1.00974 -1.74893 0
      vertex -0.656072 -0.616092 0
    endloop
  endfacet
  facet normal -0 0 -1
    outer loop
      vertex -0.482244 -0.759894 0
      vertex -1.00974 -1.74893 0
      vertex -0.573681 -0.693461 0
    endloop
  endfacet
  facet normal -0 0 -1
    outer loop
      vertex -0.383201 -0.814343 0
      vertex -1.00974 -1.74893 0
      vertex -0.482244 -0.759894 0
    endloop
  endfacet
  facet normal 0 0 -1
    outer loop
      vertex 0.871724 0.223821 0
      vertex 2.01949 0 0
      vertex 0.892902 0.1128 0
    endloop
  endfacet
  facet normal 0 0 -1
    outer loop
      vertex 0.836799 0.331311 0
      vertex 2.01949 0 0
      vertex 0.871724 0.223821 0
    endloop
  endfacet
  facet normal 0 0 -1
    outer loop
      vertex 0.788675 0.433578 0
      vertex 2.01949 0 0
      vertex 0.836799 0.331311 0
    endloop
  endfacet
  facet normal 0 0 -1
    outer loop
      vertex 2.01949 0 0
      vertex 0.788675 0.433578 0
      vertex 1.00974 1.74893 0
    endloop
  endfacet
  facet normal 0 0 -1
    outer loop
      vertex 0.728115 0.529006 0
      vertex 1.00974 1.74893 0
      vertex 0.788675 0.433578 0
    endloop
  endfacet
  facet normal 0 0 -1
    outer loop
      vertex 0.656072 0.616092 0
      vertex 1.00974 1.74893 0
      vertex 0.728115 0.529006 0
    endloop
  endfacet
  facet normal 0 0 -1
    outer loop
      vertex 0.573681 0.693461 0
      vertex 1.00974 1.74893 0
      vertex 0.656072 0.616092 0
    endloop
  endfacet
  facet normal 0 0 -1
    outer loop
      vertex 0.482244 0.759894 0
      vertex 1.00974 1.74893 0
      vertex 0.573681 0.693461 0
    endloop
  endfacet
  facet normal 0 0 -1
    outer loop
      vertex 0.383201 0.814343 0
      vertex 1.00974 1.74893 0
      vertex 0.482244 0.759894 0
    endloop
  endfacet
  facet normal 0 0 -1
    outer loop
      vertex 0.278115 0.85595 0
      vertex 1.00974 1.74893 0
      vertex 0.383201 0.814343 0
    endloop
  endfacet
  facet normal 0 0 -1
    outer loop
      vertex 0.168643 0.884058 0
      vertex 1.00974 1.74893 0
      vertex 0.278115 0.85595 0
    endloop
  endfacet
  facet normal 0 0 -1
    outer loop
      vertex 0.0565109 0.898224 0
      vertex 1.00974 1.74893 0
      vertex 0.168643 0.884058 0
    endloop
  endfacet
  facet normal 0 0 -1
    outer loop
      vertex -0.0565109 0.898224 0
      vertex 1.00974 1.74893 0
      vertex 0.0565109 0.898224 0
    endloop
  endfacet
  facet normal 0 0 -1
    outer loop
      vertex -1.00974 1.74893 0
      vertex -0.0565109 0.898224 0
      vertex -0.168643 0.884058 0
    endloop
  endfacet
  facet normal 0 0 -1
    outer loop
      vertex -1.00974 1.74893 0
      vertex -0.168643 0.884058 0
      vertex -0.278115 0.85595 0
    endloop
  endfacet
  facet normal 0 0 -1
    outer loop
      vertex -1.00974 1.74893 0
      vertex -0.278115 0.85595 0
      vertex -0.383201 0.814343 0
    endloop
  endfacet
  facet normal 0 0 -1
    outer loop
      vertex -1.00974 1.74893 0
      vertex -0.383201 0.814343 0
      vertex -0.482244 0.759894 0
    endloop
  endfacet
  facet normal 0 0 -1
    outer loop
      vertex -0.0565109 0.898224 0
      vertex -1.00974 1.74893 0
      vertex 1.00974 1.74893 0
    endloop
  endfacet
  facet normal 0 0 -1
    outer loop
      vertex -0.573681 0.693461 0
      vertex -1.00974 1.74893 0
      vertex -0.482244 0.759894 0
    endloop
  endfacet
  facet normal 0 0 -1
    outer loop
      vertex -0.656072 0.616092 0
      vertex -1.00974 1.74893 0
      vertex -0.573681 0.693461 0
    endloop
  endfacet
  facet normal 0 0 -1
    outer loop
      vertex -0.728115 0.529006 0
      vertex -1.00974 1.74893 0
      vertex -0.656072 0.616092 0
    endloop
  endfacet
  facet normal 0 0 -1
    outer loop
      vertex -0.788675 0.433578 0
      vertex -1.00974 1.74893 0
      vertex -0.728115 0.529006 0
    endloop
  endfacet
  facet normal 0 0 -1
    outer loop
      vertex -2.01949 0 0
      vertex -0.788675 0.433578 0
      vertex -0.836799 0.331311 0
    endloop
  endfacet
  facet normal 0 0 -1
    outer loop
      vertex -2.01949 0 0
      vertex -0.836799 0.331311 0
      vertex -0.871724 0.223821 0
    endloop
  endfacet
  facet normal 0 0 -1
    outer loop
      vertex -2.01949 0 0
      vertex -0.871724 0.223821 0
      vertex -0.892902 0.1128 0
    endloop
  endfacet
  facet normal 0 0 -1
    outer loop
      vertex -2.01949 0 0
      vertex -0.892902 0.1128 0
      vertex -0.9 0 0
    endloop
  endfacet
  facet normal 0 0 -1
    outer loop
      vertex -0.892902 -0.1128 0
      vertex -2.01949 0 0
      vertex -0.9 0 0
    endloop
  endfacet
  facet normal -0 0 -1
    outer loop
      vertex -0.788675 0.433578 0
      vertex -2.01949 0 0
      vertex -1.00974 1.74893 0
    endloop
  endfacet
  facet normal -0 0 1
    outer loop
      vertex 0.788675 0.433578 1.3
      vertex 2.01949 0 1.3
      vertex 1.00974 1.74893 1.3
    endloop
  endfacet
  facet normal 0 0 1
    outer loop
      vertex 0.892902 -0.1128 1.3
      vertex 2.01949 0 1.3
      vertex 0.9 0 1.3
    endloop
  endfacet
  facet normal 0 0 1
    outer loop
      vertex 2.01949 0 1.3
      vertex 0.892902 0.1128 1.3
      vertex 0.9 0 1.3
    endloop
  endfacet
  facet normal 0 0 1
    outer loop
      vertex 2.01949 0 1.3
      vertex 0.871724 0.223821 1.3
      vertex 0.892902 0.1128 1.3
    endloop
  endfacet
  facet normal 0 0 1
    outer loop
      vertex 2.01949 0 1.3
      vertex 0.836799 0.331311 1.3
      vertex 0.871724 0.223821 1.3
    endloop
  endfacet
  facet normal 0 0 1
    outer loop
      vertex 2.01949 0 1.3
      vertex 0.788675 0.433578 1.3
      vertex 0.836799 0.331311 1.3
    endloop
  endfacet
  facet normal 0 0 1
    outer loop
      vertex 1.00974 1.74893 1.3
      vertex 0.728115 0.529006 1.3
      vertex 0.788675 0.433578 1.3
    endloop
  endfacet
  facet normal 0 0 1
    outer loop
      vertex 1.00974 1.74893 1.3
      vertex 0.656072 0.616092 1.3
      vertex 0.728115 0.529006 1.3
    endloop
  endfacet
  facet normal 0 0 1
    outer loop
      vertex 1.00974 1.74893 1.3
      vertex 0.573681 0.693461 1.3
      vertex 0.656072 0.616092 1.3
    endloop
  endfacet
  facet normal 0 0 1
    outer loop
      vertex 1.00974 1.74893 1.3
      vertex 0.482244 0.759894 1.3
      vertex 0.573681 0.693461 1.3
    endloop
  endfacet
  facet normal 0 0 1
    outer loop
      vertex 1.00974 1.74893 1.3
      vertex 0.383201 0.814343 1.3
      vertex 0.482244 0.759894 1.3
    endloop
  endfacet
  facet normal 0 0 1
    outer loop
      vertex 1.00974 1.74893 1.3
      vertex 0.278115 0.85595 1.3
      vertex 0.383201 0.814343 1.3
    endloop
  endfacet
  facet normal 0 0 1
    outer loop
      vertex 1.00974 1.74893 1.3
      vertex 0.168643 0.884058 1.3
      vertex 0.278115 0.85595 1.3
    endloop
  endfacet
  facet normal 0 0 1
    outer loop
      vertex 1.00974 1.74893 1.3
      vertex 0.0565109 0.898224 1.3
      vertex 0.168643 0.884058 1.3
    endloop
  endfacet
  facet normal 0 0 1
    outer loop
      vertex 1.00974 1.74893 1.3
      vertex -0.0565109 0.898224 1.3
      vertex 0.0565109 0.898224 1.3
    endloop
  endfacet
  facet normal -0 0 1
    outer loop
      vertex -1.00974 1.74893 1.3
      vertex -0.0565109 0.898224 1.3
      vertex 1.00974 1.74893 1.3
    endloop
  endfacet
  facet normal 0 0 1
    outer loop
      vertex -0.0565109 0.898224 1.3
      vertex -1.00974 1.74893 1.3
      vertex -0.168643 0.884058 1.3
    endloop
  endfacet
  facet normal 0 0 1
    outer loop
      vertex -0.168643 0.884058 1.3
      vertex -1.00974 1.74893 1.3
      vertex -0.278115 0.85595 1.3
    endloop
  endfacet
  facet normal 0 0 1
    outer loop
      vertex -0.278115 0.85595 1.3
      vertex -1.00974 1.74893 1.3
      vertex -0.383201 0.814343 1.3
    endloop
  endfacet
  facet normal 0 0 1
    outer loop
      vertex -0.871724 0.223821 1.3
      vertex -2.01949 0 1.3
      vertex -0.892902 0.1128 1.3
    endloop
  endfacet
  facet normal 0 0 1
    outer loop
      vertex -0.836799 0.331311 1.3
      vertex -2.01949 0 1.3
      vertex -0.871724 0.223821 1.3
    endloop
  endfacet
  facet normal 0 0 1
    outer loop
      vertex -0.788675 0.433578 1.3
      vertex -2.01949 0 1.3
      vertex -0.836799 0.331311 1.3
    endloop
  endfacet
  facet normal 0 0 1
    outer loop
      vertex -2.01949 0 1.3
      vertex -0.788675 0.433578 1.3
      vertex -1.00974 1.74893 1.3
    endloop
  endfacet
  facet normal 0 0 1
    outer loop
      vertex -0.728115 0.529006 1.3
      vertex -1.00974 1.74893 1.3
      vertex -0.788675 0.433578 1.3
    endloop
  endfacet
  facet normal 0 0 1
    outer loop
      vertex -0.656072 0.616092 1.3
      vertex -1.00974 1.74893 1.3
      vertex -0.728115 0.529006 1.3
    endloop
  endfacet
  facet normal 0 0 1
    outer loop
      vertex -0.573681 0.693461 1.3
      vertex -1.00974 1.74893 1.3
      vertex -0.656072 0.616092 1.3
    endloop
  endfacet
  facet normal 0 0 1
    outer loop
      vertex -0.482244 0.759894 1.3
      vertex -1.00974 1.74893 1.3
      vertex -0.573681 0.693461 1.3
    endloop
  endfacet
  facet normal 0 0 1
    outer loop
      vertex -0.383201 0.814343 1.3
      vertex -1.00974 1.74893 1.3
      vertex -0.482244 0.759894 1.3
    endloop
  endfacet
  facet normal 0 0 1
    outer loop
      vertex 0.871724 -0.223821 1.3
      vertex 2.01949 0 1.3
      vertex 0.892902 -0.1128 1.3
    endloop
  endfacet
  facet normal 0 0 1
    outer loop
      vertex 0.836799 -0.331311 1.3
      vertex 2.01949 0 1.3
      vertex 0.871724 -0.223821 1.3
    endloop
  endfacet
  facet normal 0 0 1
    outer loop
      vertex 0.788675 -0.433578 1.3
      vertex 2.01949 0 1.3
      vertex 0.836799 -0.331311 1.3
    endloop
  endfacet
  facet normal 0 0 1
    outer loop
      vertex 2.01949 0 1.3
      vertex 0.788675 -0.433578 1.3
      vertex 1.00974 -1.74893 1.3
    endloop
  endfacet
  facet normal -0 0 1
    outer loop
      vertex 0.728115 -0.529006 1.3
      vertex 1.00974 -1.74893 1.3
      vertex 0.788675 -0.433578 1.3
    endloop
  endfacet
  facet normal -0 0 1
    outer loop
      vertex 0.656072 -0.616092 1.3
      vertex 1.00974 -1.74893 1.3
      vertex 0.728115 -0.529006 1.3
    endloop
  endfacet
  facet normal -0 0 1
    outer loop
      vertex 0.573681 -0.693461 1.3
      vertex 1.00974 -1.74893 1.3
      vertex 0.656072 -0.616092 1.3
    endloop
  endfacet
  facet normal -0 0 1
    outer loop
      vertex 0.482244 -0.759894 1.3
      vertex 1.00974 -1.74893 1.3
      vertex 0.573681 -0.693461 1.3
    endloop
  endfacet
  facet normal -0 0 1
    outer loop
      vertex 0.383201 -0.814343 1.3
      vertex 1.00974 -1.74893 1.3
      vertex 0.482244 -0.759894 1.3
    endloop
  endfacet
  facet normal -0 0 1
    outer loop
      vertex 0.278115 -0.85595 1.3
      vertex 1.00974 -1.74893 1.3
      vertex 0.383201 -0.814343 1.3
    endloop
  endfacet
  facet normal -0 0 1
    outer loop
      vertex 0.168643 -0.884058 1.3
      vertex 1.00974 -1.74893 1.3
      vertex 0.278115 -0.85595 1.3
    endloop
  endfacet
  facet normal -0 0 1
    outer loop
      vertex 0.0565109 -0.898224 1.3
      vertex 1.00974 -1.74893 1.3
      vertex 0.168643 -0.884058 1.3
    endloop
  endfacet
  facet normal -0 0 1
    outer loop
      vertex -0.0565109 -0.898224 1.3
      vertex 1.00974 -1.74893 1.3
      vertex 0.0565109 -0.898224 1.3
    endloop
  endfacet
  facet normal 0 0 1
    outer loop
      vertex -1.00974 -1.74893 1.3
      vertex -0.0565109 -0.898224 1.3
      vertex -0.168643 -0.884058 1.3
    endloop
  endfacet
  facet normal 0 0 1
    outer loop
      vertex -1.00974 -1.74893 1.3
      vertex -0.168643 -0.884058 1.3
      vertex -0.278115 -0.85595 1.3
    endloop
  endfacet
  facet normal 0 0 1
    outer loop
      vertex -1.00974 -1.74893 1.3
      vertex -0.278115 -0.85595 1.3
      vertex -0.383201 -0.814343 1.3
    endloop
  endfacet
  facet normal 0 0 1
    outer loop
      vertex -1.00974 -1.74893 1.3
      vertex -0.383201 -0.814343 1.3
      vertex -0.482244 -0.759894 1.3
    endloop
  endfacet
  facet normal 0 0 1
    outer loop
      vertex -0.0565109 -0.898224 1.3
      vertex -1.00974 -1.74893 1.3
      vertex 1.00974 -1.74893 1.3
    endloop
  endfacet
  facet normal 0 0 1
    outer loop
      vertex -0.573681 -0.693461 1.3
      vertex -1.00974 -1.74893 1.3
      vertex -0.482244 -0.759894 1.3
    endloop
  endfacet
  facet normal 0 0 1
    outer loop
      vertex -0.656072 -0.616092 1.3
      vertex -1.00974 -1.74893 1.3
      vertex -0.573681 -0.693461 1.3
    endloop
  endfacet
  facet normal 0 0 1
    outer loop
      vertex -0.728115 -0.529006 1.3
      vertex -1.00974 -1.74893 1.3
      vertex -0.656072 -0.616092 1.3
    endloop
  endfacet
  facet normal 0 0 1
    outer loop
      vertex -0.788675 -0.433578 1.3
      vertex -1.00974 -1.74893 1.3
      vertex -0.728115 -0.529006 1.3
    endloop
  endfacet
  facet normal 0 0 1
    outer loop
      vertex -2.01949 0 1.3
      vertex -0.788675 -0.433578 1.3
      vertex -0.836799 -0.331311 1.3
    endloop
  endfacet
  facet normal 0 0 1
    outer loop
      vertex -2.01949 0 1.3
      vertex -0.836799 -0.331311 1.3
      vertex -0.871724 -0.223821 1.3
    endloop
  endfacet
  facet normal 0 0 1
    outer loop
      vertex -2.01949 0 1.3
      vertex -0.871724 -0.223821 1.3
      vertex -0.892902 -0.1128 1.3
    endloop
  endfacet
  facet normal -0 0 1
    outer loop
      vertex -2.01949 0 1.3
      vertex -0.892902 -0.1128 1.3
      vertex -0.9 0 1.3
    endloop
  endfacet
  facet normal 0 0 1
    outer loop
      vertex -0.892902 0.1128 1.3
      vertex -2.01949 0 1.3
      vertex -0.9 0 1.3
    endloop
  endfacet
  facet normal 0 0 1
    outer loop
      vertex -0.788675 -0.433578 1.3
      vertex -2.01949 0 1.3
      vertex -1.00974 -1.74893 1.3
    endloop
  endfacet
  facet normal -0.866024 -0.500002 0
    outer loop
      vertex -1.00974 -1.74893 0
      vertex -2.01949 0 1.3
      vertex -2.01949 0 0
    endloop
  endfacet
  facet normal -0.866024 -0.500002 0
    outer loop
      vertex -2.01949 0 1.3
      vertex -1.00974 -1.74893 0
      vertex -1.00974 -1.74893 1.3
    endloop
  endfacet
  facet normal 0 -1 0
    outer loop
      vertex -1.00974 -1.74893 0
      vertex 1.00974 -1.74893 1.3
      vertex -1.00974 -1.74893 1.3
    endloop
  endfacet
  facet normal 0 -1 -0
    outer loop
      vertex 1.00974 -1.74893 1.3
      vertex -1.00974 -1.74893 0
      vertex 1.00974 -1.74893 0
    endloop
  endfacet
  facet normal -0.998026 -0.0628013 0
    outer loop
      vertex 0.9 0 0
      vertex 0.892902 0.1128 1.3
      vertex 0.892902 0.1128 0
    endloop
  endfacet
  facet normal -0.998026 -0.0628013 0
    outer loop
      vertex 0.892902 0.1128 1.3
      vertex 0.9 0 0
      vertex 0.9 0 1.3
    endloop
  endfacet
  facet normal 0.998026 -0.0628013 0
    outer loop
      vertex -0.9 0 1.3
      vertex -0.892902 0.1128 0
      vertex -0.892902 0.1128 1.3
    endloop
  endfacet
  facet normal 0.998026 -0.0628013 0
    outer loop
      vertex -0.892902 0.1128 0
      vertex -0.9 0 1.3
      vertex -0.9 0 0
    endloop
  endfacet
  facet normal 0 -1 0
    outer loop
      vertex -0.0565109 0.898224 0
      vertex 0.0565109 0.898224 1.3
      vertex -0.0565109 0.898224 1.3
    endloop
  endfacet
  facet normal 0 -1 -0
    outer loop
      vertex 0.0565109 0.898224 1.3
      vertex -0.0565109 0.898224 0
      vertex 0.0565109 0.898224 0
    endloop
  endfacet
  facet normal 0 1 -0
    outer loop
      vertex 0.0565109 -0.898224 0
      vertex -0.0565109 -0.898224 1.3
      vertex 0.0565109 -0.898224 1.3
    endloop
  endfacet
  facet normal 0 1 0
    outer loop
      vertex -0.0565109 -0.898224 1.3
      vertex 0.0565109 -0.898224 0
      vertex -0.0565109 -0.898224 0
    endloop
  endfacet
  facet normal -0.684541 -0.728974 0
    outer loop
      vertex 0.573681 0.693461 0
      vertex 0.656072 0.616092 1.3
      vertex 0.573681 0.693461 1.3
    endloop
  endfacet
  facet normal -0.684541 -0.728974 -0
    outer loop
      vertex 0.656072 0.616092 1.3
      vertex 0.573681 0.693461 0
      vertex 0.656072 0.616092 0
    endloop
  endfacet
  facet normal 0.684541 -0.728974 0
    outer loop
      vertex -0.656072 0.616092 0
      vertex -0.573681 0.693461 1.3
      vertex -0.656072 0.616092 1.3
    endloop
  endfacet
  facet normal 0.684541 -0.728974 0
    outer loop
      vertex -0.573681 0.693461 1.3
      vertex -0.656072 0.616092 0
      vertex -0.573681 0.693461 0
    endloop
  endfacet
  facet normal 0.368128 -0.929775 0
    outer loop
      vertex -0.383201 0.814343 0
      vertex -0.278115 0.85595 1.3
      vertex -0.383201 0.814343 1.3
    endloop
  endfacet
  facet normal 0.368128 -0.929775 0
    outer loop
      vertex -0.278115 0.85595 1.3
      vertex -0.383201 0.814343 0
      vertex -0.278115 0.85595 0
    endloop
  endfacet
  facet normal -0.904824 0.425785 0
    outer loop
      vertex 0.788675 -0.433578 0
      vertex 0.836799 -0.331311 1.3
      vertex 0.836799 -0.331311 0
    endloop
  endfacet
  facet normal -0.904824 0.425785 0
    outer loop
      vertex 0.836799 -0.331311 1.3
      vertex 0.788675 -0.433578 0
      vertex 0.788675 -0.433578 1.3
    endloop
  endfacet
  facet normal -0.904824 -0.425785 0
    outer loop
      vertex 0.836799 0.331311 0
      vertex 0.788675 0.433578 1.3
      vertex 0.788675 0.433578 0
    endloop
  endfacet
  facet normal -0.904824 -0.425785 0
    outer loop
      vertex 0.788675 0.433578 1.3
      vertex 0.836799 0.331311 0
      vertex 0.836799 0.331311 1.3
    endloop
  endfacet
  facet normal -0.368128 -0.929775 0
    outer loop
      vertex 0.278115 0.85595 0
      vertex 0.383201 0.814343 1.3
      vertex 0.278115 0.85595 1.3
    endloop
  endfacet
  facet normal -0.368128 -0.929775 -0
    outer loop
      vertex 0.383201 0.814343 1.3
      vertex 0.278115 0.85595 0
      vertex 0.383201 0.814343 0
    endloop
  endfacet
  facet normal -0.587786 -0.809016 0
    outer loop
      vertex 0.482244 0.759894 0
      vertex 0.573681 0.693461 1.3
      vertex 0.482244 0.759894 1.3
    endloop
  endfacet
  facet normal -0.587786 -0.809016 -0
    outer loop
      vertex 0.573681 0.693461 1.3
      vertex 0.482244 0.759894 0
      vertex 0.573681 0.693461 0
    endloop
  endfacet
  facet normal 0.904824 -0.425785 0
    outer loop
      vertex -0.836799 0.331311 1.3
      vertex -0.788675 0.433578 0
      vertex -0.788675 0.433578 1.3
    endloop
  endfacet
  facet normal 0.904824 -0.425785 0
    outer loop
      vertex -0.788675 0.433578 0
      vertex -0.836799 0.331311 1.3
      vertex -0.836799 0.331311 0
    endloop
  endfacet
  facet normal 0.770517 -0.63742 0
    outer loop
      vertex -0.728115 0.529006 1.3
      vertex -0.656072 0.616092 0
      vertex -0.656072 0.616092 1.3
    endloop
  endfacet
  facet normal 0.770517 -0.63742 0
    outer loop
      vertex -0.656072 0.616092 0
      vertex -0.728115 0.529006 1.3
      vertex -0.728115 0.529006 0
    endloop
  endfacet
  facet normal 0.951058 -0.309012 0
    outer loop
      vertex -0.871724 0.223821 1.3
      vertex -0.836799 0.331311 0
      vertex -0.836799 0.331311 1.3
    endloop
  endfacet
  facet normal 0.951058 -0.309012 0
    outer loop
      vertex -0.836799 0.331311 0
      vertex -0.871724 0.223821 1.3
      vertex -0.871724 0.223821 0
    endloop
  endfacet
  facet normal 0.481751 -0.876308 0
    outer loop
      vertex -0.482244 0.759894 0
      vertex -0.383201 0.814343 1.3
      vertex -0.482244 0.759894 1.3
    endloop
  endfacet
  facet normal 0.481751 -0.876308 0
    outer loop
      vertex -0.383201 0.814343 1.3
      vertex -0.482244 0.759894 0
      vertex -0.383201 0.814343 0
    endloop
  endfacet
  facet normal 0.248693 -0.968582 0
    outer loop
      vertex -0.278115 0.85595 0
      vertex -0.168643 0.884058 1.3
      vertex -0.278115 0.85595 1.3
    endloop
  endfacet
  facet normal 0.248693 -0.968582 0
    outer loop
      vertex -0.168643 0.884058 1.3
      vertex -0.278115 0.85595 0
      vertex -0.168643 0.884058 0
    endloop
  endfacet
  facet normal -0.982288 0.187378 0
    outer loop
      vertex 0.871724 -0.223821 0
      vertex 0.892902 -0.1128 1.3
      vertex 0.892902 -0.1128 0
    endloop
  endfacet
  facet normal -0.982288 0.187378 0
    outer loop
      vertex 0.892902 -0.1128 1.3
      vertex 0.871724 -0.223821 0
      vertex 0.871724 -0.223821 1.3
    endloop
  endfacet
  facet normal -0.368128 0.929775 0
    outer loop
      vertex 0.383201 -0.814343 0
      vertex 0.278115 -0.85595 1.3
      vertex 0.383201 -0.814343 1.3
    endloop
  endfacet
  facet normal -0.368128 0.929775 0
    outer loop
      vertex 0.278115 -0.85595 1.3
      vertex 0.383201 -0.814343 0
      vertex 0.278115 -0.85595 0
    endloop
  endfacet
  facet normal -0.951058 -0.309012 0
    outer loop
      vertex 0.871724 0.223821 0
      vertex 0.836799 0.331311 1.3
      vertex 0.836799 0.331311 0
    endloop
  endfacet
  facet normal -0.951058 -0.309012 0
    outer loop
      vertex 0.836799 0.331311 1.3
      vertex 0.871724 0.223821 0
      vertex 0.871724 0.223821 1.3
    endloop
  endfacet
  facet normal -0.982288 -0.187378 0
    outer loop
      vertex 0.892902 0.1128 0
      vertex 0.871724 0.223821 1.3
      vertex 0.871724 0.223821 0
    endloop
  endfacet
  facet normal -0.982288 -0.187378 0
    outer loop
      vertex 0.871724 0.223821 1.3
      vertex 0.892902 0.1128 0
      vertex 0.892902 0.1128 1.3
    endloop
  endfacet
  facet normal -0.770517 -0.63742 0
    outer loop
      vertex 0.728115 0.529006 0
      vertex 0.656072 0.616092 1.3
      vertex 0.656072 0.616092 0
    endloop
  endfacet
  facet normal -0.770517 -0.63742 0
    outer loop
      vertex 0.656072 0.616092 1.3
      vertex 0.728115 0.529006 0
      vertex 0.728115 0.529006 1.3
    endloop
  endfacet
  facet normal -0.84433 -0.535824 0
    outer loop
      vertex 0.788675 0.433578 0
      vertex 0.728115 0.529006 1.3
      vertex 0.728115 0.529006 0
    endloop
  endfacet
  facet normal -0.84433 -0.535824 0
    outer loop
      vertex 0.728115 0.529006 1.3
      vertex 0.788675 0.433578 0
      vertex 0.788675 0.433578 1.3
    endloop
  endfacet
  facet normal -0.248693 -0.968582 0
    outer loop
      vertex 0.168643 0.884058 0
      vertex 0.278115 0.85595 1.3
      vertex 0.168643 0.884058 1.3
    endloop
  endfacet
  facet normal -0.248693 -0.968582 -0
    outer loop
      vertex 0.278115 0.85595 1.3
      vertex 0.168643 0.884058 0
      vertex 0.278115 0.85595 0
    endloop
  endfacet
  facet normal -0.125337 -0.992114 0
    outer loop
      vertex 0.0565109 0.898224 0
      vertex 0.168643 0.884058 1.3
      vertex 0.0565109 0.898224 1.3
    endloop
  endfacet
  facet normal -0.125337 -0.992114 -0
    outer loop
      vertex 0.168643 0.884058 1.3
      vertex 0.0565109 0.898224 0
      vertex 0.168643 0.884058 0
    endloop
  endfacet
  facet normal -0.481751 -0.876308 0
    outer loop
      vertex 0.383201 0.814343 0
      vertex 0.482244 0.759894 1.3
      vertex 0.383201 0.814343 1.3
    endloop
  endfacet
  facet normal -0.481751 -0.876308 -0
    outer loop
      vertex 0.482244 0.759894 1.3
      vertex 0.383201 0.814343 0
      vertex 0.482244 0.759894 0
    endloop
  endfacet
  facet normal 0.84433 -0.535824 0
    outer loop
      vertex -0.788675 0.433578 1.3
      vertex -0.728115 0.529006 0
      vertex -0.728115 0.529006 1.3
    endloop
  endfacet
  facet normal 0.84433 -0.535824 0
    outer loop
      vertex -0.728115 0.529006 0
      vertex -0.788675 0.433578 1.3
      vertex -0.788675 0.433578 0
    endloop
  endfacet
  facet normal 0.982288 -0.187378 0
    outer loop
      vertex -0.892902 0.1128 1.3
      vertex -0.871724 0.223821 0
      vertex -0.871724 0.223821 1.3
    endloop
  endfacet
  facet normal 0.982288 -0.187378 0
    outer loop
      vertex -0.871724 0.223821 0
      vertex -0.892902 0.1128 1.3
      vertex -0.892902 0.1128 0
    endloop
  endfacet
  facet normal 0.587786 -0.809016 0
    outer loop
      vertex -0.573681 0.693461 0
      vertex -0.482244 0.759894 1.3
      vertex -0.573681 0.693461 1.3
    endloop
  endfacet
  facet normal 0.587786 -0.809016 0
    outer loop
      vertex -0.482244 0.759894 1.3
      vertex -0.573681 0.693461 0
      vertex -0.482244 0.759894 0
    endloop
  endfacet
  facet normal 0.125337 -0.992114 0
    outer loop
      vertex -0.168643 0.884058 0
      vertex -0.0565109 0.898224 1.3
      vertex -0.168643 0.884058 1.3
    endloop
  endfacet
  facet normal 0.125337 -0.992114 0
    outer loop
      vertex -0.0565109 0.898224 1.3
      vertex -0.168643 0.884058 0
      vertex -0.0565109 0.898224 0
    endloop
  endfacet
  facet normal -0.998026 0.0628013 0
    outer loop
      vertex 0.892902 -0.1128 0
      vertex 0.9 0 1.3
      vertex 0.9 0 0
    endloop
  endfacet
  facet normal -0.998026 0.0628013 0
    outer loop
      vertex 0.9 0 1.3
      vertex 0.892902 -0.1128 0
      vertex 0.892902 -0.1128 1.3
    endloop
  endfacet
  facet normal -0.770517 0.63742 0
    outer loop
      vertex 0.656072 -0.616092 0
      vertex 0.728115 -0.529006 1.3
      vertex 0.728115 -0.529006 0
    endloop
  endfacet
  facet normal -0.770517 0.63742 0
    outer loop
      vertex 0.728115 -0.529006 1.3
      vertex 0.656072 -0.616092 0
      vertex 0.656072 -0.616092 1.3
    endloop
  endfacet
  facet normal 0.770517 0.63742 0
    outer loop
      vertex -0.656072 -0.616092 1.3
      vertex -0.728115 -0.529006 0
      vertex -0.728115 -0.529006 1.3
    endloop
  endfacet
  facet normal 0.770517 0.63742 0
    outer loop
      vertex -0.728115 -0.529006 0
      vertex -0.656072 -0.616092 1.3
      vertex -0.656072 -0.616092 0
    endloop
  endfacet
  facet normal -0.481751 0.876308 0
    outer loop
      vertex 0.482244 -0.759894 0
      vertex 0.383201 -0.814343 1.3
      vertex 0.482244 -0.759894 1.3
    endloop
  endfacet
  facet normal -0.481751 0.876308 0
    outer loop
      vertex 0.383201 -0.814343 1.3
      vertex 0.482244 -0.759894 0
      vertex 0.383201 -0.814343 0
    endloop
  endfacet
  facet normal -0.951058 0.309012 0
    outer loop
      vertex 0.836799 -0.331311 0
      vertex 0.871724 -0.223821 1.3
      vertex 0.871724 -0.223821 0
    endloop
  endfacet
  facet normal -0.951058 0.309012 0
    outer loop
      vertex 0.871724 -0.223821 1.3
      vertex 0.836799 -0.331311 0
      vertex 0.836799 -0.331311 1.3
    endloop
  endfacet
  facet normal -0.84433 0.535824 0
    outer loop
      vertex 0.728115 -0.529006 0
      vertex 0.788675 -0.433578 1.3
      vertex 0.788675 -0.433578 0
    endloop
  endfacet
  facet normal -0.84433 0.535824 0
    outer loop
      vertex 0.788675 -0.433578 1.3
      vertex 0.728115 -0.529006 0
      vertex 0.728115 -0.529006 1.3
    endloop
  endfacet
  facet normal 0.951058 0.309012 0
    outer loop
      vertex -0.836799 -0.331311 1.3
      vertex -0.871724 -0.223821 0
      vertex -0.871724 -0.223821 1.3
    endloop
  endfacet
  facet normal 0.951058 0.309012 0
    outer loop
      vertex -0.871724 -0.223821 0
      vertex -0.836799 -0.331311 1.3
      vertex -0.836799 -0.331311 0
    endloop
  endfacet
  facet normal -0.587786 0.809016 0
    outer loop
      vertex 0.573681 -0.693461 0
      vertex 0.482244 -0.759894 1.3
      vertex 0.573681 -0.693461 1.3
    endloop
  endfacet
  facet normal -0.587786 0.809016 0
    outer loop
      vertex 0.482244 -0.759894 1.3
      vertex 0.573681 -0.693461 0
      vertex 0.482244 -0.759894 0
    endloop
  endfacet
  facet normal -0.248693 0.968582 0
    outer loop
      vertex 0.278115 -0.85595 0
      vertex 0.168643 -0.884058 1.3
      vertex 0.278115 -0.85595 1.3
    endloop
  endfacet
  facet normal -0.248693 0.968582 0
    outer loop
      vertex 0.168643 -0.884058 1.3
      vertex 0.278115 -0.85595 0
      vertex 0.168643 -0.884058 0
    endloop
  endfacet
  facet normal -0.125337 0.992114 0
    outer loop
      vertex 0.168643 -0.884058 0
      vertex 0.0565109 -0.898224 1.3
      vertex 0.168643 -0.884058 1.3
    endloop
  endfacet
  facet normal -0.125337 0.992114 0
    outer loop
      vertex 0.0565109 -0.898224 1.3
      vertex 0.168643 -0.884058 0
      vertex 0.0565109 -0.898224 0
    endloop
  endfacet
  facet normal 0.125337 0.992114 -0
    outer loop
      vertex -0.0565109 -0.898224 0
      vertex -0.168643 -0.884058 1.3
      vertex -0.0565109 -0.898224 1.3
    endloop
  endfacet
  facet normal 0.125337 0.992114 0
    outer loop
      vertex -0.168643 -0.884058 1.3
      vertex -0.0565109 -0.898224 0
      vertex -0.168643 -0.884058 0
    endloop
  endfacet
  facet normal 0.248693 0.968582 -0
    outer loop
      vertex -0.168643 -0.884058 0
      vertex -0.278115 -0.85595 1.3
      vertex -0.168643 -0.884058 1.3
    endloop
  endfacet
  facet normal 0.248693 0.968582 0
    outer loop
      vertex -0.278115 -0.85595 1.3
      vertex -0.168643 -0.884058 0
      vertex -0.278115 -0.85595 0
    endloop
  endfacet
  facet normal 0.84433 0.535824 0
    outer loop
      vertex -0.728115 -0.529006 1.3
      vertex -0.788675 -0.433578 0
      vertex -0.788675 -0.433578 1.3
    endloop
  endfacet
  facet normal 0.84433 0.535824 0
    outer loop
      vertex -0.788675 -0.433578 0
      vertex -0.728115 -0.529006 1.3
      vertex -0.728115 -0.529006 0
    endloop
  endfacet
  facet normal 0.904824 0.425785 0
    outer loop
      vertex -0.788675 -0.433578 1.3
      vertex -0.836799 -0.331311 0
      vertex -0.836799 -0.331311 1.3
    endloop
  endfacet
  facet normal 0.904824 0.425785 0
    outer loop
      vertex -0.836799 -0.331311 0
      vertex -0.788675 -0.433578 1.3
      vertex -0.788675 -0.433578 0
    endloop
  endfacet
  facet normal 0.982288 0.187378 0
    outer loop
      vertex -0.871724 -0.223821 1.3
      vertex -0.892902 -0.1128 0
      vertex -0.892902 -0.1128 1.3
    endloop
  endfacet
  facet normal 0.982288 0.187378 0
    outer loop
      vertex -0.892902 -0.1128 0
      vertex -0.871724 -0.223821 1.3
      vertex -0.871724 -0.223821 0
    endloop
  endfacet
  facet normal 0.998026 0.0628013 0
    outer loop
      vertex -0.892902 -0.1128 1.3
      vertex -0.9 0 0
      vertex -0.9 0 1.3
    endloop
  endfacet
  facet normal 0.998026 0.0628013 0
    outer loop
      vertex -0.9 0 0
      vertex -0.892902 -0.1128 1.3
      vertex -0.892902 -0.1128 0
    endloop
  endfacet
  facet normal -0.684541 0.728974 0
    outer loop
      vertex 0.656072 -0.616092 0
      vertex 0.573681 -0.693461 1.3
      vertex 0.656072 -0.616092 1.3
    endloop
  endfacet
  facet normal -0.684541 0.728974 0
    outer loop
      vertex 0.573681 -0.693461 1.3
      vertex 0.656072 -0.616092 0
      vertex 0.573681 -0.693461 0
    endloop
  endfacet
  facet normal 0.684541 0.728974 -0
    outer loop
      vertex -0.573681 -0.693461 0
      vertex -0.656072 -0.616092 1.3
      vertex -0.573681 -0.693461 1.3
    endloop
  endfacet
  facet normal 0.684541 0.728974 0
    outer loop
      vertex -0.656072 -0.616092 1.3
      vertex -0.573681 -0.693461 0
      vertex -0.656072 -0.616092 0
    endloop
  endfacet
  facet normal 0.587786 0.809016 -0
    outer loop
      vertex -0.482244 -0.759894 0
      vertex -0.573681 -0.693461 1.3
      vertex -0.482244 -0.759894 1.3
    endloop
  endfacet
  facet normal 0.587786 0.809016 0
    outer loop
      vertex -0.573681 -0.693461 1.3
      vertex -0.482244 -0.759894 0
      vertex -0.573681 -0.693461 0
    endloop
  endfacet
  facet normal 0.368128 0.929775 -0
    outer loop
      vertex -0.278115 -0.85595 0
      vertex -0.383201 -0.814343 1.3
      vertex -0.278115 -0.85595 1.3
    endloop
  endfacet
  facet normal 0.368128 0.929775 0
    outer loop
      vertex -0.383201 -0.814343 1.3
      vertex -0.278115 -0.85595 0
      vertex -0.383201 -0.814343 0
    endloop
  endfacet
  facet normal 0.481751 0.876308 -0
    outer loop
      vertex -0.383201 -0.814343 0
      vertex -0.482244 -0.759894 1.3
      vertex -0.383201 -0.814343 1.3
    endloop
  endfacet
  facet normal 0.481751 0.876308 0
    outer loop
      vertex -0.482244 -0.759894 1.3
      vertex -0.383201 -0.814343 0
      vertex -0.482244 -0.759894 0
    endloop
  endfacet
endsolid OpenSCAD_Model
