solid OpenSCAD_Model
  facet normal 0.998027 0.0627923 0
    outer loop
      vertex 95.2 0 20
      vertex 94.4493 11.9317 0
      vertex 94.4493 11.9317 20
    endloop
  endfacet
  facet normal 0.998027 0.0627923 0
    outer loop
      vertex 94.4493 11.9317 0
      vertex 95.2 0 20
      vertex 95.2 0 0
    endloop
  endfacet
  facet normal -0.998027 0.0627923 0
    outer loop
      vertex -95.2 0 0
      vertex -94.4493 11.9317 20
      vertex -94.4493 11.9317 0
    endloop
  endfacet
  facet normal -0.998027 0.0627923 0
    outer loop
      vertex -94.4493 11.9317 20
      vertex -95.2 0 0
      vertex -95.2 0 20
    endloop
  endfacet
  facet normal 0 1 -0
    outer loop
      vertex 5.97766 95.0121 0
      vertex -5.97766 95.0121 20
      vertex 5.97766 95.0121 20
    endloop
  endfacet
  facet normal 0 1 0
    outer loop
      vertex -5.97766 95.0121 20
      vertex 5.97766 95.0121 0
      vertex -5.97766 95.0121 0
    endloop
  endfacet
  facet normal 0 -1 0
    outer loop
      vertex -5.97766 -95.0121 0
      vertex 5.97766 -95.0121 20
      vertex -5.97766 -95.0121 20
    endloop
  endfacet
  facet normal 0 -1 -0
    outer loop
      vertex 5.97766 -95.0121 20
      vertex -5.97766 -95.0121 0
      vertex 5.97766 -95.0121 0
    endloop
  endfacet
  facet normal 0.68455 0.728966 -0
    outer loop
      vertex 69.3978 65.1689 0
      vertex 60.6828 73.3529 20
      vertex 69.3978 65.1689 20
    endloop
  endfacet
  facet normal 0.68455 0.728966 0
    outer loop
      vertex 60.6828 73.3529 20
      vertex 69.3978 65.1689 0
      vertex 60.6828 73.3529 0
    endloop
  endfacet
  facet normal -0.68455 0.728966 0
    outer loop
      vertex -60.6828 73.3529 0
      vertex -69.3978 65.1689 20
      vertex -60.6828 73.3529 20
    endloop
  endfacet
  facet normal -0.68455 0.728966 0
    outer loop
      vertex -69.3978 65.1689 20
      vertex -60.6828 73.3529 0
      vertex -69.3978 65.1689 0
    endloop
  endfacet
  facet normal -0.368128 0.929775 0
    outer loop
      vertex -29.4184 90.5406 0
      vertex -40.5342 86.1395 20
      vertex -29.4184 90.5406 20
    endloop
  endfacet
  facet normal -0.368128 0.929775 0
    outer loop
      vertex -40.5342 86.1395 20
      vertex -29.4184 90.5406 0
      vertex -40.5342 86.1395 0
    endloop
  endfacet
  facet normal 0.904826 0.425781 0
    outer loop
      vertex 88.5147 35.0455 20
      vertex 83.4244 45.8629 0
      vertex 83.4244 45.8629 20
    endloop
  endfacet
  facet normal 0.904826 0.425781 0
    outer loop
      vertex 83.4244 45.8629 0
      vertex 88.5147 35.0455 20
      vertex 88.5147 35.0455 0
    endloop
  endfacet
  facet normal 0.982287 0.18738 0
    outer loop
      vertex 94.4493 11.9317 20
      vertex 92.2091 23.6753 0
      vertex 92.2091 23.6753 20
    endloop
  endfacet
  facet normal 0.982287 0.18738 0
    outer loop
      vertex 92.2091 23.6753 0
      vertex 94.4493 11.9317 20
      vertex 94.4493 11.9317 0
    endloop
  endfacet
  facet normal 0.368128 0.929775 -0
    outer loop
      vertex 40.5342 86.1395 0
      vertex 29.4184 90.5406 20
      vertex 40.5342 86.1395 20
    endloop
  endfacet
  facet normal 0.368128 0.929775 0
    outer loop
      vertex 29.4184 90.5406 20
      vertex 40.5342 86.1395 0
      vertex 29.4184 90.5406 0
    endloop
  endfacet
  facet normal 0.248685 0.968584 -0
    outer loop
      vertex 29.4184 90.5406 0
      vertex 17.8387 93.5137 20
      vertex 29.4184 90.5406 20
    endloop
  endfacet
  facet normal 0.248685 0.968584 0
    outer loop
      vertex 17.8387 93.5137 20
      vertex 29.4184 90.5406 0
      vertex 17.8387 93.5137 0
    endloop
  endfacet
  facet normal 0.58778 0.809021 -0
    outer loop
      vertex 60.6828 73.3529 0
      vertex 51.0107 80.38 20
      vertex 60.6828 73.3529 20
    endloop
  endfacet
  facet normal 0.58778 0.809021 0
    outer loop
      vertex 51.0107 80.38 20
      vertex 60.6828 73.3529 0
      vertex 51.0107 80.38 0
    endloop
  endfacet
  facet normal -0.904826 0.425781 0
    outer loop
      vertex -88.5147 35.0455 0
      vertex -83.4244 45.8629 20
      vertex -83.4244 45.8629 0
    endloop
  endfacet
  facet normal -0.904826 0.425781 0
    outer loop
      vertex -83.4244 45.8629 20
      vertex -88.5147 35.0455 0
      vertex -88.5147 35.0455 20
    endloop
  endfacet
  facet normal -0.951057 0.309017 0
    outer loop
      vertex -92.2091 23.6753 0
      vertex -88.5147 35.0455 20
      vertex -88.5147 35.0455 0
    endloop
  endfacet
  facet normal -0.951057 0.309017 0
    outer loop
      vertex -88.5147 35.0455 20
      vertex -92.2091 23.6753 0
      vertex -92.2091 23.6753 20
    endloop
  endfacet
  facet normal -0.481753 0.876307 0
    outer loop
      vertex -40.5342 86.1395 0
      vertex -51.0107 80.38 20
      vertex -40.5342 86.1395 20
    endloop
  endfacet
  facet normal -0.481753 0.876307 0
    outer loop
      vertex -51.0107 80.38 20
      vertex -40.5342 86.1395 0
      vertex -51.0107 80.38 0
    endloop
  endfacet
  facet normal -0.125333 0.992115 0
    outer loop
      vertex -5.97766 95.0121 0
      vertex -17.8387 93.5137 20
      vertex -5.97766 95.0121 20
    endloop
  endfacet
  facet normal -0.125333 0.992115 0
    outer loop
      vertex -17.8387 93.5137 20
      vertex -5.97766 95.0121 0
      vertex -17.8387 93.5137 0
    endloop
  endfacet
  facet normal 0.125333 -0.992115 0
    outer loop
      vertex 5.97766 -95.0121 0
      vertex 17.8387 -93.5137 20
      vertex 5.97766 -95.0121 20
    endloop
  endfacet
  facet normal 0.125333 -0.992115 0
    outer loop
      vertex 17.8387 -93.5137 20
      vertex 5.97766 -95.0121 0
      vertex 17.8387 -93.5137 0
    endloop
  endfacet
  facet normal 0.368128 -0.929775 0
    outer loop
      vertex 29.4184 -90.5406 0
      vertex 40.5342 -86.1395 20
      vertex 29.4184 -90.5406 20
    endloop
  endfacet
  facet normal 0.368128 -0.929775 0
    outer loop
      vertex 40.5342 -86.1395 20
      vertex 29.4184 -90.5406 0
      vertex 40.5342 -86.1395 0
    endloop
  endfacet
  facet normal 0.951057 0.309017 0
    outer loop
      vertex 92.2091 23.6753 20
      vertex 88.5147 35.0455 0
      vertex 88.5147 35.0455 20
    endloop
  endfacet
  facet normal 0.951057 0.309017 0
    outer loop
      vertex 88.5147 35.0455 0
      vertex 92.2091 23.6753 20
      vertex 92.2091 23.6753 0
    endloop
  endfacet
  facet normal 0.770512 0.637425 0
    outer loop
      vertex 77.0184 55.9572 20
      vertex 69.3978 65.1689 0
      vertex 69.3978 65.1689 20
    endloop
  endfacet
  facet normal 0.770512 0.637425 0
    outer loop
      vertex 69.3978 65.1689 0
      vertex 77.0184 55.9572 20
      vertex 77.0184 55.9572 0
    endloop
  endfacet
  facet normal 0.844329 0.535825 0
    outer loop
      vertex 83.4244 45.8629 20
      vertex 77.0184 55.9572 0
      vertex 77.0184 55.9572 20
    endloop
  endfacet
  facet normal 0.844329 0.535825 0
    outer loop
      vertex 77.0184 55.9572 0
      vertex 83.4244 45.8629 20
      vertex 83.4244 45.8629 0
    endloop
  endfacet
  facet normal 0.125333 0.992115 -0
    outer loop
      vertex 17.8387 93.5137 0
      vertex 5.97766 95.0121 20
      vertex 17.8387 93.5137 20
    endloop
  endfacet
  facet normal 0.125333 0.992115 0
    outer loop
      vertex 5.97766 95.0121 20
      vertex 17.8387 93.5137 0
      vertex 5.97766 95.0121 0
    endloop
  endfacet
  facet normal 0.481753 0.876307 -0
    outer loop
      vertex 51.0107 80.38 0
      vertex 40.5342 86.1395 20
      vertex 51.0107 80.38 20
    endloop
  endfacet
  facet normal 0.481753 0.876307 0
    outer loop
      vertex 40.5342 86.1395 20
      vertex 51.0107 80.38 0
      vertex 40.5342 86.1395 0
    endloop
  endfacet
  facet normal -0.844329 0.535825 0
    outer loop
      vertex -83.4244 45.8629 0
      vertex -77.0184 55.9572 20
      vertex -77.0184 55.9572 0
    endloop
  endfacet
  facet normal -0.844329 0.535825 0
    outer loop
      vertex -77.0184 55.9572 20
      vertex -83.4244 45.8629 0
      vertex -83.4244 45.8629 20
    endloop
  endfacet
  facet normal -0.770512 0.637425 0
    outer loop
      vertex -77.0184 55.9572 0
      vertex -69.3978 65.1689 20
      vertex -69.3978 65.1689 0
    endloop
  endfacet
  facet normal -0.770512 0.637425 0
    outer loop
      vertex -69.3978 65.1689 20
      vertex -77.0184 55.9572 0
      vertex -77.0184 55.9572 20
    endloop
  endfacet
  facet normal -0.982287 0.18738 0
    outer loop
      vertex -94.4493 11.9317 0
      vertex -92.2091 23.6753 20
      vertex -92.2091 23.6753 0
    endloop
  endfacet
  facet normal -0.982287 0.18738 0
    outer loop
      vertex -92.2091 23.6753 20
      vertex -94.4493 11.9317 0
      vertex -94.4493 11.9317 20
    endloop
  endfacet
  facet normal 0 0 1
    outer loop
      vertex 75 0 20
      vertex 95.2 0 20
      vertex 94.4493 11.9317 20
    endloop
  endfacet
  facet normal 0 0 1
    outer loop
      vertex 74.4086 9.39999 20
      vertex 94.4493 11.9317 20
      vertex 92.2091 23.6753 20
    endloop
  endfacet
  facet normal 0 0 1
    outer loop
      vertex 95.2 0 20
      vertex 75 0 20
      vertex 94.4493 -11.9317 20
    endloop
  endfacet
  facet normal 0 0 1
    outer loop
      vertex 72.6437 18.6517 20
      vertex 92.2091 23.6753 20
      vertex 88.5147 35.0455 20
    endloop
  endfacet
  facet normal -0 0 1
    outer loop
      vertex 74.4086 -9.39999 20
      vertex 94.4493 -11.9317 20
      vertex 75 0 20
    endloop
  endfacet
  facet normal 0 0 1
    outer loop
      vertex 69.7332 27.6093 20
      vertex 88.5147 35.0455 20
      vertex 83.4244 45.8629 20
    endloop
  endfacet
  facet normal 0 0 1
    outer loop
      vertex 94.4493 -11.9317 20
      vertex 74.4086 -9.39999 20
      vertex 92.2091 -23.6753 20
    endloop
  endfacet
  facet normal 0 0 1
    outer loop
      vertex 65.723 36.1315 20
      vertex 83.4244 45.8629 20
      vertex 77.0184 55.9572 20
    endloop
  endfacet
  facet normal -0 0 1
    outer loop
      vertex 72.6437 -18.6517 20
      vertex 92.2091 -23.6753 20
      vertex 74.4086 -9.39999 20
    endloop
  endfacet
  facet normal 0 0 1
    outer loop
      vertex 92.2091 -23.6753 20
      vertex 72.6437 -18.6517 20
      vertex 88.5147 -35.0455 20
    endloop
  endfacet
  facet normal 0 0 1
    outer loop
      vertex 94.4493 11.9317 20
      vertex 74.4086 9.39999 20
      vertex 75 0 20
    endloop
  endfacet
  facet normal 0 0 1
    outer loop
      vertex 92.2091 23.6753 20
      vertex 72.6437 18.6517 20
      vertex 74.4086 9.39999 20
    endloop
  endfacet
  facet normal 0 0 1
    outer loop
      vertex 88.5147 35.0455 20
      vertex 69.7332 27.6093 20
      vertex 72.6437 18.6517 20
    endloop
  endfacet
  facet normal 0 0 1
    outer loop
      vertex 60.6763 44.0839 20
      vertex 77.0184 55.9572 20
      vertex 69.3978 65.1689 20
    endloop
  endfacet
  facet normal 0 0 1
    outer loop
      vertex 83.4244 45.8629 20
      vertex 65.723 36.1315 20
      vertex 69.7332 27.6093 20
    endloop
  endfacet
  facet normal 0 0 1
    outer loop
      vertex 54.6726 51.341 20
      vertex 69.3978 65.1689 20
      vertex 60.6828 73.3529 20
    endloop
  endfacet
  facet normal 0 0 1
    outer loop
      vertex 77.0184 55.9572 20
      vertex 60.6763 44.0839 20
      vertex 65.723 36.1315 20
    endloop
  endfacet
  facet normal 0 0 1
    outer loop
      vertex 69.3978 65.1689 20
      vertex 54.6726 51.341 20
      vertex 60.6763 44.0839 20
    endloop
  endfacet
  facet normal 0 0 1
    outer loop
      vertex 47.8068 57.7885 20
      vertex 60.6828 73.3529 20
      vertex 51.0107 80.38 20
    endloop
  endfacet
  facet normal 0 0 1
    outer loop
      vertex 60.6828 73.3529 20
      vertex 47.8068 57.7885 20
      vertex 54.6726 51.341 20
    endloop
  endfacet
  facet normal 0 0 1
    outer loop
      vertex 40.187 63.3246 20
      vertex 51.0107 80.38 20
      vertex 40.5342 86.1395 20
    endloop
  endfacet
  facet normal 0 0 1
    outer loop
      vertex 51.0107 80.38 20
      vertex 40.187 63.3246 20
      vertex 47.8068 57.7885 20
    endloop
  endfacet
  facet normal 0 0 1
    outer loop
      vertex 40.5342 86.1395 20
      vertex 31.9334 67.862 20
      vertex 40.187 63.3246 20
    endloop
  endfacet
  facet normal 0 0 1
    outer loop
      vertex 29.4184 90.5406 20
      vertex 31.9334 67.862 20
      vertex 40.5342 86.1395 20
    endloop
  endfacet
  facet normal 0 0 1
    outer loop
      vertex 29.4184 90.5406 20
      vertex 23.1763 71.3292 20
      vertex 31.9334 67.862 20
    endloop
  endfacet
  facet normal 0 0 1
    outer loop
      vertex 17.8387 93.5137 20
      vertex 23.1763 71.3292 20
      vertex 29.4184 90.5406 20
    endloop
  endfacet
  facet normal 0 0 1
    outer loop
      vertex 17.8387 93.5137 20
      vertex 14.0536 73.6715 20
      vertex 23.1763 71.3292 20
    endloop
  endfacet
  facet normal 0 0 1
    outer loop
      vertex 5.97766 95.0121 20
      vertex 14.0536 73.6715 20
      vertex 17.8387 93.5137 20
    endloop
  endfacet
  facet normal 0 0 1
    outer loop
      vertex 5.97766 95.0121 20
      vertex 4.70929 74.852 20
      vertex 14.0536 73.6715 20
    endloop
  endfacet
  facet normal 0 0 1
    outer loop
      vertex 5.97766 95.0121 20
      vertex -4.70929 74.852 20
      vertex 4.70929 74.852 20
    endloop
  endfacet
  facet normal -0 0 1
    outer loop
      vertex -5.97766 95.0121 20
      vertex -4.70929 74.852 20
      vertex 5.97766 95.0121 20
    endloop
  endfacet
  facet normal 0 0 1
    outer loop
      vertex -5.97766 95.0121 20
      vertex -14.0536 73.6715 20
      vertex -4.70929 74.852 20
    endloop
  endfacet
  facet normal -0 0 1
    outer loop
      vertex -17.8387 93.5137 20
      vertex -14.0536 73.6715 20
      vertex -5.97766 95.0121 20
    endloop
  endfacet
  facet normal 0 0 1
    outer loop
      vertex -17.8387 93.5137 20
      vertex -23.1763 71.3292 20
      vertex -14.0536 73.6715 20
    endloop
  endfacet
  facet normal -0 0 1
    outer loop
      vertex -29.4184 90.5406 20
      vertex -23.1763 71.3292 20
      vertex -17.8387 93.5137 20
    endloop
  endfacet
  facet normal 0 0 1
    outer loop
      vertex -29.4184 90.5406 20
      vertex -31.9334 67.862 20
      vertex -23.1763 71.3292 20
    endloop
  endfacet
  facet normal -0 0 1
    outer loop
      vertex -40.5342 86.1395 20
      vertex -31.9334 67.862 20
      vertex -29.4184 90.5406 20
    endloop
  endfacet
  facet normal 0 0 1
    outer loop
      vertex -31.9334 67.862 20
      vertex -40.5342 86.1395 20
      vertex -40.187 63.3246 20
    endloop
  endfacet
  facet normal -0 0 1
    outer loop
      vertex -51.0107 80.38 20
      vertex -40.187 63.3246 20
      vertex -40.5342 86.1395 20
    endloop
  endfacet
  facet normal 0 0 1
    outer loop
      vertex -40.187 63.3246 20
      vertex -51.0107 80.38 20
      vertex -47.8068 57.7885 20
    endloop
  endfacet
  facet normal -0 0 1
    outer loop
      vertex -60.6828 73.3529 20
      vertex -47.8068 57.7885 20
      vertex -51.0107 80.38 20
    endloop
  endfacet
  facet normal 0 0 1
    outer loop
      vertex -47.8068 57.7885 20
      vertex -60.6828 73.3529 20
      vertex -54.6726 51.341 20
    endloop
  endfacet
  facet normal -0 0 1
    outer loop
      vertex -69.3978 65.1689 20
      vertex -54.6726 51.341 20
      vertex -60.6828 73.3529 20
    endloop
  endfacet
  facet normal 0 0 1
    outer loop
      vertex -54.6726 51.341 20
      vertex -69.3978 65.1689 20
      vertex -60.6763 44.0839 20
    endloop
  endfacet
  facet normal -0 0 1
    outer loop
      vertex -77.0184 55.9572 20
      vertex -60.6763 44.0839 20
      vertex -69.3978 65.1689 20
    endloop
  endfacet
  facet normal 0 0 1
    outer loop
      vertex -60.6763 44.0839 20
      vertex -77.0184 55.9572 20
      vertex -65.723 36.1315 20
    endloop
  endfacet
  facet normal -0 0 1
    outer loop
      vertex -83.4244 45.8629 20
      vertex -65.723 36.1315 20
      vertex -77.0184 55.9572 20
    endloop
  endfacet
  facet normal 0 0 1
    outer loop
      vertex -65.723 36.1315 20
      vertex -83.4244 45.8629 20
      vertex -69.7332 27.6093 20
    endloop
  endfacet
  facet normal 0 0 1
    outer loop
      vertex -69.7332 27.6093 20
      vertex -88.5147 35.0455 20
      vertex -72.6437 18.6517 20
    endloop
  endfacet
  facet normal -0 0 1
    outer loop
      vertex -88.5147 35.0455 20
      vertex -69.7332 27.6093 20
      vertex -83.4244 45.8629 20
    endloop
  endfacet
  facet normal -0 0 1
    outer loop
      vertex 69.7332 -27.6093 20
      vertex 88.5147 -35.0455 20
      vertex 72.6437 -18.6517 20
    endloop
  endfacet
  facet normal 0 0 1
    outer loop
      vertex 88.5147 -35.0455 20
      vertex 69.7332 -27.6093 20
      vertex 83.4244 -45.8629 20
    endloop
  endfacet
  facet normal -0 0 1
    outer loop
      vertex 65.723 -36.1315 20
      vertex 83.4244 -45.8629 20
      vertex 69.7332 -27.6093 20
    endloop
  endfacet
  facet normal 0 0 1
    outer loop
      vertex 83.4244 -45.8629 20
      vertex 65.723 -36.1315 20
      vertex 77.0184 -55.9572 20
    endloop
  endfacet
  facet normal -0 0 1
    outer loop
      vertex 60.6763 -44.0839 20
      vertex 77.0184 -55.9572 20
      vertex 65.723 -36.1315 20
    endloop
  endfacet
  facet normal 0 0 1
    outer loop
      vertex 77.0184 -55.9572 20
      vertex 60.6763 -44.0839 20
      vertex 69.3978 -65.1689 20
    endloop
  endfacet
  facet normal -0 0 1
    outer loop
      vertex 54.6726 -51.341 20
      vertex 69.3978 -65.1689 20
      vertex 60.6763 -44.0839 20
    endloop
  endfacet
  facet normal 0 0 1
    outer loop
      vertex 69.3978 -65.1689 20
      vertex 54.6726 -51.341 20
      vertex 60.6828 -73.3529 20
    endloop
  endfacet
  facet normal -0 0 1
    outer loop
      vertex 47.8068 -57.7885 20
      vertex 60.6828 -73.3529 20
      vertex 54.6726 -51.341 20
    endloop
  endfacet
  facet normal 0 0 1
    outer loop
      vertex 60.6828 -73.3529 20
      vertex 47.8068 -57.7885 20
      vertex 51.0107 -80.38 20
    endloop
  endfacet
  facet normal -0 0 1
    outer loop
      vertex 40.187 -63.3246 20
      vertex 51.0107 -80.38 20
      vertex 47.8068 -57.7885 20
    endloop
  endfacet
  facet normal 0 0 1
    outer loop
      vertex 51.0107 -80.38 20
      vertex 40.187 -63.3246 20
      vertex 40.5342 -86.1395 20
    endloop
  endfacet
  facet normal -0 0 1
    outer loop
      vertex 31.9334 -67.862 20
      vertex 40.5342 -86.1395 20
      vertex 40.187 -63.3246 20
    endloop
  endfacet
  facet normal 0 0 1
    outer loop
      vertex 31.9334 -67.862 20
      vertex 29.4184 -90.5406 20
      vertex 40.5342 -86.1395 20
    endloop
  endfacet
  facet normal -0 0 1
    outer loop
      vertex 23.1763 -71.3292 20
      vertex 29.4184 -90.5406 20
      vertex 31.9334 -67.862 20
    endloop
  endfacet
  facet normal 0 0 1
    outer loop
      vertex 23.1763 -71.3292 20
      vertex 17.8387 -93.5137 20
      vertex 29.4184 -90.5406 20
    endloop
  endfacet
  facet normal -0 0 1
    outer loop
      vertex 14.0536 -73.6715 20
      vertex 17.8387 -93.5137 20
      vertex 23.1763 -71.3292 20
    endloop
  endfacet
  facet normal 0 0 1
    outer loop
      vertex 14.0536 -73.6715 20
      vertex 5.97766 -95.0121 20
      vertex 17.8387 -93.5137 20
    endloop
  endfacet
  facet normal -0 0 1
    outer loop
      vertex 4.70929 -74.852 20
      vertex 5.97766 -95.0121 20
      vertex 14.0536 -73.6715 20
    endloop
  endfacet
  facet normal -0 0 1
    outer loop
      vertex -4.70929 -74.852 20
      vertex 5.97766 -95.0121 20
      vertex 4.70929 -74.852 20
    endloop
  endfacet
  facet normal 0 0 1
    outer loop
      vertex -4.70929 -74.852 20
      vertex -5.97766 -95.0121 20
      vertex 5.97766 -95.0121 20
    endloop
  endfacet
  facet normal 0 0 1
    outer loop
      vertex -14.0536 -73.6715 20
      vertex -5.97766 -95.0121 20
      vertex -4.70929 -74.852 20
    endloop
  endfacet
  facet normal 0 0 1
    outer loop
      vertex -14.0536 -73.6715 20
      vertex -17.8387 -93.5137 20
      vertex -5.97766 -95.0121 20
    endloop
  endfacet
  facet normal 0 0 1
    outer loop
      vertex -23.1763 -71.3292 20
      vertex -17.8387 -93.5137 20
      vertex -14.0536 -73.6715 20
    endloop
  endfacet
  facet normal 0 0 1
    outer loop
      vertex -23.1763 -71.3292 20
      vertex -29.4184 -90.5406 20
      vertex -17.8387 -93.5137 20
    endloop
  endfacet
  facet normal 0 0 1
    outer loop
      vertex -31.9334 -67.862 20
      vertex -29.4184 -90.5406 20
      vertex -23.1763 -71.3292 20
    endloop
  endfacet
  facet normal 0 0 1
    outer loop
      vertex -40.5342 -86.1395 20
      vertex -31.9334 -67.862 20
      vertex -40.187 -63.3246 20
    endloop
  endfacet
  facet normal 0 0 1
    outer loop
      vertex -31.9334 -67.862 20
      vertex -40.5342 -86.1395 20
      vertex -29.4184 -90.5406 20
    endloop
  endfacet
  facet normal 0 0 1
    outer loop
      vertex -51.0107 -80.38 20
      vertex -40.187 -63.3246 20
      vertex -47.8068 -57.7885 20
    endloop
  endfacet
  facet normal 0 0 1
    outer loop
      vertex -40.187 -63.3246 20
      vertex -51.0107 -80.38 20
      vertex -40.5342 -86.1395 20
    endloop
  endfacet
  facet normal 0 0 1
    outer loop
      vertex -60.6828 -73.3529 20
      vertex -47.8068 -57.7885 20
      vertex -54.6726 -51.341 20
    endloop
  endfacet
  facet normal 0 0 1
    outer loop
      vertex -69.3978 -65.1689 20
      vertex -54.6726 -51.341 20
      vertex -60.6763 -44.0839 20
    endloop
  endfacet
  facet normal 0 0 1
    outer loop
      vertex -47.8068 -57.7885 20
      vertex -60.6828 -73.3529 20
      vertex -51.0107 -80.38 20
    endloop
  endfacet
  facet normal 0 0 1
    outer loop
      vertex -77.0184 -55.9572 20
      vertex -60.6763 -44.0839 20
      vertex -65.723 -36.1315 20
    endloop
  endfacet
  facet normal 0 0 1
    outer loop
      vertex -54.6726 -51.341 20
      vertex -69.3978 -65.1689 20
      vertex -60.6828 -73.3529 20
    endloop
  endfacet
  facet normal 0 0 1
    outer loop
      vertex -83.4244 -45.8629 20
      vertex -65.723 -36.1315 20
      vertex -69.7332 -27.6093 20
    endloop
  endfacet
  facet normal 0 0 1
    outer loop
      vertex -88.5147 -35.0455 20
      vertex -69.7332 -27.6093 20
      vertex -72.6437 -18.6517 20
    endloop
  endfacet
  facet normal 0 0 1
    outer loop
      vertex -92.2091 -23.6753 20
      vertex -72.6437 -18.6517 20
      vertex -74.4086 -9.39999 20
    endloop
  endfacet
  facet normal 0 0 1
    outer loop
      vertex -60.6763 -44.0839 20
      vertex -77.0184 -55.9572 20
      vertex -69.3978 -65.1689 20
    endloop
  endfacet
  facet normal 0 0 1
    outer loop
      vertex -94.4493 -11.9317 20
      vertex -74.4086 -9.39999 20
      vertex -75 0 20
    endloop
  endfacet
  facet normal -0 0 1
    outer loop
      vertex -92.2091 23.6753 20
      vertex -72.6437 18.6517 20
      vertex -88.5147 35.0455 20
    endloop
  endfacet
  facet normal 0 0 1
    outer loop
      vertex -72.6437 18.6517 20
      vertex -92.2091 23.6753 20
      vertex -74.4086 9.39999 20
    endloop
  endfacet
  facet normal 0 0 1
    outer loop
      vertex -65.723 -36.1315 20
      vertex -83.4244 -45.8629 20
      vertex -77.0184 -55.9572 20
    endloop
  endfacet
  facet normal -0 0 1
    outer loop
      vertex -94.4493 11.9317 20
      vertex -74.4086 9.39999 20
      vertex -92.2091 23.6753 20
    endloop
  endfacet
  facet normal 0 0 1
    outer loop
      vertex -69.7332 -27.6093 20
      vertex -88.5147 -35.0455 20
      vertex -83.4244 -45.8629 20
    endloop
  endfacet
  facet normal 0 0 1
    outer loop
      vertex -74.4086 9.39999 20
      vertex -94.4493 11.9317 20
      vertex -75 0 20
    endloop
  endfacet
  facet normal 0 0 1
    outer loop
      vertex -72.6437 -18.6517 20
      vertex -92.2091 -23.6753 20
      vertex -88.5147 -35.0455 20
    endloop
  endfacet
  facet normal 0 0 1
    outer loop
      vertex -95.2 0 20
      vertex -75 0 20
      vertex -94.4493 11.9317 20
    endloop
  endfacet
  facet normal 0 0 1
    outer loop
      vertex -74.4086 -9.39999 20
      vertex -94.4493 -11.9317 20
      vertex -92.2091 -23.6753 20
    endloop
  endfacet
  facet normal 0 0 1
    outer loop
      vertex -75 0 20
      vertex -95.2 0 20
      vertex -94.4493 -11.9317 20
    endloop
  endfacet
  facet normal -0.58778 0.809021 0
    outer loop
      vertex -51.0107 80.38 0
      vertex -60.6828 73.3529 20
      vertex -51.0107 80.38 20
    endloop
  endfacet
  facet normal -0.58778 0.809021 0
    outer loop
      vertex -60.6828 73.3529 20
      vertex -51.0107 80.38 0
      vertex -60.6828 73.3529 0
    endloop
  endfacet
  facet normal -0.248685 0.968584 0
    outer loop
      vertex -17.8387 93.5137 0
      vertex -29.4184 90.5406 20
      vertex -17.8387 93.5137 20
    endloop
  endfacet
  facet normal -0.248685 0.968584 0
    outer loop
      vertex -29.4184 90.5406 20
      vertex -17.8387 93.5137 0
      vertex -29.4184 90.5406 0
    endloop
  endfacet
  facet normal 0.998027 -0.0627923 0
    outer loop
      vertex 94.4493 -11.9317 20
      vertex 95.2 0 0
      vertex 95.2 0 20
    endloop
  endfacet
  facet normal 0.998027 -0.0627923 0
    outer loop
      vertex 95.2 0 0
      vertex 94.4493 -11.9317 20
      vertex 94.4493 -11.9317 0
    endloop
  endfacet
  facet normal 0.982287 -0.18738 0
    outer loop
      vertex 92.2091 -23.6753 20
      vertex 94.4493 -11.9317 0
      vertex 94.4493 -11.9317 20
    endloop
  endfacet
  facet normal 0.982287 -0.18738 0
    outer loop
      vertex 94.4493 -11.9317 0
      vertex 92.2091 -23.6753 20
      vertex 92.2091 -23.6753 0
    endloop
  endfacet
  facet normal -0.68455 -0.728966 0
    outer loop
      vertex -69.3978 -65.1689 0
      vertex -60.6828 -73.3529 20
      vertex -69.3978 -65.1689 20
    endloop
  endfacet
  facet normal -0.68455 -0.728966 -0
    outer loop
      vertex -60.6828 -73.3529 20
      vertex -69.3978 -65.1689 0
      vertex -60.6828 -73.3529 0
    endloop
  endfacet
  facet normal -0.904826 -0.425781 0
    outer loop
      vertex -83.4244 -45.8629 0
      vertex -88.5147 -35.0455 20
      vertex -88.5147 -35.0455 0
    endloop
  endfacet
  facet normal -0.904826 -0.425781 0
    outer loop
      vertex -88.5147 -35.0455 20
      vertex -83.4244 -45.8629 0
      vertex -83.4244 -45.8629 20
    endloop
  endfacet
  facet normal -0.844329 -0.535825 0
    outer loop
      vertex -77.0184 -55.9572 0
      vertex -83.4244 -45.8629 20
      vertex -83.4244 -45.8629 0
    endloop
  endfacet
  facet normal -0.844329 -0.535825 0
    outer loop
      vertex -83.4244 -45.8629 20
      vertex -77.0184 -55.9572 0
      vertex -77.0184 -55.9572 20
    endloop
  endfacet
  facet normal 0 0 -1
    outer loop
      vertex 75 0 0
      vertex 95.2 0 0
      vertex 94.4493 -11.9317 0
    endloop
  endfacet
  facet normal 0 0 -1
    outer loop
      vertex 74.4086 -9.39999 0
      vertex 94.4493 -11.9317 0
      vertex 92.2091 -23.6753 0
    endloop
  endfacet
  facet normal 0 0 -1
    outer loop
      vertex 95.2 0 0
      vertex 75 0 0
      vertex 94.4493 11.9317 0
    endloop
  endfacet
  facet normal 0 0 -1
    outer loop
      vertex 72.6437 -18.6517 0
      vertex 92.2091 -23.6753 0
      vertex 88.5147 -35.0455 0
    endloop
  endfacet
  facet normal 0 0 -1
    outer loop
      vertex 74.4086 9.39999 0
      vertex 94.4493 11.9317 0
      vertex 75 0 0
    endloop
  endfacet
  facet normal 0 0 -1
    outer loop
      vertex 69.7332 -27.6093 0
      vertex 88.5147 -35.0455 0
      vertex 83.4244 -45.8629 0
    endloop
  endfacet
  facet normal -0 0 -1
    outer loop
      vertex 94.4493 11.9317 0
      vertex 74.4086 9.39999 0
      vertex 92.2091 23.6753 0
    endloop
  endfacet
  facet normal 0 0 -1
    outer loop
      vertex 65.723 -36.1315 0
      vertex 83.4244 -45.8629 0
      vertex 77.0184 -55.9572 0
    endloop
  endfacet
  facet normal 0 0 -1
    outer loop
      vertex 72.6437 18.6517 0
      vertex 92.2091 23.6753 0
      vertex 74.4086 9.39999 0
    endloop
  endfacet
  facet normal -0 0 -1
    outer loop
      vertex 92.2091 23.6753 0
      vertex 72.6437 18.6517 0
      vertex 88.5147 35.0455 0
    endloop
  endfacet
  facet normal 0 0 -1
    outer loop
      vertex 94.4493 -11.9317 0
      vertex 74.4086 -9.39999 0
      vertex 75 0 0
    endloop
  endfacet
  facet normal 0 0 -1
    outer loop
      vertex 92.2091 -23.6753 0
      vertex 72.6437 -18.6517 0
      vertex 74.4086 -9.39999 0
    endloop
  endfacet
  facet normal 0 0 -1
    outer loop
      vertex 88.5147 -35.0455 0
      vertex 69.7332 -27.6093 0
      vertex 72.6437 -18.6517 0
    endloop
  endfacet
  facet normal 0 0 -1
    outer loop
      vertex 60.6763 -44.0839 0
      vertex 77.0184 -55.9572 0
      vertex 69.3978 -65.1689 0
    endloop
  endfacet
  facet normal 0 0 -1
    outer loop
      vertex 83.4244 -45.8629 0
      vertex 65.723 -36.1315 0
      vertex 69.7332 -27.6093 0
    endloop
  endfacet
  facet normal 0 0 -1
    outer loop
      vertex 54.6726 -51.341 0
      vertex 69.3978 -65.1689 0
      vertex 60.6828 -73.3529 0
    endloop
  endfacet
  facet normal 0 0 -1
    outer loop
      vertex 77.0184 -55.9572 0
      vertex 60.6763 -44.0839 0
      vertex 65.723 -36.1315 0
    endloop
  endfacet
  facet normal 0 0 -1
    outer loop
      vertex 69.3978 -65.1689 0
      vertex 54.6726 -51.341 0
      vertex 60.6763 -44.0839 0
    endloop
  endfacet
  facet normal 0 0 -1
    outer loop
      vertex 47.8068 -57.7885 0
      vertex 60.6828 -73.3529 0
      vertex 51.0107 -80.38 0
    endloop
  endfacet
  facet normal 0 0 -1
    outer loop
      vertex 60.6828 -73.3529 0
      vertex 47.8068 -57.7885 0
      vertex 54.6726 -51.341 0
    endloop
  endfacet
  facet normal 0 0 -1
    outer loop
      vertex 40.187 -63.3246 0
      vertex 51.0107 -80.38 0
      vertex 40.5342 -86.1395 0
    endloop
  endfacet
  facet normal 0 0 -1
    outer loop
      vertex 51.0107 -80.38 0
      vertex 40.187 -63.3246 0
      vertex 47.8068 -57.7885 0
    endloop
  endfacet
  facet normal 0 0 -1
    outer loop
      vertex 40.5342 -86.1395 0
      vertex 31.9334 -67.862 0
      vertex 40.187 -63.3246 0
    endloop
  endfacet
  facet normal 0 0 -1
    outer loop
      vertex 29.4184 -90.5406 0
      vertex 31.9334 -67.862 0
      vertex 40.5342 -86.1395 0
    endloop
  endfacet
  facet normal 0 0 -1
    outer loop
      vertex 29.4184 -90.5406 0
      vertex 23.1763 -71.3292 0
      vertex 31.9334 -67.862 0
    endloop
  endfacet
  facet normal 0 0 -1
    outer loop
      vertex 17.8387 -93.5137 0
      vertex 23.1763 -71.3292 0
      vertex 29.4184 -90.5406 0
    endloop
  endfacet
  facet normal 0 0 -1
    outer loop
      vertex 17.8387 -93.5137 0
      vertex 14.0536 -73.6715 0
      vertex 23.1763 -71.3292 0
    endloop
  endfacet
  facet normal 0 0 -1
    outer loop
      vertex 5.97766 -95.0121 0
      vertex 14.0536 -73.6715 0
      vertex 17.8387 -93.5137 0
    endloop
  endfacet
  facet normal 0 0 -1
    outer loop
      vertex 5.97766 -95.0121 0
      vertex 4.70929 -74.852 0
      vertex 14.0536 -73.6715 0
    endloop
  endfacet
  facet normal 0 0 -1
    outer loop
      vertex 5.97766 -95.0121 0
      vertex -4.70929 -74.852 0
      vertex 4.70929 -74.852 0
    endloop
  endfacet
  facet normal 0 0 -1
    outer loop
      vertex -5.97766 -95.0121 0
      vertex -4.70929 -74.852 0
      vertex 5.97766 -95.0121 0
    endloop
  endfacet
  facet normal 0 0 -1
    outer loop
      vertex -5.97766 -95.0121 0
      vertex -14.0536 -73.6715 0
      vertex -4.70929 -74.852 0
    endloop
  endfacet
  facet normal 0 0 -1
    outer loop
      vertex -17.8387 -93.5137 0
      vertex -14.0536 -73.6715 0
      vertex -5.97766 -95.0121 0
    endloop
  endfacet
  facet normal 0 0 -1
    outer loop
      vertex -17.8387 -93.5137 0
      vertex -23.1763 -71.3292 0
      vertex -14.0536 -73.6715 0
    endloop
  endfacet
  facet normal 0 0 -1
    outer loop
      vertex -29.4184 -90.5406 0
      vertex -23.1763 -71.3292 0
      vertex -17.8387 -93.5137 0
    endloop
  endfacet
  facet normal 0 0 -1
    outer loop
      vertex -29.4184 -90.5406 0
      vertex -31.9334 -67.862 0
      vertex -23.1763 -71.3292 0
    endloop
  endfacet
  facet normal 0 0 -1
    outer loop
      vertex -40.5342 -86.1395 0
      vertex -31.9334 -67.862 0
      vertex -29.4184 -90.5406 0
    endloop
  endfacet
  facet normal -0 0 -1
    outer loop
      vertex -31.9334 -67.862 0
      vertex -40.5342 -86.1395 0
      vertex -40.187 -63.3246 0
    endloop
  endfacet
  facet normal 0 0 -1
    outer loop
      vertex -51.0107 -80.38 0
      vertex -40.187 -63.3246 0
      vertex -40.5342 -86.1395 0
    endloop
  endfacet
  facet normal -0 0 -1
    outer loop
      vertex -40.187 -63.3246 0
      vertex -51.0107 -80.38 0
      vertex -47.8068 -57.7885 0
    endloop
  endfacet
  facet normal 0 0 -1
    outer loop
      vertex -60.6828 -73.3529 0
      vertex -47.8068 -57.7885 0
      vertex -51.0107 -80.38 0
    endloop
  endfacet
  facet normal -0 0 -1
    outer loop
      vertex -47.8068 -57.7885 0
      vertex -60.6828 -73.3529 0
      vertex -54.6726 -51.341 0
    endloop
  endfacet
  facet normal 0 0 -1
    outer loop
      vertex -69.3978 -65.1689 0
      vertex -54.6726 -51.341 0
      vertex -60.6828 -73.3529 0
    endloop
  endfacet
  facet normal -0 0 -1
    outer loop
      vertex -54.6726 -51.341 0
      vertex -69.3978 -65.1689 0
      vertex -60.6763 -44.0839 0
    endloop
  endfacet
  facet normal 0 0 -1
    outer loop
      vertex -77.0184 -55.9572 0
      vertex -60.6763 -44.0839 0
      vertex -69.3978 -65.1689 0
    endloop
  endfacet
  facet normal -0 0 -1
    outer loop
      vertex -60.6763 -44.0839 0
      vertex -77.0184 -55.9572 0
      vertex -65.723 -36.1315 0
    endloop
  endfacet
  facet normal 0 0 -1
    outer loop
      vertex -83.4244 -45.8629 0
      vertex -65.723 -36.1315 0
      vertex -77.0184 -55.9572 0
    endloop
  endfacet
  facet normal -0 0 -1
    outer loop
      vertex -65.723 -36.1315 0
      vertex -83.4244 -45.8629 0
      vertex -69.7332 -27.6093 0
    endloop
  endfacet
  facet normal -0 0 -1
    outer loop
      vertex -69.7332 -27.6093 0
      vertex -88.5147 -35.0455 0
      vertex -72.6437 -18.6517 0
    endloop
  endfacet
  facet normal 0 0 -1
    outer loop
      vertex -88.5147 -35.0455 0
      vertex -69.7332 -27.6093 0
      vertex -83.4244 -45.8629 0
    endloop
  endfacet
  facet normal 0 0 -1
    outer loop
      vertex 69.7332 27.6093 0
      vertex 88.5147 35.0455 0
      vertex 72.6437 18.6517 0
    endloop
  endfacet
  facet normal -0 0 -1
    outer loop
      vertex 88.5147 35.0455 0
      vertex 69.7332 27.6093 0
      vertex 83.4244 45.8629 0
    endloop
  endfacet
  facet normal 0 0 -1
    outer loop
      vertex 65.723 36.1315 0
      vertex 83.4244 45.8629 0
      vertex 69.7332 27.6093 0
    endloop
  endfacet
  facet normal -0 0 -1
    outer loop
      vertex 83.4244 45.8629 0
      vertex 65.723 36.1315 0
      vertex 77.0184 55.9572 0
    endloop
  endfacet
  facet normal 0 0 -1
    outer loop
      vertex 60.6763 44.0839 0
      vertex 77.0184 55.9572 0
      vertex 65.723 36.1315 0
    endloop
  endfacet
  facet normal -0 0 -1
    outer loop
      vertex 77.0184 55.9572 0
      vertex 60.6763 44.0839 0
      vertex 69.3978 65.1689 0
    endloop
  endfacet
  facet normal 0 0 -1
    outer loop
      vertex 54.6726 51.341 0
      vertex 69.3978 65.1689 0
      vertex 60.6763 44.0839 0
    endloop
  endfacet
  facet normal -0 0 -1
    outer loop
      vertex 69.3978 65.1689 0
      vertex 54.6726 51.341 0
      vertex 60.6828 73.3529 0
    endloop
  endfacet
  facet normal 0 0 -1
    outer loop
      vertex 47.8068 57.7885 0
      vertex 60.6828 73.3529 0
      vertex 54.6726 51.341 0
    endloop
  endfacet
  facet normal -0 0 -1
    outer loop
      vertex 60.6828 73.3529 0
      vertex 47.8068 57.7885 0
      vertex 51.0107 80.38 0
    endloop
  endfacet
  facet normal 0 0 -1
    outer loop
      vertex 40.187 63.3246 0
      vertex 51.0107 80.38 0
      vertex 47.8068 57.7885 0
    endloop
  endfacet
  facet normal -0 0 -1
    outer loop
      vertex 51.0107 80.38 0
      vertex 40.187 63.3246 0
      vertex 40.5342 86.1395 0
    endloop
  endfacet
  facet normal 0 0 -1
    outer loop
      vertex 31.9334 67.862 0
      vertex 40.5342 86.1395 0
      vertex 40.187 63.3246 0
    endloop
  endfacet
  facet normal 0 0 -1
    outer loop
      vertex 31.9334 67.862 0
      vertex 29.4184 90.5406 0
      vertex 40.5342 86.1395 0
    endloop
  endfacet
  facet normal 0 0 -1
    outer loop
      vertex 23.1763 71.3292 0
      vertex 29.4184 90.5406 0
      vertex 31.9334 67.862 0
    endloop
  endfacet
  facet normal 0 0 -1
    outer loop
      vertex 23.1763 71.3292 0
      vertex 17.8387 93.5137 0
      vertex 29.4184 90.5406 0
    endloop
  endfacet
  facet normal 0 0 -1
    outer loop
      vertex 14.0536 73.6715 0
      vertex 17.8387 93.5137 0
      vertex 23.1763 71.3292 0
    endloop
  endfacet
  facet normal 0 0 -1
    outer loop
      vertex 14.0536 73.6715 0
      vertex 5.97766 95.0121 0
      vertex 17.8387 93.5137 0
    endloop
  endfacet
  facet normal 0 0 -1
    outer loop
      vertex 4.70929 74.852 0
      vertex 5.97766 95.0121 0
      vertex 14.0536 73.6715 0
    endloop
  endfacet
  facet normal 0 0 -1
    outer loop
      vertex -4.70929 74.852 0
      vertex 5.97766 95.0121 0
      vertex 4.70929 74.852 0
    endloop
  endfacet
  facet normal 0 0 -1
    outer loop
      vertex -4.70929 74.852 0
      vertex -5.97766 95.0121 0
      vertex 5.97766 95.0121 0
    endloop
  endfacet
  facet normal 0 0 -1
    outer loop
      vertex -14.0536 73.6715 0
      vertex -5.97766 95.0121 0
      vertex -4.70929 74.852 0
    endloop
  endfacet
  facet normal 0 0 -1
    outer loop
      vertex -14.0536 73.6715 0
      vertex -17.8387 93.5137 0
      vertex -5.97766 95.0121 0
    endloop
  endfacet
  facet normal 0 0 -1
    outer loop
      vertex -23.1763 71.3292 0
      vertex -17.8387 93.5137 0
      vertex -14.0536 73.6715 0
    endloop
  endfacet
  facet normal 0 0 -1
    outer loop
      vertex -23.1763 71.3292 0
      vertex -29.4184 90.5406 0
      vertex -17.8387 93.5137 0
    endloop
  endfacet
  facet normal 0 0 -1
    outer loop
      vertex -31.9334 67.862 0
      vertex -29.4184 90.5406 0
      vertex -23.1763 71.3292 0
    endloop
  endfacet
  facet normal 0 0 -1
    outer loop
      vertex -40.5342 86.1395 0
      vertex -31.9334 67.862 0
      vertex -40.187 63.3246 0
    endloop
  endfacet
  facet normal 0 0 -1
    outer loop
      vertex -31.9334 67.862 0
      vertex -40.5342 86.1395 0
      vertex -29.4184 90.5406 0
    endloop
  endfacet
  facet normal 0 0 -1
    outer loop
      vertex -51.0107 80.38 0
      vertex -40.187 63.3246 0
      vertex -47.8068 57.7885 0
    endloop
  endfacet
  facet normal 0 0 -1
    outer loop
      vertex -40.187 63.3246 0
      vertex -51.0107 80.38 0
      vertex -40.5342 86.1395 0
    endloop
  endfacet
  facet normal 0 0 -1
    outer loop
      vertex -60.6828 73.3529 0
      vertex -47.8068 57.7885 0
      vertex -54.6726 51.341 0
    endloop
  endfacet
  facet normal 0 0 -1
    outer loop
      vertex -69.3978 65.1689 0
      vertex -54.6726 51.341 0
      vertex -60.6763 44.0839 0
    endloop
  endfacet
  facet normal 0 0 -1
    outer loop
      vertex -47.8068 57.7885 0
      vertex -60.6828 73.3529 0
      vertex -51.0107 80.38 0
    endloop
  endfacet
  facet normal 0 0 -1
    outer loop
      vertex -77.0184 55.9572 0
      vertex -60.6763 44.0839 0
      vertex -65.723 36.1315 0
    endloop
  endfacet
  facet normal 0 0 -1
    outer loop
      vertex -54.6726 51.341 0
      vertex -69.3978 65.1689 0
      vertex -60.6828 73.3529 0
    endloop
  endfacet
  facet normal 0 0 -1
    outer loop
      vertex -83.4244 45.8629 0
      vertex -65.723 36.1315 0
      vertex -69.7332 27.6093 0
    endloop
  endfacet
  facet normal 0 0 -1
    outer loop
      vertex -88.5147 35.0455 0
      vertex -69.7332 27.6093 0
      vertex -72.6437 18.6517 0
    endloop
  endfacet
  facet normal 0 0 -1
    outer loop
      vertex -92.2091 23.6753 0
      vertex -72.6437 18.6517 0
      vertex -74.4086 9.39999 0
    endloop
  endfacet
  facet normal 0 0 -1
    outer loop
      vertex -60.6763 44.0839 0
      vertex -77.0184 55.9572 0
      vertex -69.3978 65.1689 0
    endloop
  endfacet
  facet normal 0 0 -1
    outer loop
      vertex -94.4493 11.9317 0
      vertex -74.4086 9.39999 0
      vertex -75 0 0
    endloop
  endfacet
  facet normal 0 0 -1
    outer loop
      vertex -92.2091 -23.6753 0
      vertex -72.6437 -18.6517 0
      vertex -88.5147 -35.0455 0
    endloop
  endfacet
  facet normal -0 0 -1
    outer loop
      vertex -72.6437 -18.6517 0
      vertex -92.2091 -23.6753 0
      vertex -74.4086 -9.39999 0
    endloop
  endfacet
  facet normal 0 0 -1
    outer loop
      vertex -65.723 36.1315 0
      vertex -83.4244 45.8629 0
      vertex -77.0184 55.9572 0
    endloop
  endfacet
  facet normal 0 0 -1
    outer loop
      vertex -94.4493 -11.9317 0
      vertex -74.4086 -9.39999 0
      vertex -92.2091 -23.6753 0
    endloop
  endfacet
  facet normal 0 0 -1
    outer loop
      vertex -69.7332 27.6093 0
      vertex -88.5147 35.0455 0
      vertex -83.4244 45.8629 0
    endloop
  endfacet
  facet normal -0 0 -1
    outer loop
      vertex -74.4086 -9.39999 0
      vertex -94.4493 -11.9317 0
      vertex -75 0 0
    endloop
  endfacet
  facet normal 0 0 -1
    outer loop
      vertex -72.6437 18.6517 0
      vertex -92.2091 23.6753 0
      vertex -88.5147 35.0455 0
    endloop
  endfacet
  facet normal 0 0 -1
    outer loop
      vertex -95.2 0 0
      vertex -75 0 0
      vertex -94.4493 -11.9317 0
    endloop
  endfacet
  facet normal 0 0 -1
    outer loop
      vertex -74.4086 9.39999 0
      vertex -94.4493 11.9317 0
      vertex -92.2091 23.6753 0
    endloop
  endfacet
  facet normal 0 0 -1
    outer loop
      vertex -75 0 0
      vertex -95.2 0 0
      vertex -94.4493 11.9317 0
    endloop
  endfacet
  facet normal 0.481753 -0.876307 0
    outer loop
      vertex 40.5342 -86.1395 0
      vertex 51.0107 -80.38 20
      vertex 40.5342 -86.1395 20
    endloop
  endfacet
  facet normal 0.481753 -0.876307 0
    outer loop
      vertex 51.0107 -80.38 20
      vertex 40.5342 -86.1395 0
      vertex 51.0107 -80.38 0
    endloop
  endfacet
  facet normal 0.904826 -0.425781 0
    outer loop
      vertex 83.4244 -45.8629 20
      vertex 88.5147 -35.0455 0
      vertex 88.5147 -35.0455 20
    endloop
  endfacet
  facet normal 0.904826 -0.425781 0
    outer loop
      vertex 88.5147 -35.0455 0
      vertex 83.4244 -45.8629 20
      vertex 83.4244 -45.8629 0
    endloop
  endfacet
  facet normal -0.770512 -0.637425 0
    outer loop
      vertex -69.3978 -65.1689 0
      vertex -77.0184 -55.9572 20
      vertex -77.0184 -55.9572 0
    endloop
  endfacet
  facet normal -0.770512 -0.637425 0
    outer loop
      vertex -77.0184 -55.9572 20
      vertex -69.3978 -65.1689 0
      vertex -69.3978 -65.1689 20
    endloop
  endfacet
  facet normal -0.951057 -0.309017 0
    outer loop
      vertex -88.5147 -35.0455 0
      vertex -92.2091 -23.6753 20
      vertex -92.2091 -23.6753 0
    endloop
  endfacet
  facet normal -0.951057 -0.309017 0
    outer loop
      vertex -92.2091 -23.6753 20
      vertex -88.5147 -35.0455 0
      vertex -88.5147 -35.0455 20
    endloop
  endfacet
  facet normal 0.58778 -0.809021 0
    outer loop
      vertex 51.0107 -80.38 0
      vertex 60.6828 -73.3529 20
      vertex 51.0107 -80.38 20
    endloop
  endfacet
  facet normal 0.58778 -0.809021 0
    outer loop
      vertex 60.6828 -73.3529 20
      vertex 51.0107 -80.38 0
      vertex 60.6828 -73.3529 0
    endloop
  endfacet
  facet normal 0.248685 -0.968584 0
    outer loop
      vertex 17.8387 -93.5137 0
      vertex 29.4184 -90.5406 20
      vertex 17.8387 -93.5137 20
    endloop
  endfacet
  facet normal 0.248685 -0.968584 0
    outer loop
      vertex 29.4184 -90.5406 20
      vertex 17.8387 -93.5137 0
      vertex 29.4184 -90.5406 0
    endloop
  endfacet
  facet normal 0.844329 -0.535825 0
    outer loop
      vertex 77.0184 -55.9572 20
      vertex 83.4244 -45.8629 0
      vertex 83.4244 -45.8629 20
    endloop
  endfacet
  facet normal 0.844329 -0.535825 0
    outer loop
      vertex 83.4244 -45.8629 0
      vertex 77.0184 -55.9572 20
      vertex 77.0184 -55.9572 0
    endloop
  endfacet
  facet normal 0.770512 -0.637425 0
    outer loop
      vertex 69.3978 -65.1689 20
      vertex 77.0184 -55.9572 0
      vertex 77.0184 -55.9572 20
    endloop
  endfacet
  facet normal 0.770512 -0.637425 0
    outer loop
      vertex 77.0184 -55.9572 0
      vertex 69.3978 -65.1689 20
      vertex 69.3978 -65.1689 0
    endloop
  endfacet
  facet normal 0.951057 -0.309017 0
    outer loop
      vertex 88.5147 -35.0455 20
      vertex 92.2091 -23.6753 0
      vertex 92.2091 -23.6753 20
    endloop
  endfacet
  facet normal 0.951057 -0.309017 0
    outer loop
      vertex 92.2091 -23.6753 0
      vertex 88.5147 -35.0455 20
      vertex 88.5147 -35.0455 0
    endloop
  endfacet
  facet normal -0.125333 -0.992115 0
    outer loop
      vertex -17.8387 -93.5137 0
      vertex -5.97766 -95.0121 20
      vertex -17.8387 -93.5137 20
    endloop
  endfacet
  facet normal -0.125333 -0.992115 -0
    outer loop
      vertex -5.97766 -95.0121 20
      vertex -17.8387 -93.5137 0
      vertex -5.97766 -95.0121 0
    endloop
  endfacet
  facet normal -0.481753 -0.876307 0
    outer loop
      vertex -51.0107 -80.38 0
      vertex -40.5342 -86.1395 20
      vertex -51.0107 -80.38 20
    endloop
  endfacet
  facet normal -0.481753 -0.876307 -0
    outer loop
      vertex -40.5342 -86.1395 20
      vertex -51.0107 -80.38 0
      vertex -40.5342 -86.1395 0
    endloop
  endfacet
  facet normal -0.982287 -0.18738 0
    outer loop
      vertex -92.2091 -23.6753 0
      vertex -94.4493 -11.9317 20
      vertex -94.4493 -11.9317 0
    endloop
  endfacet
  facet normal -0.982287 -0.18738 0
    outer loop
      vertex -94.4493 -11.9317 20
      vertex -92.2091 -23.6753 0
      vertex -92.2091 -23.6753 20
    endloop
  endfacet
  facet normal -0.998027 -0.0627923 0
    outer loop
      vertex -94.4493 -11.9317 0
      vertex -95.2 0 20
      vertex -95.2 0 0
    endloop
  endfacet
  facet normal -0.998027 -0.0627923 0
    outer loop
      vertex -95.2 0 20
      vertex -94.4493 -11.9317 0
      vertex -94.4493 -11.9317 20
    endloop
  endfacet
  facet normal 0.68455 -0.728966 0
    outer loop
      vertex 60.6828 -73.3529 0
      vertex 69.3978 -65.1689 20
      vertex 60.6828 -73.3529 20
    endloop
  endfacet
  facet normal 0.68455 -0.728966 0
    outer loop
      vertex 69.3978 -65.1689 20
      vertex 60.6828 -73.3529 0
      vertex 69.3978 -65.1689 0
    endloop
  endfacet
  facet normal -0.248685 -0.968584 0
    outer loop
      vertex -29.4184 -90.5406 0
      vertex -17.8387 -93.5137 20
      vertex -29.4184 -90.5406 20
    endloop
  endfacet
  facet normal -0.248685 -0.968584 -0
    outer loop
      vertex -17.8387 -93.5137 20
      vertex -29.4184 -90.5406 0
      vertex -17.8387 -93.5137 0
    endloop
  endfacet
  facet normal -0.368128 -0.929775 0
    outer loop
      vertex -40.5342 -86.1395 0
      vertex -29.4184 -90.5406 20
      vertex -40.5342 -86.1395 20
    endloop
  endfacet
  facet normal -0.368128 -0.929775 -0
    outer loop
      vertex -29.4184 -90.5406 20
      vertex -40.5342 -86.1395 0
      vertex -29.4184 -90.5406 0
    endloop
  endfacet
  facet normal -0.58778 -0.809021 0
    outer loop
      vertex -60.6828 -73.3529 0
      vertex -51.0107 -80.38 20
      vertex -60.6828 -73.3529 20
    endloop
  endfacet
  facet normal -0.58778 -0.809021 -0
    outer loop
      vertex -51.0107 -80.38 20
      vertex -60.6828 -73.3529 0
      vertex -51.0107 -80.38 0
    endloop
  endfacet
  facet normal -0.998027 -0.0627908 0
    outer loop
      vertex 75 0 0
      vertex 74.4086 9.39999 20
      vertex 74.4086 9.39999 0
    endloop
  endfacet
  facet normal -0.998027 -0.0627908 0
    outer loop
      vertex 74.4086 9.39999 20
      vertex 75 0 0
      vertex 75 0 20
    endloop
  endfacet
  facet normal 0.998027 -0.0627908 0
    outer loop
      vertex -75 0 20
      vertex -74.4086 9.39999 0
      vertex -74.4086 9.39999 20
    endloop
  endfacet
  facet normal 0.998027 -0.0627908 0
    outer loop
      vertex -74.4086 9.39999 0
      vertex -75 0 20
      vertex -75 0 0
    endloop
  endfacet
  facet normal 0 -1 0
    outer loop
      vertex -4.70929 74.852 0
      vertex 4.70929 74.852 20
      vertex -4.70929 74.852 20
    endloop
  endfacet
  facet normal 0 -1 -0
    outer loop
      vertex 4.70929 74.852 20
      vertex -4.70929 74.852 0
      vertex 4.70929 74.852 0
    endloop
  endfacet
  facet normal 0 1 -0
    outer loop
      vertex 4.70929 -74.852 0
      vertex -4.70929 -74.852 20
      vertex 4.70929 -74.852 20
    endloop
  endfacet
  facet normal 0 1 0
    outer loop
      vertex -4.70929 -74.852 20
      vertex 4.70929 -74.852 0
      vertex -4.70929 -74.852 0
    endloop
  endfacet
  facet normal -0.684552 -0.728964 0
    outer loop
      vertex 47.8068 57.7885 0
      vertex 54.6726 51.341 20
      vertex 47.8068 57.7885 20
    endloop
  endfacet
  facet normal -0.684552 -0.728964 -0
    outer loop
      vertex 54.6726 51.341 20
      vertex 47.8068 57.7885 0
      vertex 54.6726 51.341 0
    endloop
  endfacet
  facet normal 0.684552 -0.728964 0
    outer loop
      vertex -54.6726 51.341 0
      vertex -47.8068 57.7885 20
      vertex -54.6726 51.341 20
    endloop
  endfacet
  facet normal 0.684552 -0.728964 0
    outer loop
      vertex -47.8068 57.7885 20
      vertex -54.6726 51.341 0
      vertex -47.8068 57.7885 0
    endloop
  endfacet
  facet normal 0.368126 -0.929776 0
    outer loop
      vertex -31.9334 67.862 0
      vertex -23.1763 71.3292 20
      vertex -31.9334 67.862 20
    endloop
  endfacet
  facet normal 0.368126 -0.929776 0
    outer loop
      vertex -23.1763 71.3292 20
      vertex -31.9334 67.862 0
      vertex -23.1763 71.3292 0
    endloop
  endfacet
  facet normal -0.904829 -0.425776 0
    outer loop
      vertex 69.7332 27.6093 0
      vertex 65.723 36.1315 20
      vertex 65.723 36.1315 0
    endloop
  endfacet
  facet normal -0.904829 -0.425776 0
    outer loop
      vertex 65.723 36.1315 20
      vertex 69.7332 27.6093 0
      vertex 69.7332 27.6093 20
    endloop
  endfacet
  facet normal -0.982286 -0.187386 0
    outer loop
      vertex 74.4086 9.39999 0
      vertex 72.6437 18.6517 20
      vertex 72.6437 18.6517 0
    endloop
  endfacet
  facet normal -0.982286 -0.187386 0
    outer loop
      vertex 72.6437 18.6517 20
      vertex 74.4086 9.39999 0
      vertex 74.4086 9.39999 20
    endloop
  endfacet
  facet normal -0.84433 -0.535823 0
    outer loop
      vertex 65.723 36.1315 0
      vertex 60.6763 44.0839 20
      vertex 60.6763 44.0839 0
    endloop
  endfacet
  facet normal -0.84433 -0.535823 0
    outer loop
      vertex 60.6763 44.0839 20
      vertex 65.723 36.1315 0
      vertex 65.723 36.1315 20
    endloop
  endfacet
  facet normal -0.368126 -0.929776 0
    outer loop
      vertex 23.1763 71.3292 0
      vertex 31.9334 67.862 20
      vertex 23.1763 71.3292 20
    endloop
  endfacet
  facet normal -0.368126 -0.929776 -0
    outer loop
      vertex 31.9334 67.862 20
      vertex 23.1763 71.3292 0
      vertex 31.9334 67.862 0
    endloop
  endfacet
  facet normal -0.248689 -0.968583 0
    outer loop
      vertex 14.0536 73.6715 0
      vertex 23.1763 71.3292 20
      vertex 14.0536 73.6715 20
    endloop
  endfacet
  facet normal -0.248689 -0.968583 -0
    outer loop
      vertex 23.1763 71.3292 20
      vertex 14.0536 73.6715 0
      vertex 23.1763 71.3292 0
    endloop
  endfacet
  facet normal -0.481749 -0.876309 0
    outer loop
      vertex 31.9334 67.862 0
      vertex 40.187 63.3246 20
      vertex 31.9334 67.862 20
    endloop
  endfacet
  facet normal -0.481749 -0.876309 -0
    outer loop
      vertex 40.187 63.3246 20
      vertex 31.9334 67.862 0
      vertex 40.187 63.3246 0
    endloop
  endfacet
  facet normal 0.904829 -0.425776 0
    outer loop
      vertex -69.7332 27.6093 20
      vertex -65.723 36.1315 0
      vertex -65.723 36.1315 20
    endloop
  endfacet
  facet normal 0.904829 -0.425776 0
    outer loop
      vertex -65.723 36.1315 0
      vertex -69.7332 27.6093 20
      vertex -69.7332 27.6093 0
    endloop
  endfacet
  facet normal 0.770508 -0.637431 0
    outer loop
      vertex -60.6763 44.0839 20
      vertex -54.6726 51.341 0
      vertex -54.6726 51.341 20
    endloop
  endfacet
  facet normal 0.770508 -0.637431 0
    outer loop
      vertex -54.6726 51.341 0
      vertex -60.6763 44.0839 20
      vertex -60.6763 44.0839 0
    endloop
  endfacet
  facet normal 0.951057 -0.309017 0
    outer loop
      vertex -72.6437 18.6517 20
      vertex -69.7332 27.6093 0
      vertex -69.7332 27.6093 20
    endloop
  endfacet
  facet normal 0.951057 -0.309017 0
    outer loop
      vertex -69.7332 27.6093 0
      vertex -72.6437 18.6517 20
      vertex -72.6437 18.6517 0
    endloop
  endfacet
  facet normal 0.248689 -0.968583 0
    outer loop
      vertex -23.1763 71.3292 0
      vertex -14.0536 73.6715 20
      vertex -23.1763 71.3292 20
    endloop
  endfacet
  facet normal 0.248689 -0.968583 0
    outer loop
      vertex -14.0536 73.6715 20
      vertex -23.1763 71.3292 0
      vertex -14.0536 73.6715 0
    endloop
  endfacet
  facet normal -0.125337 0.992114 0
    outer loop
      vertex 14.0536 -73.6715 0
      vertex 4.70929 -74.852 20
      vertex 14.0536 -73.6715 20
    endloop
  endfacet
  facet normal -0.125337 0.992114 0
    outer loop
      vertex 4.70929 -74.852 20
      vertex 14.0536 -73.6715 0
      vertex 4.70929 -74.852 0
    endloop
  endfacet
  facet normal -0.951057 -0.309017 0
    outer loop
      vertex 72.6437 18.6517 0
      vertex 69.7332 27.6093 20
      vertex 69.7332 27.6093 0
    endloop
  endfacet
  facet normal -0.951057 -0.309017 0
    outer loop
      vertex 69.7332 27.6093 20
      vertex 72.6437 18.6517 0
      vertex 72.6437 18.6517 20
    endloop
  endfacet
  facet normal -0.770508 -0.637431 0
    outer loop
      vertex 60.6763 44.0839 0
      vertex 54.6726 51.341 20
      vertex 54.6726 51.341 0
    endloop
  endfacet
  facet normal -0.770508 -0.637431 0
    outer loop
      vertex 54.6726 51.341 20
      vertex 60.6763 44.0839 0
      vertex 60.6763 44.0839 20
    endloop
  endfacet
  facet normal -0.125337 -0.992114 0
    outer loop
      vertex 4.70929 74.852 0
      vertex 14.0536 73.6715 20
      vertex 4.70929 74.852 20
    endloop
  endfacet
  facet normal -0.125337 -0.992114 -0
    outer loop
      vertex 14.0536 73.6715 20
      vertex 4.70929 74.852 0
      vertex 14.0536 73.6715 0
    endloop
  endfacet
  facet normal -0.587785 -0.809017 0
    outer loop
      vertex 40.187 63.3246 0
      vertex 47.8068 57.7885 20
      vertex 40.187 63.3246 20
    endloop
  endfacet
  facet normal -0.587785 -0.809017 -0
    outer loop
      vertex 47.8068 57.7885 20
      vertex 40.187 63.3246 0
      vertex 47.8068 57.7885 0
    endloop
  endfacet
  facet normal 0.84433 -0.535823 0
    outer loop
      vertex -65.723 36.1315 20
      vertex -60.6763 44.0839 0
      vertex -60.6763 44.0839 20
    endloop
  endfacet
  facet normal 0.84433 -0.535823 0
    outer loop
      vertex -60.6763 44.0839 0
      vertex -65.723 36.1315 20
      vertex -65.723 36.1315 0
    endloop
  endfacet
  facet normal 0.982286 -0.187386 0
    outer loop
      vertex -74.4086 9.39999 20
      vertex -72.6437 18.6517 0
      vertex -72.6437 18.6517 20
    endloop
  endfacet
  facet normal 0.982286 -0.187386 0
    outer loop
      vertex -72.6437 18.6517 0
      vertex -74.4086 9.39999 20
      vertex -74.4086 9.39999 0
    endloop
  endfacet
  facet normal 0.481749 -0.876309 0
    outer loop
      vertex -40.187 63.3246 0
      vertex -31.9334 67.862 20
      vertex -40.187 63.3246 20
    endloop
  endfacet
  facet normal 0.481749 -0.876309 0
    outer loop
      vertex -31.9334 67.862 20
      vertex -40.187 63.3246 0
      vertex -31.9334 67.862 0
    endloop
  endfacet
  facet normal 0.587785 -0.809017 0
    outer loop
      vertex -47.8068 57.7885 0
      vertex -40.187 63.3246 20
      vertex -47.8068 57.7885 20
    endloop
  endfacet
  facet normal 0.587785 -0.809017 0
    outer loop
      vertex -40.187 63.3246 20
      vertex -47.8068 57.7885 0
      vertex -40.187 63.3246 0
    endloop
  endfacet
  facet normal 0.125337 -0.992114 0
    outer loop
      vertex -14.0536 73.6715 0
      vertex -4.70929 74.852 20
      vertex -14.0536 73.6715 20
    endloop
  endfacet
  facet normal 0.125337 -0.992114 0
    outer loop
      vertex -4.70929 74.852 20
      vertex -14.0536 73.6715 0
      vertex -4.70929 74.852 0
    endloop
  endfacet
  facet normal -0.998027 0.0627908 0
    outer loop
      vertex 74.4086 -9.39999 0
      vertex 75 0 20
      vertex 75 0 0
    endloop
  endfacet
  facet normal -0.998027 0.0627908 0
    outer loop
      vertex 75 0 20
      vertex 74.4086 -9.39999 0
      vertex 74.4086 -9.39999 20
    endloop
  endfacet
  facet normal -0.770508 0.637431 0
    outer loop
      vertex 54.6726 -51.341 0
      vertex 60.6763 -44.0839 20
      vertex 60.6763 -44.0839 0
    endloop
  endfacet
  facet normal -0.770508 0.637431 0
    outer loop
      vertex 60.6763 -44.0839 20
      vertex 54.6726 -51.341 0
      vertex 54.6726 -51.341 20
    endloop
  endfacet
  facet normal -0.951057 0.309017 0
    outer loop
      vertex 69.7332 -27.6093 0
      vertex 72.6437 -18.6517 20
      vertex 72.6437 -18.6517 0
    endloop
  endfacet
  facet normal -0.951057 0.309017 0
    outer loop
      vertex 72.6437 -18.6517 20
      vertex 69.7332 -27.6093 0
      vertex 69.7332 -27.6093 20
    endloop
  endfacet
  facet normal -0.982286 0.187386 0
    outer loop
      vertex 72.6437 -18.6517 0
      vertex 74.4086 -9.39999 20
      vertex 74.4086 -9.39999 0
    endloop
  endfacet
  facet normal -0.982286 0.187386 0
    outer loop
      vertex 74.4086 -9.39999 20
      vertex 72.6437 -18.6517 0
      vertex 72.6437 -18.6517 20
    endloop
  endfacet
  facet normal -0.684552 0.728964 0
    outer loop
      vertex 54.6726 -51.341 0
      vertex 47.8068 -57.7885 20
      vertex 54.6726 -51.341 20
    endloop
  endfacet
  facet normal -0.684552 0.728964 0
    outer loop
      vertex 47.8068 -57.7885 20
      vertex 54.6726 -51.341 0
      vertex 47.8068 -57.7885 0
    endloop
  endfacet
  facet normal -0.84433 0.535823 0
    outer loop
      vertex 60.6763 -44.0839 0
      vertex 65.723 -36.1315 20
      vertex 65.723 -36.1315 0
    endloop
  endfacet
  facet normal -0.84433 0.535823 0
    outer loop
      vertex 65.723 -36.1315 20
      vertex 60.6763 -44.0839 0
      vertex 60.6763 -44.0839 20
    endloop
  endfacet
  facet normal 0.248689 0.968583 -0
    outer loop
      vertex -14.0536 -73.6715 0
      vertex -23.1763 -71.3292 20
      vertex -14.0536 -73.6715 20
    endloop
  endfacet
  facet normal 0.248689 0.968583 0
    outer loop
      vertex -23.1763 -71.3292 20
      vertex -14.0536 -73.6715 0
      vertex -23.1763 -71.3292 0
    endloop
  endfacet
  facet normal 0.951057 0.309017 0
    outer loop
      vertex -69.7332 -27.6093 20
      vertex -72.6437 -18.6517 0
      vertex -72.6437 -18.6517 20
    endloop
  endfacet
  facet normal 0.951057 0.309017 0
    outer loop
      vertex -72.6437 -18.6517 0
      vertex -69.7332 -27.6093 20
      vertex -69.7332 -27.6093 0
    endloop
  endfacet
  facet normal -0.368126 0.929776 0
    outer loop
      vertex 31.9334 -67.862 0
      vertex 23.1763 -71.3292 20
      vertex 31.9334 -67.862 20
    endloop
  endfacet
  facet normal -0.368126 0.929776 0
    outer loop
      vertex 23.1763 -71.3292 20
      vertex 31.9334 -67.862 0
      vertex 23.1763 -71.3292 0
    endloop
  endfacet
  facet normal -0.248689 0.968583 0
    outer loop
      vertex 23.1763 -71.3292 0
      vertex 14.0536 -73.6715 20
      vertex 23.1763 -71.3292 20
    endloop
  endfacet
  facet normal -0.248689 0.968583 0
    outer loop
      vertex 14.0536 -73.6715 20
      vertex 23.1763 -71.3292 0
      vertex 14.0536 -73.6715 0
    endloop
  endfacet
  facet normal -0.904829 0.425776 0
    outer loop
      vertex 65.723 -36.1315 0
      vertex 69.7332 -27.6093 20
      vertex 69.7332 -27.6093 0
    endloop
  endfacet
  facet normal -0.904829 0.425776 0
    outer loop
      vertex 69.7332 -27.6093 20
      vertex 65.723 -36.1315 0
      vertex 65.723 -36.1315 20
    endloop
  endfacet
  facet normal 0.125337 0.992114 -0
    outer loop
      vertex -4.70929 -74.852 0
      vertex -14.0536 -73.6715 20
      vertex -4.70929 -74.852 20
    endloop
  endfacet
  facet normal 0.125337 0.992114 0
    outer loop
      vertex -14.0536 -73.6715 20
      vertex -4.70929 -74.852 0
      vertex -14.0536 -73.6715 0
    endloop
  endfacet
  facet normal 0.368126 0.929776 -0
    outer loop
      vertex -23.1763 -71.3292 0
      vertex -31.9334 -67.862 20
      vertex -23.1763 -71.3292 20
    endloop
  endfacet
  facet normal 0.368126 0.929776 0
    outer loop
      vertex -31.9334 -67.862 20
      vertex -23.1763 -71.3292 0
      vertex -31.9334 -67.862 0
    endloop
  endfacet
  facet normal 0.904829 0.425776 0
    outer loop
      vertex -65.723 -36.1315 20
      vertex -69.7332 -27.6093 0
      vertex -69.7332 -27.6093 20
    endloop
  endfacet
  facet normal 0.904829 0.425776 0
    outer loop
      vertex -69.7332 -27.6093 0
      vertex -65.723 -36.1315 20
      vertex -65.723 -36.1315 0
    endloop
  endfacet
  facet normal 0.770508 0.637431 0
    outer loop
      vertex -54.6726 -51.341 20
      vertex -60.6763 -44.0839 0
      vertex -60.6763 -44.0839 20
    endloop
  endfacet
  facet normal 0.770508 0.637431 0
    outer loop
      vertex -60.6763 -44.0839 0
      vertex -54.6726 -51.341 20
      vertex -54.6726 -51.341 0
    endloop
  endfacet
  facet normal 0.684552 0.728964 -0
    outer loop
      vertex -47.8068 -57.7885 0
      vertex -54.6726 -51.341 20
      vertex -47.8068 -57.7885 20
    endloop
  endfacet
  facet normal 0.684552 0.728964 0
    outer loop
      vertex -54.6726 -51.341 20
      vertex -47.8068 -57.7885 0
      vertex -54.6726 -51.341 0
    endloop
  endfacet
  facet normal 0.982286 0.187386 0
    outer loop
      vertex -72.6437 -18.6517 20
      vertex -74.4086 -9.39999 0
      vertex -74.4086 -9.39999 20
    endloop
  endfacet
  facet normal 0.982286 0.187386 0
    outer loop
      vertex -74.4086 -9.39999 0
      vertex -72.6437 -18.6517 20
      vertex -72.6437 -18.6517 0
    endloop
  endfacet
  facet normal 0.998027 0.0627908 0
    outer loop
      vertex -74.4086 -9.39999 20
      vertex -75 0 0
      vertex -75 0 20
    endloop
  endfacet
  facet normal 0.998027 0.0627908 0
    outer loop
      vertex -75 0 0
      vertex -74.4086 -9.39999 20
      vertex -74.4086 -9.39999 0
    endloop
  endfacet
  facet normal -0.587785 0.809017 0
    outer loop
      vertex 47.8068 -57.7885 0
      vertex 40.187 -63.3246 20
      vertex 47.8068 -57.7885 20
    endloop
  endfacet
  facet normal -0.587785 0.809017 0
    outer loop
      vertex 40.187 -63.3246 20
      vertex 47.8068 -57.7885 0
      vertex 40.187 -63.3246 0
    endloop
  endfacet
  facet normal -0.481749 0.876309 0
    outer loop
      vertex 40.187 -63.3246 0
      vertex 31.9334 -67.862 20
      vertex 40.187 -63.3246 20
    endloop
  endfacet
  facet normal -0.481749 0.876309 0
    outer loop
      vertex 31.9334 -67.862 20
      vertex 40.187 -63.3246 0
      vertex 31.9334 -67.862 0
    endloop
  endfacet
  facet normal 0.587785 0.809017 -0
    outer loop
      vertex -40.187 -63.3246 0
      vertex -47.8068 -57.7885 20
      vertex -40.187 -63.3246 20
    endloop
  endfacet
  facet normal 0.587785 0.809017 0
    outer loop
      vertex -47.8068 -57.7885 20
      vertex -40.187 -63.3246 0
      vertex -47.8068 -57.7885 0
    endloop
  endfacet
  facet normal 0.84433 0.535823 0
    outer loop
      vertex -60.6763 -44.0839 20
      vertex -65.723 -36.1315 0
      vertex -65.723 -36.1315 20
    endloop
  endfacet
  facet normal 0.84433 0.535823 0
    outer loop
      vertex -65.723 -36.1315 0
      vertex -60.6763 -44.0839 20
      vertex -60.6763 -44.0839 0
    endloop
  endfacet
  facet normal 0.481749 0.876309 -0
    outer loop
      vertex -31.9334 -67.862 0
      vertex -40.187 -63.3246 20
      vertex -31.9334 -67.862 20
    endloop
  endfacet
  facet normal 0.481749 0.876309 0
    outer loop
      vertex -40.187 -63.3246 20
      vertex -31.9334 -67.862 0
      vertex -40.187 -63.3246 0
    endloop
  endfacet
endsolid OpenSCAD_Model
