solid OpenSCAD_Model
  facet normal 0 0 -1
    outer loop
      vertex 10 0 1.8
      vertex 11.35 0 1.8
      vertex 11.2605 -1.42253 1.8
    endloop
  endfacet
  facet normal 0 0 -1
    outer loop
      vertex 9.92115 -1.25333 1.8
      vertex 11.2605 -1.42253 1.8
      vertex 10.9934 -2.82263 1.8
    endloop
  endfacet
  facet normal 0 0 -1
    outer loop
      vertex 11.35 0 1.8
      vertex 10 0 1.8
      vertex 11.2605 1.42253 1.8
    endloop
  endfacet
  facet normal 0 0 -1
    outer loop
      vertex 9.68583 -2.4869 1.8
      vertex 10.9934 -2.82263 1.8
      vertex 10.553 -4.17821 1.8
    endloop
  endfacet
  facet normal 0 0 -1
    outer loop
      vertex 9.92115 1.25333 1.8
      vertex 11.2605 1.42253 1.8
      vertex 10 0 1.8
    endloop
  endfacet
  facet normal -0 0 -1
    outer loop
      vertex 11.2605 1.42253 1.8
      vertex 9.92115 1.25333 1.8
      vertex 10.9934 2.82263 1.8
    endloop
  endfacet
  facet normal 0 0 -1
    outer loop
      vertex 9.29776 -3.68124 1.8
      vertex 10.553 -4.17821 1.8
      vertex 9.94608 -5.4679 1.8
    endloop
  endfacet
  facet normal 0 0 -1
    outer loop
      vertex 11.2605 -1.42253 1.8
      vertex 9.92115 -1.25333 1.8
      vertex 10 0 1.8
    endloop
  endfacet
  facet normal 0 0 -1
    outer loop
      vertex 10.9934 -2.82263 1.8
      vertex 9.68583 -2.4869 1.8
      vertex 9.92115 -1.25333 1.8
    endloop
  endfacet
  facet normal 0 0 -1
    outer loop
      vertex 10.553 -4.17821 1.8
      vertex 9.29776 -3.68124 1.8
      vertex 9.68583 -2.4869 1.8
    endloop
  endfacet
  facet normal 0 0 -1
    outer loop
      vertex 8.76307 -4.81754 1.8
      vertex 9.94608 -5.4679 1.8
      vertex 9.18234 -6.67136 1.8
    endloop
  endfacet
  facet normal 0 0 -1
    outer loop
      vertex 9.94608 -5.4679 1.8
      vertex 8.76307 -4.81754 1.8
      vertex 9.29776 -3.68124 1.8
    endloop
  endfacet
  facet normal 0 0 -1
    outer loop
      vertex 8.09017 -5.87785 1.8
      vertex 9.18234 -6.67136 1.8
      vertex 8.27379 -7.76961 1.8
    endloop
  endfacet
  facet normal 0 0 -1
    outer loop
      vertex 9.18234 -6.67136 1.8
      vertex 8.09017 -5.87785 1.8
      vertex 8.76307 -4.81754 1.8
    endloop
  endfacet
  facet normal 0 0 -1
    outer loop
      vertex 8.27379 -7.76961 1.8
      vertex 7.28969 -6.84547 1.8
      vertex 8.09017 -5.87785 1.8
    endloop
  endfacet
  facet normal 0 0 -1
    outer loop
      vertex 7.23476 -8.74533 1.8
      vertex 7.28969 -6.84547 1.8
      vertex 8.27379 -7.76961 1.8
    endloop
  endfacet
  facet normal 0 0 -1
    outer loop
      vertex 7.23476 -8.74533 1.8
      vertex 6.37424 -7.70513 1.8
      vertex 7.28969 -6.84547 1.8
    endloop
  endfacet
  facet normal 0 0 -1
    outer loop
      vertex 6.08163 -9.58312 1.8
      vertex 6.37424 -7.70513 1.8
      vertex 7.23476 -8.74533 1.8
    endloop
  endfacet
  facet normal 0 0 -1
    outer loop
      vertex 6.08163 -9.58312 1.8
      vertex 5.35827 -8.44328 1.8
      vertex 6.37424 -7.70513 1.8
    endloop
  endfacet
  facet normal 0 0 -1
    outer loop
      vertex 4.83259 -10.2698 1.8
      vertex 5.35827 -8.44328 1.8
      vertex 6.08163 -9.58312 1.8
    endloop
  endfacet
  facet normal 0 0 -1
    outer loop
      vertex 4.83259 -10.2698 1.8
      vertex 4.25779 -9.04827 1.8
      vertex 5.35827 -8.44328 1.8
    endloop
  endfacet
  facet normal 0 0 -1
    outer loop
      vertex 3.50734 -10.7945 1.8
      vertex 4.25779 -9.04827 1.8
      vertex 4.83259 -10.2698 1.8
    endloop
  endfacet
  facet normal 0 0 -1
    outer loop
      vertex 3.50734 -10.7945 1.8
      vertex 3.09017 -9.51056 1.8
      vertex 4.25779 -9.04827 1.8
    endloop
  endfacet
  facet normal 0 0 -1
    outer loop
      vertex 2.12678 -11.149 1.8
      vertex 3.09017 -9.51056 1.8
      vertex 3.50734 -10.7945 1.8
    endloop
  endfacet
  facet normal 0 0 -1
    outer loop
      vertex 2.12678 -11.149 1.8
      vertex 1.87381 -9.82287 1.8
      vertex 3.09017 -9.51056 1.8
    endloop
  endfacet
  facet normal 0 0 -1
    outer loop
      vertex 0.712672 -11.3276 1.8
      vertex 1.87381 -9.82287 1.8
      vertex 2.12678 -11.149 1.8
    endloop
  endfacet
  facet normal 0 0 -1
    outer loop
      vertex 0.712672 -11.3276 1.8
      vertex 0.627905 -9.98027 1.8
      vertex 1.87381 -9.82287 1.8
    endloop
  endfacet
  facet normal 0 0 -1
    outer loop
      vertex 0.712672 -11.3276 1.8
      vertex -0.627905 -9.98027 1.8
      vertex 0.627905 -9.98027 1.8
    endloop
  endfacet
  facet normal 0 0 -1
    outer loop
      vertex -0.712672 -11.3276 1.8
      vertex -0.627905 -9.98027 1.8
      vertex 0.712672 -11.3276 1.8
    endloop
  endfacet
  facet normal 0 0 -1
    outer loop
      vertex -0.712672 -11.3276 1.8
      vertex -1.87381 -9.82287 1.8
      vertex -0.627905 -9.98027 1.8
    endloop
  endfacet
  facet normal 0 0 -1
    outer loop
      vertex -2.12678 -11.149 1.8
      vertex -1.87381 -9.82287 1.8
      vertex -0.712672 -11.3276 1.8
    endloop
  endfacet
  facet normal 0 0 -1
    outer loop
      vertex -2.12678 -11.149 1.8
      vertex -3.09017 -9.51056 1.8
      vertex -1.87381 -9.82287 1.8
    endloop
  endfacet
  facet normal 0 0 -1
    outer loop
      vertex -3.50734 -10.7945 1.8
      vertex -3.09017 -9.51056 1.8
      vertex -2.12678 -11.149 1.8
    endloop
  endfacet
  facet normal 0 0 -1
    outer loop
      vertex -3.50734 -10.7945 1.8
      vertex -4.25779 -9.04827 1.8
      vertex -3.09017 -9.51056 1.8
    endloop
  endfacet
  facet normal 0 0 -1
    outer loop
      vertex -4.83259 -10.2698 1.8
      vertex -4.25779 -9.04827 1.8
      vertex -3.50734 -10.7945 1.8
    endloop
  endfacet
  facet normal 0 0 -1
    outer loop
      vertex -4.83259 -10.2698 1.8
      vertex -5.35827 -8.44328 1.8
      vertex -4.25779 -9.04827 1.8
    endloop
  endfacet
  facet normal 0 0 -1
    outer loop
      vertex -6.08163 -9.58312 1.8
      vertex -5.35827 -8.44328 1.8
      vertex -4.83259 -10.2698 1.8
    endloop
  endfacet
  facet normal 0 0 -1
    outer loop
      vertex -6.08163 -9.58312 1.8
      vertex -6.37424 -7.70513 1.8
      vertex -5.35827 -8.44328 1.8
    endloop
  endfacet
  facet normal 0 0 -1
    outer loop
      vertex -7.23476 -8.74533 1.8
      vertex -6.37424 -7.70513 1.8
      vertex -6.08163 -9.58312 1.8
    endloop
  endfacet
  facet normal 0 0 -1
    outer loop
      vertex -7.23476 -8.74533 1.8
      vertex -7.28969 -6.84547 1.8
      vertex -6.37424 -7.70513 1.8
    endloop
  endfacet
  facet normal 0 0 -1
    outer loop
      vertex -8.27379 -7.76961 1.8
      vertex -7.28969 -6.84547 1.8
      vertex -7.23476 -8.74533 1.8
    endloop
  endfacet
  facet normal -0 0 -1
    outer loop
      vertex -7.28969 -6.84547 1.8
      vertex -8.27379 -7.76961 1.8
      vertex -8.09017 -5.87785 1.8
    endloop
  endfacet
  facet normal 0 0 -1
    outer loop
      vertex -9.18234 -6.67136 1.8
      vertex -8.09017 -5.87785 1.8
      vertex -8.27379 -7.76961 1.8
    endloop
  endfacet
  facet normal -0 0 -1
    outer loop
      vertex -8.09017 -5.87785 1.8
      vertex -9.18234 -6.67136 1.8
      vertex -8.76307 -4.81754 1.8
    endloop
  endfacet
  facet normal 0 0 -1
    outer loop
      vertex -9.94608 -5.4679 1.8
      vertex -8.76307 -4.81754 1.8
      vertex -9.18234 -6.67136 1.8
    endloop
  endfacet
  facet normal -0 0 -1
    outer loop
      vertex -8.76307 -4.81754 1.8
      vertex -9.94608 -5.4679 1.8
      vertex -9.29776 -3.68124 1.8
    endloop
  endfacet
  facet normal 0 0 -1
    outer loop
      vertex -10.553 -4.17821 1.8
      vertex -9.29776 -3.68124 1.8
      vertex -9.94608 -5.4679 1.8
    endloop
  endfacet
  facet normal -0 0 -1
    outer loop
      vertex -9.29776 -3.68124 1.8
      vertex -10.553 -4.17821 1.8
      vertex -9.68583 -2.4869 1.8
    endloop
  endfacet
  facet normal 0 0 -1
    outer loop
      vertex -10.9934 -2.82263 1.8
      vertex -9.68583 -2.4869 1.8
      vertex -10.553 -4.17821 1.8
    endloop
  endfacet
  facet normal -0 0 -1
    outer loop
      vertex -9.68583 -2.4869 1.8
      vertex -10.9934 -2.82263 1.8
      vertex -9.92115 -1.25333 1.8
    endloop
  endfacet
  facet normal 0 0 -1
    outer loop
      vertex 9.68583 2.4869 1.8
      vertex 10.9934 2.82263 1.8
      vertex 9.92115 1.25333 1.8
    endloop
  endfacet
  facet normal -0 0 -1
    outer loop
      vertex 10.9934 2.82263 1.8
      vertex 9.68583 2.4869 1.8
      vertex 10.553 4.17821 1.8
    endloop
  endfacet
  facet normal 0 0 -1
    outer loop
      vertex 9.29776 3.68124 1.8
      vertex 10.553 4.17821 1.8
      vertex 9.68583 2.4869 1.8
    endloop
  endfacet
  facet normal -0 0 -1
    outer loop
      vertex 10.553 4.17821 1.8
      vertex 9.29776 3.68124 1.8
      vertex 9.94608 5.4679 1.8
    endloop
  endfacet
  facet normal 0 0 -1
    outer loop
      vertex 8.76307 4.81754 1.8
      vertex 9.94608 5.4679 1.8
      vertex 9.29776 3.68124 1.8
    endloop
  endfacet
  facet normal -0 0 -1
    outer loop
      vertex 9.94608 5.4679 1.8
      vertex 8.76307 4.81754 1.8
      vertex 9.18234 6.67136 1.8
    endloop
  endfacet
  facet normal 0 0 -1
    outer loop
      vertex 8.09017 5.87785 1.8
      vertex 9.18234 6.67136 1.8
      vertex 8.76307 4.81754 1.8
    endloop
  endfacet
  facet normal -0 0 -1
    outer loop
      vertex 9.18234 6.67136 1.8
      vertex 8.09017 5.87785 1.8
      vertex 8.27379 7.76961 1.8
    endloop
  endfacet
  facet normal 0 0 -1
    outer loop
      vertex 7.28969 6.84547 1.8
      vertex 8.27379 7.76961 1.8
      vertex 8.09017 5.87785 1.8
    endloop
  endfacet
  facet normal 0 0 -1
    outer loop
      vertex 7.28969 6.84547 1.8
      vertex 7.23476 8.74533 1.8
      vertex 8.27379 7.76961 1.8
    endloop
  endfacet
  facet normal 0 0 -1
    outer loop
      vertex 6.37424 7.70513 1.8
      vertex 7.23476 8.74533 1.8
      vertex 7.28969 6.84547 1.8
    endloop
  endfacet
  facet normal 0 0 -1
    outer loop
      vertex 6.37424 7.70513 1.8
      vertex 6.08163 9.58312 1.8
      vertex 7.23476 8.74533 1.8
    endloop
  endfacet
  facet normal 0 0 -1
    outer loop
      vertex 5.35827 8.44328 1.8
      vertex 6.08163 9.58312 1.8
      vertex 6.37424 7.70513 1.8
    endloop
  endfacet
  facet normal 0 0 -1
    outer loop
      vertex 5.35827 8.44328 1.8
      vertex 4.83259 10.2698 1.8
      vertex 6.08163 9.58312 1.8
    endloop
  endfacet
  facet normal 0 0 -1
    outer loop
      vertex 4.25779 9.04827 1.8
      vertex 4.83259 10.2698 1.8
      vertex 5.35827 8.44328 1.8
    endloop
  endfacet
  facet normal 0 0 -1
    outer loop
      vertex 4.25779 9.04827 1.8
      vertex 3.50734 10.7945 1.8
      vertex 4.83259 10.2698 1.8
    endloop
  endfacet
  facet normal 0 0 -1
    outer loop
      vertex 3.09017 9.51056 1.8
      vertex 3.50734 10.7945 1.8
      vertex 4.25779 9.04827 1.8
    endloop
  endfacet
  facet normal 0 0 -1
    outer loop
      vertex 3.09017 9.51056 1.8
      vertex 2.12678 11.149 1.8
      vertex 3.50734 10.7945 1.8
    endloop
  endfacet
  facet normal 0 0 -1
    outer loop
      vertex 1.87381 9.82287 1.8
      vertex 2.12678 11.149 1.8
      vertex 3.09017 9.51056 1.8
    endloop
  endfacet
  facet normal 0 0 -1
    outer loop
      vertex 1.87381 9.82287 1.8
      vertex 0.712672 11.3276 1.8
      vertex 2.12678 11.149 1.8
    endloop
  endfacet
  facet normal 0 0 -1
    outer loop
      vertex 0.627905 9.98027 1.8
      vertex 0.712672 11.3276 1.8
      vertex 1.87381 9.82287 1.8
    endloop
  endfacet
  facet normal 0 0 -1
    outer loop
      vertex -0.627905 9.98027 1.8
      vertex 0.712672 11.3276 1.8
      vertex 0.627905 9.98027 1.8
    endloop
  endfacet
  facet normal 0 0 -1
    outer loop
      vertex -0.627905 9.98027 1.8
      vertex -0.712672 11.3276 1.8
      vertex 0.712672 11.3276 1.8
    endloop
  endfacet
  facet normal 0 0 -1
    outer loop
      vertex -1.87381 9.82287 1.8
      vertex -0.712672 11.3276 1.8
      vertex -0.627905 9.98027 1.8
    endloop
  endfacet
  facet normal 0 0 -1
    outer loop
      vertex -1.87381 9.82287 1.8
      vertex -2.12678 11.149 1.8
      vertex -0.712672 11.3276 1.8
    endloop
  endfacet
  facet normal 0 0 -1
    outer loop
      vertex -3.09017 9.51056 1.8
      vertex -2.12678 11.149 1.8
      vertex -1.87381 9.82287 1.8
    endloop
  endfacet
  facet normal 0 0 -1
    outer loop
      vertex -3.09017 9.51056 1.8
      vertex -3.50734 10.7945 1.8
      vertex -2.12678 11.149 1.8
    endloop
  endfacet
  facet normal 0 0 -1
    outer loop
      vertex -4.25779 9.04827 1.8
      vertex -3.50734 10.7945 1.8
      vertex -3.09017 9.51056 1.8
    endloop
  endfacet
  facet normal 0 0 -1
    outer loop
      vertex -4.25779 9.04827 1.8
      vertex -4.83259 10.2698 1.8
      vertex -3.50734 10.7945 1.8
    endloop
  endfacet
  facet normal 0 0 -1
    outer loop
      vertex -5.35827 8.44328 1.8
      vertex -4.83259 10.2698 1.8
      vertex -4.25779 9.04827 1.8
    endloop
  endfacet
  facet normal 0 0 -1
    outer loop
      vertex -5.35827 8.44328 1.8
      vertex -6.08163 9.58312 1.8
      vertex -4.83259 10.2698 1.8
    endloop
  endfacet
  facet normal 0 0 -1
    outer loop
      vertex -6.37424 7.70513 1.8
      vertex -6.08163 9.58312 1.8
      vertex -5.35827 8.44328 1.8
    endloop
  endfacet
  facet normal 0 0 -1
    outer loop
      vertex -6.37424 7.70513 1.8
      vertex -7.23476 8.74533 1.8
      vertex -6.08163 9.58312 1.8
    endloop
  endfacet
  facet normal 0 0 -1
    outer loop
      vertex -7.28969 6.84547 1.8
      vertex -7.23476 8.74533 1.8
      vertex -6.37424 7.70513 1.8
    endloop
  endfacet
  facet normal 0 0 -1
    outer loop
      vertex -8.27379 7.76961 1.8
      vertex -7.28969 6.84547 1.8
      vertex -8.09017 5.87785 1.8
    endloop
  endfacet
  facet normal 0 0 -1
    outer loop
      vertex -7.28969 6.84547 1.8
      vertex -8.27379 7.76961 1.8
      vertex -7.23476 8.74533 1.8
    endloop
  endfacet
  facet normal 0 0 -1
    outer loop
      vertex -9.18234 6.67136 1.8
      vertex -8.09017 5.87785 1.8
      vertex -8.76307 4.81754 1.8
    endloop
  endfacet
  facet normal 0 0 -1
    outer loop
      vertex -8.09017 5.87785 1.8
      vertex -9.18234 6.67136 1.8
      vertex -8.27379 7.76961 1.8
    endloop
  endfacet
  facet normal 0 0 -1
    outer loop
      vertex -9.94608 5.4679 1.8
      vertex -8.76307 4.81754 1.8
      vertex -9.29776 3.68124 1.8
    endloop
  endfacet
  facet normal 0 0 -1
    outer loop
      vertex -10.553 4.17821 1.8
      vertex -9.29776 3.68124 1.8
      vertex -9.68583 2.4869 1.8
    endloop
  endfacet
  facet normal 0 0 -1
    outer loop
      vertex -10.9934 2.82263 1.8
      vertex -9.68583 2.4869 1.8
      vertex -9.92115 1.25333 1.8
    endloop
  endfacet
  facet normal 0 0 -1
    outer loop
      vertex -8.76307 4.81754 1.8
      vertex -9.94608 5.4679 1.8
      vertex -9.18234 6.67136 1.8
    endloop
  endfacet
  facet normal 0 0 -1
    outer loop
      vertex -11.2605 1.42253 1.8
      vertex -9.92115 1.25333 1.8
      vertex -10 0 1.8
    endloop
  endfacet
  facet normal 0 0 -1
    outer loop
      vertex -11.2605 -1.42253 1.8
      vertex -9.92115 -1.25333 1.8
      vertex -10.9934 -2.82263 1.8
    endloop
  endfacet
  facet normal 0 0 -1
    outer loop
      vertex -9.29776 3.68124 1.8
      vertex -10.553 4.17821 1.8
      vertex -9.94608 5.4679 1.8
    endloop
  endfacet
  facet normal -0 0 -1
    outer loop
      vertex -9.92115 -1.25333 1.8
      vertex -11.2605 -1.42253 1.8
      vertex -10 0 1.8
    endloop
  endfacet
  facet normal 0 0 -1
    outer loop
      vertex -9.68583 2.4869 1.8
      vertex -10.9934 2.82263 1.8
      vertex -10.553 4.17821 1.8
    endloop
  endfacet
  facet normal 0 0 -1
    outer loop
      vertex -11.35 0 1.8
      vertex -10 0 1.8
      vertex -11.2605 -1.42253 1.8
    endloop
  endfacet
  facet normal 0 0 -1
    outer loop
      vertex -9.92115 1.25333 1.8
      vertex -11.2605 1.42253 1.8
      vertex -10.9934 2.82263 1.8
    endloop
  endfacet
  facet normal 0 0 -1
    outer loop
      vertex -10 0 1.8
      vertex -11.35 0 1.8
      vertex -11.2605 1.42253 1.8
    endloop
  endfacet
  facet normal 0.998027 0.0627883 0
    outer loop
      vertex 10 0 1.8
      vertex 9.92115 1.25333 0
      vertex 9.92115 1.25333 1.8
    endloop
  endfacet
  facet normal 0.998027 0.0627883 0
    outer loop
      vertex 9.92115 1.25333 0
      vertex 10 0 1.8
      vertex 10 0 0
    endloop
  endfacet
  facet normal -0.998027 0.0627883 0
    outer loop
      vertex -10 0 0
      vertex -9.92115 1.25333 1.8
      vertex -9.92115 1.25333 0
    endloop
  endfacet
  facet normal -0.998027 0.0627883 0
    outer loop
      vertex -9.92115 1.25333 1.8
      vertex -10 0 0
      vertex -10 0 1.8
    endloop
  endfacet
  facet normal 0 1 -0
    outer loop
      vertex 0.627905 9.98027 0
      vertex -0.627905 9.98027 1.8
      vertex 0.627905 9.98027 1.8
    endloop
  endfacet
  facet normal 0 1 0
    outer loop
      vertex -0.627905 9.98027 1.8
      vertex 0.627905 9.98027 0
      vertex -0.627905 9.98027 0
    endloop
  endfacet
  facet normal 0 -1 0
    outer loop
      vertex -0.627905 -9.98027 0
      vertex 0.627905 -9.98027 1.8
      vertex -0.627905 -9.98027 1.8
    endloop
  endfacet
  facet normal 0 -1 -0
    outer loop
      vertex 0.627905 -9.98027 1.8
      vertex -0.627905 -9.98027 0
      vertex 0.627905 -9.98027 0
    endloop
  endfacet
  facet normal 0.684545 0.728971 -0
    outer loop
      vertex 7.28969 6.84547 0
      vertex 6.37424 7.70513 1.8
      vertex 7.28969 6.84547 1.8
    endloop
  endfacet
  facet normal 0.684545 0.728971 0
    outer loop
      vertex 6.37424 7.70513 1.8
      vertex 7.28969 6.84547 0
      vertex 6.37424 7.70513 0
    endloop
  endfacet
  facet normal -0.684545 0.728971 0
    outer loop
      vertex -6.37424 7.70513 0
      vertex -7.28969 6.84547 1.8
      vertex -6.37424 7.70513 1.8
    endloop
  endfacet
  facet normal -0.684545 0.728971 0
    outer loop
      vertex -7.28969 6.84547 1.8
      vertex -6.37424 7.70513 0
      vertex -7.28969 6.84547 0
    endloop
  endfacet
  facet normal -0.368122 0.929777 0
    outer loop
      vertex -3.09017 9.51056 0
      vertex -4.25779 9.04827 1.8
      vertex -3.09017 9.51056 1.8
    endloop
  endfacet
  facet normal -0.368122 0.929777 0
    outer loop
      vertex -4.25779 9.04827 1.8
      vertex -3.09017 9.51056 0
      vertex -4.25779 9.04827 0
    endloop
  endfacet
  facet normal 0.904831 0.425771 0
    outer loop
      vertex 9.29776 3.68124 1.8
      vertex 8.76307 4.81754 0
      vertex 8.76307 4.81754 1.8
    endloop
  endfacet
  facet normal 0.904831 0.425771 0
    outer loop
      vertex 8.76307 4.81754 0
      vertex 9.29776 3.68124 1.8
      vertex 9.29776 3.68124 0
    endloop
  endfacet
  facet normal 0.844325 0.535831 0
    outer loop
      vertex 8.76307 4.81754 1.8
      vertex 8.09017 5.87785 0
      vertex 8.09017 5.87785 1.8
    endloop
  endfacet
  facet normal 0.844325 0.535831 0
    outer loop
      vertex 8.09017 5.87785 0
      vertex 8.76307 4.81754 1.8
      vertex 8.76307 4.81754 0
    endloop
  endfacet
  facet normal 0.368122 0.929777 -0
    outer loop
      vertex 4.25779 9.04827 0
      vertex 3.09017 9.51056 1.8
      vertex 4.25779 9.04827 1.8
    endloop
  endfacet
  facet normal 0.368122 0.929777 0
    outer loop
      vertex 3.09017 9.51056 1.8
      vertex 4.25779 9.04827 0
      vertex 3.09017 9.51056 0
    endloop
  endfacet
  facet normal 0.248691 0.968583 -0
    outer loop
      vertex 3.09017 9.51056 0
      vertex 1.87381 9.82287 1.8
      vertex 3.09017 9.51056 1.8
    endloop
  endfacet
  facet normal 0.248691 0.968583 0
    outer loop
      vertex 1.87381 9.82287 1.8
      vertex 3.09017 9.51056 0
      vertex 1.87381 9.82287 0
    endloop
  endfacet
  facet normal 0.481751 0.876308 -0
    outer loop
      vertex 5.35827 8.44328 0
      vertex 4.25779 9.04827 1.8
      vertex 5.35827 8.44328 1.8
    endloop
  endfacet
  facet normal 0.481751 0.876308 0
    outer loop
      vertex 4.25779 9.04827 1.8
      vertex 5.35827 8.44328 0
      vertex 4.25779 9.04827 0
    endloop
  endfacet
  facet normal -0.904831 0.425771 0
    outer loop
      vertex -9.29776 3.68124 0
      vertex -8.76307 4.81754 1.8
      vertex -8.76307 4.81754 0
    endloop
  endfacet
  facet normal -0.904831 0.425771 0
    outer loop
      vertex -8.76307 4.81754 1.8
      vertex -9.29776 3.68124 0
      vertex -9.29776 3.68124 1.8
    endloop
  endfacet
  facet normal -0.770515 0.637422 0
    outer loop
      vertex -8.09017 5.87785 0
      vertex -7.28969 6.84547 1.8
      vertex -7.28969 6.84547 0
    endloop
  endfacet
  facet normal -0.770515 0.637422 0
    outer loop
      vertex -7.28969 6.84547 1.8
      vertex -8.09017 5.87785 0
      vertex -8.09017 5.87785 1.8
    endloop
  endfacet
  facet normal -0.951055 0.309021 0
    outer loop
      vertex -9.68583 2.4869 0
      vertex -9.29776 3.68124 1.8
      vertex -9.29776 3.68124 0
    endloop
  endfacet
  facet normal -0.951055 0.309021 0
    outer loop
      vertex -9.29776 3.68124 1.8
      vertex -9.68583 2.4869 0
      vertex -9.68583 2.4869 1.8
    endloop
  endfacet
  facet normal -0.481751 0.876308 0
    outer loop
      vertex -4.25779 9.04827 0
      vertex -5.35827 8.44328 1.8
      vertex -4.25779 9.04827 1.8
    endloop
  endfacet
  facet normal -0.481751 0.876308 0
    outer loop
      vertex -5.35827 8.44328 1.8
      vertex -4.25779 9.04827 0
      vertex -5.35827 8.44328 0
    endloop
  endfacet
  facet normal -0.125338 0.992114 0
    outer loop
      vertex -0.627905 9.98027 0
      vertex -1.87381 9.82287 1.8
      vertex -0.627905 9.98027 1.8
    endloop
  endfacet
  facet normal -0.125338 0.992114 0
    outer loop
      vertex -1.87381 9.82287 1.8
      vertex -0.627905 9.98027 0
      vertex -1.87381 9.82287 0
    endloop
  endfacet
  facet normal 0.125338 -0.992114 0
    outer loop
      vertex 0.627905 -9.98027 0
      vertex 1.87381 -9.82287 1.8
      vertex 0.627905 -9.98027 1.8
    endloop
  endfacet
  facet normal 0.125338 -0.992114 0
    outer loop
      vertex 1.87381 -9.82287 1.8
      vertex 0.627905 -9.98027 0
      vertex 1.87381 -9.82287 0
    endloop
  endfacet
  facet normal 0.368122 -0.929777 0
    outer loop
      vertex 3.09017 -9.51056 0
      vertex 4.25779 -9.04827 1.8
      vertex 3.09017 -9.51056 1.8
    endloop
  endfacet
  facet normal 0.368122 -0.929777 0
    outer loop
      vertex 4.25779 -9.04827 1.8
      vertex 3.09017 -9.51056 0
      vertex 4.25779 -9.04827 0
    endloop
  endfacet
  facet normal 0.951055 0.309021 0
    outer loop
      vertex 9.68583 2.4869 1.8
      vertex 9.29776 3.68124 0
      vertex 9.29776 3.68124 1.8
    endloop
  endfacet
  facet normal 0.951055 0.309021 0
    outer loop
      vertex 9.29776 3.68124 0
      vertex 9.68583 2.4869 1.8
      vertex 9.68583 2.4869 0
    endloop
  endfacet
  facet normal 0.982287 0.187384 0
    outer loop
      vertex 9.92115 1.25333 1.8
      vertex 9.68583 2.4869 0
      vertex 9.68583 2.4869 1.8
    endloop
  endfacet
  facet normal 0.982287 0.187384 0
    outer loop
      vertex 9.68583 2.4869 0
      vertex 9.92115 1.25333 1.8
      vertex 9.92115 1.25333 0
    endloop
  endfacet
  facet normal 0.770515 0.637422 0
    outer loop
      vertex 8.09017 5.87785 1.8
      vertex 7.28969 6.84547 0
      vertex 7.28969 6.84547 1.8
    endloop
  endfacet
  facet normal 0.770515 0.637422 0
    outer loop
      vertex 7.28969 6.84547 0
      vertex 8.09017 5.87785 1.8
      vertex 8.09017 5.87785 0
    endloop
  endfacet
  facet normal 0.125338 0.992114 -0
    outer loop
      vertex 1.87381 9.82287 0
      vertex 0.627905 9.98027 1.8
      vertex 1.87381 9.82287 1.8
    endloop
  endfacet
  facet normal 0.125338 0.992114 0
    outer loop
      vertex 0.627905 9.98027 1.8
      vertex 1.87381 9.82287 0
      vertex 0.627905 9.98027 0
    endloop
  endfacet
  facet normal 0.587788 0.809015 -0
    outer loop
      vertex 6.37424 7.70513 0
      vertex 5.35827 8.44328 1.8
      vertex 6.37424 7.70513 1.8
    endloop
  endfacet
  facet normal 0.587788 0.809015 0
    outer loop
      vertex 5.35827 8.44328 1.8
      vertex 6.37424 7.70513 0
      vertex 5.35827 8.44328 0
    endloop
  endfacet
  facet normal -0.844325 0.535831 0
    outer loop
      vertex -8.76307 4.81754 0
      vertex -8.09017 5.87785 1.8
      vertex -8.09017 5.87785 0
    endloop
  endfacet
  facet normal -0.844325 0.535831 0
    outer loop
      vertex -8.09017 5.87785 1.8
      vertex -8.76307 4.81754 0
      vertex -8.76307 4.81754 1.8
    endloop
  endfacet
  facet normal -0.982287 0.187384 0
    outer loop
      vertex -9.92115 1.25333 0
      vertex -9.68583 2.4869 1.8
      vertex -9.68583 2.4869 0
    endloop
  endfacet
  facet normal -0.982287 0.187384 0
    outer loop
      vertex -9.68583 2.4869 1.8
      vertex -9.92115 1.25333 0
      vertex -9.92115 1.25333 1.8
    endloop
  endfacet
  facet normal -0.587788 0.809015 0
    outer loop
      vertex -5.35827 8.44328 0
      vertex -6.37424 7.70513 1.8
      vertex -5.35827 8.44328 1.8
    endloop
  endfacet
  facet normal -0.587788 0.809015 0
    outer loop
      vertex -6.37424 7.70513 1.8
      vertex -5.35827 8.44328 0
      vertex -6.37424 7.70513 0
    endloop
  endfacet
  facet normal -0.248691 0.968583 0
    outer loop
      vertex -1.87381 9.82287 0
      vertex -3.09017 9.51056 1.8
      vertex -1.87381 9.82287 1.8
    endloop
  endfacet
  facet normal -0.248691 0.968583 0
    outer loop
      vertex -3.09017 9.51056 1.8
      vertex -1.87381 9.82287 0
      vertex -3.09017 9.51056 0
    endloop
  endfacet
  facet normal 0.998027 -0.0627883 0
    outer loop
      vertex 9.92115 -1.25333 1.8
      vertex 10 0 0
      vertex 10 0 1.8
    endloop
  endfacet
  facet normal 0.998027 -0.0627883 0
    outer loop
      vertex 10 0 0
      vertex 9.92115 -1.25333 1.8
      vertex 9.92115 -1.25333 0
    endloop
  endfacet
  facet normal 0.481751 -0.876308 0
    outer loop
      vertex 4.25779 -9.04827 0
      vertex 5.35827 -8.44328 1.8
      vertex 4.25779 -9.04827 1.8
    endloop
  endfacet
  facet normal 0.481751 -0.876308 0
    outer loop
      vertex 5.35827 -8.44328 1.8
      vertex 4.25779 -9.04827 0
      vertex 5.35827 -8.44328 0
    endloop
  endfacet
  facet normal 0.770515 -0.637422 0
    outer loop
      vertex 7.28969 -6.84547 1.8
      vertex 8.09017 -5.87785 0
      vertex 8.09017 -5.87785 1.8
    endloop
  endfacet
  facet normal 0.770515 -0.637422 0
    outer loop
      vertex 8.09017 -5.87785 0
      vertex 7.28969 -6.84547 1.8
      vertex 7.28969 -6.84547 0
    endloop
  endfacet
  facet normal 0.951055 -0.309021 0
    outer loop
      vertex 9.29776 -3.68124 1.8
      vertex 9.68583 -2.4869 0
      vertex 9.68583 -2.4869 1.8
    endloop
  endfacet
  facet normal 0.951055 -0.309021 0
    outer loop
      vertex 9.68583 -2.4869 0
      vertex 9.29776 -3.68124 1.8
      vertex 9.29776 -3.68124 0
    endloop
  endfacet
  facet normal 0.982287 -0.187384 0
    outer loop
      vertex 9.68583 -2.4869 1.8
      vertex 9.92115 -1.25333 0
      vertex 9.92115 -1.25333 1.8
    endloop
  endfacet
  facet normal 0.982287 -0.187384 0
    outer loop
      vertex 9.92115 -1.25333 0
      vertex 9.68583 -2.4869 1.8
      vertex 9.68583 -2.4869 0
    endloop
  endfacet
  facet normal -0.904831 -0.425771 0
    outer loop
      vertex -8.76307 -4.81754 0
      vertex -9.29776 -3.68124 1.8
      vertex -9.29776 -3.68124 0
    endloop
  endfacet
  facet normal -0.904831 -0.425771 0
    outer loop
      vertex -9.29776 -3.68124 1.8
      vertex -8.76307 -4.81754 0
      vertex -8.76307 -4.81754 1.8
    endloop
  endfacet
  facet normal -0.770515 -0.637422 0
    outer loop
      vertex -7.28969 -6.84547 0
      vertex -8.09017 -5.87785 1.8
      vertex -8.09017 -5.87785 0
    endloop
  endfacet
  facet normal -0.770515 -0.637422 0
    outer loop
      vertex -8.09017 -5.87785 1.8
      vertex -7.28969 -6.84547 0
      vertex -7.28969 -6.84547 1.8
    endloop
  endfacet
  facet normal 0.844325 -0.535831 0
    outer loop
      vertex 8.09017 -5.87785 1.8
      vertex 8.76307 -4.81754 0
      vertex 8.76307 -4.81754 1.8
    endloop
  endfacet
  facet normal 0.844325 -0.535831 0
    outer loop
      vertex 8.76307 -4.81754 0
      vertex 8.09017 -5.87785 1.8
      vertex 8.09017 -5.87785 0
    endloop
  endfacet
  facet normal -0.951055 -0.309021 0
    outer loop
      vertex -9.29776 -3.68124 0
      vertex -9.68583 -2.4869 1.8
      vertex -9.68583 -2.4869 0
    endloop
  endfacet
  facet normal -0.951055 -0.309021 0
    outer loop
      vertex -9.68583 -2.4869 1.8
      vertex -9.29776 -3.68124 0
      vertex -9.29776 -3.68124 1.8
    endloop
  endfacet
  facet normal 0.248691 -0.968583 0
    outer loop
      vertex 1.87381 -9.82287 0
      vertex 3.09017 -9.51056 1.8
      vertex 1.87381 -9.82287 1.8
    endloop
  endfacet
  facet normal 0.248691 -0.968583 0
    outer loop
      vertex 3.09017 -9.51056 1.8
      vertex 1.87381 -9.82287 0
      vertex 3.09017 -9.51056 0
    endloop
  endfacet
  facet normal 0.684545 -0.728971 0
    outer loop
      vertex 6.37424 -7.70513 0
      vertex 7.28969 -6.84547 1.8
      vertex 6.37424 -7.70513 1.8
    endloop
  endfacet
  facet normal 0.684545 -0.728971 0
    outer loop
      vertex 7.28969 -6.84547 1.8
      vertex 6.37424 -7.70513 0
      vertex 7.28969 -6.84547 0
    endloop
  endfacet
  facet normal 0.587788 -0.809015 0
    outer loop
      vertex 5.35827 -8.44328 0
      vertex 6.37424 -7.70513 1.8
      vertex 5.35827 -8.44328 1.8
    endloop
  endfacet
  facet normal 0.587788 -0.809015 0
    outer loop
      vertex 6.37424 -7.70513 1.8
      vertex 5.35827 -8.44328 0
      vertex 6.37424 -7.70513 0
    endloop
  endfacet
  facet normal 0.904831 -0.425771 0
    outer loop
      vertex 8.76307 -4.81754 1.8
      vertex 9.29776 -3.68124 0
      vertex 9.29776 -3.68124 1.8
    endloop
  endfacet
  facet normal 0.904831 -0.425771 0
    outer loop
      vertex 9.29776 -3.68124 0
      vertex 8.76307 -4.81754 1.8
      vertex 8.76307 -4.81754 0
    endloop
  endfacet
  facet normal -0.125338 -0.992114 0
    outer loop
      vertex -1.87381 -9.82287 0
      vertex -0.627905 -9.98027 1.8
      vertex -1.87381 -9.82287 1.8
    endloop
  endfacet
  facet normal -0.125338 -0.992114 -0
    outer loop
      vertex -0.627905 -9.98027 1.8
      vertex -1.87381 -9.82287 0
      vertex -0.627905 -9.98027 0
    endloop
  endfacet
  facet normal -0.248691 -0.968583 0
    outer loop
      vertex -3.09017 -9.51056 0
      vertex -1.87381 -9.82287 1.8
      vertex -3.09017 -9.51056 1.8
    endloop
  endfacet
  facet normal -0.248691 -0.968583 -0
    outer loop
      vertex -1.87381 -9.82287 1.8
      vertex -3.09017 -9.51056 0
      vertex -1.87381 -9.82287 0
    endloop
  endfacet
  facet normal -0.844325 -0.535831 0
    outer loop
      vertex -8.09017 -5.87785 0
      vertex -8.76307 -4.81754 1.8
      vertex -8.76307 -4.81754 0
    endloop
  endfacet
  facet normal -0.844325 -0.535831 0
    outer loop
      vertex -8.76307 -4.81754 1.8
      vertex -8.09017 -5.87785 0
      vertex -8.09017 -5.87785 1.8
    endloop
  endfacet
  facet normal -0.982287 -0.187384 0
    outer loop
      vertex -9.68583 -2.4869 0
      vertex -9.92115 -1.25333 1.8
      vertex -9.92115 -1.25333 0
    endloop
  endfacet
  facet normal -0.982287 -0.187384 0
    outer loop
      vertex -9.92115 -1.25333 1.8
      vertex -9.68583 -2.4869 0
      vertex -9.68583 -2.4869 1.8
    endloop
  endfacet
  facet normal -0.998027 -0.0627883 0
    outer loop
      vertex -9.92115 -1.25333 0
      vertex -10 0 1.8
      vertex -10 0 0
    endloop
  endfacet
  facet normal -0.998027 -0.0627883 0
    outer loop
      vertex -10 0 1.8
      vertex -9.92115 -1.25333 0
      vertex -9.92115 -1.25333 1.8
    endloop
  endfacet
  facet normal -0.684545 -0.728971 0
    outer loop
      vertex -7.28969 -6.84547 0
      vertex -6.37424 -7.70513 1.8
      vertex -7.28969 -6.84547 1.8
    endloop
  endfacet
  facet normal -0.684545 -0.728971 -0
    outer loop
      vertex -6.37424 -7.70513 1.8
      vertex -7.28969 -6.84547 0
      vertex -6.37424 -7.70513 0
    endloop
  endfacet
  facet normal -0.587788 -0.809015 0
    outer loop
      vertex -6.37424 -7.70513 0
      vertex -5.35827 -8.44328 1.8
      vertex -6.37424 -7.70513 1.8
    endloop
  endfacet
  facet normal -0.587788 -0.809015 -0
    outer loop
      vertex -5.35827 -8.44328 1.8
      vertex -6.37424 -7.70513 0
      vertex -5.35827 -8.44328 0
    endloop
  endfacet
  facet normal -0.368122 -0.929777 0
    outer loop
      vertex -4.25779 -9.04827 0
      vertex -3.09017 -9.51056 1.8
      vertex -4.25779 -9.04827 1.8
    endloop
  endfacet
  facet normal -0.368122 -0.929777 -0
    outer loop
      vertex -3.09017 -9.51056 1.8
      vertex -4.25779 -9.04827 0
      vertex -3.09017 -9.51056 0
    endloop
  endfacet
  facet normal -0.481751 -0.876308 0
    outer loop
      vertex -5.35827 -8.44328 0
      vertex -4.25779 -9.04827 1.8
      vertex -5.35827 -8.44328 1.8
    endloop
  endfacet
  facet normal -0.481751 -0.876308 -0
    outer loop
      vertex -4.25779 -9.04827 1.8
      vertex -5.35827 -8.44328 0
      vertex -4.25779 -9.04827 0
    endloop
  endfacet
  facet normal 0.998027 0.0627919 0
    outer loop
      vertex 11.35 0 6
      vertex 11.2605 1.42253 1.8
      vertex 11.2605 1.42253 6
    endloop
  endfacet
  facet normal 0.998027 0.0627919 0
    outer loop
      vertex 11.2605 1.42253 1.8
      vertex 11.35 0 6
      vertex 11.35 0 1.8
    endloop
  endfacet
  facet normal -0.998027 0.0627919 0
    outer loop
      vertex -11.35 0 1.8
      vertex -11.2605 1.42253 6
      vertex -11.2605 1.42253 1.8
    endloop
  endfacet
  facet normal -0.998027 0.0627919 0
    outer loop
      vertex -11.2605 1.42253 6
      vertex -11.35 0 1.8
      vertex -11.35 0 6
    endloop
  endfacet
  facet normal 0 1 -0
    outer loop
      vertex 0.712672 11.3276 1.8
      vertex -0.712672 11.3276 6
      vertex 0.712672 11.3276 6
    endloop
  endfacet
  facet normal 0 1 0
    outer loop
      vertex -0.712672 11.3276 6
      vertex 0.712672 11.3276 1.8
      vertex -0.712672 11.3276 1.8
    endloop
  endfacet
  facet normal 0 -1 0
    outer loop
      vertex -0.712672 -11.3276 1.8
      vertex 0.712672 -11.3276 6
      vertex -0.712672 -11.3276 6
    endloop
  endfacet
  facet normal 0 -1 -0
    outer loop
      vertex 0.712672 -11.3276 6
      vertex -0.712672 -11.3276 1.8
      vertex 0.712672 -11.3276 1.8
    endloop
  endfacet
  facet normal 0.684549 0.728967 -0
    outer loop
      vertex 8.27379 7.76961 1.8
      vertex 7.23476 8.74533 6
      vertex 8.27379 7.76961 6
    endloop
  endfacet
  facet normal 0.684549 0.728967 0
    outer loop
      vertex 7.23476 8.74533 6
      vertex 8.27379 7.76961 1.8
      vertex 7.23476 8.74533 1.8
    endloop
  endfacet
  facet normal -0.684549 0.728967 0
    outer loop
      vertex -7.23476 8.74533 1.8
      vertex -8.27379 7.76961 6
      vertex -7.23476 8.74533 6
    endloop
  endfacet
  facet normal -0.684549 0.728967 0
    outer loop
      vertex -8.27379 7.76961 6
      vertex -7.23476 8.74533 1.8
      vertex -8.27379 7.76961 1.8
    endloop
  endfacet
  facet normal -0.368122 0.929777 0
    outer loop
      vertex -3.50734 10.7945 1.8
      vertex -4.83259 10.2698 6
      vertex -3.50734 10.7945 6
    endloop
  endfacet
  facet normal -0.368122 0.929777 0
    outer loop
      vertex -4.83259 10.2698 6
      vertex -3.50734 10.7945 1.8
      vertex -4.83259 10.2698 1.8
    endloop
  endfacet
  facet normal 0.904817 0.425801 0
    outer loop
      vertex 10.553 4.17821 6
      vertex 9.94608 5.4679 1.8
      vertex 9.94608 5.4679 6
    endloop
  endfacet
  facet normal 0.904817 0.425801 0
    outer loop
      vertex 9.94608 5.4679 1.8
      vertex 10.553 4.17821 6
      vertex 10.553 4.17821 1.8
    endloop
  endfacet
  facet normal 0.982285 0.187393 0
    outer loop
      vertex 11.2605 1.42253 6
      vertex 10.9934 2.82263 1.8
      vertex 10.9934 2.82263 6
    endloop
  endfacet
  facet normal 0.982285 0.187393 0
    outer loop
      vertex 10.9934 2.82263 1.8
      vertex 11.2605 1.42253 6
      vertex 11.2605 1.42253 1.8
    endloop
  endfacet
  facet normal 0.844328 0.535827 0
    outer loop
      vertex 9.94608 5.4679 6
      vertex 9.18234 6.67136 1.8
      vertex 9.18234 6.67136 6
    endloop
  endfacet
  facet normal 0.844328 0.535827 0
    outer loop
      vertex 9.18234 6.67136 1.8
      vertex 9.94608 5.4679 6
      vertex 9.94608 5.4679 1.8
    endloop
  endfacet
  facet normal 0.368122 0.929777 -0
    outer loop
      vertex 4.83259 10.2698 1.8
      vertex 3.50734 10.7945 6
      vertex 4.83259 10.2698 6
    endloop
  endfacet
  facet normal 0.368122 0.929777 0
    outer loop
      vertex 3.50734 10.7945 6
      vertex 4.83259 10.2698 1.8
      vertex 3.50734 10.7945 1.8
    endloop
  endfacet
  facet normal 0.248711 0.968578 -0
    outer loop
      vertex 3.50734 10.7945 1.8
      vertex 2.12678 11.149 6
      vertex 3.50734 10.7945 6
    endloop
  endfacet
  facet normal 0.248711 0.968578 0
    outer loop
      vertex 2.12678 11.149 6
      vertex 3.50734 10.7945 1.8
      vertex 2.12678 11.149 1.8
    endloop
  endfacet
  facet normal 0.481761 0.876302 -0
    outer loop
      vertex 6.08163 9.58312 1.8
      vertex 4.83259 10.2698 6
      vertex 6.08163 9.58312 6
    endloop
  endfacet
  facet normal 0.481761 0.876302 0
    outer loop
      vertex 4.83259 10.2698 6
      vertex 6.08163 9.58312 1.8
      vertex 4.83259 10.2698 1.8
    endloop
  endfacet
  facet normal -0.904817 0.425801 0
    outer loop
      vertex -10.553 4.17821 1.8
      vertex -9.94608 5.4679 6
      vertex -9.94608 5.4679 1.8
    endloop
  endfacet
  facet normal -0.904817 0.425801 0
    outer loop
      vertex -9.94608 5.4679 6
      vertex -10.553 4.17821 1.8
      vertex -10.553 4.17821 6
    endloop
  endfacet
  facet normal -0.951068 0.308982 0
    outer loop
      vertex -10.9934 2.82263 1.8
      vertex -10.553 4.17821 6
      vertex -10.553 4.17821 1.8
    endloop
  endfacet
  facet normal -0.951068 0.308982 0
    outer loop
      vertex -10.553 4.17821 6
      vertex -10.9934 2.82263 1.8
      vertex -10.9934 2.82263 6
    endloop
  endfacet
  facet normal -0.125303 0.992118 0
    outer loop
      vertex -0.712672 11.3276 1.8
      vertex -2.12678 11.149 6
      vertex -0.712672 11.3276 6
    endloop
  endfacet
  facet normal -0.125303 0.992118 0
    outer loop
      vertex -2.12678 11.149 6
      vertex -0.712672 11.3276 1.8
      vertex -2.12678 11.149 1.8
    endloop
  endfacet
  facet normal 0.125303 -0.992118 0
    outer loop
      vertex 0.712672 -11.3276 1.8
      vertex 2.12678 -11.149 6
      vertex 0.712672 -11.3276 6
    endloop
  endfacet
  facet normal 0.125303 -0.992118 0
    outer loop
      vertex 2.12678 -11.149 6
      vertex 0.712672 -11.3276 1.8
      vertex 2.12678 -11.149 1.8
    endloop
  endfacet
  facet normal 0.368122 -0.929777 0
    outer loop
      vertex 3.50734 -10.7945 1.8
      vertex 4.83259 -10.2698 6
      vertex 3.50734 -10.7945 6
    endloop
  endfacet
  facet normal 0.368122 -0.929777 0
    outer loop
      vertex 4.83259 -10.2698 6
      vertex 3.50734 -10.7945 1.8
      vertex 4.83259 -10.2698 1.8
    endloop
  endfacet
  facet normal 0.951068 0.308982 0
    outer loop
      vertex 10.9934 2.82263 6
      vertex 10.553 4.17821 1.8
      vertex 10.553 4.17821 6
    endloop
  endfacet
  facet normal 0.951068 0.308982 0
    outer loop
      vertex 10.553 4.17821 1.8
      vertex 10.9934 2.82263 6
      vertex 10.9934 2.82263 1.8
    endloop
  endfacet
  facet normal 0.770514 0.637423 0
    outer loop
      vertex 9.18234 6.67136 6
      vertex 8.27379 7.76961 1.8
      vertex 8.27379 7.76961 6
    endloop
  endfacet
  facet normal 0.770514 0.637423 0
    outer loop
      vertex 8.27379 7.76961 1.8
      vertex 9.18234 6.67136 6
      vertex 9.18234 6.67136 1.8
    endloop
  endfacet
  facet normal 0.125303 0.992118 -0
    outer loop
      vertex 2.12678 11.149 1.8
      vertex 0.712672 11.3276 6
      vertex 2.12678 11.149 6
    endloop
  endfacet
  facet normal 0.125303 0.992118 0
    outer loop
      vertex 0.712672 11.3276 6
      vertex 2.12678 11.149 1.8
      vertex 0.712672 11.3276 1.8
    endloop
  endfacet
  facet normal 0.587782 0.80902 -0
    outer loop
      vertex 7.23476 8.74533 1.8
      vertex 6.08163 9.58312 6
      vertex 7.23476 8.74533 6
    endloop
  endfacet
  facet normal 0.587782 0.80902 0
    outer loop
      vertex 6.08163 9.58312 6
      vertex 7.23476 8.74533 1.8
      vertex 6.08163 9.58312 1.8
    endloop
  endfacet
  facet normal -0.844328 0.535827 0
    outer loop
      vertex -9.94608 5.4679 1.8
      vertex -9.18234 6.67136 6
      vertex -9.18234 6.67136 1.8
    endloop
  endfacet
  facet normal -0.844328 0.535827 0
    outer loop
      vertex -9.18234 6.67136 6
      vertex -9.94608 5.4679 1.8
      vertex -9.94608 5.4679 6
    endloop
  endfacet
  facet normal -0.770514 0.637423 0
    outer loop
      vertex -9.18234 6.67136 1.8
      vertex -8.27379 7.76961 6
      vertex -8.27379 7.76961 1.8
    endloop
  endfacet
  facet normal -0.770514 0.637423 0
    outer loop
      vertex -8.27379 7.76961 6
      vertex -9.18234 6.67136 1.8
      vertex -9.18234 6.67136 6
    endloop
  endfacet
  facet normal -0.982285 0.187393 0
    outer loop
      vertex -11.2605 1.42253 1.8
      vertex -10.9934 2.82263 6
      vertex -10.9934 2.82263 1.8
    endloop
  endfacet
  facet normal -0.982285 0.187393 0
    outer loop
      vertex -10.9934 2.82263 6
      vertex -11.2605 1.42253 1.8
      vertex -11.2605 1.42253 6
    endloop
  endfacet
  facet normal -0.481761 0.876302 0
    outer loop
      vertex -4.83259 10.2698 1.8
      vertex -6.08163 9.58312 6
      vertex -4.83259 10.2698 6
    endloop
  endfacet
  facet normal -0.481761 0.876302 0
    outer loop
      vertex -6.08163 9.58312 6
      vertex -4.83259 10.2698 1.8
      vertex -6.08163 9.58312 1.8
    endloop
  endfacet
  facet normal -0.587782 0.80902 0
    outer loop
      vertex -6.08163 9.58312 1.8
      vertex -7.23476 8.74533 6
      vertex -6.08163 9.58312 6
    endloop
  endfacet
  facet normal -0.587782 0.80902 0
    outer loop
      vertex -7.23476 8.74533 6
      vertex -6.08163 9.58312 1.8
      vertex -7.23476 8.74533 1.8
    endloop
  endfacet
  facet normal -0.248711 0.968578 0
    outer loop
      vertex -2.12678 11.149 1.8
      vertex -3.50734 10.7945 6
      vertex -2.12678 11.149 6
    endloop
  endfacet
  facet normal -0.248711 0.968578 0
    outer loop
      vertex -3.50734 10.7945 6
      vertex -2.12678 11.149 1.8
      vertex -3.50734 10.7945 1.8
    endloop
  endfacet
  facet normal 0.481761 -0.876302 0
    outer loop
      vertex 4.83259 -10.2698 1.8
      vertex 6.08163 -9.58312 6
      vertex 4.83259 -10.2698 6
    endloop
  endfacet
  facet normal 0.481761 -0.876302 0
    outer loop
      vertex 6.08163 -9.58312 6
      vertex 4.83259 -10.2698 1.8
      vertex 6.08163 -9.58312 1.8
    endloop
  endfacet
  facet normal 0.684549 -0.728967 0
    outer loop
      vertex 7.23476 -8.74533 1.8
      vertex 8.27379 -7.76961 6
      vertex 7.23476 -8.74533 6
    endloop
  endfacet
  facet normal 0.684549 -0.728967 0
    outer loop
      vertex 8.27379 -7.76961 6
      vertex 7.23476 -8.74533 1.8
      vertex 8.27379 -7.76961 1.8
    endloop
  endfacet
  facet normal 0.982285 -0.187393 0
    outer loop
      vertex 10.9934 -2.82263 6
      vertex 11.2605 -1.42253 1.8
      vertex 11.2605 -1.42253 6
    endloop
  endfacet
  facet normal 0.982285 -0.187393 0
    outer loop
      vertex 11.2605 -1.42253 1.8
      vertex 10.9934 -2.82263 6
      vertex 10.9934 -2.82263 1.8
    endloop
  endfacet
  facet normal 0.770514 -0.637423 0
    outer loop
      vertex 8.27379 -7.76961 6
      vertex 9.18234 -6.67136 1.8
      vertex 9.18234 -6.67136 6
    endloop
  endfacet
  facet normal 0.770514 -0.637423 0
    outer loop
      vertex 9.18234 -6.67136 1.8
      vertex 8.27379 -7.76961 6
      vertex 8.27379 -7.76961 1.8
    endloop
  endfacet
  facet normal 0.904817 -0.425801 0
    outer loop
      vertex 9.94608 -5.4679 6
      vertex 10.553 -4.17821 1.8
      vertex 10.553 -4.17821 6
    endloop
  endfacet
  facet normal 0.904817 -0.425801 0
    outer loop
      vertex 10.553 -4.17821 1.8
      vertex 9.94608 -5.4679 6
      vertex 9.94608 -5.4679 1.8
    endloop
  endfacet
  facet normal 0.998027 -0.0627919 0
    outer loop
      vertex 11.2605 -1.42253 6
      vertex 11.35 0 1.8
      vertex 11.35 0 6
    endloop
  endfacet
  facet normal 0.998027 -0.0627919 0
    outer loop
      vertex 11.35 0 1.8
      vertex 11.2605 -1.42253 6
      vertex 11.2605 -1.42253 1.8
    endloop
  endfacet
  facet normal -0.770514 -0.637423 0
    outer loop
      vertex -8.27379 -7.76961 1.8
      vertex -9.18234 -6.67136 6
      vertex -9.18234 -6.67136 1.8
    endloop
  endfacet
  facet normal -0.770514 -0.637423 0
    outer loop
      vertex -9.18234 -6.67136 6
      vertex -8.27379 -7.76961 1.8
      vertex -8.27379 -7.76961 6
    endloop
  endfacet
  facet normal -0.844328 -0.535827 0
    outer loop
      vertex -9.18234 -6.67136 1.8
      vertex -9.94608 -5.4679 6
      vertex -9.94608 -5.4679 1.8
    endloop
  endfacet
  facet normal -0.844328 -0.535827 0
    outer loop
      vertex -9.94608 -5.4679 6
      vertex -9.18234 -6.67136 1.8
      vertex -9.18234 -6.67136 6
    endloop
  endfacet
  facet normal -0.951068 -0.308982 0
    outer loop
      vertex -10.553 -4.17821 1.8
      vertex -10.9934 -2.82263 6
      vertex -10.9934 -2.82263 1.8
    endloop
  endfacet
  facet normal -0.951068 -0.308982 0
    outer loop
      vertex -10.9934 -2.82263 6
      vertex -10.553 -4.17821 1.8
      vertex -10.553 -4.17821 6
    endloop
  endfacet
  facet normal 0.248711 -0.968578 0
    outer loop
      vertex 2.12678 -11.149 1.8
      vertex 3.50734 -10.7945 6
      vertex 2.12678 -11.149 6
    endloop
  endfacet
  facet normal 0.248711 -0.968578 0
    outer loop
      vertex 3.50734 -10.7945 6
      vertex 2.12678 -11.149 1.8
      vertex 3.50734 -10.7945 1.8
    endloop
  endfacet
  facet normal 0.844328 -0.535827 0
    outer loop
      vertex 9.18234 -6.67136 6
      vertex 9.94608 -5.4679 1.8
      vertex 9.94608 -5.4679 6
    endloop
  endfacet
  facet normal 0.844328 -0.535827 0
    outer loop
      vertex 9.94608 -5.4679 1.8
      vertex 9.18234 -6.67136 6
      vertex 9.18234 -6.67136 1.8
    endloop
  endfacet
  facet normal 0.587782 -0.80902 0
    outer loop
      vertex 6.08163 -9.58312 1.8
      vertex 7.23476 -8.74533 6
      vertex 6.08163 -9.58312 6
    endloop
  endfacet
  facet normal 0.587782 -0.80902 0
    outer loop
      vertex 7.23476 -8.74533 6
      vertex 6.08163 -9.58312 1.8
      vertex 7.23476 -8.74533 1.8
    endloop
  endfacet
  facet normal 0.951068 -0.308982 0
    outer loop
      vertex 10.553 -4.17821 6
      vertex 10.9934 -2.82263 1.8
      vertex 10.9934 -2.82263 6
    endloop
  endfacet
  facet normal 0.951068 -0.308982 0
    outer loop
      vertex 10.9934 -2.82263 1.8
      vertex 10.553 -4.17821 6
      vertex 10.553 -4.17821 1.8
    endloop
  endfacet
  facet normal -0.125303 -0.992118 0
    outer loop
      vertex -2.12678 -11.149 1.8
      vertex -0.712672 -11.3276 6
      vertex -2.12678 -11.149 6
    endloop
  endfacet
  facet normal -0.125303 -0.992118 -0
    outer loop
      vertex -0.712672 -11.3276 6
      vertex -2.12678 -11.149 1.8
      vertex -0.712672 -11.3276 1.8
    endloop
  endfacet
  facet normal -0.368122 -0.929777 0
    outer loop
      vertex -4.83259 -10.2698 1.8
      vertex -3.50734 -10.7945 6
      vertex -4.83259 -10.2698 6
    endloop
  endfacet
  facet normal -0.368122 -0.929777 -0
    outer loop
      vertex -3.50734 -10.7945 6
      vertex -4.83259 -10.2698 1.8
      vertex -3.50734 -10.7945 1.8
    endloop
  endfacet
  facet normal -0.248711 -0.968578 0
    outer loop
      vertex -3.50734 -10.7945 1.8
      vertex -2.12678 -11.149 6
      vertex -3.50734 -10.7945 6
    endloop
  endfacet
  facet normal -0.248711 -0.968578 -0
    outer loop
      vertex -2.12678 -11.149 6
      vertex -3.50734 -10.7945 1.8
      vertex -2.12678 -11.149 1.8
    endloop
  endfacet
  facet normal -0.684549 -0.728967 0
    outer loop
      vertex -8.27379 -7.76961 1.8
      vertex -7.23476 -8.74533 6
      vertex -8.27379 -7.76961 6
    endloop
  endfacet
  facet normal -0.684549 -0.728967 -0
    outer loop
      vertex -7.23476 -8.74533 6
      vertex -8.27379 -7.76961 1.8
      vertex -7.23476 -8.74533 1.8
    endloop
  endfacet
  facet normal -0.904817 -0.425801 0
    outer loop
      vertex -9.94608 -5.4679 1.8
      vertex -10.553 -4.17821 6
      vertex -10.553 -4.17821 1.8
    endloop
  endfacet
  facet normal -0.904817 -0.425801 0
    outer loop
      vertex -10.553 -4.17821 6
      vertex -9.94608 -5.4679 1.8
      vertex -9.94608 -5.4679 6
    endloop
  endfacet
  facet normal -0.982285 -0.187393 0
    outer loop
      vertex -10.9934 -2.82263 1.8
      vertex -11.2605 -1.42253 6
      vertex -11.2605 -1.42253 1.8
    endloop
  endfacet
  facet normal -0.982285 -0.187393 0
    outer loop
      vertex -11.2605 -1.42253 6
      vertex -10.9934 -2.82263 1.8
      vertex -10.9934 -2.82263 6
    endloop
  endfacet
  facet normal -0.998027 -0.0627919 0
    outer loop
      vertex -11.2605 -1.42253 1.8
      vertex -11.35 0 6
      vertex -11.35 0 1.8
    endloop
  endfacet
  facet normal -0.998027 -0.0627919 0
    outer loop
      vertex -11.35 0 6
      vertex -11.2605 -1.42253 1.8
      vertex -11.2605 -1.42253 6
    endloop
  endfacet
  facet normal -0.481761 -0.876302 0
    outer loop
      vertex -6.08163 -9.58312 1.8
      vertex -4.83259 -10.2698 6
      vertex -6.08163 -9.58312 6
    endloop
  endfacet
  facet normal -0.481761 -0.876302 -0
    outer loop
      vertex -4.83259 -10.2698 6
      vertex -6.08163 -9.58312 1.8
      vertex -4.83259 -10.2698 1.8
    endloop
  endfacet
  facet normal -0.587782 -0.80902 0
    outer loop
      vertex -7.23476 -8.74533 1.8
      vertex -6.08163 -9.58312 6
      vertex -7.23476 -8.74533 6
    endloop
  endfacet
  facet normal -0.587782 -0.80902 -0
    outer loop
      vertex -6.08163 -9.58312 6
      vertex -7.23476 -8.74533 1.8
      vertex -6.08163 -9.58312 1.8
    endloop
  endfacet
  facet normal -0.904836 -0.42576 0
    outer loop
      vertex 1.02275 0.404937 0
      vertex 0.963937 0.529928 6
      vertex 0.963937 0.529928 0
    endloop
  endfacet
  facet normal -0.904836 -0.42576 0
    outer loop
      vertex 0.963937 0.529928 6
      vertex 1.02275 0.404937 0
      vertex 1.02275 0.404937 6
    endloop
  endfacet
  facet normal -0.844329 -0.535824 0
    outer loop
      vertex 0.963937 0.529928 0
      vertex 0.889918 0.646564 6
      vertex 0.889918 0.646564 0
    endloop
  endfacet
  facet normal -0.844329 -0.535824 0
    outer loop
      vertex 0.889918 0.646564 6
      vertex 0.963937 0.529928 0
      vertex 0.963937 0.529928 6
    endloop
  endfacet
  facet normal -0.368115 -0.92978 0
    outer loop
      vertex 0.339918 1.04616 0
      vertex 0.468357 0.995309 6
      vertex 0.339918 1.04616 6
    endloop
  endfacet
  facet normal -0.368115 -0.92978 -0
    outer loop
      vertex 0.468357 0.995309 6
      vertex 0.339918 1.04616 0
      vertex 0.468357 0.995309 0
    endloop
  endfacet
  facet normal 0.368115 -0.92978 0
    outer loop
      vertex -0.468357 0.995309 0
      vertex -0.339918 1.04616 6
      vertex -0.468357 0.995309 6
    endloop
  endfacet
  facet normal 0.368115 -0.92978 0
    outer loop
      vertex -0.339918 1.04616 6
      vertex -0.468357 0.995309 0
      vertex -0.339918 1.04616 0
    endloop
  endfacet
  facet normal 0.904836 -0.42576 0
    outer loop
      vertex -1.02275 0.404937 6
      vertex -0.963937 0.529928 0
      vertex -0.963937 0.529928 6
    endloop
  endfacet
  facet normal 0.904836 -0.42576 0
    outer loop
      vertex -0.963937 0.529928 0
      vertex -1.02275 0.404937 6
      vertex -1.02275 0.404937 0
    endloop
  endfacet
  facet normal -0.125309 -0.992118 0
    outer loop
      vertex 0.0690689 1.09783 0
      vertex 0.206119 1.08052 6
      vertex 0.0690689 1.09783 6
    endloop
  endfacet
  facet normal -0.125309 -0.992118 -0
    outer loop
      vertex 0.206119 1.08052 6
      vertex 0.0690689 1.09783 0
      vertex 0.206119 1.08052 0
    endloop
  endfacet
  facet normal -0.587789 -0.809014 0
    outer loop
      vertex 0.589409 0.928761 0
      vertex 0.701166 0.847564 6
      vertex 0.589409 0.928761 6
    endloop
  endfacet
  facet normal -0.587789 -0.809014 -0
    outer loop
      vertex 0.701166 0.847564 6
      vertex 0.589409 0.928761 0
      vertex 0.701166 0.847564 0
    endloop
  endfacet
  facet normal 0.98228 -0.187417 0
    outer loop
      vertex -1.09133 0.137866 6
      vertex -1.06544 0.273559 0
      vertex -1.06544 0.273559 6
    endloop
  endfacet
  facet normal 0.98228 -0.187417 0
    outer loop
      vertex -1.06544 0.273559 0
      vertex -1.09133 0.137866 6
      vertex -1.09133 0.137866 0
    endloop
  endfacet
  facet normal 0.770511 -0.637427 0
    outer loop
      vertex -0.889918 0.646564 6
      vertex -0.801865 0.753001 0
      vertex -0.801865 0.753001 6
    endloop
  endfacet
  facet normal 0.770511 -0.637427 0
    outer loop
      vertex -0.801865 0.753001 0
      vertex -0.889918 0.646564 6
      vertex -0.889918 0.646564 0
    endloop
  endfacet
  facet normal 0.481749 -0.876309 0
    outer loop
      vertex -0.589409 0.928761 0
      vertex -0.468357 0.995309 6
      vertex -0.589409 0.928761 6
    endloop
  endfacet
  facet normal 0.481749 -0.876309 0
    outer loop
      vertex -0.468357 0.995309 6
      vertex -0.589409 0.928761 0
      vertex -0.468357 0.995309 0
    endloop
  endfacet
  facet normal 0.125309 -0.992118 0
    outer loop
      vertex -0.206119 1.08052 0
      vertex -0.0690689 1.09783 6
      vertex -0.206119 1.08052 6
    endloop
  endfacet
  facet normal 0.125309 -0.992118 0
    outer loop
      vertex -0.0690689 1.09783 6
      vertex -0.206119 1.08052 0
      vertex -0.0690689 1.09783 0
    endloop
  endfacet
  facet normal -0.951051 0.309035 0
    outer loop
      vertex 1.02275 -0.404937 0
      vertex 1.06544 -0.273559 6
      vertex 1.06544 -0.273559 0
    endloop
  endfacet
  facet normal -0.951051 0.309035 0
    outer loop
      vertex 1.06544 -0.273559 6
      vertex 1.02275 -0.404937 0
      vertex 1.02275 -0.404937 6
    endloop
  endfacet
  facet normal -0.587789 0.809014 0
    outer loop
      vertex 0.701166 -0.847564 0
      vertex 0.589409 -0.928761 6
      vertex 0.701166 -0.847564 6
    endloop
  endfacet
  facet normal -0.587789 0.809014 0
    outer loop
      vertex 0.589409 -0.928761 6
      vertex 0.701166 -0.847564 0
      vertex 0.589409 -0.928761 0
    endloop
  endfacet
  facet normal -0.98228 -0.187417 0
    outer loop
      vertex 1.09133 0.137866 0
      vertex 1.06544 0.273559 6
      vertex 1.06544 0.273559 0
    endloop
  endfacet
  facet normal -0.98228 -0.187417 0
    outer loop
      vertex 1.06544 0.273559 6
      vertex 1.09133 0.137866 0
      vertex 1.09133 0.137866 6
    endloop
  endfacet
  facet normal -0.951051 -0.309035 0
    outer loop
      vertex 1.06544 0.273559 0
      vertex 1.02275 0.404937 6
      vertex 1.02275 0.404937 0
    endloop
  endfacet
  facet normal -0.951051 -0.309035 0
    outer loop
      vertex 1.02275 0.404937 6
      vertex 1.06544 0.273559 0
      vertex 1.06544 0.273559 6
    endloop
  endfacet
  facet normal -0.684548 -0.728967 0
    outer loop
      vertex 0.701166 0.847564 0
      vertex 0.801865 0.753001 6
      vertex 0.701166 0.847564 6
    endloop
  endfacet
  facet normal -0.684548 -0.728967 -0
    outer loop
      vertex 0.801865 0.753001 6
      vertex 0.701166 0.847564 0
      vertex 0.801865 0.753001 0
    endloop
  endfacet
  facet normal 0 -1 0
    outer loop
      vertex -0.0690689 1.09783 0
      vertex 0.0690689 1.09783 6
      vertex -0.0690689 1.09783 6
    endloop
  endfacet
  facet normal 0 -1 -0
    outer loop
      vertex 0.0690689 1.09783 6
      vertex -0.0690689 1.09783 0
      vertex 0.0690689 1.09783 0
    endloop
  endfacet
  facet normal -0.248732 -0.968572 0
    outer loop
      vertex 0.206119 1.08052 0
      vertex 0.339918 1.04616 6
      vertex 0.206119 1.08052 6
    endloop
  endfacet
  facet normal -0.248732 -0.968572 -0
    outer loop
      vertex 0.339918 1.04616 6
      vertex 0.206119 1.08052 0
      vertex 0.339918 1.04616 0
    endloop
  endfacet
  facet normal -0.481749 -0.876309 0
    outer loop
      vertex 0.468357 0.995309 0
      vertex 0.589409 0.928761 6
      vertex 0.468357 0.995309 6
    endloop
  endfacet
  facet normal -0.481749 -0.876309 -0
    outer loop
      vertex 0.589409 0.928761 6
      vertex 0.468357 0.995309 0
      vertex 0.589409 0.928761 0
    endloop
  endfacet
  facet normal 0.998028 -0.0627632 0
    outer loop
      vertex -1.1 0 6
      vertex -1.09133 0.137866 0
      vertex -1.09133 0.137866 6
    endloop
  endfacet
  facet normal 0.998028 -0.0627632 0
    outer loop
      vertex -1.09133 0.137866 0
      vertex -1.1 0 6
      vertex -1.1 0 0
    endloop
  endfacet
  facet normal 0.951051 -0.309035 0
    outer loop
      vertex -1.06544 0.273559 6
      vertex -1.02275 0.404937 0
      vertex -1.02275 0.404937 6
    endloop
  endfacet
  facet normal 0.951051 -0.309035 0
    outer loop
      vertex -1.02275 0.404937 0
      vertex -1.06544 0.273559 6
      vertex -1.06544 0.273559 0
    endloop
  endfacet
  facet normal 0.844329 -0.535824 0
    outer loop
      vertex -0.963937 0.529928 6
      vertex -0.889918 0.646564 0
      vertex -0.889918 0.646564 6
    endloop
  endfacet
  facet normal 0.844329 -0.535824 0
    outer loop
      vertex -0.889918 0.646564 0
      vertex -0.963937 0.529928 6
      vertex -0.963937 0.529928 0
    endloop
  endfacet
  facet normal 0.248732 -0.968572 0
    outer loop
      vertex -0.339918 1.04616 0
      vertex -0.206119 1.08052 6
      vertex -0.339918 1.04616 6
    endloop
  endfacet
  facet normal 0.248732 -0.968572 0
    outer loop
      vertex -0.206119 1.08052 6
      vertex -0.339918 1.04616 0
      vertex -0.206119 1.08052 0
    endloop
  endfacet
  facet normal 0.587789 -0.809014 0
    outer loop
      vertex -0.701166 0.847564 0
      vertex -0.589409 0.928761 6
      vertex -0.701166 0.847564 6
    endloop
  endfacet
  facet normal 0.587789 -0.809014 0
    outer loop
      vertex -0.589409 0.928761 6
      vertex -0.701166 0.847564 0
      vertex -0.589409 0.928761 0
    endloop
  endfacet
  facet normal 0.684548 -0.728967 0
    outer loop
      vertex -0.801865 0.753001 0
      vertex -0.701166 0.847564 6
      vertex -0.801865 0.753001 6
    endloop
  endfacet
  facet normal 0.684548 -0.728967 0
    outer loop
      vertex -0.701166 0.847564 6
      vertex -0.801865 0.753001 0
      vertex -0.701166 0.847564 0
    endloop
  endfacet
  facet normal -0.998028 -0.0627632 0
    outer loop
      vertex 1.1 0 0
      vertex 1.09133 0.137866 6
      vertex 1.09133 0.137866 0
    endloop
  endfacet
  facet normal -0.998028 -0.0627632 0
    outer loop
      vertex 1.09133 0.137866 6
      vertex 1.1 0 0
      vertex 1.1 0 6
    endloop
  endfacet
  facet normal -0.998028 0.0627632 0
    outer loop
      vertex 1.09133 -0.137866 0
      vertex 1.1 0 6
      vertex 1.1 0 0
    endloop
  endfacet
  facet normal -0.998028 0.0627632 0
    outer loop
      vertex 1.1 0 6
      vertex 1.09133 -0.137866 0
      vertex 1.09133 -0.137866 6
    endloop
  endfacet
  facet normal -0.98228 0.187417 0
    outer loop
      vertex 1.06544 -0.273559 0
      vertex 1.09133 -0.137866 6
      vertex 1.09133 -0.137866 0
    endloop
  endfacet
  facet normal -0.98228 0.187417 0
    outer loop
      vertex 1.09133 -0.137866 6
      vertex 1.06544 -0.273559 0
      vertex 1.06544 -0.273559 6
    endloop
  endfacet
  facet normal -0.844329 0.535824 0
    outer loop
      vertex 0.889918 -0.646564 0
      vertex 0.963937 -0.529928 6
      vertex 0.963937 -0.529928 0
    endloop
  endfacet
  facet normal -0.844329 0.535824 0
    outer loop
      vertex 0.963937 -0.529928 6
      vertex 0.889918 -0.646564 0
      vertex 0.889918 -0.646564 6
    endloop
  endfacet
  facet normal 0.904836 0.42576 0
    outer loop
      vertex -0.963937 -0.529928 6
      vertex -1.02275 -0.404937 0
      vertex -1.02275 -0.404937 6
    endloop
  endfacet
  facet normal 0.904836 0.42576 0
    outer loop
      vertex -1.02275 -0.404937 0
      vertex -0.963937 -0.529928 6
      vertex -0.963937 -0.529928 0
    endloop
  endfacet
  facet normal -0.125309 0.992118 0
    outer loop
      vertex 0.206119 -1.08052 0
      vertex 0.0690689 -1.09783 6
      vertex 0.206119 -1.08052 6
    endloop
  endfacet
  facet normal -0.125309 0.992118 0
    outer loop
      vertex 0.0690689 -1.09783 6
      vertex 0.206119 -1.08052 0
      vertex 0.0690689 -1.09783 0
    endloop
  endfacet
  facet normal -0.684548 0.728967 0
    outer loop
      vertex 0.801865 -0.753001 0
      vertex 0.701166 -0.847564 6
      vertex 0.801865 -0.753001 6
    endloop
  endfacet
  facet normal -0.684548 0.728967 0
    outer loop
      vertex 0.701166 -0.847564 6
      vertex 0.801865 -0.753001 0
      vertex 0.701166 -0.847564 0
    endloop
  endfacet
  facet normal -0.770511 -0.637427 0
    outer loop
      vertex 0.889918 0.646564 0
      vertex 0.801865 0.753001 6
      vertex 0.801865 0.753001 0
    endloop
  endfacet
  facet normal -0.770511 -0.637427 0
    outer loop
      vertex 0.801865 0.753001 6
      vertex 0.889918 0.646564 0
      vertex 0.889918 0.646564 6
    endloop
  endfacet
  facet normal -0.904836 0.42576 0
    outer loop
      vertex 0.963937 -0.529928 0
      vertex 1.02275 -0.404937 6
      vertex 1.02275 -0.404937 0
    endloop
  endfacet
  facet normal -0.904836 0.42576 0
    outer loop
      vertex 1.02275 -0.404937 6
      vertex 0.963937 -0.529928 0
      vertex 0.963937 -0.529928 6
    endloop
  endfacet
  facet normal 0.248732 0.968572 -0
    outer loop
      vertex -0.206119 -1.08052 0
      vertex -0.339918 -1.04616 6
      vertex -0.206119 -1.08052 6
    endloop
  endfacet
  facet normal 0.248732 0.968572 0
    outer loop
      vertex -0.339918 -1.04616 6
      vertex -0.206119 -1.08052 0
      vertex -0.339918 -1.04616 0
    endloop
  endfacet
  facet normal 0.125309 0.992118 -0
    outer loop
      vertex -0.0690689 -1.09783 0
      vertex -0.206119 -1.08052 6
      vertex -0.0690689 -1.09783 6
    endloop
  endfacet
  facet normal 0.125309 0.992118 0
    outer loop
      vertex -0.206119 -1.08052 6
      vertex -0.0690689 -1.09783 0
      vertex -0.206119 -1.08052 0
    endloop
  endfacet
  facet normal 0.998028 0.0627632 0
    outer loop
      vertex -1.09133 -0.137866 6
      vertex -1.1 0 0
      vertex -1.1 0 6
    endloop
  endfacet
  facet normal 0.998028 0.0627632 0
    outer loop
      vertex -1.1 0 0
      vertex -1.09133 -0.137866 6
      vertex -1.09133 -0.137866 0
    endloop
  endfacet
  facet normal 0.951051 0.309035 0
    outer loop
      vertex -1.02275 -0.404937 6
      vertex -1.06544 -0.273559 0
      vertex -1.06544 -0.273559 6
    endloop
  endfacet
  facet normal 0.951051 0.309035 0
    outer loop
      vertex -1.06544 -0.273559 0
      vertex -1.02275 -0.404937 6
      vertex -1.02275 -0.404937 0
    endloop
  endfacet
  facet normal -0.368115 0.92978 0
    outer loop
      vertex 0.468357 -0.995309 0
      vertex 0.339918 -1.04616 6
      vertex 0.468357 -0.995309 6
    endloop
  endfacet
  facet normal -0.368115 0.92978 0
    outer loop
      vertex 0.339918 -1.04616 6
      vertex 0.468357 -0.995309 0
      vertex 0.339918 -1.04616 0
    endloop
  endfacet
  facet normal -0.248732 0.968572 0
    outer loop
      vertex 0.339918 -1.04616 0
      vertex 0.206119 -1.08052 6
      vertex 0.339918 -1.04616 6
    endloop
  endfacet
  facet normal -0.248732 0.968572 0
    outer loop
      vertex 0.206119 -1.08052 6
      vertex 0.339918 -1.04616 0
      vertex 0.206119 -1.08052 0
    endloop
  endfacet
  facet normal 0.587789 0.809014 -0
    outer loop
      vertex -0.589409 -0.928761 0
      vertex -0.701166 -0.847564 6
      vertex -0.589409 -0.928761 6
    endloop
  endfacet
  facet normal 0.587789 0.809014 0
    outer loop
      vertex -0.701166 -0.847564 6
      vertex -0.589409 -0.928761 0
      vertex -0.701166 -0.847564 0
    endloop
  endfacet
  facet normal 0.368115 0.92978 -0
    outer loop
      vertex -0.339918 -1.04616 0
      vertex -0.468357 -0.995309 6
      vertex -0.339918 -1.04616 6
    endloop
  endfacet
  facet normal 0.368115 0.92978 0
    outer loop
      vertex -0.468357 -0.995309 6
      vertex -0.339918 -1.04616 0
      vertex -0.468357 -0.995309 0
    endloop
  endfacet
  facet normal 0 1 -0
    outer loop
      vertex 0.0690689 -1.09783 0
      vertex -0.0690689 -1.09783 6
      vertex 0.0690689 -1.09783 6
    endloop
  endfacet
  facet normal 0 1 0
    outer loop
      vertex -0.0690689 -1.09783 6
      vertex 0.0690689 -1.09783 0
      vertex -0.0690689 -1.09783 0
    endloop
  endfacet
  facet normal 0.770511 0.637427 0
    outer loop
      vertex -0.801865 -0.753001 6
      vertex -0.889918 -0.646564 0
      vertex -0.889918 -0.646564 6
    endloop
  endfacet
  facet normal 0.770511 0.637427 0
    outer loop
      vertex -0.889918 -0.646564 0
      vertex -0.801865 -0.753001 6
      vertex -0.801865 -0.753001 0
    endloop
  endfacet
  facet normal 0.684548 0.728967 -0
    outer loop
      vertex -0.701166 -0.847564 0
      vertex -0.801865 -0.753001 6
      vertex -0.701166 -0.847564 6
    endloop
  endfacet
  facet normal 0.684548 0.728967 0
    outer loop
      vertex -0.801865 -0.753001 6
      vertex -0.701166 -0.847564 0
      vertex -0.801865 -0.753001 0
    endloop
  endfacet
  facet normal 0.98228 0.187417 0
    outer loop
      vertex -1.06544 -0.273559 6
      vertex -1.09133 -0.137866 0
      vertex -1.09133 -0.137866 6
    endloop
  endfacet
  facet normal 0.98228 0.187417 0
    outer loop
      vertex -1.09133 -0.137866 0
      vertex -1.06544 -0.273559 6
      vertex -1.06544 -0.273559 0
    endloop
  endfacet
  facet normal -0.481749 0.876309 0
    outer loop
      vertex 0.589409 -0.928761 0
      vertex 0.468357 -0.995309 6
      vertex 0.589409 -0.928761 6
    endloop
  endfacet
  facet normal -0.481749 0.876309 0
    outer loop
      vertex 0.468357 -0.995309 6
      vertex 0.589409 -0.928761 0
      vertex 0.468357 -0.995309 0
    endloop
  endfacet
  facet normal -0.770511 0.637427 0
    outer loop
      vertex 0.801865 -0.753001 0
      vertex 0.889918 -0.646564 6
      vertex 0.889918 -0.646564 0
    endloop
  endfacet
  facet normal -0.770511 0.637427 0
    outer loop
      vertex 0.889918 -0.646564 6
      vertex 0.801865 -0.753001 0
      vertex 0.801865 -0.753001 6
    endloop
  endfacet
  facet normal 0.481749 0.876309 -0
    outer loop
      vertex -0.468357 -0.995309 0
      vertex -0.589409 -0.928761 6
      vertex -0.468357 -0.995309 6
    endloop
  endfacet
  facet normal 0.481749 0.876309 0
    outer loop
      vertex -0.589409 -0.928761 6
      vertex -0.468357 -0.995309 0
      vertex -0.589409 -0.928761 0
    endloop
  endfacet
  facet normal 0.844329 0.535824 0
    outer loop
      vertex -0.889918 -0.646564 6
      vertex -0.963937 -0.529928 0
      vertex -0.963937 -0.529928 6
    endloop
  endfacet
  facet normal 0.844329 0.535824 0
    outer loop
      vertex -0.963937 -0.529928 0
      vertex -0.889918 -0.646564 6
      vertex -0.889918 -0.646564 0
    endloop
  endfacet
  facet normal 0 0 -1
    outer loop
      vertex 1.1 0 0
      vertex 10 0 0
      vertex 9.92115 -1.25333 0
    endloop
  endfacet
  facet normal 0 0 -1
    outer loop
      vertex 1.09133 -0.137866 0
      vertex 9.92115 -1.25333 0
      vertex 9.68583 -2.4869 0
    endloop
  endfacet
  facet normal 0 0 -1
    outer loop
      vertex 10 0 0
      vertex 1.1 0 0
      vertex 9.92115 1.25333 0
    endloop
  endfacet
  facet normal 0 0 -1
    outer loop
      vertex 1.06544 -0.273559 0
      vertex 9.68583 -2.4869 0
      vertex 9.29776 -3.68124 0
    endloop
  endfacet
  facet normal 0 0 -1
    outer loop
      vertex 1.09133 0.137866 0
      vertex 9.92115 1.25333 0
      vertex 1.1 0 0
    endloop
  endfacet
  facet normal 0 0 -1
    outer loop
      vertex 1.02275 -0.404937 0
      vertex 9.29776 -3.68124 0
      vertex 8.76307 -4.81754 0
    endloop
  endfacet
  facet normal -0 0 -1
    outer loop
      vertex 9.92115 1.25333 0
      vertex 1.09133 0.137866 0
      vertex 9.68583 2.4869 0
    endloop
  endfacet
  facet normal 0 0 -1
    outer loop
      vertex 0.963937 -0.529928 0
      vertex 8.76307 -4.81754 0
      vertex 8.09017 -5.87785 0
    endloop
  endfacet
  facet normal 0 0 -1
    outer loop
      vertex 1.06544 0.273559 0
      vertex 9.68583 2.4869 0
      vertex 1.09133 0.137866 0
    endloop
  endfacet
  facet normal 0 0 -1
    outer loop
      vertex 0.889918 -0.646564 0
      vertex 8.09017 -5.87785 0
      vertex 7.28969 -6.84547 0
    endloop
  endfacet
  facet normal -0 0 -1
    outer loop
      vertex 9.68583 2.4869 0
      vertex 1.06544 0.273559 0
      vertex 9.29776 3.68124 0
    endloop
  endfacet
  facet normal 0 0 -1
    outer loop
      vertex 0.801865 -0.753001 0
      vertex 7.28969 -6.84547 0
      vertex 6.37424 -7.70513 0
    endloop
  endfacet
  facet normal 0 0 -1
    outer loop
      vertex 1.02275 0.404937 0
      vertex 9.29776 3.68124 0
      vertex 1.06544 0.273559 0
    endloop
  endfacet
  facet normal 0 0 -1
    outer loop
      vertex 0.701166 -0.847564 0
      vertex 6.37424 -7.70513 0
      vertex 5.35827 -8.44328 0
    endloop
  endfacet
  facet normal -0 0 -1
    outer loop
      vertex 9.29776 3.68124 0
      vertex 1.02275 0.404937 0
      vertex 8.76307 4.81754 0
    endloop
  endfacet
  facet normal 0 0 -1
    outer loop
      vertex 0.589409 -0.928761 0
      vertex 5.35827 -8.44328 0
      vertex 4.25779 -9.04827 0
    endloop
  endfacet
  facet normal 0 0 -1
    outer loop
      vertex 0.963937 0.529928 0
      vertex 8.76307 4.81754 0
      vertex 1.02275 0.404937 0
    endloop
  endfacet
  facet normal 0 0 -1
    outer loop
      vertex 0.468357 -0.995309 0
      vertex 4.25779 -9.04827 0
      vertex 3.09017 -9.51056 0
    endloop
  endfacet
  facet normal -0 0 -1
    outer loop
      vertex 8.76307 4.81754 0
      vertex 0.963937 0.529928 0
      vertex 8.09017 5.87785 0
    endloop
  endfacet
  facet normal 0 0 -1
    outer loop
      vertex 0.339918 -1.04616 0
      vertex 3.09017 -9.51056 0
      vertex 1.87381 -9.82287 0
    endloop
  endfacet
  facet normal 0 0 -1
    outer loop
      vertex 0.889918 0.646564 0
      vertex 8.09017 5.87785 0
      vertex 0.963937 0.529928 0
    endloop
  endfacet
  facet normal -0 0 -1
    outer loop
      vertex 8.09017 5.87785 0
      vertex 0.889918 0.646564 0
      vertex 7.28969 6.84547 0
    endloop
  endfacet
  facet normal 0 0 -1
    outer loop
      vertex 9.92115 -1.25333 0
      vertex 1.09133 -0.137866 0
      vertex 1.1 0 0
    endloop
  endfacet
  facet normal 0 0 -1
    outer loop
      vertex 9.68583 -2.4869 0
      vertex 1.06544 -0.273559 0
      vertex 1.09133 -0.137866 0
    endloop
  endfacet
  facet normal 0 0 -1
    outer loop
      vertex 9.29776 -3.68124 0
      vertex 1.02275 -0.404937 0
      vertex 1.06544 -0.273559 0
    endloop
  endfacet
  facet normal 0 0 -1
    outer loop
      vertex 8.76307 -4.81754 0
      vertex 0.963937 -0.529928 0
      vertex 1.02275 -0.404937 0
    endloop
  endfacet
  facet normal 0 0 -1
    outer loop
      vertex 8.09017 -5.87785 0
      vertex 0.889918 -0.646564 0
      vertex 0.963937 -0.529928 0
    endloop
  endfacet
  facet normal 0 0 -1
    outer loop
      vertex 7.28969 -6.84547 0
      vertex 0.801865 -0.753001 0
      vertex 0.889918 -0.646564 0
    endloop
  endfacet
  facet normal 0 0 -1
    outer loop
      vertex 6.37424 -7.70513 0
      vertex 0.701166 -0.847564 0
      vertex 0.801865 -0.753001 0
    endloop
  endfacet
  facet normal 0 0 -1
    outer loop
      vertex 0.206119 -1.08052 0
      vertex 1.87381 -9.82287 0
      vertex 0.627905 -9.98027 0
    endloop
  endfacet
  facet normal 0 0 -1
    outer loop
      vertex 5.35827 -8.44328 0
      vertex 0.589409 -0.928761 0
      vertex 0.701166 -0.847564 0
    endloop
  endfacet
  facet normal 0 0 -1
    outer loop
      vertex 4.25779 -9.04827 0
      vertex 0.468357 -0.995309 0
      vertex 0.589409 -0.928761 0
    endloop
  endfacet
  facet normal 0 0 -1
    outer loop
      vertex 3.09017 -9.51056 0
      vertex 0.339918 -1.04616 0
      vertex 0.468357 -0.995309 0
    endloop
  endfacet
  facet normal 0 0 -1
    outer loop
      vertex 1.87381 -9.82287 0
      vertex 0.206119 -1.08052 0
      vertex 0.339918 -1.04616 0
    endloop
  endfacet
  facet normal 0 0 -1
    outer loop
      vertex 0.627905 -9.98027 0
      vertex 0.0690689 -1.09783 0
      vertex 0.206119 -1.08052 0
    endloop
  endfacet
  facet normal 0 0 -1
    outer loop
      vertex 0.627905 -9.98027 0
      vertex -0.0690689 -1.09783 0
      vertex 0.0690689 -1.09783 0
    endloop
  endfacet
  facet normal 0 0 -1
    outer loop
      vertex -0.627905 -9.98027 0
      vertex -0.0690689 -1.09783 0
      vertex 0.627905 -9.98027 0
    endloop
  endfacet
  facet normal -0 0 -1
    outer loop
      vertex -0.0690689 -1.09783 0
      vertex -0.627905 -9.98027 0
      vertex -0.206119 -1.08052 0
    endloop
  endfacet
  facet normal 0 0 -1
    outer loop
      vertex -1.87381 -9.82287 0
      vertex -0.206119 -1.08052 0
      vertex -0.627905 -9.98027 0
    endloop
  endfacet
  facet normal -0 0 -1
    outer loop
      vertex -0.206119 -1.08052 0
      vertex -1.87381 -9.82287 0
      vertex -0.339918 -1.04616 0
    endloop
  endfacet
  facet normal 0 0 -1
    outer loop
      vertex -3.09017 -9.51056 0
      vertex -0.339918 -1.04616 0
      vertex -1.87381 -9.82287 0
    endloop
  endfacet
  facet normal -0 0 -1
    outer loop
      vertex -0.339918 -1.04616 0
      vertex -3.09017 -9.51056 0
      vertex -0.468357 -0.995309 0
    endloop
  endfacet
  facet normal 0 0 -1
    outer loop
      vertex -4.25779 -9.04827 0
      vertex -0.468357 -0.995309 0
      vertex -3.09017 -9.51056 0
    endloop
  endfacet
  facet normal -0 0 -1
    outer loop
      vertex -0.468357 -0.995309 0
      vertex -4.25779 -9.04827 0
      vertex -0.589409 -0.928761 0
    endloop
  endfacet
  facet normal 0 0 -1
    outer loop
      vertex -5.35827 -8.44328 0
      vertex -0.589409 -0.928761 0
      vertex -4.25779 -9.04827 0
    endloop
  endfacet
  facet normal -0 0 -1
    outer loop
      vertex -0.589409 -0.928761 0
      vertex -5.35827 -8.44328 0
      vertex -0.701166 -0.847564 0
    endloop
  endfacet
  facet normal 0 0 -1
    outer loop
      vertex -6.37424 -7.70513 0
      vertex -0.701166 -0.847564 0
      vertex -5.35827 -8.44328 0
    endloop
  endfacet
  facet normal -0 0 -1
    outer loop
      vertex -0.701166 -0.847564 0
      vertex -6.37424 -7.70513 0
      vertex -0.801865 -0.753001 0
    endloop
  endfacet
  facet normal 0 0 -1
    outer loop
      vertex -7.28969 -6.84547 0
      vertex -0.801865 -0.753001 0
      vertex -6.37424 -7.70513 0
    endloop
  endfacet
  facet normal -0 0 -1
    outer loop
      vertex -0.801865 -0.753001 0
      vertex -7.28969 -6.84547 0
      vertex -0.889918 -0.646564 0
    endloop
  endfacet
  facet normal 0 0 -1
    outer loop
      vertex 0.801865 0.753001 0
      vertex 7.28969 6.84547 0
      vertex 0.889918 0.646564 0
    endloop
  endfacet
  facet normal -0 0 -1
    outer loop
      vertex 7.28969 6.84547 0
      vertex 0.801865 0.753001 0
      vertex 6.37424 7.70513 0
    endloop
  endfacet
  facet normal 0 0 -1
    outer loop
      vertex 0.701166 0.847564 0
      vertex 6.37424 7.70513 0
      vertex 0.801865 0.753001 0
    endloop
  endfacet
  facet normal -0 0 -1
    outer loop
      vertex 6.37424 7.70513 0
      vertex 0.701166 0.847564 0
      vertex 5.35827 8.44328 0
    endloop
  endfacet
  facet normal 0 0 -1
    outer loop
      vertex 0.589409 0.928761 0
      vertex 5.35827 8.44328 0
      vertex 0.701166 0.847564 0
    endloop
  endfacet
  facet normal -0 0 -1
    outer loop
      vertex 5.35827 8.44328 0
      vertex 0.589409 0.928761 0
      vertex 4.25779 9.04827 0
    endloop
  endfacet
  facet normal 0 0 -1
    outer loop
      vertex 0.468357 0.995309 0
      vertex 4.25779 9.04827 0
      vertex 0.589409 0.928761 0
    endloop
  endfacet
  facet normal -0 0 -1
    outer loop
      vertex 4.25779 9.04827 0
      vertex 0.468357 0.995309 0
      vertex 3.09017 9.51056 0
    endloop
  endfacet
  facet normal 0 0 -1
    outer loop
      vertex 0.339918 1.04616 0
      vertex 3.09017 9.51056 0
      vertex 0.468357 0.995309 0
    endloop
  endfacet
  facet normal -0 0 -1
    outer loop
      vertex 3.09017 9.51056 0
      vertex 0.339918 1.04616 0
      vertex 1.87381 9.82287 0
    endloop
  endfacet
  facet normal 0 0 -1
    outer loop
      vertex 0.206119 1.08052 0
      vertex 1.87381 9.82287 0
      vertex 0.339918 1.04616 0
    endloop
  endfacet
  facet normal -0 0 -1
    outer loop
      vertex 1.87381 9.82287 0
      vertex 0.206119 1.08052 0
      vertex 0.627905 9.98027 0
    endloop
  endfacet
  facet normal 0 0 -1
    outer loop
      vertex 0.0690689 1.09783 0
      vertex 0.627905 9.98027 0
      vertex 0.206119 1.08052 0
    endloop
  endfacet
  facet normal 0 0 -1
    outer loop
      vertex -0.0690689 1.09783 0
      vertex 0.627905 9.98027 0
      vertex 0.0690689 1.09783 0
    endloop
  endfacet
  facet normal 0 0 -1
    outer loop
      vertex -0.627905 9.98027 0
      vertex -0.0690689 1.09783 0
      vertex -0.206119 1.08052 0
    endloop
  endfacet
  facet normal 0 0 -1
    outer loop
      vertex -1.87381 9.82287 0
      vertex -0.206119 1.08052 0
      vertex -0.339918 1.04616 0
    endloop
  endfacet
  facet normal 0 0 -1
    outer loop
      vertex -3.09017 9.51056 0
      vertex -0.339918 1.04616 0
      vertex -0.468357 0.995309 0
    endloop
  endfacet
  facet normal 0 0 -1
    outer loop
      vertex -4.25779 9.04827 0
      vertex -0.468357 0.995309 0
      vertex -0.589409 0.928761 0
    endloop
  endfacet
  facet normal 0 0 -1
    outer loop
      vertex -0.0690689 1.09783 0
      vertex -0.627905 9.98027 0
      vertex 0.627905 9.98027 0
    endloop
  endfacet
  facet normal 0 0 -1
    outer loop
      vertex -5.35827 8.44328 0
      vertex -0.589409 0.928761 0
      vertex -0.701166 0.847564 0
    endloop
  endfacet
  facet normal 0 0 -1
    outer loop
      vertex -6.37424 7.70513 0
      vertex -0.701166 0.847564 0
      vertex -0.801865 0.753001 0
    endloop
  endfacet
  facet normal 0 0 -1
    outer loop
      vertex -7.28969 6.84547 0
      vertex -0.801865 0.753001 0
      vertex -0.889918 0.646564 0
    endloop
  endfacet
  facet normal 0 0 -1
    outer loop
      vertex -8.09017 5.87785 0
      vertex -0.889918 0.646564 0
      vertex -0.963937 0.529928 0
    endloop
  endfacet
  facet normal 0 0 -1
    outer loop
      vertex -8.76307 4.81754 0
      vertex -0.963937 0.529928 0
      vertex -1.02275 0.404937 0
    endloop
  endfacet
  facet normal 0 0 -1
    outer loop
      vertex -9.29776 3.68124 0
      vertex -1.02275 0.404937 0
      vertex -1.06544 0.273559 0
    endloop
  endfacet
  facet normal 0 0 -1
    outer loop
      vertex -9.68583 2.4869 0
      vertex -1.06544 0.273559 0
      vertex -1.09133 0.137866 0
    endloop
  endfacet
  facet normal 0 0 -1
    outer loop
      vertex -9.92115 1.25333 0
      vertex -1.09133 0.137866 0
      vertex -1.1 0 0
    endloop
  endfacet
  facet normal 0 0 -1
    outer loop
      vertex -8.09017 -5.87785 0
      vertex -0.889918 -0.646564 0
      vertex -7.28969 -6.84547 0
    endloop
  endfacet
  facet normal 0 0 -1
    outer loop
      vertex -0.206119 1.08052 0
      vertex -1.87381 9.82287 0
      vertex -0.627905 9.98027 0
    endloop
  endfacet
  facet normal -0 0 -1
    outer loop
      vertex -0.889918 -0.646564 0
      vertex -8.09017 -5.87785 0
      vertex -0.963937 -0.529928 0
    endloop
  endfacet
  facet normal 0 0 -1
    outer loop
      vertex -0.339918 1.04616 0
      vertex -3.09017 9.51056 0
      vertex -1.87381 9.82287 0
    endloop
  endfacet
  facet normal 0 0 -1
    outer loop
      vertex -8.76307 -4.81754 0
      vertex -0.963937 -0.529928 0
      vertex -8.09017 -5.87785 0
    endloop
  endfacet
  facet normal 0 0 -1
    outer loop
      vertex -0.468357 0.995309 0
      vertex -4.25779 9.04827 0
      vertex -3.09017 9.51056 0
    endloop
  endfacet
  facet normal -0 0 -1
    outer loop
      vertex -0.963937 -0.529928 0
      vertex -8.76307 -4.81754 0
      vertex -1.02275 -0.404937 0
    endloop
  endfacet
  facet normal 0 0 -1
    outer loop
      vertex -0.589409 0.928761 0
      vertex -5.35827 8.44328 0
      vertex -4.25779 9.04827 0
    endloop
  endfacet
  facet normal 0 0 -1
    outer loop
      vertex -9.29776 -3.68124 0
      vertex -1.02275 -0.404937 0
      vertex -8.76307 -4.81754 0
    endloop
  endfacet
  facet normal 0 0 -1
    outer loop
      vertex -0.701166 0.847564 0
      vertex -6.37424 7.70513 0
      vertex -5.35827 8.44328 0
    endloop
  endfacet
  facet normal -0 0 -1
    outer loop
      vertex -1.02275 -0.404937 0
      vertex -9.29776 -3.68124 0
      vertex -1.06544 -0.273559 0
    endloop
  endfacet
  facet normal 0 0 -1
    outer loop
      vertex -0.801865 0.753001 0
      vertex -7.28969 6.84547 0
      vertex -6.37424 7.70513 0
    endloop
  endfacet
  facet normal 0 0 -1
    outer loop
      vertex -9.68583 -2.4869 0
      vertex -1.06544 -0.273559 0
      vertex -9.29776 -3.68124 0
    endloop
  endfacet
  facet normal 0 0 -1
    outer loop
      vertex -0.889918 0.646564 0
      vertex -8.09017 5.87785 0
      vertex -7.28969 6.84547 0
    endloop
  endfacet
  facet normal -0 0 -1
    outer loop
      vertex -1.06544 -0.273559 0
      vertex -9.68583 -2.4869 0
      vertex -1.09133 -0.137866 0
    endloop
  endfacet
  facet normal 0 0 -1
    outer loop
      vertex -0.963937 0.529928 0
      vertex -8.76307 4.81754 0
      vertex -8.09017 5.87785 0
    endloop
  endfacet
  facet normal 0 0 -1
    outer loop
      vertex -9.92115 -1.25333 0
      vertex -1.09133 -0.137866 0
      vertex -9.68583 -2.4869 0
    endloop
  endfacet
  facet normal 0 0 -1
    outer loop
      vertex -1.02275 0.404937 0
      vertex -9.29776 3.68124 0
      vertex -8.76307 4.81754 0
    endloop
  endfacet
  facet normal -0 0 -1
    outer loop
      vertex -1.09133 -0.137866 0
      vertex -9.92115 -1.25333 0
      vertex -1.1 0 0
    endloop
  endfacet
  facet normal 0 0 -1
    outer loop
      vertex -1.06544 0.273559 0
      vertex -9.68583 2.4869 0
      vertex -9.29776 3.68124 0
    endloop
  endfacet
  facet normal 0 0 -1
    outer loop
      vertex -10 0 0
      vertex -1.1 0 0
      vertex -9.92115 -1.25333 0
    endloop
  endfacet
  facet normal 0 0 -1
    outer loop
      vertex -1.09133 0.137866 0
      vertex -9.92115 1.25333 0
      vertex -9.68583 2.4869 0
    endloop
  endfacet
  facet normal 0 0 -1
    outer loop
      vertex -1.1 0 0
      vertex -10 0 0
      vertex -9.92115 1.25333 0
    endloop
  endfacet
  facet normal 0 0 1
    outer loop
      vertex 1.1 0 6
      vertex 11.35 0 6
      vertex 11.2605 1.42253 6
    endloop
  endfacet
  facet normal 0 0 1
    outer loop
      vertex 1.09133 0.137866 6
      vertex 11.2605 1.42253 6
      vertex 10.9934 2.82263 6
    endloop
  endfacet
  facet normal 0 0 1
    outer loop
      vertex 11.35 0 6
      vertex 1.1 0 6
      vertex 11.2605 -1.42253 6
    endloop
  endfacet
  facet normal 0 0 1
    outer loop
      vertex 1.06544 0.273559 6
      vertex 10.9934 2.82263 6
      vertex 10.553 4.17821 6
    endloop
  endfacet
  facet normal -0 0 1
    outer loop
      vertex 1.09133 -0.137866 6
      vertex 11.2605 -1.42253 6
      vertex 1.1 0 6
    endloop
  endfacet
  facet normal 0 0 1
    outer loop
      vertex 1.02275 0.404937 6
      vertex 10.553 4.17821 6
      vertex 9.94608 5.4679 6
    endloop
  endfacet
  facet normal 0 0 1
    outer loop
      vertex 11.2605 -1.42253 6
      vertex 1.09133 -0.137866 6
      vertex 10.9934 -2.82263 6
    endloop
  endfacet
  facet normal 0 0 1
    outer loop
      vertex 0.963937 0.529928 6
      vertex 9.94608 5.4679 6
      vertex 9.18234 6.67136 6
    endloop
  endfacet
  facet normal -0 0 1
    outer loop
      vertex 1.06544 -0.273559 6
      vertex 10.9934 -2.82263 6
      vertex 1.09133 -0.137866 6
    endloop
  endfacet
  facet normal 0 0 1
    outer loop
      vertex 0.889918 0.646564 6
      vertex 9.18234 6.67136 6
      vertex 8.27379 7.76961 6
    endloop
  endfacet
  facet normal 0 0 1
    outer loop
      vertex 10.9934 -2.82263 6
      vertex 1.06544 -0.273559 6
      vertex 10.553 -4.17821 6
    endloop
  endfacet
  facet normal 0 0 1
    outer loop
      vertex 0.801865 0.753001 6
      vertex 8.27379 7.76961 6
      vertex 7.23476 8.74533 6
    endloop
  endfacet
  facet normal -0 0 1
    outer loop
      vertex 1.02275 -0.404937 6
      vertex 10.553 -4.17821 6
      vertex 1.06544 -0.273559 6
    endloop
  endfacet
  facet normal 0 0 1
    outer loop
      vertex 0.701166 0.847564 6
      vertex 7.23476 8.74533 6
      vertex 6.08163 9.58312 6
    endloop
  endfacet
  facet normal 0 0 1
    outer loop
      vertex 10.553 -4.17821 6
      vertex 1.02275 -0.404937 6
      vertex 9.94608 -5.4679 6
    endloop
  endfacet
  facet normal 0 0 1
    outer loop
      vertex 0.589409 0.928761 6
      vertex 6.08163 9.58312 6
      vertex 4.83259 10.2698 6
    endloop
  endfacet
  facet normal -0 0 1
    outer loop
      vertex 0.963937 -0.529928 6
      vertex 9.94608 -5.4679 6
      vertex 1.02275 -0.404937 6
    endloop
  endfacet
  facet normal 0 0 1
    outer loop
      vertex 0.468357 0.995309 6
      vertex 4.83259 10.2698 6
      vertex 3.50734 10.7945 6
    endloop
  endfacet
  facet normal 0 0 1
    outer loop
      vertex 9.94608 -5.4679 6
      vertex 0.963937 -0.529928 6
      vertex 9.18234 -6.67136 6
    endloop
  endfacet
  facet normal 0 0 1
    outer loop
      vertex 0.339918 1.04616 6
      vertex 3.50734 10.7945 6
      vertex 2.12678 11.149 6
    endloop
  endfacet
  facet normal -0 0 1
    outer loop
      vertex 0.889918 -0.646564 6
      vertex 9.18234 -6.67136 6
      vertex 0.963937 -0.529928 6
    endloop
  endfacet
  facet normal 0 0 1
    outer loop
      vertex 9.18234 -6.67136 6
      vertex 0.889918 -0.646564 6
      vertex 8.27379 -7.76961 6
    endloop
  endfacet
  facet normal 0 0 1
    outer loop
      vertex 11.2605 1.42253 6
      vertex 1.09133 0.137866 6
      vertex 1.1 0 6
    endloop
  endfacet
  facet normal 0 0 1
    outer loop
      vertex 10.9934 2.82263 6
      vertex 1.06544 0.273559 6
      vertex 1.09133 0.137866 6
    endloop
  endfacet
  facet normal 0 0 1
    outer loop
      vertex 10.553 4.17821 6
      vertex 1.02275 0.404937 6
      vertex 1.06544 0.273559 6
    endloop
  endfacet
  facet normal 0 0 1
    outer loop
      vertex 9.94608 5.4679 6
      vertex 0.963937 0.529928 6
      vertex 1.02275 0.404937 6
    endloop
  endfacet
  facet normal 0 0 1
    outer loop
      vertex 9.18234 6.67136 6
      vertex 0.889918 0.646564 6
      vertex 0.963937 0.529928 6
    endloop
  endfacet
  facet normal 0 0 1
    outer loop
      vertex 8.27379 7.76961 6
      vertex 0.801865 0.753001 6
      vertex 0.889918 0.646564 6
    endloop
  endfacet
  facet normal 0 0 1
    outer loop
      vertex 0.206119 1.08052 6
      vertex 2.12678 11.149 6
      vertex 0.712672 11.3276 6
    endloop
  endfacet
  facet normal 0 0 1
    outer loop
      vertex 7.23476 8.74533 6
      vertex 0.701166 0.847564 6
      vertex 0.801865 0.753001 6
    endloop
  endfacet
  facet normal 0 0 1
    outer loop
      vertex 6.08163 9.58312 6
      vertex 0.589409 0.928761 6
      vertex 0.701166 0.847564 6
    endloop
  endfacet
  facet normal 0 0 1
    outer loop
      vertex 4.83259 10.2698 6
      vertex 0.468357 0.995309 6
      vertex 0.589409 0.928761 6
    endloop
  endfacet
  facet normal 0 0 1
    outer loop
      vertex 3.50734 10.7945 6
      vertex 0.339918 1.04616 6
      vertex 0.468357 0.995309 6
    endloop
  endfacet
  facet normal 0 0 1
    outer loop
      vertex 2.12678 11.149 6
      vertex 0.206119 1.08052 6
      vertex 0.339918 1.04616 6
    endloop
  endfacet
  facet normal 0 0 1
    outer loop
      vertex 0.712672 11.3276 6
      vertex 0.0690689 1.09783 6
      vertex 0.206119 1.08052 6
    endloop
  endfacet
  facet normal 0 0 1
    outer loop
      vertex 0.712672 11.3276 6
      vertex -0.0690689 1.09783 6
      vertex 0.0690689 1.09783 6
    endloop
  endfacet
  facet normal -0 0 1
    outer loop
      vertex -0.712672 11.3276 6
      vertex -0.0690689 1.09783 6
      vertex 0.712672 11.3276 6
    endloop
  endfacet
  facet normal 0 0 1
    outer loop
      vertex -0.0690689 1.09783 6
      vertex -0.712672 11.3276 6
      vertex -0.206119 1.08052 6
    endloop
  endfacet
  facet normal -0 0 1
    outer loop
      vertex -2.12678 11.149 6
      vertex -0.206119 1.08052 6
      vertex -0.712672 11.3276 6
    endloop
  endfacet
  facet normal 0 0 1
    outer loop
      vertex -0.206119 1.08052 6
      vertex -2.12678 11.149 6
      vertex -0.339918 1.04616 6
    endloop
  endfacet
  facet normal -0 0 1
    outer loop
      vertex -3.50734 10.7945 6
      vertex -0.339918 1.04616 6
      vertex -2.12678 11.149 6
    endloop
  endfacet
  facet normal 0 0 1
    outer loop
      vertex -0.339918 1.04616 6
      vertex -3.50734 10.7945 6
      vertex -0.468357 0.995309 6
    endloop
  endfacet
  facet normal -0 0 1
    outer loop
      vertex -4.83259 10.2698 6
      vertex -0.468357 0.995309 6
      vertex -3.50734 10.7945 6
    endloop
  endfacet
  facet normal 0 0 1
    outer loop
      vertex -0.468357 0.995309 6
      vertex -4.83259 10.2698 6
      vertex -0.589409 0.928761 6
    endloop
  endfacet
  facet normal -0 0 1
    outer loop
      vertex -6.08163 9.58312 6
      vertex -0.589409 0.928761 6
      vertex -4.83259 10.2698 6
    endloop
  endfacet
  facet normal 0 0 1
    outer loop
      vertex -0.589409 0.928761 6
      vertex -6.08163 9.58312 6
      vertex -0.701166 0.847564 6
    endloop
  endfacet
  facet normal -0 0 1
    outer loop
      vertex -7.23476 8.74533 6
      vertex -0.701166 0.847564 6
      vertex -6.08163 9.58312 6
    endloop
  endfacet
  facet normal 0 0 1
    outer loop
      vertex -0.701166 0.847564 6
      vertex -7.23476 8.74533 6
      vertex -0.801865 0.753001 6
    endloop
  endfacet
  facet normal -0 0 1
    outer loop
      vertex -8.27379 7.76961 6
      vertex -0.801865 0.753001 6
      vertex -7.23476 8.74533 6
    endloop
  endfacet
  facet normal 0 0 1
    outer loop
      vertex -0.801865 0.753001 6
      vertex -8.27379 7.76961 6
      vertex -0.889918 0.646564 6
    endloop
  endfacet
  facet normal -0 0 1
    outer loop
      vertex 0.801865 -0.753001 6
      vertex 8.27379 -7.76961 6
      vertex 0.889918 -0.646564 6
    endloop
  endfacet
  facet normal 0 0 1
    outer loop
      vertex 8.27379 -7.76961 6
      vertex 0.801865 -0.753001 6
      vertex 7.23476 -8.74533 6
    endloop
  endfacet
  facet normal -0 0 1
    outer loop
      vertex 0.701166 -0.847564 6
      vertex 7.23476 -8.74533 6
      vertex 0.801865 -0.753001 6
    endloop
  endfacet
  facet normal 0 0 1
    outer loop
      vertex 7.23476 -8.74533 6
      vertex 0.701166 -0.847564 6
      vertex 6.08163 -9.58312 6
    endloop
  endfacet
  facet normal -0 0 1
    outer loop
      vertex 0.589409 -0.928761 6
      vertex 6.08163 -9.58312 6
      vertex 0.701166 -0.847564 6
    endloop
  endfacet
  facet normal 0 0 1
    outer loop
      vertex 6.08163 -9.58312 6
      vertex 0.589409 -0.928761 6
      vertex 4.83259 -10.2698 6
    endloop
  endfacet
  facet normal -0 0 1
    outer loop
      vertex 0.468357 -0.995309 6
      vertex 4.83259 -10.2698 6
      vertex 0.589409 -0.928761 6
    endloop
  endfacet
  facet normal 0 0 1
    outer loop
      vertex 4.83259 -10.2698 6
      vertex 0.468357 -0.995309 6
      vertex 3.50734 -10.7945 6
    endloop
  endfacet
  facet normal -0 0 1
    outer loop
      vertex 0.339918 -1.04616 6
      vertex 3.50734 -10.7945 6
      vertex 0.468357 -0.995309 6
    endloop
  endfacet
  facet normal 0 0 1
    outer loop
      vertex 3.50734 -10.7945 6
      vertex 0.339918 -1.04616 6
      vertex 2.12678 -11.149 6
    endloop
  endfacet
  facet normal -0 0 1
    outer loop
      vertex 0.206119 -1.08052 6
      vertex 2.12678 -11.149 6
      vertex 0.339918 -1.04616 6
    endloop
  endfacet
  facet normal 0 0 1
    outer loop
      vertex 2.12678 -11.149 6
      vertex 0.206119 -1.08052 6
      vertex 0.712672 -11.3276 6
    endloop
  endfacet
  facet normal -0 0 1
    outer loop
      vertex 0.0690689 -1.09783 6
      vertex 0.712672 -11.3276 6
      vertex 0.206119 -1.08052 6
    endloop
  endfacet
  facet normal -0 0 1
    outer loop
      vertex -0.0690689 -1.09783 6
      vertex 0.712672 -11.3276 6
      vertex 0.0690689 -1.09783 6
    endloop
  endfacet
  facet normal 0 0 1
    outer loop
      vertex -0.712672 -11.3276 6
      vertex -0.0690689 -1.09783 6
      vertex -0.206119 -1.08052 6
    endloop
  endfacet
  facet normal 0 0 1
    outer loop
      vertex -2.12678 -11.149 6
      vertex -0.206119 -1.08052 6
      vertex -0.339918 -1.04616 6
    endloop
  endfacet
  facet normal 0 0 1
    outer loop
      vertex -3.50734 -10.7945 6
      vertex -0.339918 -1.04616 6
      vertex -0.468357 -0.995309 6
    endloop
  endfacet
  facet normal 0 0 1
    outer loop
      vertex -4.83259 -10.2698 6
      vertex -0.468357 -0.995309 6
      vertex -0.589409 -0.928761 6
    endloop
  endfacet
  facet normal 0 0 1
    outer loop
      vertex -6.08163 -9.58312 6
      vertex -0.589409 -0.928761 6
      vertex -0.701166 -0.847564 6
    endloop
  endfacet
  facet normal 0 0 1
    outer loop
      vertex -0.0690689 -1.09783 6
      vertex -0.712672 -11.3276 6
      vertex 0.712672 -11.3276 6
    endloop
  endfacet
  facet normal 0 0 1
    outer loop
      vertex -7.23476 -8.74533 6
      vertex -0.701166 -0.847564 6
      vertex -0.801865 -0.753001 6
    endloop
  endfacet
  facet normal 0 0 1
    outer loop
      vertex -8.27379 -7.76961 6
      vertex -0.801865 -0.753001 6
      vertex -0.889918 -0.646564 6
    endloop
  endfacet
  facet normal 0 0 1
    outer loop
      vertex -9.18234 -6.67136 6
      vertex -0.889918 -0.646564 6
      vertex -0.963937 -0.529928 6
    endloop
  endfacet
  facet normal 0 0 1
    outer loop
      vertex -9.94608 -5.4679 6
      vertex -0.963937 -0.529928 6
      vertex -1.02275 -0.404937 6
    endloop
  endfacet
  facet normal 0 0 1
    outer loop
      vertex -10.553 -4.17821 6
      vertex -1.02275 -0.404937 6
      vertex -1.06544 -0.273559 6
    endloop
  endfacet
  facet normal 0 0 1
    outer loop
      vertex -10.9934 -2.82263 6
      vertex -1.06544 -0.273559 6
      vertex -1.09133 -0.137866 6
    endloop
  endfacet
  facet normal 0 0 1
    outer loop
      vertex -11.2605 -1.42253 6
      vertex -1.09133 -0.137866 6
      vertex -1.1 0 6
    endloop
  endfacet
  facet normal -0 0 1
    outer loop
      vertex -9.18234 6.67136 6
      vertex -0.889918 0.646564 6
      vertex -8.27379 7.76961 6
    endloop
  endfacet
  facet normal 0 0 1
    outer loop
      vertex -0.206119 -1.08052 6
      vertex -2.12678 -11.149 6
      vertex -0.712672 -11.3276 6
    endloop
  endfacet
  facet normal 0 0 1
    outer loop
      vertex -0.889918 0.646564 6
      vertex -9.18234 6.67136 6
      vertex -0.963937 0.529928 6
    endloop
  endfacet
  facet normal 0 0 1
    outer loop
      vertex -0.339918 -1.04616 6
      vertex -3.50734 -10.7945 6
      vertex -2.12678 -11.149 6
    endloop
  endfacet
  facet normal -0 0 1
    outer loop
      vertex -9.94608 5.4679 6
      vertex -0.963937 0.529928 6
      vertex -9.18234 6.67136 6
    endloop
  endfacet
  facet normal 0 0 1
    outer loop
      vertex -0.468357 -0.995309 6
      vertex -4.83259 -10.2698 6
      vertex -3.50734 -10.7945 6
    endloop
  endfacet
  facet normal 0 0 1
    outer loop
      vertex -0.963937 0.529928 6
      vertex -9.94608 5.4679 6
      vertex -1.02275 0.404937 6
    endloop
  endfacet
  facet normal 0 0 1
    outer loop
      vertex -0.589409 -0.928761 6
      vertex -6.08163 -9.58312 6
      vertex -4.83259 -10.2698 6
    endloop
  endfacet
  facet normal -0 0 1
    outer loop
      vertex -10.553 4.17821 6
      vertex -1.02275 0.404937 6
      vertex -9.94608 5.4679 6
    endloop
  endfacet
  facet normal 0 0 1
    outer loop
      vertex -0.701166 -0.847564 6
      vertex -7.23476 -8.74533 6
      vertex -6.08163 -9.58312 6
    endloop
  endfacet
  facet normal 0 0 1
    outer loop
      vertex -1.02275 0.404937 6
      vertex -10.553 4.17821 6
      vertex -1.06544 0.273559 6
    endloop
  endfacet
  facet normal 0 0 1
    outer loop
      vertex -0.801865 -0.753001 6
      vertex -8.27379 -7.76961 6
      vertex -7.23476 -8.74533 6
    endloop
  endfacet
  facet normal -0 0 1
    outer loop
      vertex -10.9934 2.82263 6
      vertex -1.06544 0.273559 6
      vertex -10.553 4.17821 6
    endloop
  endfacet
  facet normal 0 0 1
    outer loop
      vertex -0.889918 -0.646564 6
      vertex -9.18234 -6.67136 6
      vertex -8.27379 -7.76961 6
    endloop
  endfacet
  facet normal 0 0 1
    outer loop
      vertex -1.06544 0.273559 6
      vertex -10.9934 2.82263 6
      vertex -1.09133 0.137866 6
    endloop
  endfacet
  facet normal 0 0 1
    outer loop
      vertex -0.963937 -0.529928 6
      vertex -9.94608 -5.4679 6
      vertex -9.18234 -6.67136 6
    endloop
  endfacet
  facet normal -0 0 1
    outer loop
      vertex -11.2605 1.42253 6
      vertex -1.09133 0.137866 6
      vertex -10.9934 2.82263 6
    endloop
  endfacet
  facet normal 0 0 1
    outer loop
      vertex -1.02275 -0.404937 6
      vertex -10.553 -4.17821 6
      vertex -9.94608 -5.4679 6
    endloop
  endfacet
  facet normal 0 0 1
    outer loop
      vertex -1.09133 0.137866 6
      vertex -11.2605 1.42253 6
      vertex -1.1 0 6
    endloop
  endfacet
  facet normal 0 0 1
    outer loop
      vertex -1.06544 -0.273559 6
      vertex -10.9934 -2.82263 6
      vertex -10.553 -4.17821 6
    endloop
  endfacet
  facet normal 0 0 1
    outer loop
      vertex -11.35 0 6
      vertex -1.1 0 6
      vertex -11.2605 1.42253 6
    endloop
  endfacet
  facet normal 0 0 1
    outer loop
      vertex -1.09133 -0.137866 6
      vertex -11.2605 -1.42253 6
      vertex -10.9934 -2.82263 6
    endloop
  endfacet
  facet normal 0 0 1
    outer loop
      vertex -1.1 0 6
      vertex -11.35 0 6
      vertex -11.2605 -1.42253 6
    endloop
  endfacet
endsolid OpenSCAD_Model
