solid OpenSCAD_Model
  facet normal 0.998028 0.0627742 -4.87955e-19
    outer loop
      vertex 13.7 0 3.6
      vertex 13.592 1.71706 0
      vertex 13.592 1.71706 3.6
    endloop
  endfacet
  facet normal 0.998028 0.0627742 -4.87955e-19
    outer loop
      vertex 13.592 1.71706 0
      vertex 13.7 0 3.6
      vertex 13.7 0 0
    endloop
  endfacet
  facet normal -0.998028 0.0627742 4.87955e-19
    outer loop
      vertex -13.7 0 0
      vertex -13.592 1.71706 3.6
      vertex -13.592 1.71706 0
    endloop
  endfacet
  facet normal -0.998028 0.0627742 4.87955e-19
    outer loop
      vertex -13.592 1.71706 3.6
      vertex -13.7 0 0
      vertex -13.7 0 3.6
    endloop
  endfacet
  facet normal 0 1 -0
    outer loop
      vertex 0.860229 13.673 0
      vertex -0.860229 13.673 3.6
      vertex 0.860229 13.673 3.6
    endloop
  endfacet
  facet normal 0 1 0
    outer loop
      vertex -0.860229 13.673 3.6
      vertex 0.860229 13.673 0
      vertex -0.860229 13.673 0
    endloop
  endfacet
  facet normal 0 -1 0
    outer loop
      vertex -0.860229 -13.673 0
      vertex 0.860229 -13.673 3.6
      vertex -0.860229 -13.673 3.6
    endloop
  endfacet
  facet normal 0 -1 -0
    outer loop
      vertex 0.860229 -13.673 3.6
      vertex -0.860229 -13.673 0
      vertex 0.860229 -13.673 0
    endloop
  endfacet
  facet normal 0.684539 0.728976 -0
    outer loop
      vertex 9.98687 9.37829 0
      vertex 8.73271 10.556 3.6
      vertex 9.98687 9.37829 3.6
    endloop
  endfacet
  facet normal 0.684539 0.728976 0
    outer loop
      vertex 8.73271 10.556 3.6
      vertex 9.98687 9.37829 0
      vertex 8.73271 10.556 0
    endloop
  endfacet
  facet normal -0.684539 0.728976 0
    outer loop
      vertex -8.73271 10.556 0
      vertex -9.98687 9.37829 3.6
      vertex -8.73271 10.556 3.6
    endloop
  endfacet
  facet normal -0.684539 0.728976 0
    outer loop
      vertex -9.98687 9.37829 3.6
      vertex -8.73271 10.556 0
      vertex -9.98687 9.37829 0
    endloop
  endfacet
  facet normal -0.368152 0.929766 0
    outer loop
      vertex -4.23353 13.0295 0
      vertex -5.83318 12.3961 3.6
      vertex -4.23353 13.0295 3.6
    endloop
  endfacet
  facet normal -0.368152 0.929766 0
    outer loop
      vertex -5.83318 12.3961 3.6
      vertex -4.23353 13.0295 0
      vertex -5.83318 12.3961 0
    endloop
  endfacet
  facet normal 0.904835 0.425762 7.00208e-20
    outer loop
      vertex 12.7379 5.04331 3.6
      vertex 12.0054 6.60003 0
      vertex 12.0054 6.60003 3.6
    endloop
  endfacet
  facet normal 0.904835 0.425762 7.00208e-20
    outer loop
      vertex 12.0054 6.60003 0
      vertex 12.7379 5.04331 3.6
      vertex 12.7379 5.04331 0
    endloop
  endfacet
  facet normal 0.368152 0.929766 -0
    outer loop
      vertex 5.83318 12.3961 0
      vertex 4.23353 13.0295 3.6
      vertex 5.83318 12.3961 3.6
    endloop
  endfacet
  facet normal 0.368152 0.929766 0
    outer loop
      vertex 4.23353 13.0295 3.6
      vertex 5.83318 12.3961 0
      vertex 4.23353 13.0295 0
    endloop
  endfacet
  facet normal 0.5878 0.809006 -0
    outer loop
      vertex 8.73271 10.556 0
      vertex 7.34083 11.5673 3.6
      vertex 8.73271 10.556 3.6
    endloop
  endfacet
  facet normal 0.5878 0.809006 0
    outer loop
      vertex 7.34083 11.5673 3.6
      vertex 8.73271 10.556 0
      vertex 7.34083 11.5673 0
    endloop
  endfacet
  facet normal -0.904835 0.425762 -7.00208e-20
    outer loop
      vertex -12.7379 5.04331 0
      vertex -12.0054 6.60003 3.6
      vertex -12.0054 6.60003 0
    endloop
  endfacet
  facet normal -0.904835 0.425762 -7.00208e-20
    outer loop
      vertex -12.0054 6.60003 3.6
      vertex -12.7379 5.04331 0
      vertex -12.7379 5.04331 3.6
    endloop
  endfacet
  facet normal -0.844319 0.53584 -1.75049e-17
    outer loop
      vertex -12.0054 6.60003 0
      vertex -11.0835 8.05266 3.6
      vertex -11.0835 8.05266 0
    endloop
  endfacet
  facet normal -0.844319 0.53584 -1.75049e-17
    outer loop
      vertex -11.0835 8.05266 3.6
      vertex -12.0054 6.60003 0
      vertex -12.0054 6.60003 3.6
    endloop
  endfacet
  facet normal 0 0 1
    outer loop
      vertex 10 0 3.6
      vertex 13.7 0 3.6
      vertex 13.592 1.71706 3.6
    endloop
  endfacet
  facet normal 0 0 1
    outer loop
      vertex 9.92115 1.25333 3.6
      vertex 13.592 1.71706 3.6
      vertex 13.2696 3.40705 3.6
    endloop
  endfacet
  facet normal 0 0 1
    outer loop
      vertex 13.7 0 3.6
      vertex 10 0 3.6
      vertex 13.592 -1.71706 3.6
    endloop
  endfacet
  facet normal 0 0 1
    outer loop
      vertex 9.68583 2.4869 3.6
      vertex 13.2696 3.40705 3.6
      vertex 12.7379 5.04331 3.6
    endloop
  endfacet
  facet normal -0 0 1
    outer loop
      vertex 9.92115 -1.25333 3.6
      vertex 13.592 -1.71706 3.6
      vertex 10 0 3.6
    endloop
  endfacet
  facet normal 0 0 1
    outer loop
      vertex 9.29776 3.68124 3.6
      vertex 12.7379 5.04331 3.6
      vertex 12.0054 6.60003 3.6
    endloop
  endfacet
  facet normal 0 0 1
    outer loop
      vertex 13.592 -1.71706 3.6
      vertex 9.92115 -1.25333 3.6
      vertex 13.2696 -3.40705 3.6
    endloop
  endfacet
  facet normal 0 0 1
    outer loop
      vertex 8.76307 4.81754 3.6
      vertex 12.0054 6.60003 3.6
      vertex 11.0835 8.05266 3.6
    endloop
  endfacet
  facet normal -0 0 1
    outer loop
      vertex 9.68583 -2.4869 3.6
      vertex 13.2696 -3.40705 3.6
      vertex 9.92115 -1.25333 3.6
    endloop
  endfacet
  facet normal 0 0 1
    outer loop
      vertex 13.2696 -3.40705 3.6
      vertex 9.68583 -2.4869 3.6
      vertex 12.7379 -5.04331 3.6
    endloop
  endfacet
  facet normal 0 0 1
    outer loop
      vertex 8.09017 5.87785 3.6
      vertex 11.0835 8.05266 3.6
      vertex 9.98687 9.37829 3.6
    endloop
  endfacet
  facet normal 0 0 1
    outer loop
      vertex 13.592 1.71706 3.6
      vertex 9.92115 1.25333 3.6
      vertex 10 0 3.6
    endloop
  endfacet
  facet normal 0 0 1
    outer loop
      vertex 13.2696 3.40705 3.6
      vertex 9.68583 2.4869 3.6
      vertex 9.92115 1.25333 3.6
    endloop
  endfacet
  facet normal 0 0 1
    outer loop
      vertex 12.7379 5.04331 3.6
      vertex 9.29776 3.68124 3.6
      vertex 9.68583 2.4869 3.6
    endloop
  endfacet
  facet normal 0 0 1
    outer loop
      vertex 12.0054 6.60003 3.6
      vertex 8.76307 4.81754 3.6
      vertex 9.29776 3.68124 3.6
    endloop
  endfacet
  facet normal 0 0 1
    outer loop
      vertex 7.28969 6.84547 3.6
      vertex 9.98687 9.37829 3.6
      vertex 8.73271 10.556 3.6
    endloop
  endfacet
  facet normal 0 0 1
    outer loop
      vertex 11.0835 8.05266 3.6
      vertex 8.09017 5.87785 3.6
      vertex 8.76307 4.81754 3.6
    endloop
  endfacet
  facet normal 0 0 1
    outer loop
      vertex 6.37424 7.70513 3.6
      vertex 8.73271 10.556 3.6
      vertex 7.34083 11.5673 3.6
    endloop
  endfacet
  facet normal 0 0 1
    outer loop
      vertex 9.98687 9.37829 3.6
      vertex 7.28969 6.84547 3.6
      vertex 8.09017 5.87785 3.6
    endloop
  endfacet
  facet normal 0 0 1
    outer loop
      vertex 8.73271 10.556 3.6
      vertex 6.37424 7.70513 3.6
      vertex 7.28969 6.84547 3.6
    endloop
  endfacet
  facet normal 0 0 1
    outer loop
      vertex 5.35827 8.44328 3.6
      vertex 7.34083 11.5673 3.6
      vertex 5.83318 12.3961 3.6
    endloop
  endfacet
  facet normal 0 0 1
    outer loop
      vertex 7.34083 11.5673 3.6
      vertex 5.35827 8.44328 3.6
      vertex 6.37424 7.70513 3.6
    endloop
  endfacet
  facet normal 0 0 1
    outer loop
      vertex 5.83318 12.3961 3.6
      vertex 4.25779 9.04827 3.6
      vertex 5.35827 8.44328 3.6
    endloop
  endfacet
  facet normal 0 0 1
    outer loop
      vertex 4.23353 13.0295 3.6
      vertex 4.25779 9.04827 3.6
      vertex 5.83318 12.3961 3.6
    endloop
  endfacet
  facet normal 0 0 1
    outer loop
      vertex 4.23353 13.0295 3.6
      vertex 3.09017 9.51056 3.6
      vertex 4.25779 9.04827 3.6
    endloop
  endfacet
  facet normal 0 0 1
    outer loop
      vertex 2.56712 13.4573 3.6
      vertex 3.09017 9.51056 3.6
      vertex 4.23353 13.0295 3.6
    endloop
  endfacet
  facet normal 0 0 1
    outer loop
      vertex 2.56712 13.4573 3.6
      vertex 1.87381 9.82287 3.6
      vertex 3.09017 9.51056 3.6
    endloop
  endfacet
  facet normal 0 0 1
    outer loop
      vertex 0.860229 13.673 3.6
      vertex 1.87381 9.82287 3.6
      vertex 2.56712 13.4573 3.6
    endloop
  endfacet
  facet normal 0 0 1
    outer loop
      vertex 0.860229 13.673 3.6
      vertex 0.627905 9.98027 3.6
      vertex 1.87381 9.82287 3.6
    endloop
  endfacet
  facet normal 0 0 1
    outer loop
      vertex 0.860229 13.673 3.6
      vertex -0.627905 9.98027 3.6
      vertex 0.627905 9.98027 3.6
    endloop
  endfacet
  facet normal -0 0 1
    outer loop
      vertex -0.860229 13.673 3.6
      vertex -0.627905 9.98027 3.6
      vertex 0.860229 13.673 3.6
    endloop
  endfacet
  facet normal 0 0 1
    outer loop
      vertex -0.860229 13.673 3.6
      vertex -1.87381 9.82287 3.6
      vertex -0.627905 9.98027 3.6
    endloop
  endfacet
  facet normal -0 0 1
    outer loop
      vertex -2.56712 13.4573 3.6
      vertex -1.87381 9.82287 3.6
      vertex -0.860229 13.673 3.6
    endloop
  endfacet
  facet normal 0 0 1
    outer loop
      vertex -2.56712 13.4573 3.6
      vertex -3.09017 9.51056 3.6
      vertex -1.87381 9.82287 3.6
    endloop
  endfacet
  facet normal -0 0 1
    outer loop
      vertex -4.23353 13.0295 3.6
      vertex -3.09017 9.51056 3.6
      vertex -2.56712 13.4573 3.6
    endloop
  endfacet
  facet normal 0 0 1
    outer loop
      vertex -4.23353 13.0295 3.6
      vertex -4.25779 9.04827 3.6
      vertex -3.09017 9.51056 3.6
    endloop
  endfacet
  facet normal -0 0 1
    outer loop
      vertex -5.83318 12.3961 3.6
      vertex -4.25779 9.04827 3.6
      vertex -4.23353 13.0295 3.6
    endloop
  endfacet
  facet normal 0 0 1
    outer loop
      vertex -4.25779 9.04827 3.6
      vertex -5.83318 12.3961 3.6
      vertex -5.35827 8.44328 3.6
    endloop
  endfacet
  facet normal -0 0 1
    outer loop
      vertex -7.34083 11.5673 3.6
      vertex -5.35827 8.44328 3.6
      vertex -5.83318 12.3961 3.6
    endloop
  endfacet
  facet normal 0 0 1
    outer loop
      vertex -5.35827 8.44328 3.6
      vertex -7.34083 11.5673 3.6
      vertex -6.37424 7.70513 3.6
    endloop
  endfacet
  facet normal -0 0 1
    outer loop
      vertex -8.73271 10.556 3.6
      vertex -6.37424 7.70513 3.6
      vertex -7.34083 11.5673 3.6
    endloop
  endfacet
  facet normal 0 0 1
    outer loop
      vertex -6.37424 7.70513 3.6
      vertex -8.73271 10.556 3.6
      vertex -7.28969 6.84547 3.6
    endloop
  endfacet
  facet normal -0 0 1
    outer loop
      vertex -9.98687 9.37829 3.6
      vertex -7.28969 6.84547 3.6
      vertex -8.73271 10.556 3.6
    endloop
  endfacet
  facet normal 0 0 1
    outer loop
      vertex -7.28969 6.84547 3.6
      vertex -9.98687 9.37829 3.6
      vertex -8.09017 5.87785 3.6
    endloop
  endfacet
  facet normal -0 0 1
    outer loop
      vertex -11.0835 8.05266 3.6
      vertex -8.09017 5.87785 3.6
      vertex -9.98687 9.37829 3.6
    endloop
  endfacet
  facet normal 0 0 1
    outer loop
      vertex -8.09017 5.87785 3.6
      vertex -11.0835 8.05266 3.6
      vertex -8.76307 4.81754 3.6
    endloop
  endfacet
  facet normal -0 0 1
    outer loop
      vertex -12.0054 6.60003 3.6
      vertex -8.76307 4.81754 3.6
      vertex -11.0835 8.05266 3.6
    endloop
  endfacet
  facet normal 0 0 1
    outer loop
      vertex -8.76307 4.81754 3.6
      vertex -12.0054 6.60003 3.6
      vertex -9.29776 3.68124 3.6
    endloop
  endfacet
  facet normal -0 0 1
    outer loop
      vertex -12.7379 5.04331 3.6
      vertex -9.29776 3.68124 3.6
      vertex -12.0054 6.60003 3.6
    endloop
  endfacet
  facet normal 0 0 1
    outer loop
      vertex -9.29776 3.68124 3.6
      vertex -12.7379 5.04331 3.6
      vertex -9.68583 2.4869 3.6
    endloop
  endfacet
  facet normal -0 0 1
    outer loop
      vertex 9.29776 -3.68124 3.6
      vertex 12.7379 -5.04331 3.6
      vertex 9.68583 -2.4869 3.6
    endloop
  endfacet
  facet normal 0 0 1
    outer loop
      vertex 12.7379 -5.04331 3.6
      vertex 9.29776 -3.68124 3.6
      vertex 12.0054 -6.60003 3.6
    endloop
  endfacet
  facet normal -0 0 1
    outer loop
      vertex 8.76307 -4.81754 3.6
      vertex 12.0054 -6.60003 3.6
      vertex 9.29776 -3.68124 3.6
    endloop
  endfacet
  facet normal 0 0 1
    outer loop
      vertex 12.0054 -6.60003 3.6
      vertex 8.76307 -4.81754 3.6
      vertex 11.0835 -8.05266 3.6
    endloop
  endfacet
  facet normal -0 0 1
    outer loop
      vertex 8.09017 -5.87785 3.6
      vertex 11.0835 -8.05266 3.6
      vertex 8.76307 -4.81754 3.6
    endloop
  endfacet
  facet normal 0 0 1
    outer loop
      vertex 11.0835 -8.05266 3.6
      vertex 8.09017 -5.87785 3.6
      vertex 9.98687 -9.37829 3.6
    endloop
  endfacet
  facet normal -0 0 1
    outer loop
      vertex 7.28969 -6.84547 3.6
      vertex 9.98687 -9.37829 3.6
      vertex 8.09017 -5.87785 3.6
    endloop
  endfacet
  facet normal 0 0 1
    outer loop
      vertex 9.98687 -9.37829 3.6
      vertex 7.28969 -6.84547 3.6
      vertex 8.73271 -10.556 3.6
    endloop
  endfacet
  facet normal -0 0 1
    outer loop
      vertex 6.37424 -7.70513 3.6
      vertex 8.73271 -10.556 3.6
      vertex 7.28969 -6.84547 3.6
    endloop
  endfacet
  facet normal 0 0 1
    outer loop
      vertex 8.73271 -10.556 3.6
      vertex 6.37424 -7.70513 3.6
      vertex 7.34083 -11.5673 3.6
    endloop
  endfacet
  facet normal -0 0 1
    outer loop
      vertex 5.35827 -8.44328 3.6
      vertex 7.34083 -11.5673 3.6
      vertex 6.37424 -7.70513 3.6
    endloop
  endfacet
  facet normal 0 0 1
    outer loop
      vertex 7.34083 -11.5673 3.6
      vertex 5.35827 -8.44328 3.6
      vertex 5.83318 -12.3961 3.6
    endloop
  endfacet
  facet normal -0 0 1
    outer loop
      vertex 4.25779 -9.04827 3.6
      vertex 5.83318 -12.3961 3.6
      vertex 5.35827 -8.44328 3.6
    endloop
  endfacet
  facet normal 0 0 1
    outer loop
      vertex 4.25779 -9.04827 3.6
      vertex 4.23353 -13.0295 3.6
      vertex 5.83318 -12.3961 3.6
    endloop
  endfacet
  facet normal -0 0 1
    outer loop
      vertex 3.09017 -9.51056 3.6
      vertex 4.23353 -13.0295 3.6
      vertex 4.25779 -9.04827 3.6
    endloop
  endfacet
  facet normal 0 0 1
    outer loop
      vertex 3.09017 -9.51056 3.6
      vertex 2.56712 -13.4573 3.6
      vertex 4.23353 -13.0295 3.6
    endloop
  endfacet
  facet normal -0 0 1
    outer loop
      vertex 1.87381 -9.82287 3.6
      vertex 2.56712 -13.4573 3.6
      vertex 3.09017 -9.51056 3.6
    endloop
  endfacet
  facet normal 0 0 1
    outer loop
      vertex 1.87381 -9.82287 3.6
      vertex 0.860229 -13.673 3.6
      vertex 2.56712 -13.4573 3.6
    endloop
  endfacet
  facet normal -0 0 1
    outer loop
      vertex 0.627905 -9.98027 3.6
      vertex 0.860229 -13.673 3.6
      vertex 1.87381 -9.82287 3.6
    endloop
  endfacet
  facet normal -0 0 1
    outer loop
      vertex -0.627905 -9.98027 3.6
      vertex 0.860229 -13.673 3.6
      vertex 0.627905 -9.98027 3.6
    endloop
  endfacet
  facet normal 0 0 1
    outer loop
      vertex -0.627905 -9.98027 3.6
      vertex -0.860229 -13.673 3.6
      vertex 0.860229 -13.673 3.6
    endloop
  endfacet
  facet normal 0 0 1
    outer loop
      vertex -1.87381 -9.82287 3.6
      vertex -0.860229 -13.673 3.6
      vertex -0.627905 -9.98027 3.6
    endloop
  endfacet
  facet normal 0 0 1
    outer loop
      vertex -1.87381 -9.82287 3.6
      vertex -2.56712 -13.4573 3.6
      vertex -0.860229 -13.673 3.6
    endloop
  endfacet
  facet normal 0 0 1
    outer loop
      vertex -3.09017 -9.51056 3.6
      vertex -2.56712 -13.4573 3.6
      vertex -1.87381 -9.82287 3.6
    endloop
  endfacet
  facet normal 0 0 1
    outer loop
      vertex -3.09017 -9.51056 3.6
      vertex -4.23353 -13.0295 3.6
      vertex -2.56712 -13.4573 3.6
    endloop
  endfacet
  facet normal 0 0 1
    outer loop
      vertex -4.25779 -9.04827 3.6
      vertex -4.23353 -13.0295 3.6
      vertex -3.09017 -9.51056 3.6
    endloop
  endfacet
  facet normal 0 0 1
    outer loop
      vertex -5.83318 -12.3961 3.6
      vertex -4.25779 -9.04827 3.6
      vertex -5.35827 -8.44328 3.6
    endloop
  endfacet
  facet normal 0 0 1
    outer loop
      vertex -4.25779 -9.04827 3.6
      vertex -5.83318 -12.3961 3.6
      vertex -4.23353 -13.0295 3.6
    endloop
  endfacet
  facet normal 0 0 1
    outer loop
      vertex -7.34083 -11.5673 3.6
      vertex -5.35827 -8.44328 3.6
      vertex -6.37424 -7.70513 3.6
    endloop
  endfacet
  facet normal 0 0 1
    outer loop
      vertex -8.73271 -10.556 3.6
      vertex -6.37424 -7.70513 3.6
      vertex -7.28969 -6.84547 3.6
    endloop
  endfacet
  facet normal 0 0 1
    outer loop
      vertex -5.35827 -8.44328 3.6
      vertex -7.34083 -11.5673 3.6
      vertex -5.83318 -12.3961 3.6
    endloop
  endfacet
  facet normal 0 0 1
    outer loop
      vertex -9.98687 -9.37829 3.6
      vertex -7.28969 -6.84547 3.6
      vertex -8.09017 -5.87785 3.6
    endloop
  endfacet
  facet normal 0 0 1
    outer loop
      vertex -6.37424 -7.70513 3.6
      vertex -8.73271 -10.556 3.6
      vertex -7.34083 -11.5673 3.6
    endloop
  endfacet
  facet normal 0 0 1
    outer loop
      vertex -11.0835 -8.05266 3.6
      vertex -8.09017 -5.87785 3.6
      vertex -8.76307 -4.81754 3.6
    endloop
  endfacet
  facet normal 0 0 1
    outer loop
      vertex -12.0054 -6.60003 3.6
      vertex -8.76307 -4.81754 3.6
      vertex -9.29776 -3.68124 3.6
    endloop
  endfacet
  facet normal 0 0 1
    outer loop
      vertex -12.7379 -5.04331 3.6
      vertex -9.29776 -3.68124 3.6
      vertex -9.68583 -2.4869 3.6
    endloop
  endfacet
  facet normal 0 0 1
    outer loop
      vertex -13.2696 -3.40705 3.6
      vertex -9.68583 -2.4869 3.6
      vertex -9.92115 -1.25333 3.6
    endloop
  endfacet
  facet normal 0 0 1
    outer loop
      vertex -7.28969 -6.84547 3.6
      vertex -9.98687 -9.37829 3.6
      vertex -8.73271 -10.556 3.6
    endloop
  endfacet
  facet normal 0 0 1
    outer loop
      vertex -13.592 -1.71706 3.6
      vertex -9.92115 -1.25333 3.6
      vertex -10 0 3.6
    endloop
  endfacet
  facet normal -0 0 1
    outer loop
      vertex -13.2696 3.40705 3.6
      vertex -9.68583 2.4869 3.6
      vertex -12.7379 5.04331 3.6
    endloop
  endfacet
  facet normal 0 0 1
    outer loop
      vertex -8.09017 -5.87785 3.6
      vertex -11.0835 -8.05266 3.6
      vertex -9.98687 -9.37829 3.6
    endloop
  endfacet
  facet normal 0 0 1
    outer loop
      vertex -9.68583 2.4869 3.6
      vertex -13.2696 3.40705 3.6
      vertex -9.92115 1.25333 3.6
    endloop
  endfacet
  facet normal 0 0 1
    outer loop
      vertex -8.76307 -4.81754 3.6
      vertex -12.0054 -6.60003 3.6
      vertex -11.0835 -8.05266 3.6
    endloop
  endfacet
  facet normal -0 0 1
    outer loop
      vertex -13.592 1.71706 3.6
      vertex -9.92115 1.25333 3.6
      vertex -13.2696 3.40705 3.6
    endloop
  endfacet
  facet normal 0 0 1
    outer loop
      vertex -9.29776 -3.68124 3.6
      vertex -12.7379 -5.04331 3.6
      vertex -12.0054 -6.60003 3.6
    endloop
  endfacet
  facet normal 0 0 1
    outer loop
      vertex -9.92115 1.25333 3.6
      vertex -13.592 1.71706 3.6
      vertex -10 0 3.6
    endloop
  endfacet
  facet normal 0 0 1
    outer loop
      vertex -9.68583 -2.4869 3.6
      vertex -13.2696 -3.40705 3.6
      vertex -12.7379 -5.04331 3.6
    endloop
  endfacet
  facet normal 0 0 1
    outer loop
      vertex -13.7 0 3.6
      vertex -10 0 3.6
      vertex -13.592 1.71706 3.6
    endloop
  endfacet
  facet normal 0 0 1
    outer loop
      vertex -9.92115 -1.25333 3.6
      vertex -13.592 -1.71706 3.6
      vertex -13.2696 -3.40705 3.6
    endloop
  endfacet
  facet normal 0 0 1
    outer loop
      vertex -10 0 3.6
      vertex -13.7 0 3.6
      vertex -13.592 -1.71706 3.6
    endloop
  endfacet
  facet normal -0.481737 0.876316 0
    outer loop
      vertex -5.83318 12.3961 0
      vertex -7.34083 11.5673 3.6
      vertex -5.83318 12.3961 3.6
    endloop
  endfacet
  facet normal -0.481737 0.876316 0
    outer loop
      vertex -7.34083 11.5673 3.6
      vertex -5.83318 12.3961 0
      vertex -7.34083 11.5673 0
    endloop
  endfacet
  facet normal -0.248656 0.968592 0
    outer loop
      vertex -2.56712 13.4573 0
      vertex -4.23353 13.0295 3.6
      vertex -2.56712 13.4573 3.6
    endloop
  endfacet
  facet normal -0.248656 0.968592 0
    outer loop
      vertex -4.23353 13.0295 3.6
      vertex -2.56712 13.4573 0
      vertex -4.23353 13.0295 0
    endloop
  endfacet
  facet normal 0 0 -1
    outer loop
      vertex 10 0 0
      vertex 13.7 0 0
      vertex 13.592 -1.71706 0
    endloop
  endfacet
  facet normal 0 0 -1
    outer loop
      vertex 9.92115 -1.25333 0
      vertex 13.592 -1.71706 0
      vertex 13.2696 -3.40705 0
    endloop
  endfacet
  facet normal 0 0 -1
    outer loop
      vertex 13.7 0 0
      vertex 10 0 0
      vertex 13.592 1.71706 0
    endloop
  endfacet
  facet normal 0 0 -1
    outer loop
      vertex 9.68583 -2.4869 0
      vertex 13.2696 -3.40705 0
      vertex 12.7379 -5.04331 0
    endloop
  endfacet
  facet normal 0 0 -1
    outer loop
      vertex 9.92115 1.25333 0
      vertex 13.592 1.71706 0
      vertex 10 0 0
    endloop
  endfacet
  facet normal 0 0 -1
    outer loop
      vertex 9.29776 -3.68124 0
      vertex 12.7379 -5.04331 0
      vertex 12.0054 -6.60003 0
    endloop
  endfacet
  facet normal -0 0 -1
    outer loop
      vertex 13.592 1.71706 0
      vertex 9.92115 1.25333 0
      vertex 13.2696 3.40705 0
    endloop
  endfacet
  facet normal 0 0 -1
    outer loop
      vertex 8.76307 -4.81754 0
      vertex 12.0054 -6.60003 0
      vertex 11.0835 -8.05266 0
    endloop
  endfacet
  facet normal 0 0 -1
    outer loop
      vertex 9.68583 2.4869 0
      vertex 13.2696 3.40705 0
      vertex 9.92115 1.25333 0
    endloop
  endfacet
  facet normal -0 0 -1
    outer loop
      vertex 13.2696 3.40705 0
      vertex 9.68583 2.4869 0
      vertex 12.7379 5.04331 0
    endloop
  endfacet
  facet normal 0 0 -1
    outer loop
      vertex 8.09017 -5.87785 0
      vertex 11.0835 -8.05266 0
      vertex 9.98687 -9.37829 0
    endloop
  endfacet
  facet normal 0 0 -1
    outer loop
      vertex 13.592 -1.71706 0
      vertex 9.92115 -1.25333 0
      vertex 10 0 0
    endloop
  endfacet
  facet normal 0 0 -1
    outer loop
      vertex 13.2696 -3.40705 0
      vertex 9.68583 -2.4869 0
      vertex 9.92115 -1.25333 0
    endloop
  endfacet
  facet normal 0 0 -1
    outer loop
      vertex 12.7379 -5.04331 0
      vertex 9.29776 -3.68124 0
      vertex 9.68583 -2.4869 0
    endloop
  endfacet
  facet normal 0 0 -1
    outer loop
      vertex 12.0054 -6.60003 0
      vertex 8.76307 -4.81754 0
      vertex 9.29776 -3.68124 0
    endloop
  endfacet
  facet normal 0 0 -1
    outer loop
      vertex 7.28969 -6.84547 0
      vertex 9.98687 -9.37829 0
      vertex 8.73271 -10.556 0
    endloop
  endfacet
  facet normal 0 0 -1
    outer loop
      vertex 11.0835 -8.05266 0
      vertex 8.09017 -5.87785 0
      vertex 8.76307 -4.81754 0
    endloop
  endfacet
  facet normal 0 0 -1
    outer loop
      vertex 6.37424 -7.70513 0
      vertex 8.73271 -10.556 0
      vertex 7.34083 -11.5673 0
    endloop
  endfacet
  facet normal 0 0 -1
    outer loop
      vertex 9.98687 -9.37829 0
      vertex 7.28969 -6.84547 0
      vertex 8.09017 -5.87785 0
    endloop
  endfacet
  facet normal 0 0 -1
    outer loop
      vertex 8.73271 -10.556 0
      vertex 6.37424 -7.70513 0
      vertex 7.28969 -6.84547 0
    endloop
  endfacet
  facet normal 0 0 -1
    outer loop
      vertex 5.35827 -8.44328 0
      vertex 7.34083 -11.5673 0
      vertex 5.83318 -12.3961 0
    endloop
  endfacet
  facet normal 0 0 -1
    outer loop
      vertex 7.34083 -11.5673 0
      vertex 5.35827 -8.44328 0
      vertex 6.37424 -7.70513 0
    endloop
  endfacet
  facet normal 0 0 -1
    outer loop
      vertex 5.83318 -12.3961 0
      vertex 4.25779 -9.04827 0
      vertex 5.35827 -8.44328 0
    endloop
  endfacet
  facet normal 0 0 -1
    outer loop
      vertex 4.23353 -13.0295 0
      vertex 4.25779 -9.04827 0
      vertex 5.83318 -12.3961 0
    endloop
  endfacet
  facet normal 0 0 -1
    outer loop
      vertex 4.23353 -13.0295 0
      vertex 3.09017 -9.51056 0
      vertex 4.25779 -9.04827 0
    endloop
  endfacet
  facet normal 0 0 -1
    outer loop
      vertex 2.56712 -13.4573 0
      vertex 3.09017 -9.51056 0
      vertex 4.23353 -13.0295 0
    endloop
  endfacet
  facet normal 0 0 -1
    outer loop
      vertex 2.56712 -13.4573 0
      vertex 1.87381 -9.82287 0
      vertex 3.09017 -9.51056 0
    endloop
  endfacet
  facet normal 0 0 -1
    outer loop
      vertex 0.860229 -13.673 0
      vertex 1.87381 -9.82287 0
      vertex 2.56712 -13.4573 0
    endloop
  endfacet
  facet normal 0 0 -1
    outer loop
      vertex 0.860229 -13.673 0
      vertex 0.627905 -9.98027 0
      vertex 1.87381 -9.82287 0
    endloop
  endfacet
  facet normal 0 0 -1
    outer loop
      vertex 0.860229 -13.673 0
      vertex -0.627905 -9.98027 0
      vertex 0.627905 -9.98027 0
    endloop
  endfacet
  facet normal 0 0 -1
    outer loop
      vertex -0.860229 -13.673 0
      vertex -0.627905 -9.98027 0
      vertex 0.860229 -13.673 0
    endloop
  endfacet
  facet normal 0 0 -1
    outer loop
      vertex -0.860229 -13.673 0
      vertex -1.87381 -9.82287 0
      vertex -0.627905 -9.98027 0
    endloop
  endfacet
  facet normal 0 0 -1
    outer loop
      vertex -2.56712 -13.4573 0
      vertex -1.87381 -9.82287 0
      vertex -0.860229 -13.673 0
    endloop
  endfacet
  facet normal 0 0 -1
    outer loop
      vertex -2.56712 -13.4573 0
      vertex -3.09017 -9.51056 0
      vertex -1.87381 -9.82287 0
    endloop
  endfacet
  facet normal 0 0 -1
    outer loop
      vertex -4.23353 -13.0295 0
      vertex -3.09017 -9.51056 0
      vertex -2.56712 -13.4573 0
    endloop
  endfacet
  facet normal 0 0 -1
    outer loop
      vertex -4.23353 -13.0295 0
      vertex -4.25779 -9.04827 0
      vertex -3.09017 -9.51056 0
    endloop
  endfacet
  facet normal 0 0 -1
    outer loop
      vertex -5.83318 -12.3961 0
      vertex -4.25779 -9.04827 0
      vertex -4.23353 -13.0295 0
    endloop
  endfacet
  facet normal -0 0 -1
    outer loop
      vertex -4.25779 -9.04827 0
      vertex -5.83318 -12.3961 0
      vertex -5.35827 -8.44328 0
    endloop
  endfacet
  facet normal 0 0 -1
    outer loop
      vertex -7.34083 -11.5673 0
      vertex -5.35827 -8.44328 0
      vertex -5.83318 -12.3961 0
    endloop
  endfacet
  facet normal -0 0 -1
    outer loop
      vertex -5.35827 -8.44328 0
      vertex -7.34083 -11.5673 0
      vertex -6.37424 -7.70513 0
    endloop
  endfacet
  facet normal 0 0 -1
    outer loop
      vertex -8.73271 -10.556 0
      vertex -6.37424 -7.70513 0
      vertex -7.34083 -11.5673 0
    endloop
  endfacet
  facet normal -0 0 -1
    outer loop
      vertex -6.37424 -7.70513 0
      vertex -8.73271 -10.556 0
      vertex -7.28969 -6.84547 0
    endloop
  endfacet
  facet normal 0 0 -1
    outer loop
      vertex -9.98687 -9.37829 0
      vertex -7.28969 -6.84547 0
      vertex -8.73271 -10.556 0
    endloop
  endfacet
  facet normal -0 0 -1
    outer loop
      vertex -7.28969 -6.84547 0
      vertex -9.98687 -9.37829 0
      vertex -8.09017 -5.87785 0
    endloop
  endfacet
  facet normal 0 0 -1
    outer loop
      vertex -11.0835 -8.05266 0
      vertex -8.09017 -5.87785 0
      vertex -9.98687 -9.37829 0
    endloop
  endfacet
  facet normal -0 0 -1
    outer loop
      vertex -8.09017 -5.87785 0
      vertex -11.0835 -8.05266 0
      vertex -8.76307 -4.81754 0
    endloop
  endfacet
  facet normal 0 0 -1
    outer loop
      vertex -12.0054 -6.60003 0
      vertex -8.76307 -4.81754 0
      vertex -11.0835 -8.05266 0
    endloop
  endfacet
  facet normal -0 0 -1
    outer loop
      vertex -8.76307 -4.81754 0
      vertex -12.0054 -6.60003 0
      vertex -9.29776 -3.68124 0
    endloop
  endfacet
  facet normal 0 0 -1
    outer loop
      vertex -12.7379 -5.04331 0
      vertex -9.29776 -3.68124 0
      vertex -12.0054 -6.60003 0
    endloop
  endfacet
  facet normal -0 0 -1
    outer loop
      vertex -9.29776 -3.68124 0
      vertex -12.7379 -5.04331 0
      vertex -9.68583 -2.4869 0
    endloop
  endfacet
  facet normal 0 0 -1
    outer loop
      vertex 9.29776 3.68124 0
      vertex 12.7379 5.04331 0
      vertex 9.68583 2.4869 0
    endloop
  endfacet
  facet normal -0 0 -1
    outer loop
      vertex 12.7379 5.04331 0
      vertex 9.29776 3.68124 0
      vertex 12.0054 6.60003 0
    endloop
  endfacet
  facet normal 0 0 -1
    outer loop
      vertex 8.76307 4.81754 0
      vertex 12.0054 6.60003 0
      vertex 9.29776 3.68124 0
    endloop
  endfacet
  facet normal -0 0 -1
    outer loop
      vertex 12.0054 6.60003 0
      vertex 8.76307 4.81754 0
      vertex 11.0835 8.05266 0
    endloop
  endfacet
  facet normal 0 0 -1
    outer loop
      vertex 8.09017 5.87785 0
      vertex 11.0835 8.05266 0
      vertex 8.76307 4.81754 0
    endloop
  endfacet
  facet normal -0 0 -1
    outer loop
      vertex 11.0835 8.05266 0
      vertex 8.09017 5.87785 0
      vertex 9.98687 9.37829 0
    endloop
  endfacet
  facet normal 0 0 -1
    outer loop
      vertex 7.28969 6.84547 0
      vertex 9.98687 9.37829 0
      vertex 8.09017 5.87785 0
    endloop
  endfacet
  facet normal -0 0 -1
    outer loop
      vertex 9.98687 9.37829 0
      vertex 7.28969 6.84547 0
      vertex 8.73271 10.556 0
    endloop
  endfacet
  facet normal 0 0 -1
    outer loop
      vertex 6.37424 7.70513 0
      vertex 8.73271 10.556 0
      vertex 7.28969 6.84547 0
    endloop
  endfacet
  facet normal -0 0 -1
    outer loop
      vertex 8.73271 10.556 0
      vertex 6.37424 7.70513 0
      vertex 7.34083 11.5673 0
    endloop
  endfacet
  facet normal 0 0 -1
    outer loop
      vertex 5.35827 8.44328 0
      vertex 7.34083 11.5673 0
      vertex 6.37424 7.70513 0
    endloop
  endfacet
  facet normal -0 0 -1
    outer loop
      vertex 7.34083 11.5673 0
      vertex 5.35827 8.44328 0
      vertex 5.83318 12.3961 0
    endloop
  endfacet
  facet normal 0 0 -1
    outer loop
      vertex 4.25779 9.04827 0
      vertex 5.83318 12.3961 0
      vertex 5.35827 8.44328 0
    endloop
  endfacet
  facet normal 0 0 -1
    outer loop
      vertex 4.25779 9.04827 0
      vertex 4.23353 13.0295 0
      vertex 5.83318 12.3961 0
    endloop
  endfacet
  facet normal 0 0 -1
    outer loop
      vertex 3.09017 9.51056 0
      vertex 4.23353 13.0295 0
      vertex 4.25779 9.04827 0
    endloop
  endfacet
  facet normal 0 0 -1
    outer loop
      vertex 3.09017 9.51056 0
      vertex 2.56712 13.4573 0
      vertex 4.23353 13.0295 0
    endloop
  endfacet
  facet normal 0 0 -1
    outer loop
      vertex 1.87381 9.82287 0
      vertex 2.56712 13.4573 0
      vertex 3.09017 9.51056 0
    endloop
  endfacet
  facet normal 0 0 -1
    outer loop
      vertex 1.87381 9.82287 0
      vertex 0.860229 13.673 0
      vertex 2.56712 13.4573 0
    endloop
  endfacet
  facet normal 0 0 -1
    outer loop
      vertex 0.627905 9.98027 0
      vertex 0.860229 13.673 0
      vertex 1.87381 9.82287 0
    endloop
  endfacet
  facet normal 0 0 -1
    outer loop
      vertex -0.627905 9.98027 0
      vertex 0.860229 13.673 0
      vertex 0.627905 9.98027 0
    endloop
  endfacet
  facet normal 0 0 -1
    outer loop
      vertex -0.627905 9.98027 0
      vertex -0.860229 13.673 0
      vertex 0.860229 13.673 0
    endloop
  endfacet
  facet normal 0 0 -1
    outer loop
      vertex -1.87381 9.82287 0
      vertex -0.860229 13.673 0
      vertex -0.627905 9.98027 0
    endloop
  endfacet
  facet normal 0 0 -1
    outer loop
      vertex -1.87381 9.82287 0
      vertex -2.56712 13.4573 0
      vertex -0.860229 13.673 0
    endloop
  endfacet
  facet normal 0 0 -1
    outer loop
      vertex -3.09017 9.51056 0
      vertex -2.56712 13.4573 0
      vertex -1.87381 9.82287 0
    endloop
  endfacet
  facet normal 0 0 -1
    outer loop
      vertex -3.09017 9.51056 0
      vertex -4.23353 13.0295 0
      vertex -2.56712 13.4573 0
    endloop
  endfacet
  facet normal 0 0 -1
    outer loop
      vertex -4.25779 9.04827 0
      vertex -4.23353 13.0295 0
      vertex -3.09017 9.51056 0
    endloop
  endfacet
  facet normal 0 0 -1
    outer loop
      vertex -5.83318 12.3961 0
      vertex -4.25779 9.04827 0
      vertex -5.35827 8.44328 0
    endloop
  endfacet
  facet normal 0 0 -1
    outer loop
      vertex -4.25779 9.04827 0
      vertex -5.83318 12.3961 0
      vertex -4.23353 13.0295 0
    endloop
  endfacet
  facet normal 0 0 -1
    outer loop
      vertex -7.34083 11.5673 0
      vertex -5.35827 8.44328 0
      vertex -6.37424 7.70513 0
    endloop
  endfacet
  facet normal 0 0 -1
    outer loop
      vertex -8.73271 10.556 0
      vertex -6.37424 7.70513 0
      vertex -7.28969 6.84547 0
    endloop
  endfacet
  facet normal 0 0 -1
    outer loop
      vertex -5.35827 8.44328 0
      vertex -7.34083 11.5673 0
      vertex -5.83318 12.3961 0
    endloop
  endfacet
  facet normal 0 0 -1
    outer loop
      vertex -9.98687 9.37829 0
      vertex -7.28969 6.84547 0
      vertex -8.09017 5.87785 0
    endloop
  endfacet
  facet normal 0 0 -1
    outer loop
      vertex -6.37424 7.70513 0
      vertex -8.73271 10.556 0
      vertex -7.34083 11.5673 0
    endloop
  endfacet
  facet normal 0 0 -1
    outer loop
      vertex -11.0835 8.05266 0
      vertex -8.09017 5.87785 0
      vertex -8.76307 4.81754 0
    endloop
  endfacet
  facet normal 0 0 -1
    outer loop
      vertex -12.0054 6.60003 0
      vertex -8.76307 4.81754 0
      vertex -9.29776 3.68124 0
    endloop
  endfacet
  facet normal 0 0 -1
    outer loop
      vertex -12.7379 5.04331 0
      vertex -9.29776 3.68124 0
      vertex -9.68583 2.4869 0
    endloop
  endfacet
  facet normal 0 0 -1
    outer loop
      vertex -13.2696 3.40705 0
      vertex -9.68583 2.4869 0
      vertex -9.92115 1.25333 0
    endloop
  endfacet
  facet normal 0 0 -1
    outer loop
      vertex -7.28969 6.84547 0
      vertex -9.98687 9.37829 0
      vertex -8.73271 10.556 0
    endloop
  endfacet
  facet normal 0 0 -1
    outer loop
      vertex -13.592 1.71706 0
      vertex -9.92115 1.25333 0
      vertex -10 0 0
    endloop
  endfacet
  facet normal 0 0 -1
    outer loop
      vertex -13.2696 -3.40705 0
      vertex -9.68583 -2.4869 0
      vertex -12.7379 -5.04331 0
    endloop
  endfacet
  facet normal 0 0 -1
    outer loop
      vertex -8.09017 5.87785 0
      vertex -11.0835 8.05266 0
      vertex -9.98687 9.37829 0
    endloop
  endfacet
  facet normal -0 0 -1
    outer loop
      vertex -9.68583 -2.4869 0
      vertex -13.2696 -3.40705 0
      vertex -9.92115 -1.25333 0
    endloop
  endfacet
  facet normal 0 0 -1
    outer loop
      vertex -8.76307 4.81754 0
      vertex -12.0054 6.60003 0
      vertex -11.0835 8.05266 0
    endloop
  endfacet
  facet normal 0 0 -1
    outer loop
      vertex -13.592 -1.71706 0
      vertex -9.92115 -1.25333 0
      vertex -13.2696 -3.40705 0
    endloop
  endfacet
  facet normal 0 0 -1
    outer loop
      vertex -9.29776 3.68124 0
      vertex -12.7379 5.04331 0
      vertex -12.0054 6.60003 0
    endloop
  endfacet
  facet normal -0 0 -1
    outer loop
      vertex -9.92115 -1.25333 0
      vertex -13.592 -1.71706 0
      vertex -10 0 0
    endloop
  endfacet
  facet normal 0 0 -1
    outer loop
      vertex -9.68583 2.4869 0
      vertex -13.2696 3.40705 0
      vertex -12.7379 5.04331 0
    endloop
  endfacet
  facet normal 0 0 -1
    outer loop
      vertex -13.7 0 0
      vertex -10 0 0
      vertex -13.592 -1.71706 0
    endloop
  endfacet
  facet normal 0 0 -1
    outer loop
      vertex -9.92115 1.25333 0
      vertex -13.592 1.71706 0
      vertex -13.2696 3.40705 0
    endloop
  endfacet
  facet normal 0 0 -1
    outer loop
      vertex -10 0 0
      vertex -13.7 0 0
      vertex -13.592 1.71706 0
    endloop
  endfacet
  facet normal 0.125373 -0.99211 0
    outer loop
      vertex 0.860229 -13.673 0
      vertex 2.56712 -13.4573 3.6
      vertex 0.860229 -13.673 3.6
    endloop
  endfacet
  facet normal 0.125373 -0.99211 0
    outer loop
      vertex 2.56712 -13.4573 3.6
      vertex 0.860229 -13.673 0
      vertex 2.56712 -13.4573 0
    endloop
  endfacet
  facet normal 0.951049 0.309042 -2.74826e-18
    outer loop
      vertex 13.2696 3.40705 3.6
      vertex 12.7379 5.04331 0
      vertex 12.7379 5.04331 3.6
    endloop
  endfacet
  facet normal 0.951049 0.309042 -2.74826e-18
    outer loop
      vertex 12.7379 5.04331 0
      vertex 13.2696 3.40705 3.6
      vertex 13.2696 3.40705 0
    endloop
  endfacet
  facet normal 0.982285 0.187391 -6.99323e-18
    outer loop
      vertex 13.592 1.71706 3.6
      vertex 13.2696 3.40705 0
      vertex 13.2696 3.40705 3.6
    endloop
  endfacet
  facet normal 0.982285 0.187391 -6.99323e-18
    outer loop
      vertex 13.2696 3.40705 0
      vertex 13.592 1.71706 3.6
      vertex 13.592 1.71706 0
    endloop
  endfacet
  facet normal 0.770521 0.637415 -6.87959e-18
    outer loop
      vertex 11.0835 8.05266 3.6
      vertex 9.98687 9.37829 0
      vertex 9.98687 9.37829 3.6
    endloop
  endfacet
  facet normal 0.770521 0.637415 -6.87959e-18
    outer loop
      vertex 9.98687 9.37829 0
      vertex 11.0835 8.05266 3.6
      vertex 11.0835 8.05266 0
    endloop
  endfacet
  facet normal 0.844319 0.53584 1.75049e-17
    outer loop
      vertex 12.0054 6.60003 3.6
      vertex 11.0835 8.05266 0
      vertex 11.0835 8.05266 3.6
    endloop
  endfacet
  facet normal 0.844319 0.53584 1.75049e-17
    outer loop
      vertex 11.0835 8.05266 0
      vertex 12.0054 6.60003 3.6
      vertex 12.0054 6.60003 0
    endloop
  endfacet
  facet normal 0.248656 0.968592 -0
    outer loop
      vertex 4.23353 13.0295 0
      vertex 2.56712 13.4573 3.6
      vertex 4.23353 13.0295 3.6
    endloop
  endfacet
  facet normal 0.248656 0.968592 0
    outer loop
      vertex 2.56712 13.4573 3.6
      vertex 4.23353 13.0295 0
      vertex 2.56712 13.4573 0
    endloop
  endfacet
  facet normal 0.125373 0.99211 -0
    outer loop
      vertex 2.56712 13.4573 0
      vertex 0.860229 13.673 3.6
      vertex 2.56712 13.4573 3.6
    endloop
  endfacet
  facet normal 0.125373 0.99211 0
    outer loop
      vertex 0.860229 13.673 3.6
      vertex 2.56712 13.4573 0
      vertex 0.860229 13.673 0
    endloop
  endfacet
  facet normal -0.951049 0.309042 2.74826e-18
    outer loop
      vertex -13.2696 3.40705 0
      vertex -12.7379 5.04331 3.6
      vertex -12.7379 5.04331 0
    endloop
  endfacet
  facet normal -0.951049 0.309042 2.74826e-18
    outer loop
      vertex -12.7379 5.04331 3.6
      vertex -13.2696 3.40705 0
      vertex -13.2696 3.40705 3.6
    endloop
  endfacet
  facet normal -0.982285 0.187391 6.99323e-18
    outer loop
      vertex -13.592 1.71706 0
      vertex -13.2696 3.40705 3.6
      vertex -13.2696 3.40705 0
    endloop
  endfacet
  facet normal -0.982285 0.187391 6.99323e-18
    outer loop
      vertex -13.2696 3.40705 3.6
      vertex -13.592 1.71706 0
      vertex -13.592 1.71706 3.6
    endloop
  endfacet
  facet normal -0.125373 0.99211 0
    outer loop
      vertex -0.860229 13.673 0
      vertex -2.56712 13.4573 3.6
      vertex -0.860229 13.673 3.6
    endloop
  endfacet
  facet normal -0.125373 0.99211 0
    outer loop
      vertex -2.56712 13.4573 3.6
      vertex -0.860229 13.673 0
      vertex -2.56712 13.4573 0
    endloop
  endfacet
  facet normal 0.998028 -0.0627742 4.87955e-19
    outer loop
      vertex 13.592 -1.71706 3.6
      vertex 13.7 0 0
      vertex 13.7 0 3.6
    endloop
  endfacet
  facet normal 0.998028 -0.0627742 4.87955e-19
    outer loop
      vertex 13.7 0 0
      vertex 13.592 -1.71706 3.6
      vertex 13.592 -1.71706 0
    endloop
  endfacet
  facet normal 0.904835 -0.425762 -7.00208e-20
    outer loop
      vertex 12.0054 -6.60003 3.6
      vertex 12.7379 -5.04331 0
      vertex 12.7379 -5.04331 3.6
    endloop
  endfacet
  facet normal 0.904835 -0.425762 -7.00208e-20
    outer loop
      vertex 12.7379 -5.04331 0
      vertex 12.0054 -6.60003 3.6
      vertex 12.0054 -6.60003 0
    endloop
  endfacet
  facet normal -0.481737 -0.876316 0
    outer loop
      vertex -7.34083 -11.5673 0
      vertex -5.83318 -12.3961 3.6
      vertex -7.34083 -11.5673 3.6
    endloop
  endfacet
  facet normal -0.481737 -0.876316 -0
    outer loop
      vertex -5.83318 -12.3961 3.6
      vertex -7.34083 -11.5673 0
      vertex -5.83318 -12.3961 0
    endloop
  endfacet
  facet normal -0.904835 -0.425762 7.00208e-20
    outer loop
      vertex -12.0054 -6.60003 0
      vertex -12.7379 -5.04331 3.6
      vertex -12.7379 -5.04331 0
    endloop
  endfacet
  facet normal -0.904835 -0.425762 7.00208e-20
    outer loop
      vertex -12.7379 -5.04331 3.6
      vertex -12.0054 -6.60003 0
      vertex -12.0054 -6.60003 3.6
    endloop
  endfacet
  facet normal 0.481737 -0.876316 0
    outer loop
      vertex 5.83318 -12.3961 0
      vertex 7.34083 -11.5673 3.6
      vertex 5.83318 -12.3961 3.6
    endloop
  endfacet
  facet normal 0.481737 -0.876316 0
    outer loop
      vertex 7.34083 -11.5673 3.6
      vertex 5.83318 -12.3961 0
      vertex 7.34083 -11.5673 0
    endloop
  endfacet
  facet normal 0.368152 -0.929766 0
    outer loop
      vertex 4.23353 -13.0295 0
      vertex 5.83318 -12.3961 3.6
      vertex 4.23353 -13.0295 3.6
    endloop
  endfacet
  facet normal 0.368152 -0.929766 0
    outer loop
      vertex 5.83318 -12.3961 3.6
      vertex 4.23353 -13.0295 0
      vertex 5.83318 -12.3961 0
    endloop
  endfacet
  facet normal 0.481737 0.876316 -0
    outer loop
      vertex 7.34083 11.5673 0
      vertex 5.83318 12.3961 3.6
      vertex 7.34083 11.5673 3.6
    endloop
  endfacet
  facet normal 0.481737 0.876316 0
    outer loop
      vertex 5.83318 12.3961 3.6
      vertex 7.34083 11.5673 0
      vertex 5.83318 12.3961 0
    endloop
  endfacet
  facet normal -0.770521 0.637415 6.87959e-18
    outer loop
      vertex -11.0835 8.05266 0
      vertex -9.98687 9.37829 3.6
      vertex -9.98687 9.37829 0
    endloop
  endfacet
  facet normal -0.770521 0.637415 6.87959e-18
    outer loop
      vertex -9.98687 9.37829 3.6
      vertex -11.0835 8.05266 0
      vertex -11.0835 8.05266 3.6
    endloop
  endfacet
  facet normal -0.5878 0.809006 0
    outer loop
      vertex -7.34083 11.5673 0
      vertex -8.73271 10.556 3.6
      vertex -7.34083 11.5673 3.6
    endloop
  endfacet
  facet normal -0.5878 0.809006 0
    outer loop
      vertex -8.73271 10.556 3.6
      vertex -7.34083 11.5673 0
      vertex -8.73271 10.556 0
    endloop
  endfacet
  facet normal 0.951049 -0.309042 2.74826e-18
    outer loop
      vertex 12.7379 -5.04331 3.6
      vertex 13.2696 -3.40705 0
      vertex 13.2696 -3.40705 3.6
    endloop
  endfacet
  facet normal 0.951049 -0.309042 2.74826e-18
    outer loop
      vertex 13.2696 -3.40705 0
      vertex 12.7379 -5.04331 3.6
      vertex 12.7379 -5.04331 0
    endloop
  endfacet
  facet normal 0.982285 -0.187391 6.99323e-18
    outer loop
      vertex 13.2696 -3.40705 3.6
      vertex 13.592 -1.71706 0
      vertex 13.592 -1.71706 3.6
    endloop
  endfacet
  facet normal 0.982285 -0.187391 6.99323e-18
    outer loop
      vertex 13.592 -1.71706 0
      vertex 13.2696 -3.40705 3.6
      vertex 13.2696 -3.40705 0
    endloop
  endfacet
  facet normal -0.368152 -0.929766 0
    outer loop
      vertex -5.83318 -12.3961 0
      vertex -4.23353 -13.0295 3.6
      vertex -5.83318 -12.3961 3.6
    endloop
  endfacet
  facet normal -0.368152 -0.929766 -0
    outer loop
      vertex -4.23353 -13.0295 3.6
      vertex -5.83318 -12.3961 0
      vertex -4.23353 -13.0295 0
    endloop
  endfacet
  facet normal -0.5878 -0.809006 0
    outer loop
      vertex -8.73271 -10.556 0
      vertex -7.34083 -11.5673 3.6
      vertex -8.73271 -10.556 3.6
    endloop
  endfacet
  facet normal -0.5878 -0.809006 -0
    outer loop
      vertex -7.34083 -11.5673 3.6
      vertex -8.73271 -10.556 0
      vertex -7.34083 -11.5673 0
    endloop
  endfacet
  facet normal -0.998028 -0.0627742 -4.87955e-19
    outer loop
      vertex -13.592 -1.71706 0
      vertex -13.7 0 3.6
      vertex -13.7 0 0
    endloop
  endfacet
  facet normal -0.998028 -0.0627742 -4.87955e-19
    outer loop
      vertex -13.7 0 3.6
      vertex -13.592 -1.71706 0
      vertex -13.592 -1.71706 3.6
    endloop
  endfacet
  facet normal -0.982285 -0.187391 -6.99323e-18
    outer loop
      vertex -13.2696 -3.40705 0
      vertex -13.592 -1.71706 3.6
      vertex -13.592 -1.71706 0
    endloop
  endfacet
  facet normal -0.982285 -0.187391 -6.99323e-18
    outer loop
      vertex -13.592 -1.71706 3.6
      vertex -13.2696 -3.40705 0
      vertex -13.2696 -3.40705 3.6
    endloop
  endfacet
  facet normal -0.951049 -0.309042 -2.74826e-18
    outer loop
      vertex -12.7379 -5.04331 0
      vertex -13.2696 -3.40705 3.6
      vertex -13.2696 -3.40705 0
    endloop
  endfacet
  facet normal -0.951049 -0.309042 -2.74826e-18
    outer loop
      vertex -13.2696 -3.40705 3.6
      vertex -12.7379 -5.04331 0
      vertex -12.7379 -5.04331 3.6
    endloop
  endfacet
  facet normal 0.5878 -0.809006 0
    outer loop
      vertex 7.34083 -11.5673 0
      vertex 8.73271 -10.556 3.6
      vertex 7.34083 -11.5673 3.6
    endloop
  endfacet
  facet normal 0.5878 -0.809006 0
    outer loop
      vertex 8.73271 -10.556 3.6
      vertex 7.34083 -11.5673 0
      vertex 8.73271 -10.556 0
    endloop
  endfacet
  facet normal 0.248656 -0.968592 0
    outer loop
      vertex 2.56712 -13.4573 0
      vertex 4.23353 -13.0295 3.6
      vertex 2.56712 -13.4573 3.6
    endloop
  endfacet
  facet normal 0.248656 -0.968592 0
    outer loop
      vertex 4.23353 -13.0295 3.6
      vertex 2.56712 -13.4573 0
      vertex 4.23353 -13.0295 0
    endloop
  endfacet
  facet normal 0.844319 -0.53584 -1.75049e-17
    outer loop
      vertex 11.0835 -8.05266 3.6
      vertex 12.0054 -6.60003 0
      vertex 12.0054 -6.60003 3.6
    endloop
  endfacet
  facet normal 0.844319 -0.53584 -1.75049e-17
    outer loop
      vertex 12.0054 -6.60003 0
      vertex 11.0835 -8.05266 3.6
      vertex 11.0835 -8.05266 0
    endloop
  endfacet
  facet normal 0.770521 -0.637415 6.87959e-18
    outer loop
      vertex 9.98687 -9.37829 3.6
      vertex 11.0835 -8.05266 0
      vertex 11.0835 -8.05266 3.6
    endloop
  endfacet
  facet normal 0.770521 -0.637415 6.87959e-18
    outer loop
      vertex 11.0835 -8.05266 0
      vertex 9.98687 -9.37829 3.6
      vertex 9.98687 -9.37829 0
    endloop
  endfacet
  facet normal -0.125373 -0.99211 0
    outer loop
      vertex -2.56712 -13.4573 0
      vertex -0.860229 -13.673 3.6
      vertex -2.56712 -13.4573 3.6
    endloop
  endfacet
  facet normal -0.125373 -0.99211 -0
    outer loop
      vertex -0.860229 -13.673 3.6
      vertex -2.56712 -13.4573 0
      vertex -0.860229 -13.673 0
    endloop
  endfacet
  facet normal -0.684539 -0.728976 0
    outer loop
      vertex -9.98687 -9.37829 0
      vertex -8.73271 -10.556 3.6
      vertex -9.98687 -9.37829 3.6
    endloop
  endfacet
  facet normal -0.684539 -0.728976 -0
    outer loop
      vertex -8.73271 -10.556 3.6
      vertex -9.98687 -9.37829 0
      vertex -8.73271 -10.556 0
    endloop
  endfacet
  facet normal -0.770521 -0.637415 -6.87959e-18
    outer loop
      vertex -9.98687 -9.37829 0
      vertex -11.0835 -8.05266 3.6
      vertex -11.0835 -8.05266 0
    endloop
  endfacet
  facet normal -0.770521 -0.637415 -6.87959e-18
    outer loop
      vertex -11.0835 -8.05266 3.6
      vertex -9.98687 -9.37829 0
      vertex -9.98687 -9.37829 3.6
    endloop
  endfacet
  facet normal -0.844319 -0.53584 1.75049e-17
    outer loop
      vertex -11.0835 -8.05266 0
      vertex -12.0054 -6.60003 3.6
      vertex -12.0054 -6.60003 0
    endloop
  endfacet
  facet normal -0.844319 -0.53584 1.75049e-17
    outer loop
      vertex -12.0054 -6.60003 3.6
      vertex -11.0835 -8.05266 0
      vertex -11.0835 -8.05266 3.6
    endloop
  endfacet
  facet normal 0.684539 -0.728976 0
    outer loop
      vertex 8.73271 -10.556 0
      vertex 9.98687 -9.37829 3.6
      vertex 8.73271 -10.556 3.6
    endloop
  endfacet
  facet normal 0.684539 -0.728976 0
    outer loop
      vertex 9.98687 -9.37829 3.6
      vertex 8.73271 -10.556 0
      vertex 9.98687 -9.37829 0
    endloop
  endfacet
  facet normal -0.248656 -0.968592 0
    outer loop
      vertex -4.23353 -13.0295 0
      vertex -2.56712 -13.4573 3.6
      vertex -4.23353 -13.0295 3.6
    endloop
  endfacet
  facet normal -0.248656 -0.968592 -0
    outer loop
      vertex -2.56712 -13.4573 3.6
      vertex -4.23353 -13.0295 0
      vertex -2.56712 -13.4573 0
    endloop
  endfacet
  facet normal -0.998027 -0.0627883 -3.74718e-19
    outer loop
      vertex 10 0 0
      vertex 9.92115 1.25333 3.6
      vertex 9.92115 1.25333 0
    endloop
  endfacet
  facet normal -0.998027 -0.0627883 -3.74718e-19
    outer loop
      vertex 9.92115 1.25333 3.6
      vertex 10 0 0
      vertex 10 0 3.6
    endloop
  endfacet
  facet normal 0.998027 -0.0627883 3.74718e-19
    outer loop
      vertex -10 0 3.6
      vertex -9.92115 1.25333 0
      vertex -9.92115 1.25333 3.6
    endloop
  endfacet
  facet normal 0.998027 -0.0627883 3.74718e-19
    outer loop
      vertex -9.92115 1.25333 0
      vertex -10 0 3.6
      vertex -10 0 0
    endloop
  endfacet
  facet normal 0 -1 0
    outer loop
      vertex -0.627905 9.98027 0
      vertex 0.627905 9.98027 3.6
      vertex -0.627905 9.98027 3.6
    endloop
  endfacet
  facet normal 0 -1 -0
    outer loop
      vertex 0.627905 9.98027 3.6
      vertex -0.627905 9.98027 0
      vertex 0.627905 9.98027 0
    endloop
  endfacet
  facet normal -0.684545 -0.728971 0
    outer loop
      vertex 6.37424 7.70513 0
      vertex 7.28969 6.84547 3.6
      vertex 6.37424 7.70513 3.6
    endloop
  endfacet
  facet normal -0.684545 -0.728971 -0
    outer loop
      vertex 7.28969 6.84547 3.6
      vertex 6.37424 7.70513 0
      vertex 7.28969 6.84547 0
    endloop
  endfacet
  facet normal 0.684545 -0.728971 0
    outer loop
      vertex -7.28969 6.84547 0
      vertex -6.37424 7.70513 3.6
      vertex -7.28969 6.84547 3.6
    endloop
  endfacet
  facet normal 0.684545 -0.728971 0
    outer loop
      vertex -6.37424 7.70513 3.6
      vertex -7.28969 6.84547 0
      vertex -6.37424 7.70513 0
    endloop
  endfacet
  facet normal 0.368122 -0.929777 0
    outer loop
      vertex -4.25779 9.04827 0
      vertex -3.09017 9.51056 3.6
      vertex -4.25779 9.04827 3.6
    endloop
  endfacet
  facet normal 0.368122 -0.929777 0
    outer loop
      vertex -3.09017 9.51056 3.6
      vertex -4.25779 9.04827 0
      vertex -3.09017 9.51056 0
    endloop
  endfacet
  facet normal -0.904831 -0.425771 -6.27125e-18
    outer loop
      vertex 9.29776 3.68124 0
      vertex 8.76307 4.81754 3.6
      vertex 8.76307 4.81754 0
    endloop
  endfacet
  facet normal -0.904831 -0.425771 -6.27125e-18
    outer loop
      vertex 8.76307 4.81754 3.6
      vertex 9.29776 3.68124 0
      vertex 9.29776 3.68124 3.6
    endloop
  endfacet
  facet normal -0.844325 -0.535831 3.90906e-18
    outer loop
      vertex 8.76307 4.81754 0
      vertex 8.09017 5.87785 3.6
      vertex 8.09017 5.87785 0
    endloop
  endfacet
  facet normal -0.844325 -0.535831 3.90906e-18
    outer loop
      vertex 8.09017 5.87785 3.6
      vertex 8.76307 4.81754 0
      vertex 8.76307 4.81754 3.6
    endloop
  endfacet
  facet normal -0.368122 -0.929777 0
    outer loop
      vertex 3.09017 9.51056 0
      vertex 4.25779 9.04827 3.6
      vertex 3.09017 9.51056 3.6
    endloop
  endfacet
  facet normal -0.368122 -0.929777 -0
    outer loop
      vertex 4.25779 9.04827 3.6
      vertex 3.09017 9.51056 0
      vertex 4.25779 9.04827 0
    endloop
  endfacet
  facet normal -0.248691 -0.968583 0
    outer loop
      vertex 1.87381 9.82287 0
      vertex 3.09017 9.51056 3.6
      vertex 1.87381 9.82287 3.6
    endloop
  endfacet
  facet normal -0.248691 -0.968583 -0
    outer loop
      vertex 3.09017 9.51056 3.6
      vertex 1.87381 9.82287 0
      vertex 3.09017 9.51056 0
    endloop
  endfacet
  facet normal -0.587788 -0.809015 0
    outer loop
      vertex 5.35827 8.44328 0
      vertex 6.37424 7.70513 3.6
      vertex 5.35827 8.44328 3.6
    endloop
  endfacet
  facet normal -0.587788 -0.809015 -0
    outer loop
      vertex 6.37424 7.70513 3.6
      vertex 5.35827 8.44328 0
      vertex 6.37424 7.70513 0
    endloop
  endfacet
  facet normal 0.844325 -0.535831 -3.90906e-18
    outer loop
      vertex -8.76307 4.81754 3.6
      vertex -8.09017 5.87785 0
      vertex -8.09017 5.87785 3.6
    endloop
  endfacet
  facet normal 0.844325 -0.535831 -3.90906e-18
    outer loop
      vertex -8.09017 5.87785 0
      vertex -8.76307 4.81754 3.6
      vertex -8.76307 4.81754 0
    endloop
  endfacet
  facet normal 0.770515 -0.637422 -1.04681e-17
    outer loop
      vertex -8.09017 5.87785 3.6
      vertex -7.28969 6.84547 0
      vertex -7.28969 6.84547 3.6
    endloop
  endfacet
  facet normal 0.770515 -0.637422 -1.04681e-17
    outer loop
      vertex -7.28969 6.84547 0
      vertex -8.09017 5.87785 3.6
      vertex -8.09017 5.87785 0
    endloop
  endfacet
  facet normal 0.951055 -0.309021 -4.27479e-18
    outer loop
      vertex -9.68583 2.4869 3.6
      vertex -9.29776 3.68124 0
      vertex -9.29776 3.68124 3.6
    endloop
  endfacet
  facet normal 0.951055 -0.309021 -4.27479e-18
    outer loop
      vertex -9.29776 3.68124 0
      vertex -9.68583 2.4869 3.6
      vertex -9.68583 2.4869 0
    endloop
  endfacet
  facet normal 0.481751 -0.876308 0
    outer loop
      vertex -5.35827 8.44328 0
      vertex -4.25779 9.04827 3.6
      vertex -5.35827 8.44328 3.6
    endloop
  endfacet
  facet normal 0.481751 -0.876308 0
    outer loop
      vertex -4.25779 9.04827 3.6
      vertex -5.35827 8.44328 0
      vertex -4.25779 9.04827 0
    endloop
  endfacet
  facet normal 0.125338 -0.992114 0
    outer loop
      vertex -1.87381 9.82287 0
      vertex -0.627905 9.98027 3.6
      vertex -1.87381 9.82287 3.6
    endloop
  endfacet
  facet normal 0.125338 -0.992114 0
    outer loop
      vertex -0.627905 9.98027 3.6
      vertex -1.87381 9.82287 0
      vertex -0.627905 9.98027 0
    endloop
  endfacet
  facet normal -0.998027 0.0627883 3.74718e-19
    outer loop
      vertex 9.92115 -1.25333 0
      vertex 10 0 3.6
      vertex 10 0 0
    endloop
  endfacet
  facet normal -0.998027 0.0627883 3.74718e-19
    outer loop
      vertex 10 0 3.6
      vertex 9.92115 -1.25333 0
      vertex 9.92115 -1.25333 3.6
    endloop
  endfacet
  facet normal 0.248691 0.968583 -0
    outer loop
      vertex -1.87381 -9.82287 0
      vertex -3.09017 -9.51056 3.6
      vertex -1.87381 -9.82287 3.6
    endloop
  endfacet
  facet normal 0.248691 0.968583 0
    outer loop
      vertex -3.09017 -9.51056 3.6
      vertex -1.87381 -9.82287 0
      vertex -3.09017 -9.51056 0
    endloop
  endfacet
  facet normal -0.125338 0.992114 0
    outer loop
      vertex 1.87381 -9.82287 0
      vertex 0.627905 -9.98027 3.6
      vertex 1.87381 -9.82287 3.6
    endloop
  endfacet
  facet normal -0.125338 0.992114 0
    outer loop
      vertex 0.627905 -9.98027 3.6
      vertex 1.87381 -9.82287 0
      vertex 0.627905 -9.98027 0
    endloop
  endfacet
  facet normal -0.951055 -0.309021 4.27479e-18
    outer loop
      vertex 9.68583 2.4869 0
      vertex 9.29776 3.68124 3.6
      vertex 9.29776 3.68124 0
    endloop
  endfacet
  facet normal -0.951055 -0.309021 4.27479e-18
    outer loop
      vertex 9.29776 3.68124 3.6
      vertex 9.68583 2.4869 0
      vertex 9.68583 2.4869 3.6
    endloop
  endfacet
  facet normal -0.982287 -0.187384 -3.17759e-19
    outer loop
      vertex 9.92115 1.25333 0
      vertex 9.68583 2.4869 3.6
      vertex 9.68583 2.4869 0
    endloop
  endfacet
  facet normal -0.982287 -0.187384 -3.17759e-19
    outer loop
      vertex 9.68583 2.4869 3.6
      vertex 9.92115 1.25333 0
      vertex 9.92115 1.25333 3.6
    endloop
  endfacet
  facet normal -0.770515 -0.637422 1.04681e-17
    outer loop
      vertex 8.09017 5.87785 0
      vertex 7.28969 6.84547 3.6
      vertex 7.28969 6.84547 0
    endloop
  endfacet
  facet normal -0.770515 -0.637422 1.04681e-17
    outer loop
      vertex 7.28969 6.84547 3.6
      vertex 8.09017 5.87785 0
      vertex 8.09017 5.87785 3.6
    endloop
  endfacet
  facet normal -0.125338 -0.992114 0
    outer loop
      vertex 0.627905 9.98027 0
      vertex 1.87381 9.82287 3.6
      vertex 0.627905 9.98027 3.6
    endloop
  endfacet
  facet normal -0.125338 -0.992114 -0
    outer loop
      vertex 1.87381 9.82287 3.6
      vertex 0.627905 9.98027 0
      vertex 1.87381 9.82287 0
    endloop
  endfacet
  facet normal -0.481751 -0.876308 0
    outer loop
      vertex 4.25779 9.04827 0
      vertex 5.35827 8.44328 3.6
      vertex 4.25779 9.04827 3.6
    endloop
  endfacet
  facet normal -0.481751 -0.876308 -0
    outer loop
      vertex 5.35827 8.44328 3.6
      vertex 4.25779 9.04827 0
      vertex 5.35827 8.44328 0
    endloop
  endfacet
  facet normal 0.904831 -0.425771 6.27125e-18
    outer loop
      vertex -9.29776 3.68124 3.6
      vertex -8.76307 4.81754 0
      vertex -8.76307 4.81754 3.6
    endloop
  endfacet
  facet normal 0.904831 -0.425771 6.27125e-18
    outer loop
      vertex -8.76307 4.81754 0
      vertex -9.29776 3.68124 3.6
      vertex -9.29776 3.68124 0
    endloop
  endfacet
  facet normal 0.982287 -0.187384 3.17759e-19
    outer loop
      vertex -9.92115 1.25333 3.6
      vertex -9.68583 2.4869 0
      vertex -9.68583 2.4869 3.6
    endloop
  endfacet
  facet normal 0.982287 -0.187384 3.17759e-19
    outer loop
      vertex -9.68583 2.4869 0
      vertex -9.92115 1.25333 3.6
      vertex -9.92115 1.25333 0
    endloop
  endfacet
  facet normal 0.587788 -0.809015 0
    outer loop
      vertex -6.37424 7.70513 0
      vertex -5.35827 8.44328 3.6
      vertex -6.37424 7.70513 3.6
    endloop
  endfacet
  facet normal 0.587788 -0.809015 0
    outer loop
      vertex -5.35827 8.44328 3.6
      vertex -6.37424 7.70513 0
      vertex -5.35827 8.44328 0
    endloop
  endfacet
  facet normal 0.248691 -0.968583 0
    outer loop
      vertex -3.09017 9.51056 0
      vertex -1.87381 9.82287 3.6
      vertex -3.09017 9.51056 3.6
    endloop
  endfacet
  facet normal 0.248691 -0.968583 0
    outer loop
      vertex -1.87381 9.82287 3.6
      vertex -3.09017 9.51056 0
      vertex -1.87381 9.82287 0
    endloop
  endfacet
  facet normal -0.951055 0.309021 -4.27479e-18
    outer loop
      vertex 9.29776 -3.68124 0
      vertex 9.68583 -2.4869 3.6
      vertex 9.68583 -2.4869 0
    endloop
  endfacet
  facet normal -0.951055 0.309021 -4.27479e-18
    outer loop
      vertex 9.68583 -2.4869 3.6
      vertex 9.29776 -3.68124 0
      vertex 9.29776 -3.68124 3.6
    endloop
  endfacet
  facet normal -0.982287 0.187384 3.17759e-19
    outer loop
      vertex 9.68583 -2.4869 0
      vertex 9.92115 -1.25333 3.6
      vertex 9.92115 -1.25333 0
    endloop
  endfacet
  facet normal -0.982287 0.187384 3.17759e-19
    outer loop
      vertex 9.92115 -1.25333 3.6
      vertex 9.68583 -2.4869 0
      vertex 9.68583 -2.4869 3.6
    endloop
  endfacet
  facet normal 0.125338 0.992114 -0
    outer loop
      vertex -0.627905 -9.98027 0
      vertex -1.87381 -9.82287 3.6
      vertex -0.627905 -9.98027 3.6
    endloop
  endfacet
  facet normal 0.125338 0.992114 0
    outer loop
      vertex -1.87381 -9.82287 3.6
      vertex -0.627905 -9.98027 0
      vertex -1.87381 -9.82287 0
    endloop
  endfacet
  facet normal 0.951055 0.309021 4.27479e-18
    outer loop
      vertex -9.29776 -3.68124 3.6
      vertex -9.68583 -2.4869 0
      vertex -9.68583 -2.4869 3.6
    endloop
  endfacet
  facet normal 0.951055 0.309021 4.27479e-18
    outer loop
      vertex -9.68583 -2.4869 0
      vertex -9.29776 -3.68124 3.6
      vertex -9.29776 -3.68124 0
    endloop
  endfacet
  facet normal -0.368122 0.929777 0
    outer loop
      vertex 4.25779 -9.04827 0
      vertex 3.09017 -9.51056 3.6
      vertex 4.25779 -9.04827 3.6
    endloop
  endfacet
  facet normal -0.368122 0.929777 0
    outer loop
      vertex 3.09017 -9.51056 3.6
      vertex 4.25779 -9.04827 0
      vertex 3.09017 -9.51056 0
    endloop
  endfacet
  facet normal -0.248691 0.968583 0
    outer loop
      vertex 3.09017 -9.51056 0
      vertex 1.87381 -9.82287 3.6
      vertex 3.09017 -9.51056 3.6
    endloop
  endfacet
  facet normal -0.248691 0.968583 0
    outer loop
      vertex 1.87381 -9.82287 3.6
      vertex 3.09017 -9.51056 0
      vertex 1.87381 -9.82287 0
    endloop
  endfacet
  facet normal -0.481751 0.876308 0
    outer loop
      vertex 5.35827 -8.44328 0
      vertex 4.25779 -9.04827 3.6
      vertex 5.35827 -8.44328 3.6
    endloop
  endfacet
  facet normal -0.481751 0.876308 0
    outer loop
      vertex 4.25779 -9.04827 3.6
      vertex 5.35827 -8.44328 0
      vertex 4.25779 -9.04827 0
    endloop
  endfacet
  facet normal -0.770515 0.637422 -1.04681e-17
    outer loop
      vertex 7.28969 -6.84547 0
      vertex 8.09017 -5.87785 3.6
      vertex 8.09017 -5.87785 0
    endloop
  endfacet
  facet normal -0.770515 0.637422 -1.04681e-17
    outer loop
      vertex 8.09017 -5.87785 3.6
      vertex 7.28969 -6.84547 0
      vertex 7.28969 -6.84547 3.6
    endloop
  endfacet
  facet normal -0.844325 0.535831 -3.90906e-18
    outer loop
      vertex 8.09017 -5.87785 0
      vertex 8.76307 -4.81754 3.6
      vertex 8.76307 -4.81754 0
    endloop
  endfacet
  facet normal -0.844325 0.535831 -3.90906e-18
    outer loop
      vertex 8.76307 -4.81754 3.6
      vertex 8.09017 -5.87785 0
      vertex 8.09017 -5.87785 3.6
    endloop
  endfacet
  facet normal 0.368122 0.929777 -0
    outer loop
      vertex -3.09017 -9.51056 0
      vertex -4.25779 -9.04827 3.6
      vertex -3.09017 -9.51056 3.6
    endloop
  endfacet
  facet normal 0.368122 0.929777 0
    outer loop
      vertex -4.25779 -9.04827 3.6
      vertex -3.09017 -9.51056 0
      vertex -4.25779 -9.04827 0
    endloop
  endfacet
  facet normal 0.770515 0.637422 1.04681e-17
    outer loop
      vertex -7.28969 -6.84547 3.6
      vertex -8.09017 -5.87785 0
      vertex -8.09017 -5.87785 3.6
    endloop
  endfacet
  facet normal 0.770515 0.637422 1.04681e-17
    outer loop
      vertex -8.09017 -5.87785 0
      vertex -7.28969 -6.84547 3.6
      vertex -7.28969 -6.84547 0
    endloop
  endfacet
  facet normal 0.904831 0.425771 -6.27125e-18
    outer loop
      vertex -8.76307 -4.81754 3.6
      vertex -9.29776 -3.68124 0
      vertex -9.29776 -3.68124 3.6
    endloop
  endfacet
  facet normal 0.904831 0.425771 -6.27125e-18
    outer loop
      vertex -9.29776 -3.68124 0
      vertex -8.76307 -4.81754 3.6
      vertex -8.76307 -4.81754 0
    endloop
  endfacet
  facet normal 0.998027 0.0627883 -3.74718e-19
    outer loop
      vertex -9.92115 -1.25333 3.6
      vertex -10 0 0
      vertex -10 0 3.6
    endloop
  endfacet
  facet normal 0.998027 0.0627883 -3.74718e-19
    outer loop
      vertex -10 0 0
      vertex -9.92115 -1.25333 3.6
      vertex -9.92115 -1.25333 0
    endloop
  endfacet
  facet normal -0.684545 0.728971 0
    outer loop
      vertex 7.28969 -6.84547 0
      vertex 6.37424 -7.70513 3.6
      vertex 7.28969 -6.84547 3.6
    endloop
  endfacet
  facet normal -0.684545 0.728971 0
    outer loop
      vertex 6.37424 -7.70513 3.6
      vertex 7.28969 -6.84547 0
      vertex 6.37424 -7.70513 0
    endloop
  endfacet
  facet normal -0.587788 0.809015 0
    outer loop
      vertex 6.37424 -7.70513 0
      vertex 5.35827 -8.44328 3.6
      vertex 6.37424 -7.70513 3.6
    endloop
  endfacet
  facet normal -0.587788 0.809015 0
    outer loop
      vertex 5.35827 -8.44328 3.6
      vertex 6.37424 -7.70513 0
      vertex 5.35827 -8.44328 0
    endloop
  endfacet
  facet normal -0.904831 0.425771 6.27125e-18
    outer loop
      vertex 8.76307 -4.81754 0
      vertex 9.29776 -3.68124 3.6
      vertex 9.29776 -3.68124 0
    endloop
  endfacet
  facet normal -0.904831 0.425771 6.27125e-18
    outer loop
      vertex 9.29776 -3.68124 3.6
      vertex 8.76307 -4.81754 0
      vertex 8.76307 -4.81754 3.6
    endloop
  endfacet
  facet normal 0 1 -0
    outer loop
      vertex 0.627905 -9.98027 0
      vertex -0.627905 -9.98027 3.6
      vertex 0.627905 -9.98027 3.6
    endloop
  endfacet
  facet normal 0 1 0
    outer loop
      vertex -0.627905 -9.98027 3.6
      vertex 0.627905 -9.98027 0
      vertex -0.627905 -9.98027 0
    endloop
  endfacet
  facet normal 0.684545 0.728971 -0
    outer loop
      vertex -6.37424 -7.70513 0
      vertex -7.28969 -6.84547 3.6
      vertex -6.37424 -7.70513 3.6
    endloop
  endfacet
  facet normal 0.684545 0.728971 0
    outer loop
      vertex -7.28969 -6.84547 3.6
      vertex -6.37424 -7.70513 0
      vertex -7.28969 -6.84547 0
    endloop
  endfacet
  facet normal 0.481751 0.876308 -0
    outer loop
      vertex -4.25779 -9.04827 0
      vertex -5.35827 -8.44328 3.6
      vertex -4.25779 -9.04827 3.6
    endloop
  endfacet
  facet normal 0.481751 0.876308 0
    outer loop
      vertex -5.35827 -8.44328 3.6
      vertex -4.25779 -9.04827 0
      vertex -5.35827 -8.44328 0
    endloop
  endfacet
  facet normal 0.844325 0.535831 3.90906e-18
    outer loop
      vertex -8.09017 -5.87785 3.6
      vertex -8.76307 -4.81754 0
      vertex -8.76307 -4.81754 3.6
    endloop
  endfacet
  facet normal 0.844325 0.535831 3.90906e-18
    outer loop
      vertex -8.76307 -4.81754 0
      vertex -8.09017 -5.87785 3.6
      vertex -8.09017 -5.87785 0
    endloop
  endfacet
  facet normal 0.982287 0.187384 -3.17759e-19
    outer loop
      vertex -9.68583 -2.4869 3.6
      vertex -9.92115 -1.25333 0
      vertex -9.92115 -1.25333 3.6
    endloop
  endfacet
  facet normal 0.982287 0.187384 -3.17759e-19
    outer loop
      vertex -9.92115 -1.25333 0
      vertex -9.68583 -2.4869 3.6
      vertex -9.68583 -2.4869 0
    endloop
  endfacet
  facet normal 0.587788 0.809015 -0
    outer loop
      vertex -5.35827 -8.44328 0
      vertex -6.37424 -7.70513 3.6
      vertex -5.35827 -8.44328 3.6
    endloop
  endfacet
  facet normal 0.587788 0.809015 0
    outer loop
      vertex -6.37424 -7.70513 3.6
      vertex -5.35827 -8.44328 0
      vertex -6.37424 -7.70513 0
    endloop
  endfacet
endsolid OpenSCAD_Model
