solid OpenSCAD_Model
  facet normal 0 1 -0
    outer loop
      vertex 5.65459 9.79405 0
      vertex -5.65459 9.79405 10
      vertex 5.65459 9.79405 10
    endloop
  endfacet
  facet normal 0 1 0
    outer loop
      vertex -5.65459 9.79405 10
      vertex 5.65459 9.79405 0
      vertex -5.65459 9.79405 0
    endloop
  endfacet
  facet normal 0 0 1
    outer loop
      vertex 11.3092 0 10
      vertex 6.20072 0.783332 10
      vertex 6.25 0 10
    endloop
  endfacet
  facet normal 0 0 1
    outer loop
      vertex 11.3092 0 10
      vertex 6.05364 1.55431 10
      vertex 6.20072 0.783332 10
    endloop
  endfacet
  facet normal 0 0 1
    outer loop
      vertex 11.3092 0 10
      vertex 5.8111 2.30078 10
      vertex 6.05364 1.55431 10
    endloop
  endfacet
  facet normal -0 0 1
    outer loop
      vertex 5.47692 3.01096 10
      vertex 11.3092 0 10
      vertex 5.65459 9.79405 10
    endloop
  endfacet
  facet normal 0 0 1
    outer loop
      vertex 11.3092 0 10
      vertex 5.47692 3.01096 10
      vertex 5.8111 2.30078 10
    endloop
  endfacet
  facet normal 0 0 1
    outer loop
      vertex 5.65459 9.79405 10
      vertex 5.05636 3.67366 10
      vertex 5.47692 3.01096 10
    endloop
  endfacet
  facet normal 0 0 1
    outer loop
      vertex 5.65459 9.79405 10
      vertex 4.55605 4.27842 10
      vertex 5.05636 3.67366 10
    endloop
  endfacet
  facet normal 0 0 1
    outer loop
      vertex 5.65459 9.79405 10
      vertex 3.9839 4.81571 10
      vertex 4.55605 4.27842 10
    endloop
  endfacet
  facet normal 0 0 1
    outer loop
      vertex 5.65459 9.79405 10
      vertex 3.34892 5.27705 10
      vertex 3.9839 4.81571 10
    endloop
  endfacet
  facet normal 0 0 1
    outer loop
      vertex 5.65459 9.79405 10
      vertex 2.66112 5.65517 10
      vertex 3.34892 5.27705 10
    endloop
  endfacet
  facet normal 0 0 1
    outer loop
      vertex 5.65459 9.79405 10
      vertex 1.93136 5.9441 10
      vertex 2.66112 5.65517 10
    endloop
  endfacet
  facet normal 0 0 1
    outer loop
      vertex 5.65459 9.79405 10
      vertex 1.17113 6.13929 10
      vertex 1.93136 5.9441 10
    endloop
  endfacet
  facet normal 0 0 1
    outer loop
      vertex 5.65459 9.79405 10
      vertex 0.39244 6.23767 10
      vertex 1.17113 6.13929 10
    endloop
  endfacet
  facet normal 0 0 1
    outer loop
      vertex 5.65459 9.79405 10
      vertex -0.39244 6.23767 10
      vertex 0.39244 6.23767 10
    endloop
  endfacet
  facet normal -0 0 1
    outer loop
      vertex -5.65459 9.79405 10
      vertex -0.39244 6.23767 10
      vertex 5.65459 9.79405 10
    endloop
  endfacet
  facet normal 0 0 1
    outer loop
      vertex -0.39244 6.23767 10
      vertex -5.65459 9.79405 10
      vertex -1.17113 6.13929 10
    endloop
  endfacet
  facet normal 0 0 1
    outer loop
      vertex -1.17113 6.13929 10
      vertex -5.65459 9.79405 10
      vertex -1.93136 5.9441 10
    endloop
  endfacet
  facet normal 0 0 1
    outer loop
      vertex -1.93136 5.9441 10
      vertex -5.65459 9.79405 10
      vertex -2.66112 5.65517 10
    endloop
  endfacet
  facet normal 0 0 1
    outer loop
      vertex -5.65459 9.79405 10
      vertex -3.34892 5.27705 10
      vertex -2.66112 5.65517 10
    endloop
  endfacet
  facet normal 0 0 1
    outer loop
      vertex -5.65459 9.79405 10
      vertex -3.9839 4.81571 10
      vertex -3.34892 5.27705 10
    endloop
  endfacet
  facet normal 0 0 1
    outer loop
      vertex -5.65459 9.79405 10
      vertex -4.55605 4.27842 10
      vertex -3.9839 4.81571 10
    endloop
  endfacet
  facet normal 0 0 1
    outer loop
      vertex -5.65459 9.79405 10
      vertex -5.05636 3.67366 10
      vertex -4.55605 4.27842 10
    endloop
  endfacet
  facet normal 0 0 1
    outer loop
      vertex -5.65459 9.79405 10
      vertex -5.47692 3.01096 10
      vertex -5.05636 3.67366 10
    endloop
  endfacet
  facet normal 0 0 1
    outer loop
      vertex -11.3092 0 10
      vertex -5.47692 3.01096 10
      vertex -5.65459 9.79405 10
    endloop
  endfacet
  facet normal 0 0 1
    outer loop
      vertex -5.47692 3.01096 10
      vertex -11.3092 0 10
      vertex -5.8111 2.30078 10
    endloop
  endfacet
  facet normal 0 0 1
    outer loop
      vertex -5.8111 2.30078 10
      vertex -11.3092 0 10
      vertex -6.05364 1.55431 10
    endloop
  endfacet
  facet normal 0 0 1
    outer loop
      vertex -6.05364 1.55431 10
      vertex -11.3092 0 10
      vertex -6.20072 0.783332 10
    endloop
  endfacet
  facet normal 0 0 1
    outer loop
      vertex -6.20072 0.783332 10
      vertex -11.3092 0 10
      vertex -6.25 0 10
    endloop
  endfacet
  facet normal 0 0 1
    outer loop
      vertex 6.20072 -0.783332 10
      vertex 11.3092 0 10
      vertex 6.25 0 10
    endloop
  endfacet
  facet normal 0 0 1
    outer loop
      vertex 6.05364 -1.55431 10
      vertex 11.3092 0 10
      vertex 6.20072 -0.783332 10
    endloop
  endfacet
  facet normal 0 0 1
    outer loop
      vertex 5.8111 -2.30078 10
      vertex 11.3092 0 10
      vertex 6.05364 -1.55431 10
    endloop
  endfacet
  facet normal 0 0 1
    outer loop
      vertex 5.47692 -3.01096 10
      vertex 11.3092 0 10
      vertex 5.8111 -2.30078 10
    endloop
  endfacet
  facet normal 0 0 1
    outer loop
      vertex 11.3092 0 10
      vertex 5.47692 -3.01096 10
      vertex 5.65459 -9.79405 10
    endloop
  endfacet
  facet normal -0 0 1
    outer loop
      vertex 5.05636 -3.67366 10
      vertex 5.65459 -9.79405 10
      vertex 5.47692 -3.01096 10
    endloop
  endfacet
  facet normal -0 0 1
    outer loop
      vertex 4.55605 -4.27842 10
      vertex 5.65459 -9.79405 10
      vertex 5.05636 -3.67366 10
    endloop
  endfacet
  facet normal -0 0 1
    outer loop
      vertex 3.9839 -4.81571 10
      vertex 5.65459 -9.79405 10
      vertex 4.55605 -4.27842 10
    endloop
  endfacet
  facet normal -0 0 1
    outer loop
      vertex 3.34892 -5.27705 10
      vertex 5.65459 -9.79405 10
      vertex 3.9839 -4.81571 10
    endloop
  endfacet
  facet normal -0 0 1
    outer loop
      vertex 2.66112 -5.65517 10
      vertex 5.65459 -9.79405 10
      vertex 3.34892 -5.27705 10
    endloop
  endfacet
  facet normal -0 0 1
    outer loop
      vertex 1.93136 -5.9441 10
      vertex 5.65459 -9.79405 10
      vertex 2.66112 -5.65517 10
    endloop
  endfacet
  facet normal -0 0 1
    outer loop
      vertex 1.17113 -6.13929 10
      vertex 5.65459 -9.79405 10
      vertex 1.93136 -5.9441 10
    endloop
  endfacet
  facet normal -0 0 1
    outer loop
      vertex 0.39244 -6.23767 10
      vertex 5.65459 -9.79405 10
      vertex 1.17113 -6.13929 10
    endloop
  endfacet
  facet normal -0 0 1
    outer loop
      vertex -0.39244 -6.23767 10
      vertex 5.65459 -9.79405 10
      vertex 0.39244 -6.23767 10
    endloop
  endfacet
  facet normal 0 0 1
    outer loop
      vertex -5.65459 -9.79405 10
      vertex -0.39244 -6.23767 10
      vertex -1.17113 -6.13929 10
    endloop
  endfacet
  facet normal 0 0 1
    outer loop
      vertex -5.65459 -9.79405 10
      vertex -1.17113 -6.13929 10
      vertex -1.93136 -5.9441 10
    endloop
  endfacet
  facet normal 0 0 1
    outer loop
      vertex -5.65459 -9.79405 10
      vertex -1.93136 -5.9441 10
      vertex -2.66112 -5.65517 10
    endloop
  endfacet
  facet normal 0 0 1
    outer loop
      vertex -0.39244 -6.23767 10
      vertex -5.65459 -9.79405 10
      vertex 5.65459 -9.79405 10
    endloop
  endfacet
  facet normal 0 0 1
    outer loop
      vertex -3.34892 -5.27705 10
      vertex -5.65459 -9.79405 10
      vertex -2.66112 -5.65517 10
    endloop
  endfacet
  facet normal 0 0 1
    outer loop
      vertex -3.9839 -4.81571 10
      vertex -5.65459 -9.79405 10
      vertex -3.34892 -5.27705 10
    endloop
  endfacet
  facet normal 0 0 1
    outer loop
      vertex -4.55605 -4.27842 10
      vertex -5.65459 -9.79405 10
      vertex -3.9839 -4.81571 10
    endloop
  endfacet
  facet normal 0 0 1
    outer loop
      vertex -5.05636 -3.67366 10
      vertex -5.65459 -9.79405 10
      vertex -4.55605 -4.27842 10
    endloop
  endfacet
  facet normal 0 0 1
    outer loop
      vertex -5.47692 -3.01096 10
      vertex -5.65459 -9.79405 10
      vertex -5.05636 -3.67366 10
    endloop
  endfacet
  facet normal 0 0 1
    outer loop
      vertex -11.3092 0 10
      vertex -5.47692 -3.01096 10
      vertex -5.8111 -2.30078 10
    endloop
  endfacet
  facet normal 0 0 1
    outer loop
      vertex -11.3092 0 10
      vertex -5.8111 -2.30078 10
      vertex -6.05364 -1.55431 10
    endloop
  endfacet
  facet normal 0 0 1
    outer loop
      vertex -11.3092 0 10
      vertex -6.05364 -1.55431 10
      vertex -6.20072 -0.783332 10
    endloop
  endfacet
  facet normal -0 0 1
    outer loop
      vertex -11.3092 0 10
      vertex -6.20072 -0.783332 10
      vertex -6.25 0 10
    endloop
  endfacet
  facet normal 0 0 1
    outer loop
      vertex -5.47692 -3.01096 10
      vertex -11.3092 0 10
      vertex -5.65459 -9.79405 10
    endloop
  endfacet
  facet normal -0.866025 0.500001 1.9818e-17
    outer loop
      vertex -11.3092 0 0
      vertex -5.65459 9.79405 10
      vertex -5.65459 9.79405 0
    endloop
  endfacet
  facet normal -0.866025 0.500001 1.9818e-17
    outer loop
      vertex -5.65459 9.79405 10
      vertex -11.3092 0 0
      vertex -11.3092 0 10
    endloop
  endfacet
  facet normal 0 -1 0
    outer loop
      vertex -5.65459 -9.79405 0
      vertex 5.65459 -9.79405 10
      vertex -5.65459 -9.79405 10
    endloop
  endfacet
  facet normal 0 -1 -0
    outer loop
      vertex 5.65459 -9.79405 10
      vertex -5.65459 -9.79405 0
      vertex 5.65459 -9.79405 0
    endloop
  endfacet
  facet normal -0 0 -1
    outer loop
      vertex 11.3092 0 0
      vertex 6.20072 -0.783332 0
      vertex 6.25 0 0
    endloop
  endfacet
  facet normal 0 0 -1
    outer loop
      vertex 11.3092 0 0
      vertex 6.05364 -1.55431 0
      vertex 6.20072 -0.783332 0
    endloop
  endfacet
  facet normal 0 0 -1
    outer loop
      vertex 11.3092 0 0
      vertex 5.8111 -2.30078 0
      vertex 6.05364 -1.55431 0
    endloop
  endfacet
  facet normal 0 0 -1
    outer loop
      vertex 5.47692 -3.01096 0
      vertex 11.3092 0 0
      vertex 5.65459 -9.79405 0
    endloop
  endfacet
  facet normal 0 0 -1
    outer loop
      vertex 11.3092 0 0
      vertex 5.47692 -3.01096 0
      vertex 5.8111 -2.30078 0
    endloop
  endfacet
  facet normal 0 0 -1
    outer loop
      vertex 5.65459 -9.79405 0
      vertex 5.05636 -3.67366 0
      vertex 5.47692 -3.01096 0
    endloop
  endfacet
  facet normal 0 0 -1
    outer loop
      vertex 5.65459 -9.79405 0
      vertex 4.55605 -4.27842 0
      vertex 5.05636 -3.67366 0
    endloop
  endfacet
  facet normal 0 0 -1
    outer loop
      vertex 5.65459 -9.79405 0
      vertex 3.9839 -4.81571 0
      vertex 4.55605 -4.27842 0
    endloop
  endfacet
  facet normal 0 0 -1
    outer loop
      vertex 5.65459 -9.79405 0
      vertex 3.34892 -5.27705 0
      vertex 3.9839 -4.81571 0
    endloop
  endfacet
  facet normal 0 0 -1
    outer loop
      vertex 5.65459 -9.79405 0
      vertex 2.66112 -5.65517 0
      vertex 3.34892 -5.27705 0
    endloop
  endfacet
  facet normal 0 0 -1
    outer loop
      vertex 5.65459 -9.79405 0
      vertex 1.93136 -5.9441 0
      vertex 2.66112 -5.65517 0
    endloop
  endfacet
  facet normal 0 0 -1
    outer loop
      vertex 5.65459 -9.79405 0
      vertex 1.17113 -6.13929 0
      vertex 1.93136 -5.9441 0
    endloop
  endfacet
  facet normal 0 0 -1
    outer loop
      vertex 5.65459 -9.79405 0
      vertex 0.39244 -6.23767 0
      vertex 1.17113 -6.13929 0
    endloop
  endfacet
  facet normal 0 0 -1
    outer loop
      vertex 5.65459 -9.79405 0
      vertex -0.39244 -6.23767 0
      vertex 0.39244 -6.23767 0
    endloop
  endfacet
  facet normal 0 0 -1
    outer loop
      vertex -5.65459 -9.79405 0
      vertex -0.39244 -6.23767 0
      vertex 5.65459 -9.79405 0
    endloop
  endfacet
  facet normal -0 0 -1
    outer loop
      vertex -0.39244 -6.23767 0
      vertex -5.65459 -9.79405 0
      vertex -1.17113 -6.13929 0
    endloop
  endfacet
  facet normal -0 0 -1
    outer loop
      vertex -1.17113 -6.13929 0
      vertex -5.65459 -9.79405 0
      vertex -1.93136 -5.9441 0
    endloop
  endfacet
  facet normal -0 0 -1
    outer loop
      vertex -1.93136 -5.9441 0
      vertex -5.65459 -9.79405 0
      vertex -2.66112 -5.65517 0
    endloop
  endfacet
  facet normal 0 0 -1
    outer loop
      vertex -5.65459 -9.79405 0
      vertex -3.34892 -5.27705 0
      vertex -2.66112 -5.65517 0
    endloop
  endfacet
  facet normal 0 0 -1
    outer loop
      vertex -5.65459 -9.79405 0
      vertex -3.9839 -4.81571 0
      vertex -3.34892 -5.27705 0
    endloop
  endfacet
  facet normal 0 0 -1
    outer loop
      vertex -5.65459 -9.79405 0
      vertex -4.55605 -4.27842 0
      vertex -3.9839 -4.81571 0
    endloop
  endfacet
  facet normal 0 0 -1
    outer loop
      vertex -5.65459 -9.79405 0
      vertex -5.05636 -3.67366 0
      vertex -4.55605 -4.27842 0
    endloop
  endfacet
  facet normal 0 0 -1
    outer loop
      vertex -5.65459 -9.79405 0
      vertex -5.47692 -3.01096 0
      vertex -5.05636 -3.67366 0
    endloop
  endfacet
  facet normal 0 0 -1
    outer loop
      vertex -11.3092 0 0
      vertex -5.47692 -3.01096 0
      vertex -5.65459 -9.79405 0
    endloop
  endfacet
  facet normal 0 0 -1
    outer loop
      vertex -5.47692 -3.01096 0
      vertex -11.3092 0 0
      vertex -5.8111 -2.30078 0
    endloop
  endfacet
  facet normal 0 0 -1
    outer loop
      vertex -5.8111 -2.30078 0
      vertex -11.3092 0 0
      vertex -6.05364 -1.55431 0
    endloop
  endfacet
  facet normal 0 0 -1
    outer loop
      vertex -6.05364 -1.55431 0
      vertex -11.3092 0 0
      vertex -6.20072 -0.783332 0
    endloop
  endfacet
  facet normal 0 0 -1
    outer loop
      vertex -6.20072 -0.783332 0
      vertex -11.3092 0 0
      vertex -6.25 0 0
    endloop
  endfacet
  facet normal 0 0 -1
    outer loop
      vertex 6.20072 0.783332 0
      vertex 11.3092 0 0
      vertex 6.25 0 0
    endloop
  endfacet
  facet normal 0 0 -1
    outer loop
      vertex 6.05364 1.55431 0
      vertex 11.3092 0 0
      vertex 6.20072 0.783332 0
    endloop
  endfacet
  facet normal 0 0 -1
    outer loop
      vertex 5.8111 2.30078 0
      vertex 11.3092 0 0
      vertex 6.05364 1.55431 0
    endloop
  endfacet
  facet normal 0 0 -1
    outer loop
      vertex 5.47692 3.01096 0
      vertex 11.3092 0 0
      vertex 5.8111 2.30078 0
    endloop
  endfacet
  facet normal 0 0 -1
    outer loop
      vertex 11.3092 0 0
      vertex 5.47692 3.01096 0
      vertex 5.65459 9.79405 0
    endloop
  endfacet
  facet normal 0 0 -1
    outer loop
      vertex 5.05636 3.67366 0
      vertex 5.65459 9.79405 0
      vertex 5.47692 3.01096 0
    endloop
  endfacet
  facet normal 0 0 -1
    outer loop
      vertex 4.55605 4.27842 0
      vertex 5.65459 9.79405 0
      vertex 5.05636 3.67366 0
    endloop
  endfacet
  facet normal 0 0 -1
    outer loop
      vertex 3.9839 4.81571 0
      vertex 5.65459 9.79405 0
      vertex 4.55605 4.27842 0
    endloop
  endfacet
  facet normal 0 0 -1
    outer loop
      vertex 3.34892 5.27705 0
      vertex 5.65459 9.79405 0
      vertex 3.9839 4.81571 0
    endloop
  endfacet
  facet normal 0 0 -1
    outer loop
      vertex 2.66112 5.65517 0
      vertex 5.65459 9.79405 0
      vertex 3.34892 5.27705 0
    endloop
  endfacet
  facet normal 0 0 -1
    outer loop
      vertex 1.93136 5.9441 0
      vertex 5.65459 9.79405 0
      vertex 2.66112 5.65517 0
    endloop
  endfacet
  facet normal 0 0 -1
    outer loop
      vertex 1.17113 6.13929 0
      vertex 5.65459 9.79405 0
      vertex 1.93136 5.9441 0
    endloop
  endfacet
  facet normal 0 0 -1
    outer loop
      vertex 0.39244 6.23767 0
      vertex 5.65459 9.79405 0
      vertex 1.17113 6.13929 0
    endloop
  endfacet
  facet normal 0 0 -1
    outer loop
      vertex -0.39244 6.23767 0
      vertex 5.65459 9.79405 0
      vertex 0.39244 6.23767 0
    endloop
  endfacet
  facet normal 0 0 -1
    outer loop
      vertex -5.65459 9.79405 0
      vertex -0.39244 6.23767 0
      vertex -1.17113 6.13929 0
    endloop
  endfacet
  facet normal 0 0 -1
    outer loop
      vertex -5.65459 9.79405 0
      vertex -1.17113 6.13929 0
      vertex -1.93136 5.9441 0
    endloop
  endfacet
  facet normal 0 0 -1
    outer loop
      vertex -5.65459 9.79405 0
      vertex -1.93136 5.9441 0
      vertex -2.66112 5.65517 0
    endloop
  endfacet
  facet normal 0 0 -1
    outer loop
      vertex -0.39244 6.23767 0
      vertex -5.65459 9.79405 0
      vertex 5.65459 9.79405 0
    endloop
  endfacet
  facet normal 0 0 -1
    outer loop
      vertex -3.34892 5.27705 0
      vertex -5.65459 9.79405 0
      vertex -2.66112 5.65517 0
    endloop
  endfacet
  facet normal 0 0 -1
    outer loop
      vertex -3.9839 4.81571 0
      vertex -5.65459 9.79405 0
      vertex -3.34892 5.27705 0
    endloop
  endfacet
  facet normal 0 0 -1
    outer loop
      vertex -4.55605 4.27842 0
      vertex -5.65459 9.79405 0
      vertex -3.9839 4.81571 0
    endloop
  endfacet
  facet normal 0 0 -1
    outer loop
      vertex -5.05636 3.67366 0
      vertex -5.65459 9.79405 0
      vertex -4.55605 4.27842 0
    endloop
  endfacet
  facet normal 0 0 -1
    outer loop
      vertex -5.47692 3.01096 0
      vertex -5.65459 9.79405 0
      vertex -5.05636 3.67366 0
    endloop
  endfacet
  facet normal 0 0 -1
    outer loop
      vertex -11.3092 0 0
      vertex -5.47692 3.01096 0
      vertex -5.8111 2.30078 0
    endloop
  endfacet
  facet normal 0 0 -1
    outer loop
      vertex -11.3092 0 0
      vertex -5.8111 2.30078 0
      vertex -6.05364 1.55431 0
    endloop
  endfacet
  facet normal 0 0 -1
    outer loop
      vertex -11.3092 0 0
      vertex -6.05364 1.55431 0
      vertex -6.20072 0.783332 0
    endloop
  endfacet
  facet normal 0 0 -1
    outer loop
      vertex -11.3092 0 0
      vertex -6.20072 0.783332 0
      vertex -6.25 0 0
    endloop
  endfacet
  facet normal -0 0 -1
    outer loop
      vertex -5.47692 3.01096 0
      vertex -11.3092 0 0
      vertex -5.65459 9.79405 0
    endloop
  endfacet
  facet normal 0.866025 0.500001 -1.9818e-17
    outer loop
      vertex 11.3092 0 10
      vertex 5.65459 9.79405 0
      vertex 5.65459 9.79405 10
    endloop
  endfacet
  facet normal 0.866025 0.500001 -1.9818e-17
    outer loop
      vertex 5.65459 9.79405 0
      vertex 11.3092 0 10
      vertex 11.3092 0 0
    endloop
  endfacet
  facet normal -0.866025 -0.500001 -1.9818e-17
    outer loop
      vertex -5.65459 -9.79405 0
      vertex -11.3092 0 10
      vertex -11.3092 0 0
    endloop
  endfacet
  facet normal -0.866025 -0.500001 -1.9818e-17
    outer loop
      vertex -11.3092 0 10
      vertex -5.65459 -9.79405 0
      vertex -5.65459 -9.79405 10
    endloop
  endfacet
  facet normal 0.866025 -0.500001 1.9818e-17
    outer loop
      vertex 5.65459 -9.79405 10
      vertex 11.3092 0 0
      vertex 11.3092 0 10
    endloop
  endfacet
  facet normal 0.866025 -0.500001 1.9818e-17
    outer loop
      vertex 11.3092 0 0
      vertex 5.65459 -9.79405 10
      vertex 5.65459 -9.79405 0
    endloop
  endfacet
  facet normal -0.998027 -0.0627866 -2.68502e-19
    outer loop
      vertex 6.25 0 0
      vertex 6.20072 0.783332 10
      vertex 6.20072 0.783332 0
    endloop
  endfacet
  facet normal -0.998027 -0.0627866 -2.68502e-19
    outer loop
      vertex 6.20072 0.783332 10
      vertex 6.25 0 0
      vertex 6.25 0 10
    endloop
  endfacet
  facet normal 0.998027 -0.0627866 2.68502e-19
    outer loop
      vertex -6.25 0 10
      vertex -6.20072 0.783332 0
      vertex -6.20072 0.783332 10
    endloop
  endfacet
  facet normal 0.998027 -0.0627866 2.68502e-19
    outer loop
      vertex -6.20072 0.783332 0
      vertex -6.25 0 10
      vertex -6.25 0 0
    endloop
  endfacet
  facet normal 0 -1 0
    outer loop
      vertex -0.39244 6.23767 0
      vertex 0.39244 6.23767 10
      vertex -0.39244 6.23767 10
    endloop
  endfacet
  facet normal 0 -1 -0
    outer loop
      vertex 0.39244 6.23767 10
      vertex -0.39244 6.23767 0
      vertex 0.39244 6.23767 0
    endloop
  endfacet
  facet normal -0.684551 -0.728965 0
    outer loop
      vertex 3.9839 4.81571 0
      vertex 4.55605 4.27842 10
      vertex 3.9839 4.81571 10
    endloop
  endfacet
  facet normal -0.684551 -0.728965 -0
    outer loop
      vertex 4.55605 4.27842 10
      vertex 3.9839 4.81571 0
      vertex 4.55605 4.27842 0
    endloop
  endfacet
  facet normal 0.684551 -0.728965 0
    outer loop
      vertex -4.55605 4.27842 0
      vertex -3.9839 4.81571 10
      vertex -4.55605 4.27842 10
    endloop
  endfacet
  facet normal 0.684551 -0.728965 0
    outer loop
      vertex -3.9839 4.81571 10
      vertex -4.55605 4.27842 0
      vertex -3.9839 4.81571 0
    endloop
  endfacet
  facet normal 0.368122 -0.929778 0
    outer loop
      vertex -2.66112 5.65517 0
      vertex -1.93136 5.9441 10
      vertex -2.66112 5.65517 10
    endloop
  endfacet
  facet normal 0.368122 -0.929778 0
    outer loop
      vertex -1.93136 5.9441 10
      vertex -2.66112 5.65517 0
      vertex -1.93136 5.9441 0
    endloop
  endfacet
  facet normal -0.90483 -0.425774 7.68385e-19
    outer loop
      vertex 5.8111 2.30078 0
      vertex 5.47692 3.01096 10
      vertex 5.47692 3.01096 0
    endloop
  endfacet
  facet normal -0.90483 -0.425774 7.68385e-19
    outer loop
      vertex 5.47692 3.01096 10
      vertex 5.8111 2.30078 0
      vertex 5.8111 2.30078 10
    endloop
  endfacet
  facet normal -0.844329 -0.535825 3.2151e-18
    outer loop
      vertex 5.47692 3.01096 0
      vertex 5.05636 3.67366 10
      vertex 5.05636 3.67366 0
    endloop
  endfacet
  facet normal -0.844329 -0.535825 3.2151e-18
    outer loop
      vertex 5.05636 3.67366 10
      vertex 5.47692 3.01096 0
      vertex 5.47692 3.01096 10
    endloop
  endfacet
  facet normal -0.368122 -0.929778 0
    outer loop
      vertex 1.93136 5.9441 0
      vertex 2.66112 5.65517 10
      vertex 1.93136 5.9441 10
    endloop
  endfacet
  facet normal -0.368122 -0.929778 -0
    outer loop
      vertex 2.66112 5.65517 10
      vertex 1.93136 5.9441 0
      vertex 2.66112 5.65517 0
    endloop
  endfacet
  facet normal -0.248685 -0.968584 0
    outer loop
      vertex 1.17113 6.13929 0
      vertex 1.93136 5.9441 10
      vertex 1.17113 6.13929 10
    endloop
  endfacet
  facet normal -0.248685 -0.968584 -0
    outer loop
      vertex 1.93136 5.9441 10
      vertex 1.17113 6.13929 0
      vertex 1.93136 5.9441 0
    endloop
  endfacet
  facet normal -0.587785 -0.809017 0
    outer loop
      vertex 3.34892 5.27705 0
      vertex 3.9839 4.81571 10
      vertex 3.34892 5.27705 10
    endloop
  endfacet
  facet normal -0.587785 -0.809017 -0
    outer loop
      vertex 3.9839 4.81571 10
      vertex 3.34892 5.27705 0
      vertex 3.9839 4.81571 0
    endloop
  endfacet
  facet normal 0.844329 -0.535825 -3.2151e-18
    outer loop
      vertex -5.47692 3.01096 10
      vertex -5.05636 3.67366 0
      vertex -5.05636 3.67366 10
    endloop
  endfacet
  facet normal 0.844329 -0.535825 -3.2151e-18
    outer loop
      vertex -5.05636 3.67366 0
      vertex -5.47692 3.01096 10
      vertex -5.47692 3.01096 0
    endloop
  endfacet
  facet normal 0.770508 -0.637431 -1.2294e-18
    outer loop
      vertex -5.05636 3.67366 10
      vertex -4.55605 4.27842 0
      vertex -4.55605 4.27842 10
    endloop
  endfacet
  facet normal 0.770508 -0.637431 -1.2294e-18
    outer loop
      vertex -4.55605 4.27842 0
      vertex -5.05636 3.67366 10
      vertex -5.05636 3.67366 0
    endloop
  endfacet
  facet normal 0.951058 -0.309014 -1.72669e-20
    outer loop
      vertex -6.05364 1.55431 10
      vertex -5.8111 2.30078 0
      vertex -5.8111 2.30078 10
    endloop
  endfacet
  facet normal 0.951058 -0.309014 -1.72669e-20
    outer loop
      vertex -5.8111 2.30078 0
      vertex -6.05364 1.55431 10
      vertex -6.05364 1.55431 0
    endloop
  endfacet
  facet normal 0.481752 -0.876307 0
    outer loop
      vertex -3.34892 5.27705 0
      vertex -2.66112 5.65517 10
      vertex -3.34892 5.27705 10
    endloop
  endfacet
  facet normal 0.481752 -0.876307 0
    outer loop
      vertex -2.66112 5.65517 10
      vertex -3.34892 5.27705 0
      vertex -2.66112 5.65517 0
    endloop
  endfacet
  facet normal 0.125344 -0.992113 0
    outer loop
      vertex -1.17113 6.13929 0
      vertex -0.39244 6.23767 10
      vertex -1.17113 6.13929 10
    endloop
  endfacet
  facet normal 0.125344 -0.992113 0
    outer loop
      vertex -0.39244 6.23767 10
      vertex -1.17113 6.13929 0
      vertex -0.39244 6.23767 0
    endloop
  endfacet
  facet normal -0.998027 0.0627866 2.68502e-19
    outer loop
      vertex 6.20072 -0.783332 0
      vertex 6.25 0 10
      vertex 6.25 0 0
    endloop
  endfacet
  facet normal -0.998027 0.0627866 2.68502e-19
    outer loop
      vertex 6.25 0 10
      vertex 6.20072 -0.783332 0
      vertex 6.20072 -0.783332 10
    endloop
  endfacet
  facet normal 0.248685 0.968584 -0
    outer loop
      vertex -1.17113 -6.13929 0
      vertex -1.93136 -5.9441 10
      vertex -1.17113 -6.13929 10
    endloop
  endfacet
  facet normal 0.248685 0.968584 0
    outer loop
      vertex -1.93136 -5.9441 10
      vertex -1.17113 -6.13929 0
      vertex -1.93136 -5.9441 0
    endloop
  endfacet
  facet normal -0.125344 0.992113 0
    outer loop
      vertex 1.17113 -6.13929 0
      vertex 0.39244 -6.23767 10
      vertex 1.17113 -6.13929 10
    endloop
  endfacet
  facet normal -0.125344 0.992113 0
    outer loop
      vertex 0.39244 -6.23767 10
      vertex 1.17113 -6.13929 0
      vertex 0.39244 -6.23767 0
    endloop
  endfacet
  facet normal -0.951058 -0.309014 1.72669e-20
    outer loop
      vertex 6.05364 1.55431 0
      vertex 5.8111 2.30078 10
      vertex 5.8111 2.30078 0
    endloop
  endfacet
  facet normal -0.951058 -0.309014 1.72669e-20
    outer loop
      vertex 5.8111 2.30078 10
      vertex 6.05364 1.55431 0
      vertex 6.05364 1.55431 10
    endloop
  endfacet
  facet normal -0.982285 -0.187391 8.12411e-19
    outer loop
      vertex 6.20072 0.783332 0
      vertex 6.05364 1.55431 10
      vertex 6.05364 1.55431 0
    endloop
  endfacet
  facet normal -0.982285 -0.187391 8.12411e-19
    outer loop
      vertex 6.05364 1.55431 10
      vertex 6.20072 0.783332 0
      vertex 6.20072 0.783332 10
    endloop
  endfacet
  facet normal -0.770508 -0.637431 1.2294e-18
    outer loop
      vertex 5.05636 3.67366 0
      vertex 4.55605 4.27842 10
      vertex 4.55605 4.27842 0
    endloop
  endfacet
  facet normal -0.770508 -0.637431 1.2294e-18
    outer loop
      vertex 4.55605 4.27842 10
      vertex 5.05636 3.67366 0
      vertex 5.05636 3.67366 10
    endloop
  endfacet
  facet normal -0.125344 -0.992113 0
    outer loop
      vertex 0.39244 6.23767 0
      vertex 1.17113 6.13929 10
      vertex 0.39244 6.23767 10
    endloop
  endfacet
  facet normal -0.125344 -0.992113 -0
    outer loop
      vertex 1.17113 6.13929 10
      vertex 0.39244 6.23767 0
      vertex 1.17113 6.13929 0
    endloop
  endfacet
  facet normal -0.481752 -0.876307 0
    outer loop
      vertex 2.66112 5.65517 0
      vertex 3.34892 5.27705 10
      vertex 2.66112 5.65517 10
    endloop
  endfacet
  facet normal -0.481752 -0.876307 -0
    outer loop
      vertex 3.34892 5.27705 10
      vertex 2.66112 5.65517 0
      vertex 3.34892 5.27705 0
    endloop
  endfacet
  facet normal 0.90483 -0.425774 -7.68385e-19
    outer loop
      vertex -5.8111 2.30078 10
      vertex -5.47692 3.01096 0
      vertex -5.47692 3.01096 10
    endloop
  endfacet
  facet normal 0.90483 -0.425774 -7.68385e-19
    outer loop
      vertex -5.47692 3.01096 0
      vertex -5.8111 2.30078 10
      vertex -5.8111 2.30078 0
    endloop
  endfacet
  facet normal -0.481752 0.876307 0
    outer loop
      vertex 3.34892 -5.27705 0
      vertex 2.66112 -5.65517 10
      vertex 3.34892 -5.27705 10
    endloop
  endfacet
  facet normal -0.481752 0.876307 0
    outer loop
      vertex 2.66112 -5.65517 10
      vertex 3.34892 -5.27705 0
      vertex 2.66112 -5.65517 0
    endloop
  endfacet
  facet normal -0.951058 0.309014 -1.72669e-20
    outer loop
      vertex 5.8111 -2.30078 0
      vertex 6.05364 -1.55431 10
      vertex 6.05364 -1.55431 0
    endloop
  endfacet
  facet normal -0.951058 0.309014 -1.72669e-20
    outer loop
      vertex 6.05364 -1.55431 10
      vertex 5.8111 -2.30078 0
      vertex 5.8111 -2.30078 10
    endloop
  endfacet
  facet normal -0.982285 0.187391 -8.12411e-19
    outer loop
      vertex 6.05364 -1.55431 0
      vertex 6.20072 -0.783332 10
      vertex 6.20072 -0.783332 0
    endloop
  endfacet
  facet normal -0.982285 0.187391 -8.12411e-19
    outer loop
      vertex 6.20072 -0.783332 10
      vertex 6.05364 -1.55431 0
      vertex 6.05364 -1.55431 10
    endloop
  endfacet
  facet normal 0.125344 0.992113 -0
    outer loop
      vertex -0.39244 -6.23767 0
      vertex -1.17113 -6.13929 10
      vertex -0.39244 -6.23767 10
    endloop
  endfacet
  facet normal 0.125344 0.992113 0
    outer loop
      vertex -1.17113 -6.13929 10
      vertex -0.39244 -6.23767 0
      vertex -1.17113 -6.13929 0
    endloop
  endfacet
  facet normal 0.951058 0.309014 1.72669e-20
    outer loop
      vertex -5.8111 -2.30078 10
      vertex -6.05364 -1.55431 0
      vertex -6.05364 -1.55431 10
    endloop
  endfacet
  facet normal 0.951058 0.309014 1.72669e-20
    outer loop
      vertex -6.05364 -1.55431 0
      vertex -5.8111 -2.30078 10
      vertex -5.8111 -2.30078 0
    endloop
  endfacet
  facet normal -0.368122 0.929778 0
    outer loop
      vertex 2.66112 -5.65517 0
      vertex 1.93136 -5.9441 10
      vertex 2.66112 -5.65517 10
    endloop
  endfacet
  facet normal -0.368122 0.929778 0
    outer loop
      vertex 1.93136 -5.9441 10
      vertex 2.66112 -5.65517 0
      vertex 1.93136 -5.9441 0
    endloop
  endfacet
  facet normal -0.248685 0.968584 0
    outer loop
      vertex 1.93136 -5.9441 0
      vertex 1.17113 -6.13929 10
      vertex 1.93136 -5.9441 10
    endloop
  endfacet
  facet normal -0.248685 0.968584 0
    outer loop
      vertex 1.17113 -6.13929 10
      vertex 1.93136 -5.9441 0
      vertex 1.17113 -6.13929 0
    endloop
  endfacet
  facet normal 0.982285 -0.187391 -8.12411e-19
    outer loop
      vertex -6.20072 0.783332 10
      vertex -6.05364 1.55431 0
      vertex -6.05364 1.55431 10
    endloop
  endfacet
  facet normal 0.982285 -0.187391 -8.12411e-19
    outer loop
      vertex -6.05364 1.55431 0
      vertex -6.20072 0.783332 10
      vertex -6.20072 0.783332 0
    endloop
  endfacet
  facet normal 0.587785 -0.809017 0
    outer loop
      vertex -3.9839 4.81571 0
      vertex -3.34892 5.27705 10
      vertex -3.9839 4.81571 10
    endloop
  endfacet
  facet normal 0.587785 -0.809017 0
    outer loop
      vertex -3.34892 5.27705 10
      vertex -3.9839 4.81571 0
      vertex -3.34892 5.27705 0
    endloop
  endfacet
  facet normal 0.248685 -0.968584 0
    outer loop
      vertex -1.93136 5.9441 0
      vertex -1.17113 6.13929 10
      vertex -1.93136 5.9441 10
    endloop
  endfacet
  facet normal 0.248685 -0.968584 0
    outer loop
      vertex -1.17113 6.13929 10
      vertex -1.93136 5.9441 0
      vertex -1.17113 6.13929 0
    endloop
  endfacet
  facet normal -0.844329 0.535825 -3.2151e-18
    outer loop
      vertex 5.05636 -3.67366 0
      vertex 5.47692 -3.01096 10
      vertex 5.47692 -3.01096 0
    endloop
  endfacet
  facet normal -0.844329 0.535825 -3.2151e-18
    outer loop
      vertex 5.47692 -3.01096 10
      vertex 5.05636 -3.67366 0
      vertex 5.05636 -3.67366 10
    endloop
  endfacet
  facet normal 0.368122 0.929778 -0
    outer loop
      vertex -1.93136 -5.9441 0
      vertex -2.66112 -5.65517 10
      vertex -1.93136 -5.9441 10
    endloop
  endfacet
  facet normal 0.368122 0.929778 0
    outer loop
      vertex -2.66112 -5.65517 10
      vertex -1.93136 -5.9441 0
      vertex -2.66112 -5.65517 0
    endloop
  endfacet
  facet normal 0.770508 0.637431 1.2294e-18
    outer loop
      vertex -4.55605 -4.27842 10
      vertex -5.05636 -3.67366 0
      vertex -5.05636 -3.67366 10
    endloop
  endfacet
  facet normal 0.770508 0.637431 1.2294e-18
    outer loop
      vertex -5.05636 -3.67366 0
      vertex -4.55605 -4.27842 10
      vertex -4.55605 -4.27842 0
    endloop
  endfacet
  facet normal 0.998027 0.0627866 -2.68502e-19
    outer loop
      vertex -6.20072 -0.783332 10
      vertex -6.25 0 0
      vertex -6.25 0 10
    endloop
  endfacet
  facet normal 0.998027 0.0627866 -2.68502e-19
    outer loop
      vertex -6.25 0 0
      vertex -6.20072 -0.783332 10
      vertex -6.20072 -0.783332 0
    endloop
  endfacet
  facet normal -0.90483 0.425774 -7.68385e-19
    outer loop
      vertex 5.47692 -3.01096 0
      vertex 5.8111 -2.30078 10
      vertex 5.8111 -2.30078 0
    endloop
  endfacet
  facet normal -0.90483 0.425774 -7.68385e-19
    outer loop
      vertex 5.8111 -2.30078 10
      vertex 5.47692 -3.01096 0
      vertex 5.47692 -3.01096 10
    endloop
  endfacet
  facet normal 0 1 -0
    outer loop
      vertex 0.39244 -6.23767 0
      vertex -0.39244 -6.23767 10
      vertex 0.39244 -6.23767 10
    endloop
  endfacet
  facet normal 0 1 0
    outer loop
      vertex -0.39244 -6.23767 10
      vertex 0.39244 -6.23767 0
      vertex -0.39244 -6.23767 0
    endloop
  endfacet
  facet normal 0.684551 0.728965 -0
    outer loop
      vertex -3.9839 -4.81571 0
      vertex -4.55605 -4.27842 10
      vertex -3.9839 -4.81571 10
    endloop
  endfacet
  facet normal 0.684551 0.728965 0
    outer loop
      vertex -4.55605 -4.27842 10
      vertex -3.9839 -4.81571 0
      vertex -4.55605 -4.27842 0
    endloop
  endfacet
  facet normal 0.90483 0.425774 7.68385e-19
    outer loop
      vertex -5.47692 -3.01096 10
      vertex -5.8111 -2.30078 0
      vertex -5.8111 -2.30078 10
    endloop
  endfacet
  facet normal 0.90483 0.425774 7.68385e-19
    outer loop
      vertex -5.8111 -2.30078 0
      vertex -5.47692 -3.01096 10
      vertex -5.47692 -3.01096 0
    endloop
  endfacet
  facet normal 0.982285 0.187391 8.12411e-19
    outer loop
      vertex -6.05364 -1.55431 10
      vertex -6.20072 -0.783332 0
      vertex -6.20072 -0.783332 10
    endloop
  endfacet
  facet normal 0.982285 0.187391 8.12411e-19
    outer loop
      vertex -6.20072 -0.783332 0
      vertex -6.05364 -1.55431 10
      vertex -6.05364 -1.55431 0
    endloop
  endfacet
  facet normal -0.684551 0.728965 0
    outer loop
      vertex 4.55605 -4.27842 0
      vertex 3.9839 -4.81571 10
      vertex 4.55605 -4.27842 10
    endloop
  endfacet
  facet normal -0.684551 0.728965 0
    outer loop
      vertex 3.9839 -4.81571 10
      vertex 4.55605 -4.27842 0
      vertex 3.9839 -4.81571 0
    endloop
  endfacet
  facet normal -0.587785 0.809017 0
    outer loop
      vertex 3.9839 -4.81571 0
      vertex 3.34892 -5.27705 10
      vertex 3.9839 -4.81571 10
    endloop
  endfacet
  facet normal -0.587785 0.809017 0
    outer loop
      vertex 3.34892 -5.27705 10
      vertex 3.9839 -4.81571 0
      vertex 3.34892 -5.27705 0
    endloop
  endfacet
  facet normal -0.770508 0.637431 -1.2294e-18
    outer loop
      vertex 4.55605 -4.27842 0
      vertex 5.05636 -3.67366 10
      vertex 5.05636 -3.67366 0
    endloop
  endfacet
  facet normal -0.770508 0.637431 -1.2294e-18
    outer loop
      vertex 5.05636 -3.67366 10
      vertex 4.55605 -4.27842 0
      vertex 4.55605 -4.27842 10
    endloop
  endfacet
  facet normal 0.587785 0.809017 -0
    outer loop
      vertex -3.34892 -5.27705 0
      vertex -3.9839 -4.81571 10
      vertex -3.34892 -5.27705 10
    endloop
  endfacet
  facet normal 0.587785 0.809017 0
    outer loop
      vertex -3.9839 -4.81571 10
      vertex -3.34892 -5.27705 0
      vertex -3.9839 -4.81571 0
    endloop
  endfacet
  facet normal 0.481752 0.876307 -0
    outer loop
      vertex -2.66112 -5.65517 0
      vertex -3.34892 -5.27705 10
      vertex -2.66112 -5.65517 10
    endloop
  endfacet
  facet normal 0.481752 0.876307 0
    outer loop
      vertex -3.34892 -5.27705 10
      vertex -2.66112 -5.65517 0
      vertex -3.34892 -5.27705 0
    endloop
  endfacet
  facet normal 0.844329 0.535825 3.2151e-18
    outer loop
      vertex -5.05636 -3.67366 10
      vertex -5.47692 -3.01096 0
      vertex -5.47692 -3.01096 10
    endloop
  endfacet
  facet normal 0.844329 0.535825 3.2151e-18
    outer loop
      vertex -5.47692 -3.01096 0
      vertex -5.05636 -3.67366 10
      vertex -5.05636 -3.67366 0
    endloop
  endfacet
endsolid OpenSCAD_Model
