solid OpenSCAD_Model
  facet normal -0.866025 0.500001 0
    outer loop
      vertex -10.0975 0 0
      vertex -5.04874 8.74469 10
      vertex -5.04874 8.74469 0
    endloop
  endfacet
  facet normal -0.866025 0.500001 0
    outer loop
      vertex -5.04874 8.74469 10
      vertex -10.0975 0 0
      vertex -10.0975 0 10
    endloop
  endfacet
  facet normal 0 1 -0
    outer loop
      vertex 5.04874 8.74469 0
      vertex -5.04874 8.74469 10
      vertex 5.04874 8.74469 10
    endloop
  endfacet
  facet normal 0 1 0
    outer loop
      vertex -5.04874 8.74469 10
      vertex 5.04874 8.74469 0
      vertex -5.04874 8.74469 0
    endloop
  endfacet
  facet normal 0 0 1
    outer loop
      vertex 10.0975 0 10
      vertex 5.2086 0.657999 10
      vertex 5.25 0 10
    endloop
  endfacet
  facet normal 0 0 1
    outer loop
      vertex 10.0975 0 10
      vertex 5.08506 1.30562 10
      vertex 5.2086 0.657999 10
    endloop
  endfacet
  facet normal -0 0 1
    outer loop
      vertex 4.60061 2.52921 10
      vertex 10.0975 0 10
      vertex 5.04874 8.74469 10
    endloop
  endfacet
  facet normal 0 0 1
    outer loop
      vertex 10.0975 0 10
      vertex 4.88133 1.93265 10
      vertex 5.08506 1.30562 10
    endloop
  endfacet
  facet normal 0 0 1
    outer loop
      vertex 10.0975 0 10
      vertex 4.60061 2.52921 10
      vertex 4.88133 1.93265 10
    endloop
  endfacet
  facet normal 0 0 1
    outer loop
      vertex 5.04874 8.74469 10
      vertex 4.24734 3.08587 10
      vertex 4.60061 2.52921 10
    endloop
  endfacet
  facet normal 0 0 1
    outer loop
      vertex 5.04874 8.74469 10
      vertex 3.82708 3.59387 10
      vertex 4.24734 3.08587 10
    endloop
  endfacet
  facet normal 0 0 1
    outer loop
      vertex 5.04874 8.74469 10
      vertex 3.34648 4.04519 10
      vertex 3.82708 3.59387 10
    endloop
  endfacet
  facet normal 0 0 1
    outer loop
      vertex 5.04874 8.74469 10
      vertex 2.81309 4.43272 10
      vertex 3.34648 4.04519 10
    endloop
  endfacet
  facet normal 0 0 1
    outer loop
      vertex 5.04874 8.74469 10
      vertex 2.23534 4.75034 10
      vertex 2.81309 4.43272 10
    endloop
  endfacet
  facet normal 0 0 1
    outer loop
      vertex 5.04874 8.74469 10
      vertex 1.62234 4.99305 10
      vertex 2.23534 4.75034 10
    endloop
  endfacet
  facet normal 0 0 1
    outer loop
      vertex 5.04874 8.74469 10
      vertex 0.983751 5.15701 10
      vertex 1.62234 4.99305 10
    endloop
  endfacet
  facet normal 0 0 1
    outer loop
      vertex 5.04874 8.74469 10
      vertex 0.32965 5.23964 10
      vertex 0.983751 5.15701 10
    endloop
  endfacet
  facet normal 0 0 1
    outer loop
      vertex 5.04874 8.74469 10
      vertex -0.32965 5.23964 10
      vertex 0.32965 5.23964 10
    endloop
  endfacet
  facet normal -0 0 1
    outer loop
      vertex -5.04874 8.74469 10
      vertex -0.32965 5.23964 10
      vertex 5.04874 8.74469 10
    endloop
  endfacet
  facet normal 0 0 1
    outer loop
      vertex -0.32965 5.23964 10
      vertex -5.04874 8.74469 10
      vertex -0.983751 5.15701 10
    endloop
  endfacet
  facet normal 0 0 1
    outer loop
      vertex -0.983751 5.15701 10
      vertex -5.04874 8.74469 10
      vertex -1.62234 4.99305 10
    endloop
  endfacet
  facet normal 0 0 1
    outer loop
      vertex -1.62234 4.99305 10
      vertex -5.04874 8.74469 10
      vertex -2.23534 4.75034 10
    endloop
  endfacet
  facet normal 0 0 1
    outer loop
      vertex -5.04874 8.74469 10
      vertex -2.81309 4.43272 10
      vertex -2.23534 4.75034 10
    endloop
  endfacet
  facet normal 0 0 1
    outer loop
      vertex -5.04874 8.74469 10
      vertex -3.34648 4.04519 10
      vertex -2.81309 4.43272 10
    endloop
  endfacet
  facet normal 0 0 1
    outer loop
      vertex -5.04874 8.74469 10
      vertex -3.82708 3.59387 10
      vertex -3.34648 4.04519 10
    endloop
  endfacet
  facet normal 0 0 1
    outer loop
      vertex -5.04874 8.74469 10
      vertex -4.24734 3.08587 10
      vertex -3.82708 3.59387 10
    endloop
  endfacet
  facet normal 0 0 1
    outer loop
      vertex -5.04874 8.74469 10
      vertex -4.60061 2.52921 10
      vertex -4.24734 3.08587 10
    endloop
  endfacet
  facet normal 0 0 1
    outer loop
      vertex -10.0975 0 10
      vertex -4.60061 2.52921 10
      vertex -5.04874 8.74469 10
    endloop
  endfacet
  facet normal 0 0 1
    outer loop
      vertex -4.60061 2.52921 10
      vertex -10.0975 0 10
      vertex -4.88133 1.93265 10
    endloop
  endfacet
  facet normal 0 0 1
    outer loop
      vertex -4.88133 1.93265 10
      vertex -10.0975 0 10
      vertex -5.08506 1.30562 10
    endloop
  endfacet
  facet normal 0 0 1
    outer loop
      vertex -5.08506 1.30562 10
      vertex -10.0975 0 10
      vertex -5.2086 0.657999 10
    endloop
  endfacet
  facet normal 0 0 1
    outer loop
      vertex -5.2086 0.657999 10
      vertex -10.0975 0 10
      vertex -5.25 0 10
    endloop
  endfacet
  facet normal 0 0 1
    outer loop
      vertex 5.2086 -0.657999 10
      vertex 10.0975 0 10
      vertex 5.25 0 10
    endloop
  endfacet
  facet normal 0 0 1
    outer loop
      vertex 5.08506 -1.30562 10
      vertex 10.0975 0 10
      vertex 5.2086 -0.657999 10
    endloop
  endfacet
  facet normal 0 0 1
    outer loop
      vertex 4.88133 -1.93265 10
      vertex 10.0975 0 10
      vertex 5.08506 -1.30562 10
    endloop
  endfacet
  facet normal 0 0 1
    outer loop
      vertex 4.60061 -2.52921 10
      vertex 10.0975 0 10
      vertex 4.88133 -1.93265 10
    endloop
  endfacet
  facet normal 0 0 1
    outer loop
      vertex 10.0975 0 10
      vertex 4.60061 -2.52921 10
      vertex 5.04874 -8.74469 10
    endloop
  endfacet
  facet normal -0 0 1
    outer loop
      vertex 4.24734 -3.08587 10
      vertex 5.04874 -8.74469 10
      vertex 4.60061 -2.52921 10
    endloop
  endfacet
  facet normal -0 0 1
    outer loop
      vertex 3.82708 -3.59387 10
      vertex 5.04874 -8.74469 10
      vertex 4.24734 -3.08587 10
    endloop
  endfacet
  facet normal -0 0 1
    outer loop
      vertex 3.34648 -4.04519 10
      vertex 5.04874 -8.74469 10
      vertex 3.82708 -3.59387 10
    endloop
  endfacet
  facet normal -0 0 1
    outer loop
      vertex 2.81309 -4.43272 10
      vertex 5.04874 -8.74469 10
      vertex 3.34648 -4.04519 10
    endloop
  endfacet
  facet normal -0 0 1
    outer loop
      vertex 2.23534 -4.75034 10
      vertex 5.04874 -8.74469 10
      vertex 2.81309 -4.43272 10
    endloop
  endfacet
  facet normal -0 0 1
    outer loop
      vertex 1.62234 -4.99305 10
      vertex 5.04874 -8.74469 10
      vertex 2.23534 -4.75034 10
    endloop
  endfacet
  facet normal -0 0 1
    outer loop
      vertex 0.983751 -5.15701 10
      vertex 5.04874 -8.74469 10
      vertex 1.62234 -4.99305 10
    endloop
  endfacet
  facet normal -0 0 1
    outer loop
      vertex 0.32965 -5.23964 10
      vertex 5.04874 -8.74469 10
      vertex 0.983751 -5.15701 10
    endloop
  endfacet
  facet normal -0 0 1
    outer loop
      vertex -0.32965 -5.23964 10
      vertex 5.04874 -8.74469 10
      vertex 0.32965 -5.23964 10
    endloop
  endfacet
  facet normal 0 0 1
    outer loop
      vertex -5.04874 -8.74469 10
      vertex -0.32965 -5.23964 10
      vertex -0.983751 -5.15701 10
    endloop
  endfacet
  facet normal 0 0 1
    outer loop
      vertex -5.04874 -8.74469 10
      vertex -0.983751 -5.15701 10
      vertex -1.62234 -4.99305 10
    endloop
  endfacet
  facet normal 0 0 1
    outer loop
      vertex -5.04874 -8.74469 10
      vertex -1.62234 -4.99305 10
      vertex -2.23534 -4.75034 10
    endloop
  endfacet
  facet normal 0 0 1
    outer loop
      vertex -0.32965 -5.23964 10
      vertex -5.04874 -8.74469 10
      vertex 5.04874 -8.74469 10
    endloop
  endfacet
  facet normal 0 0 1
    outer loop
      vertex -2.81309 -4.43272 10
      vertex -5.04874 -8.74469 10
      vertex -2.23534 -4.75034 10
    endloop
  endfacet
  facet normal 0 0 1
    outer loop
      vertex -3.34648 -4.04519 10
      vertex -5.04874 -8.74469 10
      vertex -2.81309 -4.43272 10
    endloop
  endfacet
  facet normal 0 0 1
    outer loop
      vertex -3.82708 -3.59387 10
      vertex -5.04874 -8.74469 10
      vertex -3.34648 -4.04519 10
    endloop
  endfacet
  facet normal 0 0 1
    outer loop
      vertex -4.24734 -3.08587 10
      vertex -5.04874 -8.74469 10
      vertex -3.82708 -3.59387 10
    endloop
  endfacet
  facet normal 0 0 1
    outer loop
      vertex -4.60061 -2.52921 10
      vertex -5.04874 -8.74469 10
      vertex -4.24734 -3.08587 10
    endloop
  endfacet
  facet normal 0 0 1
    outer loop
      vertex -10.0975 0 10
      vertex -4.60061 -2.52921 10
      vertex -4.88133 -1.93265 10
    endloop
  endfacet
  facet normal 0 0 1
    outer loop
      vertex -10.0975 0 10
      vertex -4.88133 -1.93265 10
      vertex -5.08506 -1.30562 10
    endloop
  endfacet
  facet normal 0 0 1
    outer loop
      vertex -10.0975 0 10
      vertex -5.08506 -1.30562 10
      vertex -5.2086 -0.657999 10
    endloop
  endfacet
  facet normal -0 0 1
    outer loop
      vertex -10.0975 0 10
      vertex -5.2086 -0.657999 10
      vertex -5.25 0 10
    endloop
  endfacet
  facet normal 0 0 1
    outer loop
      vertex -4.60061 -2.52921 10
      vertex -10.0975 0 10
      vertex -5.04874 -8.74469 10
    endloop
  endfacet
  facet normal 0.866025 -0.500001 0
    outer loop
      vertex 5.04874 -8.74469 10
      vertex 10.0975 0 0
      vertex 10.0975 0 10
    endloop
  endfacet
  facet normal 0.866025 -0.500001 0
    outer loop
      vertex 10.0975 0 0
      vertex 5.04874 -8.74469 10
      vertex 5.04874 -8.74469 0
    endloop
  endfacet
  facet normal -0 0 -1
    outer loop
      vertex 10.0975 0 0
      vertex 5.2086 -0.657999 0
      vertex 5.25 0 0
    endloop
  endfacet
  facet normal 0 0 -1
    outer loop
      vertex 10.0975 0 0
      vertex 5.08506 -1.30562 0
      vertex 5.2086 -0.657999 0
    endloop
  endfacet
  facet normal 0 0 -1
    outer loop
      vertex 4.60061 -2.52921 0
      vertex 10.0975 0 0
      vertex 5.04874 -8.74469 0
    endloop
  endfacet
  facet normal 0 0 -1
    outer loop
      vertex 10.0975 0 0
      vertex 4.88133 -1.93265 0
      vertex 5.08506 -1.30562 0
    endloop
  endfacet
  facet normal 0 0 -1
    outer loop
      vertex 10.0975 0 0
      vertex 4.60061 -2.52921 0
      vertex 4.88133 -1.93265 0
    endloop
  endfacet
  facet normal 0 0 -1
    outer loop
      vertex 5.04874 -8.74469 0
      vertex 4.24734 -3.08587 0
      vertex 4.60061 -2.52921 0
    endloop
  endfacet
  facet normal 0 0 -1
    outer loop
      vertex 5.04874 -8.74469 0
      vertex 3.82708 -3.59387 0
      vertex 4.24734 -3.08587 0
    endloop
  endfacet
  facet normal 0 0 -1
    outer loop
      vertex 5.04874 -8.74469 0
      vertex 3.34648 -4.04519 0
      vertex 3.82708 -3.59387 0
    endloop
  endfacet
  facet normal 0 0 -1
    outer loop
      vertex 5.04874 -8.74469 0
      vertex 2.81309 -4.43272 0
      vertex 3.34648 -4.04519 0
    endloop
  endfacet
  facet normal 0 0 -1
    outer loop
      vertex 5.04874 -8.74469 0
      vertex 2.23534 -4.75034 0
      vertex 2.81309 -4.43272 0
    endloop
  endfacet
  facet normal 0 0 -1
    outer loop
      vertex 5.04874 -8.74469 0
      vertex 1.62234 -4.99305 0
      vertex 2.23534 -4.75034 0
    endloop
  endfacet
  facet normal 0 0 -1
    outer loop
      vertex 5.04874 -8.74469 0
      vertex 0.983751 -5.15701 0
      vertex 1.62234 -4.99305 0
    endloop
  endfacet
  facet normal 0 0 -1
    outer loop
      vertex 5.04874 -8.74469 0
      vertex 0.32965 -5.23964 0
      vertex 0.983751 -5.15701 0
    endloop
  endfacet
  facet normal 0 0 -1
    outer loop
      vertex 5.04874 -8.74469 0
      vertex -0.32965 -5.23964 0
      vertex 0.32965 -5.23964 0
    endloop
  endfacet
  facet normal 0 0 -1
    outer loop
      vertex -5.04874 -8.74469 0
      vertex -0.32965 -5.23964 0
      vertex 5.04874 -8.74469 0
    endloop
  endfacet
  facet normal -0 0 -1
    outer loop
      vertex -0.32965 -5.23964 0
      vertex -5.04874 -8.74469 0
      vertex -0.983751 -5.15701 0
    endloop
  endfacet
  facet normal -0 0 -1
    outer loop
      vertex -0.983751 -5.15701 0
      vertex -5.04874 -8.74469 0
      vertex -1.62234 -4.99305 0
    endloop
  endfacet
  facet normal -0 0 -1
    outer loop
      vertex -1.62234 -4.99305 0
      vertex -5.04874 -8.74469 0
      vertex -2.23534 -4.75034 0
    endloop
  endfacet
  facet normal 0 0 -1
    outer loop
      vertex -5.04874 -8.74469 0
      vertex -2.81309 -4.43272 0
      vertex -2.23534 -4.75034 0
    endloop
  endfacet
  facet normal 0 0 -1
    outer loop
      vertex -5.04874 -8.74469 0
      vertex -3.34648 -4.04519 0
      vertex -2.81309 -4.43272 0
    endloop
  endfacet
  facet normal 0 0 -1
    outer loop
      vertex -5.04874 -8.74469 0
      vertex -3.82708 -3.59387 0
      vertex -3.34648 -4.04519 0
    endloop
  endfacet
  facet normal 0 0 -1
    outer loop
      vertex -5.04874 -8.74469 0
      vertex -4.24734 -3.08587 0
      vertex -3.82708 -3.59387 0
    endloop
  endfacet
  facet normal 0 0 -1
    outer loop
      vertex -5.04874 -8.74469 0
      vertex -4.60061 -2.52921 0
      vertex -4.24734 -3.08587 0
    endloop
  endfacet
  facet normal 0 0 -1
    outer loop
      vertex -10.0975 0 0
      vertex -4.60061 -2.52921 0
      vertex -5.04874 -8.74469 0
    endloop
  endfacet
  facet normal 0 0 -1
    outer loop
      vertex -4.60061 -2.52921 0
      vertex -10.0975 0 0
      vertex -4.88133 -1.93265 0
    endloop
  endfacet
  facet normal 0 0 -1
    outer loop
      vertex -4.88133 -1.93265 0
      vertex -10.0975 0 0
      vertex -5.08506 -1.30562 0
    endloop
  endfacet
  facet normal 0 0 -1
    outer loop
      vertex -5.08506 -1.30562 0
      vertex -10.0975 0 0
      vertex -5.2086 -0.657999 0
    endloop
  endfacet
  facet normal 0 0 -1
    outer loop
      vertex -5.2086 -0.657999 0
      vertex -10.0975 0 0
      vertex -5.25 0 0
    endloop
  endfacet
  facet normal 0 0 -1
    outer loop
      vertex 5.2086 0.657999 0
      vertex 10.0975 0 0
      vertex 5.25 0 0
    endloop
  endfacet
  facet normal 0 0 -1
    outer loop
      vertex 5.08506 1.30562 0
      vertex 10.0975 0 0
      vertex 5.2086 0.657999 0
    endloop
  endfacet
  facet normal 0 0 -1
    outer loop
      vertex 4.88133 1.93265 0
      vertex 10.0975 0 0
      vertex 5.08506 1.30562 0
    endloop
  endfacet
  facet normal 0 0 -1
    outer loop
      vertex 4.60061 2.52921 0
      vertex 10.0975 0 0
      vertex 4.88133 1.93265 0
    endloop
  endfacet
  facet normal 0 0 -1
    outer loop
      vertex 10.0975 0 0
      vertex 4.60061 2.52921 0
      vertex 5.04874 8.74469 0
    endloop
  endfacet
  facet normal 0 0 -1
    outer loop
      vertex 4.24734 3.08587 0
      vertex 5.04874 8.74469 0
      vertex 4.60061 2.52921 0
    endloop
  endfacet
  facet normal 0 0 -1
    outer loop
      vertex 3.82708 3.59387 0
      vertex 5.04874 8.74469 0
      vertex 4.24734 3.08587 0
    endloop
  endfacet
  facet normal 0 0 -1
    outer loop
      vertex 3.34648 4.04519 0
      vertex 5.04874 8.74469 0
      vertex 3.82708 3.59387 0
    endloop
  endfacet
  facet normal 0 0 -1
    outer loop
      vertex 2.81309 4.43272 0
      vertex 5.04874 8.74469 0
      vertex 3.34648 4.04519 0
    endloop
  endfacet
  facet normal 0 0 -1
    outer loop
      vertex 2.23534 4.75034 0
      vertex 5.04874 8.74469 0
      vertex 2.81309 4.43272 0
    endloop
  endfacet
  facet normal 0 0 -1
    outer loop
      vertex 1.62234 4.99305 0
      vertex 5.04874 8.74469 0
      vertex 2.23534 4.75034 0
    endloop
  endfacet
  facet normal 0 0 -1
    outer loop
      vertex 0.983751 5.15701 0
      vertex 5.04874 8.74469 0
      vertex 1.62234 4.99305 0
    endloop
  endfacet
  facet normal 0 0 -1
    outer loop
      vertex 0.32965 5.23964 0
      vertex 5.04874 8.74469 0
      vertex 0.983751 5.15701 0
    endloop
  endfacet
  facet normal 0 0 -1
    outer loop
      vertex -0.32965 5.23964 0
      vertex 5.04874 8.74469 0
      vertex 0.32965 5.23964 0
    endloop
  endfacet
  facet normal 0 0 -1
    outer loop
      vertex -5.04874 8.74469 0
      vertex -0.32965 5.23964 0
      vertex -0.983751 5.15701 0
    endloop
  endfacet
  facet normal 0 0 -1
    outer loop
      vertex -5.04874 8.74469 0
      vertex -0.983751 5.15701 0
      vertex -1.62234 4.99305 0
    endloop
  endfacet
  facet normal 0 0 -1
    outer loop
      vertex -5.04874 8.74469 0
      vertex -1.62234 4.99305 0
      vertex -2.23534 4.75034 0
    endloop
  endfacet
  facet normal 0 0 -1
    outer loop
      vertex -0.32965 5.23964 0
      vertex -5.04874 8.74469 0
      vertex 5.04874 8.74469 0
    endloop
  endfacet
  facet normal 0 0 -1
    outer loop
      vertex -2.81309 4.43272 0
      vertex -5.04874 8.74469 0
      vertex -2.23534 4.75034 0
    endloop
  endfacet
  facet normal 0 0 -1
    outer loop
      vertex -3.34648 4.04519 0
      vertex -5.04874 8.74469 0
      vertex -2.81309 4.43272 0
    endloop
  endfacet
  facet normal 0 0 -1
    outer loop
      vertex -3.82708 3.59387 0
      vertex -5.04874 8.74469 0
      vertex -3.34648 4.04519 0
    endloop
  endfacet
  facet normal 0 0 -1
    outer loop
      vertex -4.24734 3.08587 0
      vertex -5.04874 8.74469 0
      vertex -3.82708 3.59387 0
    endloop
  endfacet
  facet normal 0 0 -1
    outer loop
      vertex -4.60061 2.52921 0
      vertex -5.04874 8.74469 0
      vertex -4.24734 3.08587 0
    endloop
  endfacet
  facet normal 0 0 -1
    outer loop
      vertex -10.0975 0 0
      vertex -4.60061 2.52921 0
      vertex -4.88133 1.93265 0
    endloop
  endfacet
  facet normal 0 0 -1
    outer loop
      vertex -10.0975 0 0
      vertex -4.88133 1.93265 0
      vertex -5.08506 1.30562 0
    endloop
  endfacet
  facet normal 0 0 -1
    outer loop
      vertex -10.0975 0 0
      vertex -5.08506 1.30562 0
      vertex -5.2086 0.657999 0
    endloop
  endfacet
  facet normal 0 0 -1
    outer loop
      vertex -10.0975 0 0
      vertex -5.2086 0.657999 0
      vertex -5.25 0 0
    endloop
  endfacet
  facet normal -0 0 -1
    outer loop
      vertex -4.60061 2.52921 0
      vertex -10.0975 0 0
      vertex -5.04874 8.74469 0
    endloop
  endfacet
  facet normal 0.866025 0.500001 0
    outer loop
      vertex 10.0975 0 10
      vertex 5.04874 8.74469 0
      vertex 5.04874 8.74469 10
    endloop
  endfacet
  facet normal 0.866025 0.500001 0
    outer loop
      vertex 5.04874 8.74469 0
      vertex 10.0975 0 10
      vertex 10.0975 0 0
    endloop
  endfacet
  facet normal -0.866025 -0.500001 0
    outer loop
      vertex -5.04874 -8.74469 0
      vertex -10.0975 0 10
      vertex -10.0975 0 0
    endloop
  endfacet
  facet normal -0.866025 -0.500001 0
    outer loop
      vertex -10.0975 0 10
      vertex -5.04874 -8.74469 0
      vertex -5.04874 -8.74469 10
    endloop
  endfacet
  facet normal 0 -1 0
    outer loop
      vertex -5.04874 -8.74469 0
      vertex 5.04874 -8.74469 10
      vertex -5.04874 -8.74469 10
    endloop
  endfacet
  facet normal 0 -1 -0
    outer loop
      vertex 5.04874 -8.74469 10
      vertex -5.04874 -8.74469 0
      vertex 5.04874 -8.74469 0
    endloop
  endfacet
  facet normal -0.998027 -0.0627939 0
    outer loop
      vertex 5.25 0 0
      vertex 5.2086 0.657999 10
      vertex 5.2086 0.657999 0
    endloop
  endfacet
  facet normal -0.998027 -0.0627939 0
    outer loop
      vertex 5.2086 0.657999 10
      vertex 5.25 0 0
      vertex 5.25 0 10
    endloop
  endfacet
  facet normal 0.998027 -0.0627939 0
    outer loop
      vertex -5.25 0 10
      vertex -5.2086 0.657999 0
      vertex -5.2086 0.657999 10
    endloop
  endfacet
  facet normal 0.998027 -0.0627939 0
    outer loop
      vertex -5.2086 0.657999 0
      vertex -5.25 0 10
      vertex -5.25 0 0
    endloop
  endfacet
  facet normal 0 -1 0
    outer loop
      vertex -0.32965 5.23964 0
      vertex 0.32965 5.23964 10
      vertex -0.32965 5.23964 10
    endloop
  endfacet
  facet normal 0 -1 -0
    outer loop
      vertex 0.32965 5.23964 10
      vertex -0.32965 5.23964 0
      vertex 0.32965 5.23964 0
    endloop
  endfacet
  facet normal 0 1 -0
    outer loop
      vertex 0.32965 -5.23964 0
      vertex -0.32965 -5.23964 10
      vertex 0.32965 -5.23964 10
    endloop
  endfacet
  facet normal 0 1 0
    outer loop
      vertex -0.32965 -5.23964 10
      vertex 0.32965 -5.23964 0
      vertex -0.32965 -5.23964 0
    endloop
  endfacet
  facet normal -0.684552 -0.728964 0
    outer loop
      vertex 3.34648 4.04519 0
      vertex 3.82708 3.59387 10
      vertex 3.34648 4.04519 10
    endloop
  endfacet
  facet normal -0.684552 -0.728964 -0
    outer loop
      vertex 3.82708 3.59387 10
      vertex 3.34648 4.04519 0
      vertex 3.82708 3.59387 0
    endloop
  endfacet
  facet normal 0.684552 -0.728964 0
    outer loop
      vertex -3.82708 3.59387 0
      vertex -3.34648 4.04519 10
      vertex -3.82708 3.59387 10
    endloop
  endfacet
  facet normal 0.684552 -0.728964 0
    outer loop
      vertex -3.34648 4.04519 10
      vertex -3.82708 3.59387 0
      vertex -3.34648 4.04519 0
    endloop
  endfacet
  facet normal 0.368133 -0.929773 0
    outer loop
      vertex -2.23534 4.75034 0
      vertex -1.62234 4.99305 10
      vertex -2.23534 4.75034 10
    endloop
  endfacet
  facet normal 0.368133 -0.929773 0
    outer loop
      vertex -1.62234 4.99305 10
      vertex -2.23534 4.75034 0
      vertex -1.62234 4.99305 0
    endloop
  endfacet
  facet normal -0.904827 -0.42578 0
    outer loop
      vertex 4.88133 1.93265 0
      vertex 4.60061 2.52921 10
      vertex 4.60061 2.52921 0
    endloop
  endfacet
  facet normal -0.904827 -0.42578 0
    outer loop
      vertex 4.60061 2.52921 10
      vertex 4.88133 1.93265 0
      vertex 4.88133 1.93265 10
    endloop
  endfacet
  facet normal -0.982287 -0.187381 0
    outer loop
      vertex 5.2086 0.657999 0
      vertex 5.08506 1.30562 10
      vertex 5.08506 1.30562 0
    endloop
  endfacet
  facet normal -0.982287 -0.187381 0
    outer loop
      vertex 5.08506 1.30562 10
      vertex 5.2086 0.657999 0
      vertex 5.2086 0.657999 10
    endloop
  endfacet
  facet normal -0.368133 -0.929773 0
    outer loop
      vertex 1.62234 4.99305 0
      vertex 2.23534 4.75034 10
      vertex 1.62234 4.99305 10
    endloop
  endfacet
  facet normal -0.368133 -0.929773 -0
    outer loop
      vertex 2.23534 4.75034 10
      vertex 1.62234 4.99305 0
      vertex 2.23534 4.75034 0
    endloop
  endfacet
  facet normal -0.481753 -0.876307 0
    outer loop
      vertex 2.23534 4.75034 0
      vertex 2.81309 4.43272 10
      vertex 2.23534 4.75034 10
    endloop
  endfacet
  facet normal -0.481753 -0.876307 -0
    outer loop
      vertex 2.81309 4.43272 10
      vertex 2.23534 4.75034 0
      vertex 2.81309 4.43272 0
    endloop
  endfacet
  facet normal 0.904827 -0.42578 0
    outer loop
      vertex -4.88133 1.93265 10
      vertex -4.60061 2.52921 0
      vertex -4.60061 2.52921 10
    endloop
  endfacet
  facet normal 0.904827 -0.42578 0
    outer loop
      vertex -4.60061 2.52921 0
      vertex -4.88133 1.93265 10
      vertex -4.88133 1.93265 0
    endloop
  endfacet
  facet normal 0.481753 -0.876307 0
    outer loop
      vertex -2.81309 4.43272 0
      vertex -2.23534 4.75034 10
      vertex -2.81309 4.43272 10
    endloop
  endfacet
  facet normal 0.481753 -0.876307 0
    outer loop
      vertex -2.23534 4.75034 10
      vertex -2.81309 4.43272 0
      vertex -2.23534 4.75034 0
    endloop
  endfacet
  facet normal 0.248687 -0.968584 0
    outer loop
      vertex -1.62234 4.99305 0
      vertex -0.983751 5.15701 10
      vertex -1.62234 4.99305 10
    endloop
  endfacet
  facet normal 0.248687 -0.968584 0
    outer loop
      vertex -0.983751 5.15701 10
      vertex -1.62234 4.99305 0
      vertex -0.983751 5.15701 0
    endloop
  endfacet
  facet normal -0.12533 0.992115 0
    outer loop
      vertex 0.983751 -5.15701 0
      vertex 0.32965 -5.23964 10
      vertex 0.983751 -5.15701 10
    endloop
  endfacet
  facet normal -0.12533 0.992115 0
    outer loop
      vertex 0.32965 -5.23964 10
      vertex 0.983751 -5.15701 0
      vertex 0.32965 -5.23964 0
    endloop
  endfacet
  facet normal -0.368133 0.929773 0
    outer loop
      vertex 2.23534 -4.75034 0
      vertex 1.62234 -4.99305 10
      vertex 2.23534 -4.75034 10
    endloop
  endfacet
  facet normal -0.368133 0.929773 0
    outer loop
      vertex 1.62234 -4.99305 10
      vertex 2.23534 -4.75034 0
      vertex 1.62234 -4.99305 0
    endloop
  endfacet
  facet normal -0.951058 -0.309011 0
    outer loop
      vertex 5.08506 1.30562 0
      vertex 4.88133 1.93265 10
      vertex 4.88133 1.93265 0
    endloop
  endfacet
  facet normal -0.951058 -0.309011 0
    outer loop
      vertex 4.88133 1.93265 10
      vertex 5.08506 1.30562 0
      vertex 5.08506 1.30562 10
    endloop
  endfacet
  facet normal -0.770509 -0.637429 0
    outer loop
      vertex 4.24734 3.08587 0
      vertex 3.82708 3.59387 10
      vertex 3.82708 3.59387 0
    endloop
  endfacet
  facet normal -0.770509 -0.637429 0
    outer loop
      vertex 3.82708 3.59387 10
      vertex 4.24734 3.08587 0
      vertex 4.24734 3.08587 10
    endloop
  endfacet
  facet normal -0.844326 -0.53583 0
    outer loop
      vertex 4.60061 2.52921 0
      vertex 4.24734 3.08587 10
      vertex 4.24734 3.08587 0
    endloop
  endfacet
  facet normal -0.844326 -0.53583 0
    outer loop
      vertex 4.24734 3.08587 10
      vertex 4.60061 2.52921 0
      vertex 4.60061 2.52921 10
    endloop
  endfacet
  facet normal -0.248687 -0.968584 0
    outer loop
      vertex 0.983751 5.15701 0
      vertex 1.62234 4.99305 10
      vertex 0.983751 5.15701 10
    endloop
  endfacet
  facet normal -0.248687 -0.968584 -0
    outer loop
      vertex 1.62234 4.99305 10
      vertex 0.983751 5.15701 0
      vertex 1.62234 4.99305 0
    endloop
  endfacet
  facet normal -0.12533 -0.992115 0
    outer loop
      vertex 0.32965 5.23964 0
      vertex 0.983751 5.15701 10
      vertex 0.32965 5.23964 10
    endloop
  endfacet
  facet normal -0.12533 -0.992115 -0
    outer loop
      vertex 0.983751 5.15701 10
      vertex 0.32965 5.23964 0
      vertex 0.983751 5.15701 0
    endloop
  endfacet
  facet normal -0.587785 -0.809017 0
    outer loop
      vertex 2.81309 4.43272 0
      vertex 3.34648 4.04519 10
      vertex 2.81309 4.43272 10
    endloop
  endfacet
  facet normal -0.587785 -0.809017 -0
    outer loop
      vertex 3.34648 4.04519 10
      vertex 2.81309 4.43272 0
      vertex 3.34648 4.04519 0
    endloop
  endfacet
  facet normal 0.844326 -0.53583 0
    outer loop
      vertex -4.60061 2.52921 10
      vertex -4.24734 3.08587 0
      vertex -4.24734 3.08587 10
    endloop
  endfacet
  facet normal 0.844326 -0.53583 0
    outer loop
      vertex -4.24734 3.08587 0
      vertex -4.60061 2.52921 10
      vertex -4.60061 2.52921 0
    endloop
  endfacet
  facet normal 0.770509 -0.637429 0
    outer loop
      vertex -4.24734 3.08587 10
      vertex -3.82708 3.59387 0
      vertex -3.82708 3.59387 10
    endloop
  endfacet
  facet normal 0.770509 -0.637429 0
    outer loop
      vertex -3.82708 3.59387 0
      vertex -4.24734 3.08587 10
      vertex -4.24734 3.08587 0
    endloop
  endfacet
  facet normal 0.951058 -0.309011 0
    outer loop
      vertex -5.08506 1.30562 10
      vertex -4.88133 1.93265 0
      vertex -4.88133 1.93265 10
    endloop
  endfacet
  facet normal 0.951058 -0.309011 0
    outer loop
      vertex -4.88133 1.93265 0
      vertex -5.08506 1.30562 10
      vertex -5.08506 1.30562 0
    endloop
  endfacet
  facet normal 0.982287 -0.187381 0
    outer loop
      vertex -5.2086 0.657999 10
      vertex -5.08506 1.30562 0
      vertex -5.08506 1.30562 10
    endloop
  endfacet
  facet normal 0.982287 -0.187381 0
    outer loop
      vertex -5.08506 1.30562 0
      vertex -5.2086 0.657999 10
      vertex -5.2086 0.657999 0
    endloop
  endfacet
  facet normal 0.587785 -0.809017 0
    outer loop
      vertex -3.34648 4.04519 0
      vertex -2.81309 4.43272 10
      vertex -3.34648 4.04519 10
    endloop
  endfacet
  facet normal 0.587785 -0.809017 0
    outer loop
      vertex -2.81309 4.43272 10
      vertex -3.34648 4.04519 0
      vertex -2.81309 4.43272 0
    endloop
  endfacet
  facet normal 0.12533 -0.992115 0
    outer loop
      vertex -0.983751 5.15701 0
      vertex -0.32965 5.23964 10
      vertex -0.983751 5.15701 10
    endloop
  endfacet
  facet normal 0.12533 -0.992115 0
    outer loop
      vertex -0.32965 5.23964 10
      vertex -0.983751 5.15701 0
      vertex -0.32965 5.23964 0
    endloop
  endfacet
  facet normal -0.982287 0.187381 0
    outer loop
      vertex 5.08506 -1.30562 0
      vertex 5.2086 -0.657999 10
      vertex 5.2086 -0.657999 0
    endloop
  endfacet
  facet normal -0.982287 0.187381 0
    outer loop
      vertex 5.2086 -0.657999 10
      vertex 5.08506 -1.30562 0
      vertex 5.08506 -1.30562 10
    endloop
  endfacet
  facet normal 0.684552 0.728964 -0
    outer loop
      vertex -3.34648 -4.04519 0
      vertex -3.82708 -3.59387 10
      vertex -3.34648 -4.04519 10
    endloop
  endfacet
  facet normal 0.684552 0.728964 0
    outer loop
      vertex -3.82708 -3.59387 10
      vertex -3.34648 -4.04519 0
      vertex -3.82708 -3.59387 0
    endloop
  endfacet
  facet normal 0.904827 0.42578 0
    outer loop
      vertex -4.60061 -2.52921 10
      vertex -4.88133 -1.93265 0
      vertex -4.88133 -1.93265 10
    endloop
  endfacet
  facet normal 0.904827 0.42578 0
    outer loop
      vertex -4.88133 -1.93265 0
      vertex -4.60061 -2.52921 10
      vertex -4.60061 -2.52921 0
    endloop
  endfacet
  facet normal 0.844326 0.53583 0
    outer loop
      vertex -4.24734 -3.08587 10
      vertex -4.60061 -2.52921 0
      vertex -4.60061 -2.52921 10
    endloop
  endfacet
  facet normal 0.844326 0.53583 0
    outer loop
      vertex -4.60061 -2.52921 0
      vertex -4.24734 -3.08587 10
      vertex -4.24734 -3.08587 0
    endloop
  endfacet
  facet normal -0.481753 0.876307 0
    outer loop
      vertex 2.81309 -4.43272 0
      vertex 2.23534 -4.75034 10
      vertex 2.81309 -4.43272 10
    endloop
  endfacet
  facet normal -0.481753 0.876307 0
    outer loop
      vertex 2.23534 -4.75034 10
      vertex 2.81309 -4.43272 0
      vertex 2.23534 -4.75034 0
    endloop
  endfacet
  facet normal -0.904827 0.42578 0
    outer loop
      vertex 4.60061 -2.52921 0
      vertex 4.88133 -1.93265 10
      vertex 4.88133 -1.93265 0
    endloop
  endfacet
  facet normal -0.904827 0.42578 0
    outer loop
      vertex 4.88133 -1.93265 10
      vertex 4.60061 -2.52921 0
      vertex 4.60061 -2.52921 10
    endloop
  endfacet
  facet normal -0.998027 0.0627939 0
    outer loop
      vertex 5.2086 -0.657999 0
      vertex 5.25 0 10
      vertex 5.25 0 0
    endloop
  endfacet
  facet normal -0.998027 0.0627939 0
    outer loop
      vertex 5.25 0 10
      vertex 5.2086 -0.657999 0
      vertex 5.2086 -0.657999 10
    endloop
  endfacet
  facet normal 0.368133 0.929773 -0
    outer loop
      vertex -1.62234 -4.99305 0
      vertex -2.23534 -4.75034 10
      vertex -1.62234 -4.99305 10
    endloop
  endfacet
  facet normal 0.368133 0.929773 0
    outer loop
      vertex -2.23534 -4.75034 10
      vertex -1.62234 -4.99305 0
      vertex -2.23534 -4.75034 0
    endloop
  endfacet
  facet normal 0.770509 0.637429 0
    outer loop
      vertex -3.82708 -3.59387 10
      vertex -4.24734 -3.08587 0
      vertex -4.24734 -3.08587 10
    endloop
  endfacet
  facet normal 0.770509 0.637429 0
    outer loop
      vertex -4.24734 -3.08587 0
      vertex -3.82708 -3.59387 10
      vertex -3.82708 -3.59387 0
    endloop
  endfacet
  facet normal 0.982287 0.187381 0
    outer loop
      vertex -5.08506 -1.30562 10
      vertex -5.2086 -0.657999 0
      vertex -5.2086 -0.657999 10
    endloop
  endfacet
  facet normal 0.982287 0.187381 0
    outer loop
      vertex -5.2086 -0.657999 0
      vertex -5.08506 -1.30562 10
      vertex -5.08506 -1.30562 0
    endloop
  endfacet
  facet normal 0.998027 0.0627939 0
    outer loop
      vertex -5.2086 -0.657999 10
      vertex -5.25 0 0
      vertex -5.25 0 10
    endloop
  endfacet
  facet normal 0.998027 0.0627939 0
    outer loop
      vertex -5.25 0 0
      vertex -5.2086 -0.657999 10
      vertex -5.2086 -0.657999 0
    endloop
  endfacet
  facet normal 0.951058 0.309011 0
    outer loop
      vertex -4.88133 -1.93265 10
      vertex -5.08506 -1.30562 0
      vertex -5.08506 -1.30562 10
    endloop
  endfacet
  facet normal 0.951058 0.309011 0
    outer loop
      vertex -5.08506 -1.30562 0
      vertex -4.88133 -1.93265 10
      vertex -4.88133 -1.93265 0
    endloop
  endfacet
  facet normal -0.587785 0.809017 0
    outer loop
      vertex 3.34648 -4.04519 0
      vertex 2.81309 -4.43272 10
      vertex 3.34648 -4.04519 10
    endloop
  endfacet
  facet normal -0.587785 0.809017 0
    outer loop
      vertex 2.81309 -4.43272 10
      vertex 3.34648 -4.04519 0
      vertex 2.81309 -4.43272 0
    endloop
  endfacet
  facet normal -0.248687 0.968584 0
    outer loop
      vertex 1.62234 -4.99305 0
      vertex 0.983751 -5.15701 10
      vertex 1.62234 -4.99305 10
    endloop
  endfacet
  facet normal -0.248687 0.968584 0
    outer loop
      vertex 0.983751 -5.15701 10
      vertex 1.62234 -4.99305 0
      vertex 0.983751 -5.15701 0
    endloop
  endfacet
  facet normal -0.844326 0.53583 0
    outer loop
      vertex 4.24734 -3.08587 0
      vertex 4.60061 -2.52921 10
      vertex 4.60061 -2.52921 0
    endloop
  endfacet
  facet normal -0.844326 0.53583 0
    outer loop
      vertex 4.60061 -2.52921 10
      vertex 4.24734 -3.08587 0
      vertex 4.24734 -3.08587 10
    endloop
  endfacet
  facet normal -0.770509 0.637429 0
    outer loop
      vertex 3.82708 -3.59387 0
      vertex 4.24734 -3.08587 10
      vertex 4.24734 -3.08587 0
    endloop
  endfacet
  facet normal -0.770509 0.637429 0
    outer loop
      vertex 4.24734 -3.08587 10
      vertex 3.82708 -3.59387 0
      vertex 3.82708 -3.59387 10
    endloop
  endfacet
  facet normal -0.951058 0.309011 0
    outer loop
      vertex 4.88133 -1.93265 0
      vertex 5.08506 -1.30562 10
      vertex 5.08506 -1.30562 0
    endloop
  endfacet
  facet normal -0.951058 0.309011 0
    outer loop
      vertex 5.08506 -1.30562 10
      vertex 4.88133 -1.93265 0
      vertex 4.88133 -1.93265 10
    endloop
  endfacet
  facet normal 0.12533 0.992115 -0
    outer loop
      vertex -0.32965 -5.23964 0
      vertex -0.983751 -5.15701 10
      vertex -0.32965 -5.23964 10
    endloop
  endfacet
  facet normal 0.12533 0.992115 0
    outer loop
      vertex -0.983751 -5.15701 10
      vertex -0.32965 -5.23964 0
      vertex -0.983751 -5.15701 0
    endloop
  endfacet
  facet normal 0.481753 0.876307 -0
    outer loop
      vertex -2.23534 -4.75034 0
      vertex -2.81309 -4.43272 10
      vertex -2.23534 -4.75034 10
    endloop
  endfacet
  facet normal 0.481753 0.876307 0
    outer loop
      vertex -2.81309 -4.43272 10
      vertex -2.23534 -4.75034 0
      vertex -2.81309 -4.43272 0
    endloop
  endfacet
  facet normal -0.684552 0.728964 0
    outer loop
      vertex 3.82708 -3.59387 0
      vertex 3.34648 -4.04519 10
      vertex 3.82708 -3.59387 10
    endloop
  endfacet
  facet normal -0.684552 0.728964 0
    outer loop
      vertex 3.34648 -4.04519 10
      vertex 3.82708 -3.59387 0
      vertex 3.34648 -4.04519 0
    endloop
  endfacet
  facet normal 0.248687 0.968584 -0
    outer loop
      vertex -0.983751 -5.15701 0
      vertex -1.62234 -4.99305 10
      vertex -0.983751 -5.15701 10
    endloop
  endfacet
  facet normal 0.248687 0.968584 0
    outer loop
      vertex -1.62234 -4.99305 10
      vertex -0.983751 -5.15701 0
      vertex -1.62234 -4.99305 0
    endloop
  endfacet
  facet normal 0.587785 0.809017 -0
    outer loop
      vertex -2.81309 -4.43272 0
      vertex -3.34648 -4.04519 10
      vertex -2.81309 -4.43272 10
    endloop
  endfacet
  facet normal 0.587785 0.809017 0
    outer loop
      vertex -3.34648 -4.04519 10
      vertex -2.81309 -4.43272 0
      vertex -3.34648 -4.04519 0
    endloop
  endfacet
endsolid OpenSCAD_Model
