solid OpenSCAD_Model
  facet normal -0.951053 0.309028 3.17641e-18
    outer loop
      vertex -4.84292 1.24345 -1.5
      vertex -4.64888 1.84062 1.5
      vertex -4.64888 1.84062 -1.5
    endloop
  endfacet
  facet normal -0.951053 0.309028 3.17641e-18
    outer loop
      vertex -4.64888 1.84062 1.5
      vertex -4.84292 1.24345 -1.5
      vertex -4.84292 1.24345 1.5
    endloop
  endfacet
  facet normal 0.844328 0.535827 5.89952e-18
    outer loop
      vertex 4.38153 2.40877 1.5
      vertex 4.04508 2.93893 -1.5
      vertex 4.04508 2.93893 1.5
    endloop
  endfacet
  facet normal 0.844328 0.535827 5.89952e-18
    outer loop
      vertex 4.04508 2.93893 -1.5
      vertex 4.38153 2.40877 1.5
      vertex 4.38153 2.40877 -1.5
    endloop
  endfacet
  facet normal 0.368124 0.929777 -0
    outer loop
      vertex 2.1289 4.52413 -1.5
      vertex 1.54508 4.75528 1.5
      vertex 2.1289 4.52413 1.5
    endloop
  endfacet
  facet normal 0.368124 0.929777 0
    outer loop
      vertex 1.54508 4.75528 1.5
      vertex 2.1289 4.52413 -1.5
      vertex 1.54508 4.75528 -1.5
    endloop
  endfacet
  facet normal -0.368124 0.929777 0
    outer loop
      vertex -1.54508 4.75528 -1.5
      vertex -2.1289 4.52413 1.5
      vertex -1.54508 4.75528 1.5
    endloop
  endfacet
  facet normal -0.368124 0.929777 0
    outer loop
      vertex -2.1289 4.52413 1.5
      vertex -1.54508 4.75528 -1.5
      vertex -2.1289 4.52413 -1.5
    endloop
  endfacet
  facet normal -0.904828 0.425778 4.82033e-18
    outer loop
      vertex -4.64888 1.84062 -1.5
      vertex -4.38153 2.40877 1.5
      vertex -4.38153 2.40877 -1.5
    endloop
  endfacet
  facet normal -0.904828 0.425778 4.82033e-18
    outer loop
      vertex -4.38153 2.40877 1.5
      vertex -4.64888 1.84062 -1.5
      vertex -4.64888 1.84062 1.5
    endloop
  endfacet
  facet normal 0.998026 -0.0627961 -7.43739e-19
    outer loop
      vertex 4.96057 -0.626666 1.5
      vertex 5 0 -1.5
      vertex 5 0 1.5
    endloop
  endfacet
  facet normal 0.998026 -0.0627961 -7.43739e-19
    outer loop
      vertex 5 0 -1.5
      vertex 4.96057 -0.626666 1.5
      vertex 4.96057 -0.626666 -1.5
    endloop
  endfacet
  facet normal 0.368124 -0.929777 0
    outer loop
      vertex 1.54508 -4.75528 -1.5
      vertex 2.1289 -4.52413 1.5
      vertex 1.54508 -4.75528 1.5
    endloop
  endfacet
  facet normal 0.368124 -0.929777 0
    outer loop
      vertex 2.1289 -4.52413 1.5
      vertex 1.54508 -4.75528 -1.5
      vertex 2.1289 -4.52413 -1.5
    endloop
  endfacet
  facet normal 0.98229 0.187369 1.12595e-18
    outer loop
      vertex 4.96057 0.626666 1.5
      vertex 4.84292 1.24345 -1.5
      vertex 4.84292 1.24345 1.5
    endloop
  endfacet
  facet normal 0.98229 0.187369 1.12595e-18
    outer loop
      vertex 4.84292 1.24345 -1.5
      vertex 4.96057 0.626666 1.5
      vertex 4.96057 0.626666 -1.5
    endloop
  endfacet
  facet normal 0.684549 0.728967 -0
    outer loop
      vertex 3.64484 3.42274 -1.5
      vertex 3.18712 3.85257 1.5
      vertex 3.64484 3.42274 1.5
    endloop
  endfacet
  facet normal 0.684549 0.728967 0
    outer loop
      vertex 3.18712 3.85257 1.5
      vertex 3.64484 3.42274 -1.5
      vertex 3.18712 3.85257 -1.5
    endloop
  endfacet
  facet normal 0.125322 0.992116 -0
    outer loop
      vertex 0.936906 4.91144 -1.5
      vertex 0.313952 4.99013 1.5
      vertex 0.936906 4.91144 1.5
    endloop
  endfacet
  facet normal 0.125322 0.992116 0
    outer loop
      vertex 0.313952 4.99013 1.5
      vertex 0.936906 4.91144 -1.5
      vertex 0.313952 4.99013 -1.5
    endloop
  endfacet
  facet normal -0.770515 0.637422 4.6405e-18
    outer loop
      vertex -4.04508 2.93893 -1.5
      vertex -3.64484 3.42274 1.5
      vertex -3.64484 3.42274 -1.5
    endloop
  endfacet
  facet normal -0.770515 0.637422 4.6405e-18
    outer loop
      vertex -3.64484 3.42274 1.5
      vertex -4.04508 2.93893 -1.5
      vertex -4.04508 2.93893 1.5
    endloop
  endfacet
  facet normal -0.684549 0.728967 0
    outer loop
      vertex -3.18712 3.85257 -1.5
      vertex -3.64484 3.42274 1.5
      vertex -3.18712 3.85257 1.5
    endloop
  endfacet
  facet normal -0.684549 0.728967 0
    outer loop
      vertex -3.64484 3.42274 1.5
      vertex -3.18712 3.85257 -1.5
      vertex -3.64484 3.42274 -1.5
    endloop
  endfacet
  facet normal 0.998026 0.0627961 7.43739e-19
    outer loop
      vertex 5 0 1.5
      vertex 4.96057 0.626666 -1.5
      vertex 4.96057 0.626666 1.5
    endloop
  endfacet
  facet normal 0.998026 0.0627961 7.43739e-19
    outer loop
      vertex 4.96057 0.626666 -1.5
      vertex 5 0 1.5
      vertex 5 0 -1.5
    endloop
  endfacet
  facet normal 0.904828 -0.425778 4.82033e-18
    outer loop
      vertex 4.38153 -2.40877 1.5
      vertex 4.64888 -1.84062 -1.5
      vertex 4.64888 -1.84062 1.5
    endloop
  endfacet
  facet normal 0.904828 -0.425778 4.82033e-18
    outer loop
      vertex 4.64888 -1.84062 -1.5
      vertex 4.38153 -2.40877 1.5
      vertex 4.38153 -2.40877 -1.5
    endloop
  endfacet
  facet normal -0.125322 -0.992116 0
    outer loop
      vertex -0.936906 -4.91144 -1.5
      vertex -0.313952 -4.99013 1.5
      vertex -0.936906 -4.91144 1.5
    endloop
  endfacet
  facet normal -0.125322 -0.992116 -0
    outer loop
      vertex -0.313952 -4.99013 1.5
      vertex -0.936906 -4.91144 -1.5
      vertex -0.313952 -4.99013 -1.5
    endloop
  endfacet
  facet normal 0.248701 -0.96858 0
    outer loop
      vertex 0.936906 -4.91144 -1.5
      vertex 1.54508 -4.75528 1.5
      vertex 0.936906 -4.91144 1.5
    endloop
  endfacet
  facet normal 0.248701 -0.96858 0
    outer loop
      vertex 1.54508 -4.75528 1.5
      vertex 0.936906 -4.91144 -1.5
      vertex 1.54508 -4.75528 -1.5
    endloop
  endfacet
  facet normal 0.770515 0.637422 -4.6405e-18
    outer loop
      vertex 4.04508 2.93893 1.5
      vertex 3.64484 3.42274 -1.5
      vertex 3.64484 3.42274 1.5
    endloop
  endfacet
  facet normal 0.770515 0.637422 -4.6405e-18
    outer loop
      vertex 3.64484 3.42274 -1.5
      vertex 4.04508 2.93893 1.5
      vertex 4.04508 2.93893 -1.5
    endloop
  endfacet
  facet normal 0 1 -0
    outer loop
      vertex 0.313952 4.99013 -1.5
      vertex -0.313952 4.99013 1.5
      vertex 0.313952 4.99013 1.5
    endloop
  endfacet
  facet normal 0 1 0
    outer loop
      vertex -0.313952 4.99013 1.5
      vertex 0.313952 4.99013 -1.5
      vertex -0.313952 4.99013 -1.5
    endloop
  endfacet
  facet normal 0.248701 0.96858 -0
    outer loop
      vertex 1.54508 4.75528 -1.5
      vertex 0.936906 4.91144 1.5
      vertex 1.54508 4.75528 1.5
    endloop
  endfacet
  facet normal 0.248701 0.96858 0
    outer loop
      vertex 0.936906 4.91144 1.5
      vertex 1.54508 4.75528 -1.5
      vertex 0.936906 4.91144 -1.5
    endloop
  endfacet
  facet normal 0.587779 0.809022 -0
    outer loop
      vertex 3.18712 3.85257 -1.5
      vertex 2.67913 4.22164 1.5
      vertex 3.18712 3.85257 1.5
    endloop
  endfacet
  facet normal 0.587779 0.809022 0
    outer loop
      vertex 2.67913 4.22164 1.5
      vertex 3.18712 3.85257 -1.5
      vertex 2.67913 4.22164 -1.5
    endloop
  endfacet
  facet normal 0.481752 0.876308 -0
    outer loop
      vertex 2.67913 4.22164 -1.5
      vertex 2.1289 4.52413 1.5
      vertex 2.67913 4.22164 1.5
    endloop
  endfacet
  facet normal 0.481752 0.876308 0
    outer loop
      vertex 2.1289 4.52413 1.5
      vertex 2.67913 4.22164 -1.5
      vertex 2.1289 4.52413 -1.5
    endloop
  endfacet
  facet normal -0.998026 0.0627961 -7.43739e-19
    outer loop
      vertex -5 0 -1.5
      vertex -4.96057 0.626666 1.5
      vertex -4.96057 0.626666 -1.5
    endloop
  endfacet
  facet normal -0.998026 0.0627961 -7.43739e-19
    outer loop
      vertex -4.96057 0.626666 1.5
      vertex -5 0 -1.5
      vertex -5 0 1.5
    endloop
  endfacet
  facet normal -0.125322 0.992116 0
    outer loop
      vertex -0.313952 4.99013 -1.5
      vertex -0.936906 4.91144 1.5
      vertex -0.313952 4.99013 1.5
    endloop
  endfacet
  facet normal -0.125322 0.992116 0
    outer loop
      vertex -0.936906 4.91144 1.5
      vertex -0.313952 4.99013 -1.5
      vertex -0.936906 4.91144 -1.5
    endloop
  endfacet
  facet normal -0.248701 0.96858 0
    outer loop
      vertex -0.936906 4.91144 -1.5
      vertex -1.54508 4.75528 1.5
      vertex -0.936906 4.91144 1.5
    endloop
  endfacet
  facet normal -0.248701 0.96858 0
    outer loop
      vertex -1.54508 4.75528 1.5
      vertex -0.936906 4.91144 -1.5
      vertex -1.54508 4.75528 -1.5
    endloop
  endfacet
  facet normal -0.481752 0.876308 0
    outer loop
      vertex -2.1289 4.52413 -1.5
      vertex -2.67913 4.22164 1.5
      vertex -2.1289 4.52413 1.5
    endloop
  endfacet
  facet normal -0.481752 0.876308 0
    outer loop
      vertex -2.67913 4.22164 1.5
      vertex -2.1289 4.52413 -1.5
      vertex -2.67913 4.22164 -1.5
    endloop
  endfacet
  facet normal -0.587779 0.809022 0
    outer loop
      vertex -2.67913 4.22164 -1.5
      vertex -3.18712 3.85257 1.5
      vertex -2.67913 4.22164 1.5
    endloop
  endfacet
  facet normal -0.587779 0.809022 0
    outer loop
      vertex -3.18712 3.85257 1.5
      vertex -2.67913 4.22164 -1.5
      vertex -3.18712 3.85257 -1.5
    endloop
  endfacet
  facet normal 0.98229 -0.187369 -1.12595e-18
    outer loop
      vertex 4.84292 -1.24345 1.5
      vertex 4.96057 -0.626666 -1.5
      vertex 4.96057 -0.626666 1.5
    endloop
  endfacet
  facet normal 0.98229 -0.187369 -1.12595e-18
    outer loop
      vertex 4.96057 -0.626666 -1.5
      vertex 4.84292 -1.24345 1.5
      vertex 4.84292 -1.24345 -1.5
    endloop
  endfacet
  facet normal 0.770515 -0.637422 4.6405e-18
    outer loop
      vertex 3.64484 -3.42274 1.5
      vertex 4.04508 -2.93893 -1.5
      vertex 4.04508 -2.93893 1.5
    endloop
  endfacet
  facet normal 0.770515 -0.637422 4.6405e-18
    outer loop
      vertex 4.04508 -2.93893 -1.5
      vertex 3.64484 -3.42274 1.5
      vertex 3.64484 -3.42274 -1.5
    endloop
  endfacet
  facet normal 0.844328 -0.535827 -5.89952e-18
    outer loop
      vertex 4.04508 -2.93893 1.5
      vertex 4.38153 -2.40877 -1.5
      vertex 4.38153 -2.40877 1.5
    endloop
  endfacet
  facet normal 0.844328 -0.535827 -5.89952e-18
    outer loop
      vertex 4.38153 -2.40877 -1.5
      vertex 4.04508 -2.93893 1.5
      vertex 4.04508 -2.93893 -1.5
    endloop
  endfacet
  facet normal -0.248701 -0.96858 0
    outer loop
      vertex -1.54508 -4.75528 -1.5
      vertex -0.936906 -4.91144 1.5
      vertex -1.54508 -4.75528 1.5
    endloop
  endfacet
  facet normal -0.248701 -0.96858 -0
    outer loop
      vertex -0.936906 -4.91144 1.5
      vertex -1.54508 -4.75528 -1.5
      vertex -0.936906 -4.91144 -1.5
    endloop
  endfacet
  facet normal 0.125322 -0.992116 0
    outer loop
      vertex 0.313952 -4.99013 -1.5
      vertex 0.936906 -4.91144 1.5
      vertex 0.313952 -4.99013 1.5
    endloop
  endfacet
  facet normal 0.125322 -0.992116 0
    outer loop
      vertex 0.936906 -4.91144 1.5
      vertex 0.313952 -4.99013 -1.5
      vertex 0.936906 -4.91144 -1.5
    endloop
  endfacet
  facet normal 0.904828 0.425778 -4.82033e-18
    outer loop
      vertex 4.64888 1.84062 1.5
      vertex 4.38153 2.40877 -1.5
      vertex 4.38153 2.40877 1.5
    endloop
  endfacet
  facet normal 0.904828 0.425778 -4.82033e-18
    outer loop
      vertex 4.38153 2.40877 -1.5
      vertex 4.64888 1.84062 1.5
      vertex 4.64888 1.84062 -1.5
    endloop
  endfacet
  facet normal 0.951053 0.309028 -3.17641e-18
    outer loop
      vertex 4.84292 1.24345 1.5
      vertex 4.64888 1.84062 -1.5
      vertex 4.64888 1.84062 1.5
    endloop
  endfacet
  facet normal 0.951053 0.309028 -3.17641e-18
    outer loop
      vertex 4.64888 1.84062 -1.5
      vertex 4.84292 1.24345 1.5
      vertex 4.84292 1.24345 -1.5
    endloop
  endfacet
  facet normal 0 0 1
    outer loop
      vertex 1.8 0 1.5
      vertex 5 0 1.5
      vertex 4.96057 0.626666 1.5
    endloop
  endfacet
  facet normal 0 0 1
    outer loop
      vertex 1.78581 0.225599 1.5
      vertex 4.96057 0.626666 1.5
      vertex 4.84292 1.24345 1.5
    endloop
  endfacet
  facet normal 0 0 1
    outer loop
      vertex 5 0 1.5
      vertex 1.8 0 1.5
      vertex 4.96057 -0.626666 1.5
    endloop
  endfacet
  facet normal 0 0 1
    outer loop
      vertex 1.74345 0.447641 1.5
      vertex 4.84292 1.24345 1.5
      vertex 4.64888 1.84062 1.5
    endloop
  endfacet
  facet normal -0 0 1
    outer loop
      vertex 1.78581 -0.225599 1.5
      vertex 4.96057 -0.626666 1.5
      vertex 1.8 0 1.5
    endloop
  endfacet
  facet normal 0 0 1
    outer loop
      vertex 1.6736 0.662623 1.5
      vertex 4.64888 1.84062 1.5
      vertex 4.38153 2.40877 1.5
    endloop
  endfacet
  facet normal 0 0 1
    outer loop
      vertex 4.96057 -0.626666 1.5
      vertex 1.78581 -0.225599 1.5
      vertex 4.84292 -1.24345 1.5
    endloop
  endfacet
  facet normal 0 0 1
    outer loop
      vertex 1.57735 0.867156 1.5
      vertex 4.38153 2.40877 1.5
      vertex 4.04508 2.93893 1.5
    endloop
  endfacet
  facet normal -0 0 1
    outer loop
      vertex 1.74345 -0.447641 1.5
      vertex 4.84292 -1.24345 1.5
      vertex 1.78581 -0.225599 1.5
    endloop
  endfacet
  facet normal 0 0 1
    outer loop
      vertex 1.45623 1.05801 1.5
      vertex 4.04508 2.93893 1.5
      vertex 3.64484 3.42274 1.5
    endloop
  endfacet
  facet normal 0 0 1
    outer loop
      vertex 4.84292 -1.24345 1.5
      vertex 1.74345 -0.447641 1.5
      vertex 4.64888 -1.84062 1.5
    endloop
  endfacet
  facet normal 0 0 1
    outer loop
      vertex 1.31214 1.23218 1.5
      vertex 3.64484 3.42274 1.5
      vertex 3.18712 3.85257 1.5
    endloop
  endfacet
  facet normal -0 0 1
    outer loop
      vertex 1.6736 -0.662623 1.5
      vertex 4.64888 -1.84062 1.5
      vertex 1.74345 -0.447641 1.5
    endloop
  endfacet
  facet normal 0 0 1
    outer loop
      vertex 1.14736 1.38692 1.5
      vertex 3.18712 3.85257 1.5
      vertex 2.67913 4.22164 1.5
    endloop
  endfacet
  facet normal 0 0 1
    outer loop
      vertex 4.64888 -1.84062 1.5
      vertex 1.6736 -0.662623 1.5
      vertex 4.38153 -2.40877 1.5
    endloop
  endfacet
  facet normal 0 0 1
    outer loop
      vertex 0.964488 1.51979 1.5
      vertex 2.67913 4.22164 1.5
      vertex 2.1289 4.52413 1.5
    endloop
  endfacet
  facet normal -0 0 1
    outer loop
      vertex 1.57735 -0.867156 1.5
      vertex 4.38153 -2.40877 1.5
      vertex 1.6736 -0.662623 1.5
    endloop
  endfacet
  facet normal 0 0 1
    outer loop
      vertex 4.38153 -2.40877 1.5
      vertex 1.57735 -0.867156 1.5
      vertex 4.04508 -2.93893 1.5
    endloop
  endfacet
  facet normal 0 0 1
    outer loop
      vertex 4.96057 0.626666 1.5
      vertex 1.78581 0.225599 1.5
      vertex 1.8 0 1.5
    endloop
  endfacet
  facet normal 0 0 1
    outer loop
      vertex 4.84292 1.24345 1.5
      vertex 1.74345 0.447641 1.5
      vertex 1.78581 0.225599 1.5
    endloop
  endfacet
  facet normal 0 0 1
    outer loop
      vertex 4.64888 1.84062 1.5
      vertex 1.6736 0.662623 1.5
      vertex 1.74345 0.447641 1.5
    endloop
  endfacet
  facet normal 0 0 1
    outer loop
      vertex 4.38153 2.40877 1.5
      vertex 1.57735 0.867156 1.5
      vertex 1.6736 0.662623 1.5
    endloop
  endfacet
  facet normal 0 0 1
    outer loop
      vertex 0.766402 1.62869 1.5
      vertex 2.1289 4.52413 1.5
      vertex 1.54508 4.75528 1.5
    endloop
  endfacet
  facet normal 0 0 1
    outer loop
      vertex 4.04508 2.93893 1.5
      vertex 1.45623 1.05801 1.5
      vertex 1.57735 0.867156 1.5
    endloop
  endfacet
  facet normal 0 0 1
    outer loop
      vertex 3.64484 3.42274 1.5
      vertex 1.31214 1.23218 1.5
      vertex 1.45623 1.05801 1.5
    endloop
  endfacet
  facet normal 0 0 1
    outer loop
      vertex 3.18712 3.85257 1.5
      vertex 1.14736 1.38692 1.5
      vertex 1.31214 1.23218 1.5
    endloop
  endfacet
  facet normal 0 0 1
    outer loop
      vertex 2.67913 4.22164 1.5
      vertex 0.964488 1.51979 1.5
      vertex 1.14736 1.38692 1.5
    endloop
  endfacet
  facet normal 0 0 1
    outer loop
      vertex 0.556231 1.7119 1.5
      vertex 1.54508 4.75528 1.5
      vertex 0.936906 4.91144 1.5
    endloop
  endfacet
  facet normal 0 0 1
    outer loop
      vertex 2.1289 4.52413 1.5
      vertex 0.766402 1.62869 1.5
      vertex 0.964488 1.51979 1.5
    endloop
  endfacet
  facet normal 0 0 1
    outer loop
      vertex 1.54508 4.75528 1.5
      vertex 0.556231 1.7119 1.5
      vertex 0.766402 1.62869 1.5
    endloop
  endfacet
  facet normal 0 0 1
    outer loop
      vertex 0.936906 4.91144 1.5
      vertex 0.337286 1.76812 1.5
      vertex 0.556231 1.7119 1.5
    endloop
  endfacet
  facet normal 0 0 1
    outer loop
      vertex 0.313952 4.99013 1.5
      vertex 0.337286 1.76812 1.5
      vertex 0.936906 4.91144 1.5
    endloop
  endfacet
  facet normal 0 0 1
    outer loop
      vertex 0.313952 4.99013 1.5
      vertex 0.113023 1.79645 1.5
      vertex 0.337286 1.76812 1.5
    endloop
  endfacet
  facet normal 0 0 1
    outer loop
      vertex 0.313952 4.99013 1.5
      vertex -0.113023 1.79645 1.5
      vertex 0.113023 1.79645 1.5
    endloop
  endfacet
  facet normal -0 0 1
    outer loop
      vertex -0.313952 4.99013 1.5
      vertex -0.113023 1.79645 1.5
      vertex 0.313952 4.99013 1.5
    endloop
  endfacet
  facet normal 0 0 1
    outer loop
      vertex -0.313952 4.99013 1.5
      vertex -0.337286 1.76812 1.5
      vertex -0.113023 1.79645 1.5
    endloop
  endfacet
  facet normal -0 0 1
    outer loop
      vertex -0.936906 4.91144 1.5
      vertex -0.337286 1.76812 1.5
      vertex -0.313952 4.99013 1.5
    endloop
  endfacet
  facet normal 0 0 1
    outer loop
      vertex -0.337286 1.76812 1.5
      vertex -0.936906 4.91144 1.5
      vertex -0.556231 1.7119 1.5
    endloop
  endfacet
  facet normal -0 0 1
    outer loop
      vertex -1.54508 4.75528 1.5
      vertex -0.556231 1.7119 1.5
      vertex -0.936906 4.91144 1.5
    endloop
  endfacet
  facet normal 0 0 1
    outer loop
      vertex -0.556231 1.7119 1.5
      vertex -1.54508 4.75528 1.5
      vertex -0.766402 1.62869 1.5
    endloop
  endfacet
  facet normal -0 0 1
    outer loop
      vertex -2.1289 4.52413 1.5
      vertex -0.766402 1.62869 1.5
      vertex -1.54508 4.75528 1.5
    endloop
  endfacet
  facet normal 0 0 1
    outer loop
      vertex -0.766402 1.62869 1.5
      vertex -2.1289 4.52413 1.5
      vertex -0.964488 1.51979 1.5
    endloop
  endfacet
  facet normal -0 0 1
    outer loop
      vertex -2.67913 4.22164 1.5
      vertex -0.964488 1.51979 1.5
      vertex -2.1289 4.52413 1.5
    endloop
  endfacet
  facet normal 0 0 1
    outer loop
      vertex -0.964488 1.51979 1.5
      vertex -2.67913 4.22164 1.5
      vertex -1.14736 1.38692 1.5
    endloop
  endfacet
  facet normal -0 0 1
    outer loop
      vertex -3.18712 3.85257 1.5
      vertex -1.14736 1.38692 1.5
      vertex -2.67913 4.22164 1.5
    endloop
  endfacet
  facet normal 0 0 1
    outer loop
      vertex -1.14736 1.38692 1.5
      vertex -3.18712 3.85257 1.5
      vertex -1.31214 1.23218 1.5
    endloop
  endfacet
  facet normal -0 0 1
    outer loop
      vertex -3.64484 3.42274 1.5
      vertex -1.31214 1.23218 1.5
      vertex -3.18712 3.85257 1.5
    endloop
  endfacet
  facet normal 0 0 1
    outer loop
      vertex -1.31214 1.23218 1.5
      vertex -3.64484 3.42274 1.5
      vertex -1.45623 1.05801 1.5
    endloop
  endfacet
  facet normal -0 0 1
    outer loop
      vertex -4.04508 2.93893 1.5
      vertex -1.45623 1.05801 1.5
      vertex -3.64484 3.42274 1.5
    endloop
  endfacet
  facet normal 0 0 1
    outer loop
      vertex -1.45623 1.05801 1.5
      vertex -4.04508 2.93893 1.5
      vertex -1.57735 0.867156 1.5
    endloop
  endfacet
  facet normal -0 0 1
    outer loop
      vertex 1.45623 -1.05801 1.5
      vertex 4.04508 -2.93893 1.5
      vertex 1.57735 -0.867156 1.5
    endloop
  endfacet
  facet normal 0 0 1
    outer loop
      vertex 4.04508 -2.93893 1.5
      vertex 1.45623 -1.05801 1.5
      vertex 3.64484 -3.42274 1.5
    endloop
  endfacet
  facet normal -0 0 1
    outer loop
      vertex 1.31214 -1.23218 1.5
      vertex 3.64484 -3.42274 1.5
      vertex 1.45623 -1.05801 1.5
    endloop
  endfacet
  facet normal 0 0 1
    outer loop
      vertex 3.64484 -3.42274 1.5
      vertex 1.31214 -1.23218 1.5
      vertex 3.18712 -3.85257 1.5
    endloop
  endfacet
  facet normal -0 0 1
    outer loop
      vertex 1.14736 -1.38692 1.5
      vertex 3.18712 -3.85257 1.5
      vertex 1.31214 -1.23218 1.5
    endloop
  endfacet
  facet normal 0 0 1
    outer loop
      vertex 3.18712 -3.85257 1.5
      vertex 1.14736 -1.38692 1.5
      vertex 2.67913 -4.22164 1.5
    endloop
  endfacet
  facet normal -0 0 1
    outer loop
      vertex 0.964488 -1.51979 1.5
      vertex 2.67913 -4.22164 1.5
      vertex 1.14736 -1.38692 1.5
    endloop
  endfacet
  facet normal 0 0 1
    outer loop
      vertex 2.67913 -4.22164 1.5
      vertex 0.964488 -1.51979 1.5
      vertex 2.1289 -4.52413 1.5
    endloop
  endfacet
  facet normal -0 0 1
    outer loop
      vertex 0.766402 -1.62869 1.5
      vertex 2.1289 -4.52413 1.5
      vertex 0.964488 -1.51979 1.5
    endloop
  endfacet
  facet normal 0 0 1
    outer loop
      vertex 2.1289 -4.52413 1.5
      vertex 0.766402 -1.62869 1.5
      vertex 1.54508 -4.75528 1.5
    endloop
  endfacet
  facet normal -0 0 1
    outer loop
      vertex 0.556231 -1.7119 1.5
      vertex 1.54508 -4.75528 1.5
      vertex 0.766402 -1.62869 1.5
    endloop
  endfacet
  facet normal 0 0 1
    outer loop
      vertex 1.54508 -4.75528 1.5
      vertex 0.556231 -1.7119 1.5
      vertex 0.936906 -4.91144 1.5
    endloop
  endfacet
  facet normal -0 0 1
    outer loop
      vertex 0.337286 -1.76812 1.5
      vertex 0.936906 -4.91144 1.5
      vertex 0.556231 -1.7119 1.5
    endloop
  endfacet
  facet normal 0 0 1
    outer loop
      vertex 0.337286 -1.76812 1.5
      vertex 0.313952 -4.99013 1.5
      vertex 0.936906 -4.91144 1.5
    endloop
  endfacet
  facet normal -0 0 1
    outer loop
      vertex 0.113023 -1.79645 1.5
      vertex 0.313952 -4.99013 1.5
      vertex 0.337286 -1.76812 1.5
    endloop
  endfacet
  facet normal -0 0 1
    outer loop
      vertex -0.113023 -1.79645 1.5
      vertex 0.313952 -4.99013 1.5
      vertex 0.113023 -1.79645 1.5
    endloop
  endfacet
  facet normal 0 0 1
    outer loop
      vertex -0.113023 -1.79645 1.5
      vertex -0.313952 -4.99013 1.5
      vertex 0.313952 -4.99013 1.5
    endloop
  endfacet
  facet normal 0 0 1
    outer loop
      vertex -0.337286 -1.76812 1.5
      vertex -0.313952 -4.99013 1.5
      vertex -0.113023 -1.79645 1.5
    endloop
  endfacet
  facet normal 0 0 1
    outer loop
      vertex -0.936906 -4.91144 1.5
      vertex -0.337286 -1.76812 1.5
      vertex -0.556231 -1.7119 1.5
    endloop
  endfacet
  facet normal 0 0 1
    outer loop
      vertex -1.54508 -4.75528 1.5
      vertex -0.556231 -1.7119 1.5
      vertex -0.766402 -1.62869 1.5
    endloop
  endfacet
  facet normal 0 0 1
    outer loop
      vertex -0.337286 -1.76812 1.5
      vertex -0.936906 -4.91144 1.5
      vertex -0.313952 -4.99013 1.5
    endloop
  endfacet
  facet normal 0 0 1
    outer loop
      vertex -2.1289 -4.52413 1.5
      vertex -0.766402 -1.62869 1.5
      vertex -0.964488 -1.51979 1.5
    endloop
  endfacet
  facet normal 0 0 1
    outer loop
      vertex -2.67913 -4.22164 1.5
      vertex -0.964488 -1.51979 1.5
      vertex -1.14736 -1.38692 1.5
    endloop
  endfacet
  facet normal 0 0 1
    outer loop
      vertex -3.18712 -3.85257 1.5
      vertex -1.14736 -1.38692 1.5
      vertex -1.31214 -1.23218 1.5
    endloop
  endfacet
  facet normal 0 0 1
    outer loop
      vertex -3.64484 -3.42274 1.5
      vertex -1.31214 -1.23218 1.5
      vertex -1.45623 -1.05801 1.5
    endloop
  endfacet
  facet normal 0 0 1
    outer loop
      vertex -0.556231 -1.7119 1.5
      vertex -1.54508 -4.75528 1.5
      vertex -0.936906 -4.91144 1.5
    endloop
  endfacet
  facet normal 0 0 1
    outer loop
      vertex -4.04508 -2.93893 1.5
      vertex -1.45623 -1.05801 1.5
      vertex -1.57735 -0.867156 1.5
    endloop
  endfacet
  facet normal 0 0 1
    outer loop
      vertex -4.38153 -2.40877 1.5
      vertex -1.57735 -0.867156 1.5
      vertex -1.6736 -0.662623 1.5
    endloop
  endfacet
  facet normal 0 0 1
    outer loop
      vertex -4.64888 -1.84062 1.5
      vertex -1.6736 -0.662623 1.5
      vertex -1.74345 -0.447641 1.5
    endloop
  endfacet
  facet normal 0 0 1
    outer loop
      vertex -4.84292 -1.24345 1.5
      vertex -1.74345 -0.447641 1.5
      vertex -1.78581 -0.225599 1.5
    endloop
  endfacet
  facet normal 0 0 1
    outer loop
      vertex -4.96057 -0.626666 1.5
      vertex -1.78581 -0.225599 1.5
      vertex -1.8 0 1.5
    endloop
  endfacet
  facet normal -0 0 1
    outer loop
      vertex -4.38153 2.40877 1.5
      vertex -1.57735 0.867156 1.5
      vertex -4.04508 2.93893 1.5
    endloop
  endfacet
  facet normal 0 0 1
    outer loop
      vertex -0.766402 -1.62869 1.5
      vertex -2.1289 -4.52413 1.5
      vertex -1.54508 -4.75528 1.5
    endloop
  endfacet
  facet normal 0 0 1
    outer loop
      vertex -1.57735 0.867156 1.5
      vertex -4.38153 2.40877 1.5
      vertex -1.6736 0.662623 1.5
    endloop
  endfacet
  facet normal 0 0 1
    outer loop
      vertex -0.964488 -1.51979 1.5
      vertex -2.67913 -4.22164 1.5
      vertex -2.1289 -4.52413 1.5
    endloop
  endfacet
  facet normal -0 0 1
    outer loop
      vertex -4.64888 1.84062 1.5
      vertex -1.6736 0.662623 1.5
      vertex -4.38153 2.40877 1.5
    endloop
  endfacet
  facet normal 0 0 1
    outer loop
      vertex -1.14736 -1.38692 1.5
      vertex -3.18712 -3.85257 1.5
      vertex -2.67913 -4.22164 1.5
    endloop
  endfacet
  facet normal 0 0 1
    outer loop
      vertex -1.6736 0.662623 1.5
      vertex -4.64888 1.84062 1.5
      vertex -1.74345 0.447641 1.5
    endloop
  endfacet
  facet normal 0 0 1
    outer loop
      vertex -1.31214 -1.23218 1.5
      vertex -3.64484 -3.42274 1.5
      vertex -3.18712 -3.85257 1.5
    endloop
  endfacet
  facet normal -0 0 1
    outer loop
      vertex -4.84292 1.24345 1.5
      vertex -1.74345 0.447641 1.5
      vertex -4.64888 1.84062 1.5
    endloop
  endfacet
  facet normal 0 0 1
    outer loop
      vertex -1.45623 -1.05801 1.5
      vertex -4.04508 -2.93893 1.5
      vertex -3.64484 -3.42274 1.5
    endloop
  endfacet
  facet normal 0 0 1
    outer loop
      vertex -1.74345 0.447641 1.5
      vertex -4.84292 1.24345 1.5
      vertex -1.78581 0.225599 1.5
    endloop
  endfacet
  facet normal 0 0 1
    outer loop
      vertex -1.57735 -0.867156 1.5
      vertex -4.38153 -2.40877 1.5
      vertex -4.04508 -2.93893 1.5
    endloop
  endfacet
  facet normal -0 0 1
    outer loop
      vertex -4.96057 0.626666 1.5
      vertex -1.78581 0.225599 1.5
      vertex -4.84292 1.24345 1.5
    endloop
  endfacet
  facet normal 0 0 1
    outer loop
      vertex -1.6736 -0.662623 1.5
      vertex -4.64888 -1.84062 1.5
      vertex -4.38153 -2.40877 1.5
    endloop
  endfacet
  facet normal 0 0 1
    outer loop
      vertex -1.78581 0.225599 1.5
      vertex -4.96057 0.626666 1.5
      vertex -1.8 0 1.5
    endloop
  endfacet
  facet normal 0 0 1
    outer loop
      vertex -1.74345 -0.447641 1.5
      vertex -4.84292 -1.24345 1.5
      vertex -4.64888 -1.84062 1.5
    endloop
  endfacet
  facet normal 0 0 1
    outer loop
      vertex -5 0 1.5
      vertex -1.8 0 1.5
      vertex -4.96057 0.626666 1.5
    endloop
  endfacet
  facet normal 0 0 1
    outer loop
      vertex -1.78581 -0.225599 1.5
      vertex -4.96057 -0.626666 1.5
      vertex -4.84292 -1.24345 1.5
    endloop
  endfacet
  facet normal 0 0 1
    outer loop
      vertex -1.8 0 1.5
      vertex -5 0 1.5
      vertex -4.96057 -0.626666 1.5
    endloop
  endfacet
  facet normal -0.98229 0.187369 -1.12595e-18
    outer loop
      vertex -4.96057 0.626666 -1.5
      vertex -4.84292 1.24345 1.5
      vertex -4.84292 1.24345 -1.5
    endloop
  endfacet
  facet normal -0.98229 0.187369 -1.12595e-18
    outer loop
      vertex -4.84292 1.24345 1.5
      vertex -4.96057 0.626666 -1.5
      vertex -4.96057 0.626666 1.5
    endloop
  endfacet
  facet normal -0.844328 0.535827 -5.89952e-18
    outer loop
      vertex -4.38153 2.40877 -1.5
      vertex -4.04508 2.93893 1.5
      vertex -4.04508 2.93893 -1.5
    endloop
  endfacet
  facet normal -0.844328 0.535827 -5.89952e-18
    outer loop
      vertex -4.04508 2.93893 1.5
      vertex -4.38153 2.40877 -1.5
      vertex -4.38153 2.40877 1.5
    endloop
  endfacet
  facet normal -0.368124 -0.929777 0
    outer loop
      vertex -2.1289 -4.52413 -1.5
      vertex -1.54508 -4.75528 1.5
      vertex -2.1289 -4.52413 1.5
    endloop
  endfacet
  facet normal -0.368124 -0.929777 -0
    outer loop
      vertex -1.54508 -4.75528 1.5
      vertex -2.1289 -4.52413 -1.5
      vertex -1.54508 -4.75528 -1.5
    endloop
  endfacet
  facet normal -0.998026 -0.0627961 7.43739e-19
    outer loop
      vertex -4.96057 -0.626666 -1.5
      vertex -5 0 1.5
      vertex -5 0 -1.5
    endloop
  endfacet
  facet normal -0.998026 -0.0627961 7.43739e-19
    outer loop
      vertex -5 0 1.5
      vertex -4.96057 -0.626666 -1.5
      vertex -4.96057 -0.626666 1.5
    endloop
  endfacet
  facet normal -0.951053 -0.309028 -3.17641e-18
    outer loop
      vertex -4.64888 -1.84062 -1.5
      vertex -4.84292 -1.24345 1.5
      vertex -4.84292 -1.24345 -1.5
    endloop
  endfacet
  facet normal -0.951053 -0.309028 -3.17641e-18
    outer loop
      vertex -4.84292 -1.24345 1.5
      vertex -4.64888 -1.84062 -1.5
      vertex -4.64888 -1.84062 1.5
    endloop
  endfacet
  facet normal -0.770515 -0.637422 -4.6405e-18
    outer loop
      vertex -3.64484 -3.42274 -1.5
      vertex -4.04508 -2.93893 1.5
      vertex -4.04508 -2.93893 -1.5
    endloop
  endfacet
  facet normal -0.770515 -0.637422 -4.6405e-18
    outer loop
      vertex -4.04508 -2.93893 1.5
      vertex -3.64484 -3.42274 -1.5
      vertex -3.64484 -3.42274 1.5
    endloop
  endfacet
  facet normal 0.684549 -0.728967 0
    outer loop
      vertex 3.18712 -3.85257 -1.5
      vertex 3.64484 -3.42274 1.5
      vertex 3.18712 -3.85257 1.5
    endloop
  endfacet
  facet normal 0.684549 -0.728967 0
    outer loop
      vertex 3.64484 -3.42274 1.5
      vertex 3.18712 -3.85257 -1.5
      vertex 3.64484 -3.42274 -1.5
    endloop
  endfacet
  facet normal 0.481752 -0.876308 0
    outer loop
      vertex 2.1289 -4.52413 -1.5
      vertex 2.67913 -4.22164 1.5
      vertex 2.1289 -4.52413 1.5
    endloop
  endfacet
  facet normal 0.481752 -0.876308 0
    outer loop
      vertex 2.67913 -4.22164 1.5
      vertex 2.1289 -4.52413 -1.5
      vertex 2.67913 -4.22164 -1.5
    endloop
  endfacet
  facet normal 0.951053 -0.309028 3.17641e-18
    outer loop
      vertex 4.64888 -1.84062 1.5
      vertex 4.84292 -1.24345 -1.5
      vertex 4.84292 -1.24345 1.5
    endloop
  endfacet
  facet normal 0.951053 -0.309028 3.17641e-18
    outer loop
      vertex 4.84292 -1.24345 -1.5
      vertex 4.64888 -1.84062 1.5
      vertex 4.64888 -1.84062 -1.5
    endloop
  endfacet
  facet normal -0.684549 -0.728967 0
    outer loop
      vertex -3.64484 -3.42274 -1.5
      vertex -3.18712 -3.85257 1.5
      vertex -3.64484 -3.42274 1.5
    endloop
  endfacet
  facet normal -0.684549 -0.728967 -0
    outer loop
      vertex -3.18712 -3.85257 1.5
      vertex -3.64484 -3.42274 -1.5
      vertex -3.18712 -3.85257 -1.5
    endloop
  endfacet
  facet normal 0 -1 0
    outer loop
      vertex -0.313952 -4.99013 -1.5
      vertex 0.313952 -4.99013 1.5
      vertex -0.313952 -4.99013 1.5
    endloop
  endfacet
  facet normal 0 -1 -0
    outer loop
      vertex 0.313952 -4.99013 1.5
      vertex -0.313952 -4.99013 -1.5
      vertex 0.313952 -4.99013 -1.5
    endloop
  endfacet
  facet normal -0.481752 -0.876308 0
    outer loop
      vertex -2.67913 -4.22164 -1.5
      vertex -2.1289 -4.52413 1.5
      vertex -2.67913 -4.22164 1.5
    endloop
  endfacet
  facet normal -0.481752 -0.876308 -0
    outer loop
      vertex -2.1289 -4.52413 1.5
      vertex -2.67913 -4.22164 -1.5
      vertex -2.1289 -4.52413 -1.5
    endloop
  endfacet
  facet normal 0 0 -1
    outer loop
      vertex 3.6 0 -1.5
      vertex 5 0 -1.5
      vertex 4.96057 -0.626666 -1.5
    endloop
  endfacet
  facet normal 0 0 -1
    outer loop
      vertex 3.57161 -0.4512 -1.5
      vertex 4.96057 -0.626666 -1.5
      vertex 4.84292 -1.24345 -1.5
    endloop
  endfacet
  facet normal 0 0 -1
    outer loop
      vertex 5 0 -1.5
      vertex 3.6 0 -1.5
      vertex 4.96057 0.626666 -1.5
    endloop
  endfacet
  facet normal 0 0 -1
    outer loop
      vertex 3.4869 -0.895283 -1.5
      vertex 4.84292 -1.24345 -1.5
      vertex 4.64888 -1.84062 -1.5
    endloop
  endfacet
  facet normal 0 0 -1
    outer loop
      vertex 3.57161 0.4512 -1.5
      vertex 4.96057 0.626666 -1.5
      vertex 3.6 0 -1.5
    endloop
  endfacet
  facet normal 0 0 -1
    outer loop
      vertex 3.34719 -1.32525 -1.5
      vertex 4.64888 -1.84062 -1.5
      vertex 4.38153 -2.40877 -1.5
    endloop
  endfacet
  facet normal -0 0 -1
    outer loop
      vertex 4.96057 0.626666 -1.5
      vertex 3.57161 0.4512 -1.5
      vertex 4.84292 1.24345 -1.5
    endloop
  endfacet
  facet normal 0 0 -1
    outer loop
      vertex 3.1547 -1.73431 -1.5
      vertex 4.38153 -2.40877 -1.5
      vertex 4.04508 -2.93893 -1.5
    endloop
  endfacet
  facet normal 0 0 -1
    outer loop
      vertex 3.4869 0.895283 -1.5
      vertex 4.84292 1.24345 -1.5
      vertex 3.57161 0.4512 -1.5
    endloop
  endfacet
  facet normal 0 0 -1
    outer loop
      vertex 2.91246 -2.11603 -1.5
      vertex 4.04508 -2.93893 -1.5
      vertex 3.64484 -3.42274 -1.5
    endloop
  endfacet
  facet normal -0 0 -1
    outer loop
      vertex 4.84292 1.24345 -1.5
      vertex 3.4869 0.895283 -1.5
      vertex 4.64888 1.84062 -1.5
    endloop
  endfacet
  facet normal 0 0 -1
    outer loop
      vertex 3.34719 1.32525 -1.5
      vertex 4.64888 1.84062 -1.5
      vertex 3.4869 0.895283 -1.5
    endloop
  endfacet
  facet normal 0 0 -1
    outer loop
      vertex 4.96057 -0.626666 -1.5
      vertex 3.57161 -0.4512 -1.5
      vertex 3.6 0 -1.5
    endloop
  endfacet
  facet normal 0 0 -1
    outer loop
      vertex 4.84292 -1.24345 -1.5
      vertex 3.4869 -0.895283 -1.5
      vertex 3.57161 -0.4512 -1.5
    endloop
  endfacet
  facet normal 0 0 -1
    outer loop
      vertex 4.64888 -1.84062 -1.5
      vertex 3.34719 -1.32525 -1.5
      vertex 3.4869 -0.895283 -1.5
    endloop
  endfacet
  facet normal 0 0 -1
    outer loop
      vertex 2.62429 -2.46437 -1.5
      vertex 3.64484 -3.42274 -1.5
      vertex 3.18712 -3.85257 -1.5
    endloop
  endfacet
  facet normal 0 0 -1
    outer loop
      vertex 4.38153 -2.40877 -1.5
      vertex 3.1547 -1.73431 -1.5
      vertex 3.34719 -1.32525 -1.5
    endloop
  endfacet
  facet normal 0 0 -1
    outer loop
      vertex 4.04508 -2.93893 -1.5
      vertex 2.91246 -2.11603 -1.5
      vertex 3.1547 -1.73431 -1.5
    endloop
  endfacet
  facet normal 0 0 -1
    outer loop
      vertex 2.29473 -2.77385 -1.5
      vertex 3.18712 -3.85257 -1.5
      vertex 2.67913 -4.22164 -1.5
    endloop
  endfacet
  facet normal 0 0 -1
    outer loop
      vertex 3.64484 -3.42274 -1.5
      vertex 2.62429 -2.46437 -1.5
      vertex 2.91246 -2.11603 -1.5
    endloop
  endfacet
  facet normal 0 0 -1
    outer loop
      vertex 3.18712 -3.85257 -1.5
      vertex 2.29473 -2.77385 -1.5
      vertex 2.62429 -2.46437 -1.5
    endloop
  endfacet
  facet normal 0 0 -1
    outer loop
      vertex 1.92898 -3.03958 -1.5
      vertex 2.67913 -4.22164 -1.5
      vertex 2.1289 -4.52413 -1.5
    endloop
  endfacet
  facet normal 0 0 -1
    outer loop
      vertex 2.67913 -4.22164 -1.5
      vertex 1.92898 -3.03958 -1.5
      vertex 2.29473 -2.77385 -1.5
    endloop
  endfacet
  facet normal 0 0 -1
    outer loop
      vertex 1.53281 -3.25738 -1.5
      vertex 2.1289 -4.52413 -1.5
      vertex 1.54508 -4.75528 -1.5
    endloop
  endfacet
  facet normal 0 0 -1
    outer loop
      vertex 2.1289 -4.52413 -1.5
      vertex 1.53281 -3.25738 -1.5
      vertex 1.92898 -3.03958 -1.5
    endloop
  endfacet
  facet normal 0 0 -1
    outer loop
      vertex 1.54508 -4.75528 -1.5
      vertex 1.11246 -3.4238 -1.5
      vertex 1.53281 -3.25738 -1.5
    endloop
  endfacet
  facet normal 0 0 -1
    outer loop
      vertex 0.936906 -4.91144 -1.5
      vertex 1.11246 -3.4238 -1.5
      vertex 1.54508 -4.75528 -1.5
    endloop
  endfacet
  facet normal 0 0 -1
    outer loop
      vertex 0.936906 -4.91144 -1.5
      vertex 0.674572 -3.53623 -1.5
      vertex 1.11246 -3.4238 -1.5
    endloop
  endfacet
  facet normal 0 0 -1
    outer loop
      vertex 0.313952 -4.99013 -1.5
      vertex 0.674572 -3.53623 -1.5
      vertex 0.936906 -4.91144 -1.5
    endloop
  endfacet
  facet normal 0 0 -1
    outer loop
      vertex 0.313952 -4.99013 -1.5
      vertex 0.226046 -3.5929 -1.5
      vertex 0.674572 -3.53623 -1.5
    endloop
  endfacet
  facet normal 0 0 -1
    outer loop
      vertex 0.313952 -4.99013 -1.5
      vertex -0.226046 -3.5929 -1.5
      vertex 0.226046 -3.5929 -1.5
    endloop
  endfacet
  facet normal 0 0 -1
    outer loop
      vertex -0.313952 -4.99013 -1.5
      vertex -0.226046 -3.5929 -1.5
      vertex 0.313952 -4.99013 -1.5
    endloop
  endfacet
  facet normal 0 0 -1
    outer loop
      vertex -0.313952 -4.99013 -1.5
      vertex -0.674572 -3.53623 -1.5
      vertex -0.226046 -3.5929 -1.5
    endloop
  endfacet
  facet normal 0 0 -1
    outer loop
      vertex -0.936906 -4.91144 -1.5
      vertex -0.674572 -3.53623 -1.5
      vertex -0.313952 -4.99013 -1.5
    endloop
  endfacet
  facet normal 0 0 -1
    outer loop
      vertex -0.936906 -4.91144 -1.5
      vertex -1.11246 -3.4238 -1.5
      vertex -0.674572 -3.53623 -1.5
    endloop
  endfacet
  facet normal 0 0 -1
    outer loop
      vertex -1.54508 -4.75528 -1.5
      vertex -1.11246 -3.4238 -1.5
      vertex -0.936906 -4.91144 -1.5
    endloop
  endfacet
  facet normal -0 0 -1
    outer loop
      vertex -1.11246 -3.4238 -1.5
      vertex -1.54508 -4.75528 -1.5
      vertex -1.53281 -3.25738 -1.5
    endloop
  endfacet
  facet normal 0 0 -1
    outer loop
      vertex -2.1289 -4.52413 -1.5
      vertex -1.53281 -3.25738 -1.5
      vertex -1.54508 -4.75528 -1.5
    endloop
  endfacet
  facet normal -0 0 -1
    outer loop
      vertex -1.53281 -3.25738 -1.5
      vertex -2.1289 -4.52413 -1.5
      vertex -1.92898 -3.03958 -1.5
    endloop
  endfacet
  facet normal 0 0 -1
    outer loop
      vertex -2.67913 -4.22164 -1.5
      vertex -1.92898 -3.03958 -1.5
      vertex -2.1289 -4.52413 -1.5
    endloop
  endfacet
  facet normal -0 0 -1
    outer loop
      vertex -1.92898 -3.03958 -1.5
      vertex -2.67913 -4.22164 -1.5
      vertex -2.29473 -2.77385 -1.5
    endloop
  endfacet
  facet normal 0 0 -1
    outer loop
      vertex -3.18712 -3.85257 -1.5
      vertex -2.29473 -2.77385 -1.5
      vertex -2.67913 -4.22164 -1.5
    endloop
  endfacet
  facet normal -0 0 -1
    outer loop
      vertex -2.29473 -2.77385 -1.5
      vertex -3.18712 -3.85257 -1.5
      vertex -2.62429 -2.46437 -1.5
    endloop
  endfacet
  facet normal 0 0 -1
    outer loop
      vertex -3.64484 -3.42274 -1.5
      vertex -2.62429 -2.46437 -1.5
      vertex -3.18712 -3.85257 -1.5
    endloop
  endfacet
  facet normal -0 0 -1
    outer loop
      vertex -2.62429 -2.46437 -1.5
      vertex -3.64484 -3.42274 -1.5
      vertex -2.91246 -2.11603 -1.5
    endloop
  endfacet
  facet normal 0 0 -1
    outer loop
      vertex -4.04508 -2.93893 -1.5
      vertex -2.91246 -2.11603 -1.5
      vertex -3.64484 -3.42274 -1.5
    endloop
  endfacet
  facet normal -0 0 -1
    outer loop
      vertex -2.91246 -2.11603 -1.5
      vertex -4.04508 -2.93893 -1.5
      vertex -3.1547 -1.73431 -1.5
    endloop
  endfacet
  facet normal 0 0 -1
    outer loop
      vertex -4.38153 -2.40877 -1.5
      vertex -3.1547 -1.73431 -1.5
      vertex -4.04508 -2.93893 -1.5
    endloop
  endfacet
  facet normal 0 0 -1
    outer loop
      vertex -4.64888 -1.84062 -1.5
      vertex -3.34719 -1.32525 -1.5
      vertex -4.38153 -2.40877 -1.5
    endloop
  endfacet
  facet normal -0 0 -1
    outer loop
      vertex -3.1547 -1.73431 -1.5
      vertex -4.38153 -2.40877 -1.5
      vertex -3.34719 -1.32525 -1.5
    endloop
  endfacet
  facet normal -0 0 -1
    outer loop
      vertex 4.64888 1.84062 -1.5
      vertex 3.34719 1.32525 -1.5
      vertex 4.38153 2.40877 -1.5
    endloop
  endfacet
  facet normal 0 0 -1
    outer loop
      vertex 3.1547 1.73431 -1.5
      vertex 4.38153 2.40877 -1.5
      vertex 3.34719 1.32525 -1.5
    endloop
  endfacet
  facet normal -0 0 -1
    outer loop
      vertex 4.38153 2.40877 -1.5
      vertex 3.1547 1.73431 -1.5
      vertex 4.04508 2.93893 -1.5
    endloop
  endfacet
  facet normal 0 0 -1
    outer loop
      vertex 2.91246 2.11603 -1.5
      vertex 4.04508 2.93893 -1.5
      vertex 3.1547 1.73431 -1.5
    endloop
  endfacet
  facet normal -0 0 -1
    outer loop
      vertex 4.04508 2.93893 -1.5
      vertex 2.91246 2.11603 -1.5
      vertex 3.64484 3.42274 -1.5
    endloop
  endfacet
  facet normal 0 0 -1
    outer loop
      vertex 2.62429 2.46437 -1.5
      vertex 3.64484 3.42274 -1.5
      vertex 2.91246 2.11603 -1.5
    endloop
  endfacet
  facet normal -0 0 -1
    outer loop
      vertex 3.64484 3.42274 -1.5
      vertex 2.62429 2.46437 -1.5
      vertex 3.18712 3.85257 -1.5
    endloop
  endfacet
  facet normal 0 0 -1
    outer loop
      vertex 2.29473 2.77385 -1.5
      vertex 3.18712 3.85257 -1.5
      vertex 2.62429 2.46437 -1.5
    endloop
  endfacet
  facet normal -0 0 -1
    outer loop
      vertex 3.18712 3.85257 -1.5
      vertex 2.29473 2.77385 -1.5
      vertex 2.67913 4.22164 -1.5
    endloop
  endfacet
  facet normal 0 0 -1
    outer loop
      vertex 1.92898 3.03958 -1.5
      vertex 2.67913 4.22164 -1.5
      vertex 2.29473 2.77385 -1.5
    endloop
  endfacet
  facet normal -0 0 -1
    outer loop
      vertex 2.67913 4.22164 -1.5
      vertex 1.92898 3.03958 -1.5
      vertex 2.1289 4.52413 -1.5
    endloop
  endfacet
  facet normal 0 0 -1
    outer loop
      vertex 1.53281 3.25738 -1.5
      vertex 2.1289 4.52413 -1.5
      vertex 1.92898 3.03958 -1.5
    endloop
  endfacet
  facet normal -0 0 -1
    outer loop
      vertex 2.1289 4.52413 -1.5
      vertex 1.53281 3.25738 -1.5
      vertex 1.54508 4.75528 -1.5
    endloop
  endfacet
  facet normal 0 0 -1
    outer loop
      vertex 1.11246 3.4238 -1.5
      vertex 1.54508 4.75528 -1.5
      vertex 1.53281 3.25738 -1.5
    endloop
  endfacet
  facet normal 0 0 -1
    outer loop
      vertex 1.11246 3.4238 -1.5
      vertex 0.936906 4.91144 -1.5
      vertex 1.54508 4.75528 -1.5
    endloop
  endfacet
  facet normal 0 0 -1
    outer loop
      vertex 0.674572 3.53623 -1.5
      vertex 0.936906 4.91144 -1.5
      vertex 1.11246 3.4238 -1.5
    endloop
  endfacet
  facet normal 0 0 -1
    outer loop
      vertex 0.674572 3.53623 -1.5
      vertex 0.313952 4.99013 -1.5
      vertex 0.936906 4.91144 -1.5
    endloop
  endfacet
  facet normal 0 0 -1
    outer loop
      vertex 0.226046 3.5929 -1.5
      vertex 0.313952 4.99013 -1.5
      vertex 0.674572 3.53623 -1.5
    endloop
  endfacet
  facet normal 0 0 -1
    outer loop
      vertex -0.226046 3.5929 -1.5
      vertex 0.313952 4.99013 -1.5
      vertex 0.226046 3.5929 -1.5
    endloop
  endfacet
  facet normal 0 0 -1
    outer loop
      vertex -0.226046 3.5929 -1.5
      vertex -0.313952 4.99013 -1.5
      vertex 0.313952 4.99013 -1.5
    endloop
  endfacet
  facet normal 0 0 -1
    outer loop
      vertex -0.674572 3.53623 -1.5
      vertex -0.313952 4.99013 -1.5
      vertex -0.226046 3.5929 -1.5
    endloop
  endfacet
  facet normal 0 0 -1
    outer loop
      vertex -0.674572 3.53623 -1.5
      vertex -0.936906 4.91144 -1.5
      vertex -0.313952 4.99013 -1.5
    endloop
  endfacet
  facet normal 0 0 -1
    outer loop
      vertex -1.11246 3.4238 -1.5
      vertex -0.936906 4.91144 -1.5
      vertex -0.674572 3.53623 -1.5
    endloop
  endfacet
  facet normal 0 0 -1
    outer loop
      vertex -1.54508 4.75528 -1.5
      vertex -1.11246 3.4238 -1.5
      vertex -1.53281 3.25738 -1.5
    endloop
  endfacet
  facet normal 0 0 -1
    outer loop
      vertex -1.11246 3.4238 -1.5
      vertex -1.54508 4.75528 -1.5
      vertex -0.936906 4.91144 -1.5
    endloop
  endfacet
  facet normal 0 0 -1
    outer loop
      vertex -2.1289 4.52413 -1.5
      vertex -1.53281 3.25738 -1.5
      vertex -1.92898 3.03958 -1.5
    endloop
  endfacet
  facet normal 0 0 -1
    outer loop
      vertex -1.53281 3.25738 -1.5
      vertex -2.1289 4.52413 -1.5
      vertex -1.54508 4.75528 -1.5
    endloop
  endfacet
  facet normal 0 0 -1
    outer loop
      vertex -2.67913 4.22164 -1.5
      vertex -1.92898 3.03958 -1.5
      vertex -2.29473 2.77385 -1.5
    endloop
  endfacet
  facet normal 0 0 -1
    outer loop
      vertex -3.18712 3.85257 -1.5
      vertex -2.29473 2.77385 -1.5
      vertex -2.62429 2.46437 -1.5
    endloop
  endfacet
  facet normal 0 0 -1
    outer loop
      vertex -1.92898 3.03958 -1.5
      vertex -2.67913 4.22164 -1.5
      vertex -2.1289 4.52413 -1.5
    endloop
  endfacet
  facet normal 0 0 -1
    outer loop
      vertex -3.64484 3.42274 -1.5
      vertex -2.62429 2.46437 -1.5
      vertex -2.91246 2.11603 -1.5
    endloop
  endfacet
  facet normal 0 0 -1
    outer loop
      vertex -4.04508 2.93893 -1.5
      vertex -2.91246 2.11603 -1.5
      vertex -3.1547 1.73431 -1.5
    endloop
  endfacet
  facet normal 0 0 -1
    outer loop
      vertex -2.29473 2.77385 -1.5
      vertex -3.18712 3.85257 -1.5
      vertex -2.67913 4.22164 -1.5
    endloop
  endfacet
  facet normal 0 0 -1
    outer loop
      vertex -4.38153 2.40877 -1.5
      vertex -3.1547 1.73431 -1.5
      vertex -3.34719 1.32525 -1.5
    endloop
  endfacet
  facet normal 0 0 -1
    outer loop
      vertex -4.64888 1.84062 -1.5
      vertex -3.34719 1.32525 -1.5
      vertex -3.4869 0.895283 -1.5
    endloop
  endfacet
  facet normal 0 0 -1
    outer loop
      vertex -4.84292 1.24345 -1.5
      vertex -3.4869 0.895283 -1.5
      vertex -3.57161 0.4512 -1.5
    endloop
  endfacet
  facet normal 0 0 -1
    outer loop
      vertex -2.62429 2.46437 -1.5
      vertex -3.64484 3.42274 -1.5
      vertex -3.18712 3.85257 -1.5
    endloop
  endfacet
  facet normal 0 0 -1
    outer loop
      vertex -4.96057 0.626666 -1.5
      vertex -3.57161 0.4512 -1.5
      vertex -3.6 0 -1.5
    endloop
  endfacet
  facet normal -0 0 -1
    outer loop
      vertex -3.34719 -1.32525 -1.5
      vertex -4.64888 -1.84062 -1.5
      vertex -3.4869 -0.895283 -1.5
    endloop
  endfacet
  facet normal 0 0 -1
    outer loop
      vertex -4.84292 -1.24345 -1.5
      vertex -3.4869 -0.895283 -1.5
      vertex -4.64888 -1.84062 -1.5
    endloop
  endfacet
  facet normal 0 0 -1
    outer loop
      vertex -2.91246 2.11603 -1.5
      vertex -4.04508 2.93893 -1.5
      vertex -3.64484 3.42274 -1.5
    endloop
  endfacet
  facet normal -0 0 -1
    outer loop
      vertex -3.4869 -0.895283 -1.5
      vertex -4.84292 -1.24345 -1.5
      vertex -3.57161 -0.4512 -1.5
    endloop
  endfacet
  facet normal 0 0 -1
    outer loop
      vertex -3.1547 1.73431 -1.5
      vertex -4.38153 2.40877 -1.5
      vertex -4.04508 2.93893 -1.5
    endloop
  endfacet
  facet normal 0 0 -1
    outer loop
      vertex -4.96057 -0.626666 -1.5
      vertex -3.57161 -0.4512 -1.5
      vertex -4.84292 -1.24345 -1.5
    endloop
  endfacet
  facet normal 0 0 -1
    outer loop
      vertex -3.34719 1.32525 -1.5
      vertex -4.64888 1.84062 -1.5
      vertex -4.38153 2.40877 -1.5
    endloop
  endfacet
  facet normal -0 0 -1
    outer loop
      vertex -3.57161 -0.4512 -1.5
      vertex -4.96057 -0.626666 -1.5
      vertex -3.6 0 -1.5
    endloop
  endfacet
  facet normal 0 0 -1
    outer loop
      vertex -3.4869 0.895283 -1.5
      vertex -4.84292 1.24345 -1.5
      vertex -4.64888 1.84062 -1.5
    endloop
  endfacet
  facet normal 0 0 -1
    outer loop
      vertex -5 0 -1.5
      vertex -3.6 0 -1.5
      vertex -4.96057 -0.626666 -1.5
    endloop
  endfacet
  facet normal 0 0 -1
    outer loop
      vertex -3.57161 0.4512 -1.5
      vertex -4.96057 0.626666 -1.5
      vertex -4.84292 1.24345 -1.5
    endloop
  endfacet
  facet normal 0 0 -1
    outer loop
      vertex -3.6 0 -1.5
      vertex -5 0 -1.5
      vertex -4.96057 0.626666 -1.5
    endloop
  endfacet
  facet normal -0.98229 -0.187369 1.12595e-18
    outer loop
      vertex -4.84292 -1.24345 -1.5
      vertex -4.96057 -0.626666 1.5
      vertex -4.96057 -0.626666 -1.5
    endloop
  endfacet
  facet normal -0.98229 -0.187369 1.12595e-18
    outer loop
      vertex -4.96057 -0.626666 1.5
      vertex -4.84292 -1.24345 -1.5
      vertex -4.84292 -1.24345 1.5
    endloop
  endfacet
  facet normal -0.844328 -0.535827 5.89952e-18
    outer loop
      vertex -4.04508 -2.93893 -1.5
      vertex -4.38153 -2.40877 1.5
      vertex -4.38153 -2.40877 -1.5
    endloop
  endfacet
  facet normal -0.844328 -0.535827 5.89952e-18
    outer loop
      vertex -4.38153 -2.40877 1.5
      vertex -4.04508 -2.93893 -1.5
      vertex -4.04508 -2.93893 1.5
    endloop
  endfacet
  facet normal -0.904828 -0.425778 -4.82033e-18
    outer loop
      vertex -4.38153 -2.40877 -1.5
      vertex -4.64888 -1.84062 1.5
      vertex -4.64888 -1.84062 -1.5
    endloop
  endfacet
  facet normal -0.904828 -0.425778 -4.82033e-18
    outer loop
      vertex -4.64888 -1.84062 1.5
      vertex -4.38153 -2.40877 -1.5
      vertex -4.38153 -2.40877 1.5
    endloop
  endfacet
  facet normal 0.587779 -0.809022 0
    outer loop
      vertex 2.67913 -4.22164 -1.5
      vertex 3.18712 -3.85257 1.5
      vertex 2.67913 -4.22164 1.5
    endloop
  endfacet
  facet normal 0.587779 -0.809022 0
    outer loop
      vertex 3.18712 -3.85257 1.5
      vertex 2.67913 -4.22164 -1.5
      vertex 3.18712 -3.85257 -1.5
    endloop
  endfacet
  facet normal -0.587779 -0.809022 0
    outer loop
      vertex -3.18712 -3.85257 -1.5
      vertex -2.67913 -4.22164 1.5
      vertex -3.18712 -3.85257 1.5
    endloop
  endfacet
  facet normal -0.587779 -0.809022 -0
    outer loop
      vertex -2.67913 -4.22164 1.5
      vertex -3.18712 -3.85257 -1.5
      vertex -2.67913 -4.22164 -1.5
    endloop
  endfacet
  facet normal 0.725197 -0.0456302 -0.687028
    outer loop
      vertex -3.57161 0.4512 -1.5
      vertex -1.8 0 0.4
      vertex -3.6 0 -1.5
    endloop
  endfacet
  facet normal 0.725199 -0.0456144 -0.687027
    outer loop
      vertex -1.78581 0.225599 0.4
      vertex -1.8 0 0.4
      vertex -3.57161 0.4512 -1.5
    endloop
  endfacet
  facet normal 0.691065 0.224549 -0.687027
    outer loop
      vertex -1.6736 -0.662623 0.4
      vertex -3.34719 -1.32525 -1.5
      vertex -3.4869 -0.895283 -1.5
    endloop
  endfacet
  facet normal -0.713759 0.136167 -0.687027
    outer loop
      vertex 1.78581 -0.225599 0.4
      vertex 3.57161 -0.4512 -1.5
      vertex 1.74345 -0.447641 0.4
    endloop
  endfacet
  facet normal 0.0910837 -0.7209 -0.687027
    outer loop
      vertex -0.226046 3.5929 -1.5
      vertex -0.337286 1.76812 0.4
      vertex -0.674572 3.53623 -1.5
    endloop
  endfacet
  facet normal 0.0910677 -0.720901 -0.687029
    outer loop
      vertex -0.337286 1.76812 0.4
      vertex -0.226046 3.5929 -1.5
      vertex -0.113023 1.79645 0.4
    endloop
  endfacet
  facet normal 0.691068 0.224536 -0.687029
    outer loop
      vertex -1.74345 -0.447641 0.4
      vertex -1.6736 -0.662623 0.4
      vertex -3.4869 -0.895283 -1.5
    endloop
  endfacet
  facet normal 0.559879 0.463169 -0.68703
    outer loop
      vertex -1.31214 -1.23218 0.4
      vertex -2.62429 -2.46437 -1.5
      vertex -2.91246 -2.11603 -1.5
    endloop
  endfacet
  facet normal 0.427115 0.587848 -0.687028
    outer loop
      vertex -1.14736 -1.38692 0.4
      vertex -0.964488 -1.51979 0.4
      vertex -1.92898 -3.03958 -1.5
    endloop
  endfacet
  facet normal -0.713761 0.136152 -0.687028
    outer loop
      vertex 3.57161 -0.4512 -1.5
      vertex 3.4869 -0.895283 -1.5
      vertex 1.74345 -0.447641 0.4
    endloop
  endfacet
  facet normal 0.267483 -0.675606 -0.687029
    outer loop
      vertex -0.556231 1.7119 0.4
      vertex -0.766402 1.62869 0.4
      vertex -1.53281 3.25738 -1.5
    endloop
  endfacet
  facet normal 0.725197 0.0456302 -0.687028
    outer loop
      vertex -1.8 0 0.4
      vertex -3.57161 -0.4512 -1.5
      vertex -3.6 0 -1.5
    endloop
  endfacet
  facet normal 0.713759 0.136167 -0.687027
    outer loop
      vertex -1.78581 -0.225599 0.4
      vertex -1.74345 -0.447641 0.4
      vertex -3.57161 -0.4512 -1.5
    endloop
  endfacet
  facet normal 0.713761 0.136152 -0.687028
    outer loop
      vertex -1.74345 -0.447641 0.4
      vertex -3.4869 -0.895283 -1.5
      vertex -3.57161 -0.4512 -1.5
    endloop
  endfacet
  facet normal 0.65747 0.309395 -0.687028
    outer loop
      vertex -3.1547 -1.73431 -1.5
      vertex -1.6736 -0.662623 0.4
      vertex -1.57735 -0.867156 0.4
    endloop
  endfacet
  facet normal 0.657475 0.309386 -0.687027
    outer loop
      vertex -1.6736 -0.662623 0.4
      vertex -3.1547 -1.73431 -1.5
      vertex -3.34719 -1.32525 -1.5
    endloop
  endfacet
  facet normal 0.0910677 0.720901 -0.687029
    outer loop
      vertex -0.226046 -3.5929 -1.5
      vertex -0.337286 -1.76812 0.4
      vertex -0.113023 -1.79645 0.4
    endloop
  endfacet
  facet normal 0.0910837 0.7209 -0.687027
    outer loop
      vertex -0.337286 -1.76812 0.4
      vertex -0.226046 -3.5929 -1.5
      vertex -0.674572 -3.53623 -1.5
    endloop
  endfacet
  facet normal 0.267483 0.675606 -0.687029
    outer loop
      vertex -0.766402 -1.62869 0.4
      vertex -0.556231 -1.7119 0.4
      vertex -1.53281 -3.25738 -1.5
    endloop
  endfacet
  facet normal 0.267479 0.675609 -0.687028
    outer loop
      vertex -0.556231 -1.7119 0.4
      vertex -1.11246 -3.4238 -1.5
      vertex -1.53281 -3.25738 -1.5
    endloop
  endfacet
  facet normal 0.427099 0.587857 -0.68703
    outer loop
      vertex -1.14736 -1.38692 0.4
      vertex -1.92898 -3.03958 -1.5
      vertex -2.29473 -2.77385 -1.5
    endloop
  endfacet
  facet normal -0.497414 0.529688 -0.68703
    outer loop
      vertex 2.29473 -2.77385 -1.5
      vertex 1.31214 -1.23218 0.4
      vertex 2.62429 -2.46437 -1.5
    endloop
  endfacet
  facet normal -0.497414 0.529688 -0.68703
    outer loop
      vertex 1.31214 -1.23218 0.4
      vertex 2.29473 -2.77385 -1.5
      vertex 1.14736 -1.38692 0.4
    endloop
  endfacet
  facet normal -0.427115 0.587848 -0.687028
    outer loop
      vertex 1.14736 -1.38692 0.4
      vertex 1.92898 -3.03958 -1.5
      vertex 0.964488 -1.51979 0.4
    endloop
  endfacet
  facet normal -0.350061 -0.636748 -0.687029
    outer loop
      vertex 1.53281 3.25738 -1.5
      vertex 1.92898 3.03958 -1.5
      vertex 0.964488 1.51979 0.4
    endloop
  endfacet
  facet normal 0.427099 -0.587857 -0.68703
    outer loop
      vertex -1.92898 3.03958 -1.5
      vertex -1.14736 1.38692 0.4
      vertex -2.29473 2.77385 -1.5
    endloop
  endfacet
  facet normal 0.725199 0.0456144 -0.687027
    outer loop
      vertex -1.8 0 0.4
      vertex -1.78581 -0.225599 0.4
      vertex -3.57161 -0.4512 -1.5
    endloop
  endfacet
  facet normal 0.559872 0.463179 -0.687029
    outer loop
      vertex -1.45623 -1.05801 0.4
      vertex -1.31214 -1.23218 0.4
      vertex -2.91246 -2.11603 -1.5
    endloop
  endfacet
  facet normal 0.18072 0.7038 -0.687027
    outer loop
      vertex -0.674572 -3.53623 -1.5
      vertex -0.556231 -1.7119 0.4
      vertex -0.337286 -1.76812 0.4
    endloop
  endfacet
  facet normal 0.180705 0.703803 -0.687028
    outer loop
      vertex -0.556231 -1.7119 0.4
      vertex -0.674572 -3.53623 -1.5
      vertex -1.11246 -3.4238 -1.5
    endloop
  endfacet
  facet normal 0.497414 0.529688 -0.68703
    outer loop
      vertex -2.29473 -2.77385 -1.5
      vertex -1.31214 -1.23218 0.4
      vertex -1.14736 -1.38692 0.4
    endloop
  endfacet
  facet normal 0.497414 0.529688 -0.68703
    outer loop
      vertex -1.31214 -1.23218 0.4
      vertex -2.29473 -2.77385 -1.5
      vertex -2.62429 -2.46437 -1.5
    endloop
  endfacet
  facet normal 0.350061 0.636748 -0.687029
    outer loop
      vertex -0.964488 -1.51979 0.4
      vertex -1.53281 -3.25738 -1.5
      vertex -1.92898 -3.03958 -1.5
    endloop
  endfacet
  facet normal 0.35006 0.636749 -0.687029
    outer loop
      vertex -0.964488 -1.51979 0.4
      vertex -0.766402 -1.62869 0.4
      vertex -1.53281 -3.25738 -1.5
    endloop
  endfacet
  facet normal -0.691065 0.224549 -0.687027
    outer loop
      vertex 3.4869 -0.895283 -1.5
      vertex 3.34719 -1.32525 -1.5
      vertex 1.6736 -0.662623 0.4
    endloop
  endfacet
  facet normal -0.61352 0.38934 -0.687028
    outer loop
      vertex 2.91246 -2.11603 -1.5
      vertex 1.57735 -0.867156 0.4
      vertex 3.1547 -1.73431 -1.5
    endloop
  endfacet
  facet normal -0.613513 0.389349 -0.687029
    outer loop
      vertex 1.57735 -0.867156 0.4
      vertex 2.91246 -2.11603 -1.5
      vertex 1.45623 -1.05801 0.4
    endloop
  endfacet
  facet normal -0.0910837 0.7209 -0.687027
    outer loop
      vertex 0.226046 -3.5929 -1.5
      vertex 0.337286 -1.76812 0.4
      vertex 0.674572 -3.53623 -1.5
    endloop
  endfacet
  facet normal -0.0910677 0.720901 -0.687029
    outer loop
      vertex 0.337286 -1.76812 0.4
      vertex 0.226046 -3.5929 -1.5
      vertex 0.113023 -1.79645 0.4
    endloop
  endfacet
  facet normal -0.267479 0.675609 -0.687028
    outer loop
      vertex 1.53281 -3.25738 -1.5
      vertex 1.11246 -3.4238 -1.5
      vertex 0.556231 -1.7119 0.4
    endloop
  endfacet
  facet normal -0.180705 0.703803 -0.687028
    outer loop
      vertex 0.674572 -3.53623 -1.5
      vertex 0.556231 -1.7119 0.4
      vertex 1.11246 -3.4238 -1.5
    endloop
  endfacet
  facet normal -0.18072 0.7038 -0.687027
    outer loop
      vertex 0.556231 -1.7119 0.4
      vertex 0.674572 -3.53623 -1.5
      vertex 0.337286 -1.76812 0.4
    endloop
  endfacet
  facet normal -0.427099 0.587857 -0.68703
    outer loop
      vertex 2.29473 -2.77385 -1.5
      vertex 1.92898 -3.03958 -1.5
      vertex 1.14736 -1.38692 0.4
    endloop
  endfacet
  facet normal -0.713761 -0.136152 -0.687028
    outer loop
      vertex 3.4869 0.895283 -1.5
      vertex 3.57161 0.4512 -1.5
      vertex 1.74345 0.447641 0.4
    endloop
  endfacet
  facet normal -0.267479 -0.675609 -0.687028
    outer loop
      vertex 1.11246 3.4238 -1.5
      vertex 1.53281 3.25738 -1.5
      vertex 0.556231 1.7119 0.4
    endloop
  endfacet
  facet normal 0.180705 -0.703803 -0.687028
    outer loop
      vertex -0.674572 3.53623 -1.5
      vertex -0.556231 1.7119 0.4
      vertex -1.11246 3.4238 -1.5
    endloop
  endfacet
  facet normal 0.18072 -0.7038 -0.687027
    outer loop
      vertex -0.556231 1.7119 0.4
      vertex -0.674572 3.53623 -1.5
      vertex -0.337286 1.76812 0.4
    endloop
  endfacet
  facet normal 0.713759 -0.136167 -0.687027
    outer loop
      vertex -1.74345 0.447641 0.4
      vertex -1.78581 0.225599 0.4
      vertex -3.57161 0.4512 -1.5
    endloop
  endfacet
  facet normal 0.613513 0.389349 -0.687029
    outer loop
      vertex -2.91246 -2.11603 -1.5
      vertex -1.57735 -0.867156 0.4
      vertex -1.45623 -1.05801 0.4
    endloop
  endfacet
  facet normal 0.61352 0.38934 -0.687028
    outer loop
      vertex -1.57735 -0.867156 0.4
      vertex -2.91246 -2.11603 -1.5
      vertex -3.1547 -1.73431 -1.5
    endloop
  endfacet
  facet normal -0.691068 0.224536 -0.687029
    outer loop
      vertex 1.74345 -0.447641 0.4
      vertex 3.4869 -0.895283 -1.5
      vertex 1.6736 -0.662623 0.4
    endloop
  endfacet
  facet normal -0.559879 0.463169 -0.68703
    outer loop
      vertex 2.91246 -2.11603 -1.5
      vertex 2.62429 -2.46437 -1.5
      vertex 1.31214 -1.23218 0.4
    endloop
  endfacet
  facet normal 5.70471e-16 0.72663 -0.687029
    outer loop
      vertex 0.226046 -3.5929 -1.5
      vertex -0.113023 -1.79645 0.4
      vertex 0.113023 -1.79645 0.4
    endloop
  endfacet
  facet normal 2.85236e-16 0.72663 -0.687029
    outer loop
      vertex -0.113023 -1.79645 0.4
      vertex 0.226046 -3.5929 -1.5
      vertex -0.226046 -3.5929 -1.5
    endloop
  endfacet
  facet normal -0.350061 0.636748 -0.687029
    outer loop
      vertex 1.92898 -3.03958 -1.5
      vertex 1.53281 -3.25738 -1.5
      vertex 0.964488 -1.51979 0.4
    endloop
  endfacet
  facet normal -0.267483 0.675606 -0.687029
    outer loop
      vertex 0.766402 -1.62869 0.4
      vertex 1.53281 -3.25738 -1.5
      vertex 0.556231 -1.7119 0.4
    endloop
  endfacet
  facet normal -0.61352 -0.38934 -0.687028
    outer loop
      vertex 1.57735 0.867156 0.4
      vertex 2.91246 2.11603 -1.5
      vertex 3.1547 1.73431 -1.5
    endloop
  endfacet
  facet normal -0.613513 -0.389349 -0.687029
    outer loop
      vertex 2.91246 2.11603 -1.5
      vertex 1.57735 0.867156 0.4
      vertex 1.45623 1.05801 0.4
    endloop
  endfacet
  facet normal -0.725199 0.0456144 -0.687027
    outer loop
      vertex 1.8 0 0.4
      vertex 3.57161 -0.4512 -1.5
      vertex 1.78581 -0.225599 0.4
    endloop
  endfacet
  facet normal -0.427099 -0.587857 -0.68703
    outer loop
      vertex 1.92898 3.03958 -1.5
      vertex 2.29473 2.77385 -1.5
      vertex 1.14736 1.38692 0.4
    endloop
  endfacet
  facet normal -0.427115 -0.587848 -0.687028
    outer loop
      vertex 1.92898 3.03958 -1.5
      vertex 1.14736 1.38692 0.4
      vertex 0.964488 1.51979 0.4
    endloop
  endfacet
  facet normal -0.35006 -0.636749 -0.687029
    outer loop
      vertex 1.53281 3.25738 -1.5
      vertex 0.964488 1.51979 0.4
      vertex 0.766402 1.62869 0.4
    endloop
  endfacet
  facet normal -0.0910677 -0.720901 -0.687029
    outer loop
      vertex 0.226046 3.5929 -1.5
      vertex 0.337286 1.76812 0.4
      vertex 0.113023 1.79645 0.4
    endloop
  endfacet
  facet normal -0.0910837 -0.7209 -0.687027
    outer loop
      vertex 0.337286 1.76812 0.4
      vertex 0.226046 3.5929 -1.5
      vertex 0.674572 3.53623 -1.5
    endloop
  endfacet
  facet normal 0.267479 -0.675609 -0.687028
    outer loop
      vertex -1.11246 3.4238 -1.5
      vertex -0.556231 1.7119 0.4
      vertex -1.53281 3.25738 -1.5
    endloop
  endfacet
  facet normal 0.713761 -0.136152 -0.687028
    outer loop
      vertex -3.4869 0.895283 -1.5
      vertex -1.74345 0.447641 0.4
      vertex -3.57161 0.4512 -1.5
    endloop
  endfacet
  facet normal 0.691065 -0.224549 -0.687027
    outer loop
      vertex -3.34719 1.32525 -1.5
      vertex -1.6736 0.662623 0.4
      vertex -3.4869 0.895283 -1.5
    endloop
  endfacet
  facet normal -0.657475 0.309386 -0.687027
    outer loop
      vertex 3.1547 -1.73431 -1.5
      vertex 1.6736 -0.662623 0.4
      vertex 3.34719 -1.32525 -1.5
    endloop
  endfacet
  facet normal -0.65747 0.309395 -0.687028
    outer loop
      vertex 1.6736 -0.662623 0.4
      vertex 3.1547 -1.73431 -1.5
      vertex 1.57735 -0.867156 0.4
    endloop
  endfacet
  facet normal -0.559872 0.463179 -0.687029
    outer loop
      vertex 1.45623 -1.05801 0.4
      vertex 2.91246 -2.11603 -1.5
      vertex 1.31214 -1.23218 0.4
    endloop
  endfacet
  facet normal -0.35006 0.636749 -0.687029
    outer loop
      vertex 0.964488 -1.51979 0.4
      vertex 1.53281 -3.25738 -1.5
      vertex 0.766402 -1.62869 0.4
    endloop
  endfacet
  facet normal -0.725197 0.0456302 -0.687028
    outer loop
      vertex 3.6 0 -1.5
      vertex 3.57161 -0.4512 -1.5
      vertex 1.8 0 0.4
    endloop
  endfacet
  facet normal -0.725197 -0.0456302 -0.687028
    outer loop
      vertex 3.57161 0.4512 -1.5
      vertex 3.6 0 -1.5
      vertex 1.8 0 0.4
    endloop
  endfacet
  facet normal -0.559872 -0.463179 -0.687029
    outer loop
      vertex 2.91246 2.11603 -1.5
      vertex 1.45623 1.05801 0.4
      vertex 1.31214 1.23218 0.4
    endloop
  endfacet
  facet normal -0.18072 -0.7038 -0.687027
    outer loop
      vertex 0.674572 3.53623 -1.5
      vertex 0.556231 1.7119 0.4
      vertex 0.337286 1.76812 0.4
    endloop
  endfacet
  facet normal -0.180705 -0.703803 -0.687028
    outer loop
      vertex 0.556231 1.7119 0.4
      vertex 0.674572 3.53623 -1.5
      vertex 1.11246 3.4238 -1.5
    endloop
  endfacet
  facet normal -5.70471e-16 -0.72663 -0.687029
    outer loop
      vertex -0.226046 3.5929 -1.5
      vertex 0.113023 1.79645 0.4
      vertex -0.113023 1.79645 0.4
    endloop
  endfacet
  facet normal -2.85236e-16 -0.72663 -0.687029
    outer loop
      vertex 0.113023 1.79645 0.4
      vertex -0.226046 3.5929 -1.5
      vertex 0.226046 3.5929 -1.5
    endloop
  endfacet
  facet normal 0.350061 -0.636748 -0.687029
    outer loop
      vertex -1.53281 3.25738 -1.5
      vertex -0.964488 1.51979 0.4
      vertex -1.92898 3.03958 -1.5
    endloop
  endfacet
  facet normal 0.427115 -0.587848 -0.687028
    outer loop
      vertex -0.964488 1.51979 0.4
      vertex -1.14736 1.38692 0.4
      vertex -1.92898 3.03958 -1.5
    endloop
  endfacet
  facet normal 0.497414 -0.529688 -0.68703
    outer loop
      vertex -1.31214 1.23218 0.4
      vertex -2.29473 2.77385 -1.5
      vertex -1.14736 1.38692 0.4
    endloop
  endfacet
  facet normal 0.497414 -0.529688 -0.68703
    outer loop
      vertex -2.29473 2.77385 -1.5
      vertex -1.31214 1.23218 0.4
      vertex -2.62429 2.46437 -1.5
    endloop
  endfacet
  facet normal 0.65747 -0.309395 -0.687028
    outer loop
      vertex -1.6736 0.662623 0.4
      vertex -3.1547 1.73431 -1.5
      vertex -1.57735 0.867156 0.4
    endloop
  endfacet
  facet normal 0.657475 -0.309386 -0.687027
    outer loop
      vertex -3.1547 1.73431 -1.5
      vertex -1.6736 0.662623 0.4
      vertex -3.34719 1.32525 -1.5
    endloop
  endfacet
  facet normal 0.691068 -0.224536 -0.687029
    outer loop
      vertex -1.6736 0.662623 0.4
      vertex -1.74345 0.447641 0.4
      vertex -3.4869 0.895283 -1.5
    endloop
  endfacet
  facet normal -0.691065 -0.224549 -0.687027
    outer loop
      vertex 3.34719 1.32525 -1.5
      vertex 3.4869 0.895283 -1.5
      vertex 1.6736 0.662623 0.4
    endloop
  endfacet
  facet normal -0.657475 -0.309386 -0.687027
    outer loop
      vertex 1.6736 0.662623 0.4
      vertex 3.1547 1.73431 -1.5
      vertex 3.34719 1.32525 -1.5
    endloop
  endfacet
  facet normal -0.65747 -0.309395 -0.687028
    outer loop
      vertex 3.1547 1.73431 -1.5
      vertex 1.6736 0.662623 0.4
      vertex 1.57735 0.867156 0.4
    endloop
  endfacet
  facet normal -0.725199 -0.0456144 -0.687027
    outer loop
      vertex 3.57161 0.4512 -1.5
      vertex 1.8 0 0.4
      vertex 1.78581 0.225599 0.4
    endloop
  endfacet
  facet normal -0.713759 -0.136167 -0.687027
    outer loop
      vertex 3.57161 0.4512 -1.5
      vertex 1.78581 0.225599 0.4
      vertex 1.74345 0.447641 0.4
    endloop
  endfacet
  facet normal -0.559879 -0.463169 -0.68703
    outer loop
      vertex 2.62429 2.46437 -1.5
      vertex 2.91246 2.11603 -1.5
      vertex 1.31214 1.23218 0.4
    endloop
  endfacet
  facet normal -0.497414 -0.529688 -0.68703
    outer loop
      vertex 1.31214 1.23218 0.4
      vertex 2.29473 2.77385 -1.5
      vertex 2.62429 2.46437 -1.5
    endloop
  endfacet
  facet normal -0.497414 -0.529688 -0.68703
    outer loop
      vertex 2.29473 2.77385 -1.5
      vertex 1.31214 1.23218 0.4
      vertex 1.14736 1.38692 0.4
    endloop
  endfacet
  facet normal -0.267483 -0.675606 -0.687029
    outer loop
      vertex 1.53281 3.25738 -1.5
      vertex 0.766402 1.62869 0.4
      vertex 0.556231 1.7119 0.4
    endloop
  endfacet
  facet normal 0.35006 -0.636749 -0.687029
    outer loop
      vertex -0.766402 1.62869 0.4
      vertex -0.964488 1.51979 0.4
      vertex -1.53281 3.25738 -1.5
    endloop
  endfacet
  facet normal 0.559879 -0.463169 -0.68703
    outer loop
      vertex -2.62429 2.46437 -1.5
      vertex -1.31214 1.23218 0.4
      vertex -2.91246 2.11603 -1.5
    endloop
  endfacet
  facet normal -0.691068 -0.224536 -0.687029
    outer loop
      vertex 3.4869 0.895283 -1.5
      vertex 1.74345 0.447641 0.4
      vertex 1.6736 0.662623 0.4
    endloop
  endfacet
  facet normal 0.559872 -0.463179 -0.687029
    outer loop
      vertex -1.31214 1.23218 0.4
      vertex -1.45623 1.05801 0.4
      vertex -2.91246 2.11603 -1.5
    endloop
  endfacet
  facet normal 0.613513 -0.389349 -0.687029
    outer loop
      vertex -1.57735 0.867156 0.4
      vertex -2.91246 2.11603 -1.5
      vertex -1.45623 1.05801 0.4
    endloop
  endfacet
  facet normal 0.61352 -0.38934 -0.687028
    outer loop
      vertex -2.91246 2.11603 -1.5
      vertex -1.57735 0.867156 0.4
      vertex -3.1547 1.73431 -1.5
    endloop
  endfacet
  facet normal -0.951059 -0.309009 6.47242e-20
    outer loop
      vertex 1.74345 0.447641 0.4
      vertex 1.6736 0.662623 1.5
      vertex 1.6736 0.662623 0.4
    endloop
  endfacet
  facet normal -0.951059 -0.309009 6.47242e-20
    outer loop
      vertex 1.6736 0.662623 1.5
      vertex 1.74345 0.447641 0.4
      vertex 1.74345 0.447641 1.5
    endloop
  endfacet
  facet normal 0.844327 -0.535828 -6.26127e-18
    outer loop
      vertex -1.57735 0.867156 1.5
      vertex -1.45623 1.05801 0.4
      vertex -1.45623 1.05801 1.5
    endloop
  endfacet
  facet normal 0.844327 -0.535828 -6.26127e-18
    outer loop
      vertex -1.45623 1.05801 0.4
      vertex -1.57735 0.867156 1.5
      vertex -1.57735 0.867156 0.4
    endloop
  endfacet
  facet normal 0.248708 -0.968578 0
    outer loop
      vertex -0.556231 1.7119 0.4
      vertex -0.337286 1.76812 1.5
      vertex -0.556231 1.7119 1.5
    endloop
  endfacet
  facet normal 0.248708 -0.968578 0
    outer loop
      vertex -0.337286 1.76812 1.5
      vertex -0.556231 1.7119 0.4
      vertex -0.337286 1.76812 0.4
    endloop
  endfacet
  facet normal 0.368115 -0.92978 0
    outer loop
      vertex -0.766402 1.62869 0.4
      vertex -0.556231 1.7119 1.5
      vertex -0.766402 1.62869 1.5
    endloop
  endfacet
  facet normal 0.368115 -0.92978 0
    outer loop
      vertex -0.556231 1.7119 1.5
      vertex -0.766402 1.62869 0.4
      vertex -0.556231 1.7119 0.4
    endloop
  endfacet
  facet normal -0.368115 -0.92978 0
    outer loop
      vertex 0.556231 1.7119 0.4
      vertex 0.766402 1.62869 1.5
      vertex 0.556231 1.7119 1.5
    endloop
  endfacet
  facet normal -0.368115 -0.92978 -0
    outer loop
      vertex 0.766402 1.62869 1.5
      vertex 0.556231 1.7119 0.4
      vertex 0.766402 1.62869 0.4
    endloop
  endfacet
  facet normal -0.90482 -0.425794 8.17556e-19
    outer loop
      vertex 1.6736 0.662623 0.4
      vertex 1.57735 0.867156 1.5
      vertex 1.57735 0.867156 0.4
    endloop
  endfacet
  facet normal -0.90482 -0.425794 8.17556e-19
    outer loop
      vertex 1.57735 0.867156 1.5
      vertex 1.6736 0.662623 0.4
      vertex 1.6736 0.662623 1.5
    endloop
  endfacet
  facet normal 0.982285 0.187395 -2.03709e-18
    outer loop
      vertex -1.74345 -0.447641 1.5
      vertex -1.78581 -0.225599 0.4
      vertex -1.78581 -0.225599 1.5
    endloop
  endfacet
  facet normal 0.982285 0.187395 -2.03709e-18
    outer loop
      vertex -1.78581 -0.225599 0.4
      vertex -1.74345 -0.447641 1.5
      vertex -1.74345 -0.447641 0.4
    endloop
  endfacet
  facet normal 0.982285 -0.187395 2.03709e-18
    outer loop
      vertex -1.78581 0.225599 1.5
      vertex -1.74345 0.447641 0.4
      vertex -1.74345 0.447641 1.5
    endloop
  endfacet
  facet normal 0.982285 -0.187395 2.03709e-18
    outer loop
      vertex -1.74345 0.447641 0.4
      vertex -1.78581 0.225599 1.5
      vertex -1.78581 0.225599 0.4
    endloop
  endfacet
  facet normal 0.68455 -0.728966 0
    outer loop
      vertex -1.31214 1.23218 0.4
      vertex -1.14736 1.38692 1.5
      vertex -1.31214 1.23218 1.5
    endloop
  endfacet
  facet normal 0.68455 -0.728966 0
    outer loop
      vertex -1.14736 1.38692 1.5
      vertex -1.31214 1.23218 0.4
      vertex -1.14736 1.38692 0.4
    endloop
  endfacet
  facet normal 0.125329 -0.992115 0
    outer loop
      vertex -0.337286 1.76812 0.4
      vertex -0.113023 1.79645 1.5
      vertex -0.337286 1.76812 1.5
    endloop
  endfacet
  facet normal 0.125329 -0.992115 0
    outer loop
      vertex -0.113023 1.79645 1.5
      vertex -0.337286 1.76812 0.4
      vertex -0.113023 1.79645 0.4
    endloop
  endfacet
  facet normal 0.587802 -0.809005 0
    outer loop
      vertex -1.14736 1.38692 0.4
      vertex -0.964488 1.51979 1.5
      vertex -1.14736 1.38692 1.5
    endloop
  endfacet
  facet normal 0.587802 -0.809005 0
    outer loop
      vertex -0.964488 1.51979 1.5
      vertex -1.14736 1.38692 0.4
      vertex -0.964488 1.51979 0.4
    endloop
  endfacet
  facet normal -0.982285 -0.187395 -2.03709e-18
    outer loop
      vertex 1.78581 0.225599 0.4
      vertex 1.74345 0.447641 1.5
      vertex 1.74345 0.447641 0.4
    endloop
  endfacet
  facet normal -0.982285 -0.187395 -2.03709e-18
    outer loop
      vertex 1.74345 0.447641 1.5
      vertex 1.78581 0.225599 0.4
      vertex 1.78581 0.225599 1.5
    endloop
  endfacet
  facet normal -0.770504 -0.637435 3.95155e-18
    outer loop
      vertex 1.45623 1.05801 0.4
      vertex 1.31214 1.23218 1.5
      vertex 1.31214 1.23218 0.4
    endloop
  endfacet
  facet normal -0.770504 -0.637435 3.95155e-18
    outer loop
      vertex 1.31214 1.23218 1.5
      vertex 1.45623 1.05801 0.4
      vertex 1.45623 1.05801 1.5
    endloop
  endfacet
  facet normal -0.248708 -0.968578 0
    outer loop
      vertex 0.337286 1.76812 0.4
      vertex 0.556231 1.7119 1.5
      vertex 0.337286 1.76812 1.5
    endloop
  endfacet
  facet normal -0.248708 -0.968578 -0
    outer loop
      vertex 0.556231 1.7119 1.5
      vertex 0.337286 1.76812 0.4
      vertex 0.556231 1.7119 0.4
    endloop
  endfacet
  facet normal -0.68455 -0.728966 0
    outer loop
      vertex 1.14736 1.38692 0.4
      vertex 1.31214 1.23218 1.5
      vertex 1.14736 1.38692 1.5
    endloop
  endfacet
  facet normal -0.68455 -0.728966 -0
    outer loop
      vertex 1.31214 1.23218 1.5
      vertex 1.14736 1.38692 0.4
      vertex 1.31214 1.23218 0.4
    endloop
  endfacet
  facet normal 0.998028 -0.0627752 -4.4285e-19
    outer loop
      vertex -1.8 0 1.5
      vertex -1.78581 0.225599 0.4
      vertex -1.78581 0.225599 1.5
    endloop
  endfacet
  facet normal 0.998028 -0.0627752 -4.4285e-19
    outer loop
      vertex -1.78581 0.225599 0.4
      vertex -1.8 0 1.5
      vertex -1.8 0 0.4
    endloop
  endfacet
  facet normal 0.481758 0.876304 -0
    outer loop
      vertex -0.766402 -1.62869 0.4
      vertex -0.964488 -1.51979 1.5
      vertex -0.766402 -1.62869 1.5
    endloop
  endfacet
  facet normal 0.481758 0.876304 0
    outer loop
      vertex -0.964488 -1.51979 1.5
      vertex -0.766402 -1.62869 0.4
      vertex -0.964488 -1.51979 0.4
    endloop
  endfacet
  facet normal 0.770504 -0.637435 -3.95155e-18
    outer loop
      vertex -1.45623 1.05801 1.5
      vertex -1.31214 1.23218 0.4
      vertex -1.31214 1.23218 1.5
    endloop
  endfacet
  facet normal 0.770504 -0.637435 -3.95155e-18
    outer loop
      vertex -1.31214 1.23218 0.4
      vertex -1.45623 1.05801 1.5
      vertex -1.45623 1.05801 0.4
    endloop
  endfacet
  facet normal 0 -1 0
    outer loop
      vertex -0.113023 1.79645 0.4
      vertex 0.113023 1.79645 1.5
      vertex -0.113023 1.79645 1.5
    endloop
  endfacet
  facet normal 0 -1 -0
    outer loop
      vertex 0.113023 1.79645 1.5
      vertex -0.113023 1.79645 0.4
      vertex 0.113023 1.79645 0.4
    endloop
  endfacet
  facet normal 0.481758 -0.876304 0
    outer loop
      vertex -0.964488 1.51979 0.4
      vertex -0.766402 1.62869 1.5
      vertex -0.964488 1.51979 1.5
    endloop
  endfacet
  facet normal 0.481758 -0.876304 0
    outer loop
      vertex -0.766402 1.62869 1.5
      vertex -0.964488 1.51979 0.4
      vertex -0.766402 1.62869 0.4
    endloop
  endfacet
  facet normal -0.998028 -0.0627752 4.4285e-19
    outer loop
      vertex 1.8 0 0.4
      vertex 1.78581 0.225599 1.5
      vertex 1.78581 0.225599 0.4
    endloop
  endfacet
  facet normal -0.998028 -0.0627752 4.4285e-19
    outer loop
      vertex 1.78581 0.225599 1.5
      vertex 1.8 0 0.4
      vertex 1.8 0 1.5
    endloop
  endfacet
  facet normal -0.844327 -0.535828 6.26127e-18
    outer loop
      vertex 1.57735 0.867156 0.4
      vertex 1.45623 1.05801 1.5
      vertex 1.45623 1.05801 0.4
    endloop
  endfacet
  facet normal -0.844327 -0.535828 6.26127e-18
    outer loop
      vertex 1.45623 1.05801 1.5
      vertex 1.57735 0.867156 0.4
      vertex 1.57735 0.867156 1.5
    endloop
  endfacet
  facet normal -0.125329 -0.992115 0
    outer loop
      vertex 0.113023 1.79645 0.4
      vertex 0.337286 1.76812 1.5
      vertex 0.113023 1.79645 1.5
    endloop
  endfacet
  facet normal -0.125329 -0.992115 -0
    outer loop
      vertex 0.337286 1.76812 1.5
      vertex 0.113023 1.79645 0.4
      vertex 0.337286 1.76812 0.4
    endloop
  endfacet
  facet normal -0.587802 -0.809005 0
    outer loop
      vertex 0.964488 1.51979 0.4
      vertex 1.14736 1.38692 1.5
      vertex 0.964488 1.51979 1.5
    endloop
  endfacet
  facet normal -0.587802 -0.809005 -0
    outer loop
      vertex 1.14736 1.38692 1.5
      vertex 0.964488 1.51979 0.4
      vertex 1.14736 1.38692 0.4
    endloop
  endfacet
  facet normal -0.481758 -0.876304 0
    outer loop
      vertex 0.766402 1.62869 0.4
      vertex 0.964488 1.51979 1.5
      vertex 0.766402 1.62869 1.5
    endloop
  endfacet
  facet normal -0.481758 -0.876304 -0
    outer loop
      vertex 0.964488 1.51979 1.5
      vertex 0.766402 1.62869 0.4
      vertex 0.964488 1.51979 0.4
    endloop
  endfacet
  facet normal 0.998028 0.0627752 4.4285e-19
    outer loop
      vertex -1.78581 -0.225599 1.5
      vertex -1.8 0 0.4
      vertex -1.8 0 1.5
    endloop
  endfacet
  facet normal 0.998028 0.0627752 4.4285e-19
    outer loop
      vertex -1.8 0 0.4
      vertex -1.78581 -0.225599 1.5
      vertex -1.78581 -0.225599 0.4
    endloop
  endfacet
  facet normal 0 1 -0
    outer loop
      vertex 0.113023 -1.79645 0.4
      vertex -0.113023 -1.79645 1.5
      vertex 0.113023 -1.79645 1.5
    endloop
  endfacet
  facet normal 0 1 0
    outer loop
      vertex -0.113023 -1.79645 1.5
      vertex 0.113023 -1.79645 0.4
      vertex -0.113023 -1.79645 0.4
    endloop
  endfacet
  facet normal -0.951059 0.309009 -6.47242e-20
    outer loop
      vertex 1.6736 -0.662623 0.4
      vertex 1.74345 -0.447641 1.5
      vertex 1.74345 -0.447641 0.4
    endloop
  endfacet
  facet normal -0.951059 0.309009 -6.47242e-20
    outer loop
      vertex 1.74345 -0.447641 1.5
      vertex 1.6736 -0.662623 0.4
      vertex 1.6736 -0.662623 1.5
    endloop
  endfacet
  facet normal -0.90482 0.425794 -8.17556e-19
    outer loop
      vertex 1.57735 -0.867156 0.4
      vertex 1.6736 -0.662623 1.5
      vertex 1.6736 -0.662623 0.4
    endloop
  endfacet
  facet normal -0.90482 0.425794 -8.17556e-19
    outer loop
      vertex 1.6736 -0.662623 1.5
      vertex 1.57735 -0.867156 0.4
      vertex 1.57735 -0.867156 1.5
    endloop
  endfacet
  facet normal 0.125329 0.992115 -0
    outer loop
      vertex -0.113023 -1.79645 0.4
      vertex -0.337286 -1.76812 1.5
      vertex -0.113023 -1.79645 1.5
    endloop
  endfacet
  facet normal 0.125329 0.992115 0
    outer loop
      vertex -0.337286 -1.76812 1.5
      vertex -0.113023 -1.79645 0.4
      vertex -0.337286 -1.76812 0.4
    endloop
  endfacet
  facet normal 0.90482 -0.425794 -8.17556e-19
    outer loop
      vertex -1.6736 0.662623 1.5
      vertex -1.57735 0.867156 0.4
      vertex -1.57735 0.867156 1.5
    endloop
  endfacet
  facet normal 0.90482 -0.425794 -8.17556e-19
    outer loop
      vertex -1.57735 0.867156 0.4
      vertex -1.6736 0.662623 1.5
      vertex -1.6736 0.662623 0.4
    endloop
  endfacet
  facet normal 0.951059 -0.309009 -6.47242e-20
    outer loop
      vertex -1.74345 0.447641 1.5
      vertex -1.6736 0.662623 0.4
      vertex -1.6736 0.662623 1.5
    endloop
  endfacet
  facet normal 0.951059 -0.309009 -6.47242e-20
    outer loop
      vertex -1.6736 0.662623 0.4
      vertex -1.74345 0.447641 1.5
      vertex -1.74345 0.447641 0.4
    endloop
  endfacet
  facet normal 0.90482 0.425794 8.17556e-19
    outer loop
      vertex -1.57735 -0.867156 1.5
      vertex -1.6736 -0.662623 0.4
      vertex -1.6736 -0.662623 1.5
    endloop
  endfacet
  facet normal 0.90482 0.425794 8.17556e-19
    outer loop
      vertex -1.6736 -0.662623 0.4
      vertex -1.57735 -0.867156 1.5
      vertex -1.57735 -0.867156 0.4
    endloop
  endfacet
  facet normal 0.951059 0.309009 6.47242e-20
    outer loop
      vertex -1.6736 -0.662623 1.5
      vertex -1.74345 -0.447641 0.4
      vertex -1.74345 -0.447641 1.5
    endloop
  endfacet
  facet normal 0.951059 0.309009 6.47242e-20
    outer loop
      vertex -1.74345 -0.447641 0.4
      vertex -1.6736 -0.662623 1.5
      vertex -1.6736 -0.662623 0.4
    endloop
  endfacet
  facet normal 0.68455 0.728966 -0
    outer loop
      vertex -1.14736 -1.38692 0.4
      vertex -1.31214 -1.23218 1.5
      vertex -1.14736 -1.38692 1.5
    endloop
  endfacet
  facet normal 0.68455 0.728966 0
    outer loop
      vertex -1.31214 -1.23218 1.5
      vertex -1.14736 -1.38692 0.4
      vertex -1.31214 -1.23218 0.4
    endloop
  endfacet
  facet normal 0.770504 0.637435 3.95155e-18
    outer loop
      vertex -1.31214 -1.23218 1.5
      vertex -1.45623 -1.05801 0.4
      vertex -1.45623 -1.05801 1.5
    endloop
  endfacet
  facet normal 0.770504 0.637435 3.95155e-18
    outer loop
      vertex -1.45623 -1.05801 0.4
      vertex -1.31214 -1.23218 1.5
      vertex -1.31214 -1.23218 0.4
    endloop
  endfacet
  facet normal 0.844327 0.535828 6.26127e-18
    outer loop
      vertex -1.45623 -1.05801 1.5
      vertex -1.57735 -0.867156 0.4
      vertex -1.57735 -0.867156 1.5
    endloop
  endfacet
  facet normal 0.844327 0.535828 6.26127e-18
    outer loop
      vertex -1.57735 -0.867156 0.4
      vertex -1.45623 -1.05801 1.5
      vertex -1.45623 -1.05801 0.4
    endloop
  endfacet
  facet normal -0.481758 0.876304 0
    outer loop
      vertex 0.964488 -1.51979 0.4
      vertex 0.766402 -1.62869 1.5
      vertex 0.964488 -1.51979 1.5
    endloop
  endfacet
  facet normal -0.481758 0.876304 0
    outer loop
      vertex 0.766402 -1.62869 1.5
      vertex 0.964488 -1.51979 0.4
      vertex 0.766402 -1.62869 0.4
    endloop
  endfacet
  facet normal -0.770504 0.637435 -3.95155e-18
    outer loop
      vertex 1.31214 -1.23218 0.4
      vertex 1.45623 -1.05801 1.5
      vertex 1.45623 -1.05801 0.4
    endloop
  endfacet
  facet normal -0.770504 0.637435 -3.95155e-18
    outer loop
      vertex 1.45623 -1.05801 1.5
      vertex 1.31214 -1.23218 0.4
      vertex 1.31214 -1.23218 1.5
    endloop
  endfacet
  facet normal 0.368115 0.92978 -0
    outer loop
      vertex -0.556231 -1.7119 0.4
      vertex -0.766402 -1.62869 1.5
      vertex -0.556231 -1.7119 1.5
    endloop
  endfacet
  facet normal 0.368115 0.92978 0
    outer loop
      vertex -0.766402 -1.62869 1.5
      vertex -0.556231 -1.7119 0.4
      vertex -0.766402 -1.62869 0.4
    endloop
  endfacet
  facet normal 0.248708 0.968578 -0
    outer loop
      vertex -0.337286 -1.76812 0.4
      vertex -0.556231 -1.7119 1.5
      vertex -0.337286 -1.76812 1.5
    endloop
  endfacet
  facet normal 0.248708 0.968578 0
    outer loop
      vertex -0.556231 -1.7119 1.5
      vertex -0.337286 -1.76812 0.4
      vertex -0.556231 -1.7119 0.4
    endloop
  endfacet
  facet normal 0.587802 0.809005 -0
    outer loop
      vertex -0.964488 -1.51979 0.4
      vertex -1.14736 -1.38692 1.5
      vertex -0.964488 -1.51979 1.5
    endloop
  endfacet
  facet normal 0.587802 0.809005 0
    outer loop
      vertex -1.14736 -1.38692 1.5
      vertex -0.964488 -1.51979 0.4
      vertex -1.14736 -1.38692 0.4
    endloop
  endfacet
  facet normal -0.587802 0.809005 0
    outer loop
      vertex 1.14736 -1.38692 0.4
      vertex 0.964488 -1.51979 1.5
      vertex 1.14736 -1.38692 1.5
    endloop
  endfacet
  facet normal -0.587802 0.809005 0
    outer loop
      vertex 0.964488 -1.51979 1.5
      vertex 1.14736 -1.38692 0.4
      vertex 0.964488 -1.51979 0.4
    endloop
  endfacet
  facet normal -0.248708 0.968578 0
    outer loop
      vertex 0.556231 -1.7119 0.4
      vertex 0.337286 -1.76812 1.5
      vertex 0.556231 -1.7119 1.5
    endloop
  endfacet
  facet normal -0.248708 0.968578 0
    outer loop
      vertex 0.337286 -1.76812 1.5
      vertex 0.556231 -1.7119 0.4
      vertex 0.337286 -1.76812 0.4
    endloop
  endfacet
  facet normal -0.844327 0.535828 -6.26127e-18
    outer loop
      vertex 1.45623 -1.05801 0.4
      vertex 1.57735 -0.867156 1.5
      vertex 1.57735 -0.867156 0.4
    endloop
  endfacet
  facet normal -0.844327 0.535828 -6.26127e-18
    outer loop
      vertex 1.57735 -0.867156 1.5
      vertex 1.45623 -1.05801 0.4
      vertex 1.45623 -1.05801 1.5
    endloop
  endfacet
  facet normal -0.68455 0.728966 0
    outer loop
      vertex 1.31214 -1.23218 0.4
      vertex 1.14736 -1.38692 1.5
      vertex 1.31214 -1.23218 1.5
    endloop
  endfacet
  facet normal -0.68455 0.728966 0
    outer loop
      vertex 1.14736 -1.38692 1.5
      vertex 1.31214 -1.23218 0.4
      vertex 1.14736 -1.38692 0.4
    endloop
  endfacet
  facet normal -0.982285 0.187395 2.03709e-18
    outer loop
      vertex 1.74345 -0.447641 0.4
      vertex 1.78581 -0.225599 1.5
      vertex 1.78581 -0.225599 0.4
    endloop
  endfacet
  facet normal -0.982285 0.187395 2.03709e-18
    outer loop
      vertex 1.78581 -0.225599 1.5
      vertex 1.74345 -0.447641 0.4
      vertex 1.74345 -0.447641 1.5
    endloop
  endfacet
  facet normal -0.998028 0.0627752 -4.4285e-19
    outer loop
      vertex 1.78581 -0.225599 0.4
      vertex 1.8 0 1.5
      vertex 1.8 0 0.4
    endloop
  endfacet
  facet normal -0.998028 0.0627752 -4.4285e-19
    outer loop
      vertex 1.8 0 1.5
      vertex 1.78581 -0.225599 0.4
      vertex 1.78581 -0.225599 1.5
    endloop
  endfacet
  facet normal -0.368115 0.92978 0
    outer loop
      vertex 0.766402 -1.62869 0.4
      vertex 0.556231 -1.7119 1.5
      vertex 0.766402 -1.62869 1.5
    endloop
  endfacet
  facet normal -0.368115 0.92978 0
    outer loop
      vertex 0.556231 -1.7119 1.5
      vertex 0.766402 -1.62869 0.4
      vertex 0.556231 -1.7119 0.4
    endloop
  endfacet
  facet normal -0.125329 0.992115 0
    outer loop
      vertex 0.337286 -1.76812 0.4
      vertex 0.113023 -1.79645 1.5
      vertex 0.337286 -1.76812 1.5
    endloop
  endfacet
  facet normal -0.125329 0.992115 0
    outer loop
      vertex 0.113023 -1.79645 1.5
      vertex 0.337286 -1.76812 0.4
      vertex 0.113023 -1.79645 0.4
    endloop
  endfacet
endsolid OpenSCAD_Model
