solid OpenSCAD_Model
  facet normal 0 0 -1
    outer loop
      vertex 1.8 0 -1.5
      vertex 2.85 0 -1.5
      vertex 2.82753 -0.3572 -1.5
    endloop
  endfacet
  facet normal 0 0 -1
    outer loop
      vertex 1.78581 -0.225599 -1.5
      vertex 2.82753 -0.3572 -1.5
      vertex 2.76046 -0.708766 -1.5
    endloop
  endfacet
  facet normal 0 0 -1
    outer loop
      vertex 2.85 0 -1.5
      vertex 1.8 0 -1.5
      vertex 2.82753 0.3572 -1.5
    endloop
  endfacet
  facet normal 0 0 -1
    outer loop
      vertex 1.74345 -0.447641 -1.5
      vertex 2.76046 -0.708766 -1.5
      vertex 2.64986 -1.04915 -1.5
    endloop
  endfacet
  facet normal 0 0 -1
    outer loop
      vertex 1.78581 0.225599 -1.5
      vertex 2.82753 0.3572 -1.5
      vertex 1.8 0 -1.5
    endloop
  endfacet
  facet normal 0 0 -1
    outer loop
      vertex 1.6736 -0.662623 -1.5
      vertex 2.64986 -1.04915 -1.5
      vertex 2.49747 -1.373 -1.5
    endloop
  endfacet
  facet normal -0 0 -1
    outer loop
      vertex 2.82753 0.3572 -1.5
      vertex 1.78581 0.225599 -1.5
      vertex 2.76046 0.708766 -1.5
    endloop
  endfacet
  facet normal 0 0 -1
    outer loop
      vertex 1.57735 -0.867156 -1.5
      vertex 2.49747 -1.373 -1.5
      vertex 2.3057 -1.67519 -1.5
    endloop
  endfacet
  facet normal 0 0 -1
    outer loop
      vertex 1.74345 0.447641 -1.5
      vertex 2.76046 0.708766 -1.5
      vertex 1.78581 0.225599 -1.5
    endloop
  endfacet
  facet normal 0 0 -1
    outer loop
      vertex 1.45623 -1.05801 -1.5
      vertex 2.3057 -1.67519 -1.5
      vertex 2.07756 -1.95096 -1.5
    endloop
  endfacet
  facet normal -0 0 -1
    outer loop
      vertex 2.76046 0.708766 -1.5
      vertex 1.74345 0.447641 -1.5
      vertex 2.64986 1.04915 -1.5
    endloop
  endfacet
  facet normal 0 0 -1
    outer loop
      vertex 1.31214 -1.23218 -1.5
      vertex 2.07756 -1.95096 -1.5
      vertex 1.81666 -2.19596 -1.5
    endloop
  endfacet
  facet normal 0 0 -1
    outer loop
      vertex 1.6736 0.662623 -1.5
      vertex 2.64986 1.04915 -1.5
      vertex 1.74345 0.447641 -1.5
    endloop
  endfacet
  facet normal -0 0 -1
    outer loop
      vertex 2.64986 1.04915 -1.5
      vertex 1.6736 0.662623 -1.5
      vertex 2.49747 1.373 -1.5
    endloop
  endfacet
  facet normal 0 0 -1
    outer loop
      vertex 2.82753 -0.3572 -1.5
      vertex 1.78581 -0.225599 -1.5
      vertex 1.8 0 -1.5
    endloop
  endfacet
  facet normal 0 0 -1
    outer loop
      vertex 2.76046 -0.708766 -1.5
      vertex 1.74345 -0.447641 -1.5
      vertex 1.78581 -0.225599 -1.5
    endloop
  endfacet
  facet normal 0 0 -1
    outer loop
      vertex 2.64986 -1.04915 -1.5
      vertex 1.6736 -0.662623 -1.5
      vertex 1.74345 -0.447641 -1.5
    endloop
  endfacet
  facet normal 0 0 -1
    outer loop
      vertex 2.49747 -1.373 -1.5
      vertex 1.57735 -0.867156 -1.5
      vertex 1.6736 -0.662623 -1.5
    endloop
  endfacet
  facet normal 0 0 -1
    outer loop
      vertex 1.14736 -1.38692 -1.5
      vertex 1.81666 -2.19596 -1.5
      vertex 1.52711 -2.40633 -1.5
    endloop
  endfacet
  facet normal 0 0 -1
    outer loop
      vertex 2.3057 -1.67519 -1.5
      vertex 1.45623 -1.05801 -1.5
      vertex 1.57735 -0.867156 -1.5
    endloop
  endfacet
  facet normal 0 0 -1
    outer loop
      vertex 2.07756 -1.95096 -1.5
      vertex 1.31214 -1.23218 -1.5
      vertex 1.45623 -1.05801 -1.5
    endloop
  endfacet
  facet normal 0 0 -1
    outer loop
      vertex 0.964488 -1.51979 -1.5
      vertex 1.52711 -2.40633 -1.5
      vertex 1.21347 -2.57876 -1.5
    endloop
  endfacet
  facet normal 0 0 -1
    outer loop
      vertex 1.81666 -2.19596 -1.5
      vertex 1.14736 -1.38692 -1.5
      vertex 1.31214 -1.23218 -1.5
    endloop
  endfacet
  facet normal 0 0 -1
    outer loop
      vertex 1.52711 -2.40633 -1.5
      vertex 0.964488 -1.51979 -1.5
      vertex 1.14736 -1.38692 -1.5
    endloop
  endfacet
  facet normal 0 0 -1
    outer loop
      vertex 0.766402 -1.62869 -1.5
      vertex 1.21347 -2.57876 -1.5
      vertex 0.880698 -2.71051 -1.5
    endloop
  endfacet
  facet normal 0 0 -1
    outer loop
      vertex 1.21347 -2.57876 -1.5
      vertex 0.766402 -1.62869 -1.5
      vertex 0.964488 -1.51979 -1.5
    endloop
  endfacet
  facet normal 0 0 -1
    outer loop
      vertex 0.880698 -2.71051 -1.5
      vertex 0.556231 -1.7119 -1.5
      vertex 0.766402 -1.62869 -1.5
    endloop
  endfacet
  facet normal 0 0 -1
    outer loop
      vertex 0.534037 -2.79952 -1.5
      vertex 0.556231 -1.7119 -1.5
      vertex 0.880698 -2.71051 -1.5
    endloop
  endfacet
  facet normal 0 0 -1
    outer loop
      vertex 0.534037 -2.79952 -1.5
      vertex 0.337286 -1.76812 -1.5
      vertex 0.556231 -1.7119 -1.5
    endloop
  endfacet
  facet normal 0 0 -1
    outer loop
      vertex 0.178952 -2.84438 -1.5
      vertex 0.337286 -1.76812 -1.5
      vertex 0.534037 -2.79952 -1.5
    endloop
  endfacet
  facet normal 0 0 -1
    outer loop
      vertex 0.178952 -2.84438 -1.5
      vertex 0.113023 -1.79645 -1.5
      vertex 0.337286 -1.76812 -1.5
    endloop
  endfacet
  facet normal 0 0 -1
    outer loop
      vertex 0.178952 -2.84438 -1.5
      vertex -0.113023 -1.79645 -1.5
      vertex 0.113023 -1.79645 -1.5
    endloop
  endfacet
  facet normal 0 0 -1
    outer loop
      vertex -0.178952 -2.84438 -1.5
      vertex -0.113023 -1.79645 -1.5
      vertex 0.178952 -2.84438 -1.5
    endloop
  endfacet
  facet normal 0 0 -1
    outer loop
      vertex -0.178952 -2.84438 -1.5
      vertex -0.337286 -1.76812 -1.5
      vertex -0.113023 -1.79645 -1.5
    endloop
  endfacet
  facet normal 0 0 -1
    outer loop
      vertex -0.534037 -2.79952 -1.5
      vertex -0.337286 -1.76812 -1.5
      vertex -0.178952 -2.84438 -1.5
    endloop
  endfacet
  facet normal 0 0 -1
    outer loop
      vertex -0.534037 -2.79952 -1.5
      vertex -0.556231 -1.7119 -1.5
      vertex -0.337286 -1.76812 -1.5
    endloop
  endfacet
  facet normal 0 0 -1
    outer loop
      vertex -0.880698 -2.71051 -1.5
      vertex -0.556231 -1.7119 -1.5
      vertex -0.534037 -2.79952 -1.5
    endloop
  endfacet
  facet normal -0 0 -1
    outer loop
      vertex -0.556231 -1.7119 -1.5
      vertex -0.880698 -2.71051 -1.5
      vertex -0.766402 -1.62869 -1.5
    endloop
  endfacet
  facet normal 0 0 -1
    outer loop
      vertex -1.21347 -2.57876 -1.5
      vertex -0.766402 -1.62869 -1.5
      vertex -0.880698 -2.71051 -1.5
    endloop
  endfacet
  facet normal -0 0 -1
    outer loop
      vertex -0.766402 -1.62869 -1.5
      vertex -1.21347 -2.57876 -1.5
      vertex -0.964488 -1.51979 -1.5
    endloop
  endfacet
  facet normal 0 0 -1
    outer loop
      vertex -1.52711 -2.40633 -1.5
      vertex -0.964488 -1.51979 -1.5
      vertex -1.21347 -2.57876 -1.5
    endloop
  endfacet
  facet normal -0 0 -1
    outer loop
      vertex -0.964488 -1.51979 -1.5
      vertex -1.52711 -2.40633 -1.5
      vertex -1.14736 -1.38692 -1.5
    endloop
  endfacet
  facet normal 0 0 -1
    outer loop
      vertex -1.81666 -2.19596 -1.5
      vertex -1.14736 -1.38692 -1.5
      vertex -1.52711 -2.40633 -1.5
    endloop
  endfacet
  facet normal -0 0 -1
    outer loop
      vertex -1.14736 -1.38692 -1.5
      vertex -1.81666 -2.19596 -1.5
      vertex -1.31214 -1.23218 -1.5
    endloop
  endfacet
  facet normal 0 0 -1
    outer loop
      vertex -2.07756 -1.95096 -1.5
      vertex -1.31214 -1.23218 -1.5
      vertex -1.81666 -2.19596 -1.5
    endloop
  endfacet
  facet normal -0 0 -1
    outer loop
      vertex -1.31214 -1.23218 -1.5
      vertex -2.07756 -1.95096 -1.5
      vertex -1.45623 -1.05801 -1.5
    endloop
  endfacet
  facet normal 0 0 -1
    outer loop
      vertex -2.3057 -1.67519 -1.5
      vertex -1.45623 -1.05801 -1.5
      vertex -2.07756 -1.95096 -1.5
    endloop
  endfacet
  facet normal -0 0 -1
    outer loop
      vertex -1.45623 -1.05801 -1.5
      vertex -2.3057 -1.67519 -1.5
      vertex -1.57735 -0.867156 -1.5
    endloop
  endfacet
  facet normal -0 0 -1
    outer loop
      vertex -1.57735 -0.867156 -1.5
      vertex -2.49747 -1.373 -1.5
      vertex -1.6736 -0.662623 -1.5
    endloop
  endfacet
  facet normal 0 0 -1
    outer loop
      vertex -2.49747 -1.373 -1.5
      vertex -1.57735 -0.867156 -1.5
      vertex -2.3057 -1.67519 -1.5
    endloop
  endfacet
  facet normal 0 0 -1
    outer loop
      vertex 1.57735 0.867156 -1.5
      vertex 2.49747 1.373 -1.5
      vertex 1.6736 0.662623 -1.5
    endloop
  endfacet
  facet normal -0 0 -1
    outer loop
      vertex 2.49747 1.373 -1.5
      vertex 1.57735 0.867156 -1.5
      vertex 2.3057 1.67519 -1.5
    endloop
  endfacet
  facet normal 0 0 -1
    outer loop
      vertex 1.45623 1.05801 -1.5
      vertex 2.3057 1.67519 -1.5
      vertex 1.57735 0.867156 -1.5
    endloop
  endfacet
  facet normal -0 0 -1
    outer loop
      vertex 2.3057 1.67519 -1.5
      vertex 1.45623 1.05801 -1.5
      vertex 2.07756 1.95096 -1.5
    endloop
  endfacet
  facet normal 0 0 -1
    outer loop
      vertex 1.31214 1.23218 -1.5
      vertex 2.07756 1.95096 -1.5
      vertex 1.45623 1.05801 -1.5
    endloop
  endfacet
  facet normal -0 0 -1
    outer loop
      vertex 2.07756 1.95096 -1.5
      vertex 1.31214 1.23218 -1.5
      vertex 1.81666 2.19596 -1.5
    endloop
  endfacet
  facet normal 0 0 -1
    outer loop
      vertex 1.14736 1.38692 -1.5
      vertex 1.81666 2.19596 -1.5
      vertex 1.31214 1.23218 -1.5
    endloop
  endfacet
  facet normal -0 0 -1
    outer loop
      vertex 1.81666 2.19596 -1.5
      vertex 1.14736 1.38692 -1.5
      vertex 1.52711 2.40633 -1.5
    endloop
  endfacet
  facet normal 0 0 -1
    outer loop
      vertex 0.964488 1.51979 -1.5
      vertex 1.52711 2.40633 -1.5
      vertex 1.14736 1.38692 -1.5
    endloop
  endfacet
  facet normal -0 0 -1
    outer loop
      vertex 1.52711 2.40633 -1.5
      vertex 0.964488 1.51979 -1.5
      vertex 1.21347 2.57876 -1.5
    endloop
  endfacet
  facet normal 0 0 -1
    outer loop
      vertex 0.766402 1.62869 -1.5
      vertex 1.21347 2.57876 -1.5
      vertex 0.964488 1.51979 -1.5
    endloop
  endfacet
  facet normal -0 0 -1
    outer loop
      vertex 1.21347 2.57876 -1.5
      vertex 0.766402 1.62869 -1.5
      vertex 0.880698 2.71051 -1.5
    endloop
  endfacet
  facet normal 0 0 -1
    outer loop
      vertex 0.556231 1.7119 -1.5
      vertex 0.880698 2.71051 -1.5
      vertex 0.766402 1.62869 -1.5
    endloop
  endfacet
  facet normal 0 0 -1
    outer loop
      vertex 0.556231 1.7119 -1.5
      vertex 0.534037 2.79952 -1.5
      vertex 0.880698 2.71051 -1.5
    endloop
  endfacet
  facet normal 0 0 -1
    outer loop
      vertex 0.337286 1.76812 -1.5
      vertex 0.534037 2.79952 -1.5
      vertex 0.556231 1.7119 -1.5
    endloop
  endfacet
  facet normal 0 0 -1
    outer loop
      vertex 0.337286 1.76812 -1.5
      vertex 0.178952 2.84438 -1.5
      vertex 0.534037 2.79952 -1.5
    endloop
  endfacet
  facet normal 0 0 -1
    outer loop
      vertex 0.113023 1.79645 -1.5
      vertex 0.178952 2.84438 -1.5
      vertex 0.337286 1.76812 -1.5
    endloop
  endfacet
  facet normal 0 0 -1
    outer loop
      vertex -0.113023 1.79645 -1.5
      vertex 0.178952 2.84438 -1.5
      vertex 0.113023 1.79645 -1.5
    endloop
  endfacet
  facet normal 0 0 -1
    outer loop
      vertex -0.113023 1.79645 -1.5
      vertex -0.178952 2.84438 -1.5
      vertex 0.178952 2.84438 -1.5
    endloop
  endfacet
  facet normal 0 0 -1
    outer loop
      vertex -0.337286 1.76812 -1.5
      vertex -0.178952 2.84438 -1.5
      vertex -0.113023 1.79645 -1.5
    endloop
  endfacet
  facet normal 0 0 -1
    outer loop
      vertex -0.337286 1.76812 -1.5
      vertex -0.534037 2.79952 -1.5
      vertex -0.178952 2.84438 -1.5
    endloop
  endfacet
  facet normal 0 0 -1
    outer loop
      vertex -0.556231 1.7119 -1.5
      vertex -0.534037 2.79952 -1.5
      vertex -0.337286 1.76812 -1.5
    endloop
  endfacet
  facet normal 0 0 -1
    outer loop
      vertex -0.880698 2.71051 -1.5
      vertex -0.556231 1.7119 -1.5
      vertex -0.766402 1.62869 -1.5
    endloop
  endfacet
  facet normal 0 0 -1
    outer loop
      vertex -0.556231 1.7119 -1.5
      vertex -0.880698 2.71051 -1.5
      vertex -0.534037 2.79952 -1.5
    endloop
  endfacet
  facet normal 0 0 -1
    outer loop
      vertex -1.21347 2.57876 -1.5
      vertex -0.766402 1.62869 -1.5
      vertex -0.964488 1.51979 -1.5
    endloop
  endfacet
  facet normal 0 0 -1
    outer loop
      vertex -1.52711 2.40633 -1.5
      vertex -0.964488 1.51979 -1.5
      vertex -1.14736 1.38692 -1.5
    endloop
  endfacet
  facet normal 0 0 -1
    outer loop
      vertex -0.766402 1.62869 -1.5
      vertex -1.21347 2.57876 -1.5
      vertex -0.880698 2.71051 -1.5
    endloop
  endfacet
  facet normal 0 0 -1
    outer loop
      vertex -1.81666 2.19596 -1.5
      vertex -1.14736 1.38692 -1.5
      vertex -1.31214 1.23218 -1.5
    endloop
  endfacet
  facet normal 0 0 -1
    outer loop
      vertex -2.07756 1.95096 -1.5
      vertex -1.31214 1.23218 -1.5
      vertex -1.45623 1.05801 -1.5
    endloop
  endfacet
  facet normal 0 0 -1
    outer loop
      vertex -0.964488 1.51979 -1.5
      vertex -1.52711 2.40633 -1.5
      vertex -1.21347 2.57876 -1.5
    endloop
  endfacet
  facet normal 0 0 -1
    outer loop
      vertex -2.3057 1.67519 -1.5
      vertex -1.45623 1.05801 -1.5
      vertex -1.57735 0.867156 -1.5
    endloop
  endfacet
  facet normal 0 0 -1
    outer loop
      vertex -2.49747 1.373 -1.5
      vertex -1.57735 0.867156 -1.5
      vertex -1.6736 0.662623 -1.5
    endloop
  endfacet
  facet normal 0 0 -1
    outer loop
      vertex -2.64986 1.04915 -1.5
      vertex -1.6736 0.662623 -1.5
      vertex -1.74345 0.447641 -1.5
    endloop
  endfacet
  facet normal 0 0 -1
    outer loop
      vertex -2.76046 0.708766 -1.5
      vertex -1.74345 0.447641 -1.5
      vertex -1.78581 0.225599 -1.5
    endloop
  endfacet
  facet normal 0 0 -1
    outer loop
      vertex -1.14736 1.38692 -1.5
      vertex -1.81666 2.19596 -1.5
      vertex -1.52711 2.40633 -1.5
    endloop
  endfacet
  facet normal 0 0 -1
    outer loop
      vertex -2.82753 0.3572 -1.5
      vertex -1.78581 0.225599 -1.5
      vertex -1.8 0 -1.5
    endloop
  endfacet
  facet normal 0 0 -1
    outer loop
      vertex -2.64986 -1.04915 -1.5
      vertex -1.6736 -0.662623 -1.5
      vertex -2.49747 -1.373 -1.5
    endloop
  endfacet
  facet normal -0 0 -1
    outer loop
      vertex -1.6736 -0.662623 -1.5
      vertex -2.64986 -1.04915 -1.5
      vertex -1.74345 -0.447641 -1.5
    endloop
  endfacet
  facet normal 0 0 -1
    outer loop
      vertex -1.31214 1.23218 -1.5
      vertex -2.07756 1.95096 -1.5
      vertex -1.81666 2.19596 -1.5
    endloop
  endfacet
  facet normal 0 0 -1
    outer loop
      vertex -2.76046 -0.708766 -1.5
      vertex -1.74345 -0.447641 -1.5
      vertex -2.64986 -1.04915 -1.5
    endloop
  endfacet
  facet normal 0 0 -1
    outer loop
      vertex -1.45623 1.05801 -1.5
      vertex -2.3057 1.67519 -1.5
      vertex -2.07756 1.95096 -1.5
    endloop
  endfacet
  facet normal -0 0 -1
    outer loop
      vertex -1.74345 -0.447641 -1.5
      vertex -2.76046 -0.708766 -1.5
      vertex -1.78581 -0.225599 -1.5
    endloop
  endfacet
  facet normal 0 0 -1
    outer loop
      vertex -1.57735 0.867156 -1.5
      vertex -2.49747 1.373 -1.5
      vertex -2.3057 1.67519 -1.5
    endloop
  endfacet
  facet normal 0 0 -1
    outer loop
      vertex -2.82753 -0.3572 -1.5
      vertex -1.78581 -0.225599 -1.5
      vertex -2.76046 -0.708766 -1.5
    endloop
  endfacet
  facet normal 0 0 -1
    outer loop
      vertex -1.6736 0.662623 -1.5
      vertex -2.64986 1.04915 -1.5
      vertex -2.49747 1.373 -1.5
    endloop
  endfacet
  facet normal -0 0 -1
    outer loop
      vertex -1.78581 -0.225599 -1.5
      vertex -2.82753 -0.3572 -1.5
      vertex -1.8 0 -1.5
    endloop
  endfacet
  facet normal 0 0 -1
    outer loop
      vertex -1.74345 0.447641 -1.5
      vertex -2.76046 0.708766 -1.5
      vertex -2.64986 1.04915 -1.5
    endloop
  endfacet
  facet normal 0 0 -1
    outer loop
      vertex -2.85 0 -1.5
      vertex -1.8 0 -1.5
      vertex -2.82753 -0.3572 -1.5
    endloop
  endfacet
  facet normal 0 0 -1
    outer loop
      vertex -1.78581 0.225599 -1.5
      vertex -2.82753 0.3572 -1.5
      vertex -2.76046 0.708766 -1.5
    endloop
  endfacet
  facet normal 0 0 -1
    outer loop
      vertex -1.8 0 -1.5
      vertex -2.85 0 -1.5
      vertex -2.82753 0.3572 -1.5
    endloop
  endfacet
  facet normal 0.998027 0.0627818 0
    outer loop
      vertex 2.85 0 2
      vertex 2.82753 0.3572 -1.5
      vertex 2.82753 0.3572 2
    endloop
  endfacet
  facet normal 0.998027 0.0627818 0
    outer loop
      vertex 2.82753 0.3572 -1.5
      vertex 2.85 0 2
      vertex 2.85 0 -1.5
    endloop
  endfacet
  facet normal -0.998027 0.0627818 0
    outer loop
      vertex -2.85 0 -1.5
      vertex -2.82753 0.3572 2
      vertex -2.82753 0.3572 -1.5
    endloop
  endfacet
  facet normal -0.998027 0.0627818 0
    outer loop
      vertex -2.82753 0.3572 2
      vertex -2.85 0 -1.5
      vertex -2.85 0 2
    endloop
  endfacet
  facet normal 0 1 -0
    outer loop
      vertex 0.178952 2.84438 -1.5
      vertex -0.178952 2.84438 2
      vertex 0.178952 2.84438 2
    endloop
  endfacet
  facet normal 0 1 0
    outer loop
      vertex -0.178952 2.84438 2
      vertex 0.178952 2.84438 -1.5
      vertex -0.178952 2.84438 -1.5
    endloop
  endfacet
  facet normal 0.684545 0.728971 -0
    outer loop
      vertex 2.07756 1.95096 -1.5
      vertex 1.81666 2.19596 2
      vertex 2.07756 1.95096 2
    endloop
  endfacet
  facet normal 0.684545 0.728971 0
    outer loop
      vertex 1.81666 2.19596 2
      vertex 2.07756 1.95096 -1.5
      vertex 1.81666 2.19596 -1.5
    endloop
  endfacet
  facet normal -0.684545 0.728971 0
    outer loop
      vertex -1.81666 2.19596 -1.5
      vertex -2.07756 1.95096 2
      vertex -1.81666 2.19596 2
    endloop
  endfacet
  facet normal -0.684545 0.728971 0
    outer loop
      vertex -2.07756 1.95096 2
      vertex -1.81666 2.19596 -1.5
      vertex -2.07756 1.95096 -1.5
    endloop
  endfacet
  facet normal -0.368115 0.92978 0
    outer loop
      vertex -0.880698 2.71051 -1.5
      vertex -1.21347 2.57876 2
      vertex -0.880698 2.71051 2
    endloop
  endfacet
  facet normal -0.368115 0.92978 0
    outer loop
      vertex -1.21347 2.57876 2
      vertex -0.880698 2.71051 -1.5
      vertex -1.21347 2.57876 -1.5
    endloop
  endfacet
  facet normal 0.770509 -0.637429 0
    outer loop
      vertex 2.07756 -1.95096 2
      vertex 2.3057 -1.67519 -1.5
      vertex 2.3057 -1.67519 2
    endloop
  endfacet
  facet normal 0.770509 -0.637429 0
    outer loop
      vertex 2.3057 -1.67519 -1.5
      vertex 2.07756 -1.95096 2
      vertex 2.07756 -1.95096 -1.5
    endloop
  endfacet
  facet normal 0.904829 0.425774 0
    outer loop
      vertex 2.64986 1.04915 2
      vertex 2.49747 1.373 -1.5
      vertex 2.49747 1.373 2
    endloop
  endfacet
  facet normal 0.904829 0.425774 0
    outer loop
      vertex 2.49747 1.373 -1.5
      vertex 2.64986 1.04915 2
      vertex 2.64986 1.04915 -1.5
    endloop
  endfacet
  facet normal 0.982285 0.187395 0
    outer loop
      vertex 2.82753 0.3572 2
      vertex 2.76046 0.708766 -1.5
      vertex 2.76046 0.708766 2
    endloop
  endfacet
  facet normal 0.982285 0.187395 0
    outer loop
      vertex 2.76046 0.708766 -1.5
      vertex 2.82753 0.3572 2
      vertex 2.82753 0.3572 -1.5
    endloop
  endfacet
  facet normal 0.368115 0.92978 -0
    outer loop
      vertex 1.21347 2.57876 -1.5
      vertex 0.880698 2.71051 2
      vertex 1.21347 2.57876 2
    endloop
  endfacet
  facet normal 0.368115 0.92978 0
    outer loop
      vertex 0.880698 2.71051 2
      vertex 1.21347 2.57876 -1.5
      vertex 0.880698 2.71051 -1.5
    endloop
  endfacet
  facet normal 0.248697 0.968581 -0
    outer loop
      vertex 0.880698 2.71051 -1.5
      vertex 0.534037 2.79952 2
      vertex 0.880698 2.71051 2
    endloop
  endfacet
  facet normal 0.248697 0.968581 0
    outer loop
      vertex 0.534037 2.79952 2
      vertex 0.880698 2.71051 -1.5
      vertex 0.534037 2.79952 -1.5
    endloop
  endfacet
  facet normal 0.587785 0.809018 -0
    outer loop
      vertex 1.81666 2.19596 -1.5
      vertex 1.52711 2.40633 2
      vertex 1.81666 2.19596 2
    endloop
  endfacet
  facet normal 0.587785 0.809018 0
    outer loop
      vertex 1.52711 2.40633 2
      vertex 1.81666 2.19596 -1.5
      vertex 1.52711 2.40633 -1.5
    endloop
  endfacet
  facet normal -0.904829 0.425774 0
    outer loop
      vertex -2.64986 1.04915 -1.5
      vertex -2.49747 1.373 2
      vertex -2.49747 1.373 -1.5
    endloop
  endfacet
  facet normal -0.904829 0.425774 0
    outer loop
      vertex -2.49747 1.373 2
      vertex -2.64986 1.04915 -1.5
      vertex -2.64986 1.04915 2
    endloop
  endfacet
  facet normal -0.844335 0.535816 0
    outer loop
      vertex -2.49747 1.373 -1.5
      vertex -2.3057 1.67519 2
      vertex -2.3057 1.67519 -1.5
    endloop
  endfacet
  facet normal -0.844335 0.535816 0
    outer loop
      vertex -2.3057 1.67519 2
      vertex -2.49747 1.373 -1.5
      vertex -2.49747 1.373 2
    endloop
  endfacet
  facet normal -0.951054 0.309023 0
    outer loop
      vertex -2.76046 0.708766 -1.5
      vertex -2.64986 1.04915 2
      vertex -2.64986 1.04915 -1.5
    endloop
  endfacet
  facet normal -0.951054 0.309023 0
    outer loop
      vertex -2.64986 1.04915 2
      vertex -2.76046 0.708766 -1.5
      vertex -2.76046 0.708766 2
    endloop
  endfacet
  facet normal -0.481764 0.876301 0
    outer loop
      vertex -1.21347 2.57876 -1.5
      vertex -1.52711 2.40633 2
      vertex -1.21347 2.57876 2
    endloop
  endfacet
  facet normal -0.481764 0.876301 0
    outer loop
      vertex -1.52711 2.40633 2
      vertex -1.21347 2.57876 -1.5
      vertex -1.52711 2.40633 -1.5
    endloop
  endfacet
  facet normal -0.12534 0.992114 0
    outer loop
      vertex -0.178952 2.84438 -1.5
      vertex -0.534037 2.79952 2
      vertex -0.178952 2.84438 2
    endloop
  endfacet
  facet normal -0.12534 0.992114 0
    outer loop
      vertex -0.534037 2.79952 2
      vertex -0.178952 2.84438 -1.5
      vertex -0.534037 2.79952 -1.5
    endloop
  endfacet
  facet normal 0.998027 -0.0627818 0
    outer loop
      vertex 2.82753 -0.3572 2
      vertex 2.85 0 -1.5
      vertex 2.85 0 2
    endloop
  endfacet
  facet normal 0.998027 -0.0627818 0
    outer loop
      vertex 2.85 0 -1.5
      vertex 2.82753 -0.3572 2
      vertex 2.82753 -0.3572 -1.5
    endloop
  endfacet
  facet normal -0.248697 -0.968581 0
    outer loop
      vertex -0.880698 -2.71051 -1.5
      vertex -0.534037 -2.79952 2
      vertex -0.880698 -2.71051 2
    endloop
  endfacet
  facet normal -0.248697 -0.968581 -0
    outer loop
      vertex -0.534037 -2.79952 2
      vertex -0.880698 -2.71051 -1.5
      vertex -0.534037 -2.79952 -1.5
    endloop
  endfacet
  facet normal 0.12534 -0.992114 0
    outer loop
      vertex 0.178952 -2.84438 -1.5
      vertex 0.534037 -2.79952 2
      vertex 0.178952 -2.84438 2
    endloop
  endfacet
  facet normal 0.12534 -0.992114 0
    outer loop
      vertex 0.534037 -2.79952 2
      vertex 0.178952 -2.84438 -1.5
      vertex 0.534037 -2.79952 -1.5
    endloop
  endfacet
  facet normal 0.951054 0.309023 0
    outer loop
      vertex 2.76046 0.708766 2
      vertex 2.64986 1.04915 -1.5
      vertex 2.64986 1.04915 2
    endloop
  endfacet
  facet normal 0.951054 0.309023 0
    outer loop
      vertex 2.64986 1.04915 -1.5
      vertex 2.76046 0.708766 2
      vertex 2.76046 0.708766 -1.5
    endloop
  endfacet
  facet normal 0.770509 0.637429 0
    outer loop
      vertex 2.3057 1.67519 2
      vertex 2.07756 1.95096 -1.5
      vertex 2.07756 1.95096 2
    endloop
  endfacet
  facet normal 0.770509 0.637429 0
    outer loop
      vertex 2.07756 1.95096 -1.5
      vertex 2.3057 1.67519 2
      vertex 2.3057 1.67519 -1.5
    endloop
  endfacet
  facet normal 0.844335 0.535816 0
    outer loop
      vertex 2.49747 1.373 2
      vertex 2.3057 1.67519 -1.5
      vertex 2.3057 1.67519 2
    endloop
  endfacet
  facet normal 0.844335 0.535816 0
    outer loop
      vertex 2.3057 1.67519 -1.5
      vertex 2.49747 1.373 2
      vertex 2.49747 1.373 -1.5
    endloop
  endfacet
  facet normal 0.12534 0.992114 -0
    outer loop
      vertex 0.534037 2.79952 -1.5
      vertex 0.178952 2.84438 2
      vertex 0.534037 2.79952 2
    endloop
  endfacet
  facet normal 0.12534 0.992114 0
    outer loop
      vertex 0.178952 2.84438 2
      vertex 0.534037 2.79952 -1.5
      vertex 0.178952 2.84438 -1.5
    endloop
  endfacet
  facet normal 0.481764 0.876301 -0
    outer loop
      vertex 1.52711 2.40633 -1.5
      vertex 1.21347 2.57876 2
      vertex 1.52711 2.40633 2
    endloop
  endfacet
  facet normal 0.481764 0.876301 0
    outer loop
      vertex 1.21347 2.57876 2
      vertex 1.52711 2.40633 -1.5
      vertex 1.21347 2.57876 -1.5
    endloop
  endfacet
  facet normal -0.770509 0.637429 0
    outer loop
      vertex -2.3057 1.67519 -1.5
      vertex -2.07756 1.95096 2
      vertex -2.07756 1.95096 -1.5
    endloop
  endfacet
  facet normal -0.770509 0.637429 0
    outer loop
      vertex -2.07756 1.95096 2
      vertex -2.3057 1.67519 -1.5
      vertex -2.3057 1.67519 2
    endloop
  endfacet
  facet normal -0.982285 0.187395 0
    outer loop
      vertex -2.82753 0.3572 -1.5
      vertex -2.76046 0.708766 2
      vertex -2.76046 0.708766 -1.5
    endloop
  endfacet
  facet normal -0.982285 0.187395 0
    outer loop
      vertex -2.76046 0.708766 2
      vertex -2.82753 0.3572 -1.5
      vertex -2.82753 0.3572 2
    endloop
  endfacet
  facet normal -0.587785 0.809018 0
    outer loop
      vertex -1.52711 2.40633 -1.5
      vertex -1.81666 2.19596 2
      vertex -1.52711 2.40633 2
    endloop
  endfacet
  facet normal -0.587785 0.809018 0
    outer loop
      vertex -1.81666 2.19596 2
      vertex -1.52711 2.40633 -1.5
      vertex -1.81666 2.19596 -1.5
    endloop
  endfacet
  facet normal -0.248697 0.968581 0
    outer loop
      vertex -0.534037 2.79952 -1.5
      vertex -0.880698 2.71051 2
      vertex -0.534037 2.79952 2
    endloop
  endfacet
  facet normal -0.248697 0.968581 0
    outer loop
      vertex -0.880698 2.71051 2
      vertex -0.534037 2.79952 -1.5
      vertex -0.880698 2.71051 -1.5
    endloop
  endfacet
  facet normal 0.481764 -0.876301 0
    outer loop
      vertex 1.21347 -2.57876 -1.5
      vertex 1.52711 -2.40633 2
      vertex 1.21347 -2.57876 2
    endloop
  endfacet
  facet normal 0.481764 -0.876301 0
    outer loop
      vertex 1.52711 -2.40633 2
      vertex 1.21347 -2.57876 -1.5
      vertex 1.52711 -2.40633 -1.5
    endloop
  endfacet
  facet normal 0.844335 -0.535816 0
    outer loop
      vertex 2.3057 -1.67519 2
      vertex 2.49747 -1.373 -1.5
      vertex 2.49747 -1.373 2
    endloop
  endfacet
  facet normal 0.844335 -0.535816 0
    outer loop
      vertex 2.49747 -1.373 -1.5
      vertex 2.3057 -1.67519 2
      vertex 2.3057 -1.67519 -1.5
    endloop
  endfacet
  facet normal 0.982285 -0.187395 0
    outer loop
      vertex 2.76046 -0.708766 2
      vertex 2.82753 -0.3572 -1.5
      vertex 2.82753 -0.3572 2
    endloop
  endfacet
  facet normal 0.982285 -0.187395 0
    outer loop
      vertex 2.82753 -0.3572 -1.5
      vertex 2.76046 -0.708766 2
      vertex 2.76046 -0.708766 -1.5
    endloop
  endfacet
  facet normal -0.12534 -0.992114 0
    outer loop
      vertex -0.534037 -2.79952 -1.5
      vertex -0.178952 -2.84438 2
      vertex -0.534037 -2.79952 2
    endloop
  endfacet
  facet normal -0.12534 -0.992114 -0
    outer loop
      vertex -0.178952 -2.84438 2
      vertex -0.534037 -2.79952 -1.5
      vertex -0.178952 -2.84438 -1.5
    endloop
  endfacet
  facet normal -0.904829 -0.425774 0
    outer loop
      vertex -2.49747 -1.373 -1.5
      vertex -2.64986 -1.04915 2
      vertex -2.64986 -1.04915 -1.5
    endloop
  endfacet
  facet normal -0.904829 -0.425774 0
    outer loop
      vertex -2.64986 -1.04915 2
      vertex -2.49747 -1.373 -1.5
      vertex -2.49747 -1.373 2
    endloop
  endfacet
  facet normal -0.951054 -0.309023 0
    outer loop
      vertex -2.64986 -1.04915 -1.5
      vertex -2.76046 -0.708766 2
      vertex -2.76046 -0.708766 -1.5
    endloop
  endfacet
  facet normal -0.951054 -0.309023 0
    outer loop
      vertex -2.76046 -0.708766 2
      vertex -2.64986 -1.04915 -1.5
      vertex -2.64986 -1.04915 2
    endloop
  endfacet
  facet normal 0.368115 -0.92978 0
    outer loop
      vertex 0.880698 -2.71051 -1.5
      vertex 1.21347 -2.57876 2
      vertex 0.880698 -2.71051 2
    endloop
  endfacet
  facet normal 0.368115 -0.92978 0
    outer loop
      vertex 1.21347 -2.57876 2
      vertex 0.880698 -2.71051 -1.5
      vertex 1.21347 -2.57876 -1.5
    endloop
  endfacet
  facet normal 0.248697 -0.968581 0
    outer loop
      vertex 0.534037 -2.79952 -1.5
      vertex 0.880698 -2.71051 2
      vertex 0.534037 -2.79952 2
    endloop
  endfacet
  facet normal 0.248697 -0.968581 0
    outer loop
      vertex 0.880698 -2.71051 2
      vertex 0.534037 -2.79952 -1.5
      vertex 0.880698 -2.71051 -1.5
    endloop
  endfacet
  facet normal 0 0 1
    outer loop
      vertex 1.8 0 2
      vertex 2.85 0 2
      vertex 2.82753 0.3572 2
    endloop
  endfacet
  facet normal 0 0 1
    outer loop
      vertex 1.78581 0.225599 2
      vertex 2.82753 0.3572 2
      vertex 2.76046 0.708766 2
    endloop
  endfacet
  facet normal 0 0 1
    outer loop
      vertex 2.85 0 2
      vertex 1.8 0 2
      vertex 2.82753 -0.3572 2
    endloop
  endfacet
  facet normal 0 0 1
    outer loop
      vertex 1.74345 0.447641 2
      vertex 2.76046 0.708766 2
      vertex 2.64986 1.04915 2
    endloop
  endfacet
  facet normal -0 0 1
    outer loop
      vertex 1.78581 -0.225599 2
      vertex 2.82753 -0.3572 2
      vertex 1.8 0 2
    endloop
  endfacet
  facet normal 0 0 1
    outer loop
      vertex 1.6736 0.662623 2
      vertex 2.64986 1.04915 2
      vertex 2.49747 1.373 2
    endloop
  endfacet
  facet normal 0 0 1
    outer loop
      vertex 2.82753 -0.3572 2
      vertex 1.78581 -0.225599 2
      vertex 2.76046 -0.708766 2
    endloop
  endfacet
  facet normal 0 0 1
    outer loop
      vertex 1.57735 0.867156 2
      vertex 2.49747 1.373 2
      vertex 2.3057 1.67519 2
    endloop
  endfacet
  facet normal -0 0 1
    outer loop
      vertex 1.74345 -0.447641 2
      vertex 2.76046 -0.708766 2
      vertex 1.78581 -0.225599 2
    endloop
  endfacet
  facet normal 0 0 1
    outer loop
      vertex 1.45623 1.05801 2
      vertex 2.3057 1.67519 2
      vertex 2.07756 1.95096 2
    endloop
  endfacet
  facet normal 0 0 1
    outer loop
      vertex 2.76046 -0.708766 2
      vertex 1.74345 -0.447641 2
      vertex 2.64986 -1.04915 2
    endloop
  endfacet
  facet normal 0 0 1
    outer loop
      vertex 1.31214 1.23218 2
      vertex 2.07756 1.95096 2
      vertex 1.81666 2.19596 2
    endloop
  endfacet
  facet normal -0 0 1
    outer loop
      vertex 1.6736 -0.662623 2
      vertex 2.64986 -1.04915 2
      vertex 1.74345 -0.447641 2
    endloop
  endfacet
  facet normal 0 0 1
    outer loop
      vertex 2.64986 -1.04915 2
      vertex 1.6736 -0.662623 2
      vertex 2.49747 -1.373 2
    endloop
  endfacet
  facet normal 0 0 1
    outer loop
      vertex 2.82753 0.3572 2
      vertex 1.78581 0.225599 2
      vertex 1.8 0 2
    endloop
  endfacet
  facet normal 0 0 1
    outer loop
      vertex 2.76046 0.708766 2
      vertex 1.74345 0.447641 2
      vertex 1.78581 0.225599 2
    endloop
  endfacet
  facet normal 0 0 1
    outer loop
      vertex 2.64986 1.04915 2
      vertex 1.6736 0.662623 2
      vertex 1.74345 0.447641 2
    endloop
  endfacet
  facet normal 0 0 1
    outer loop
      vertex 2.49747 1.373 2
      vertex 1.57735 0.867156 2
      vertex 1.6736 0.662623 2
    endloop
  endfacet
  facet normal 0 0 1
    outer loop
      vertex 1.14736 1.38692 2
      vertex 1.81666 2.19596 2
      vertex 1.52711 2.40633 2
    endloop
  endfacet
  facet normal 0 0 1
    outer loop
      vertex 2.3057 1.67519 2
      vertex 1.45623 1.05801 2
      vertex 1.57735 0.867156 2
    endloop
  endfacet
  facet normal 0 0 1
    outer loop
      vertex 2.07756 1.95096 2
      vertex 1.31214 1.23218 2
      vertex 1.45623 1.05801 2
    endloop
  endfacet
  facet normal 0 0 1
    outer loop
      vertex 0.964488 1.51979 2
      vertex 1.52711 2.40633 2
      vertex 1.21347 2.57876 2
    endloop
  endfacet
  facet normal 0 0 1
    outer loop
      vertex 1.81666 2.19596 2
      vertex 1.14736 1.38692 2
      vertex 1.31214 1.23218 2
    endloop
  endfacet
  facet normal 0 0 1
    outer loop
      vertex 1.52711 2.40633 2
      vertex 0.964488 1.51979 2
      vertex 1.14736 1.38692 2
    endloop
  endfacet
  facet normal 0 0 1
    outer loop
      vertex 0.766402 1.62869 2
      vertex 1.21347 2.57876 2
      vertex 0.880698 2.71051 2
    endloop
  endfacet
  facet normal 0 0 1
    outer loop
      vertex 1.21347 2.57876 2
      vertex 0.766402 1.62869 2
      vertex 0.964488 1.51979 2
    endloop
  endfacet
  facet normal 0 0 1
    outer loop
      vertex 0.880698 2.71051 2
      vertex 0.556231 1.7119 2
      vertex 0.766402 1.62869 2
    endloop
  endfacet
  facet normal 0 0 1
    outer loop
      vertex 0.534037 2.79952 2
      vertex 0.556231 1.7119 2
      vertex 0.880698 2.71051 2
    endloop
  endfacet
  facet normal 0 0 1
    outer loop
      vertex 0.534037 2.79952 2
      vertex 0.337286 1.76812 2
      vertex 0.556231 1.7119 2
    endloop
  endfacet
  facet normal 0 0 1
    outer loop
      vertex 0.178952 2.84438 2
      vertex 0.337286 1.76812 2
      vertex 0.534037 2.79952 2
    endloop
  endfacet
  facet normal 0 0 1
    outer loop
      vertex 0.178952 2.84438 2
      vertex 0.113023 1.79645 2
      vertex 0.337286 1.76812 2
    endloop
  endfacet
  facet normal 0 0 1
    outer loop
      vertex 0.178952 2.84438 2
      vertex -0.113023 1.79645 2
      vertex 0.113023 1.79645 2
    endloop
  endfacet
  facet normal -0 0 1
    outer loop
      vertex -0.178952 2.84438 2
      vertex -0.113023 1.79645 2
      vertex 0.178952 2.84438 2
    endloop
  endfacet
  facet normal 0 0 1
    outer loop
      vertex -0.178952 2.84438 2
      vertex -0.337286 1.76812 2
      vertex -0.113023 1.79645 2
    endloop
  endfacet
  facet normal -0 0 1
    outer loop
      vertex -0.534037 2.79952 2
      vertex -0.337286 1.76812 2
      vertex -0.178952 2.84438 2
    endloop
  endfacet
  facet normal 0 0 1
    outer loop
      vertex -0.534037 2.79952 2
      vertex -0.556231 1.7119 2
      vertex -0.337286 1.76812 2
    endloop
  endfacet
  facet normal -0 0 1
    outer loop
      vertex -0.880698 2.71051 2
      vertex -0.556231 1.7119 2
      vertex -0.534037 2.79952 2
    endloop
  endfacet
  facet normal 0 0 1
    outer loop
      vertex -0.556231 1.7119 2
      vertex -0.880698 2.71051 2
      vertex -0.766402 1.62869 2
    endloop
  endfacet
  facet normal -0 0 1
    outer loop
      vertex -1.21347 2.57876 2
      vertex -0.766402 1.62869 2
      vertex -0.880698 2.71051 2
    endloop
  endfacet
  facet normal 0 0 1
    outer loop
      vertex -0.766402 1.62869 2
      vertex -1.21347 2.57876 2
      vertex -0.964488 1.51979 2
    endloop
  endfacet
  facet normal -0 0 1
    outer loop
      vertex -1.52711 2.40633 2
      vertex -0.964488 1.51979 2
      vertex -1.21347 2.57876 2
    endloop
  endfacet
  facet normal 0 0 1
    outer loop
      vertex -0.964488 1.51979 2
      vertex -1.52711 2.40633 2
      vertex -1.14736 1.38692 2
    endloop
  endfacet
  facet normal -0 0 1
    outer loop
      vertex -1.81666 2.19596 2
      vertex -1.14736 1.38692 2
      vertex -1.52711 2.40633 2
    endloop
  endfacet
  facet normal 0 0 1
    outer loop
      vertex -1.14736 1.38692 2
      vertex -1.81666 2.19596 2
      vertex -1.31214 1.23218 2
    endloop
  endfacet
  facet normal -0 0 1
    outer loop
      vertex -2.07756 1.95096 2
      vertex -1.31214 1.23218 2
      vertex -1.81666 2.19596 2
    endloop
  endfacet
  facet normal 0 0 1
    outer loop
      vertex -1.31214 1.23218 2
      vertex -2.07756 1.95096 2
      vertex -1.45623 1.05801 2
    endloop
  endfacet
  facet normal -0 0 1
    outer loop
      vertex -2.3057 1.67519 2
      vertex -1.45623 1.05801 2
      vertex -2.07756 1.95096 2
    endloop
  endfacet
  facet normal 0 0 1
    outer loop
      vertex -1.45623 1.05801 2
      vertex -2.3057 1.67519 2
      vertex -1.57735 0.867156 2
    endloop
  endfacet
  facet normal 0 0 1
    outer loop
      vertex -1.57735 0.867156 2
      vertex -2.49747 1.373 2
      vertex -1.6736 0.662623 2
    endloop
  endfacet
  facet normal -0 0 1
    outer loop
      vertex -2.49747 1.373 2
      vertex -1.57735 0.867156 2
      vertex -2.3057 1.67519 2
    endloop
  endfacet
  facet normal -0 0 1
    outer loop
      vertex 1.57735 -0.867156 2
      vertex 2.49747 -1.373 2
      vertex 1.6736 -0.662623 2
    endloop
  endfacet
  facet normal 0 0 1
    outer loop
      vertex 2.49747 -1.373 2
      vertex 1.57735 -0.867156 2
      vertex 2.3057 -1.67519 2
    endloop
  endfacet
  facet normal -0 0 1
    outer loop
      vertex 1.45623 -1.05801 2
      vertex 2.3057 -1.67519 2
      vertex 1.57735 -0.867156 2
    endloop
  endfacet
  facet normal 0 0 1
    outer loop
      vertex 2.3057 -1.67519 2
      vertex 1.45623 -1.05801 2
      vertex 2.07756 -1.95096 2
    endloop
  endfacet
  facet normal -0 0 1
    outer loop
      vertex 1.31214 -1.23218 2
      vertex 2.07756 -1.95096 2
      vertex 1.45623 -1.05801 2
    endloop
  endfacet
  facet normal 0 0 1
    outer loop
      vertex 2.07756 -1.95096 2
      vertex 1.31214 -1.23218 2
      vertex 1.81666 -2.19596 2
    endloop
  endfacet
  facet normal -0 0 1
    outer loop
      vertex 1.14736 -1.38692 2
      vertex 1.81666 -2.19596 2
      vertex 1.31214 -1.23218 2
    endloop
  endfacet
  facet normal 0 0 1
    outer loop
      vertex 1.81666 -2.19596 2
      vertex 1.14736 -1.38692 2
      vertex 1.52711 -2.40633 2
    endloop
  endfacet
  facet normal -0 0 1
    outer loop
      vertex 0.964488 -1.51979 2
      vertex 1.52711 -2.40633 2
      vertex 1.14736 -1.38692 2
    endloop
  endfacet
  facet normal 0 0 1
    outer loop
      vertex 1.52711 -2.40633 2
      vertex 0.964488 -1.51979 2
      vertex 1.21347 -2.57876 2
    endloop
  endfacet
  facet normal -0 0 1
    outer loop
      vertex 0.766402 -1.62869 2
      vertex 1.21347 -2.57876 2
      vertex 0.964488 -1.51979 2
    endloop
  endfacet
  facet normal 0 0 1
    outer loop
      vertex 1.21347 -2.57876 2
      vertex 0.766402 -1.62869 2
      vertex 0.880698 -2.71051 2
    endloop
  endfacet
  facet normal -0 0 1
    outer loop
      vertex 0.556231 -1.7119 2
      vertex 0.880698 -2.71051 2
      vertex 0.766402 -1.62869 2
    endloop
  endfacet
  facet normal 0 0 1
    outer loop
      vertex 0.556231 -1.7119 2
      vertex 0.534037 -2.79952 2
      vertex 0.880698 -2.71051 2
    endloop
  endfacet
  facet normal -0 0 1
    outer loop
      vertex 0.337286 -1.76812 2
      vertex 0.534037 -2.79952 2
      vertex 0.556231 -1.7119 2
    endloop
  endfacet
  facet normal 0 0 1
    outer loop
      vertex 0.337286 -1.76812 2
      vertex 0.178952 -2.84438 2
      vertex 0.534037 -2.79952 2
    endloop
  endfacet
  facet normal -0 0 1
    outer loop
      vertex 0.113023 -1.79645 2
      vertex 0.178952 -2.84438 2
      vertex 0.337286 -1.76812 2
    endloop
  endfacet
  facet normal -0 0 1
    outer loop
      vertex -0.113023 -1.79645 2
      vertex 0.178952 -2.84438 2
      vertex 0.113023 -1.79645 2
    endloop
  endfacet
  facet normal 0 0 1
    outer loop
      vertex -0.113023 -1.79645 2
      vertex -0.178952 -2.84438 2
      vertex 0.178952 -2.84438 2
    endloop
  endfacet
  facet normal 0 0 1
    outer loop
      vertex -0.337286 -1.76812 2
      vertex -0.178952 -2.84438 2
      vertex -0.113023 -1.79645 2
    endloop
  endfacet
  facet normal 0 0 1
    outer loop
      vertex -0.337286 -1.76812 2
      vertex -0.534037 -2.79952 2
      vertex -0.178952 -2.84438 2
    endloop
  endfacet
  facet normal 0 0 1
    outer loop
      vertex -0.556231 -1.7119 2
      vertex -0.534037 -2.79952 2
      vertex -0.337286 -1.76812 2
    endloop
  endfacet
  facet normal 0 0 1
    outer loop
      vertex -0.880698 -2.71051 2
      vertex -0.556231 -1.7119 2
      vertex -0.766402 -1.62869 2
    endloop
  endfacet
  facet normal 0 0 1
    outer loop
      vertex -0.556231 -1.7119 2
      vertex -0.880698 -2.71051 2
      vertex -0.534037 -2.79952 2
    endloop
  endfacet
  facet normal 0 0 1
    outer loop
      vertex -1.21347 -2.57876 2
      vertex -0.766402 -1.62869 2
      vertex -0.964488 -1.51979 2
    endloop
  endfacet
  facet normal 0 0 1
    outer loop
      vertex -1.52711 -2.40633 2
      vertex -0.964488 -1.51979 2
      vertex -1.14736 -1.38692 2
    endloop
  endfacet
  facet normal 0 0 1
    outer loop
      vertex -0.766402 -1.62869 2
      vertex -1.21347 -2.57876 2
      vertex -0.880698 -2.71051 2
    endloop
  endfacet
  facet normal 0 0 1
    outer loop
      vertex -1.81666 -2.19596 2
      vertex -1.14736 -1.38692 2
      vertex -1.31214 -1.23218 2
    endloop
  endfacet
  facet normal 0 0 1
    outer loop
      vertex -2.07756 -1.95096 2
      vertex -1.31214 -1.23218 2
      vertex -1.45623 -1.05801 2
    endloop
  endfacet
  facet normal 0 0 1
    outer loop
      vertex -0.964488 -1.51979 2
      vertex -1.52711 -2.40633 2
      vertex -1.21347 -2.57876 2
    endloop
  endfacet
  facet normal 0 0 1
    outer loop
      vertex -2.3057 -1.67519 2
      vertex -1.45623 -1.05801 2
      vertex -1.57735 -0.867156 2
    endloop
  endfacet
  facet normal 0 0 1
    outer loop
      vertex -2.49747 -1.373 2
      vertex -1.57735 -0.867156 2
      vertex -1.6736 -0.662623 2
    endloop
  endfacet
  facet normal 0 0 1
    outer loop
      vertex -2.64986 -1.04915 2
      vertex -1.6736 -0.662623 2
      vertex -1.74345 -0.447641 2
    endloop
  endfacet
  facet normal 0 0 1
    outer loop
      vertex -2.76046 -0.708766 2
      vertex -1.74345 -0.447641 2
      vertex -1.78581 -0.225599 2
    endloop
  endfacet
  facet normal 0 0 1
    outer loop
      vertex -1.14736 -1.38692 2
      vertex -1.81666 -2.19596 2
      vertex -1.52711 -2.40633 2
    endloop
  endfacet
  facet normal 0 0 1
    outer loop
      vertex -2.82753 -0.3572 2
      vertex -1.78581 -0.225599 2
      vertex -1.8 0 2
    endloop
  endfacet
  facet normal -0 0 1
    outer loop
      vertex -2.64986 1.04915 2
      vertex -1.6736 0.662623 2
      vertex -2.49747 1.373 2
    endloop
  endfacet
  facet normal 0 0 1
    outer loop
      vertex -1.6736 0.662623 2
      vertex -2.64986 1.04915 2
      vertex -1.74345 0.447641 2
    endloop
  endfacet
  facet normal 0 0 1
    outer loop
      vertex -1.31214 -1.23218 2
      vertex -2.07756 -1.95096 2
      vertex -1.81666 -2.19596 2
    endloop
  endfacet
  facet normal -0 0 1
    outer loop
      vertex -2.76046 0.708766 2
      vertex -1.74345 0.447641 2
      vertex -2.64986 1.04915 2
    endloop
  endfacet
  facet normal 0 0 1
    outer loop
      vertex -1.45623 -1.05801 2
      vertex -2.3057 -1.67519 2
      vertex -2.07756 -1.95096 2
    endloop
  endfacet
  facet normal 0 0 1
    outer loop
      vertex -1.74345 0.447641 2
      vertex -2.76046 0.708766 2
      vertex -1.78581 0.225599 2
    endloop
  endfacet
  facet normal 0 0 1
    outer loop
      vertex -1.57735 -0.867156 2
      vertex -2.49747 -1.373 2
      vertex -2.3057 -1.67519 2
    endloop
  endfacet
  facet normal -0 0 1
    outer loop
      vertex -2.82753 0.3572 2
      vertex -1.78581 0.225599 2
      vertex -2.76046 0.708766 2
    endloop
  endfacet
  facet normal 0 0 1
    outer loop
      vertex -1.6736 -0.662623 2
      vertex -2.64986 -1.04915 2
      vertex -2.49747 -1.373 2
    endloop
  endfacet
  facet normal 0 0 1
    outer loop
      vertex -1.78581 0.225599 2
      vertex -2.82753 0.3572 2
      vertex -1.8 0 2
    endloop
  endfacet
  facet normal 0 0 1
    outer loop
      vertex -1.74345 -0.447641 2
      vertex -2.76046 -0.708766 2
      vertex -2.64986 -1.04915 2
    endloop
  endfacet
  facet normal 0 0 1
    outer loop
      vertex -2.85 0 2
      vertex -1.8 0 2
      vertex -2.82753 0.3572 2
    endloop
  endfacet
  facet normal 0 0 1
    outer loop
      vertex -1.78581 -0.225599 2
      vertex -2.82753 -0.3572 2
      vertex -2.76046 -0.708766 2
    endloop
  endfacet
  facet normal 0 0 1
    outer loop
      vertex -1.8 0 2
      vertex -2.85 0 2
      vertex -2.82753 -0.3572 2
    endloop
  endfacet
  facet normal 0.904829 -0.425774 0
    outer loop
      vertex 2.49747 -1.373 2
      vertex 2.64986 -1.04915 -1.5
      vertex 2.64986 -1.04915 2
    endloop
  endfacet
  facet normal 0.904829 -0.425774 0
    outer loop
      vertex 2.64986 -1.04915 -1.5
      vertex 2.49747 -1.373 2
      vertex 2.49747 -1.373 -1.5
    endloop
  endfacet
  facet normal -0.368115 -0.92978 0
    outer loop
      vertex -1.21347 -2.57876 -1.5
      vertex -0.880698 -2.71051 2
      vertex -1.21347 -2.57876 2
    endloop
  endfacet
  facet normal -0.368115 -0.92978 -0
    outer loop
      vertex -0.880698 -2.71051 2
      vertex -1.21347 -2.57876 -1.5
      vertex -0.880698 -2.71051 -1.5
    endloop
  endfacet
  facet normal -0.998027 -0.0627818 0
    outer loop
      vertex -2.82753 -0.3572 -1.5
      vertex -2.85 0 2
      vertex -2.85 0 -1.5
    endloop
  endfacet
  facet normal -0.998027 -0.0627818 0
    outer loop
      vertex -2.85 0 2
      vertex -2.82753 -0.3572 -1.5
      vertex -2.82753 -0.3572 2
    endloop
  endfacet
  facet normal 0.587785 -0.809018 0
    outer loop
      vertex 1.52711 -2.40633 -1.5
      vertex 1.81666 -2.19596 2
      vertex 1.52711 -2.40633 2
    endloop
  endfacet
  facet normal 0.587785 -0.809018 0
    outer loop
      vertex 1.81666 -2.19596 2
      vertex 1.52711 -2.40633 -1.5
      vertex 1.81666 -2.19596 -1.5
    endloop
  endfacet
  facet normal 0.951054 -0.309023 0
    outer loop
      vertex 2.64986 -1.04915 2
      vertex 2.76046 -0.708766 -1.5
      vertex 2.76046 -0.708766 2
    endloop
  endfacet
  facet normal 0.951054 -0.309023 0
    outer loop
      vertex 2.76046 -0.708766 -1.5
      vertex 2.64986 -1.04915 2
      vertex 2.64986 -1.04915 -1.5
    endloop
  endfacet
  facet normal 0 -1 0
    outer loop
      vertex -0.178952 -2.84438 -1.5
      vertex 0.178952 -2.84438 2
      vertex -0.178952 -2.84438 2
    endloop
  endfacet
  facet normal 0 -1 -0
    outer loop
      vertex 0.178952 -2.84438 2
      vertex -0.178952 -2.84438 -1.5
      vertex 0.178952 -2.84438 -1.5
    endloop
  endfacet
  facet normal -0.481764 -0.876301 0
    outer loop
      vertex -1.52711 -2.40633 -1.5
      vertex -1.21347 -2.57876 2
      vertex -1.52711 -2.40633 2
    endloop
  endfacet
  facet normal -0.481764 -0.876301 -0
    outer loop
      vertex -1.21347 -2.57876 2
      vertex -1.52711 -2.40633 -1.5
      vertex -1.21347 -2.57876 -1.5
    endloop
  endfacet
  facet normal -0.770509 -0.637429 0
    outer loop
      vertex -2.07756 -1.95096 -1.5
      vertex -2.3057 -1.67519 2
      vertex -2.3057 -1.67519 -1.5
    endloop
  endfacet
  facet normal -0.770509 -0.637429 0
    outer loop
      vertex -2.3057 -1.67519 2
      vertex -2.07756 -1.95096 -1.5
      vertex -2.07756 -1.95096 2
    endloop
  endfacet
  facet normal -0.844335 -0.535816 0
    outer loop
      vertex -2.3057 -1.67519 -1.5
      vertex -2.49747 -1.373 2
      vertex -2.49747 -1.373 -1.5
    endloop
  endfacet
  facet normal -0.844335 -0.535816 0
    outer loop
      vertex -2.49747 -1.373 2
      vertex -2.3057 -1.67519 -1.5
      vertex -2.3057 -1.67519 2
    endloop
  endfacet
  facet normal -0.982285 -0.187395 0
    outer loop
      vertex -2.76046 -0.708766 -1.5
      vertex -2.82753 -0.3572 2
      vertex -2.82753 -0.3572 -1.5
    endloop
  endfacet
  facet normal -0.982285 -0.187395 0
    outer loop
      vertex -2.82753 -0.3572 2
      vertex -2.76046 -0.708766 -1.5
      vertex -2.76046 -0.708766 2
    endloop
  endfacet
  facet normal 0.684545 -0.728971 0
    outer loop
      vertex 1.81666 -2.19596 -1.5
      vertex 2.07756 -1.95096 2
      vertex 1.81666 -2.19596 2
    endloop
  endfacet
  facet normal 0.684545 -0.728971 0
    outer loop
      vertex 2.07756 -1.95096 2
      vertex 1.81666 -2.19596 -1.5
      vertex 2.07756 -1.95096 -1.5
    endloop
  endfacet
  facet normal -0.684545 -0.728971 0
    outer loop
      vertex -2.07756 -1.95096 -1.5
      vertex -1.81666 -2.19596 2
      vertex -2.07756 -1.95096 2
    endloop
  endfacet
  facet normal -0.684545 -0.728971 -0
    outer loop
      vertex -1.81666 -2.19596 2
      vertex -2.07756 -1.95096 -1.5
      vertex -1.81666 -2.19596 -1.5
    endloop
  endfacet
  facet normal -0.587785 -0.809018 0
    outer loop
      vertex -1.81666 -2.19596 -1.5
      vertex -1.52711 -2.40633 2
      vertex -1.81666 -2.19596 2
    endloop
  endfacet
  facet normal -0.587785 -0.809018 -0
    outer loop
      vertex -1.52711 -2.40633 2
      vertex -1.81666 -2.19596 -1.5
      vertex -1.52711 -2.40633 -1.5
    endloop
  endfacet
  facet normal 0.951059 -0.309009 0
    outer loop
      vertex -1.74345 0.447641 2
      vertex -1.6736 0.662623 -1.5
      vertex -1.6736 0.662623 2
    endloop
  endfacet
  facet normal 0.951059 -0.309009 0
    outer loop
      vertex -1.6736 0.662623 -1.5
      vertex -1.74345 0.447641 2
      vertex -1.74345 0.447641 -1.5
    endloop
  endfacet
  facet normal -0.844327 -0.535828 0
    outer loop
      vertex 1.57735 0.867156 -1.5
      vertex 1.45623 1.05801 2
      vertex 1.45623 1.05801 -1.5
    endloop
  endfacet
  facet normal -0.844327 -0.535828 0
    outer loop
      vertex 1.45623 1.05801 2
      vertex 1.57735 0.867156 -1.5
      vertex 1.57735 0.867156 2
    endloop
  endfacet
  facet normal -0.368115 -0.92978 0
    outer loop
      vertex 0.556231 1.7119 -1.5
      vertex 0.766402 1.62869 2
      vertex 0.556231 1.7119 2
    endloop
  endfacet
  facet normal -0.368115 -0.92978 -0
    outer loop
      vertex 0.766402 1.62869 2
      vertex 0.556231 1.7119 -1.5
      vertex 0.766402 1.62869 -1.5
    endloop
  endfacet
  facet normal 0.368115 -0.92978 0
    outer loop
      vertex -0.766402 1.62869 -1.5
      vertex -0.556231 1.7119 2
      vertex -0.766402 1.62869 2
    endloop
  endfacet
  facet normal 0.368115 -0.92978 0
    outer loop
      vertex -0.556231 1.7119 2
      vertex -0.766402 1.62869 -1.5
      vertex -0.556231 1.7119 -1.5
    endloop
  endfacet
  facet normal 0.90482 -0.425794 0
    outer loop
      vertex -1.6736 0.662623 2
      vertex -1.57735 0.867156 -1.5
      vertex -1.57735 0.867156 2
    endloop
  endfacet
  facet normal 0.90482 -0.425794 0
    outer loop
      vertex -1.57735 0.867156 -1.5
      vertex -1.6736 0.662623 2
      vertex -1.6736 0.662623 -1.5
    endloop
  endfacet
  facet normal -0.982285 0.187395 0
    outer loop
      vertex 1.74345 -0.447641 -1.5
      vertex 1.78581 -0.225599 2
      vertex 1.78581 -0.225599 -1.5
    endloop
  endfacet
  facet normal -0.982285 0.187395 0
    outer loop
      vertex 1.78581 -0.225599 2
      vertex 1.74345 -0.447641 -1.5
      vertex 1.74345 -0.447641 2
    endloop
  endfacet
  facet normal -0.982285 -0.187395 0
    outer loop
      vertex 1.78581 0.225599 -1.5
      vertex 1.74345 0.447641 2
      vertex 1.74345 0.447641 -1.5
    endloop
  endfacet
  facet normal -0.982285 -0.187395 0
    outer loop
      vertex 1.74345 0.447641 2
      vertex 1.78581 0.225599 -1.5
      vertex 1.78581 0.225599 2
    endloop
  endfacet
  facet normal -0.68455 -0.728966 0
    outer loop
      vertex 1.14736 1.38692 -1.5
      vertex 1.31214 1.23218 2
      vertex 1.14736 1.38692 2
    endloop
  endfacet
  facet normal -0.68455 -0.728966 -0
    outer loop
      vertex 1.31214 1.23218 2
      vertex 1.14736 1.38692 -1.5
      vertex 1.31214 1.23218 -1.5
    endloop
  endfacet
  facet normal -0.587802 -0.809005 0
    outer loop
      vertex 0.964488 1.51979 -1.5
      vertex 1.14736 1.38692 2
      vertex 0.964488 1.51979 2
    endloop
  endfacet
  facet normal -0.587802 -0.809005 -0
    outer loop
      vertex 1.14736 1.38692 2
      vertex 0.964488 1.51979 -1.5
      vertex 1.14736 1.38692 -1.5
    endloop
  endfacet
  facet normal 0.770504 -0.637435 0
    outer loop
      vertex -1.45623 1.05801 2
      vertex -1.31214 1.23218 -1.5
      vertex -1.31214 1.23218 2
    endloop
  endfacet
  facet normal 0.770504 -0.637435 0
    outer loop
      vertex -1.31214 1.23218 -1.5
      vertex -1.45623 1.05801 2
      vertex -1.45623 1.05801 -1.5
    endloop
  endfacet
  facet normal 0.248708 -0.968578 0
    outer loop
      vertex -0.556231 1.7119 -1.5
      vertex -0.337286 1.76812 2
      vertex -0.556231 1.7119 2
    endloop
  endfacet
  facet normal 0.248708 -0.968578 0
    outer loop
      vertex -0.337286 1.76812 2
      vertex -0.556231 1.7119 -1.5
      vertex -0.337286 1.76812 -1.5
    endloop
  endfacet
  facet normal 0.68455 -0.728966 0
    outer loop
      vertex -1.31214 1.23218 -1.5
      vertex -1.14736 1.38692 2
      vertex -1.31214 1.23218 2
    endloop
  endfacet
  facet normal 0.68455 -0.728966 0
    outer loop
      vertex -1.14736 1.38692 2
      vertex -1.31214 1.23218 -1.5
      vertex -1.14736 1.38692 -1.5
    endloop
  endfacet
  facet normal -0.998028 -0.0627752 0
    outer loop
      vertex 1.8 0 -1.5
      vertex 1.78581 0.225599 2
      vertex 1.78581 0.225599 -1.5
    endloop
  endfacet
  facet normal -0.998028 -0.0627752 0
    outer loop
      vertex 1.78581 0.225599 2
      vertex 1.8 0 -1.5
      vertex 1.8 0 2
    endloop
  endfacet
  facet normal -0.770504 -0.637435 0
    outer loop
      vertex 1.45623 1.05801 -1.5
      vertex 1.31214 1.23218 2
      vertex 1.31214 1.23218 -1.5
    endloop
  endfacet
  facet normal -0.770504 -0.637435 0
    outer loop
      vertex 1.31214 1.23218 2
      vertex 1.45623 1.05801 -1.5
      vertex 1.45623 1.05801 2
    endloop
  endfacet
  facet normal 0 -1 0
    outer loop
      vertex -0.113023 1.79645 -1.5
      vertex 0.113023 1.79645 2
      vertex -0.113023 1.79645 2
    endloop
  endfacet
  facet normal 0 -1 -0
    outer loop
      vertex 0.113023 1.79645 2
      vertex -0.113023 1.79645 -1.5
      vertex 0.113023 1.79645 -1.5
    endloop
  endfacet
  facet normal -0.248708 -0.968578 0
    outer loop
      vertex 0.337286 1.76812 -1.5
      vertex 0.556231 1.7119 2
      vertex 0.337286 1.76812 2
    endloop
  endfacet
  facet normal -0.248708 -0.968578 -0
    outer loop
      vertex 0.556231 1.7119 2
      vertex 0.337286 1.76812 -1.5
      vertex 0.556231 1.7119 -1.5
    endloop
  endfacet
  facet normal -0.481758 -0.876304 0
    outer loop
      vertex 0.766402 1.62869 -1.5
      vertex 0.964488 1.51979 2
      vertex 0.766402 1.62869 2
    endloop
  endfacet
  facet normal -0.481758 -0.876304 -0
    outer loop
      vertex 0.964488 1.51979 2
      vertex 0.766402 1.62869 -1.5
      vertex 0.964488 1.51979 -1.5
    endloop
  endfacet
  facet normal 0.998028 -0.0627752 0
    outer loop
      vertex -1.8 0 2
      vertex -1.78581 0.225599 -1.5
      vertex -1.78581 0.225599 2
    endloop
  endfacet
  facet normal 0.998028 -0.0627752 0
    outer loop
      vertex -1.78581 0.225599 -1.5
      vertex -1.8 0 2
      vertex -1.8 0 -1.5
    endloop
  endfacet
  facet normal 0.844327 -0.535828 0
    outer loop
      vertex -1.57735 0.867156 2
      vertex -1.45623 1.05801 -1.5
      vertex -1.45623 1.05801 2
    endloop
  endfacet
  facet normal 0.844327 -0.535828 0
    outer loop
      vertex -1.45623 1.05801 -1.5
      vertex -1.57735 0.867156 2
      vertex -1.57735 0.867156 -1.5
    endloop
  endfacet
  facet normal 0.125329 -0.992115 0
    outer loop
      vertex -0.337286 1.76812 -1.5
      vertex -0.113023 1.79645 2
      vertex -0.337286 1.76812 2
    endloop
  endfacet
  facet normal 0.125329 -0.992115 0
    outer loop
      vertex -0.113023 1.79645 2
      vertex -0.337286 1.76812 -1.5
      vertex -0.113023 1.79645 -1.5
    endloop
  endfacet
  facet normal 0.587802 -0.809005 0
    outer loop
      vertex -1.14736 1.38692 -1.5
      vertex -0.964488 1.51979 2
      vertex -1.14736 1.38692 2
    endloop
  endfacet
  facet normal 0.587802 -0.809005 0
    outer loop
      vertex -0.964488 1.51979 2
      vertex -1.14736 1.38692 -1.5
      vertex -0.964488 1.51979 -1.5
    endloop
  endfacet
  facet normal 0.481758 -0.876304 0
    outer loop
      vertex -0.964488 1.51979 -1.5
      vertex -0.766402 1.62869 2
      vertex -0.964488 1.51979 2
    endloop
  endfacet
  facet normal 0.481758 -0.876304 0
    outer loop
      vertex -0.766402 1.62869 2
      vertex -0.964488 1.51979 -1.5
      vertex -0.766402 1.62869 -1.5
    endloop
  endfacet
  facet normal -0.998028 0.0627752 0
    outer loop
      vertex 1.78581 -0.225599 -1.5
      vertex 1.8 0 2
      vertex 1.8 0 -1.5
    endloop
  endfacet
  facet normal -0.998028 0.0627752 0
    outer loop
      vertex 1.8 0 2
      vertex 1.78581 -0.225599 -1.5
      vertex 1.78581 -0.225599 2
    endloop
  endfacet
  facet normal 0.90482 0.425794 0
    outer loop
      vertex -1.57735 -0.867156 2
      vertex -1.6736 -0.662623 -1.5
      vertex -1.6736 -0.662623 2
    endloop
  endfacet
  facet normal 0.90482 0.425794 0
    outer loop
      vertex -1.6736 -0.662623 -1.5
      vertex -1.57735 -0.867156 2
      vertex -1.57735 -0.867156 -1.5
    endloop
  endfacet
  facet normal -0.125329 0.992115 0
    outer loop
      vertex 0.337286 -1.76812 -1.5
      vertex 0.113023 -1.79645 2
      vertex 0.337286 -1.76812 2
    endloop
  endfacet
  facet normal -0.125329 0.992115 0
    outer loop
      vertex 0.113023 -1.79645 2
      vertex 0.337286 -1.76812 -1.5
      vertex 0.113023 -1.79645 -1.5
    endloop
  endfacet
  facet normal -0.90482 -0.425794 0
    outer loop
      vertex 1.6736 0.662623 -1.5
      vertex 1.57735 0.867156 2
      vertex 1.57735 0.867156 -1.5
    endloop
  endfacet
  facet normal -0.90482 -0.425794 0
    outer loop
      vertex 1.57735 0.867156 2
      vertex 1.6736 0.662623 -1.5
      vertex 1.6736 0.662623 2
    endloop
  endfacet
  facet normal -0.951059 -0.309009 0
    outer loop
      vertex 1.74345 0.447641 -1.5
      vertex 1.6736 0.662623 2
      vertex 1.6736 0.662623 -1.5
    endloop
  endfacet
  facet normal -0.951059 -0.309009 0
    outer loop
      vertex 1.6736 0.662623 2
      vertex 1.74345 0.447641 -1.5
      vertex 1.74345 0.447641 2
    endloop
  endfacet
  facet normal -0.125329 -0.992115 0
    outer loop
      vertex 0.113023 1.79645 -1.5
      vertex 0.337286 1.76812 2
      vertex 0.113023 1.79645 2
    endloop
  endfacet
  facet normal -0.125329 -0.992115 -0
    outer loop
      vertex 0.337286 1.76812 2
      vertex 0.113023 1.79645 -1.5
      vertex 0.337286 1.76812 -1.5
    endloop
  endfacet
  facet normal 0.982285 -0.187395 0
    outer loop
      vertex -1.78581 0.225599 2
      vertex -1.74345 0.447641 -1.5
      vertex -1.74345 0.447641 2
    endloop
  endfacet
  facet normal 0.982285 -0.187395 0
    outer loop
      vertex -1.74345 0.447641 -1.5
      vertex -1.78581 0.225599 2
      vertex -1.78581 0.225599 -1.5
    endloop
  endfacet
  facet normal -0.90482 0.425794 0
    outer loop
      vertex 1.57735 -0.867156 -1.5
      vertex 1.6736 -0.662623 2
      vertex 1.6736 -0.662623 -1.5
    endloop
  endfacet
  facet normal -0.90482 0.425794 0
    outer loop
      vertex 1.6736 -0.662623 2
      vertex 1.57735 -0.867156 -1.5
      vertex 1.57735 -0.867156 2
    endloop
  endfacet
  facet normal -0.951059 0.309009 0
    outer loop
      vertex 1.6736 -0.662623 -1.5
      vertex 1.74345 -0.447641 2
      vertex 1.74345 -0.447641 -1.5
    endloop
  endfacet
  facet normal -0.951059 0.309009 0
    outer loop
      vertex 1.74345 -0.447641 2
      vertex 1.6736 -0.662623 -1.5
      vertex 1.6736 -0.662623 2
    endloop
  endfacet
  facet normal -0.68455 0.728966 0
    outer loop
      vertex 1.31214 -1.23218 -1.5
      vertex 1.14736 -1.38692 2
      vertex 1.31214 -1.23218 2
    endloop
  endfacet
  facet normal -0.68455 0.728966 0
    outer loop
      vertex 1.14736 -1.38692 2
      vertex 1.31214 -1.23218 -1.5
      vertex 1.14736 -1.38692 -1.5
    endloop
  endfacet
  facet normal -0.770504 0.637435 0
    outer loop
      vertex 1.31214 -1.23218 -1.5
      vertex 1.45623 -1.05801 2
      vertex 1.45623 -1.05801 -1.5
    endloop
  endfacet
  facet normal -0.770504 0.637435 0
    outer loop
      vertex 1.45623 -1.05801 2
      vertex 1.31214 -1.23218 -1.5
      vertex 1.31214 -1.23218 2
    endloop
  endfacet
  facet normal -0.844327 0.535828 0
    outer loop
      vertex 1.45623 -1.05801 -1.5
      vertex 1.57735 -0.867156 2
      vertex 1.57735 -0.867156 -1.5
    endloop
  endfacet
  facet normal -0.844327 0.535828 0
    outer loop
      vertex 1.57735 -0.867156 2
      vertex 1.45623 -1.05801 -1.5
      vertex 1.45623 -1.05801 2
    endloop
  endfacet
  facet normal 0.248708 0.968578 -0
    outer loop
      vertex -0.337286 -1.76812 -1.5
      vertex -0.556231 -1.7119 2
      vertex -0.337286 -1.76812 2
    endloop
  endfacet
  facet normal 0.248708 0.968578 0
    outer loop
      vertex -0.556231 -1.7119 2
      vertex -0.337286 -1.76812 -1.5
      vertex -0.556231 -1.7119 -1.5
    endloop
  endfacet
  facet normal 0.998028 0.0627752 0
    outer loop
      vertex -1.78581 -0.225599 2
      vertex -1.8 0 -1.5
      vertex -1.8 0 2
    endloop
  endfacet
  facet normal 0.998028 0.0627752 0
    outer loop
      vertex -1.8 0 -1.5
      vertex -1.78581 -0.225599 2
      vertex -1.78581 -0.225599 -1.5
    endloop
  endfacet
  facet normal 0.770504 0.637435 0
    outer loop
      vertex -1.31214 -1.23218 2
      vertex -1.45623 -1.05801 -1.5
      vertex -1.45623 -1.05801 2
    endloop
  endfacet
  facet normal 0.770504 0.637435 0
    outer loop
      vertex -1.45623 -1.05801 -1.5
      vertex -1.31214 -1.23218 2
      vertex -1.31214 -1.23218 -1.5
    endloop
  endfacet
  facet normal 0.951059 0.309009 0
    outer loop
      vertex -1.6736 -0.662623 2
      vertex -1.74345 -0.447641 -1.5
      vertex -1.74345 -0.447641 2
    endloop
  endfacet
  facet normal 0.951059 0.309009 0
    outer loop
      vertex -1.74345 -0.447641 -1.5
      vertex -1.6736 -0.662623 2
      vertex -1.6736 -0.662623 -1.5
    endloop
  endfacet
  facet normal -0.368115 0.92978 0
    outer loop
      vertex 0.766402 -1.62869 -1.5
      vertex 0.556231 -1.7119 2
      vertex 0.766402 -1.62869 2
    endloop
  endfacet
  facet normal -0.368115 0.92978 0
    outer loop
      vertex 0.556231 -1.7119 2
      vertex 0.766402 -1.62869 -1.5
      vertex 0.556231 -1.7119 -1.5
    endloop
  endfacet
  facet normal -0.248708 0.968578 0
    outer loop
      vertex 0.556231 -1.7119 -1.5
      vertex 0.337286 -1.76812 2
      vertex 0.556231 -1.7119 2
    endloop
  endfacet
  facet normal -0.248708 0.968578 0
    outer loop
      vertex 0.337286 -1.76812 2
      vertex 0.556231 -1.7119 -1.5
      vertex 0.337286 -1.76812 -1.5
    endloop
  endfacet
  facet normal -0.587802 0.809005 0
    outer loop
      vertex 1.14736 -1.38692 -1.5
      vertex 0.964488 -1.51979 2
      vertex 1.14736 -1.38692 2
    endloop
  endfacet
  facet normal -0.587802 0.809005 0
    outer loop
      vertex 0.964488 -1.51979 2
      vertex 1.14736 -1.38692 -1.5
      vertex 0.964488 -1.51979 -1.5
    endloop
  endfacet
  facet normal -0.481758 0.876304 0
    outer loop
      vertex 0.964488 -1.51979 -1.5
      vertex 0.766402 -1.62869 2
      vertex 0.964488 -1.51979 2
    endloop
  endfacet
  facet normal -0.481758 0.876304 0
    outer loop
      vertex 0.766402 -1.62869 2
      vertex 0.964488 -1.51979 -1.5
      vertex 0.766402 -1.62869 -1.5
    endloop
  endfacet
  facet normal 0.587802 0.809005 -0
    outer loop
      vertex -0.964488 -1.51979 -1.5
      vertex -1.14736 -1.38692 2
      vertex -0.964488 -1.51979 2
    endloop
  endfacet
  facet normal 0.587802 0.809005 0
    outer loop
      vertex -1.14736 -1.38692 2
      vertex -0.964488 -1.51979 -1.5
      vertex -1.14736 -1.38692 -1.5
    endloop
  endfacet
  facet normal 0.481758 0.876304 -0
    outer loop
      vertex -0.766402 -1.62869 -1.5
      vertex -0.964488 -1.51979 2
      vertex -0.766402 -1.62869 2
    endloop
  endfacet
  facet normal 0.481758 0.876304 0
    outer loop
      vertex -0.964488 -1.51979 2
      vertex -0.766402 -1.62869 -1.5
      vertex -0.964488 -1.51979 -1.5
    endloop
  endfacet
  facet normal 0 1 -0
    outer loop
      vertex 0.113023 -1.79645 -1.5
      vertex -0.113023 -1.79645 2
      vertex 0.113023 -1.79645 2
    endloop
  endfacet
  facet normal 0 1 0
    outer loop
      vertex -0.113023 -1.79645 2
      vertex 0.113023 -1.79645 -1.5
      vertex -0.113023 -1.79645 -1.5
    endloop
  endfacet
  facet normal 0.844327 0.535828 0
    outer loop
      vertex -1.45623 -1.05801 2
      vertex -1.57735 -0.867156 -1.5
      vertex -1.57735 -0.867156 2
    endloop
  endfacet
  facet normal 0.844327 0.535828 0
    outer loop
      vertex -1.57735 -0.867156 -1.5
      vertex -1.45623 -1.05801 2
      vertex -1.45623 -1.05801 -1.5
    endloop
  endfacet
  facet normal 0.68455 0.728966 -0
    outer loop
      vertex -1.14736 -1.38692 -1.5
      vertex -1.31214 -1.23218 2
      vertex -1.14736 -1.38692 2
    endloop
  endfacet
  facet normal 0.68455 0.728966 0
    outer loop
      vertex -1.31214 -1.23218 2
      vertex -1.14736 -1.38692 -1.5
      vertex -1.31214 -1.23218 -1.5
    endloop
  endfacet
  facet normal 0.982285 0.187395 0
    outer loop
      vertex -1.74345 -0.447641 2
      vertex -1.78581 -0.225599 -1.5
      vertex -1.78581 -0.225599 2
    endloop
  endfacet
  facet normal 0.982285 0.187395 0
    outer loop
      vertex -1.78581 -0.225599 -1.5
      vertex -1.74345 -0.447641 2
      vertex -1.74345 -0.447641 -1.5
    endloop
  endfacet
  facet normal 0.368115 0.92978 -0
    outer loop
      vertex -0.556231 -1.7119 -1.5
      vertex -0.766402 -1.62869 2
      vertex -0.556231 -1.7119 2
    endloop
  endfacet
  facet normal 0.368115 0.92978 0
    outer loop
      vertex -0.766402 -1.62869 2
      vertex -0.556231 -1.7119 -1.5
      vertex -0.766402 -1.62869 -1.5
    endloop
  endfacet
  facet normal 0.125329 0.992115 -0
    outer loop
      vertex -0.113023 -1.79645 -1.5
      vertex -0.337286 -1.76812 2
      vertex -0.113023 -1.79645 2
    endloop
  endfacet
  facet normal 0.125329 0.992115 0
    outer loop
      vertex -0.337286 -1.76812 2
      vertex -0.113023 -1.79645 -1.5
      vertex -0.337286 -1.76812 -1.5
    endloop
  endfacet
endsolid OpenSCAD_Model
