solid OpenSCAD_Model
  facet normal 0.998027 0.0627801 0
    outer loop
      vertex 36.2 0 9
      vertex 35.9146 4.53706 0
      vertex 35.9146 4.53706 9
    endloop
  endfacet
  facet normal 0.998027 0.0627801 0
    outer loop
      vertex 35.9146 4.53706 0
      vertex 36.2 0 9
      vertex 36.2 0 0
    endloop
  endfacet
  facet normal -0.998027 0.0627801 0
    outer loop
      vertex -36.2 0 0
      vertex -35.9146 4.53706 9
      vertex -35.9146 4.53706 0
    endloop
  endfacet
  facet normal -0.998027 0.0627801 0
    outer loop
      vertex -35.9146 4.53706 9
      vertex -36.2 0 0
      vertex -36.2 0 9
    endloop
  endfacet
  facet normal 0 1 -0
    outer loop
      vertex 2.27302 36.1286 0
      vertex -2.27302 36.1286 9
      vertex 2.27302 36.1286 9
    endloop
  endfacet
  facet normal 0 1 0
    outer loop
      vertex -2.27302 36.1286 9
      vertex 2.27302 36.1286 0
      vertex -2.27302 36.1286 0
    endloop
  endfacet
  facet normal 0 -1 0
    outer loop
      vertex -2.27302 -36.1286 0
      vertex 2.27302 -36.1286 9
      vertex -2.27302 -36.1286 9
    endloop
  endfacet
  facet normal 0 -1 -0
    outer loop
      vertex 2.27302 -36.1286 9
      vertex -2.27302 -36.1286 0
      vertex 2.27302 -36.1286 0
    endloop
  endfacet
  facet normal 0.684541 0.728974 -0
    outer loop
      vertex 26.3887 24.7806 0
      vertex 23.0747 27.8926 9
      vertex 26.3887 24.7806 9
    endloop
  endfacet
  facet normal 0.684541 0.728974 0
    outer loop
      vertex 23.0747 27.8926 9
      vertex 26.3887 24.7806 0
      vertex 23.0747 27.8926 0
    endloop
  endfacet
  facet normal -0.684541 0.728974 0
    outer loop
      vertex -23.0747 27.8926 0
      vertex -26.3887 24.7806 9
      vertex -23.0747 27.8926 9
    endloop
  endfacet
  facet normal -0.684541 0.728974 0
    outer loop
      vertex -26.3887 24.7806 9
      vertex -23.0747 27.8926 0
      vertex -26.3887 24.7806 0
    endloop
  endfacet
  facet normal -0.368123 0.929777 0
    outer loop
      vertex -11.1864 34.4282 0
      vertex -15.4132 32.7547 9
      vertex -11.1864 34.4282 9
    endloop
  endfacet
  facet normal -0.368123 0.929777 0
    outer loop
      vertex -15.4132 32.7547 9
      vertex -11.1864 34.4282 0
      vertex -15.4132 32.7547 0
    endloop
  endfacet
  facet normal 0.904829 0.425776 0
    outer loop
      vertex 33.6579 13.3261 9
      vertex 31.7223 17.4395 0
      vertex 31.7223 17.4395 9
    endloop
  endfacet
  facet normal 0.904829 0.425776 0
    outer loop
      vertex 31.7223 17.4395 0
      vertex 33.6579 13.3261 9
      vertex 33.6579 13.3261 0
    endloop
  endfacet
  facet normal 0.844324 0.535833 0
    outer loop
      vertex 31.7223 17.4395 9
      vertex 29.2864 21.2778 0
      vertex 29.2864 21.2778 9
    endloop
  endfacet
  facet normal 0.844324 0.535833 0
    outer loop
      vertex 29.2864 21.2778 0
      vertex 31.7223 17.4395 9
      vertex 31.7223 17.4395 0
    endloop
  endfacet
  facet normal 0.368123 0.929777 -0
    outer loop
      vertex 15.4132 32.7547 0
      vertex 11.1864 34.4282 9
      vertex 15.4132 32.7547 9
    endloop
  endfacet
  facet normal 0.368123 0.929777 0
    outer loop
      vertex 11.1864 34.4282 9
      vertex 15.4132 32.7547 0
      vertex 11.1864 34.4282 0
    endloop
  endfacet
  facet normal 0.2487 0.96858 -0
    outer loop
      vertex 11.1864 34.4282 0
      vertex 6.7832 35.5588 9
      vertex 11.1864 34.4282 9
    endloop
  endfacet
  facet normal 0.2487 0.96858 0
    outer loop
      vertex 6.7832 35.5588 9
      vertex 11.1864 34.4282 0
      vertex 6.7832 35.5588 0
    endloop
  endfacet
  facet normal 0.587788 0.809015 -0
    outer loop
      vertex 23.0747 27.8926 0
      vertex 19.3969 30.5647 9
      vertex 23.0747 27.8926 9
    endloop
  endfacet
  facet normal 0.587788 0.809015 0
    outer loop
      vertex 19.3969 30.5647 9
      vertex 23.0747 27.8926 0
      vertex 19.3969 30.5647 0
    endloop
  endfacet
  facet normal -0.904829 0.425776 0
    outer loop
      vertex -33.6579 13.3261 0
      vertex -31.7223 17.4395 9
      vertex -31.7223 17.4395 0
    endloop
  endfacet
  facet normal -0.904829 0.425776 0
    outer loop
      vertex -31.7223 17.4395 9
      vertex -33.6579 13.3261 0
      vertex -33.6579 13.3261 9
    endloop
  endfacet
  facet normal 0 0 1
    outer loop
      vertex 27.5 0 9
      vertex 36.2 0 9
      vertex 35.9146 4.53706 9
    endloop
  endfacet
  facet normal 0 0 1
    outer loop
      vertex 27.2832 3.44666 9
      vertex 35.9146 4.53706 9
      vertex 35.0627 9.00257 9
    endloop
  endfacet
  facet normal 0 0 1
    outer loop
      vertex 36.2 0 9
      vertex 27.5 0 9
      vertex 35.9146 -4.53706 9
    endloop
  endfacet
  facet normal 0 0 1
    outer loop
      vertex 26.636 6.83897 9
      vertex 35.0627 9.00257 9
      vertex 33.6579 13.3261 9
    endloop
  endfacet
  facet normal -0 0 1
    outer loop
      vertex 27.2832 -3.44666 9
      vertex 35.9146 -4.53706 9
      vertex 27.5 0 9
    endloop
  endfacet
  facet normal 0 0 1
    outer loop
      vertex 25.5689 10.1234 9
      vertex 33.6579 13.3261 9
      vertex 31.7223 17.4395 9
    endloop
  endfacet
  facet normal 0 0 1
    outer loop
      vertex 35.9146 -4.53706 9
      vertex 27.2832 -3.44666 9
      vertex 35.0627 -9.00257 9
    endloop
  endfacet
  facet normal 0 0 1
    outer loop
      vertex 24.0984 13.2482 9
      vertex 31.7223 17.4395 9
      vertex 29.2864 21.2778 9
    endloop
  endfacet
  facet normal -0 0 1
    outer loop
      vertex 26.636 -6.83897 9
      vertex 35.0627 -9.00257 9
      vertex 27.2832 -3.44666 9
    endloop
  endfacet
  facet normal 0 0 1
    outer loop
      vertex 35.0627 -9.00257 9
      vertex 26.636 -6.83897 9
      vertex 33.6579 -13.3261 9
    endloop
  endfacet
  facet normal 0 0 1
    outer loop
      vertex 35.9146 4.53706 9
      vertex 27.2832 3.44666 9
      vertex 27.5 0 9
    endloop
  endfacet
  facet normal 0 0 1
    outer loop
      vertex 35.0627 9.00257 9
      vertex 26.636 6.83897 9
      vertex 27.2832 3.44666 9
    endloop
  endfacet
  facet normal 0 0 1
    outer loop
      vertex 22.248 16.1641 9
      vertex 29.2864 21.2778 9
      vertex 26.3887 24.7806 9
    endloop
  endfacet
  facet normal 0 0 1
    outer loop
      vertex 33.6579 13.3261 9
      vertex 25.5689 10.1234 9
      vertex 26.636 6.83897 9
    endloop
  endfacet
  facet normal 0 0 1
    outer loop
      vertex 31.7223 17.4395 9
      vertex 24.0984 13.2482 9
      vertex 25.5689 10.1234 9
    endloop
  endfacet
  facet normal 0 0 1
    outer loop
      vertex 20.0466 18.825 9
      vertex 26.3887 24.7806 9
      vertex 23.0747 27.8926 9
    endloop
  endfacet
  facet normal 0 0 1
    outer loop
      vertex 29.2864 21.2778 9
      vertex 22.248 16.1641 9
      vertex 24.0984 13.2482 9
    endloop
  endfacet
  facet normal 0 0 1
    outer loop
      vertex 26.3887 24.7806 9
      vertex 20.0466 18.825 9
      vertex 22.248 16.1641 9
    endloop
  endfacet
  facet normal 0 0 1
    outer loop
      vertex 17.5292 21.1891 9
      vertex 23.0747 27.8926 9
      vertex 19.3969 30.5647 9
    endloop
  endfacet
  facet normal 0 0 1
    outer loop
      vertex 23.0747 27.8926 9
      vertex 17.5292 21.1891 9
      vertex 20.0466 18.825 9
    endloop
  endfacet
  facet normal 0 0 1
    outer loop
      vertex 14.7352 23.219 9
      vertex 19.3969 30.5647 9
      vertex 15.4132 32.7547 9
    endloop
  endfacet
  facet normal 0 0 1
    outer loop
      vertex 19.3969 30.5647 9
      vertex 14.7352 23.219 9
      vertex 17.5292 21.1891 9
    endloop
  endfacet
  facet normal 0 0 1
    outer loop
      vertex 15.4132 32.7547 9
      vertex 11.7089 24.8827 9
      vertex 14.7352 23.219 9
    endloop
  endfacet
  facet normal 0 0 1
    outer loop
      vertex 11.1864 34.4282 9
      vertex 11.7089 24.8827 9
      vertex 15.4132 32.7547 9
    endloop
  endfacet
  facet normal 0 0 1
    outer loop
      vertex 11.1864 34.4282 9
      vertex 8.49797 26.1541 9
      vertex 11.7089 24.8827 9
    endloop
  endfacet
  facet normal 0 0 1
    outer loop
      vertex 6.7832 35.5588 9
      vertex 8.49797 26.1541 9
      vertex 11.1864 34.4282 9
    endloop
  endfacet
  facet normal 0 0 1
    outer loop
      vertex 6.7832 35.5588 9
      vertex 5.15299 27.0129 9
      vertex 8.49797 26.1541 9
    endloop
  endfacet
  facet normal 0 0 1
    outer loop
      vertex 2.27302 36.1286 9
      vertex 5.15299 27.0129 9
      vertex 6.7832 35.5588 9
    endloop
  endfacet
  facet normal 0 0 1
    outer loop
      vertex 2.27302 36.1286 9
      vertex 1.72674 27.4457 9
      vertex 5.15299 27.0129 9
    endloop
  endfacet
  facet normal 0 0 1
    outer loop
      vertex 2.27302 36.1286 9
      vertex -1.72674 27.4457 9
      vertex 1.72674 27.4457 9
    endloop
  endfacet
  facet normal -0 0 1
    outer loop
      vertex -2.27302 36.1286 9
      vertex -1.72674 27.4457 9
      vertex 2.27302 36.1286 9
    endloop
  endfacet
  facet normal 0 0 1
    outer loop
      vertex -2.27302 36.1286 9
      vertex -5.15299 27.0129 9
      vertex -1.72674 27.4457 9
    endloop
  endfacet
  facet normal -0 0 1
    outer loop
      vertex -6.7832 35.5588 9
      vertex -5.15299 27.0129 9
      vertex -2.27302 36.1286 9
    endloop
  endfacet
  facet normal 0 0 1
    outer loop
      vertex -6.7832 35.5588 9
      vertex -8.49797 26.1541 9
      vertex -5.15299 27.0129 9
    endloop
  endfacet
  facet normal -0 0 1
    outer loop
      vertex -11.1864 34.4282 9
      vertex -8.49797 26.1541 9
      vertex -6.7832 35.5588 9
    endloop
  endfacet
  facet normal 0 0 1
    outer loop
      vertex -11.1864 34.4282 9
      vertex -11.7089 24.8827 9
      vertex -8.49797 26.1541 9
    endloop
  endfacet
  facet normal -0 0 1
    outer loop
      vertex -15.4132 32.7547 9
      vertex -11.7089 24.8827 9
      vertex -11.1864 34.4282 9
    endloop
  endfacet
  facet normal 0 0 1
    outer loop
      vertex -11.7089 24.8827 9
      vertex -15.4132 32.7547 9
      vertex -14.7352 23.219 9
    endloop
  endfacet
  facet normal -0 0 1
    outer loop
      vertex -19.3969 30.5647 9
      vertex -14.7352 23.219 9
      vertex -15.4132 32.7547 9
    endloop
  endfacet
  facet normal 0 0 1
    outer loop
      vertex -14.7352 23.219 9
      vertex -19.3969 30.5647 9
      vertex -17.5292 21.1891 9
    endloop
  endfacet
  facet normal -0 0 1
    outer loop
      vertex -23.0747 27.8926 9
      vertex -17.5292 21.1891 9
      vertex -19.3969 30.5647 9
    endloop
  endfacet
  facet normal 0 0 1
    outer loop
      vertex -17.5292 21.1891 9
      vertex -23.0747 27.8926 9
      vertex -20.0466 18.825 9
    endloop
  endfacet
  facet normal -0 0 1
    outer loop
      vertex -26.3887 24.7806 9
      vertex -20.0466 18.825 9
      vertex -23.0747 27.8926 9
    endloop
  endfacet
  facet normal 0 0 1
    outer loop
      vertex -20.0466 18.825 9
      vertex -26.3887 24.7806 9
      vertex -22.248 16.1641 9
    endloop
  endfacet
  facet normal -0 0 1
    outer loop
      vertex -29.2864 21.2778 9
      vertex -22.248 16.1641 9
      vertex -26.3887 24.7806 9
    endloop
  endfacet
  facet normal 0 0 1
    outer loop
      vertex -22.248 16.1641 9
      vertex -29.2864 21.2778 9
      vertex -24.0984 13.2482 9
    endloop
  endfacet
  facet normal -0 0 1
    outer loop
      vertex -31.7223 17.4395 9
      vertex -24.0984 13.2482 9
      vertex -29.2864 21.2778 9
    endloop
  endfacet
  facet normal 0 0 1
    outer loop
      vertex -24.0984 13.2482 9
      vertex -31.7223 17.4395 9
      vertex -25.5689 10.1234 9
    endloop
  endfacet
  facet normal -0 0 1
    outer loop
      vertex -33.6579 13.3261 9
      vertex -25.5689 10.1234 9
      vertex -31.7223 17.4395 9
    endloop
  endfacet
  facet normal 0 0 1
    outer loop
      vertex -25.5689 10.1234 9
      vertex -33.6579 13.3261 9
      vertex -26.636 6.83897 9
    endloop
  endfacet
  facet normal -0 0 1
    outer loop
      vertex 25.5689 -10.1234 9
      vertex 33.6579 -13.3261 9
      vertex 26.636 -6.83897 9
    endloop
  endfacet
  facet normal 0 0 1
    outer loop
      vertex 33.6579 -13.3261 9
      vertex 25.5689 -10.1234 9
      vertex 31.7223 -17.4395 9
    endloop
  endfacet
  facet normal -0 0 1
    outer loop
      vertex 24.0984 -13.2482 9
      vertex 31.7223 -17.4395 9
      vertex 25.5689 -10.1234 9
    endloop
  endfacet
  facet normal 0 0 1
    outer loop
      vertex 31.7223 -17.4395 9
      vertex 24.0984 -13.2482 9
      vertex 29.2864 -21.2778 9
    endloop
  endfacet
  facet normal -0 0 1
    outer loop
      vertex 22.248 -16.1641 9
      vertex 29.2864 -21.2778 9
      vertex 24.0984 -13.2482 9
    endloop
  endfacet
  facet normal 0 0 1
    outer loop
      vertex 29.2864 -21.2778 9
      vertex 22.248 -16.1641 9
      vertex 26.3887 -24.7806 9
    endloop
  endfacet
  facet normal -0 0 1
    outer loop
      vertex 20.0466 -18.825 9
      vertex 26.3887 -24.7806 9
      vertex 22.248 -16.1641 9
    endloop
  endfacet
  facet normal 0 0 1
    outer loop
      vertex 26.3887 -24.7806 9
      vertex 20.0466 -18.825 9
      vertex 23.0747 -27.8926 9
    endloop
  endfacet
  facet normal -0 0 1
    outer loop
      vertex 17.5292 -21.1891 9
      vertex 23.0747 -27.8926 9
      vertex 20.0466 -18.825 9
    endloop
  endfacet
  facet normal 0 0 1
    outer loop
      vertex 23.0747 -27.8926 9
      vertex 17.5292 -21.1891 9
      vertex 19.3969 -30.5647 9
    endloop
  endfacet
  facet normal -0 0 1
    outer loop
      vertex 14.7352 -23.219 9
      vertex 19.3969 -30.5647 9
      vertex 17.5292 -21.1891 9
    endloop
  endfacet
  facet normal 0 0 1
    outer loop
      vertex 19.3969 -30.5647 9
      vertex 14.7352 -23.219 9
      vertex 15.4132 -32.7547 9
    endloop
  endfacet
  facet normal -0 0 1
    outer loop
      vertex 11.7089 -24.8827 9
      vertex 15.4132 -32.7547 9
      vertex 14.7352 -23.219 9
    endloop
  endfacet
  facet normal 0 0 1
    outer loop
      vertex 11.7089 -24.8827 9
      vertex 11.1864 -34.4282 9
      vertex 15.4132 -32.7547 9
    endloop
  endfacet
  facet normal -0 0 1
    outer loop
      vertex 8.49797 -26.1541 9
      vertex 11.1864 -34.4282 9
      vertex 11.7089 -24.8827 9
    endloop
  endfacet
  facet normal 0 0 1
    outer loop
      vertex 8.49797 -26.1541 9
      vertex 6.7832 -35.5588 9
      vertex 11.1864 -34.4282 9
    endloop
  endfacet
  facet normal -0 0 1
    outer loop
      vertex 5.15299 -27.0129 9
      vertex 6.7832 -35.5588 9
      vertex 8.49797 -26.1541 9
    endloop
  endfacet
  facet normal 0 0 1
    outer loop
      vertex 5.15299 -27.0129 9
      vertex 2.27302 -36.1286 9
      vertex 6.7832 -35.5588 9
    endloop
  endfacet
  facet normal -0 0 1
    outer loop
      vertex 1.72674 -27.4457 9
      vertex 2.27302 -36.1286 9
      vertex 5.15299 -27.0129 9
    endloop
  endfacet
  facet normal -0 0 1
    outer loop
      vertex -1.72674 -27.4457 9
      vertex 2.27302 -36.1286 9
      vertex 1.72674 -27.4457 9
    endloop
  endfacet
  facet normal 0 0 1
    outer loop
      vertex -1.72674 -27.4457 9
      vertex -2.27302 -36.1286 9
      vertex 2.27302 -36.1286 9
    endloop
  endfacet
  facet normal 0 0 1
    outer loop
      vertex -5.15299 -27.0129 9
      vertex -2.27302 -36.1286 9
      vertex -1.72674 -27.4457 9
    endloop
  endfacet
  facet normal 0 0 1
    outer loop
      vertex -5.15299 -27.0129 9
      vertex -6.7832 -35.5588 9
      vertex -2.27302 -36.1286 9
    endloop
  endfacet
  facet normal 0 0 1
    outer loop
      vertex -8.49797 -26.1541 9
      vertex -6.7832 -35.5588 9
      vertex -5.15299 -27.0129 9
    endloop
  endfacet
  facet normal 0 0 1
    outer loop
      vertex -8.49797 -26.1541 9
      vertex -11.1864 -34.4282 9
      vertex -6.7832 -35.5588 9
    endloop
  endfacet
  facet normal 0 0 1
    outer loop
      vertex -11.7089 -24.8827 9
      vertex -11.1864 -34.4282 9
      vertex -8.49797 -26.1541 9
    endloop
  endfacet
  facet normal 0 0 1
    outer loop
      vertex -15.4132 -32.7547 9
      vertex -11.7089 -24.8827 9
      vertex -14.7352 -23.219 9
    endloop
  endfacet
  facet normal 0 0 1
    outer loop
      vertex -11.7089 -24.8827 9
      vertex -15.4132 -32.7547 9
      vertex -11.1864 -34.4282 9
    endloop
  endfacet
  facet normal 0 0 1
    outer loop
      vertex -19.3969 -30.5647 9
      vertex -14.7352 -23.219 9
      vertex -17.5292 -21.1891 9
    endloop
  endfacet
  facet normal 0 0 1
    outer loop
      vertex -14.7352 -23.219 9
      vertex -19.3969 -30.5647 9
      vertex -15.4132 -32.7547 9
    endloop
  endfacet
  facet normal 0 0 1
    outer loop
      vertex -23.0747 -27.8926 9
      vertex -17.5292 -21.1891 9
      vertex -20.0466 -18.825 9
    endloop
  endfacet
  facet normal 0 0 1
    outer loop
      vertex -26.3887 -24.7806 9
      vertex -20.0466 -18.825 9
      vertex -22.248 -16.1641 9
    endloop
  endfacet
  facet normal 0 0 1
    outer loop
      vertex -17.5292 -21.1891 9
      vertex -23.0747 -27.8926 9
      vertex -19.3969 -30.5647 9
    endloop
  endfacet
  facet normal 0 0 1
    outer loop
      vertex -29.2864 -21.2778 9
      vertex -22.248 -16.1641 9
      vertex -24.0984 -13.2482 9
    endloop
  endfacet
  facet normal 0 0 1
    outer loop
      vertex -31.7223 -17.4395 9
      vertex -24.0984 -13.2482 9
      vertex -25.5689 -10.1234 9
    endloop
  endfacet
  facet normal 0 0 1
    outer loop
      vertex -20.0466 -18.825 9
      vertex -26.3887 -24.7806 9
      vertex -23.0747 -27.8926 9
    endloop
  endfacet
  facet normal 0 0 1
    outer loop
      vertex -33.6579 -13.3261 9
      vertex -25.5689 -10.1234 9
      vertex -26.636 -6.83897 9
    endloop
  endfacet
  facet normal 0 0 1
    outer loop
      vertex -35.0627 -9.00257 9
      vertex -26.636 -6.83897 9
      vertex -27.2832 -3.44666 9
    endloop
  endfacet
  facet normal 0 0 1
    outer loop
      vertex -35.9146 -4.53706 9
      vertex -27.2832 -3.44666 9
      vertex -27.5 0 9
    endloop
  endfacet
  facet normal -0 0 1
    outer loop
      vertex -35.0627 9.00257 9
      vertex -26.636 6.83897 9
      vertex -33.6579 13.3261 9
    endloop
  endfacet
  facet normal 0 0 1
    outer loop
      vertex -22.248 -16.1641 9
      vertex -29.2864 -21.2778 9
      vertex -26.3887 -24.7806 9
    endloop
  endfacet
  facet normal 0 0 1
    outer loop
      vertex -26.636 6.83897 9
      vertex -35.0627 9.00257 9
      vertex -27.2832 3.44666 9
    endloop
  endfacet
  facet normal 0 0 1
    outer loop
      vertex -24.0984 -13.2482 9
      vertex -31.7223 -17.4395 9
      vertex -29.2864 -21.2778 9
    endloop
  endfacet
  facet normal -0 0 1
    outer loop
      vertex -35.9146 4.53706 9
      vertex -27.2832 3.44666 9
      vertex -35.0627 9.00257 9
    endloop
  endfacet
  facet normal 0 0 1
    outer loop
      vertex -25.5689 -10.1234 9
      vertex -33.6579 -13.3261 9
      vertex -31.7223 -17.4395 9
    endloop
  endfacet
  facet normal 0 0 1
    outer loop
      vertex -27.2832 3.44666 9
      vertex -35.9146 4.53706 9
      vertex -27.5 0 9
    endloop
  endfacet
  facet normal 0 0 1
    outer loop
      vertex -26.636 -6.83897 9
      vertex -35.0627 -9.00257 9
      vertex -33.6579 -13.3261 9
    endloop
  endfacet
  facet normal 0 0 1
    outer loop
      vertex -36.2 0 9
      vertex -27.5 0 9
      vertex -35.9146 4.53706 9
    endloop
  endfacet
  facet normal 0 0 1
    outer loop
      vertex -27.2832 -3.44666 9
      vertex -35.9146 -4.53706 9
      vertex -35.0627 -9.00257 9
    endloop
  endfacet
  facet normal 0 0 1
    outer loop
      vertex -27.5 0 9
      vertex -36.2 0 9
      vertex -35.9146 -4.53706 9
    endloop
  endfacet
  facet normal -0.481744 0.876312 0
    outer loop
      vertex -15.4132 32.7547 0
      vertex -19.3969 30.5647 9
      vertex -15.4132 32.7547 9
    endloop
  endfacet
  facet normal -0.481744 0.876312 0
    outer loop
      vertex -19.3969 30.5647 9
      vertex -15.4132 32.7547 0
      vertex -19.3969 30.5647 0
    endloop
  endfacet
  facet normal -0.2487 0.96858 0
    outer loop
      vertex -6.7832 35.5588 0
      vertex -11.1864 34.4282 9
      vertex -6.7832 35.5588 9
    endloop
  endfacet
  facet normal -0.2487 0.96858 0
    outer loop
      vertex -11.1864 34.4282 9
      vertex -6.7832 35.5588 0
      vertex -11.1864 34.4282 0
    endloop
  endfacet
  facet normal -0.951057 -0.309017 0
    outer loop
      vertex -33.6579 -13.3261 0
      vertex -35.0627 -9.00257 9
      vertex -35.0627 -9.00257 0
    endloop
  endfacet
  facet normal -0.951057 -0.309017 0
    outer loop
      vertex -35.0627 -9.00257 9
      vertex -33.6579 -13.3261 0
      vertex -33.6579 -13.3261 9
    endloop
  endfacet
  facet normal 0.12534 -0.992114 0
    outer loop
      vertex 2.27302 -36.1286 0
      vertex 6.7832 -35.5588 9
      vertex 2.27302 -36.1286 9
    endloop
  endfacet
  facet normal 0.12534 -0.992114 0
    outer loop
      vertex 6.7832 -35.5588 9
      vertex 2.27302 -36.1286 0
      vertex 6.7832 -35.5588 0
    endloop
  endfacet
  facet normal 0.368123 -0.929777 0
    outer loop
      vertex 11.1864 -34.4282 0
      vertex 15.4132 -32.7547 9
      vertex 11.1864 -34.4282 9
    endloop
  endfacet
  facet normal 0.368123 -0.929777 0
    outer loop
      vertex 15.4132 -32.7547 9
      vertex 11.1864 -34.4282 0
      vertex 15.4132 -32.7547 0
    endloop
  endfacet
  facet normal 0.951057 0.309017 0
    outer loop
      vertex 35.0627 9.00257 9
      vertex 33.6579 13.3261 0
      vertex 33.6579 13.3261 9
    endloop
  endfacet
  facet normal 0.951057 0.309017 0
    outer loop
      vertex 33.6579 13.3261 0
      vertex 35.0627 9.00257 9
      vertex 35.0627 9.00257 0
    endloop
  endfacet
  facet normal 0.982285 0.187394 0
    outer loop
      vertex 35.9146 4.53706 9
      vertex 35.0627 9.00257 0
      vertex 35.0627 9.00257 9
    endloop
  endfacet
  facet normal 0.982285 0.187394 0
    outer loop
      vertex 35.0627 9.00257 0
      vertex 35.9146 4.53706 9
      vertex 35.9146 4.53706 0
    endloop
  endfacet
  facet normal 0.770521 0.637415 0
    outer loop
      vertex 29.2864 21.2778 9
      vertex 26.3887 24.7806 0
      vertex 26.3887 24.7806 9
    endloop
  endfacet
  facet normal 0.770521 0.637415 0
    outer loop
      vertex 26.3887 24.7806 0
      vertex 29.2864 21.2778 9
      vertex 29.2864 21.2778 0
    endloop
  endfacet
  facet normal 0.12534 0.992114 -0
    outer loop
      vertex 6.7832 35.5588 0
      vertex 2.27302 36.1286 9
      vertex 6.7832 35.5588 9
    endloop
  endfacet
  facet normal 0.12534 0.992114 0
    outer loop
      vertex 2.27302 36.1286 9
      vertex 6.7832 35.5588 0
      vertex 2.27302 36.1286 0
    endloop
  endfacet
  facet normal 0.481744 0.876312 -0
    outer loop
      vertex 19.3969 30.5647 0
      vertex 15.4132 32.7547 9
      vertex 19.3969 30.5647 9
    endloop
  endfacet
  facet normal 0.481744 0.876312 0
    outer loop
      vertex 15.4132 32.7547 9
      vertex 19.3969 30.5647 0
      vertex 15.4132 32.7547 0
    endloop
  endfacet
  facet normal -0.844324 0.535833 0
    outer loop
      vertex -31.7223 17.4395 0
      vertex -29.2864 21.2778 9
      vertex -29.2864 21.2778 0
    endloop
  endfacet
  facet normal -0.844324 0.535833 0
    outer loop
      vertex -29.2864 21.2778 9
      vertex -31.7223 17.4395 0
      vertex -31.7223 17.4395 9
    endloop
  endfacet
  facet normal -0.770521 0.637415 0
    outer loop
      vertex -29.2864 21.2778 0
      vertex -26.3887 24.7806 9
      vertex -26.3887 24.7806 0
    endloop
  endfacet
  facet normal -0.770521 0.637415 0
    outer loop
      vertex -26.3887 24.7806 9
      vertex -29.2864 21.2778 0
      vertex -29.2864 21.2778 9
    endloop
  endfacet
  facet normal -0.951057 0.309017 0
    outer loop
      vertex -35.0627 9.00257 0
      vertex -33.6579 13.3261 9
      vertex -33.6579 13.3261 0
    endloop
  endfacet
  facet normal -0.951057 0.309017 0
    outer loop
      vertex -33.6579 13.3261 9
      vertex -35.0627 9.00257 0
      vertex -35.0627 9.00257 9
    endloop
  endfacet
  facet normal -0.982285 0.187394 0
    outer loop
      vertex -35.9146 4.53706 0
      vertex -35.0627 9.00257 9
      vertex -35.0627 9.00257 0
    endloop
  endfacet
  facet normal -0.982285 0.187394 0
    outer loop
      vertex -35.0627 9.00257 9
      vertex -35.9146 4.53706 0
      vertex -35.9146 4.53706 9
    endloop
  endfacet
  facet normal -0.587788 0.809015 0
    outer loop
      vertex -19.3969 30.5647 0
      vertex -23.0747 27.8926 9
      vertex -19.3969 30.5647 9
    endloop
  endfacet
  facet normal -0.587788 0.809015 0
    outer loop
      vertex -23.0747 27.8926 9
      vertex -19.3969 30.5647 0
      vertex -23.0747 27.8926 0
    endloop
  endfacet
  facet normal -0.12534 0.992114 0
    outer loop
      vertex -2.27302 36.1286 0
      vertex -6.7832 35.5588 9
      vertex -2.27302 36.1286 9
    endloop
  endfacet
  facet normal -0.12534 0.992114 0
    outer loop
      vertex -6.7832 35.5588 9
      vertex -2.27302 36.1286 0
      vertex -6.7832 35.5588 0
    endloop
  endfacet
  facet normal 0.998027 -0.0627801 0
    outer loop
      vertex 35.9146 -4.53706 9
      vertex 36.2 0 0
      vertex 36.2 0 9
    endloop
  endfacet
  facet normal 0.998027 -0.0627801 0
    outer loop
      vertex 36.2 0 0
      vertex 35.9146 -4.53706 9
      vertex 35.9146 -4.53706 0
    endloop
  endfacet
  facet normal 0.684541 -0.728974 0
    outer loop
      vertex 23.0747 -27.8926 0
      vertex 26.3887 -24.7806 9
      vertex 23.0747 -27.8926 9
    endloop
  endfacet
  facet normal 0.684541 -0.728974 0
    outer loop
      vertex 26.3887 -24.7806 9
      vertex 23.0747 -27.8926 0
      vertex 26.3887 -24.7806 0
    endloop
  endfacet
  facet normal 0.904829 -0.425776 0
    outer loop
      vertex 31.7223 -17.4395 9
      vertex 33.6579 -13.3261 0
      vertex 33.6579 -13.3261 9
    endloop
  endfacet
  facet normal 0.904829 -0.425776 0
    outer loop
      vertex 33.6579 -13.3261 0
      vertex 31.7223 -17.4395 9
      vertex 31.7223 -17.4395 0
    endloop
  endfacet
  facet normal -0.998027 -0.0627801 0
    outer loop
      vertex -35.9146 -4.53706 0
      vertex -36.2 0 9
      vertex -36.2 0 0
    endloop
  endfacet
  facet normal -0.998027 -0.0627801 0
    outer loop
      vertex -36.2 0 9
      vertex -35.9146 -4.53706 0
      vertex -35.9146 -4.53706 9
    endloop
  endfacet
  facet normal 0.951057 -0.309017 0
    outer loop
      vertex 33.6579 -13.3261 9
      vertex 35.0627 -9.00257 0
      vertex 35.0627 -9.00257 9
    endloop
  endfacet
  facet normal 0.951057 -0.309017 0
    outer loop
      vertex 35.0627 -9.00257 0
      vertex 33.6579 -13.3261 9
      vertex 33.6579 -13.3261 0
    endloop
  endfacet
  facet normal 0.770521 -0.637415 0
    outer loop
      vertex 26.3887 -24.7806 9
      vertex 29.2864 -21.2778 0
      vertex 29.2864 -21.2778 9
    endloop
  endfacet
  facet normal 0.770521 -0.637415 0
    outer loop
      vertex 29.2864 -21.2778 0
      vertex 26.3887 -24.7806 9
      vertex 26.3887 -24.7806 0
    endloop
  endfacet
  facet normal 0.481744 -0.876312 0
    outer loop
      vertex 15.4132 -32.7547 0
      vertex 19.3969 -30.5647 9
      vertex 15.4132 -32.7547 9
    endloop
  endfacet
  facet normal 0.481744 -0.876312 0
    outer loop
      vertex 19.3969 -30.5647 9
      vertex 15.4132 -32.7547 0
      vertex 19.3969 -30.5647 0
    endloop
  endfacet
  facet normal 0.587788 -0.809015 0
    outer loop
      vertex 19.3969 -30.5647 0
      vertex 23.0747 -27.8926 9
      vertex 19.3969 -30.5647 9
    endloop
  endfacet
  facet normal 0.587788 -0.809015 0
    outer loop
      vertex 23.0747 -27.8926 9
      vertex 19.3969 -30.5647 0
      vertex 23.0747 -27.8926 0
    endloop
  endfacet
  facet normal -0.2487 -0.96858 0
    outer loop
      vertex -11.1864 -34.4282 0
      vertex -6.7832 -35.5588 9
      vertex -11.1864 -34.4282 9
    endloop
  endfacet
  facet normal -0.2487 -0.96858 -0
    outer loop
      vertex -6.7832 -35.5588 9
      vertex -11.1864 -34.4282 0
      vertex -6.7832 -35.5588 0
    endloop
  endfacet
  facet normal -0.844324 -0.535833 0
    outer loop
      vertex -29.2864 -21.2778 0
      vertex -31.7223 -17.4395 9
      vertex -31.7223 -17.4395 0
    endloop
  endfacet
  facet normal -0.844324 -0.535833 0
    outer loop
      vertex -31.7223 -17.4395 9
      vertex -29.2864 -21.2778 0
      vertex -29.2864 -21.2778 9
    endloop
  endfacet
  facet normal 0 0 -1
    outer loop
      vertex 27.5 0 0
      vertex 36.2 0 0
      vertex 35.9146 -4.53706 0
    endloop
  endfacet
  facet normal 0 0 -1
    outer loop
      vertex 27.2832 -3.44666 0
      vertex 35.9146 -4.53706 0
      vertex 35.0627 -9.00257 0
    endloop
  endfacet
  facet normal 0 0 -1
    outer loop
      vertex 36.2 0 0
      vertex 27.5 0 0
      vertex 35.9146 4.53706 0
    endloop
  endfacet
  facet normal 0 0 -1
    outer loop
      vertex 26.636 -6.83897 0
      vertex 35.0627 -9.00257 0
      vertex 33.6579 -13.3261 0
    endloop
  endfacet
  facet normal 0 0 -1
    outer loop
      vertex 27.2832 3.44666 0
      vertex 35.9146 4.53706 0
      vertex 27.5 0 0
    endloop
  endfacet
  facet normal 0 0 -1
    outer loop
      vertex 25.5689 -10.1234 0
      vertex 33.6579 -13.3261 0
      vertex 31.7223 -17.4395 0
    endloop
  endfacet
  facet normal -0 0 -1
    outer loop
      vertex 35.9146 4.53706 0
      vertex 27.2832 3.44666 0
      vertex 35.0627 9.00257 0
    endloop
  endfacet
  facet normal 0 0 -1
    outer loop
      vertex 24.0984 -13.2482 0
      vertex 31.7223 -17.4395 0
      vertex 29.2864 -21.2778 0
    endloop
  endfacet
  facet normal 0 0 -1
    outer loop
      vertex 26.636 6.83897 0
      vertex 35.0627 9.00257 0
      vertex 27.2832 3.44666 0
    endloop
  endfacet
  facet normal -0 0 -1
    outer loop
      vertex 35.0627 9.00257 0
      vertex 26.636 6.83897 0
      vertex 33.6579 13.3261 0
    endloop
  endfacet
  facet normal 0 0 -1
    outer loop
      vertex 35.9146 -4.53706 0
      vertex 27.2832 -3.44666 0
      vertex 27.5 0 0
    endloop
  endfacet
  facet normal 0 0 -1
    outer loop
      vertex 35.0627 -9.00257 0
      vertex 26.636 -6.83897 0
      vertex 27.2832 -3.44666 0
    endloop
  endfacet
  facet normal 0 0 -1
    outer loop
      vertex 22.248 -16.1641 0
      vertex 29.2864 -21.2778 0
      vertex 26.3887 -24.7806 0
    endloop
  endfacet
  facet normal 0 0 -1
    outer loop
      vertex 33.6579 -13.3261 0
      vertex 25.5689 -10.1234 0
      vertex 26.636 -6.83897 0
    endloop
  endfacet
  facet normal 0 0 -1
    outer loop
      vertex 31.7223 -17.4395 0
      vertex 24.0984 -13.2482 0
      vertex 25.5689 -10.1234 0
    endloop
  endfacet
  facet normal 0 0 -1
    outer loop
      vertex 20.0466 -18.825 0
      vertex 26.3887 -24.7806 0
      vertex 23.0747 -27.8926 0
    endloop
  endfacet
  facet normal 0 0 -1
    outer loop
      vertex 29.2864 -21.2778 0
      vertex 22.248 -16.1641 0
      vertex 24.0984 -13.2482 0
    endloop
  endfacet
  facet normal 0 0 -1
    outer loop
      vertex 26.3887 -24.7806 0
      vertex 20.0466 -18.825 0
      vertex 22.248 -16.1641 0
    endloop
  endfacet
  facet normal 0 0 -1
    outer loop
      vertex 17.5292 -21.1891 0
      vertex 23.0747 -27.8926 0
      vertex 19.3969 -30.5647 0
    endloop
  endfacet
  facet normal 0 0 -1
    outer loop
      vertex 23.0747 -27.8926 0
      vertex 17.5292 -21.1891 0
      vertex 20.0466 -18.825 0
    endloop
  endfacet
  facet normal 0 0 -1
    outer loop
      vertex 14.7352 -23.219 0
      vertex 19.3969 -30.5647 0
      vertex 15.4132 -32.7547 0
    endloop
  endfacet
  facet normal 0 0 -1
    outer loop
      vertex 19.3969 -30.5647 0
      vertex 14.7352 -23.219 0
      vertex 17.5292 -21.1891 0
    endloop
  endfacet
  facet normal 0 0 -1
    outer loop
      vertex 15.4132 -32.7547 0
      vertex 11.7089 -24.8827 0
      vertex 14.7352 -23.219 0
    endloop
  endfacet
  facet normal 0 0 -1
    outer loop
      vertex 11.1864 -34.4282 0
      vertex 11.7089 -24.8827 0
      vertex 15.4132 -32.7547 0
    endloop
  endfacet
  facet normal 0 0 -1
    outer loop
      vertex 11.1864 -34.4282 0
      vertex 8.49797 -26.1541 0
      vertex 11.7089 -24.8827 0
    endloop
  endfacet
  facet normal 0 0 -1
    outer loop
      vertex 6.7832 -35.5588 0
      vertex 8.49797 -26.1541 0
      vertex 11.1864 -34.4282 0
    endloop
  endfacet
  facet normal 0 0 -1
    outer loop
      vertex 6.7832 -35.5588 0
      vertex 5.15299 -27.0129 0
      vertex 8.49797 -26.1541 0
    endloop
  endfacet
  facet normal 0 0 -1
    outer loop
      vertex 2.27302 -36.1286 0
      vertex 5.15299 -27.0129 0
      vertex 6.7832 -35.5588 0
    endloop
  endfacet
  facet normal 0 0 -1
    outer loop
      vertex 2.27302 -36.1286 0
      vertex 1.72674 -27.4457 0
      vertex 5.15299 -27.0129 0
    endloop
  endfacet
  facet normal 0 0 -1
    outer loop
      vertex 2.27302 -36.1286 0
      vertex -1.72674 -27.4457 0
      vertex 1.72674 -27.4457 0
    endloop
  endfacet
  facet normal 0 0 -1
    outer loop
      vertex -2.27302 -36.1286 0
      vertex -1.72674 -27.4457 0
      vertex 2.27302 -36.1286 0
    endloop
  endfacet
  facet normal 0 0 -1
    outer loop
      vertex -2.27302 -36.1286 0
      vertex -5.15299 -27.0129 0
      vertex -1.72674 -27.4457 0
    endloop
  endfacet
  facet normal 0 0 -1
    outer loop
      vertex -6.7832 -35.5588 0
      vertex -5.15299 -27.0129 0
      vertex -2.27302 -36.1286 0
    endloop
  endfacet
  facet normal 0 0 -1
    outer loop
      vertex -6.7832 -35.5588 0
      vertex -8.49797 -26.1541 0
      vertex -5.15299 -27.0129 0
    endloop
  endfacet
  facet normal 0 0 -1
    outer loop
      vertex -11.1864 -34.4282 0
      vertex -8.49797 -26.1541 0
      vertex -6.7832 -35.5588 0
    endloop
  endfacet
  facet normal 0 0 -1
    outer loop
      vertex -11.1864 -34.4282 0
      vertex -11.7089 -24.8827 0
      vertex -8.49797 -26.1541 0
    endloop
  endfacet
  facet normal 0 0 -1
    outer loop
      vertex -15.4132 -32.7547 0
      vertex -11.7089 -24.8827 0
      vertex -11.1864 -34.4282 0
    endloop
  endfacet
  facet normal -0 0 -1
    outer loop
      vertex -11.7089 -24.8827 0
      vertex -15.4132 -32.7547 0
      vertex -14.7352 -23.219 0
    endloop
  endfacet
  facet normal 0 0 -1
    outer loop
      vertex -19.3969 -30.5647 0
      vertex -14.7352 -23.219 0
      vertex -15.4132 -32.7547 0
    endloop
  endfacet
  facet normal -0 0 -1
    outer loop
      vertex -14.7352 -23.219 0
      vertex -19.3969 -30.5647 0
      vertex -17.5292 -21.1891 0
    endloop
  endfacet
  facet normal 0 0 -1
    outer loop
      vertex -23.0747 -27.8926 0
      vertex -17.5292 -21.1891 0
      vertex -19.3969 -30.5647 0
    endloop
  endfacet
  facet normal -0 0 -1
    outer loop
      vertex -17.5292 -21.1891 0
      vertex -23.0747 -27.8926 0
      vertex -20.0466 -18.825 0
    endloop
  endfacet
  facet normal 0 0 -1
    outer loop
      vertex -26.3887 -24.7806 0
      vertex -20.0466 -18.825 0
      vertex -23.0747 -27.8926 0
    endloop
  endfacet
  facet normal -0 0 -1
    outer loop
      vertex -20.0466 -18.825 0
      vertex -26.3887 -24.7806 0
      vertex -22.248 -16.1641 0
    endloop
  endfacet
  facet normal 0 0 -1
    outer loop
      vertex -29.2864 -21.2778 0
      vertex -22.248 -16.1641 0
      vertex -26.3887 -24.7806 0
    endloop
  endfacet
  facet normal -0 0 -1
    outer loop
      vertex -22.248 -16.1641 0
      vertex -29.2864 -21.2778 0
      vertex -24.0984 -13.2482 0
    endloop
  endfacet
  facet normal 0 0 -1
    outer loop
      vertex -31.7223 -17.4395 0
      vertex -24.0984 -13.2482 0
      vertex -29.2864 -21.2778 0
    endloop
  endfacet
  facet normal -0 0 -1
    outer loop
      vertex -24.0984 -13.2482 0
      vertex -31.7223 -17.4395 0
      vertex -25.5689 -10.1234 0
    endloop
  endfacet
  facet normal 0 0 -1
    outer loop
      vertex -33.6579 -13.3261 0
      vertex -25.5689 -10.1234 0
      vertex -31.7223 -17.4395 0
    endloop
  endfacet
  facet normal -0 0 -1
    outer loop
      vertex -25.5689 -10.1234 0
      vertex -33.6579 -13.3261 0
      vertex -26.636 -6.83897 0
    endloop
  endfacet
  facet normal 0 0 -1
    outer loop
      vertex 25.5689 10.1234 0
      vertex 33.6579 13.3261 0
      vertex 26.636 6.83897 0
    endloop
  endfacet
  facet normal -0 0 -1
    outer loop
      vertex 33.6579 13.3261 0
      vertex 25.5689 10.1234 0
      vertex 31.7223 17.4395 0
    endloop
  endfacet
  facet normal 0 0 -1
    outer loop
      vertex 24.0984 13.2482 0
      vertex 31.7223 17.4395 0
      vertex 25.5689 10.1234 0
    endloop
  endfacet
  facet normal -0 0 -1
    outer loop
      vertex 31.7223 17.4395 0
      vertex 24.0984 13.2482 0
      vertex 29.2864 21.2778 0
    endloop
  endfacet
  facet normal 0 0 -1
    outer loop
      vertex 22.248 16.1641 0
      vertex 29.2864 21.2778 0
      vertex 24.0984 13.2482 0
    endloop
  endfacet
  facet normal -0 0 -1
    outer loop
      vertex 29.2864 21.2778 0
      vertex 22.248 16.1641 0
      vertex 26.3887 24.7806 0
    endloop
  endfacet
  facet normal 0 0 -1
    outer loop
      vertex 20.0466 18.825 0
      vertex 26.3887 24.7806 0
      vertex 22.248 16.1641 0
    endloop
  endfacet
  facet normal -0 0 -1
    outer loop
      vertex 26.3887 24.7806 0
      vertex 20.0466 18.825 0
      vertex 23.0747 27.8926 0
    endloop
  endfacet
  facet normal 0 0 -1
    outer loop
      vertex 17.5292 21.1891 0
      vertex 23.0747 27.8926 0
      vertex 20.0466 18.825 0
    endloop
  endfacet
  facet normal -0 0 -1
    outer loop
      vertex 23.0747 27.8926 0
      vertex 17.5292 21.1891 0
      vertex 19.3969 30.5647 0
    endloop
  endfacet
  facet normal 0 0 -1
    outer loop
      vertex 14.7352 23.219 0
      vertex 19.3969 30.5647 0
      vertex 17.5292 21.1891 0
    endloop
  endfacet
  facet normal -0 0 -1
    outer loop
      vertex 19.3969 30.5647 0
      vertex 14.7352 23.219 0
      vertex 15.4132 32.7547 0
    endloop
  endfacet
  facet normal 0 0 -1
    outer loop
      vertex 11.7089 24.8827 0
      vertex 15.4132 32.7547 0
      vertex 14.7352 23.219 0
    endloop
  endfacet
  facet normal 0 0 -1
    outer loop
      vertex 11.7089 24.8827 0
      vertex 11.1864 34.4282 0
      vertex 15.4132 32.7547 0
    endloop
  endfacet
  facet normal 0 0 -1
    outer loop
      vertex 8.49797 26.1541 0
      vertex 11.1864 34.4282 0
      vertex 11.7089 24.8827 0
    endloop
  endfacet
  facet normal 0 0 -1
    outer loop
      vertex 8.49797 26.1541 0
      vertex 6.7832 35.5588 0
      vertex 11.1864 34.4282 0
    endloop
  endfacet
  facet normal 0 0 -1
    outer loop
      vertex 5.15299 27.0129 0
      vertex 6.7832 35.5588 0
      vertex 8.49797 26.1541 0
    endloop
  endfacet
  facet normal 0 0 -1
    outer loop
      vertex 5.15299 27.0129 0
      vertex 2.27302 36.1286 0
      vertex 6.7832 35.5588 0
    endloop
  endfacet
  facet normal 0 0 -1
    outer loop
      vertex 1.72674 27.4457 0
      vertex 2.27302 36.1286 0
      vertex 5.15299 27.0129 0
    endloop
  endfacet
  facet normal 0 0 -1
    outer loop
      vertex -1.72674 27.4457 0
      vertex 2.27302 36.1286 0
      vertex 1.72674 27.4457 0
    endloop
  endfacet
  facet normal 0 0 -1
    outer loop
      vertex -1.72674 27.4457 0
      vertex -2.27302 36.1286 0
      vertex 2.27302 36.1286 0
    endloop
  endfacet
  facet normal 0 0 -1
    outer loop
      vertex -5.15299 27.0129 0
      vertex -2.27302 36.1286 0
      vertex -1.72674 27.4457 0
    endloop
  endfacet
  facet normal 0 0 -1
    outer loop
      vertex -5.15299 27.0129 0
      vertex -6.7832 35.5588 0
      vertex -2.27302 36.1286 0
    endloop
  endfacet
  facet normal 0 0 -1
    outer loop
      vertex -8.49797 26.1541 0
      vertex -6.7832 35.5588 0
      vertex -5.15299 27.0129 0
    endloop
  endfacet
  facet normal 0 0 -1
    outer loop
      vertex -8.49797 26.1541 0
      vertex -11.1864 34.4282 0
      vertex -6.7832 35.5588 0
    endloop
  endfacet
  facet normal 0 0 -1
    outer loop
      vertex -11.7089 24.8827 0
      vertex -11.1864 34.4282 0
      vertex -8.49797 26.1541 0
    endloop
  endfacet
  facet normal 0 0 -1
    outer loop
      vertex -15.4132 32.7547 0
      vertex -11.7089 24.8827 0
      vertex -14.7352 23.219 0
    endloop
  endfacet
  facet normal 0 0 -1
    outer loop
      vertex -11.7089 24.8827 0
      vertex -15.4132 32.7547 0
      vertex -11.1864 34.4282 0
    endloop
  endfacet
  facet normal 0 0 -1
    outer loop
      vertex -19.3969 30.5647 0
      vertex -14.7352 23.219 0
      vertex -17.5292 21.1891 0
    endloop
  endfacet
  facet normal 0 0 -1
    outer loop
      vertex -14.7352 23.219 0
      vertex -19.3969 30.5647 0
      vertex -15.4132 32.7547 0
    endloop
  endfacet
  facet normal 0 0 -1
    outer loop
      vertex -23.0747 27.8926 0
      vertex -17.5292 21.1891 0
      vertex -20.0466 18.825 0
    endloop
  endfacet
  facet normal 0 0 -1
    outer loop
      vertex -26.3887 24.7806 0
      vertex -20.0466 18.825 0
      vertex -22.248 16.1641 0
    endloop
  endfacet
  facet normal 0 0 -1
    outer loop
      vertex -17.5292 21.1891 0
      vertex -23.0747 27.8926 0
      vertex -19.3969 30.5647 0
    endloop
  endfacet
  facet normal 0 0 -1
    outer loop
      vertex -29.2864 21.2778 0
      vertex -22.248 16.1641 0
      vertex -24.0984 13.2482 0
    endloop
  endfacet
  facet normal 0 0 -1
    outer loop
      vertex -31.7223 17.4395 0
      vertex -24.0984 13.2482 0
      vertex -25.5689 10.1234 0
    endloop
  endfacet
  facet normal 0 0 -1
    outer loop
      vertex -20.0466 18.825 0
      vertex -26.3887 24.7806 0
      vertex -23.0747 27.8926 0
    endloop
  endfacet
  facet normal 0 0 -1
    outer loop
      vertex -33.6579 13.3261 0
      vertex -25.5689 10.1234 0
      vertex -26.636 6.83897 0
    endloop
  endfacet
  facet normal 0 0 -1
    outer loop
      vertex -35.0627 9.00257 0
      vertex -26.636 6.83897 0
      vertex -27.2832 3.44666 0
    endloop
  endfacet
  facet normal 0 0 -1
    outer loop
      vertex -35.9146 4.53706 0
      vertex -27.2832 3.44666 0
      vertex -27.5 0 0
    endloop
  endfacet
  facet normal 0 0 -1
    outer loop
      vertex -35.0627 -9.00257 0
      vertex -26.636 -6.83897 0
      vertex -33.6579 -13.3261 0
    endloop
  endfacet
  facet normal 0 0 -1
    outer loop
      vertex -22.248 16.1641 0
      vertex -29.2864 21.2778 0
      vertex -26.3887 24.7806 0
    endloop
  endfacet
  facet normal -0 0 -1
    outer loop
      vertex -26.636 -6.83897 0
      vertex -35.0627 -9.00257 0
      vertex -27.2832 -3.44666 0
    endloop
  endfacet
  facet normal 0 0 -1
    outer loop
      vertex -24.0984 13.2482 0
      vertex -31.7223 17.4395 0
      vertex -29.2864 21.2778 0
    endloop
  endfacet
  facet normal 0 0 -1
    outer loop
      vertex -35.9146 -4.53706 0
      vertex -27.2832 -3.44666 0
      vertex -35.0627 -9.00257 0
    endloop
  endfacet
  facet normal 0 0 -1
    outer loop
      vertex -25.5689 10.1234 0
      vertex -33.6579 13.3261 0
      vertex -31.7223 17.4395 0
    endloop
  endfacet
  facet normal -0 0 -1
    outer loop
      vertex -27.2832 -3.44666 0
      vertex -35.9146 -4.53706 0
      vertex -27.5 0 0
    endloop
  endfacet
  facet normal 0 0 -1
    outer loop
      vertex -26.636 6.83897 0
      vertex -35.0627 9.00257 0
      vertex -33.6579 13.3261 0
    endloop
  endfacet
  facet normal 0 0 -1
    outer loop
      vertex -36.2 0 0
      vertex -27.5 0 0
      vertex -35.9146 -4.53706 0
    endloop
  endfacet
  facet normal 0 0 -1
    outer loop
      vertex -27.2832 3.44666 0
      vertex -35.9146 4.53706 0
      vertex -35.0627 9.00257 0
    endloop
  endfacet
  facet normal 0 0 -1
    outer loop
      vertex -27.5 0 0
      vertex -36.2 0 0
      vertex -35.9146 4.53706 0
    endloop
  endfacet
  facet normal 0.2487 -0.96858 0
    outer loop
      vertex 6.7832 -35.5588 0
      vertex 11.1864 -34.4282 9
      vertex 6.7832 -35.5588 9
    endloop
  endfacet
  facet normal 0.2487 -0.96858 0
    outer loop
      vertex 11.1864 -34.4282 9
      vertex 6.7832 -35.5588 0
      vertex 11.1864 -34.4282 0
    endloop
  endfacet
  facet normal 0.982285 -0.187394 0
    outer loop
      vertex 35.0627 -9.00257 9
      vertex 35.9146 -4.53706 0
      vertex 35.9146 -4.53706 9
    endloop
  endfacet
  facet normal 0.982285 -0.187394 0
    outer loop
      vertex 35.9146 -4.53706 0
      vertex 35.0627 -9.00257 9
      vertex 35.0627 -9.00257 0
    endloop
  endfacet
  facet normal 0.844324 -0.535833 0
    outer loop
      vertex 29.2864 -21.2778 9
      vertex 31.7223 -17.4395 0
      vertex 31.7223 -17.4395 9
    endloop
  endfacet
  facet normal 0.844324 -0.535833 0
    outer loop
      vertex 31.7223 -17.4395 0
      vertex 29.2864 -21.2778 9
      vertex 29.2864 -21.2778 0
    endloop
  endfacet
  facet normal -0.12534 -0.992114 0
    outer loop
      vertex -6.7832 -35.5588 0
      vertex -2.27302 -36.1286 9
      vertex -6.7832 -35.5588 9
    endloop
  endfacet
  facet normal -0.12534 -0.992114 -0
    outer loop
      vertex -2.27302 -36.1286 9
      vertex -6.7832 -35.5588 0
      vertex -2.27302 -36.1286 0
    endloop
  endfacet
  facet normal -0.368123 -0.929777 0
    outer loop
      vertex -15.4132 -32.7547 0
      vertex -11.1864 -34.4282 9
      vertex -15.4132 -32.7547 9
    endloop
  endfacet
  facet normal -0.368123 -0.929777 -0
    outer loop
      vertex -11.1864 -34.4282 9
      vertex -15.4132 -32.7547 0
      vertex -11.1864 -34.4282 0
    endloop
  endfacet
  facet normal -0.684541 -0.728974 0
    outer loop
      vertex -26.3887 -24.7806 0
      vertex -23.0747 -27.8926 9
      vertex -26.3887 -24.7806 9
    endloop
  endfacet
  facet normal -0.684541 -0.728974 -0
    outer loop
      vertex -23.0747 -27.8926 9
      vertex -26.3887 -24.7806 0
      vertex -23.0747 -27.8926 0
    endloop
  endfacet
  facet normal -0.770521 -0.637415 0
    outer loop
      vertex -26.3887 -24.7806 0
      vertex -29.2864 -21.2778 9
      vertex -29.2864 -21.2778 0
    endloop
  endfacet
  facet normal -0.770521 -0.637415 0
    outer loop
      vertex -29.2864 -21.2778 9
      vertex -26.3887 -24.7806 0
      vertex -26.3887 -24.7806 9
    endloop
  endfacet
  facet normal -0.904829 -0.425776 0
    outer loop
      vertex -31.7223 -17.4395 0
      vertex -33.6579 -13.3261 9
      vertex -33.6579 -13.3261 0
    endloop
  endfacet
  facet normal -0.904829 -0.425776 0
    outer loop
      vertex -33.6579 -13.3261 9
      vertex -31.7223 -17.4395 0
      vertex -31.7223 -17.4395 9
    endloop
  endfacet
  facet normal -0.982285 -0.187394 0
    outer loop
      vertex -35.0627 -9.00257 0
      vertex -35.9146 -4.53706 9
      vertex -35.9146 -4.53706 0
    endloop
  endfacet
  facet normal -0.982285 -0.187394 0
    outer loop
      vertex -35.9146 -4.53706 9
      vertex -35.0627 -9.00257 0
      vertex -35.0627 -9.00257 9
    endloop
  endfacet
  facet normal -0.481744 -0.876312 0
    outer loop
      vertex -19.3969 -30.5647 0
      vertex -15.4132 -32.7547 9
      vertex -19.3969 -30.5647 9
    endloop
  endfacet
  facet normal -0.481744 -0.876312 -0
    outer loop
      vertex -15.4132 -32.7547 9
      vertex -19.3969 -30.5647 0
      vertex -15.4132 -32.7547 0
    endloop
  endfacet
  facet normal -0.587788 -0.809015 0
    outer loop
      vertex -23.0747 -27.8926 0
      vertex -19.3969 -30.5647 9
      vertex -23.0747 -27.8926 9
    endloop
  endfacet
  facet normal -0.587788 -0.809015 -0
    outer loop
      vertex -19.3969 -30.5647 9
      vertex -23.0747 -27.8926 0
      vertex -19.3969 -30.5647 0
    endloop
  endfacet
  facet normal 0.951063 -0.308997 0
    outer loop
      vertex -26.636 6.83897 9
      vertex -25.5689 10.1234 0
      vertex -25.5689 10.1234 9
    endloop
  endfacet
  facet normal 0.951063 -0.308997 0
    outer loop
      vertex -25.5689 10.1234 0
      vertex -26.636 6.83897 9
      vertex -26.636 6.83897 0
    endloop
  endfacet
  facet normal -0.844339 -0.535809 0
    outer loop
      vertex 24.0984 13.2482 0
      vertex 22.248 16.1641 9
      vertex 22.248 16.1641 0
    endloop
  endfacet
  facet normal -0.844339 -0.535809 0
    outer loop
      vertex 22.248 16.1641 9
      vertex 24.0984 13.2482 0
      vertex 24.0984 13.2482 9
    endloop
  endfacet
  facet normal -0.36815 -0.929766 0
    outer loop
      vertex 8.49797 26.1541 0
      vertex 11.7089 24.8827 9
      vertex 8.49797 26.1541 9
    endloop
  endfacet
  facet normal -0.36815 -0.929766 -0
    outer loop
      vertex 11.7089 24.8827 9
      vertex 8.49797 26.1541 0
      vertex 11.7089 24.8827 0
    endloop
  endfacet
  facet normal 0.36815 -0.929766 0
    outer loop
      vertex -11.7089 24.8827 0
      vertex -8.49797 26.1541 9
      vertex -11.7089 24.8827 9
    endloop
  endfacet
  facet normal 0.36815 -0.929766 0
    outer loop
      vertex -8.49797 26.1541 9
      vertex -11.7089 24.8827 0
      vertex -8.49797 26.1541 0
    endloop
  endfacet
  facet normal 0.904818 -0.425798 0
    outer loop
      vertex -25.5689 10.1234 9
      vertex -24.0984 13.2482 0
      vertex -24.0984 13.2482 9
    endloop
  endfacet
  facet normal 0.904818 -0.425798 0
    outer loop
      vertex -24.0984 13.2482 0
      vertex -25.5689 10.1234 9
      vertex -25.5689 10.1234 0
    endloop
  endfacet
  facet normal -0.998028 0.0627774 0
    outer loop
      vertex 27.2832 -3.44666 0
      vertex 27.5 0 9
      vertex 27.5 0 0
    endloop
  endfacet
  facet normal -0.998028 0.0627774 0
    outer loop
      vertex 27.5 0 9
      vertex 27.2832 -3.44666 0
      vertex 27.2832 -3.44666 9
    endloop
  endfacet
  facet normal -0.36815 0.929766 0
    outer loop
      vertex 11.7089 -24.8827 0
      vertex 8.49797 -26.1541 9
      vertex 11.7089 -24.8827 9
    endloop
  endfacet
  facet normal -0.36815 0.929766 0
    outer loop
      vertex 8.49797 -26.1541 9
      vertex 11.7089 -24.8827 0
      vertex 8.49797 -26.1541 0
    endloop
  endfacet
  facet normal 0 -1 0
    outer loop
      vertex -1.72674 27.4457 0
      vertex 1.72674 27.4457 9
      vertex -1.72674 27.4457 9
    endloop
  endfacet
  facet normal 0 -1 -0
    outer loop
      vertex 1.72674 27.4457 9
      vertex -1.72674 27.4457 0
      vertex 1.72674 27.4457 0
    endloop
  endfacet
  facet normal 0.770497 -0.637443 0
    outer loop
      vertex -22.248 16.1641 9
      vertex -20.0466 18.825 0
      vertex -20.0466 18.825 9
    endloop
  endfacet
  facet normal 0.770497 -0.637443 0
    outer loop
      vertex -20.0466 18.825 0
      vertex -22.248 16.1641 9
      vertex -22.248 16.1641 0
    endloop
  endfacet
  facet normal 0.684563 -0.728954 0
    outer loop
      vertex -20.0466 18.825 0
      vertex -17.5292 21.1891 9
      vertex -20.0466 18.825 9
    endloop
  endfacet
  facet normal 0.684563 -0.728954 0
    outer loop
      vertex -17.5292 21.1891 9
      vertex -20.0466 18.825 0
      vertex -17.5292 21.1891 0
    endloop
  endfacet
  facet normal -0.998028 -0.0627774 0
    outer loop
      vertex 27.5 0 0
      vertex 27.2832 3.44666 9
      vertex 27.2832 3.44666 0
    endloop
  endfacet
  facet normal -0.998028 -0.0627774 0
    outer loop
      vertex 27.2832 3.44666 9
      vertex 27.5 0 0
      vertex 27.5 0 9
    endloop
  endfacet
  facet normal -0.248678 0.968586 0
    outer loop
      vertex 8.49797 -26.1541 0
      vertex 5.15299 -27.0129 9
      vertex 8.49797 -26.1541 9
    endloop
  endfacet
  facet normal -0.248678 0.968586 0
    outer loop
      vertex 5.15299 -27.0129 9
      vertex 8.49797 -26.1541 0
      vertex 5.15299 -27.0129 0
    endloop
  endfacet
  facet normal -0.684563 -0.728954 0
    outer loop
      vertex 17.5292 21.1891 0
      vertex 20.0466 18.825 9
      vertex 17.5292 21.1891 9
    endloop
  endfacet
  facet normal -0.684563 -0.728954 -0
    outer loop
      vertex 20.0466 18.825 9
      vertex 17.5292 21.1891 0
      vertex 20.0466 18.825 0
    endloop
  endfacet
  facet normal -0.248678 -0.968586 0
    outer loop
      vertex 5.15299 27.0129 0
      vertex 8.49797 26.1541 9
      vertex 5.15299 27.0129 9
    endloop
  endfacet
  facet normal -0.248678 -0.968586 -0
    outer loop
      vertex 8.49797 26.1541 9
      vertex 5.15299 27.0129 0
      vertex 8.49797 26.1541 0
    endloop
  endfacet
  facet normal -0.125323 -0.992116 0
    outer loop
      vertex 1.72674 27.4457 0
      vertex 5.15299 27.0129 9
      vertex 1.72674 27.4457 9
    endloop
  endfacet
  facet normal -0.125323 -0.992116 -0
    outer loop
      vertex 5.15299 27.0129 9
      vertex 1.72674 27.4457 0
      vertex 5.15299 27.0129 0
    endloop
  endfacet
  facet normal -0.587774 -0.809025 0
    outer loop
      vertex 14.7352 23.219 0
      vertex 17.5292 21.1891 9
      vertex 14.7352 23.219 9
    endloop
  endfacet
  facet normal -0.587774 -0.809025 -0
    outer loop
      vertex 17.5292 21.1891 9
      vertex 14.7352 23.219 0
      vertex 17.5292 21.1891 0
    endloop
  endfacet
  facet normal -0.481749 -0.876309 0
    outer loop
      vertex 11.7089 24.8827 0
      vertex 14.7352 23.219 9
      vertex 11.7089 24.8827 9
    endloop
  endfacet
  facet normal -0.481749 -0.876309 -0
    outer loop
      vertex 14.7352 23.219 9
      vertex 11.7089 24.8827 0
      vertex 14.7352 23.219 0
    endloop
  endfacet
  facet normal 0.998028 -0.0627774 0
    outer loop
      vertex -27.5 0 9
      vertex -27.2832 3.44666 0
      vertex -27.2832 3.44666 9
    endloop
  endfacet
  facet normal 0.998028 -0.0627774 0
    outer loop
      vertex -27.2832 3.44666 0
      vertex -27.5 0 9
      vertex -27.5 0 0
    endloop
  endfacet
  facet normal 0.982283 -0.187404 0
    outer loop
      vertex -27.2832 3.44666 9
      vertex -26.636 6.83897 0
      vertex -26.636 6.83897 9
    endloop
  endfacet
  facet normal 0.982283 -0.187404 0
    outer loop
      vertex -26.636 6.83897 0
      vertex -27.2832 3.44666 9
      vertex -27.2832 3.44666 0
    endloop
  endfacet
  facet normal 0.844339 -0.535809 0
    outer loop
      vertex -24.0984 13.2482 9
      vertex -22.248 16.1641 0
      vertex -22.248 16.1641 9
    endloop
  endfacet
  facet normal 0.844339 -0.535809 0
    outer loop
      vertex -22.248 16.1641 0
      vertex -24.0984 13.2482 9
      vertex -24.0984 13.2482 0
    endloop
  endfacet
  facet normal 0.125323 -0.992116 0
    outer loop
      vertex -5.15299 27.0129 0
      vertex -1.72674 27.4457 9
      vertex -5.15299 27.0129 9
    endloop
  endfacet
  facet normal 0.125323 -0.992116 0
    outer loop
      vertex -1.72674 27.4457 9
      vertex -5.15299 27.0129 0
      vertex -1.72674 27.4457 0
    endloop
  endfacet
  facet normal 0.248678 -0.968586 0
    outer loop
      vertex -8.49797 26.1541 0
      vertex -5.15299 27.0129 9
      vertex -8.49797 26.1541 9
    endloop
  endfacet
  facet normal 0.248678 -0.968586 0
    outer loop
      vertex -5.15299 27.0129 9
      vertex -8.49797 26.1541 0
      vertex -5.15299 27.0129 0
    endloop
  endfacet
  facet normal 0.481749 -0.876309 0
    outer loop
      vertex -14.7352 23.219 0
      vertex -11.7089 24.8827 9
      vertex -14.7352 23.219 9
    endloop
  endfacet
  facet normal 0.481749 -0.876309 0
    outer loop
      vertex -11.7089 24.8827 9
      vertex -14.7352 23.219 0
      vertex -11.7089 24.8827 0
    endloop
  endfacet
  facet normal 0.587774 -0.809025 0
    outer loop
      vertex -17.5292 21.1891 0
      vertex -14.7352 23.219 9
      vertex -17.5292 21.1891 9
    endloop
  endfacet
  facet normal 0.587774 -0.809025 0
    outer loop
      vertex -14.7352 23.219 9
      vertex -17.5292 21.1891 0
      vertex -14.7352 23.219 0
    endloop
  endfacet
  facet normal -0.982283 0.187404 0
    outer loop
      vertex 26.636 -6.83897 0
      vertex 27.2832 -3.44666 9
      vertex 27.2832 -3.44666 0
    endloop
  endfacet
  facet normal -0.982283 0.187404 0
    outer loop
      vertex 27.2832 -3.44666 9
      vertex 26.636 -6.83897 0
      vertex 26.636 -6.83897 9
    endloop
  endfacet
  facet normal -0.844339 0.535809 0
    outer loop
      vertex 22.248 -16.1641 0
      vertex 24.0984 -13.2482 9
      vertex 24.0984 -13.2482 0
    endloop
  endfacet
  facet normal -0.844339 0.535809 0
    outer loop
      vertex 24.0984 -13.2482 9
      vertex 22.248 -16.1641 0
      vertex 22.248 -16.1641 9
    endloop
  endfacet
  facet normal 0.844339 0.535809 0
    outer loop
      vertex -22.248 -16.1641 9
      vertex -24.0984 -13.2482 0
      vertex -24.0984 -13.2482 9
    endloop
  endfacet
  facet normal 0.844339 0.535809 0
    outer loop
      vertex -24.0984 -13.2482 0
      vertex -22.248 -16.1641 9
      vertex -22.248 -16.1641 0
    endloop
  endfacet
  facet normal -0.125323 0.992116 0
    outer loop
      vertex 5.15299 -27.0129 0
      vertex 1.72674 -27.4457 9
      vertex 5.15299 -27.0129 9
    endloop
  endfacet
  facet normal -0.125323 0.992116 0
    outer loop
      vertex 1.72674 -27.4457 9
      vertex 5.15299 -27.0129 0
      vertex 1.72674 -27.4457 0
    endloop
  endfacet
  facet normal -0.904818 -0.425798 0
    outer loop
      vertex 25.5689 10.1234 0
      vertex 24.0984 13.2482 9
      vertex 24.0984 13.2482 0
    endloop
  endfacet
  facet normal -0.904818 -0.425798 0
    outer loop
      vertex 24.0984 13.2482 9
      vertex 25.5689 10.1234 0
      vertex 25.5689 10.1234 9
    endloop
  endfacet
  facet normal -0.951063 -0.308997 0
    outer loop
      vertex 26.636 6.83897 0
      vertex 25.5689 10.1234 9
      vertex 25.5689 10.1234 0
    endloop
  endfacet
  facet normal -0.951063 -0.308997 0
    outer loop
      vertex 25.5689 10.1234 9
      vertex 26.636 6.83897 0
      vertex 26.636 6.83897 9
    endloop
  endfacet
  facet normal -0.982283 -0.187404 0
    outer loop
      vertex 27.2832 3.44666 0
      vertex 26.636 6.83897 9
      vertex 26.636 6.83897 0
    endloop
  endfacet
  facet normal -0.982283 -0.187404 0
    outer loop
      vertex 26.636 6.83897 9
      vertex 27.2832 3.44666 0
      vertex 27.2832 3.44666 9
    endloop
  endfacet
  facet normal -0.770497 -0.637443 0
    outer loop
      vertex 22.248 16.1641 0
      vertex 20.0466 18.825 9
      vertex 20.0466 18.825 0
    endloop
  endfacet
  facet normal -0.770497 -0.637443 0
    outer loop
      vertex 20.0466 18.825 9
      vertex 22.248 16.1641 0
      vertex 22.248 16.1641 9
    endloop
  endfacet
  facet normal -0.684563 0.728954 0
    outer loop
      vertex 20.0466 -18.825 0
      vertex 17.5292 -21.1891 9
      vertex 20.0466 -18.825 9
    endloop
  endfacet
  facet normal -0.684563 0.728954 0
    outer loop
      vertex 17.5292 -21.1891 9
      vertex 20.0466 -18.825 0
      vertex 17.5292 -21.1891 0
    endloop
  endfacet
  facet normal -0.904818 0.425798 0
    outer loop
      vertex 24.0984 -13.2482 0
      vertex 25.5689 -10.1234 9
      vertex 25.5689 -10.1234 0
    endloop
  endfacet
  facet normal -0.904818 0.425798 0
    outer loop
      vertex 25.5689 -10.1234 9
      vertex 24.0984 -13.2482 0
      vertex 24.0984 -13.2482 9
    endloop
  endfacet
  facet normal -0.951063 0.308997 0
    outer loop
      vertex 25.5689 -10.1234 0
      vertex 26.636 -6.83897 9
      vertex 26.636 -6.83897 0
    endloop
  endfacet
  facet normal -0.951063 0.308997 0
    outer loop
      vertex 26.636 -6.83897 9
      vertex 25.5689 -10.1234 0
      vertex 25.5689 -10.1234 9
    endloop
  endfacet
  facet normal 0.36815 0.929766 -0
    outer loop
      vertex -8.49797 -26.1541 0
      vertex -11.7089 -24.8827 9
      vertex -8.49797 -26.1541 9
    endloop
  endfacet
  facet normal 0.36815 0.929766 0
    outer loop
      vertex -11.7089 -24.8827 9
      vertex -8.49797 -26.1541 0
      vertex -11.7089 -24.8827 0
    endloop
  endfacet
  facet normal 0 1 -0
    outer loop
      vertex 1.72674 -27.4457 0
      vertex -1.72674 -27.4457 9
      vertex 1.72674 -27.4457 9
    endloop
  endfacet
  facet normal 0 1 0
    outer loop
      vertex -1.72674 -27.4457 9
      vertex 1.72674 -27.4457 0
      vertex -1.72674 -27.4457 0
    endloop
  endfacet
  facet normal 0.998028 0.0627774 0
    outer loop
      vertex -27.2832 -3.44666 9
      vertex -27.5 0 0
      vertex -27.5 0 9
    endloop
  endfacet
  facet normal 0.998028 0.0627774 0
    outer loop
      vertex -27.5 0 0
      vertex -27.2832 -3.44666 9
      vertex -27.2832 -3.44666 0
    endloop
  endfacet
  facet normal 0.904818 0.425798 0
    outer loop
      vertex -24.0984 -13.2482 9
      vertex -25.5689 -10.1234 0
      vertex -25.5689 -10.1234 9
    endloop
  endfacet
  facet normal 0.904818 0.425798 0
    outer loop
      vertex -25.5689 -10.1234 0
      vertex -24.0984 -13.2482 9
      vertex -24.0984 -13.2482 0
    endloop
  endfacet
  facet normal 0.951063 0.308997 0
    outer loop
      vertex -25.5689 -10.1234 9
      vertex -26.636 -6.83897 0
      vertex -26.636 -6.83897 9
    endloop
  endfacet
  facet normal 0.951063 0.308997 0
    outer loop
      vertex -26.636 -6.83897 0
      vertex -25.5689 -10.1234 9
      vertex -25.5689 -10.1234 0
    endloop
  endfacet
  facet normal 0.770497 0.637443 0
    outer loop
      vertex -20.0466 -18.825 9
      vertex -22.248 -16.1641 0
      vertex -22.248 -16.1641 9
    endloop
  endfacet
  facet normal 0.770497 0.637443 0
    outer loop
      vertex -22.248 -16.1641 0
      vertex -20.0466 -18.825 9
      vertex -20.0466 -18.825 0
    endloop
  endfacet
  facet normal -0.481749 0.876309 0
    outer loop
      vertex 14.7352 -23.219 0
      vertex 11.7089 -24.8827 9
      vertex 14.7352 -23.219 9
    endloop
  endfacet
  facet normal -0.481749 0.876309 0
    outer loop
      vertex 11.7089 -24.8827 9
      vertex 14.7352 -23.219 0
      vertex 11.7089 -24.8827 0
    endloop
  endfacet
  facet normal 0.587774 0.809025 -0
    outer loop
      vertex -14.7352 -23.219 0
      vertex -17.5292 -21.1891 9
      vertex -14.7352 -23.219 9
    endloop
  endfacet
  facet normal 0.587774 0.809025 0
    outer loop
      vertex -17.5292 -21.1891 9
      vertex -14.7352 -23.219 0
      vertex -17.5292 -21.1891 0
    endloop
  endfacet
  facet normal 0.248678 0.968586 -0
    outer loop
      vertex -5.15299 -27.0129 0
      vertex -8.49797 -26.1541 9
      vertex -5.15299 -27.0129 9
    endloop
  endfacet
  facet normal 0.248678 0.968586 0
    outer loop
      vertex -8.49797 -26.1541 9
      vertex -5.15299 -27.0129 0
      vertex -8.49797 -26.1541 0
    endloop
  endfacet
  facet normal 0.982283 0.187404 0
    outer loop
      vertex -26.636 -6.83897 9
      vertex -27.2832 -3.44666 0
      vertex -27.2832 -3.44666 9
    endloop
  endfacet
  facet normal 0.982283 0.187404 0
    outer loop
      vertex -27.2832 -3.44666 0
      vertex -26.636 -6.83897 9
      vertex -26.636 -6.83897 0
    endloop
  endfacet
  facet normal 0.684563 0.728954 -0
    outer loop
      vertex -17.5292 -21.1891 0
      vertex -20.0466 -18.825 9
      vertex -17.5292 -21.1891 9
    endloop
  endfacet
  facet normal 0.684563 0.728954 0
    outer loop
      vertex -20.0466 -18.825 9
      vertex -17.5292 -21.1891 0
      vertex -20.0466 -18.825 0
    endloop
  endfacet
  facet normal -0.587774 0.809025 0
    outer loop
      vertex 17.5292 -21.1891 0
      vertex 14.7352 -23.219 9
      vertex 17.5292 -21.1891 9
    endloop
  endfacet
  facet normal -0.587774 0.809025 0
    outer loop
      vertex 14.7352 -23.219 9
      vertex 17.5292 -21.1891 0
      vertex 14.7352 -23.219 0
    endloop
  endfacet
  facet normal -0.770497 0.637443 0
    outer loop
      vertex 20.0466 -18.825 0
      vertex 22.248 -16.1641 9
      vertex 22.248 -16.1641 0
    endloop
  endfacet
  facet normal -0.770497 0.637443 0
    outer loop
      vertex 22.248 -16.1641 9
      vertex 20.0466 -18.825 0
      vertex 20.0466 -18.825 9
    endloop
  endfacet
  facet normal 0.481749 0.876309 -0
    outer loop
      vertex -11.7089 -24.8827 0
      vertex -14.7352 -23.219 9
      vertex -11.7089 -24.8827 9
    endloop
  endfacet
  facet normal 0.481749 0.876309 0
    outer loop
      vertex -14.7352 -23.219 9
      vertex -11.7089 -24.8827 0
      vertex -14.7352 -23.219 0
    endloop
  endfacet
  facet normal 0.125323 0.992116 -0
    outer loop
      vertex -1.72674 -27.4457 0
      vertex -5.15299 -27.0129 9
      vertex -1.72674 -27.4457 9
    endloop
  endfacet
  facet normal 0.125323 0.992116 0
    outer loop
      vertex -5.15299 -27.0129 9
      vertex -1.72674 -27.4457 0
      vertex -5.15299 -27.0129 0
    endloop
  endfacet
endsolid OpenSCAD_Model
