solid OpenSCAD_Model
  facet normal 0.998026 0.0627966 0
    outer loop
      vertex 23.7 0 7
      vertex 23.5131 2.9704 0
      vertex 23.5131 2.9704 7
    endloop
  endfacet
  facet normal 0.998026 0.0627966 0
    outer loop
      vertex 23.5131 2.9704 0
      vertex 23.7 0 7
      vertex 23.7 0 0
    endloop
  endfacet
  facet normal -0.998026 0.0627966 0
    outer loop
      vertex -23.7 0 0
      vertex -23.5131 2.9704 7
      vertex -23.5131 2.9704 0
    endloop
  endfacet
  facet normal -0.998026 0.0627966 0
    outer loop
      vertex -23.5131 2.9704 7
      vertex -23.7 0 0
      vertex -23.7 0 7
    endloop
  endfacet
  facet normal 0 1 -0
    outer loop
      vertex 1.48813 23.6532 0
      vertex -1.48813 23.6532 7
      vertex 1.48813 23.6532 7
    endloop
  endfacet
  facet normal 0 1 0
    outer loop
      vertex -1.48813 23.6532 7
      vertex 1.48813 23.6532 0
      vertex -1.48813 23.6532 0
    endloop
  endfacet
  facet normal 0 -1 0
    outer loop
      vertex -1.48813 -23.6532 0
      vertex 1.48813 -23.6532 7
      vertex -1.48813 -23.6532 7
    endloop
  endfacet
  facet normal 0 -1 -0
    outer loop
      vertex 1.48813 -23.6532 7
      vertex -1.48813 -23.6532 0
      vertex 1.48813 -23.6532 0
    endloop
  endfacet
  facet normal 0.684532 0.728983 -0
    outer loop
      vertex 17.2766 16.2238 0
      vertex 15.1069 18.2612 7
      vertex 17.2766 16.2238 7
    endloop
  endfacet
  facet normal 0.684532 0.728983 0
    outer loop
      vertex 15.1069 18.2612 7
      vertex 17.2766 16.2238 0
      vertex 15.1069 18.2612 0
    endloop
  endfacet
  facet normal -0.684532 0.728983 0
    outer loop
      vertex -15.1069 18.2612 0
      vertex -17.2766 16.2238 7
      vertex -15.1069 18.2612 7
    endloop
  endfacet
  facet normal -0.684532 0.728983 0
    outer loop
      vertex -17.2766 16.2238 7
      vertex -15.1069 18.2612 0
      vertex -17.2766 16.2238 0
    endloop
  endfacet
  facet normal -0.36811 0.929782 0
    outer loop
      vertex -7.3237 22.54 0
      vertex -10.091 21.4444 7
      vertex -7.3237 22.54 7
    endloop
  endfacet
  facet normal -0.36811 0.929782 0
    outer loop
      vertex -10.091 21.4444 7
      vertex -7.3237 22.54 0
      vertex -10.091 21.4444 0
    endloop
  endfacet
  facet normal 0.904834 0.425765 0
    outer loop
      vertex 22.0357 8.72455 7
      vertex 20.7685 11.4176 0
      vertex 20.7685 11.4176 7
    endloop
  endfacet
  facet normal 0.904834 0.425765 0
    outer loop
      vertex 20.7685 11.4176 0
      vertex 22.0357 8.72455 7
      vertex 22.0357 8.72455 0
    endloop
  endfacet
  facet normal 0.36811 0.929782 -0
    outer loop
      vertex 10.091 21.4444 0
      vertex 7.3237 22.54 7
      vertex 10.091 21.4444 7
    endloop
  endfacet
  facet normal 0.36811 0.929782 0
    outer loop
      vertex 7.3237 22.54 7
      vertex 10.091 21.4444 0
      vertex 7.3237 22.54 0
    endloop
  endfacet
  facet normal 0.2487 0.96858 -0
    outer loop
      vertex 7.3237 22.54 0
      vertex 4.44094 23.2802 7
      vertex 7.3237 22.54 7
    endloop
  endfacet
  facet normal 0.2487 0.96858 0
    outer loop
      vertex 4.44094 23.2802 7
      vertex 7.3237 22.54 0
      vertex 4.44094 23.2802 0
    endloop
  endfacet
  facet normal 0.48175 0.876309 -0
    outer loop
      vertex 12.6991 20.0106 0
      vertex 10.091 21.4444 7
      vertex 12.6991 20.0106 7
    endloop
  endfacet
  facet normal 0.48175 0.876309 0
    outer loop
      vertex 10.091 21.4444 7
      vertex 12.6991 20.0106 0
      vertex 10.091 21.4444 0
    endloop
  endfacet
  facet normal -0.904834 0.425765 0
    outer loop
      vertex -22.0357 8.72455 0
      vertex -20.7685 11.4176 7
      vertex -20.7685 11.4176 0
    endloop
  endfacet
  facet normal -0.904834 0.425765 0
    outer loop
      vertex -20.7685 11.4176 7
      vertex -22.0357 8.72455 0
      vertex -22.0357 8.72455 7
    endloop
  endfacet
  facet normal -0.951058 0.309012 0
    outer loop
      vertex -22.9554 5.89395 0
      vertex -22.0357 8.72455 7
      vertex -22.0357 8.72455 0
    endloop
  endfacet
  facet normal -0.951058 0.309012 0
    outer loop
      vertex -22.0357 8.72455 7
      vertex -22.9554 5.89395 0
      vertex -22.9554 5.89395 7
    endloop
  endfacet
  facet normal -0.48175 0.876309 0
    outer loop
      vertex -10.091 21.4444 0
      vertex -12.6991 20.0106 7
      vertex -10.091 21.4444 7
    endloop
  endfacet
  facet normal -0.48175 0.876309 0
    outer loop
      vertex -12.6991 20.0106 7
      vertex -10.091 21.4444 0
      vertex -12.6991 20.0106 0
    endloop
  endfacet
  facet normal -0.125324 0.992116 0
    outer loop
      vertex -1.48813 23.6532 0
      vertex -4.44094 23.2802 7
      vertex -1.48813 23.6532 7
    endloop
  endfacet
  facet normal -0.125324 0.992116 0
    outer loop
      vertex -4.44094 23.2802 7
      vertex -1.48813 23.6532 0
      vertex -4.44094 23.2802 0
    endloop
  endfacet
  facet normal 0.125324 -0.992116 0
    outer loop
      vertex 1.48813 -23.6532 0
      vertex 4.44094 -23.2802 7
      vertex 1.48813 -23.6532 7
    endloop
  endfacet
  facet normal 0.125324 -0.992116 0
    outer loop
      vertex 4.44094 -23.2802 7
      vertex 1.48813 -23.6532 0
      vertex 4.44094 -23.2802 0
    endloop
  endfacet
  facet normal 0.36811 -0.929782 0
    outer loop
      vertex 7.3237 -22.54 0
      vertex 10.091 -21.4444 7
      vertex 7.3237 -22.54 7
    endloop
  endfacet
  facet normal 0.36811 -0.929782 0
    outer loop
      vertex 10.091 -21.4444 7
      vertex 7.3237 -22.54 0
      vertex 10.091 -21.4444 0
    endloop
  endfacet
  facet normal 0.951058 0.309012 0
    outer loop
      vertex 22.9554 5.89395 7
      vertex 22.0357 8.72455 0
      vertex 22.0357 8.72455 7
    endloop
  endfacet
  facet normal 0.951058 0.309012 0
    outer loop
      vertex 22.0357 8.72455 0
      vertex 22.9554 5.89395 7
      vertex 22.9554 5.89395 0
    endloop
  endfacet
  facet normal 0.982287 0.187382 0
    outer loop
      vertex 23.5131 2.9704 7
      vertex 22.9554 5.89395 0
      vertex 22.9554 5.89395 7
    endloop
  endfacet
  facet normal 0.982287 0.187382 0
    outer loop
      vertex 22.9554 5.89395 0
      vertex 23.5131 2.9704 7
      vertex 23.5131 2.9704 0
    endloop
  endfacet
  facet normal 0.770527 0.637407 0
    outer loop
      vertex 19.1737 13.9305 7
      vertex 17.2766 16.2238 0
      vertex 17.2766 16.2238 7
    endloop
  endfacet
  facet normal 0.770527 0.637407 0
    outer loop
      vertex 17.2766 16.2238 0
      vertex 19.1737 13.9305 7
      vertex 19.1737 13.9305 0
    endloop
  endfacet
  facet normal 0.844318 0.535842 0
    outer loop
      vertex 20.7685 11.4176 7
      vertex 19.1737 13.9305 0
      vertex 19.1737 13.9305 7
    endloop
  endfacet
  facet normal 0.844318 0.535842 0
    outer loop
      vertex 19.1737 13.9305 0
      vertex 20.7685 11.4176 7
      vertex 20.7685 11.4176 0
    endloop
  endfacet
  facet normal 0.125324 0.992116 -0
    outer loop
      vertex 4.44094 23.2802 0
      vertex 1.48813 23.6532 7
      vertex 4.44094 23.2802 7
    endloop
  endfacet
  facet normal 0.125324 0.992116 0
    outer loop
      vertex 1.48813 23.6532 7
      vertex 4.44094 23.2802 0
      vertex 1.48813 23.6532 0
    endloop
  endfacet
  facet normal 0.587792 0.809012 -0
    outer loop
      vertex 15.1069 18.2612 0
      vertex 12.6991 20.0106 7
      vertex 15.1069 18.2612 7
    endloop
  endfacet
  facet normal 0.587792 0.809012 0
    outer loop
      vertex 12.6991 20.0106 7
      vertex 15.1069 18.2612 0
      vertex 12.6991 20.0106 0
    endloop
  endfacet
  facet normal -0.844318 0.535842 0
    outer loop
      vertex -20.7685 11.4176 0
      vertex -19.1737 13.9305 7
      vertex -19.1737 13.9305 0
    endloop
  endfacet
  facet normal -0.844318 0.535842 0
    outer loop
      vertex -19.1737 13.9305 7
      vertex -20.7685 11.4176 0
      vertex -20.7685 11.4176 7
    endloop
  endfacet
  facet normal -0.770527 0.637407 0
    outer loop
      vertex -19.1737 13.9305 0
      vertex -17.2766 16.2238 7
      vertex -17.2766 16.2238 0
    endloop
  endfacet
  facet normal -0.770527 0.637407 0
    outer loop
      vertex -17.2766 16.2238 7
      vertex -19.1737 13.9305 0
      vertex -19.1737 13.9305 7
    endloop
  endfacet
  facet normal -0.982287 0.187382 0
    outer loop
      vertex -23.5131 2.9704 0
      vertex -22.9554 5.89395 7
      vertex -22.9554 5.89395 0
    endloop
  endfacet
  facet normal -0.982287 0.187382 0
    outer loop
      vertex -22.9554 5.89395 7
      vertex -23.5131 2.9704 0
      vertex -23.5131 2.9704 7
    endloop
  endfacet
  facet normal 0 0 1
    outer loop
      vertex 17.5 0 7
      vertex 23.7 0 7
      vertex 23.5131 2.9704 7
    endloop
  endfacet
  facet normal 0 0 1
    outer loop
      vertex 17.362 2.19333 7
      vertex 23.5131 2.9704 7
      vertex 22.9554 5.89395 7
    endloop
  endfacet
  facet normal 0 0 1
    outer loop
      vertex 23.7 0 7
      vertex 17.5 0 7
      vertex 23.5131 -2.9704 7
    endloop
  endfacet
  facet normal 0 0 1
    outer loop
      vertex 16.9502 4.35207 7
      vertex 22.9554 5.89395 7
      vertex 22.0357 8.72455 7
    endloop
  endfacet
  facet normal -0 0 1
    outer loop
      vertex 17.362 -2.19333 7
      vertex 23.5131 -2.9704 7
      vertex 17.5 0 7
    endloop
  endfacet
  facet normal 0 0 1
    outer loop
      vertex 16.2711 6.44218 7
      vertex 22.0357 8.72455 7
      vertex 20.7685 11.4176 7
    endloop
  endfacet
  facet normal 0 0 1
    outer loop
      vertex 23.5131 -2.9704 7
      vertex 17.362 -2.19333 7
      vertex 22.9554 -5.89395 7
    endloop
  endfacet
  facet normal 0 0 1
    outer loop
      vertex 15.3354 8.43069 7
      vertex 20.7685 11.4176 7
      vertex 19.1737 13.9305 7
    endloop
  endfacet
  facet normal -0 0 1
    outer loop
      vertex 16.9502 -4.35207 7
      vertex 22.9554 -5.89395 7
      vertex 17.362 -2.19333 7
    endloop
  endfacet
  facet normal 0 0 1
    outer loop
      vertex 22.9554 -5.89395 7
      vertex 16.9502 -4.35207 7
      vertex 22.0357 -8.72455 7
    endloop
  endfacet
  facet normal 0 0 1
    outer loop
      vertex 23.5131 2.9704 7
      vertex 17.362 2.19333 7
      vertex 17.5 0 7
    endloop
  endfacet
  facet normal 0 0 1
    outer loop
      vertex 14.1578 10.2862 7
      vertex 19.1737 13.9305 7
      vertex 17.2766 16.2238 7
    endloop
  endfacet
  facet normal 0 0 1
    outer loop
      vertex 22.9554 5.89395 7
      vertex 16.9502 4.35207 7
      vertex 17.362 2.19333 7
    endloop
  endfacet
  facet normal 0 0 1
    outer loop
      vertex 22.0357 8.72455 7
      vertex 16.2711 6.44218 7
      vertex 16.9502 4.35207 7
    endloop
  endfacet
  facet normal 0 0 1
    outer loop
      vertex 20.7685 11.4176 7
      vertex 15.3354 8.43069 7
      vertex 16.2711 6.44218 7
    endloop
  endfacet
  facet normal 0 0 1
    outer loop
      vertex 12.757 11.9796 7
      vertex 17.2766 16.2238 7
      vertex 15.1069 18.2612 7
    endloop
  endfacet
  facet normal 0 0 1
    outer loop
      vertex 19.1737 13.9305 7
      vertex 14.1578 10.2862 7
      vertex 15.3354 8.43069 7
    endloop
  endfacet
  facet normal 0 0 1
    outer loop
      vertex 17.2766 16.2238 7
      vertex 12.757 11.9796 7
      vertex 14.1578 10.2862 7
    endloop
  endfacet
  facet normal 0 0 1
    outer loop
      vertex 11.1549 13.484 7
      vertex 15.1069 18.2612 7
      vertex 12.6991 20.0106 7
    endloop
  endfacet
  facet normal 0 0 1
    outer loop
      vertex 15.1069 18.2612 7
      vertex 11.1549 13.484 7
      vertex 12.757 11.9796 7
    endloop
  endfacet
  facet normal 0 0 1
    outer loop
      vertex 9.37697 14.7757 7
      vertex 12.6991 20.0106 7
      vertex 10.091 21.4444 7
    endloop
  endfacet
  facet normal 0 0 1
    outer loop
      vertex 12.6991 20.0106 7
      vertex 9.37697 14.7757 7
      vertex 11.1549 13.484 7
    endloop
  endfacet
  facet normal 0 0 1
    outer loop
      vertex 10.091 21.4444 7
      vertex 7.45114 15.8345 7
      vertex 9.37697 14.7757 7
    endloop
  endfacet
  facet normal 0 0 1
    outer loop
      vertex 7.3237 22.54 7
      vertex 7.45114 15.8345 7
      vertex 10.091 21.4444 7
    endloop
  endfacet
  facet normal 0 0 1
    outer loop
      vertex 7.3237 22.54 7
      vertex 5.4078 16.6435 7
      vertex 7.45114 15.8345 7
    endloop
  endfacet
  facet normal 0 0 1
    outer loop
      vertex 4.44094 23.2802 7
      vertex 5.4078 16.6435 7
      vertex 7.3237 22.54 7
    endloop
  endfacet
  facet normal 0 0 1
    outer loop
      vertex 4.44094 23.2802 7
      vertex 3.27917 17.19 7
      vertex 5.4078 16.6435 7
    endloop
  endfacet
  facet normal 0 0 1
    outer loop
      vertex 1.48813 23.6532 7
      vertex 3.27917 17.19 7
      vertex 4.44094 23.2802 7
    endloop
  endfacet
  facet normal 0 0 1
    outer loop
      vertex 1.48813 23.6532 7
      vertex 1.09883 17.4655 7
      vertex 3.27917 17.19 7
    endloop
  endfacet
  facet normal 0 0 1
    outer loop
      vertex 1.48813 23.6532 7
      vertex -1.09883 17.4655 7
      vertex 1.09883 17.4655 7
    endloop
  endfacet
  facet normal -0 0 1
    outer loop
      vertex -1.48813 23.6532 7
      vertex -1.09883 17.4655 7
      vertex 1.48813 23.6532 7
    endloop
  endfacet
  facet normal 0 0 1
    outer loop
      vertex -1.48813 23.6532 7
      vertex -3.27917 17.19 7
      vertex -1.09883 17.4655 7
    endloop
  endfacet
  facet normal -0 0 1
    outer loop
      vertex -4.44094 23.2802 7
      vertex -3.27917 17.19 7
      vertex -1.48813 23.6532 7
    endloop
  endfacet
  facet normal 0 0 1
    outer loop
      vertex -4.44094 23.2802 7
      vertex -5.4078 16.6435 7
      vertex -3.27917 17.19 7
    endloop
  endfacet
  facet normal -0 0 1
    outer loop
      vertex -7.3237 22.54 7
      vertex -5.4078 16.6435 7
      vertex -4.44094 23.2802 7
    endloop
  endfacet
  facet normal 0 0 1
    outer loop
      vertex -7.3237 22.54 7
      vertex -7.45114 15.8345 7
      vertex -5.4078 16.6435 7
    endloop
  endfacet
  facet normal -0 0 1
    outer loop
      vertex -10.091 21.4444 7
      vertex -7.45114 15.8345 7
      vertex -7.3237 22.54 7
    endloop
  endfacet
  facet normal 0 0 1
    outer loop
      vertex -7.45114 15.8345 7
      vertex -10.091 21.4444 7
      vertex -9.37697 14.7757 7
    endloop
  endfacet
  facet normal -0 0 1
    outer loop
      vertex -12.6991 20.0106 7
      vertex -9.37697 14.7757 7
      vertex -10.091 21.4444 7
    endloop
  endfacet
  facet normal 0 0 1
    outer loop
      vertex -9.37697 14.7757 7
      vertex -12.6991 20.0106 7
      vertex -11.1549 13.484 7
    endloop
  endfacet
  facet normal -0 0 1
    outer loop
      vertex -15.1069 18.2612 7
      vertex -11.1549 13.484 7
      vertex -12.6991 20.0106 7
    endloop
  endfacet
  facet normal 0 0 1
    outer loop
      vertex -11.1549 13.484 7
      vertex -15.1069 18.2612 7
      vertex -12.757 11.9796 7
    endloop
  endfacet
  facet normal -0 0 1
    outer loop
      vertex -17.2766 16.2238 7
      vertex -12.757 11.9796 7
      vertex -15.1069 18.2612 7
    endloop
  endfacet
  facet normal 0 0 1
    outer loop
      vertex -12.757 11.9796 7
      vertex -17.2766 16.2238 7
      vertex -14.1578 10.2862 7
    endloop
  endfacet
  facet normal -0 0 1
    outer loop
      vertex -19.1737 13.9305 7
      vertex -14.1578 10.2862 7
      vertex -17.2766 16.2238 7
    endloop
  endfacet
  facet normal 0 0 1
    outer loop
      vertex -14.1578 10.2862 7
      vertex -19.1737 13.9305 7
      vertex -15.3354 8.43069 7
    endloop
  endfacet
  facet normal -0 0 1
    outer loop
      vertex -20.7685 11.4176 7
      vertex -15.3354 8.43069 7
      vertex -19.1737 13.9305 7
    endloop
  endfacet
  facet normal 0 0 1
    outer loop
      vertex -15.3354 8.43069 7
      vertex -20.7685 11.4176 7
      vertex -16.2711 6.44218 7
    endloop
  endfacet
  facet normal -0 0 1
    outer loop
      vertex -22.0357 8.72455 7
      vertex -16.2711 6.44218 7
      vertex -20.7685 11.4176 7
    endloop
  endfacet
  facet normal 0 0 1
    outer loop
      vertex -16.2711 6.44218 7
      vertex -22.0357 8.72455 7
      vertex -16.9502 4.35207 7
    endloop
  endfacet
  facet normal -0 0 1
    outer loop
      vertex 16.2711 -6.44218 7
      vertex 22.0357 -8.72455 7
      vertex 16.9502 -4.35207 7
    endloop
  endfacet
  facet normal 0 0 1
    outer loop
      vertex 22.0357 -8.72455 7
      vertex 16.2711 -6.44218 7
      vertex 20.7685 -11.4176 7
    endloop
  endfacet
  facet normal -0 0 1
    outer loop
      vertex 15.3354 -8.43069 7
      vertex 20.7685 -11.4176 7
      vertex 16.2711 -6.44218 7
    endloop
  endfacet
  facet normal 0 0 1
    outer loop
      vertex 20.7685 -11.4176 7
      vertex 15.3354 -8.43069 7
      vertex 19.1737 -13.9305 7
    endloop
  endfacet
  facet normal -0 0 1
    outer loop
      vertex 14.1578 -10.2862 7
      vertex 19.1737 -13.9305 7
      vertex 15.3354 -8.43069 7
    endloop
  endfacet
  facet normal 0 0 1
    outer loop
      vertex 19.1737 -13.9305 7
      vertex 14.1578 -10.2862 7
      vertex 17.2766 -16.2238 7
    endloop
  endfacet
  facet normal -0 0 1
    outer loop
      vertex 12.757 -11.9796 7
      vertex 17.2766 -16.2238 7
      vertex 14.1578 -10.2862 7
    endloop
  endfacet
  facet normal 0 0 1
    outer loop
      vertex 17.2766 -16.2238 7
      vertex 12.757 -11.9796 7
      vertex 15.1069 -18.2612 7
    endloop
  endfacet
  facet normal -0 0 1
    outer loop
      vertex 11.1549 -13.484 7
      vertex 15.1069 -18.2612 7
      vertex 12.757 -11.9796 7
    endloop
  endfacet
  facet normal 0 0 1
    outer loop
      vertex 15.1069 -18.2612 7
      vertex 11.1549 -13.484 7
      vertex 12.6991 -20.0106 7
    endloop
  endfacet
  facet normal -0 0 1
    outer loop
      vertex 9.37697 -14.7757 7
      vertex 12.6991 -20.0106 7
      vertex 11.1549 -13.484 7
    endloop
  endfacet
  facet normal 0 0 1
    outer loop
      vertex 12.6991 -20.0106 7
      vertex 9.37697 -14.7757 7
      vertex 10.091 -21.4444 7
    endloop
  endfacet
  facet normal -0 0 1
    outer loop
      vertex 7.45114 -15.8345 7
      vertex 10.091 -21.4444 7
      vertex 9.37697 -14.7757 7
    endloop
  endfacet
  facet normal 0 0 1
    outer loop
      vertex 7.45114 -15.8345 7
      vertex 7.3237 -22.54 7
      vertex 10.091 -21.4444 7
    endloop
  endfacet
  facet normal -0 0 1
    outer loop
      vertex 5.4078 -16.6435 7
      vertex 7.3237 -22.54 7
      vertex 7.45114 -15.8345 7
    endloop
  endfacet
  facet normal 0 0 1
    outer loop
      vertex 5.4078 -16.6435 7
      vertex 4.44094 -23.2802 7
      vertex 7.3237 -22.54 7
    endloop
  endfacet
  facet normal -0 0 1
    outer loop
      vertex 3.27917 -17.19 7
      vertex 4.44094 -23.2802 7
      vertex 5.4078 -16.6435 7
    endloop
  endfacet
  facet normal 0 0 1
    outer loop
      vertex 3.27917 -17.19 7
      vertex 1.48813 -23.6532 7
      vertex 4.44094 -23.2802 7
    endloop
  endfacet
  facet normal -0 0 1
    outer loop
      vertex 1.09883 -17.4655 7
      vertex 1.48813 -23.6532 7
      vertex 3.27917 -17.19 7
    endloop
  endfacet
  facet normal -0 0 1
    outer loop
      vertex -1.09883 -17.4655 7
      vertex 1.48813 -23.6532 7
      vertex 1.09883 -17.4655 7
    endloop
  endfacet
  facet normal 0 0 1
    outer loop
      vertex -1.09883 -17.4655 7
      vertex -1.48813 -23.6532 7
      vertex 1.48813 -23.6532 7
    endloop
  endfacet
  facet normal 0 0 1
    outer loop
      vertex -3.27917 -17.19 7
      vertex -1.48813 -23.6532 7
      vertex -1.09883 -17.4655 7
    endloop
  endfacet
  facet normal 0 0 1
    outer loop
      vertex -3.27917 -17.19 7
      vertex -4.44094 -23.2802 7
      vertex -1.48813 -23.6532 7
    endloop
  endfacet
  facet normal 0 0 1
    outer loop
      vertex -5.4078 -16.6435 7
      vertex -4.44094 -23.2802 7
      vertex -3.27917 -17.19 7
    endloop
  endfacet
  facet normal 0 0 1
    outer loop
      vertex -5.4078 -16.6435 7
      vertex -7.3237 -22.54 7
      vertex -4.44094 -23.2802 7
    endloop
  endfacet
  facet normal 0 0 1
    outer loop
      vertex -7.45114 -15.8345 7
      vertex -7.3237 -22.54 7
      vertex -5.4078 -16.6435 7
    endloop
  endfacet
  facet normal 0 0 1
    outer loop
      vertex -10.091 -21.4444 7
      vertex -7.45114 -15.8345 7
      vertex -9.37697 -14.7757 7
    endloop
  endfacet
  facet normal 0 0 1
    outer loop
      vertex -7.45114 -15.8345 7
      vertex -10.091 -21.4444 7
      vertex -7.3237 -22.54 7
    endloop
  endfacet
  facet normal 0 0 1
    outer loop
      vertex -12.6991 -20.0106 7
      vertex -9.37697 -14.7757 7
      vertex -11.1549 -13.484 7
    endloop
  endfacet
  facet normal 0 0 1
    outer loop
      vertex -9.37697 -14.7757 7
      vertex -12.6991 -20.0106 7
      vertex -10.091 -21.4444 7
    endloop
  endfacet
  facet normal 0 0 1
    outer loop
      vertex -15.1069 -18.2612 7
      vertex -11.1549 -13.484 7
      vertex -12.757 -11.9796 7
    endloop
  endfacet
  facet normal 0 0 1
    outer loop
      vertex -17.2766 -16.2238 7
      vertex -12.757 -11.9796 7
      vertex -14.1578 -10.2862 7
    endloop
  endfacet
  facet normal 0 0 1
    outer loop
      vertex -11.1549 -13.484 7
      vertex -15.1069 -18.2612 7
      vertex -12.6991 -20.0106 7
    endloop
  endfacet
  facet normal 0 0 1
    outer loop
      vertex -19.1737 -13.9305 7
      vertex -14.1578 -10.2862 7
      vertex -15.3354 -8.43069 7
    endloop
  endfacet
  facet normal 0 0 1
    outer loop
      vertex -20.7685 -11.4176 7
      vertex -15.3354 -8.43069 7
      vertex -16.2711 -6.44218 7
    endloop
  endfacet
  facet normal 0 0 1
    outer loop
      vertex -22.0357 -8.72455 7
      vertex -16.2711 -6.44218 7
      vertex -16.9502 -4.35207 7
    endloop
  endfacet
  facet normal 0 0 1
    outer loop
      vertex -12.757 -11.9796 7
      vertex -17.2766 -16.2238 7
      vertex -15.1069 -18.2612 7
    endloop
  endfacet
  facet normal 0 0 1
    outer loop
      vertex -22.9554 -5.89395 7
      vertex -16.9502 -4.35207 7
      vertex -17.362 -2.19333 7
    endloop
  endfacet
  facet normal 0 0 1
    outer loop
      vertex -23.5131 -2.9704 7
      vertex -17.362 -2.19333 7
      vertex -17.5 0 7
    endloop
  endfacet
  facet normal -0 0 1
    outer loop
      vertex -22.9554 5.89395 7
      vertex -16.9502 4.35207 7
      vertex -22.0357 8.72455 7
    endloop
  endfacet
  facet normal 0 0 1
    outer loop
      vertex -14.1578 -10.2862 7
      vertex -19.1737 -13.9305 7
      vertex -17.2766 -16.2238 7
    endloop
  endfacet
  facet normal 0 0 1
    outer loop
      vertex -16.9502 4.35207 7
      vertex -22.9554 5.89395 7
      vertex -17.362 2.19333 7
    endloop
  endfacet
  facet normal 0 0 1
    outer loop
      vertex -15.3354 -8.43069 7
      vertex -20.7685 -11.4176 7
      vertex -19.1737 -13.9305 7
    endloop
  endfacet
  facet normal -0 0 1
    outer loop
      vertex -23.5131 2.9704 7
      vertex -17.362 2.19333 7
      vertex -22.9554 5.89395 7
    endloop
  endfacet
  facet normal 0 0 1
    outer loop
      vertex -16.2711 -6.44218 7
      vertex -22.0357 -8.72455 7
      vertex -20.7685 -11.4176 7
    endloop
  endfacet
  facet normal 0 0 1
    outer loop
      vertex -17.362 2.19333 7
      vertex -23.5131 2.9704 7
      vertex -17.5 0 7
    endloop
  endfacet
  facet normal 0 0 1
    outer loop
      vertex -16.9502 -4.35207 7
      vertex -22.9554 -5.89395 7
      vertex -22.0357 -8.72455 7
    endloop
  endfacet
  facet normal 0 0 1
    outer loop
      vertex -23.7 0 7
      vertex -17.5 0 7
      vertex -23.5131 2.9704 7
    endloop
  endfacet
  facet normal 0 0 1
    outer loop
      vertex -17.362 -2.19333 7
      vertex -23.5131 -2.9704 7
      vertex -22.9554 -5.89395 7
    endloop
  endfacet
  facet normal 0 0 1
    outer loop
      vertex -17.5 0 7
      vertex -23.7 0 7
      vertex -23.5131 -2.9704 7
    endloop
  endfacet
  facet normal -0.587792 0.809012 0
    outer loop
      vertex -12.6991 20.0106 0
      vertex -15.1069 18.2612 7
      vertex -12.6991 20.0106 7
    endloop
  endfacet
  facet normal -0.587792 0.809012 0
    outer loop
      vertex -15.1069 18.2612 7
      vertex -12.6991 20.0106 0
      vertex -15.1069 18.2612 0
    endloop
  endfacet
  facet normal -0.2487 0.96858 0
    outer loop
      vertex -4.44094 23.2802 0
      vertex -7.3237 22.54 7
      vertex -4.44094 23.2802 7
    endloop
  endfacet
  facet normal -0.2487 0.96858 0
    outer loop
      vertex -7.3237 22.54 7
      vertex -4.44094 23.2802 0
      vertex -7.3237 22.54 0
    endloop
  endfacet
  facet normal 0.998026 -0.0627966 0
    outer loop
      vertex 23.5131 -2.9704 7
      vertex 23.7 0 0
      vertex 23.7 0 7
    endloop
  endfacet
  facet normal 0.998026 -0.0627966 0
    outer loop
      vertex 23.7 0 0
      vertex 23.5131 -2.9704 7
      vertex 23.5131 -2.9704 0
    endloop
  endfacet
  facet normal 0.904834 -0.425765 0
    outer loop
      vertex 20.7685 -11.4176 7
      vertex 22.0357 -8.72455 0
      vertex 22.0357 -8.72455 7
    endloop
  endfacet
  facet normal 0.904834 -0.425765 0
    outer loop
      vertex 22.0357 -8.72455 0
      vertex 20.7685 -11.4176 7
      vertex 20.7685 -11.4176 0
    endloop
  endfacet
  facet normal -0.684532 -0.728983 0
    outer loop
      vertex -17.2766 -16.2238 0
      vertex -15.1069 -18.2612 7
      vertex -17.2766 -16.2238 7
    endloop
  endfacet
  facet normal -0.684532 -0.728983 -0
    outer loop
      vertex -15.1069 -18.2612 7
      vertex -17.2766 -16.2238 0
      vertex -15.1069 -18.2612 0
    endloop
  endfacet
  facet normal -0.904834 -0.425765 0
    outer loop
      vertex -20.7685 -11.4176 0
      vertex -22.0357 -8.72455 7
      vertex -22.0357 -8.72455 0
    endloop
  endfacet
  facet normal -0.904834 -0.425765 0
    outer loop
      vertex -22.0357 -8.72455 7
      vertex -20.7685 -11.4176 0
      vertex -20.7685 -11.4176 7
    endloop
  endfacet
  facet normal -0.844318 -0.535842 0
    outer loop
      vertex -19.1737 -13.9305 0
      vertex -20.7685 -11.4176 7
      vertex -20.7685 -11.4176 0
    endloop
  endfacet
  facet normal -0.844318 -0.535842 0
    outer loop
      vertex -20.7685 -11.4176 7
      vertex -19.1737 -13.9305 0
      vertex -19.1737 -13.9305 7
    endloop
  endfacet
  facet normal 0 0 -1
    outer loop
      vertex 17.5 0 0
      vertex 23.7 0 0
      vertex 23.5131 -2.9704 0
    endloop
  endfacet
  facet normal 0 0 -1
    outer loop
      vertex 17.362 -2.19333 0
      vertex 23.5131 -2.9704 0
      vertex 22.9554 -5.89395 0
    endloop
  endfacet
  facet normal 0 0 -1
    outer loop
      vertex 23.7 0 0
      vertex 17.5 0 0
      vertex 23.5131 2.9704 0
    endloop
  endfacet
  facet normal 0 0 -1
    outer loop
      vertex 16.9502 -4.35207 0
      vertex 22.9554 -5.89395 0
      vertex 22.0357 -8.72455 0
    endloop
  endfacet
  facet normal 0 0 -1
    outer loop
      vertex 17.362 2.19333 0
      vertex 23.5131 2.9704 0
      vertex 17.5 0 0
    endloop
  endfacet
  facet normal 0 0 -1
    outer loop
      vertex 16.2711 -6.44218 0
      vertex 22.0357 -8.72455 0
      vertex 20.7685 -11.4176 0
    endloop
  endfacet
  facet normal -0 0 -1
    outer loop
      vertex 23.5131 2.9704 0
      vertex 17.362 2.19333 0
      vertex 22.9554 5.89395 0
    endloop
  endfacet
  facet normal 0 0 -1
    outer loop
      vertex 15.3354 -8.43069 0
      vertex 20.7685 -11.4176 0
      vertex 19.1737 -13.9305 0
    endloop
  endfacet
  facet normal 0 0 -1
    outer loop
      vertex 16.9502 4.35207 0
      vertex 22.9554 5.89395 0
      vertex 17.362 2.19333 0
    endloop
  endfacet
  facet normal -0 0 -1
    outer loop
      vertex 22.9554 5.89395 0
      vertex 16.9502 4.35207 0
      vertex 22.0357 8.72455 0
    endloop
  endfacet
  facet normal 0 0 -1
    outer loop
      vertex 23.5131 -2.9704 0
      vertex 17.362 -2.19333 0
      vertex 17.5 0 0
    endloop
  endfacet
  facet normal 0 0 -1
    outer loop
      vertex 14.1578 -10.2862 0
      vertex 19.1737 -13.9305 0
      vertex 17.2766 -16.2238 0
    endloop
  endfacet
  facet normal 0 0 -1
    outer loop
      vertex 22.9554 -5.89395 0
      vertex 16.9502 -4.35207 0
      vertex 17.362 -2.19333 0
    endloop
  endfacet
  facet normal 0 0 -1
    outer loop
      vertex 22.0357 -8.72455 0
      vertex 16.2711 -6.44218 0
      vertex 16.9502 -4.35207 0
    endloop
  endfacet
  facet normal 0 0 -1
    outer loop
      vertex 20.7685 -11.4176 0
      vertex 15.3354 -8.43069 0
      vertex 16.2711 -6.44218 0
    endloop
  endfacet
  facet normal 0 0 -1
    outer loop
      vertex 12.757 -11.9796 0
      vertex 17.2766 -16.2238 0
      vertex 15.1069 -18.2612 0
    endloop
  endfacet
  facet normal 0 0 -1
    outer loop
      vertex 19.1737 -13.9305 0
      vertex 14.1578 -10.2862 0
      vertex 15.3354 -8.43069 0
    endloop
  endfacet
  facet normal 0 0 -1
    outer loop
      vertex 17.2766 -16.2238 0
      vertex 12.757 -11.9796 0
      vertex 14.1578 -10.2862 0
    endloop
  endfacet
  facet normal 0 0 -1
    outer loop
      vertex 11.1549 -13.484 0
      vertex 15.1069 -18.2612 0
      vertex 12.6991 -20.0106 0
    endloop
  endfacet
  facet normal 0 0 -1
    outer loop
      vertex 15.1069 -18.2612 0
      vertex 11.1549 -13.484 0
      vertex 12.757 -11.9796 0
    endloop
  endfacet
  facet normal 0 0 -1
    outer loop
      vertex 9.37697 -14.7757 0
      vertex 12.6991 -20.0106 0
      vertex 10.091 -21.4444 0
    endloop
  endfacet
  facet normal 0 0 -1
    outer loop
      vertex 12.6991 -20.0106 0
      vertex 9.37697 -14.7757 0
      vertex 11.1549 -13.484 0
    endloop
  endfacet
  facet normal 0 0 -1
    outer loop
      vertex 10.091 -21.4444 0
      vertex 7.45114 -15.8345 0
      vertex 9.37697 -14.7757 0
    endloop
  endfacet
  facet normal 0 0 -1
    outer loop
      vertex 7.3237 -22.54 0
      vertex 7.45114 -15.8345 0
      vertex 10.091 -21.4444 0
    endloop
  endfacet
  facet normal 0 0 -1
    outer loop
      vertex 7.3237 -22.54 0
      vertex 5.4078 -16.6435 0
      vertex 7.45114 -15.8345 0
    endloop
  endfacet
  facet normal 0 0 -1
    outer loop
      vertex 4.44094 -23.2802 0
      vertex 5.4078 -16.6435 0
      vertex 7.3237 -22.54 0
    endloop
  endfacet
  facet normal 0 0 -1
    outer loop
      vertex 4.44094 -23.2802 0
      vertex 3.27917 -17.19 0
      vertex 5.4078 -16.6435 0
    endloop
  endfacet
  facet normal 0 0 -1
    outer loop
      vertex 1.48813 -23.6532 0
      vertex 3.27917 -17.19 0
      vertex 4.44094 -23.2802 0
    endloop
  endfacet
  facet normal 0 0 -1
    outer loop
      vertex 1.48813 -23.6532 0
      vertex 1.09883 -17.4655 0
      vertex 3.27917 -17.19 0
    endloop
  endfacet
  facet normal 0 0 -1
    outer loop
      vertex 1.48813 -23.6532 0
      vertex -1.09883 -17.4655 0
      vertex 1.09883 -17.4655 0
    endloop
  endfacet
  facet normal 0 0 -1
    outer loop
      vertex -1.48813 -23.6532 0
      vertex -1.09883 -17.4655 0
      vertex 1.48813 -23.6532 0
    endloop
  endfacet
  facet normal 0 0 -1
    outer loop
      vertex -1.48813 -23.6532 0
      vertex -3.27917 -17.19 0
      vertex -1.09883 -17.4655 0
    endloop
  endfacet
  facet normal 0 0 -1
    outer loop
      vertex -4.44094 -23.2802 0
      vertex -3.27917 -17.19 0
      vertex -1.48813 -23.6532 0
    endloop
  endfacet
  facet normal 0 0 -1
    outer loop
      vertex -4.44094 -23.2802 0
      vertex -5.4078 -16.6435 0
      vertex -3.27917 -17.19 0
    endloop
  endfacet
  facet normal 0 0 -1
    outer loop
      vertex -7.3237 -22.54 0
      vertex -5.4078 -16.6435 0
      vertex -4.44094 -23.2802 0
    endloop
  endfacet
  facet normal 0 0 -1
    outer loop
      vertex -7.3237 -22.54 0
      vertex -7.45114 -15.8345 0
      vertex -5.4078 -16.6435 0
    endloop
  endfacet
  facet normal 0 0 -1
    outer loop
      vertex -10.091 -21.4444 0
      vertex -7.45114 -15.8345 0
      vertex -7.3237 -22.54 0
    endloop
  endfacet
  facet normal -0 0 -1
    outer loop
      vertex -7.45114 -15.8345 0
      vertex -10.091 -21.4444 0
      vertex -9.37697 -14.7757 0
    endloop
  endfacet
  facet normal 0 0 -1
    outer loop
      vertex -12.6991 -20.0106 0
      vertex -9.37697 -14.7757 0
      vertex -10.091 -21.4444 0
    endloop
  endfacet
  facet normal -0 0 -1
    outer loop
      vertex -9.37697 -14.7757 0
      vertex -12.6991 -20.0106 0
      vertex -11.1549 -13.484 0
    endloop
  endfacet
  facet normal 0 0 -1
    outer loop
      vertex -15.1069 -18.2612 0
      vertex -11.1549 -13.484 0
      vertex -12.6991 -20.0106 0
    endloop
  endfacet
  facet normal -0 0 -1
    outer loop
      vertex -11.1549 -13.484 0
      vertex -15.1069 -18.2612 0
      vertex -12.757 -11.9796 0
    endloop
  endfacet
  facet normal 0 0 -1
    outer loop
      vertex -17.2766 -16.2238 0
      vertex -12.757 -11.9796 0
      vertex -15.1069 -18.2612 0
    endloop
  endfacet
  facet normal -0 0 -1
    outer loop
      vertex -12.757 -11.9796 0
      vertex -17.2766 -16.2238 0
      vertex -14.1578 -10.2862 0
    endloop
  endfacet
  facet normal 0 0 -1
    outer loop
      vertex -19.1737 -13.9305 0
      vertex -14.1578 -10.2862 0
      vertex -17.2766 -16.2238 0
    endloop
  endfacet
  facet normal -0 0 -1
    outer loop
      vertex -14.1578 -10.2862 0
      vertex -19.1737 -13.9305 0
      vertex -15.3354 -8.43069 0
    endloop
  endfacet
  facet normal 0 0 -1
    outer loop
      vertex -20.7685 -11.4176 0
      vertex -15.3354 -8.43069 0
      vertex -19.1737 -13.9305 0
    endloop
  endfacet
  facet normal -0 0 -1
    outer loop
      vertex -15.3354 -8.43069 0
      vertex -20.7685 -11.4176 0
      vertex -16.2711 -6.44218 0
    endloop
  endfacet
  facet normal 0 0 -1
    outer loop
      vertex -22.0357 -8.72455 0
      vertex -16.2711 -6.44218 0
      vertex -20.7685 -11.4176 0
    endloop
  endfacet
  facet normal -0 0 -1
    outer loop
      vertex -16.2711 -6.44218 0
      vertex -22.0357 -8.72455 0
      vertex -16.9502 -4.35207 0
    endloop
  endfacet
  facet normal 0 0 -1
    outer loop
      vertex 16.2711 6.44218 0
      vertex 22.0357 8.72455 0
      vertex 16.9502 4.35207 0
    endloop
  endfacet
  facet normal -0 0 -1
    outer loop
      vertex 22.0357 8.72455 0
      vertex 16.2711 6.44218 0
      vertex 20.7685 11.4176 0
    endloop
  endfacet
  facet normal 0 0 -1
    outer loop
      vertex 15.3354 8.43069 0
      vertex 20.7685 11.4176 0
      vertex 16.2711 6.44218 0
    endloop
  endfacet
  facet normal -0 0 -1
    outer loop
      vertex 20.7685 11.4176 0
      vertex 15.3354 8.43069 0
      vertex 19.1737 13.9305 0
    endloop
  endfacet
  facet normal 0 0 -1
    outer loop
      vertex 14.1578 10.2862 0
      vertex 19.1737 13.9305 0
      vertex 15.3354 8.43069 0
    endloop
  endfacet
  facet normal -0 0 -1
    outer loop
      vertex 19.1737 13.9305 0
      vertex 14.1578 10.2862 0
      vertex 17.2766 16.2238 0
    endloop
  endfacet
  facet normal 0 0 -1
    outer loop
      vertex 12.757 11.9796 0
      vertex 17.2766 16.2238 0
      vertex 14.1578 10.2862 0
    endloop
  endfacet
  facet normal -0 0 -1
    outer loop
      vertex 17.2766 16.2238 0
      vertex 12.757 11.9796 0
      vertex 15.1069 18.2612 0
    endloop
  endfacet
  facet normal 0 0 -1
    outer loop
      vertex 11.1549 13.484 0
      vertex 15.1069 18.2612 0
      vertex 12.757 11.9796 0
    endloop
  endfacet
  facet normal -0 0 -1
    outer loop
      vertex 15.1069 18.2612 0
      vertex 11.1549 13.484 0
      vertex 12.6991 20.0106 0
    endloop
  endfacet
  facet normal 0 0 -1
    outer loop
      vertex 9.37697 14.7757 0
      vertex 12.6991 20.0106 0
      vertex 11.1549 13.484 0
    endloop
  endfacet
  facet normal -0 0 -1
    outer loop
      vertex 12.6991 20.0106 0
      vertex 9.37697 14.7757 0
      vertex 10.091 21.4444 0
    endloop
  endfacet
  facet normal 0 0 -1
    outer loop
      vertex 7.45114 15.8345 0
      vertex 10.091 21.4444 0
      vertex 9.37697 14.7757 0
    endloop
  endfacet
  facet normal 0 0 -1
    outer loop
      vertex 7.45114 15.8345 0
      vertex 7.3237 22.54 0
      vertex 10.091 21.4444 0
    endloop
  endfacet
  facet normal 0 0 -1
    outer loop
      vertex 5.4078 16.6435 0
      vertex 7.3237 22.54 0
      vertex 7.45114 15.8345 0
    endloop
  endfacet
  facet normal 0 0 -1
    outer loop
      vertex 5.4078 16.6435 0
      vertex 4.44094 23.2802 0
      vertex 7.3237 22.54 0
    endloop
  endfacet
  facet normal 0 0 -1
    outer loop
      vertex 3.27917 17.19 0
      vertex 4.44094 23.2802 0
      vertex 5.4078 16.6435 0
    endloop
  endfacet
  facet normal 0 0 -1
    outer loop
      vertex 3.27917 17.19 0
      vertex 1.48813 23.6532 0
      vertex 4.44094 23.2802 0
    endloop
  endfacet
  facet normal 0 0 -1
    outer loop
      vertex 1.09883 17.4655 0
      vertex 1.48813 23.6532 0
      vertex 3.27917 17.19 0
    endloop
  endfacet
  facet normal 0 0 -1
    outer loop
      vertex -1.09883 17.4655 0
      vertex 1.48813 23.6532 0
      vertex 1.09883 17.4655 0
    endloop
  endfacet
  facet normal 0 0 -1
    outer loop
      vertex -1.09883 17.4655 0
      vertex -1.48813 23.6532 0
      vertex 1.48813 23.6532 0
    endloop
  endfacet
  facet normal 0 0 -1
    outer loop
      vertex -3.27917 17.19 0
      vertex -1.48813 23.6532 0
      vertex -1.09883 17.4655 0
    endloop
  endfacet
  facet normal 0 0 -1
    outer loop
      vertex -3.27917 17.19 0
      vertex -4.44094 23.2802 0
      vertex -1.48813 23.6532 0
    endloop
  endfacet
  facet normal 0 0 -1
    outer loop
      vertex -5.4078 16.6435 0
      vertex -4.44094 23.2802 0
      vertex -3.27917 17.19 0
    endloop
  endfacet
  facet normal 0 0 -1
    outer loop
      vertex -5.4078 16.6435 0
      vertex -7.3237 22.54 0
      vertex -4.44094 23.2802 0
    endloop
  endfacet
  facet normal 0 0 -1
    outer loop
      vertex -7.45114 15.8345 0
      vertex -7.3237 22.54 0
      vertex -5.4078 16.6435 0
    endloop
  endfacet
  facet normal 0 0 -1
    outer loop
      vertex -10.091 21.4444 0
      vertex -7.45114 15.8345 0
      vertex -9.37697 14.7757 0
    endloop
  endfacet
  facet normal 0 0 -1
    outer loop
      vertex -7.45114 15.8345 0
      vertex -10.091 21.4444 0
      vertex -7.3237 22.54 0
    endloop
  endfacet
  facet normal 0 0 -1
    outer loop
      vertex -12.6991 20.0106 0
      vertex -9.37697 14.7757 0
      vertex -11.1549 13.484 0
    endloop
  endfacet
  facet normal 0 0 -1
    outer loop
      vertex -9.37697 14.7757 0
      vertex -12.6991 20.0106 0
      vertex -10.091 21.4444 0
    endloop
  endfacet
  facet normal 0 0 -1
    outer loop
      vertex -15.1069 18.2612 0
      vertex -11.1549 13.484 0
      vertex -12.757 11.9796 0
    endloop
  endfacet
  facet normal 0 0 -1
    outer loop
      vertex -17.2766 16.2238 0
      vertex -12.757 11.9796 0
      vertex -14.1578 10.2862 0
    endloop
  endfacet
  facet normal 0 0 -1
    outer loop
      vertex -11.1549 13.484 0
      vertex -15.1069 18.2612 0
      vertex -12.6991 20.0106 0
    endloop
  endfacet
  facet normal 0 0 -1
    outer loop
      vertex -19.1737 13.9305 0
      vertex -14.1578 10.2862 0
      vertex -15.3354 8.43069 0
    endloop
  endfacet
  facet normal 0 0 -1
    outer loop
      vertex -20.7685 11.4176 0
      vertex -15.3354 8.43069 0
      vertex -16.2711 6.44218 0
    endloop
  endfacet
  facet normal 0 0 -1
    outer loop
      vertex -22.0357 8.72455 0
      vertex -16.2711 6.44218 0
      vertex -16.9502 4.35207 0
    endloop
  endfacet
  facet normal 0 0 -1
    outer loop
      vertex -12.757 11.9796 0
      vertex -17.2766 16.2238 0
      vertex -15.1069 18.2612 0
    endloop
  endfacet
  facet normal 0 0 -1
    outer loop
      vertex -22.9554 5.89395 0
      vertex -16.9502 4.35207 0
      vertex -17.362 2.19333 0
    endloop
  endfacet
  facet normal 0 0 -1
    outer loop
      vertex -23.5131 2.9704 0
      vertex -17.362 2.19333 0
      vertex -17.5 0 0
    endloop
  endfacet
  facet normal 0 0 -1
    outer loop
      vertex -22.9554 -5.89395 0
      vertex -16.9502 -4.35207 0
      vertex -22.0357 -8.72455 0
    endloop
  endfacet
  facet normal 0 0 -1
    outer loop
      vertex -14.1578 10.2862 0
      vertex -19.1737 13.9305 0
      vertex -17.2766 16.2238 0
    endloop
  endfacet
  facet normal -0 0 -1
    outer loop
      vertex -16.9502 -4.35207 0
      vertex -22.9554 -5.89395 0
      vertex -17.362 -2.19333 0
    endloop
  endfacet
  facet normal 0 0 -1
    outer loop
      vertex -15.3354 8.43069 0
      vertex -20.7685 11.4176 0
      vertex -19.1737 13.9305 0
    endloop
  endfacet
  facet normal 0 0 -1
    outer loop
      vertex -23.5131 -2.9704 0
      vertex -17.362 -2.19333 0
      vertex -22.9554 -5.89395 0
    endloop
  endfacet
  facet normal 0 0 -1
    outer loop
      vertex -16.2711 6.44218 0
      vertex -22.0357 8.72455 0
      vertex -20.7685 11.4176 0
    endloop
  endfacet
  facet normal -0 0 -1
    outer loop
      vertex -17.362 -2.19333 0
      vertex -23.5131 -2.9704 0
      vertex -17.5 0 0
    endloop
  endfacet
  facet normal 0 0 -1
    outer loop
      vertex -16.9502 4.35207 0
      vertex -22.9554 5.89395 0
      vertex -22.0357 8.72455 0
    endloop
  endfacet
  facet normal 0 0 -1
    outer loop
      vertex -23.7 0 0
      vertex -17.5 0 0
      vertex -23.5131 -2.9704 0
    endloop
  endfacet
  facet normal 0 0 -1
    outer loop
      vertex -17.362 2.19333 0
      vertex -23.5131 2.9704 0
      vertex -22.9554 5.89395 0
    endloop
  endfacet
  facet normal 0 0 -1
    outer loop
      vertex -17.5 0 0
      vertex -23.7 0 0
      vertex -23.5131 2.9704 0
    endloop
  endfacet
  facet normal 0.48175 -0.876309 0
    outer loop
      vertex 10.091 -21.4444 0
      vertex 12.6991 -20.0106 7
      vertex 10.091 -21.4444 7
    endloop
  endfacet
  facet normal 0.48175 -0.876309 0
    outer loop
      vertex 12.6991 -20.0106 7
      vertex 10.091 -21.4444 0
      vertex 12.6991 -20.0106 0
    endloop
  endfacet
  facet normal 0.951058 -0.309012 0
    outer loop
      vertex 22.0357 -8.72455 7
      vertex 22.9554 -5.89395 0
      vertex 22.9554 -5.89395 7
    endloop
  endfacet
  facet normal 0.951058 -0.309012 0
    outer loop
      vertex 22.9554 -5.89395 0
      vertex 22.0357 -8.72455 7
      vertex 22.0357 -8.72455 0
    endloop
  endfacet
  facet normal -0.770527 -0.637407 0
    outer loop
      vertex -17.2766 -16.2238 0
      vertex -19.1737 -13.9305 7
      vertex -19.1737 -13.9305 0
    endloop
  endfacet
  facet normal -0.770527 -0.637407 0
    outer loop
      vertex -19.1737 -13.9305 7
      vertex -17.2766 -16.2238 0
      vertex -17.2766 -16.2238 7
    endloop
  endfacet
  facet normal -0.951058 -0.309012 0
    outer loop
      vertex -22.0357 -8.72455 0
      vertex -22.9554 -5.89395 7
      vertex -22.9554 -5.89395 0
    endloop
  endfacet
  facet normal -0.951058 -0.309012 0
    outer loop
      vertex -22.9554 -5.89395 7
      vertex -22.0357 -8.72455 0
      vertex -22.0357 -8.72455 7
    endloop
  endfacet
  facet normal 0.587792 -0.809012 0
    outer loop
      vertex 12.6991 -20.0106 0
      vertex 15.1069 -18.2612 7
      vertex 12.6991 -20.0106 7
    endloop
  endfacet
  facet normal 0.587792 -0.809012 0
    outer loop
      vertex 15.1069 -18.2612 7
      vertex 12.6991 -20.0106 0
      vertex 15.1069 -18.2612 0
    endloop
  endfacet
  facet normal 0.2487 -0.96858 0
    outer loop
      vertex 4.44094 -23.2802 0
      vertex 7.3237 -22.54 7
      vertex 4.44094 -23.2802 7
    endloop
  endfacet
  facet normal 0.2487 -0.96858 0
    outer loop
      vertex 7.3237 -22.54 7
      vertex 4.44094 -23.2802 0
      vertex 7.3237 -22.54 0
    endloop
  endfacet
  facet normal 0.982287 -0.187382 0
    outer loop
      vertex 22.9554 -5.89395 7
      vertex 23.5131 -2.9704 0
      vertex 23.5131 -2.9704 7
    endloop
  endfacet
  facet normal 0.982287 -0.187382 0
    outer loop
      vertex 23.5131 -2.9704 0
      vertex 22.9554 -5.89395 7
      vertex 22.9554 -5.89395 0
    endloop
  endfacet
  facet normal 0.844318 -0.535842 0
    outer loop
      vertex 19.1737 -13.9305 7
      vertex 20.7685 -11.4176 0
      vertex 20.7685 -11.4176 7
    endloop
  endfacet
  facet normal 0.844318 -0.535842 0
    outer loop
      vertex 20.7685 -11.4176 0
      vertex 19.1737 -13.9305 7
      vertex 19.1737 -13.9305 0
    endloop
  endfacet
  facet normal 0.770527 -0.637407 0
    outer loop
      vertex 17.2766 -16.2238 7
      vertex 19.1737 -13.9305 0
      vertex 19.1737 -13.9305 7
    endloop
  endfacet
  facet normal 0.770527 -0.637407 0
    outer loop
      vertex 19.1737 -13.9305 0
      vertex 17.2766 -16.2238 7
      vertex 17.2766 -16.2238 0
    endloop
  endfacet
  facet normal -0.125324 -0.992116 0
    outer loop
      vertex -4.44094 -23.2802 0
      vertex -1.48813 -23.6532 7
      vertex -4.44094 -23.2802 7
    endloop
  endfacet
  facet normal -0.125324 -0.992116 -0
    outer loop
      vertex -1.48813 -23.6532 7
      vertex -4.44094 -23.2802 0
      vertex -1.48813 -23.6532 0
    endloop
  endfacet
  facet normal -0.36811 -0.929782 0
    outer loop
      vertex -10.091 -21.4444 0
      vertex -7.3237 -22.54 7
      vertex -10.091 -21.4444 7
    endloop
  endfacet
  facet normal -0.36811 -0.929782 -0
    outer loop
      vertex -7.3237 -22.54 7
      vertex -10.091 -21.4444 0
      vertex -7.3237 -22.54 0
    endloop
  endfacet
  facet normal -0.48175 -0.876309 0
    outer loop
      vertex -12.6991 -20.0106 0
      vertex -10.091 -21.4444 7
      vertex -12.6991 -20.0106 7
    endloop
  endfacet
  facet normal -0.48175 -0.876309 -0
    outer loop
      vertex -10.091 -21.4444 7
      vertex -12.6991 -20.0106 0
      vertex -10.091 -21.4444 0
    endloop
  endfacet
  facet normal -0.982287 -0.187382 0
    outer loop
      vertex -22.9554 -5.89395 0
      vertex -23.5131 -2.9704 7
      vertex -23.5131 -2.9704 0
    endloop
  endfacet
  facet normal -0.982287 -0.187382 0
    outer loop
      vertex -23.5131 -2.9704 7
      vertex -22.9554 -5.89395 0
      vertex -22.9554 -5.89395 7
    endloop
  endfacet
  facet normal -0.998026 -0.0627966 0
    outer loop
      vertex -23.5131 -2.9704 0
      vertex -23.7 0 7
      vertex -23.7 0 0
    endloop
  endfacet
  facet normal -0.998026 -0.0627966 0
    outer loop
      vertex -23.7 0 7
      vertex -23.5131 -2.9704 0
      vertex -23.5131 -2.9704 7
    endloop
  endfacet
  facet normal 0.684532 -0.728983 0
    outer loop
      vertex 15.1069 -18.2612 0
      vertex 17.2766 -16.2238 7
      vertex 15.1069 -18.2612 7
    endloop
  endfacet
  facet normal 0.684532 -0.728983 0
    outer loop
      vertex 17.2766 -16.2238 7
      vertex 15.1069 -18.2612 0
      vertex 17.2766 -16.2238 0
    endloop
  endfacet
  facet normal -0.2487 -0.96858 0
    outer loop
      vertex -7.3237 -22.54 0
      vertex -4.44094 -23.2802 7
      vertex -7.3237 -22.54 7
    endloop
  endfacet
  facet normal -0.2487 -0.96858 -0
    outer loop
      vertex -4.44094 -23.2802 7
      vertex -7.3237 -22.54 0
      vertex -4.44094 -23.2802 0
    endloop
  endfacet
  facet normal -0.587792 -0.809012 0
    outer loop
      vertex -15.1069 -18.2612 0
      vertex -12.6991 -20.0106 7
      vertex -15.1069 -18.2612 7
    endloop
  endfacet
  facet normal -0.587792 -0.809012 -0
    outer loop
      vertex -12.6991 -20.0106 7
      vertex -15.1069 -18.2612 0
      vertex -12.6991 -20.0106 0
    endloop
  endfacet
  facet normal -0.998027 -0.0627939 0
    outer loop
      vertex 17.5 0 0
      vertex 17.362 2.19333 7
      vertex 17.362 2.19333 0
    endloop
  endfacet
  facet normal -0.998027 -0.0627939 0
    outer loop
      vertex 17.362 2.19333 7
      vertex 17.5 0 0
      vertex 17.5 0 7
    endloop
  endfacet
  facet normal 0.998027 -0.0627939 0
    outer loop
      vertex -17.5 0 7
      vertex -17.362 2.19333 0
      vertex -17.362 2.19333 7
    endloop
  endfacet
  facet normal 0.998027 -0.0627939 0
    outer loop
      vertex -17.362 2.19333 0
      vertex -17.5 0 7
      vertex -17.5 0 0
    endloop
  endfacet
  facet normal 0 -1 0
    outer loop
      vertex -1.09883 17.4655 0
      vertex 1.09883 17.4655 7
      vertex -1.09883 17.4655 7
    endloop
  endfacet
  facet normal 0 -1 -0
    outer loop
      vertex 1.09883 17.4655 7
      vertex -1.09883 17.4655 0
      vertex 1.09883 17.4655 0
    endloop
  endfacet
  facet normal 0 1 -0
    outer loop
      vertex 1.09883 -17.4655 0
      vertex -1.09883 -17.4655 7
      vertex 1.09883 -17.4655 7
    endloop
  endfacet
  facet normal 0 1 0
    outer loop
      vertex -1.09883 -17.4655 7
      vertex 1.09883 -17.4655 0
      vertex -1.09883 -17.4655 0
    endloop
  endfacet
  facet normal -0.68453 -0.728985 0
    outer loop
      vertex 11.1549 13.484 0
      vertex 12.757 11.9796 7
      vertex 11.1549 13.484 7
    endloop
  endfacet
  facet normal -0.68453 -0.728985 -0
    outer loop
      vertex 12.757 11.9796 7
      vertex 11.1549 13.484 0
      vertex 12.757 11.9796 0
    endloop
  endfacet
  facet normal 0.68453 -0.728985 0
    outer loop
      vertex -12.757 11.9796 0
      vertex -11.1549 13.484 7
      vertex -12.757 11.9796 7
    endloop
  endfacet
  facet normal 0.68453 -0.728985 0
    outer loop
      vertex -11.1549 13.484 7
      vertex -12.757 11.9796 0
      vertex -11.1549 13.484 0
    endloop
  endfacet
  facet normal 0.368118 -0.929779 0
    outer loop
      vertex -7.45114 15.8345 0
      vertex -5.4078 16.6435 7
      vertex -7.45114 15.8345 7
    endloop
  endfacet
  facet normal 0.368118 -0.929779 0
    outer loop
      vertex -5.4078 16.6435 7
      vertex -7.45114 15.8345 0
      vertex -5.4078 16.6435 0
    endloop
  endfacet
  facet normal -0.904831 -0.425771 0
    outer loop
      vertex 16.2711 6.44218 0
      vertex 15.3354 8.43069 7
      vertex 15.3354 8.43069 0
    endloop
  endfacet
  facet normal -0.904831 -0.425771 0
    outer loop
      vertex 15.3354 8.43069 7
      vertex 16.2711 6.44218 0
      vertex 16.2711 6.44218 7
    endloop
  endfacet
  facet normal -0.982287 -0.187381 0
    outer loop
      vertex 17.362 2.19333 0
      vertex 16.9502 4.35207 7
      vertex 16.9502 4.35207 0
    endloop
  endfacet
  facet normal -0.982287 -0.187381 0
    outer loop
      vertex 16.9502 4.35207 7
      vertex 17.362 2.19333 0
      vertex 17.362 2.19333 7
    endloop
  endfacet
  facet normal -0.368118 -0.929779 0
    outer loop
      vertex 5.4078 16.6435 0
      vertex 7.45114 15.8345 7
      vertex 5.4078 16.6435 7
    endloop
  endfacet
  facet normal -0.368118 -0.929779 -0
    outer loop
      vertex 7.45114 15.8345 7
      vertex 5.4078 16.6435 0
      vertex 7.45114 15.8345 0
    endloop
  endfacet
  facet normal -0.481777 -0.876294 0
    outer loop
      vertex 7.45114 15.8345 0
      vertex 9.37697 14.7757 7
      vertex 7.45114 15.8345 7
    endloop
  endfacet
  facet normal -0.481777 -0.876294 -0
    outer loop
      vertex 9.37697 14.7757 7
      vertex 7.45114 15.8345 0
      vertex 9.37697 14.7757 0
    endloop
  endfacet
  facet normal 0.904831 -0.425771 0
    outer loop
      vertex -16.2711 6.44218 7
      vertex -15.3354 8.43069 0
      vertex -15.3354 8.43069 7
    endloop
  endfacet
  facet normal 0.904831 -0.425771 0
    outer loop
      vertex -15.3354 8.43069 0
      vertex -16.2711 6.44218 7
      vertex -16.2711 6.44218 0
    endloop
  endfacet
  facet normal 0.951059 -0.30901 0
    outer loop
      vertex -16.9502 4.35207 7
      vertex -16.2711 6.44218 0
      vertex -16.2711 6.44218 7
    endloop
  endfacet
  facet normal 0.951059 -0.30901 0
    outer loop
      vertex -16.2711 6.44218 0
      vertex -16.9502 4.35207 7
      vertex -16.9502 4.35207 0
    endloop
  endfacet
  facet normal 0.248673 -0.968587 0
    outer loop
      vertex -5.4078 16.6435 0
      vertex -3.27917 17.19 7
      vertex -5.4078 16.6435 7
    endloop
  endfacet
  facet normal 0.248673 -0.968587 0
    outer loop
      vertex -3.27917 17.19 7
      vertex -5.4078 16.6435 0
      vertex -3.27917 17.19 0
    endloop
  endfacet
  facet normal -0.951059 -0.30901 0
    outer loop
      vertex 16.9502 4.35207 0
      vertex 16.2711 6.44218 7
      vertex 16.2711 6.44218 0
    endloop
  endfacet
  facet normal -0.951059 -0.30901 0
    outer loop
      vertex 16.2711 6.44218 7
      vertex 16.9502 4.35207 0
      vertex 16.9502 4.35207 7
    endloop
  endfacet
  facet normal -0.770536 -0.637396 0
    outer loop
      vertex 14.1578 10.2862 0
      vertex 12.757 11.9796 7
      vertex 12.757 11.9796 0
    endloop
  endfacet
  facet normal -0.770536 -0.637396 0
    outer loop
      vertex 12.757 11.9796 7
      vertex 14.1578 10.2862 0
      vertex 14.1578 10.2862 7
    endloop
  endfacet
  facet normal -0.844316 -0.535845 0
    outer loop
      vertex 15.3354 8.43069 0
      vertex 14.1578 10.2862 7
      vertex 14.1578 10.2862 0
    endloop
  endfacet
  facet normal -0.844316 -0.535845 0
    outer loop
      vertex 14.1578 10.2862 7
      vertex 15.3354 8.43069 0
      vertex 15.3354 8.43069 7
    endloop
  endfacet
  facet normal -0.248673 -0.968587 0
    outer loop
      vertex 3.27917 17.19 0
      vertex 5.4078 16.6435 7
      vertex 3.27917 17.19 7
    endloop
  endfacet
  facet normal -0.248673 -0.968587 -0
    outer loop
      vertex 5.4078 16.6435 7
      vertex 3.27917 17.19 0
      vertex 5.4078 16.6435 0
    endloop
  endfacet
  facet normal -0.12536 -0.992111 0
    outer loop
      vertex 1.09883 17.4655 0
      vertex 3.27917 17.19 7
      vertex 1.09883 17.4655 7
    endloop
  endfacet
  facet normal -0.12536 -0.992111 -0
    outer loop
      vertex 3.27917 17.19 7
      vertex 1.09883 17.4655 0
      vertex 3.27917 17.19 0
    endloop
  endfacet
  facet normal -0.587773 -0.809026 0
    outer loop
      vertex 9.37697 14.7757 0
      vertex 11.1549 13.484 7
      vertex 9.37697 14.7757 7
    endloop
  endfacet
  facet normal -0.587773 -0.809026 -0
    outer loop
      vertex 11.1549 13.484 7
      vertex 9.37697 14.7757 0
      vertex 11.1549 13.484 0
    endloop
  endfacet
  facet normal 0.844316 -0.535845 0
    outer loop
      vertex -15.3354 8.43069 7
      vertex -14.1578 10.2862 0
      vertex -14.1578 10.2862 7
    endloop
  endfacet
  facet normal 0.844316 -0.535845 0
    outer loop
      vertex -14.1578 10.2862 0
      vertex -15.3354 8.43069 7
      vertex -15.3354 8.43069 0
    endloop
  endfacet
  facet normal 0.770536 -0.637396 0
    outer loop
      vertex -14.1578 10.2862 7
      vertex -12.757 11.9796 0
      vertex -12.757 11.9796 7
    endloop
  endfacet
  facet normal 0.770536 -0.637396 0
    outer loop
      vertex -12.757 11.9796 0
      vertex -14.1578 10.2862 7
      vertex -14.1578 10.2862 0
    endloop
  endfacet
  facet normal 0.982287 -0.187381 0
    outer loop
      vertex -17.362 2.19333 7
      vertex -16.9502 4.35207 0
      vertex -16.9502 4.35207 7
    endloop
  endfacet
  facet normal 0.982287 -0.187381 0
    outer loop
      vertex -16.9502 4.35207 0
      vertex -17.362 2.19333 7
      vertex -17.362 2.19333 0
    endloop
  endfacet
  facet normal 0.481777 -0.876294 0
    outer loop
      vertex -9.37697 14.7757 0
      vertex -7.45114 15.8345 7
      vertex -9.37697 14.7757 7
    endloop
  endfacet
  facet normal 0.481777 -0.876294 0
    outer loop
      vertex -7.45114 15.8345 7
      vertex -9.37697 14.7757 0
      vertex -7.45114 15.8345 0
    endloop
  endfacet
  facet normal 0.587773 -0.809026 0
    outer loop
      vertex -11.1549 13.484 0
      vertex -9.37697 14.7757 7
      vertex -11.1549 13.484 7
    endloop
  endfacet
  facet normal 0.587773 -0.809026 0
    outer loop
      vertex -9.37697 14.7757 7
      vertex -11.1549 13.484 0
      vertex -9.37697 14.7757 0
    endloop
  endfacet
  facet normal 0.12536 -0.992111 0
    outer loop
      vertex -3.27917 17.19 0
      vertex -1.09883 17.4655 7
      vertex -3.27917 17.19 7
    endloop
  endfacet
  facet normal 0.12536 -0.992111 0
    outer loop
      vertex -1.09883 17.4655 7
      vertex -3.27917 17.19 0
      vertex -1.09883 17.4655 0
    endloop
  endfacet
  facet normal -0.998027 0.0627939 0
    outer loop
      vertex 17.362 -2.19333 0
      vertex 17.5 0 7
      vertex 17.5 0 0
    endloop
  endfacet
  facet normal -0.998027 0.0627939 0
    outer loop
      vertex 17.5 0 7
      vertex 17.362 -2.19333 0
      vertex 17.362 -2.19333 7
    endloop
  endfacet
  facet normal -0.982287 0.187381 0
    outer loop
      vertex 16.9502 -4.35207 0
      vertex 17.362 -2.19333 7
      vertex 17.362 -2.19333 0
    endloop
  endfacet
  facet normal -0.982287 0.187381 0
    outer loop
      vertex 17.362 -2.19333 7
      vertex 16.9502 -4.35207 0
      vertex 16.9502 -4.35207 7
    endloop
  endfacet
  facet normal 0.68453 0.728985 -0
    outer loop
      vertex -11.1549 -13.484 0
      vertex -12.757 -11.9796 7
      vertex -11.1549 -13.484 7
    endloop
  endfacet
  facet normal 0.68453 0.728985 0
    outer loop
      vertex -12.757 -11.9796 7
      vertex -11.1549 -13.484 0
      vertex -12.757 -11.9796 0
    endloop
  endfacet
  facet normal 0.904831 0.425771 0
    outer loop
      vertex -15.3354 -8.43069 7
      vertex -16.2711 -6.44218 0
      vertex -16.2711 -6.44218 7
    endloop
  endfacet
  facet normal 0.904831 0.425771 0
    outer loop
      vertex -16.2711 -6.44218 0
      vertex -15.3354 -8.43069 7
      vertex -15.3354 -8.43069 0
    endloop
  endfacet
  facet normal 0.844316 0.535845 0
    outer loop
      vertex -14.1578 -10.2862 7
      vertex -15.3354 -8.43069 0
      vertex -15.3354 -8.43069 7
    endloop
  endfacet
  facet normal 0.844316 0.535845 0
    outer loop
      vertex -15.3354 -8.43069 0
      vertex -14.1578 -10.2862 7
      vertex -14.1578 -10.2862 0
    endloop
  endfacet
  facet normal -0.481777 0.876294 0
    outer loop
      vertex 9.37697 -14.7757 0
      vertex 7.45114 -15.8345 7
      vertex 9.37697 -14.7757 7
    endloop
  endfacet
  facet normal -0.481777 0.876294 0
    outer loop
      vertex 7.45114 -15.8345 7
      vertex 9.37697 -14.7757 0
      vertex 7.45114 -15.8345 0
    endloop
  endfacet
  facet normal -0.904831 0.425771 0
    outer loop
      vertex 15.3354 -8.43069 0
      vertex 16.2711 -6.44218 7
      vertex 16.2711 -6.44218 0
    endloop
  endfacet
  facet normal -0.904831 0.425771 0
    outer loop
      vertex 16.2711 -6.44218 7
      vertex 15.3354 -8.43069 0
      vertex 15.3354 -8.43069 7
    endloop
  endfacet
  facet normal 0.770536 0.637396 0
    outer loop
      vertex -12.757 -11.9796 7
      vertex -14.1578 -10.2862 0
      vertex -14.1578 -10.2862 7
    endloop
  endfacet
  facet normal 0.770536 0.637396 0
    outer loop
      vertex -14.1578 -10.2862 0
      vertex -12.757 -11.9796 7
      vertex -12.757 -11.9796 0
    endloop
  endfacet
  facet normal 0.951059 0.30901 0
    outer loop
      vertex -16.2711 -6.44218 7
      vertex -16.9502 -4.35207 0
      vertex -16.9502 -4.35207 7
    endloop
  endfacet
  facet normal 0.951059 0.30901 0
    outer loop
      vertex -16.9502 -4.35207 0
      vertex -16.2711 -6.44218 7
      vertex -16.2711 -6.44218 0
    endloop
  endfacet
  facet normal -0.68453 0.728985 0
    outer loop
      vertex 12.757 -11.9796 0
      vertex 11.1549 -13.484 7
      vertex 12.757 -11.9796 7
    endloop
  endfacet
  facet normal -0.68453 0.728985 0
    outer loop
      vertex 11.1549 -13.484 7
      vertex 12.757 -11.9796 0
      vertex 11.1549 -13.484 0
    endloop
  endfacet
  facet normal -0.368118 0.929779 0
    outer loop
      vertex 7.45114 -15.8345 0
      vertex 5.4078 -16.6435 7
      vertex 7.45114 -15.8345 7
    endloop
  endfacet
  facet normal -0.368118 0.929779 0
    outer loop
      vertex 5.4078 -16.6435 7
      vertex 7.45114 -15.8345 0
      vertex 5.4078 -16.6435 0
    endloop
  endfacet
  facet normal -0.248673 0.968587 0
    outer loop
      vertex 5.4078 -16.6435 0
      vertex 3.27917 -17.19 7
      vertex 5.4078 -16.6435 7
    endloop
  endfacet
  facet normal -0.248673 0.968587 0
    outer loop
      vertex 3.27917 -17.19 7
      vertex 5.4078 -16.6435 0
      vertex 3.27917 -17.19 0
    endloop
  endfacet
  facet normal -0.12536 0.992111 0
    outer loop
      vertex 3.27917 -17.19 0
      vertex 1.09883 -17.4655 7
      vertex 3.27917 -17.19 7
    endloop
  endfacet
  facet normal -0.12536 0.992111 0
    outer loop
      vertex 1.09883 -17.4655 7
      vertex 3.27917 -17.19 0
      vertex 1.09883 -17.4655 0
    endloop
  endfacet
  facet normal -0.844316 0.535845 0
    outer loop
      vertex 14.1578 -10.2862 0
      vertex 15.3354 -8.43069 7
      vertex 15.3354 -8.43069 0
    endloop
  endfacet
  facet normal -0.844316 0.535845 0
    outer loop
      vertex 15.3354 -8.43069 7
      vertex 14.1578 -10.2862 0
      vertex 14.1578 -10.2862 7
    endloop
  endfacet
  facet normal -0.770536 0.637396 0
    outer loop
      vertex 12.757 -11.9796 0
      vertex 14.1578 -10.2862 7
      vertex 14.1578 -10.2862 0
    endloop
  endfacet
  facet normal -0.770536 0.637396 0
    outer loop
      vertex 14.1578 -10.2862 7
      vertex 12.757 -11.9796 0
      vertex 12.757 -11.9796 7
    endloop
  endfacet
  facet normal -0.951059 0.30901 0
    outer loop
      vertex 16.2711 -6.44218 0
      vertex 16.9502 -4.35207 7
      vertex 16.9502 -4.35207 0
    endloop
  endfacet
  facet normal -0.951059 0.30901 0
    outer loop
      vertex 16.9502 -4.35207 7
      vertex 16.2711 -6.44218 0
      vertex 16.2711 -6.44218 7
    endloop
  endfacet
  facet normal 0.248673 0.968587 -0
    outer loop
      vertex -3.27917 -17.19 0
      vertex -5.4078 -16.6435 7
      vertex -3.27917 -17.19 7
    endloop
  endfacet
  facet normal 0.248673 0.968587 0
    outer loop
      vertex -5.4078 -16.6435 7
      vertex -3.27917 -17.19 0
      vertex -5.4078 -16.6435 0
    endloop
  endfacet
  facet normal 0.982287 0.187381 0
    outer loop
      vertex -16.9502 -4.35207 7
      vertex -17.362 -2.19333 0
      vertex -17.362 -2.19333 7
    endloop
  endfacet
  facet normal 0.982287 0.187381 0
    outer loop
      vertex -17.362 -2.19333 0
      vertex -16.9502 -4.35207 7
      vertex -16.9502 -4.35207 0
    endloop
  endfacet
  facet normal 0.998027 0.0627939 0
    outer loop
      vertex -17.362 -2.19333 7
      vertex -17.5 0 0
      vertex -17.5 0 7
    endloop
  endfacet
  facet normal 0.998027 0.0627939 0
    outer loop
      vertex -17.5 0 0
      vertex -17.362 -2.19333 7
      vertex -17.362 -2.19333 0
    endloop
  endfacet
  facet normal -0.587773 0.809026 0
    outer loop
      vertex 11.1549 -13.484 0
      vertex 9.37697 -14.7757 7
      vertex 11.1549 -13.484 7
    endloop
  endfacet
  facet normal -0.587773 0.809026 0
    outer loop
      vertex 9.37697 -14.7757 7
      vertex 11.1549 -13.484 0
      vertex 9.37697 -14.7757 0
    endloop
  endfacet
  facet normal 0.12536 0.992111 -0
    outer loop
      vertex -1.09883 -17.4655 0
      vertex -3.27917 -17.19 7
      vertex -1.09883 -17.4655 7
    endloop
  endfacet
  facet normal 0.12536 0.992111 0
    outer loop
      vertex -3.27917 -17.19 7
      vertex -1.09883 -17.4655 0
      vertex -3.27917 -17.19 0
    endloop
  endfacet
  facet normal 0.587773 0.809026 -0
    outer loop
      vertex -9.37697 -14.7757 0
      vertex -11.1549 -13.484 7
      vertex -9.37697 -14.7757 7
    endloop
  endfacet
  facet normal 0.587773 0.809026 0
    outer loop
      vertex -11.1549 -13.484 7
      vertex -9.37697 -14.7757 0
      vertex -11.1549 -13.484 0
    endloop
  endfacet
  facet normal 0.368118 0.929779 -0
    outer loop
      vertex -5.4078 -16.6435 0
      vertex -7.45114 -15.8345 7
      vertex -5.4078 -16.6435 7
    endloop
  endfacet
  facet normal 0.368118 0.929779 0
    outer loop
      vertex -7.45114 -15.8345 7
      vertex -5.4078 -16.6435 0
      vertex -7.45114 -15.8345 0
    endloop
  endfacet
  facet normal 0.481777 0.876294 -0
    outer loop
      vertex -7.45114 -15.8345 0
      vertex -9.37697 -14.7757 7
      vertex -7.45114 -15.8345 7
    endloop
  endfacet
  facet normal 0.481777 0.876294 0
    outer loop
      vertex -9.37697 -14.7757 7
      vertex -7.45114 -15.8345 0
      vertex -9.37697 -14.7757 0
    endloop
  endfacet
endsolid OpenSCAD_Model
