solid OpenSCAD_Model
  facet normal 0.998027 0.0627785 0
    outer loop
      vertex 32.7 0 6.8
      vertex 32.4422 4.0984 0
      vertex 32.4422 4.0984 6.8
    endloop
  endfacet
  facet normal 0.998027 0.0627785 0
    outer loop
      vertex 32.4422 4.0984 0
      vertex 32.7 0 6.8
      vertex 32.7 0 0
    endloop
  endfacet
  facet normal -0.998027 0.0627785 0
    outer loop
      vertex -32.7 0 0
      vertex -32.4422 4.0984 6.8
      vertex -32.4422 4.0984 0
    endloop
  endfacet
  facet normal -0.998027 0.0627785 0
    outer loop
      vertex -32.4422 4.0984 6.8
      vertex -32.7 0 0
      vertex -32.7 0 6.8
    endloop
  endfacet
  facet normal 0 1 -0
    outer loop
      vertex 2.05325 32.6355 0
      vertex -2.05325 32.6355 6.8
      vertex 2.05325 32.6355 6.8
    endloop
  endfacet
  facet normal 0 1 0
    outer loop
      vertex -2.05325 32.6355 6.8
      vertex 2.05325 32.6355 0
      vertex -2.05325 32.6355 0
    endloop
  endfacet
  facet normal 0 -1 0
    outer loop
      vertex -2.05325 -32.6355 0
      vertex 2.05325 -32.6355 6.8
      vertex -2.05325 -32.6355 6.8
    endloop
  endfacet
  facet normal 0 -1 -0
    outer loop
      vertex 2.05325 -32.6355 6.8
      vertex -2.05325 -32.6355 0
      vertex 2.05325 -32.6355 0
    endloop
  endfacet
  facet normal 0.684549 0.728967 -0
    outer loop
      vertex 23.8373 22.3847 0
      vertex 20.8438 25.1958 6.8
      vertex 23.8373 22.3847 6.8
    endloop
  endfacet
  facet normal 0.684549 0.728967 0
    outer loop
      vertex 20.8438 25.1958 6.8
      vertex 23.8373 22.3847 0
      vertex 20.8438 25.1958 0
    endloop
  endfacet
  facet normal -0.684549 0.728967 0
    outer loop
      vertex -20.8438 25.1958 0
      vertex -23.8373 22.3847 6.8
      vertex -20.8438 25.1958 6.8
    endloop
  endfacet
  facet normal -0.684549 0.728967 0
    outer loop
      vertex -23.8373 22.3847 6.8
      vertex -20.8438 25.1958 0
      vertex -23.8373 22.3847 0
    endloop
  endfacet
  facet normal -0.368126 0.929776 0
    outer loop
      vertex -10.1049 31.0995 0
      vertex -13.923 29.5878 6.8
      vertex -10.1049 31.0995 6.8
    endloop
  endfacet
  facet normal -0.368126 0.929776 0
    outer loop
      vertex -13.923 29.5878 6.8
      vertex -10.1049 31.0995 0
      vertex -13.923 29.5878 0
    endloop
  endfacet
  facet normal 0.90482 0.425794 0
    outer loop
      vertex 30.4037 12.0377 6.8
      vertex 28.6552 15.7533 0
      vertex 28.6552 15.7533 6.8
    endloop
  endfacet
  facet normal 0.90482 0.425794 0
    outer loop
      vertex 28.6552 15.7533 0
      vertex 30.4037 12.0377 6.8
      vertex 30.4037 12.0377 0
    endloop
  endfacet
  facet normal 0.982286 0.187386 0
    outer loop
      vertex 32.4422 4.0984 6.8
      vertex 31.6727 8.13216 0
      vertex 31.6727 8.13216 6.8
    endloop
  endfacet
  facet normal 0.982286 0.187386 0
    outer loop
      vertex 31.6727 8.13216 0
      vertex 32.4422 4.0984 6.8
      vertex 32.4422 4.0984 0
    endloop
  endfacet
  facet normal 0.368126 0.929776 -0
    outer loop
      vertex 13.923 29.5878 0
      vertex 10.1049 31.0995 6.8
      vertex 13.923 29.5878 6.8
    endloop
  endfacet
  facet normal 0.368126 0.929776 0
    outer loop
      vertex 10.1049 31.0995 6.8
      vertex 13.923 29.5878 0
      vertex 10.1049 31.0995 0
    endloop
  endfacet
  facet normal 0.2487 0.968581 -0
    outer loop
      vertex 10.1049 31.0995 0
      vertex 6.12737 32.1208 6.8
      vertex 10.1049 31.0995 6.8
    endloop
  endfacet
  facet normal 0.2487 0.968581 0
    outer loop
      vertex 6.12737 32.1208 6.8
      vertex 10.1049 31.0995 0
      vertex 6.12737 32.1208 0
    endloop
  endfacet
  facet normal 0.587771 0.809028 -0
    outer loop
      vertex 20.8438 25.1958 0
      vertex 17.5215 27.6095 6.8
      vertex 20.8438 25.1958 6.8
    endloop
  endfacet
  facet normal 0.587771 0.809028 0
    outer loop
      vertex 17.5215 27.6095 6.8
      vertex 20.8438 25.1958 0
      vertex 17.5215 27.6095 0
    endloop
  endfacet
  facet normal -0.90482 0.425794 0
    outer loop
      vertex -30.4037 12.0377 0
      vertex -28.6552 15.7533 6.8
      vertex -28.6552 15.7533 0
    endloop
  endfacet
  facet normal -0.90482 0.425794 0
    outer loop
      vertex -28.6552 15.7533 6.8
      vertex -30.4037 12.0377 0
      vertex -30.4037 12.0377 6.8
    endloop
  endfacet
  facet normal -0.844341 0.535807 0
    outer loop
      vertex -28.6552 15.7533 0
      vertex -26.4549 19.2206 6.8
      vertex -26.4549 19.2206 0
    endloop
  endfacet
  facet normal -0.844341 0.535807 0
    outer loop
      vertex -26.4549 19.2206 6.8
      vertex -28.6552 15.7533 0
      vertex -28.6552 15.7533 6.8
    endloop
  endfacet
  facet normal -0.951056 0.30902 0
    outer loop
      vertex -31.6727 8.13216 0
      vertex -30.4037 12.0377 6.8
      vertex -30.4037 12.0377 0
    endloop
  endfacet
  facet normal -0.951056 0.30902 0
    outer loop
      vertex -30.4037 12.0377 6.8
      vertex -31.6727 8.13216 0
      vertex -31.6727 8.13216 6.8
    endloop
  endfacet
  facet normal -0.481755 0.876306 0
    outer loop
      vertex -13.923 29.5878 0
      vertex -17.5215 27.6095 6.8
      vertex -13.923 29.5878 6.8
    endloop
  endfacet
  facet normal -0.481755 0.876306 0
    outer loop
      vertex -17.5215 27.6095 6.8
      vertex -13.923 29.5878 0
      vertex -17.5215 27.6095 0
    endloop
  endfacet
  facet normal -0.125338 0.992114 0
    outer loop
      vertex -2.05325 32.6355 0
      vertex -6.12737 32.1208 6.8
      vertex -2.05325 32.6355 6.8
    endloop
  endfacet
  facet normal -0.125338 0.992114 0
    outer loop
      vertex -6.12737 32.1208 6.8
      vertex -2.05325 32.6355 0
      vertex -6.12737 32.1208 0
    endloop
  endfacet
  facet normal 0.125338 -0.992114 0
    outer loop
      vertex 2.05325 -32.6355 0
      vertex 6.12737 -32.1208 6.8
      vertex 2.05325 -32.6355 6.8
    endloop
  endfacet
  facet normal 0.125338 -0.992114 0
    outer loop
      vertex 6.12737 -32.1208 6.8
      vertex 2.05325 -32.6355 0
      vertex 6.12737 -32.1208 0
    endloop
  endfacet
  facet normal 0.951056 0.30902 0
    outer loop
      vertex 31.6727 8.13216 6.8
      vertex 30.4037 12.0377 0
      vertex 30.4037 12.0377 6.8
    endloop
  endfacet
  facet normal 0.951056 0.30902 0
    outer loop
      vertex 30.4037 12.0377 0
      vertex 31.6727 8.13216 6.8
      vertex 31.6727 8.13216 0
    endloop
  endfacet
  facet normal 0.77051 0.637428 0
    outer loop
      vertex 26.4549 19.2206 6.8
      vertex 23.8373 22.3847 0
      vertex 23.8373 22.3847 6.8
    endloop
  endfacet
  facet normal 0.77051 0.637428 0
    outer loop
      vertex 23.8373 22.3847 0
      vertex 26.4549 19.2206 6.8
      vertex 26.4549 19.2206 0
    endloop
  endfacet
  facet normal 0.844341 0.535807 0
    outer loop
      vertex 28.6552 15.7533 6.8
      vertex 26.4549 19.2206 0
      vertex 26.4549 19.2206 6.8
    endloop
  endfacet
  facet normal 0.844341 0.535807 0
    outer loop
      vertex 26.4549 19.2206 0
      vertex 28.6552 15.7533 6.8
      vertex 28.6552 15.7533 0
    endloop
  endfacet
  facet normal 0.125338 0.992114 -0
    outer loop
      vertex 6.12737 32.1208 0
      vertex 2.05325 32.6355 6.8
      vertex 6.12737 32.1208 6.8
    endloop
  endfacet
  facet normal 0.125338 0.992114 0
    outer loop
      vertex 2.05325 32.6355 6.8
      vertex 6.12737 32.1208 0
      vertex 2.05325 32.6355 0
    endloop
  endfacet
  facet normal -0.982286 0.187386 0
    outer loop
      vertex -32.4422 4.0984 0
      vertex -31.6727 8.13216 6.8
      vertex -31.6727 8.13216 0
    endloop
  endfacet
  facet normal -0.982286 0.187386 0
    outer loop
      vertex -31.6727 8.13216 6.8
      vertex -32.4422 4.0984 0
      vertex -32.4422 4.0984 6.8
    endloop
  endfacet
  facet normal 0 0 1
    outer loop
      vertex 25.2 0 6.8
      vertex 32.7 0 6.8
      vertex 32.4422 4.0984 6.8
    endloop
  endfacet
  facet normal 0 0 1
    outer loop
      vertex 25.0013 3.1584 6.8
      vertex 32.4422 4.0984 6.8
      vertex 31.6727 8.13216 6.8
    endloop
  endfacet
  facet normal 0 0 1
    outer loop
      vertex 32.7 0 6.8
      vertex 25.2 0 6.8
      vertex 32.4422 -4.0984 6.8
    endloop
  endfacet
  facet normal 0 0 1
    outer loop
      vertex 24.4083 6.26698 6.8
      vertex 31.6727 8.13216 6.8
      vertex 30.4037 12.0377 6.8
    endloop
  endfacet
  facet normal -0 0 1
    outer loop
      vertex 25.0013 -3.1584 6.8
      vertex 32.4422 -4.0984 6.8
      vertex 25.2 0 6.8
    endloop
  endfacet
  facet normal 0 0 1
    outer loop
      vertex 23.4304 9.27674 6.8
      vertex 30.4037 12.0377 6.8
      vertex 28.6552 15.7533 6.8
    endloop
  endfacet
  facet normal 0 0 1
    outer loop
      vertex 32.4422 -4.0984 6.8
      vertex 25.0013 -3.1584 6.8
      vertex 31.6727 -8.13216 6.8
    endloop
  endfacet
  facet normal 0 0 1
    outer loop
      vertex 22.0829 12.1402 6.8
      vertex 28.6552 15.7533 6.8
      vertex 26.4549 19.2206 6.8
    endloop
  endfacet
  facet normal -0 0 1
    outer loop
      vertex 24.4083 -6.26698 6.8
      vertex 31.6727 -8.13216 6.8
      vertex 25.0013 -3.1584 6.8
    endloop
  endfacet
  facet normal 0 0 1
    outer loop
      vertex 31.6727 -8.13216 6.8
      vertex 24.4083 -6.26698 6.8
      vertex 30.4037 -12.0377 6.8
    endloop
  endfacet
  facet normal 0 0 1
    outer loop
      vertex 32.4422 4.0984 6.8
      vertex 25.0013 3.1584 6.8
      vertex 25.2 0 6.8
    endloop
  endfacet
  facet normal 0 0 1
    outer loop
      vertex 31.6727 8.13216 6.8
      vertex 24.4083 6.26698 6.8
      vertex 25.0013 3.1584 6.8
    endloop
  endfacet
  facet normal 0 0 1
    outer loop
      vertex 20.3872 14.8122 6.8
      vertex 26.4549 19.2206 6.8
      vertex 23.8373 22.3847 6.8
    endloop
  endfacet
  facet normal 0 0 1
    outer loop
      vertex 30.4037 12.0377 6.8
      vertex 23.4304 9.27674 6.8
      vertex 24.4083 6.26698 6.8
    endloop
  endfacet
  facet normal 0 0 1
    outer loop
      vertex 28.6552 15.7533 6.8
      vertex 22.0829 12.1402 6.8
      vertex 23.4304 9.27674 6.8
    endloop
  endfacet
  facet normal 0 0 1
    outer loop
      vertex 18.37 17.2506 6.8
      vertex 23.8373 22.3847 6.8
      vertex 20.8438 25.1958 6.8
    endloop
  endfacet
  facet normal 0 0 1
    outer loop
      vertex 26.4549 19.2206 6.8
      vertex 20.3872 14.8122 6.8
      vertex 22.0829 12.1402 6.8
    endloop
  endfacet
  facet normal 0 0 1
    outer loop
      vertex 23.8373 22.3847 6.8
      vertex 18.37 17.2506 6.8
      vertex 20.3872 14.8122 6.8
    endloop
  endfacet
  facet normal 0 0 1
    outer loop
      vertex 16.0631 19.4169 6.8
      vertex 20.8438 25.1958 6.8
      vertex 17.5215 27.6095 6.8
    endloop
  endfacet
  facet normal 0 0 1
    outer loop
      vertex 20.8438 25.1958 6.8
      vertex 16.0631 19.4169 6.8
      vertex 18.37 17.2506 6.8
    endloop
  endfacet
  facet normal 0 0 1
    outer loop
      vertex 13.5028 21.2771 6.8
      vertex 17.5215 27.6095 6.8
      vertex 13.923 29.5878 6.8
    endloop
  endfacet
  facet normal 0 0 1
    outer loop
      vertex 17.5215 27.6095 6.8
      vertex 13.5028 21.2771 6.8
      vertex 16.0631 19.4169 6.8
    endloop
  endfacet
  facet normal 0 0 1
    outer loop
      vertex 13.923 29.5878 6.8
      vertex 10.7296 22.8016 6.8
      vertex 13.5028 21.2771 6.8
    endloop
  endfacet
  facet normal 0 0 1
    outer loop
      vertex 10.1049 31.0995 6.8
      vertex 10.7296 22.8016 6.8
      vertex 13.923 29.5878 6.8
    endloop
  endfacet
  facet normal 0 0 1
    outer loop
      vertex 10.1049 31.0995 6.8
      vertex 7.78723 23.9666 6.8
      vertex 10.7296 22.8016 6.8
    endloop
  endfacet
  facet normal 0 0 1
    outer loop
      vertex 6.12737 32.1208 6.8
      vertex 7.78723 23.9666 6.8
      vertex 10.1049 31.0995 6.8
    endloop
  endfacet
  facet normal 0 0 1
    outer loop
      vertex 6.12737 32.1208 6.8
      vertex 4.72201 24.7536 6.8
      vertex 7.78723 23.9666 6.8
    endloop
  endfacet
  facet normal 0 0 1
    outer loop
      vertex 2.05325 32.6355 6.8
      vertex 4.72201 24.7536 6.8
      vertex 6.12737 32.1208 6.8
    endloop
  endfacet
  facet normal 0 0 1
    outer loop
      vertex 2.05325 32.6355 6.8
      vertex 1.58232 25.1503 6.8
      vertex 4.72201 24.7536 6.8
    endloop
  endfacet
  facet normal 0 0 1
    outer loop
      vertex 2.05325 32.6355 6.8
      vertex -1.58232 25.1503 6.8
      vertex 1.58232 25.1503 6.8
    endloop
  endfacet
  facet normal -0 0 1
    outer loop
      vertex -2.05325 32.6355 6.8
      vertex -1.58232 25.1503 6.8
      vertex 2.05325 32.6355 6.8
    endloop
  endfacet
  facet normal 0 0 1
    outer loop
      vertex -2.05325 32.6355 6.8
      vertex -4.72201 24.7536 6.8
      vertex -1.58232 25.1503 6.8
    endloop
  endfacet
  facet normal -0 0 1
    outer loop
      vertex -6.12737 32.1208 6.8
      vertex -4.72201 24.7536 6.8
      vertex -2.05325 32.6355 6.8
    endloop
  endfacet
  facet normal 0 0 1
    outer loop
      vertex -6.12737 32.1208 6.8
      vertex -7.78723 23.9666 6.8
      vertex -4.72201 24.7536 6.8
    endloop
  endfacet
  facet normal -0 0 1
    outer loop
      vertex -10.1049 31.0995 6.8
      vertex -7.78723 23.9666 6.8
      vertex -6.12737 32.1208 6.8
    endloop
  endfacet
  facet normal 0 0 1
    outer loop
      vertex -10.1049 31.0995 6.8
      vertex -10.7296 22.8016 6.8
      vertex -7.78723 23.9666 6.8
    endloop
  endfacet
  facet normal -0 0 1
    outer loop
      vertex -13.923 29.5878 6.8
      vertex -10.7296 22.8016 6.8
      vertex -10.1049 31.0995 6.8
    endloop
  endfacet
  facet normal 0 0 1
    outer loop
      vertex -10.7296 22.8016 6.8
      vertex -13.923 29.5878 6.8
      vertex -13.5028 21.2771 6.8
    endloop
  endfacet
  facet normal -0 0 1
    outer loop
      vertex -17.5215 27.6095 6.8
      vertex -13.5028 21.2771 6.8
      vertex -13.923 29.5878 6.8
    endloop
  endfacet
  facet normal 0 0 1
    outer loop
      vertex -13.5028 21.2771 6.8
      vertex -17.5215 27.6095 6.8
      vertex -16.0631 19.4169 6.8
    endloop
  endfacet
  facet normal -0 0 1
    outer loop
      vertex -20.8438 25.1958 6.8
      vertex -16.0631 19.4169 6.8
      vertex -17.5215 27.6095 6.8
    endloop
  endfacet
  facet normal 0 0 1
    outer loop
      vertex -16.0631 19.4169 6.8
      vertex -20.8438 25.1958 6.8
      vertex -18.37 17.2506 6.8
    endloop
  endfacet
  facet normal -0 0 1
    outer loop
      vertex -23.8373 22.3847 6.8
      vertex -18.37 17.2506 6.8
      vertex -20.8438 25.1958 6.8
    endloop
  endfacet
  facet normal 0 0 1
    outer loop
      vertex -18.37 17.2506 6.8
      vertex -23.8373 22.3847 6.8
      vertex -20.3872 14.8122 6.8
    endloop
  endfacet
  facet normal -0 0 1
    outer loop
      vertex -26.4549 19.2206 6.8
      vertex -20.3872 14.8122 6.8
      vertex -23.8373 22.3847 6.8
    endloop
  endfacet
  facet normal 0 0 1
    outer loop
      vertex -20.3872 14.8122 6.8
      vertex -26.4549 19.2206 6.8
      vertex -22.0829 12.1402 6.8
    endloop
  endfacet
  facet normal -0 0 1
    outer loop
      vertex -28.6552 15.7533 6.8
      vertex -22.0829 12.1402 6.8
      vertex -26.4549 19.2206 6.8
    endloop
  endfacet
  facet normal 0 0 1
    outer loop
      vertex -22.0829 12.1402 6.8
      vertex -28.6552 15.7533 6.8
      vertex -23.4304 9.27674 6.8
    endloop
  endfacet
  facet normal -0 0 1
    outer loop
      vertex -30.4037 12.0377 6.8
      vertex -23.4304 9.27674 6.8
      vertex -28.6552 15.7533 6.8
    endloop
  endfacet
  facet normal 0 0 1
    outer loop
      vertex -23.4304 9.27674 6.8
      vertex -30.4037 12.0377 6.8
      vertex -24.4083 6.26698 6.8
    endloop
  endfacet
  facet normal -0 0 1
    outer loop
      vertex 23.4304 -9.27674 6.8
      vertex 30.4037 -12.0377 6.8
      vertex 24.4083 -6.26698 6.8
    endloop
  endfacet
  facet normal 0 0 1
    outer loop
      vertex 30.4037 -12.0377 6.8
      vertex 23.4304 -9.27674 6.8
      vertex 28.6552 -15.7533 6.8
    endloop
  endfacet
  facet normal -0 0 1
    outer loop
      vertex 22.0829 -12.1402 6.8
      vertex 28.6552 -15.7533 6.8
      vertex 23.4304 -9.27674 6.8
    endloop
  endfacet
  facet normal 0 0 1
    outer loop
      vertex 28.6552 -15.7533 6.8
      vertex 22.0829 -12.1402 6.8
      vertex 26.4549 -19.2206 6.8
    endloop
  endfacet
  facet normal -0 0 1
    outer loop
      vertex 20.3872 -14.8122 6.8
      vertex 26.4549 -19.2206 6.8
      vertex 22.0829 -12.1402 6.8
    endloop
  endfacet
  facet normal 0 0 1
    outer loop
      vertex 26.4549 -19.2206 6.8
      vertex 20.3872 -14.8122 6.8
      vertex 23.8373 -22.3847 6.8
    endloop
  endfacet
  facet normal -0 0 1
    outer loop
      vertex 18.37 -17.2506 6.8
      vertex 23.8373 -22.3847 6.8
      vertex 20.3872 -14.8122 6.8
    endloop
  endfacet
  facet normal 0 0 1
    outer loop
      vertex 23.8373 -22.3847 6.8
      vertex 18.37 -17.2506 6.8
      vertex 20.8438 -25.1958 6.8
    endloop
  endfacet
  facet normal -0 0 1
    outer loop
      vertex 16.0631 -19.4169 6.8
      vertex 20.8438 -25.1958 6.8
      vertex 18.37 -17.2506 6.8
    endloop
  endfacet
  facet normal 0 0 1
    outer loop
      vertex 20.8438 -25.1958 6.8
      vertex 16.0631 -19.4169 6.8
      vertex 17.5215 -27.6095 6.8
    endloop
  endfacet
  facet normal -0 0 1
    outer loop
      vertex 13.5028 -21.2771 6.8
      vertex 17.5215 -27.6095 6.8
      vertex 16.0631 -19.4169 6.8
    endloop
  endfacet
  facet normal 0 0 1
    outer loop
      vertex 17.5215 -27.6095 6.8
      vertex 13.5028 -21.2771 6.8
      vertex 13.923 -29.5878 6.8
    endloop
  endfacet
  facet normal -0 0 1
    outer loop
      vertex 10.7296 -22.8016 6.8
      vertex 13.923 -29.5878 6.8
      vertex 13.5028 -21.2771 6.8
    endloop
  endfacet
  facet normal 0 0 1
    outer loop
      vertex 10.7296 -22.8016 6.8
      vertex 10.1049 -31.0995 6.8
      vertex 13.923 -29.5878 6.8
    endloop
  endfacet
  facet normal -0 0 1
    outer loop
      vertex 7.78723 -23.9666 6.8
      vertex 10.1049 -31.0995 6.8
      vertex 10.7296 -22.8016 6.8
    endloop
  endfacet
  facet normal 0 0 1
    outer loop
      vertex 7.78723 -23.9666 6.8
      vertex 6.12737 -32.1208 6.8
      vertex 10.1049 -31.0995 6.8
    endloop
  endfacet
  facet normal -0 0 1
    outer loop
      vertex 4.72201 -24.7536 6.8
      vertex 6.12737 -32.1208 6.8
      vertex 7.78723 -23.9666 6.8
    endloop
  endfacet
  facet normal 0 0 1
    outer loop
      vertex 4.72201 -24.7536 6.8
      vertex 2.05325 -32.6355 6.8
      vertex 6.12737 -32.1208 6.8
    endloop
  endfacet
  facet normal -0 0 1
    outer loop
      vertex 1.58232 -25.1503 6.8
      vertex 2.05325 -32.6355 6.8
      vertex 4.72201 -24.7536 6.8
    endloop
  endfacet
  facet normal -0 0 1
    outer loop
      vertex -1.58232 -25.1503 6.8
      vertex 2.05325 -32.6355 6.8
      vertex 1.58232 -25.1503 6.8
    endloop
  endfacet
  facet normal 0 0 1
    outer loop
      vertex -1.58232 -25.1503 6.8
      vertex -2.05325 -32.6355 6.8
      vertex 2.05325 -32.6355 6.8
    endloop
  endfacet
  facet normal 0 0 1
    outer loop
      vertex -4.72201 -24.7536 6.8
      vertex -2.05325 -32.6355 6.8
      vertex -1.58232 -25.1503 6.8
    endloop
  endfacet
  facet normal 0 0 1
    outer loop
      vertex -4.72201 -24.7536 6.8
      vertex -6.12737 -32.1208 6.8
      vertex -2.05325 -32.6355 6.8
    endloop
  endfacet
  facet normal 0 0 1
    outer loop
      vertex -7.78723 -23.9666 6.8
      vertex -6.12737 -32.1208 6.8
      vertex -4.72201 -24.7536 6.8
    endloop
  endfacet
  facet normal 0 0 1
    outer loop
      vertex -7.78723 -23.9666 6.8
      vertex -10.1049 -31.0995 6.8
      vertex -6.12737 -32.1208 6.8
    endloop
  endfacet
  facet normal 0 0 1
    outer loop
      vertex -10.7296 -22.8016 6.8
      vertex -10.1049 -31.0995 6.8
      vertex -7.78723 -23.9666 6.8
    endloop
  endfacet
  facet normal 0 0 1
    outer loop
      vertex -13.923 -29.5878 6.8
      vertex -10.7296 -22.8016 6.8
      vertex -13.5028 -21.2771 6.8
    endloop
  endfacet
  facet normal 0 0 1
    outer loop
      vertex -10.7296 -22.8016 6.8
      vertex -13.923 -29.5878 6.8
      vertex -10.1049 -31.0995 6.8
    endloop
  endfacet
  facet normal 0 0 1
    outer loop
      vertex -17.5215 -27.6095 6.8
      vertex -13.5028 -21.2771 6.8
      vertex -16.0631 -19.4169 6.8
    endloop
  endfacet
  facet normal 0 0 1
    outer loop
      vertex -13.5028 -21.2771 6.8
      vertex -17.5215 -27.6095 6.8
      vertex -13.923 -29.5878 6.8
    endloop
  endfacet
  facet normal 0 0 1
    outer loop
      vertex -20.8438 -25.1958 6.8
      vertex -16.0631 -19.4169 6.8
      vertex -18.37 -17.2506 6.8
    endloop
  endfacet
  facet normal 0 0 1
    outer loop
      vertex -23.8373 -22.3847 6.8
      vertex -18.37 -17.2506 6.8
      vertex -20.3872 -14.8122 6.8
    endloop
  endfacet
  facet normal 0 0 1
    outer loop
      vertex -16.0631 -19.4169 6.8
      vertex -20.8438 -25.1958 6.8
      vertex -17.5215 -27.6095 6.8
    endloop
  endfacet
  facet normal 0 0 1
    outer loop
      vertex -26.4549 -19.2206 6.8
      vertex -20.3872 -14.8122 6.8
      vertex -22.0829 -12.1402 6.8
    endloop
  endfacet
  facet normal 0 0 1
    outer loop
      vertex -28.6552 -15.7533 6.8
      vertex -22.0829 -12.1402 6.8
      vertex -23.4304 -9.27674 6.8
    endloop
  endfacet
  facet normal 0 0 1
    outer loop
      vertex -18.37 -17.2506 6.8
      vertex -23.8373 -22.3847 6.8
      vertex -20.8438 -25.1958 6.8
    endloop
  endfacet
  facet normal 0 0 1
    outer loop
      vertex -30.4037 -12.0377 6.8
      vertex -23.4304 -9.27674 6.8
      vertex -24.4083 -6.26698 6.8
    endloop
  endfacet
  facet normal 0 0 1
    outer loop
      vertex -31.6727 -8.13216 6.8
      vertex -24.4083 -6.26698 6.8
      vertex -25.0013 -3.1584 6.8
    endloop
  endfacet
  facet normal 0 0 1
    outer loop
      vertex -32.4422 -4.0984 6.8
      vertex -25.0013 -3.1584 6.8
      vertex -25.2 0 6.8
    endloop
  endfacet
  facet normal -0 0 1
    outer loop
      vertex -31.6727 8.13216 6.8
      vertex -24.4083 6.26698 6.8
      vertex -30.4037 12.0377 6.8
    endloop
  endfacet
  facet normal 0 0 1
    outer loop
      vertex -20.3872 -14.8122 6.8
      vertex -26.4549 -19.2206 6.8
      vertex -23.8373 -22.3847 6.8
    endloop
  endfacet
  facet normal 0 0 1
    outer loop
      vertex -24.4083 6.26698 6.8
      vertex -31.6727 8.13216 6.8
      vertex -25.0013 3.1584 6.8
    endloop
  endfacet
  facet normal 0 0 1
    outer loop
      vertex -22.0829 -12.1402 6.8
      vertex -28.6552 -15.7533 6.8
      vertex -26.4549 -19.2206 6.8
    endloop
  endfacet
  facet normal -0 0 1
    outer loop
      vertex -32.4422 4.0984 6.8
      vertex -25.0013 3.1584 6.8
      vertex -31.6727 8.13216 6.8
    endloop
  endfacet
  facet normal 0 0 1
    outer loop
      vertex -23.4304 -9.27674 6.8
      vertex -30.4037 -12.0377 6.8
      vertex -28.6552 -15.7533 6.8
    endloop
  endfacet
  facet normal 0 0 1
    outer loop
      vertex -25.0013 3.1584 6.8
      vertex -32.4422 4.0984 6.8
      vertex -25.2 0 6.8
    endloop
  endfacet
  facet normal 0 0 1
    outer loop
      vertex -24.4083 -6.26698 6.8
      vertex -31.6727 -8.13216 6.8
      vertex -30.4037 -12.0377 6.8
    endloop
  endfacet
  facet normal 0 0 1
    outer loop
      vertex -32.7 0 6.8
      vertex -25.2 0 6.8
      vertex -32.4422 4.0984 6.8
    endloop
  endfacet
  facet normal 0 0 1
    outer loop
      vertex -25.0013 -3.1584 6.8
      vertex -32.4422 -4.0984 6.8
      vertex -31.6727 -8.13216 6.8
    endloop
  endfacet
  facet normal 0 0 1
    outer loop
      vertex -25.2 0 6.8
      vertex -32.7 0 6.8
      vertex -32.4422 -4.0984 6.8
    endloop
  endfacet
  facet normal 0.998027 -0.0627785 0
    outer loop
      vertex 32.4422 -4.0984 6.8
      vertex 32.7 0 0
      vertex 32.7 0 6.8
    endloop
  endfacet
  facet normal 0.998027 -0.0627785 0
    outer loop
      vertex 32.7 0 0
      vertex 32.4422 -4.0984 6.8
      vertex 32.4422 -4.0984 0
    endloop
  endfacet
  facet normal 0.684549 -0.728967 0
    outer loop
      vertex 20.8438 -25.1958 0
      vertex 23.8373 -22.3847 6.8
      vertex 20.8438 -25.1958 6.8
    endloop
  endfacet
  facet normal 0.684549 -0.728967 0
    outer loop
      vertex 23.8373 -22.3847 6.8
      vertex 20.8438 -25.1958 0
      vertex 23.8373 -22.3847 0
    endloop
  endfacet
  facet normal 0.982286 -0.187386 0
    outer loop
      vertex 31.6727 -8.13216 6.8
      vertex 32.4422 -4.0984 0
      vertex 32.4422 -4.0984 6.8
    endloop
  endfacet
  facet normal 0.982286 -0.187386 0
    outer loop
      vertex 32.4422 -4.0984 0
      vertex 31.6727 -8.13216 6.8
      vertex 31.6727 -8.13216 0
    endloop
  endfacet
  facet normal -0.368126 -0.929776 0
    outer loop
      vertex -13.923 -29.5878 0
      vertex -10.1049 -31.0995 6.8
      vertex -13.923 -29.5878 6.8
    endloop
  endfacet
  facet normal -0.368126 -0.929776 -0
    outer loop
      vertex -10.1049 -31.0995 6.8
      vertex -13.923 -29.5878 0
      vertex -10.1049 -31.0995 0
    endloop
  endfacet
  facet normal -0.90482 -0.425794 0
    outer loop
      vertex -28.6552 -15.7533 0
      vertex -30.4037 -12.0377 6.8
      vertex -30.4037 -12.0377 0
    endloop
  endfacet
  facet normal -0.90482 -0.425794 0
    outer loop
      vertex -30.4037 -12.0377 6.8
      vertex -28.6552 -15.7533 0
      vertex -28.6552 -15.7533 6.8
    endloop
  endfacet
  facet normal 0 0 -1
    outer loop
      vertex 25.2 0 0
      vertex 32.7 0 0
      vertex 32.4422 -4.0984 0
    endloop
  endfacet
  facet normal 0 0 -1
    outer loop
      vertex 25.0013 -3.1584 0
      vertex 32.4422 -4.0984 0
      vertex 31.6727 -8.13216 0
    endloop
  endfacet
  facet normal 0 0 -1
    outer loop
      vertex 32.7 0 0
      vertex 25.2 0 0
      vertex 32.4422 4.0984 0
    endloop
  endfacet
  facet normal 0 0 -1
    outer loop
      vertex 24.4083 -6.26698 0
      vertex 31.6727 -8.13216 0
      vertex 30.4037 -12.0377 0
    endloop
  endfacet
  facet normal 0 0 -1
    outer loop
      vertex 25.0013 3.1584 0
      vertex 32.4422 4.0984 0
      vertex 25.2 0 0
    endloop
  endfacet
  facet normal 0 0 -1
    outer loop
      vertex 23.4304 -9.27674 0
      vertex 30.4037 -12.0377 0
      vertex 28.6552 -15.7533 0
    endloop
  endfacet
  facet normal -0 0 -1
    outer loop
      vertex 32.4422 4.0984 0
      vertex 25.0013 3.1584 0
      vertex 31.6727 8.13216 0
    endloop
  endfacet
  facet normal 0 0 -1
    outer loop
      vertex 22.0829 -12.1402 0
      vertex 28.6552 -15.7533 0
      vertex 26.4549 -19.2206 0
    endloop
  endfacet
  facet normal 0 0 -1
    outer loop
      vertex 24.4083 6.26698 0
      vertex 31.6727 8.13216 0
      vertex 25.0013 3.1584 0
    endloop
  endfacet
  facet normal -0 0 -1
    outer loop
      vertex 31.6727 8.13216 0
      vertex 24.4083 6.26698 0
      vertex 30.4037 12.0377 0
    endloop
  endfacet
  facet normal 0 0 -1
    outer loop
      vertex 32.4422 -4.0984 0
      vertex 25.0013 -3.1584 0
      vertex 25.2 0 0
    endloop
  endfacet
  facet normal 0 0 -1
    outer loop
      vertex 31.6727 -8.13216 0
      vertex 24.4083 -6.26698 0
      vertex 25.0013 -3.1584 0
    endloop
  endfacet
  facet normal 0 0 -1
    outer loop
      vertex 20.3872 -14.8122 0
      vertex 26.4549 -19.2206 0
      vertex 23.8373 -22.3847 0
    endloop
  endfacet
  facet normal 0 0 -1
    outer loop
      vertex 30.4037 -12.0377 0
      vertex 23.4304 -9.27674 0
      vertex 24.4083 -6.26698 0
    endloop
  endfacet
  facet normal 0 0 -1
    outer loop
      vertex 28.6552 -15.7533 0
      vertex 22.0829 -12.1402 0
      vertex 23.4304 -9.27674 0
    endloop
  endfacet
  facet normal 0 0 -1
    outer loop
      vertex 18.37 -17.2506 0
      vertex 23.8373 -22.3847 0
      vertex 20.8438 -25.1958 0
    endloop
  endfacet
  facet normal 0 0 -1
    outer loop
      vertex 26.4549 -19.2206 0
      vertex 20.3872 -14.8122 0
      vertex 22.0829 -12.1402 0
    endloop
  endfacet
  facet normal 0 0 -1
    outer loop
      vertex 23.8373 -22.3847 0
      vertex 18.37 -17.2506 0
      vertex 20.3872 -14.8122 0
    endloop
  endfacet
  facet normal 0 0 -1
    outer loop
      vertex 16.0631 -19.4169 0
      vertex 20.8438 -25.1958 0
      vertex 17.5215 -27.6095 0
    endloop
  endfacet
  facet normal 0 0 -1
    outer loop
      vertex 20.8438 -25.1958 0
      vertex 16.0631 -19.4169 0
      vertex 18.37 -17.2506 0
    endloop
  endfacet
  facet normal 0 0 -1
    outer loop
      vertex 13.5028 -21.2771 0
      vertex 17.5215 -27.6095 0
      vertex 13.923 -29.5878 0
    endloop
  endfacet
  facet normal 0 0 -1
    outer loop
      vertex 17.5215 -27.6095 0
      vertex 13.5028 -21.2771 0
      vertex 16.0631 -19.4169 0
    endloop
  endfacet
  facet normal 0 0 -1
    outer loop
      vertex 13.923 -29.5878 0
      vertex 10.7296 -22.8016 0
      vertex 13.5028 -21.2771 0
    endloop
  endfacet
  facet normal 0 0 -1
    outer loop
      vertex 10.1049 -31.0995 0
      vertex 10.7296 -22.8016 0
      vertex 13.923 -29.5878 0
    endloop
  endfacet
  facet normal 0 0 -1
    outer loop
      vertex 10.1049 -31.0995 0
      vertex 7.78723 -23.9666 0
      vertex 10.7296 -22.8016 0
    endloop
  endfacet
  facet normal 0 0 -1
    outer loop
      vertex 6.12737 -32.1208 0
      vertex 7.78723 -23.9666 0
      vertex 10.1049 -31.0995 0
    endloop
  endfacet
  facet normal 0 0 -1
    outer loop
      vertex 6.12737 -32.1208 0
      vertex 4.72201 -24.7536 0
      vertex 7.78723 -23.9666 0
    endloop
  endfacet
  facet normal 0 0 -1
    outer loop
      vertex 2.05325 -32.6355 0
      vertex 4.72201 -24.7536 0
      vertex 6.12737 -32.1208 0
    endloop
  endfacet
  facet normal 0 0 -1
    outer loop
      vertex 2.05325 -32.6355 0
      vertex 1.58232 -25.1503 0
      vertex 4.72201 -24.7536 0
    endloop
  endfacet
  facet normal 0 0 -1
    outer loop
      vertex 2.05325 -32.6355 0
      vertex -1.58232 -25.1503 0
      vertex 1.58232 -25.1503 0
    endloop
  endfacet
  facet normal 0 0 -1
    outer loop
      vertex -2.05325 -32.6355 0
      vertex -1.58232 -25.1503 0
      vertex 2.05325 -32.6355 0
    endloop
  endfacet
  facet normal 0 0 -1
    outer loop
      vertex -2.05325 -32.6355 0
      vertex -4.72201 -24.7536 0
      vertex -1.58232 -25.1503 0
    endloop
  endfacet
  facet normal 0 0 -1
    outer loop
      vertex -6.12737 -32.1208 0
      vertex -4.72201 -24.7536 0
      vertex -2.05325 -32.6355 0
    endloop
  endfacet
  facet normal 0 0 -1
    outer loop
      vertex -6.12737 -32.1208 0
      vertex -7.78723 -23.9666 0
      vertex -4.72201 -24.7536 0
    endloop
  endfacet
  facet normal 0 0 -1
    outer loop
      vertex -10.1049 -31.0995 0
      vertex -7.78723 -23.9666 0
      vertex -6.12737 -32.1208 0
    endloop
  endfacet
  facet normal 0 0 -1
    outer loop
      vertex -10.1049 -31.0995 0
      vertex -10.7296 -22.8016 0
      vertex -7.78723 -23.9666 0
    endloop
  endfacet
  facet normal 0 0 -1
    outer loop
      vertex -13.923 -29.5878 0
      vertex -10.7296 -22.8016 0
      vertex -10.1049 -31.0995 0
    endloop
  endfacet
  facet normal -0 0 -1
    outer loop
      vertex -10.7296 -22.8016 0
      vertex -13.923 -29.5878 0
      vertex -13.5028 -21.2771 0
    endloop
  endfacet
  facet normal 0 0 -1
    outer loop
      vertex -17.5215 -27.6095 0
      vertex -13.5028 -21.2771 0
      vertex -13.923 -29.5878 0
    endloop
  endfacet
  facet normal -0 0 -1
    outer loop
      vertex -13.5028 -21.2771 0
      vertex -17.5215 -27.6095 0
      vertex -16.0631 -19.4169 0
    endloop
  endfacet
  facet normal 0 0 -1
    outer loop
      vertex -20.8438 -25.1958 0
      vertex -16.0631 -19.4169 0
      vertex -17.5215 -27.6095 0
    endloop
  endfacet
  facet normal -0 0 -1
    outer loop
      vertex -16.0631 -19.4169 0
      vertex -20.8438 -25.1958 0
      vertex -18.37 -17.2506 0
    endloop
  endfacet
  facet normal 0 0 -1
    outer loop
      vertex -23.8373 -22.3847 0
      vertex -18.37 -17.2506 0
      vertex -20.8438 -25.1958 0
    endloop
  endfacet
  facet normal -0 0 -1
    outer loop
      vertex -18.37 -17.2506 0
      vertex -23.8373 -22.3847 0
      vertex -20.3872 -14.8122 0
    endloop
  endfacet
  facet normal 0 0 -1
    outer loop
      vertex -26.4549 -19.2206 0
      vertex -20.3872 -14.8122 0
      vertex -23.8373 -22.3847 0
    endloop
  endfacet
  facet normal -0 0 -1
    outer loop
      vertex -20.3872 -14.8122 0
      vertex -26.4549 -19.2206 0
      vertex -22.0829 -12.1402 0
    endloop
  endfacet
  facet normal 0 0 -1
    outer loop
      vertex -28.6552 -15.7533 0
      vertex -22.0829 -12.1402 0
      vertex -26.4549 -19.2206 0
    endloop
  endfacet
  facet normal -0 0 -1
    outer loop
      vertex -22.0829 -12.1402 0
      vertex -28.6552 -15.7533 0
      vertex -23.4304 -9.27674 0
    endloop
  endfacet
  facet normal 0 0 -1
    outer loop
      vertex -30.4037 -12.0377 0
      vertex -23.4304 -9.27674 0
      vertex -28.6552 -15.7533 0
    endloop
  endfacet
  facet normal -0 0 -1
    outer loop
      vertex -23.4304 -9.27674 0
      vertex -30.4037 -12.0377 0
      vertex -24.4083 -6.26698 0
    endloop
  endfacet
  facet normal 0 0 -1
    outer loop
      vertex 23.4304 9.27674 0
      vertex 30.4037 12.0377 0
      vertex 24.4083 6.26698 0
    endloop
  endfacet
  facet normal -0 0 -1
    outer loop
      vertex 30.4037 12.0377 0
      vertex 23.4304 9.27674 0
      vertex 28.6552 15.7533 0
    endloop
  endfacet
  facet normal 0 0 -1
    outer loop
      vertex 22.0829 12.1402 0
      vertex 28.6552 15.7533 0
      vertex 23.4304 9.27674 0
    endloop
  endfacet
  facet normal -0 0 -1
    outer loop
      vertex 28.6552 15.7533 0
      vertex 22.0829 12.1402 0
      vertex 26.4549 19.2206 0
    endloop
  endfacet
  facet normal 0 0 -1
    outer loop
      vertex 20.3872 14.8122 0
      vertex 26.4549 19.2206 0
      vertex 22.0829 12.1402 0
    endloop
  endfacet
  facet normal -0 0 -1
    outer loop
      vertex 26.4549 19.2206 0
      vertex 20.3872 14.8122 0
      vertex 23.8373 22.3847 0
    endloop
  endfacet
  facet normal 0 0 -1
    outer loop
      vertex 18.37 17.2506 0
      vertex 23.8373 22.3847 0
      vertex 20.3872 14.8122 0
    endloop
  endfacet
  facet normal -0 0 -1
    outer loop
      vertex 23.8373 22.3847 0
      vertex 18.37 17.2506 0
      vertex 20.8438 25.1958 0
    endloop
  endfacet
  facet normal 0 0 -1
    outer loop
      vertex 16.0631 19.4169 0
      vertex 20.8438 25.1958 0
      vertex 18.37 17.2506 0
    endloop
  endfacet
  facet normal -0 0 -1
    outer loop
      vertex 20.8438 25.1958 0
      vertex 16.0631 19.4169 0
      vertex 17.5215 27.6095 0
    endloop
  endfacet
  facet normal 0 0 -1
    outer loop
      vertex 13.5028 21.2771 0
      vertex 17.5215 27.6095 0
      vertex 16.0631 19.4169 0
    endloop
  endfacet
  facet normal -0 0 -1
    outer loop
      vertex 17.5215 27.6095 0
      vertex 13.5028 21.2771 0
      vertex 13.923 29.5878 0
    endloop
  endfacet
  facet normal 0 0 -1
    outer loop
      vertex 10.7296 22.8016 0
      vertex 13.923 29.5878 0
      vertex 13.5028 21.2771 0
    endloop
  endfacet
  facet normal 0 0 -1
    outer loop
      vertex 10.7296 22.8016 0
      vertex 10.1049 31.0995 0
      vertex 13.923 29.5878 0
    endloop
  endfacet
  facet normal 0 0 -1
    outer loop
      vertex 7.78723 23.9666 0
      vertex 10.1049 31.0995 0
      vertex 10.7296 22.8016 0
    endloop
  endfacet
  facet normal 0 0 -1
    outer loop
      vertex 7.78723 23.9666 0
      vertex 6.12737 32.1208 0
      vertex 10.1049 31.0995 0
    endloop
  endfacet
  facet normal 0 0 -1
    outer loop
      vertex 4.72201 24.7536 0
      vertex 6.12737 32.1208 0
      vertex 7.78723 23.9666 0
    endloop
  endfacet
  facet normal 0 0 -1
    outer loop
      vertex 4.72201 24.7536 0
      vertex 2.05325 32.6355 0
      vertex 6.12737 32.1208 0
    endloop
  endfacet
  facet normal 0 0 -1
    outer loop
      vertex 1.58232 25.1503 0
      vertex 2.05325 32.6355 0
      vertex 4.72201 24.7536 0
    endloop
  endfacet
  facet normal 0 0 -1
    outer loop
      vertex -1.58232 25.1503 0
      vertex 2.05325 32.6355 0
      vertex 1.58232 25.1503 0
    endloop
  endfacet
  facet normal 0 0 -1
    outer loop
      vertex -1.58232 25.1503 0
      vertex -2.05325 32.6355 0
      vertex 2.05325 32.6355 0
    endloop
  endfacet
  facet normal 0 0 -1
    outer loop
      vertex -4.72201 24.7536 0
      vertex -2.05325 32.6355 0
      vertex -1.58232 25.1503 0
    endloop
  endfacet
  facet normal 0 0 -1
    outer loop
      vertex -4.72201 24.7536 0
      vertex -6.12737 32.1208 0
      vertex -2.05325 32.6355 0
    endloop
  endfacet
  facet normal 0 0 -1
    outer loop
      vertex -7.78723 23.9666 0
      vertex -6.12737 32.1208 0
      vertex -4.72201 24.7536 0
    endloop
  endfacet
  facet normal 0 0 -1
    outer loop
      vertex -7.78723 23.9666 0
      vertex -10.1049 31.0995 0
      vertex -6.12737 32.1208 0
    endloop
  endfacet
  facet normal 0 0 -1
    outer loop
      vertex -10.7296 22.8016 0
      vertex -10.1049 31.0995 0
      vertex -7.78723 23.9666 0
    endloop
  endfacet
  facet normal 0 0 -1
    outer loop
      vertex -13.923 29.5878 0
      vertex -10.7296 22.8016 0
      vertex -13.5028 21.2771 0
    endloop
  endfacet
  facet normal 0 0 -1
    outer loop
      vertex -10.7296 22.8016 0
      vertex -13.923 29.5878 0
      vertex -10.1049 31.0995 0
    endloop
  endfacet
  facet normal 0 0 -1
    outer loop
      vertex -17.5215 27.6095 0
      vertex -13.5028 21.2771 0
      vertex -16.0631 19.4169 0
    endloop
  endfacet
  facet normal 0 0 -1
    outer loop
      vertex -13.5028 21.2771 0
      vertex -17.5215 27.6095 0
      vertex -13.923 29.5878 0
    endloop
  endfacet
  facet normal 0 0 -1
    outer loop
      vertex -20.8438 25.1958 0
      vertex -16.0631 19.4169 0
      vertex -18.37 17.2506 0
    endloop
  endfacet
  facet normal 0 0 -1
    outer loop
      vertex -23.8373 22.3847 0
      vertex -18.37 17.2506 0
      vertex -20.3872 14.8122 0
    endloop
  endfacet
  facet normal 0 0 -1
    outer loop
      vertex -16.0631 19.4169 0
      vertex -20.8438 25.1958 0
      vertex -17.5215 27.6095 0
    endloop
  endfacet
  facet normal 0 0 -1
    outer loop
      vertex -26.4549 19.2206 0
      vertex -20.3872 14.8122 0
      vertex -22.0829 12.1402 0
    endloop
  endfacet
  facet normal 0 0 -1
    outer loop
      vertex -28.6552 15.7533 0
      vertex -22.0829 12.1402 0
      vertex -23.4304 9.27674 0
    endloop
  endfacet
  facet normal 0 0 -1
    outer loop
      vertex -18.37 17.2506 0
      vertex -23.8373 22.3847 0
      vertex -20.8438 25.1958 0
    endloop
  endfacet
  facet normal 0 0 -1
    outer loop
      vertex -30.4037 12.0377 0
      vertex -23.4304 9.27674 0
      vertex -24.4083 6.26698 0
    endloop
  endfacet
  facet normal 0 0 -1
    outer loop
      vertex -31.6727 8.13216 0
      vertex -24.4083 6.26698 0
      vertex -25.0013 3.1584 0
    endloop
  endfacet
  facet normal 0 0 -1
    outer loop
      vertex -32.4422 4.0984 0
      vertex -25.0013 3.1584 0
      vertex -25.2 0 0
    endloop
  endfacet
  facet normal 0 0 -1
    outer loop
      vertex -31.6727 -8.13216 0
      vertex -24.4083 -6.26698 0
      vertex -30.4037 -12.0377 0
    endloop
  endfacet
  facet normal 0 0 -1
    outer loop
      vertex -20.3872 14.8122 0
      vertex -26.4549 19.2206 0
      vertex -23.8373 22.3847 0
    endloop
  endfacet
  facet normal -0 0 -1
    outer loop
      vertex -24.4083 -6.26698 0
      vertex -31.6727 -8.13216 0
      vertex -25.0013 -3.1584 0
    endloop
  endfacet
  facet normal 0 0 -1
    outer loop
      vertex -22.0829 12.1402 0
      vertex -28.6552 15.7533 0
      vertex -26.4549 19.2206 0
    endloop
  endfacet
  facet normal 0 0 -1
    outer loop
      vertex -32.4422 -4.0984 0
      vertex -25.0013 -3.1584 0
      vertex -31.6727 -8.13216 0
    endloop
  endfacet
  facet normal 0 0 -1
    outer loop
      vertex -23.4304 9.27674 0
      vertex -30.4037 12.0377 0
      vertex -28.6552 15.7533 0
    endloop
  endfacet
  facet normal -0 0 -1
    outer loop
      vertex -25.0013 -3.1584 0
      vertex -32.4422 -4.0984 0
      vertex -25.2 0 0
    endloop
  endfacet
  facet normal 0 0 -1
    outer loop
      vertex -24.4083 6.26698 0
      vertex -31.6727 8.13216 0
      vertex -30.4037 12.0377 0
    endloop
  endfacet
  facet normal 0 0 -1
    outer loop
      vertex -32.7 0 0
      vertex -25.2 0 0
      vertex -32.4422 -4.0984 0
    endloop
  endfacet
  facet normal 0 0 -1
    outer loop
      vertex -25.0013 3.1584 0
      vertex -32.4422 4.0984 0
      vertex -31.6727 8.13216 0
    endloop
  endfacet
  facet normal 0 0 -1
    outer loop
      vertex -25.2 0 0
      vertex -32.7 0 0
      vertex -32.4422 4.0984 0
    endloop
  endfacet
  facet normal 0.368126 -0.929776 0
    outer loop
      vertex 10.1049 -31.0995 0
      vertex 13.923 -29.5878 6.8
      vertex 10.1049 -31.0995 6.8
    endloop
  endfacet
  facet normal 0.368126 -0.929776 0
    outer loop
      vertex 13.923 -29.5878 6.8
      vertex 10.1049 -31.0995 0
      vertex 13.923 -29.5878 0
    endloop
  endfacet
  facet normal 0.481755 0.876306 -0
    outer loop
      vertex 17.5215 27.6095 0
      vertex 13.923 29.5878 6.8
      vertex 17.5215 27.6095 6.8
    endloop
  endfacet
  facet normal 0.481755 0.876306 0
    outer loop
      vertex 13.923 29.5878 6.8
      vertex 17.5215 27.6095 0
      vertex 13.923 29.5878 0
    endloop
  endfacet
  facet normal -0.77051 0.637428 0
    outer loop
      vertex -26.4549 19.2206 0
      vertex -23.8373 22.3847 6.8
      vertex -23.8373 22.3847 0
    endloop
  endfacet
  facet normal -0.77051 0.637428 0
    outer loop
      vertex -23.8373 22.3847 6.8
      vertex -26.4549 19.2206 0
      vertex -26.4549 19.2206 6.8
    endloop
  endfacet
  facet normal -0.587771 0.809028 0
    outer loop
      vertex -17.5215 27.6095 0
      vertex -20.8438 25.1958 6.8
      vertex -17.5215 27.6095 6.8
    endloop
  endfacet
  facet normal -0.587771 0.809028 0
    outer loop
      vertex -20.8438 25.1958 6.8
      vertex -17.5215 27.6095 0
      vertex -20.8438 25.1958 0
    endloop
  endfacet
  facet normal -0.2487 0.968581 0
    outer loop
      vertex -6.12737 32.1208 0
      vertex -10.1049 31.0995 6.8
      vertex -6.12737 32.1208 6.8
    endloop
  endfacet
  facet normal -0.2487 0.968581 0
    outer loop
      vertex -10.1049 31.0995 6.8
      vertex -6.12737 32.1208 0
      vertex -10.1049 31.0995 0
    endloop
  endfacet
  facet normal 0.481755 -0.876306 0
    outer loop
      vertex 13.923 -29.5878 0
      vertex 17.5215 -27.6095 6.8
      vertex 13.923 -29.5878 6.8
    endloop
  endfacet
  facet normal 0.481755 -0.876306 0
    outer loop
      vertex 17.5215 -27.6095 6.8
      vertex 13.923 -29.5878 0
      vertex 17.5215 -27.6095 0
    endloop
  endfacet
  facet normal 0.587771 -0.809028 0
    outer loop
      vertex 17.5215 -27.6095 0
      vertex 20.8438 -25.1958 6.8
      vertex 17.5215 -27.6095 6.8
    endloop
  endfacet
  facet normal 0.587771 -0.809028 0
    outer loop
      vertex 20.8438 -25.1958 6.8
      vertex 17.5215 -27.6095 0
      vertex 20.8438 -25.1958 0
    endloop
  endfacet
  facet normal 0.90482 -0.425794 0
    outer loop
      vertex 28.6552 -15.7533 6.8
      vertex 30.4037 -12.0377 0
      vertex 30.4037 -12.0377 6.8
    endloop
  endfacet
  facet normal 0.90482 -0.425794 0
    outer loop
      vertex 30.4037 -12.0377 0
      vertex 28.6552 -15.7533 6.8
      vertex 28.6552 -15.7533 0
    endloop
  endfacet
  facet normal 0.77051 -0.637428 0
    outer loop
      vertex 23.8373 -22.3847 6.8
      vertex 26.4549 -19.2206 0
      vertex 26.4549 -19.2206 6.8
    endloop
  endfacet
  facet normal 0.77051 -0.637428 0
    outer loop
      vertex 26.4549 -19.2206 0
      vertex 23.8373 -22.3847 6.8
      vertex 23.8373 -22.3847 0
    endloop
  endfacet
  facet normal -0.684549 -0.728967 0
    outer loop
      vertex -23.8373 -22.3847 0
      vertex -20.8438 -25.1958 6.8
      vertex -23.8373 -22.3847 6.8
    endloop
  endfacet
  facet normal -0.684549 -0.728967 -0
    outer loop
      vertex -20.8438 -25.1958 6.8
      vertex -23.8373 -22.3847 0
      vertex -20.8438 -25.1958 0
    endloop
  endfacet
  facet normal -0.951056 -0.30902 0
    outer loop
      vertex -30.4037 -12.0377 0
      vertex -31.6727 -8.13216 6.8
      vertex -31.6727 -8.13216 0
    endloop
  endfacet
  facet normal -0.951056 -0.30902 0
    outer loop
      vertex -31.6727 -8.13216 6.8
      vertex -30.4037 -12.0377 0
      vertex -30.4037 -12.0377 6.8
    endloop
  endfacet
  facet normal 0.2487 -0.968581 0
    outer loop
      vertex 6.12737 -32.1208 0
      vertex 10.1049 -31.0995 6.8
      vertex 6.12737 -32.1208 6.8
    endloop
  endfacet
  facet normal 0.2487 -0.968581 0
    outer loop
      vertex 10.1049 -31.0995 6.8
      vertex 6.12737 -32.1208 0
      vertex 10.1049 -31.0995 0
    endloop
  endfacet
  facet normal 0.951056 -0.30902 0
    outer loop
      vertex 30.4037 -12.0377 6.8
      vertex 31.6727 -8.13216 0
      vertex 31.6727 -8.13216 6.8
    endloop
  endfacet
  facet normal 0.951056 -0.30902 0
    outer loop
      vertex 31.6727 -8.13216 0
      vertex 30.4037 -12.0377 6.8
      vertex 30.4037 -12.0377 0
    endloop
  endfacet
  facet normal 0.844341 -0.535807 0
    outer loop
      vertex 26.4549 -19.2206 6.8
      vertex 28.6552 -15.7533 0
      vertex 28.6552 -15.7533 6.8
    endloop
  endfacet
  facet normal 0.844341 -0.535807 0
    outer loop
      vertex 28.6552 -15.7533 0
      vertex 26.4549 -19.2206 6.8
      vertex 26.4549 -19.2206 0
    endloop
  endfacet
  facet normal -0.125338 -0.992114 0
    outer loop
      vertex -6.12737 -32.1208 0
      vertex -2.05325 -32.6355 6.8
      vertex -6.12737 -32.1208 6.8
    endloop
  endfacet
  facet normal -0.125338 -0.992114 -0
    outer loop
      vertex -2.05325 -32.6355 6.8
      vertex -6.12737 -32.1208 0
      vertex -2.05325 -32.6355 0
    endloop
  endfacet
  facet normal -0.481755 -0.876306 0
    outer loop
      vertex -17.5215 -27.6095 0
      vertex -13.923 -29.5878 6.8
      vertex -17.5215 -27.6095 6.8
    endloop
  endfacet
  facet normal -0.481755 -0.876306 -0
    outer loop
      vertex -13.923 -29.5878 6.8
      vertex -17.5215 -27.6095 0
      vertex -13.923 -29.5878 0
    endloop
  endfacet
  facet normal -0.2487 -0.968581 0
    outer loop
      vertex -10.1049 -31.0995 0
      vertex -6.12737 -32.1208 6.8
      vertex -10.1049 -31.0995 6.8
    endloop
  endfacet
  facet normal -0.2487 -0.968581 -0
    outer loop
      vertex -6.12737 -32.1208 6.8
      vertex -10.1049 -31.0995 0
      vertex -6.12737 -32.1208 0
    endloop
  endfacet
  facet normal -0.844341 -0.535807 0
    outer loop
      vertex -26.4549 -19.2206 0
      vertex -28.6552 -15.7533 6.8
      vertex -28.6552 -15.7533 0
    endloop
  endfacet
  facet normal -0.844341 -0.535807 0
    outer loop
      vertex -28.6552 -15.7533 6.8
      vertex -26.4549 -19.2206 0
      vertex -26.4549 -19.2206 6.8
    endloop
  endfacet
  facet normal -0.982286 -0.187386 0
    outer loop
      vertex -31.6727 -8.13216 0
      vertex -32.4422 -4.0984 6.8
      vertex -32.4422 -4.0984 0
    endloop
  endfacet
  facet normal -0.982286 -0.187386 0
    outer loop
      vertex -32.4422 -4.0984 6.8
      vertex -31.6727 -8.13216 0
      vertex -31.6727 -8.13216 6.8
    endloop
  endfacet
  facet normal -0.998027 -0.0627785 0
    outer loop
      vertex -32.4422 -4.0984 0
      vertex -32.7 0 6.8
      vertex -32.7 0 0
    endloop
  endfacet
  facet normal -0.998027 -0.0627785 0
    outer loop
      vertex -32.7 0 6.8
      vertex -32.4422 -4.0984 0
      vertex -32.4422 -4.0984 6.8
    endloop
  endfacet
  facet normal -0.587771 -0.809028 0
    outer loop
      vertex -20.8438 -25.1958 0
      vertex -17.5215 -27.6095 6.8
      vertex -20.8438 -25.1958 6.8
    endloop
  endfacet
  facet normal -0.587771 -0.809028 -0
    outer loop
      vertex -17.5215 -27.6095 6.8
      vertex -20.8438 -25.1958 0
      vertex -17.5215 -27.6095 0
    endloop
  endfacet
  facet normal -0.77051 -0.637428 0
    outer loop
      vertex -23.8373 -22.3847 0
      vertex -26.4549 -19.2206 6.8
      vertex -26.4549 -19.2206 0
    endloop
  endfacet
  facet normal -0.77051 -0.637428 0
    outer loop
      vertex -26.4549 -19.2206 6.8
      vertex -23.8373 -22.3847 0
      vertex -23.8373 -22.3847 6.8
    endloop
  endfacet
  facet normal -0.998027 -0.0627875 0
    outer loop
      vertex 25.2 0 0
      vertex 25.0013 3.1584 6.8
      vertex 25.0013 3.1584 0
    endloop
  endfacet
  facet normal -0.998027 -0.0627875 0
    outer loop
      vertex 25.0013 3.1584 6.8
      vertex 25.2 0 0
      vertex 25.2 0 6.8
    endloop
  endfacet
  facet normal 0.998027 -0.0627875 0
    outer loop
      vertex -25.2 0 6.8
      vertex -25.0013 3.1584 0
      vertex -25.0013 3.1584 6.8
    endloop
  endfacet
  facet normal 0.998027 -0.0627875 0
    outer loop
      vertex -25.0013 3.1584 0
      vertex -25.2 0 6.8
      vertex -25.2 0 0
    endloop
  endfacet
  facet normal 0 -1 0
    outer loop
      vertex -1.58232 25.1503 0
      vertex 1.58232 25.1503 6.8
      vertex -1.58232 25.1503 6.8
    endloop
  endfacet
  facet normal 0 -1 -0
    outer loop
      vertex 1.58232 25.1503 6.8
      vertex -1.58232 25.1503 0
      vertex 1.58232 25.1503 0
    endloop
  endfacet
  facet normal 0 1 -0
    outer loop
      vertex 1.58232 -25.1503 0
      vertex -1.58232 -25.1503 6.8
      vertex 1.58232 -25.1503 6.8
    endloop
  endfacet
  facet normal 0 1 0
    outer loop
      vertex -1.58232 -25.1503 6.8
      vertex 1.58232 -25.1503 0
      vertex -1.58232 -25.1503 0
    endloop
  endfacet
  facet normal -0.684543 -0.728972 0
    outer loop
      vertex 16.0631 19.4169 0
      vertex 18.37 17.2506 6.8
      vertex 16.0631 19.4169 6.8
    endloop
  endfacet
  facet normal -0.684543 -0.728972 -0
    outer loop
      vertex 18.37 17.2506 6.8
      vertex 16.0631 19.4169 0
      vertex 18.37 17.2506 0
    endloop
  endfacet
  facet normal 0.684543 -0.728972 0
    outer loop
      vertex -18.37 17.2506 0
      vertex -16.0631 19.4169 6.8
      vertex -18.37 17.2506 6.8
    endloop
  endfacet
  facet normal 0.684543 -0.728972 0
    outer loop
      vertex -16.0631 19.4169 6.8
      vertex -18.37 17.2506 0
      vertex -16.0631 19.4169 0
    endloop
  endfacet
  facet normal 0.368134 -0.929773 0
    outer loop
      vertex -10.7296 22.8016 0
      vertex -7.78723 23.9666 6.8
      vertex -10.7296 22.8016 6.8
    endloop
  endfacet
  facet normal 0.368134 -0.929773 0
    outer loop
      vertex -7.78723 23.9666 6.8
      vertex -10.7296 22.8016 0
      vertex -7.78723 23.9666 0
    endloop
  endfacet
  facet normal -0.844328 0.535826 0
    outer loop
      vertex 20.3872 -14.8122 0
      vertex 22.0829 -12.1402 6.8
      vertex 22.0829 -12.1402 0
    endloop
  endfacet
  facet normal -0.844328 0.535826 0
    outer loop
      vertex 22.0829 -12.1402 6.8
      vertex 20.3872 -14.8122 0
      vertex 20.3872 -14.8122 6.8
    endloop
  endfacet
  facet normal -0.90482 -0.425794 0
    outer loop
      vertex 23.4304 9.27674 0
      vertex 22.0829 12.1402 6.8
      vertex 22.0829 12.1402 0
    endloop
  endfacet
  facet normal -0.90482 -0.425794 0
    outer loop
      vertex 22.0829 12.1402 6.8
      vertex 23.4304 9.27674 0
      vertex 23.4304 9.27674 6.8
    endloop
  endfacet
  facet normal -0.982287 -0.187383 0
    outer loop
      vertex 25.0013 3.1584 0
      vertex 24.4083 6.26698 6.8
      vertex 24.4083 6.26698 0
    endloop
  endfacet
  facet normal -0.982287 -0.187383 0
    outer loop
      vertex 24.4083 6.26698 6.8
      vertex 25.0013 3.1584 0
      vertex 25.0013 3.1584 6.8
    endloop
  endfacet
  facet normal -0.844328 -0.535826 0
    outer loop
      vertex 22.0829 12.1402 0
      vertex 20.3872 14.8122 6.8
      vertex 20.3872 14.8122 0
    endloop
  endfacet
  facet normal -0.844328 -0.535826 0
    outer loop
      vertex 20.3872 14.8122 6.8
      vertex 22.0829 12.1402 0
      vertex 22.0829 12.1402 6.8
    endloop
  endfacet
  facet normal -0.368134 -0.929773 0
    outer loop
      vertex 7.78723 23.9666 0
      vertex 10.7296 22.8016 6.8
      vertex 7.78723 23.9666 6.8
    endloop
  endfacet
  facet normal -0.368134 -0.929773 -0
    outer loop
      vertex 10.7296 22.8016 6.8
      vertex 7.78723 23.9666 0
      vertex 10.7296 22.8016 0
    endloop
  endfacet
  facet normal -0.248686 -0.968584 0
    outer loop
      vertex 4.72201 24.7536 0
      vertex 7.78723 23.9666 6.8
      vertex 4.72201 24.7536 6.8
    endloop
  endfacet
  facet normal -0.248686 -0.968584 -0
    outer loop
      vertex 7.78723 23.9666 6.8
      vertex 4.72201 24.7536 0
      vertex 7.78723 23.9666 0
    endloop
  endfacet
  facet normal -0.481734 -0.876317 0
    outer loop
      vertex 10.7296 22.8016 0
      vertex 13.5028 21.2771 6.8
      vertex 10.7296 22.8016 6.8
    endloop
  endfacet
  facet normal -0.481734 -0.876317 -0
    outer loop
      vertex 13.5028 21.2771 6.8
      vertex 10.7296 22.8016 0
      vertex 13.5028 21.2771 0
    endloop
  endfacet
  facet normal 0.90482 -0.425794 0
    outer loop
      vertex -23.4304 9.27674 6.8
      vertex -22.0829 12.1402 0
      vertex -22.0829 12.1402 6.8
    endloop
  endfacet
  facet normal 0.90482 -0.425794 0
    outer loop
      vertex -22.0829 12.1402 0
      vertex -23.4304 9.27674 6.8
      vertex -23.4304 9.27674 0
    endloop
  endfacet
  facet normal 0.770516 -0.63742 0
    outer loop
      vertex -20.3872 14.8122 6.8
      vertex -18.37 17.2506 0
      vertex -18.37 17.2506 6.8
    endloop
  endfacet
  facet normal 0.770516 -0.63742 0
    outer loop
      vertex -18.37 17.2506 0
      vertex -20.3872 14.8122 6.8
      vertex -20.3872 14.8122 0
    endloop
  endfacet
  facet normal 0.951059 -0.309008 0
    outer loop
      vertex -24.4083 6.26698 6.8
      vertex -23.4304 9.27674 0
      vertex -23.4304 9.27674 6.8
    endloop
  endfacet
  facet normal 0.951059 -0.309008 0
    outer loop
      vertex -23.4304 9.27674 0
      vertex -24.4083 6.26698 6.8
      vertex -24.4083 6.26698 0
    endloop
  endfacet
  facet normal 0.125353 -0.992112 0
    outer loop
      vertex -4.72201 24.7536 0
      vertex -1.58232 25.1503 6.8
      vertex -4.72201 24.7536 6.8
    endloop
  endfacet
  facet normal 0.125353 -0.992112 0
    outer loop
      vertex -1.58232 25.1503 6.8
      vertex -4.72201 24.7536 0
      vertex -1.58232 25.1503 0
    endloop
  endfacet
  facet normal -0.125353 0.992112 0
    outer loop
      vertex 4.72201 -24.7536 0
      vertex 1.58232 -25.1503 6.8
      vertex 4.72201 -24.7536 6.8
    endloop
  endfacet
  facet normal -0.125353 0.992112 0
    outer loop
      vertex 1.58232 -25.1503 6.8
      vertex 4.72201 -24.7536 0
      vertex 1.58232 -25.1503 0
    endloop
  endfacet
  facet normal -0.951059 -0.309008 0
    outer loop
      vertex 24.4083 6.26698 0
      vertex 23.4304 9.27674 6.8
      vertex 23.4304 9.27674 0
    endloop
  endfacet
  facet normal -0.951059 -0.309008 0
    outer loop
      vertex 23.4304 9.27674 6.8
      vertex 24.4083 6.26698 0
      vertex 24.4083 6.26698 6.8
    endloop
  endfacet
  facet normal -0.770516 -0.63742 0
    outer loop
      vertex 20.3872 14.8122 0
      vertex 18.37 17.2506 6.8
      vertex 18.37 17.2506 0
    endloop
  endfacet
  facet normal -0.770516 -0.63742 0
    outer loop
      vertex 18.37 17.2506 6.8
      vertex 20.3872 14.8122 0
      vertex 20.3872 14.8122 6.8
    endloop
  endfacet
  facet normal -0.125353 -0.992112 0
    outer loop
      vertex 1.58232 25.1503 0
      vertex 4.72201 24.7536 6.8
      vertex 1.58232 25.1503 6.8
    endloop
  endfacet
  facet normal -0.125353 -0.992112 -0
    outer loop
      vertex 4.72201 24.7536 6.8
      vertex 1.58232 25.1503 0
      vertex 4.72201 24.7536 0
    endloop
  endfacet
  facet normal -0.587792 -0.809012 0
    outer loop
      vertex 13.5028 21.2771 0
      vertex 16.0631 19.4169 6.8
      vertex 13.5028 21.2771 6.8
    endloop
  endfacet
  facet normal -0.587792 -0.809012 -0
    outer loop
      vertex 16.0631 19.4169 6.8
      vertex 13.5028 21.2771 0
      vertex 16.0631 19.4169 0
    endloop
  endfacet
  facet normal 0.844328 -0.535826 0
    outer loop
      vertex -22.0829 12.1402 6.8
      vertex -20.3872 14.8122 0
      vertex -20.3872 14.8122 6.8
    endloop
  endfacet
  facet normal 0.844328 -0.535826 0
    outer loop
      vertex -20.3872 14.8122 0
      vertex -22.0829 12.1402 6.8
      vertex -22.0829 12.1402 0
    endloop
  endfacet
  facet normal 0.982287 -0.187383 0
    outer loop
      vertex -25.0013 3.1584 6.8
      vertex -24.4083 6.26698 0
      vertex -24.4083 6.26698 6.8
    endloop
  endfacet
  facet normal 0.982287 -0.187383 0
    outer loop
      vertex -24.4083 6.26698 0
      vertex -25.0013 3.1584 6.8
      vertex -25.0013 3.1584 0
    endloop
  endfacet
  facet normal 0.481734 -0.876317 0
    outer loop
      vertex -13.5028 21.2771 0
      vertex -10.7296 22.8016 6.8
      vertex -13.5028 21.2771 6.8
    endloop
  endfacet
  facet normal 0.481734 -0.876317 0
    outer loop
      vertex -10.7296 22.8016 6.8
      vertex -13.5028 21.2771 0
      vertex -10.7296 22.8016 0
    endloop
  endfacet
  facet normal 0.587792 -0.809012 0
    outer loop
      vertex -16.0631 19.4169 0
      vertex -13.5028 21.2771 6.8
      vertex -16.0631 19.4169 6.8
    endloop
  endfacet
  facet normal 0.587792 -0.809012 0
    outer loop
      vertex -13.5028 21.2771 6.8
      vertex -16.0631 19.4169 0
      vertex -13.5028 21.2771 0
    endloop
  endfacet
  facet normal 0.248686 -0.968584 0
    outer loop
      vertex -7.78723 23.9666 0
      vertex -4.72201 24.7536 6.8
      vertex -7.78723 23.9666 6.8
    endloop
  endfacet
  facet normal 0.248686 -0.968584 0
    outer loop
      vertex -4.72201 24.7536 6.8
      vertex -7.78723 23.9666 0
      vertex -4.72201 24.7536 0
    endloop
  endfacet
  facet normal -0.770516 0.63742 0
    outer loop
      vertex 18.37 -17.2506 0
      vertex 20.3872 -14.8122 6.8
      vertex 20.3872 -14.8122 0
    endloop
  endfacet
  facet normal -0.770516 0.63742 0
    outer loop
      vertex 20.3872 -14.8122 6.8
      vertex 18.37 -17.2506 0
      vertex 18.37 -17.2506 6.8
    endloop
  endfacet
  facet normal -0.951059 0.309008 0
    outer loop
      vertex 23.4304 -9.27674 0
      vertex 24.4083 -6.26698 6.8
      vertex 24.4083 -6.26698 0
    endloop
  endfacet
  facet normal -0.951059 0.309008 0
    outer loop
      vertex 24.4083 -6.26698 6.8
      vertex 23.4304 -9.27674 0
      vertex 23.4304 -9.27674 6.8
    endloop
  endfacet
  facet normal -0.982287 0.187383 0
    outer loop
      vertex 24.4083 -6.26698 0
      vertex 25.0013 -3.1584 6.8
      vertex 25.0013 -3.1584 0
    endloop
  endfacet
  facet normal -0.982287 0.187383 0
    outer loop
      vertex 25.0013 -3.1584 6.8
      vertex 24.4083 -6.26698 0
      vertex 24.4083 -6.26698 6.8
    endloop
  endfacet
  facet normal 0.684543 0.728972 -0
    outer loop
      vertex -16.0631 -19.4169 0
      vertex -18.37 -17.2506 6.8
      vertex -16.0631 -19.4169 6.8
    endloop
  endfacet
  facet normal 0.684543 0.728972 0
    outer loop
      vertex -18.37 -17.2506 6.8
      vertex -16.0631 -19.4169 0
      vertex -18.37 -17.2506 0
    endloop
  endfacet
  facet normal 0.90482 0.425794 0
    outer loop
      vertex -22.0829 -12.1402 6.8
      vertex -23.4304 -9.27674 0
      vertex -23.4304 -9.27674 6.8
    endloop
  endfacet
  facet normal 0.90482 0.425794 0
    outer loop
      vertex -23.4304 -9.27674 0
      vertex -22.0829 -12.1402 6.8
      vertex -22.0829 -12.1402 0
    endloop
  endfacet
  facet normal 0.770516 0.63742 0
    outer loop
      vertex -18.37 -17.2506 6.8
      vertex -20.3872 -14.8122 0
      vertex -20.3872 -14.8122 6.8
    endloop
  endfacet
  facet normal 0.770516 0.63742 0
    outer loop
      vertex -20.3872 -14.8122 0
      vertex -18.37 -17.2506 6.8
      vertex -18.37 -17.2506 0
    endloop
  endfacet
  facet normal -0.684543 0.728972 0
    outer loop
      vertex 18.37 -17.2506 0
      vertex 16.0631 -19.4169 6.8
      vertex 18.37 -17.2506 6.8
    endloop
  endfacet
  facet normal -0.684543 0.728972 0
    outer loop
      vertex 16.0631 -19.4169 6.8
      vertex 18.37 -17.2506 0
      vertex 16.0631 -19.4169 0
    endloop
  endfacet
  facet normal -0.90482 0.425794 0
    outer loop
      vertex 22.0829 -12.1402 0
      vertex 23.4304 -9.27674 6.8
      vertex 23.4304 -9.27674 0
    endloop
  endfacet
  facet normal -0.90482 0.425794 0
    outer loop
      vertex 23.4304 -9.27674 6.8
      vertex 22.0829 -12.1402 0
      vertex 22.0829 -12.1402 6.8
    endloop
  endfacet
  facet normal -0.998027 0.0627875 0
    outer loop
      vertex 25.0013 -3.1584 0
      vertex 25.2 0 6.8
      vertex 25.2 0 0
    endloop
  endfacet
  facet normal -0.998027 0.0627875 0
    outer loop
      vertex 25.2 0 6.8
      vertex 25.0013 -3.1584 0
      vertex 25.0013 -3.1584 6.8
    endloop
  endfacet
  facet normal 0.368134 0.929773 -0
    outer loop
      vertex -7.78723 -23.9666 0
      vertex -10.7296 -22.8016 6.8
      vertex -7.78723 -23.9666 6.8
    endloop
  endfacet
  facet normal 0.368134 0.929773 0
    outer loop
      vertex -10.7296 -22.8016 6.8
      vertex -7.78723 -23.9666 0
      vertex -10.7296 -22.8016 0
    endloop
  endfacet
  facet normal 0.951059 0.309008 0
    outer loop
      vertex -23.4304 -9.27674 6.8
      vertex -24.4083 -6.26698 0
      vertex -24.4083 -6.26698 6.8
    endloop
  endfacet
  facet normal 0.951059 0.309008 0
    outer loop
      vertex -24.4083 -6.26698 0
      vertex -23.4304 -9.27674 6.8
      vertex -23.4304 -9.27674 0
    endloop
  endfacet
  facet normal -0.368134 0.929773 0
    outer loop
      vertex 10.7296 -22.8016 0
      vertex 7.78723 -23.9666 6.8
      vertex 10.7296 -22.8016 6.8
    endloop
  endfacet
  facet normal -0.368134 0.929773 0
    outer loop
      vertex 7.78723 -23.9666 6.8
      vertex 10.7296 -22.8016 0
      vertex 7.78723 -23.9666 0
    endloop
  endfacet
  facet normal -0.248686 0.968584 0
    outer loop
      vertex 7.78723 -23.9666 0
      vertex 4.72201 -24.7536 6.8
      vertex 7.78723 -23.9666 6.8
    endloop
  endfacet
  facet normal -0.248686 0.968584 0
    outer loop
      vertex 4.72201 -24.7536 6.8
      vertex 7.78723 -23.9666 0
      vertex 4.72201 -24.7536 0
    endloop
  endfacet
  facet normal 0.587792 0.809012 -0
    outer loop
      vertex -13.5028 -21.2771 0
      vertex -16.0631 -19.4169 6.8
      vertex -13.5028 -21.2771 6.8
    endloop
  endfacet
  facet normal 0.587792 0.809012 0
    outer loop
      vertex -16.0631 -19.4169 6.8
      vertex -13.5028 -21.2771 0
      vertex -16.0631 -19.4169 0
    endloop
  endfacet
  facet normal 0.481734 0.876317 -0
    outer loop
      vertex -10.7296 -22.8016 0
      vertex -13.5028 -21.2771 6.8
      vertex -10.7296 -22.8016 6.8
    endloop
  endfacet
  facet normal 0.481734 0.876317 0
    outer loop
      vertex -13.5028 -21.2771 6.8
      vertex -10.7296 -22.8016 0
      vertex -13.5028 -21.2771 0
    endloop
  endfacet
  facet normal 0.844328 0.535826 0
    outer loop
      vertex -20.3872 -14.8122 6.8
      vertex -22.0829 -12.1402 0
      vertex -22.0829 -12.1402 6.8
    endloop
  endfacet
  facet normal 0.844328 0.535826 0
    outer loop
      vertex -22.0829 -12.1402 0
      vertex -20.3872 -14.8122 6.8
      vertex -20.3872 -14.8122 0
    endloop
  endfacet
  facet normal 0.982287 0.187383 0
    outer loop
      vertex -24.4083 -6.26698 6.8
      vertex -25.0013 -3.1584 0
      vertex -25.0013 -3.1584 6.8
    endloop
  endfacet
  facet normal 0.982287 0.187383 0
    outer loop
      vertex -25.0013 -3.1584 0
      vertex -24.4083 -6.26698 6.8
      vertex -24.4083 -6.26698 0
    endloop
  endfacet
  facet normal 0.998027 0.0627875 0
    outer loop
      vertex -25.0013 -3.1584 6.8
      vertex -25.2 0 0
      vertex -25.2 0 6.8
    endloop
  endfacet
  facet normal 0.998027 0.0627875 0
    outer loop
      vertex -25.2 0 0
      vertex -25.0013 -3.1584 6.8
      vertex -25.0013 -3.1584 0
    endloop
  endfacet
  facet normal -0.587792 0.809012 0
    outer loop
      vertex 16.0631 -19.4169 0
      vertex 13.5028 -21.2771 6.8
      vertex 16.0631 -19.4169 6.8
    endloop
  endfacet
  facet normal -0.587792 0.809012 0
    outer loop
      vertex 13.5028 -21.2771 6.8
      vertex 16.0631 -19.4169 0
      vertex 13.5028 -21.2771 0
    endloop
  endfacet
  facet normal -0.481734 0.876317 0
    outer loop
      vertex 13.5028 -21.2771 0
      vertex 10.7296 -22.8016 6.8
      vertex 13.5028 -21.2771 6.8
    endloop
  endfacet
  facet normal -0.481734 0.876317 0
    outer loop
      vertex 10.7296 -22.8016 6.8
      vertex 13.5028 -21.2771 0
      vertex 10.7296 -22.8016 0
    endloop
  endfacet
  facet normal 0.248686 0.968584 -0
    outer loop
      vertex -4.72201 -24.7536 0
      vertex -7.78723 -23.9666 6.8
      vertex -4.72201 -24.7536 6.8
    endloop
  endfacet
  facet normal 0.248686 0.968584 0
    outer loop
      vertex -7.78723 -23.9666 6.8
      vertex -4.72201 -24.7536 0
      vertex -7.78723 -23.9666 0
    endloop
  endfacet
  facet normal 0.125353 0.992112 -0
    outer loop
      vertex -1.58232 -25.1503 0
      vertex -4.72201 -24.7536 6.8
      vertex -1.58232 -25.1503 6.8
    endloop
  endfacet
  facet normal 0.125353 0.992112 0
    outer loop
      vertex -4.72201 -24.7536 6.8
      vertex -1.58232 -25.1503 0
      vertex -4.72201 -24.7536 0
    endloop
  endfacet
endsolid OpenSCAD_Model
