solid OpenSCAD_Model
  facet normal 0.998026 0.062807 0
    outer loop
      vertex 22.2 0 5
      vertex 22.0249 2.7824 0
      vertex 22.0249 2.7824 5
    endloop
  endfacet
  facet normal 0.998026 0.062807 0
    outer loop
      vertex 22.0249 2.7824 0
      vertex 22.2 0 5
      vertex 22.2 0 0
    endloop
  endfacet
  facet normal -0.998026 0.062807 0
    outer loop
      vertex -22.2 0 0
      vertex -22.0249 2.7824 5
      vertex -22.0249 2.7824 0
    endloop
  endfacet
  facet normal -0.998026 0.062807 0
    outer loop
      vertex -22.0249 2.7824 5
      vertex -22.2 0 0
      vertex -22.2 0 5
    endloop
  endfacet
  facet normal 0 1 -0
    outer loop
      vertex 1.39395 22.1562 0
      vertex -1.39395 22.1562 5
      vertex 1.39395 22.1562 5
    endloop
  endfacet
  facet normal 0 1 0
    outer loop
      vertex -1.39395 22.1562 5
      vertex 1.39395 22.1562 0
      vertex -1.39395 22.1562 0
    endloop
  endfacet
  facet normal 0 -1 0
    outer loop
      vertex -1.39395 -22.1562 0
      vertex 1.39395 -22.1562 5
      vertex -1.39395 -22.1562 5
    endloop
  endfacet
  facet normal 0 -1 -0
    outer loop
      vertex 1.39395 -22.1562 5
      vertex -1.39395 -22.1562 0
      vertex 1.39395 -22.1562 0
    endloop
  endfacet
  facet normal 0.770507 -0.637432 0
    outer loop
      vertex 16.1831 -15.1969 5
      vertex 17.9602 -13.0488 0
      vertex 17.9602 -13.0488 5
    endloop
  endfacet
  facet normal 0.770507 -0.637432 0
    outer loop
      vertex 17.9602 -13.0488 0
      vertex 16.1831 -15.1969 5
      vertex 16.1831 -15.1969 0
    endloop
  endfacet
  facet normal 0.684555 0.728961 -0
    outer loop
      vertex 16.1831 15.1969 0
      vertex 14.1508 17.1054 5
      vertex 16.1831 15.1969 5
    endloop
  endfacet
  facet normal 0.684555 0.728961 0
    outer loop
      vertex 14.1508 17.1054 5
      vertex 16.1831 15.1969 0
      vertex 14.1508 17.1054 0
    endloop
  endfacet
  facet normal -0.684555 0.728961 0
    outer loop
      vertex -14.1508 17.1054 0
      vertex -16.1831 15.1969 5
      vertex -14.1508 17.1054 5
    endloop
  endfacet
  facet normal -0.684555 0.728961 0
    outer loop
      vertex -16.1831 15.1969 5
      vertex -14.1508 17.1054 0
      vertex -16.1831 15.1969 0
    endloop
  endfacet
  facet normal -0.368127 0.929776 0
    outer loop
      vertex -6.86018 21.1135 0
      vertex -9.4523 20.0872 5
      vertex -6.86018 21.1135 5
    endloop
  endfacet
  facet normal -0.368127 0.929776 0
    outer loop
      vertex -9.4523 20.0872 5
      vertex -6.86018 21.1135 0
      vertex -9.4523 20.0872 0
    endloop
  endfacet
  facet normal 0.904829 0.425774 0
    outer loop
      vertex 20.641 8.17236 5
      vertex 19.454 10.6949 0
      vertex 19.454 10.6949 5
    endloop
  endfacet
  facet normal 0.904829 0.425774 0
    outer loop
      vertex 19.454 10.6949 0
      vertex 20.641 8.17236 5
      vertex 20.641 8.17236 0
    endloop
  endfacet
  facet normal 0.368127 0.929776 -0
    outer loop
      vertex 9.4523 20.0872 0
      vertex 6.86018 21.1135 5
      vertex 9.4523 20.0872 5
    endloop
  endfacet
  facet normal 0.368127 0.929776 0
    outer loop
      vertex 6.86018 21.1135 5
      vertex 9.4523 20.0872 0
      vertex 6.86018 21.1135 0
    endloop
  endfacet
  facet normal 0.481752 0.876308 -0
    outer loop
      vertex 11.8954 18.7441 0
      vertex 9.4523 20.0872 5
      vertex 11.8954 18.7441 5
    endloop
  endfacet
  facet normal 0.481752 0.876308 0
    outer loop
      vertex 9.4523 20.0872 5
      vertex 11.8954 18.7441 0
      vertex 9.4523 20.0872 0
    endloop
  endfacet
  facet normal -0.904829 0.425774 0
    outer loop
      vertex -20.641 8.17236 0
      vertex -19.454 10.6949 5
      vertex -19.454 10.6949 0
    endloop
  endfacet
  facet normal -0.904829 0.425774 0
    outer loop
      vertex -19.454 10.6949 5
      vertex -20.641 8.17236 0
      vertex -20.641 8.17236 5
    endloop
  endfacet
  facet normal 0 0 1
    outer loop
      vertex 17.5 0 5
      vertex 22.2 0 5
      vertex 22.0249 2.7824 5
    endloop
  endfacet
  facet normal 0 0 1
    outer loop
      vertex 17.362 2.19333 5
      vertex 22.0249 2.7824 5
      vertex 21.5025 5.52092 5
    endloop
  endfacet
  facet normal 0 0 1
    outer loop
      vertex 22.2 0 5
      vertex 17.5 0 5
      vertex 22.0249 -2.7824 5
    endloop
  endfacet
  facet normal 0 0 1
    outer loop
      vertex 16.9502 4.35207 5
      vertex 21.5025 5.52092 5
      vertex 20.641 8.17236 5
    endloop
  endfacet
  facet normal -0 0 1
    outer loop
      vertex 17.362 -2.19333 5
      vertex 22.0249 -2.7824 5
      vertex 17.5 0 5
    endloop
  endfacet
  facet normal 0 0 1
    outer loop
      vertex 16.2711 6.44218 5
      vertex 20.641 8.17236 5
      vertex 19.454 10.6949 5
    endloop
  endfacet
  facet normal 0 0 1
    outer loop
      vertex 22.0249 -2.7824 5
      vertex 17.362 -2.19333 5
      vertex 21.5025 -5.52092 5
    endloop
  endfacet
  facet normal 0 0 1
    outer loop
      vertex 15.3354 8.43069 5
      vertex 19.454 10.6949 5
      vertex 17.9602 13.0488 5
    endloop
  endfacet
  facet normal -0 0 1
    outer loop
      vertex 16.9502 -4.35207 5
      vertex 21.5025 -5.52092 5
      vertex 17.362 -2.19333 5
    endloop
  endfacet
  facet normal 0 0 1
    outer loop
      vertex 21.5025 -5.52092 5
      vertex 16.9502 -4.35207 5
      vertex 20.641 -8.17236 5
    endloop
  endfacet
  facet normal 0 0 1
    outer loop
      vertex 22.0249 2.7824 5
      vertex 17.362 2.19333 5
      vertex 17.5 0 5
    endloop
  endfacet
  facet normal 0 0 1
    outer loop
      vertex 21.5025 5.52092 5
      vertex 16.9502 4.35207 5
      vertex 17.362 2.19333 5
    endloop
  endfacet
  facet normal 0 0 1
    outer loop
      vertex 20.641 8.17236 5
      vertex 16.2711 6.44218 5
      vertex 16.9502 4.35207 5
    endloop
  endfacet
  facet normal 0 0 1
    outer loop
      vertex 14.1578 10.2862 5
      vertex 17.9602 13.0488 5
      vertex 16.1831 15.1969 5
    endloop
  endfacet
  facet normal 0 0 1
    outer loop
      vertex 19.454 10.6949 5
      vertex 15.3354 8.43069 5
      vertex 16.2711 6.44218 5
    endloop
  endfacet
  facet normal 0 0 1
    outer loop
      vertex 17.9602 13.0488 5
      vertex 14.1578 10.2862 5
      vertex 15.3354 8.43069 5
    endloop
  endfacet
  facet normal 0 0 1
    outer loop
      vertex 12.757 11.9796 5
      vertex 16.1831 15.1969 5
      vertex 14.1508 17.1054 5
    endloop
  endfacet
  facet normal 0 0 1
    outer loop
      vertex 16.1831 15.1969 5
      vertex 12.757 11.9796 5
      vertex 14.1578 10.2862 5
    endloop
  endfacet
  facet normal 0 0 1
    outer loop
      vertex 11.1549 13.484 5
      vertex 14.1508 17.1054 5
      vertex 11.8954 18.7441 5
    endloop
  endfacet
  facet normal 0 0 1
    outer loop
      vertex 14.1508 17.1054 5
      vertex 11.1549 13.484 5
      vertex 12.757 11.9796 5
    endloop
  endfacet
  facet normal 0 0 1
    outer loop
      vertex 9.37697 14.7757 5
      vertex 11.8954 18.7441 5
      vertex 9.4523 20.0872 5
    endloop
  endfacet
  facet normal 0 0 1
    outer loop
      vertex 11.8954 18.7441 5
      vertex 9.37697 14.7757 5
      vertex 11.1549 13.484 5
    endloop
  endfacet
  facet normal 0 0 1
    outer loop
      vertex 9.4523 20.0872 5
      vertex 7.45114 15.8345 5
      vertex 9.37697 14.7757 5
    endloop
  endfacet
  facet normal 0 0 1
    outer loop
      vertex 6.86018 21.1135 5
      vertex 7.45114 15.8345 5
      vertex 9.4523 20.0872 5
    endloop
  endfacet
  facet normal 0 0 1
    outer loop
      vertex 6.86018 21.1135 5
      vertex 5.4078 16.6435 5
      vertex 7.45114 15.8345 5
    endloop
  endfacet
  facet normal 0 0 1
    outer loop
      vertex 4.15986 21.8068 5
      vertex 5.4078 16.6435 5
      vertex 6.86018 21.1135 5
    endloop
  endfacet
  facet normal 0 0 1
    outer loop
      vertex 4.15986 21.8068 5
      vertex 3.27917 17.19 5
      vertex 5.4078 16.6435 5
    endloop
  endfacet
  facet normal 0 0 1
    outer loop
      vertex 1.39395 22.1562 5
      vertex 3.27917 17.19 5
      vertex 4.15986 21.8068 5
    endloop
  endfacet
  facet normal 0 0 1
    outer loop
      vertex 1.39395 22.1562 5
      vertex 1.09883 17.4655 5
      vertex 3.27917 17.19 5
    endloop
  endfacet
  facet normal 0 0 1
    outer loop
      vertex 1.39395 22.1562 5
      vertex -1.09883 17.4655 5
      vertex 1.09883 17.4655 5
    endloop
  endfacet
  facet normal -0 0 1
    outer loop
      vertex -1.39395 22.1562 5
      vertex -1.09883 17.4655 5
      vertex 1.39395 22.1562 5
    endloop
  endfacet
  facet normal 0 0 1
    outer loop
      vertex -1.39395 22.1562 5
      vertex -3.27917 17.19 5
      vertex -1.09883 17.4655 5
    endloop
  endfacet
  facet normal -0 0 1
    outer loop
      vertex -4.15986 21.8068 5
      vertex -3.27917 17.19 5
      vertex -1.39395 22.1562 5
    endloop
  endfacet
  facet normal 0 0 1
    outer loop
      vertex -4.15986 21.8068 5
      vertex -5.4078 16.6435 5
      vertex -3.27917 17.19 5
    endloop
  endfacet
  facet normal -0 0 1
    outer loop
      vertex -6.86018 21.1135 5
      vertex -5.4078 16.6435 5
      vertex -4.15986 21.8068 5
    endloop
  endfacet
  facet normal 0 0 1
    outer loop
      vertex -6.86018 21.1135 5
      vertex -7.45114 15.8345 5
      vertex -5.4078 16.6435 5
    endloop
  endfacet
  facet normal -0 0 1
    outer loop
      vertex -9.4523 20.0872 5
      vertex -7.45114 15.8345 5
      vertex -6.86018 21.1135 5
    endloop
  endfacet
  facet normal 0 0 1
    outer loop
      vertex -7.45114 15.8345 5
      vertex -9.4523 20.0872 5
      vertex -9.37697 14.7757 5
    endloop
  endfacet
  facet normal -0 0 1
    outer loop
      vertex -11.8954 18.7441 5
      vertex -9.37697 14.7757 5
      vertex -9.4523 20.0872 5
    endloop
  endfacet
  facet normal 0 0 1
    outer loop
      vertex -9.37697 14.7757 5
      vertex -11.8954 18.7441 5
      vertex -11.1549 13.484 5
    endloop
  endfacet
  facet normal -0 0 1
    outer loop
      vertex -14.1508 17.1054 5
      vertex -11.1549 13.484 5
      vertex -11.8954 18.7441 5
    endloop
  endfacet
  facet normal 0 0 1
    outer loop
      vertex -11.1549 13.484 5
      vertex -14.1508 17.1054 5
      vertex -12.757 11.9796 5
    endloop
  endfacet
  facet normal -0 0 1
    outer loop
      vertex -16.1831 15.1969 5
      vertex -12.757 11.9796 5
      vertex -14.1508 17.1054 5
    endloop
  endfacet
  facet normal 0 0 1
    outer loop
      vertex -12.757 11.9796 5
      vertex -16.1831 15.1969 5
      vertex -14.1578 10.2862 5
    endloop
  endfacet
  facet normal -0 0 1
    outer loop
      vertex -17.9602 13.0488 5
      vertex -14.1578 10.2862 5
      vertex -16.1831 15.1969 5
    endloop
  endfacet
  facet normal 0 0 1
    outer loop
      vertex -14.1578 10.2862 5
      vertex -17.9602 13.0488 5
      vertex -15.3354 8.43069 5
    endloop
  endfacet
  facet normal -0 0 1
    outer loop
      vertex -19.454 10.6949 5
      vertex -15.3354 8.43069 5
      vertex -17.9602 13.0488 5
    endloop
  endfacet
  facet normal 0 0 1
    outer loop
      vertex -15.3354 8.43069 5
      vertex -19.454 10.6949 5
      vertex -16.2711 6.44218 5
    endloop
  endfacet
  facet normal 0 0 1
    outer loop
      vertex -16.2711 6.44218 5
      vertex -20.641 8.17236 5
      vertex -16.9502 4.35207 5
    endloop
  endfacet
  facet normal -0 0 1
    outer loop
      vertex -20.641 8.17236 5
      vertex -16.2711 6.44218 5
      vertex -19.454 10.6949 5
    endloop
  endfacet
  facet normal -0 0 1
    outer loop
      vertex 16.2711 -6.44218 5
      vertex 20.641 -8.17236 5
      vertex 16.9502 -4.35207 5
    endloop
  endfacet
  facet normal 0 0 1
    outer loop
      vertex 20.641 -8.17236 5
      vertex 16.2711 -6.44218 5
      vertex 19.454 -10.6949 5
    endloop
  endfacet
  facet normal -0 0 1
    outer loop
      vertex 15.3354 -8.43069 5
      vertex 19.454 -10.6949 5
      vertex 16.2711 -6.44218 5
    endloop
  endfacet
  facet normal 0 0 1
    outer loop
      vertex 19.454 -10.6949 5
      vertex 15.3354 -8.43069 5
      vertex 17.9602 -13.0488 5
    endloop
  endfacet
  facet normal -0 0 1
    outer loop
      vertex 14.1578 -10.2862 5
      vertex 17.9602 -13.0488 5
      vertex 15.3354 -8.43069 5
    endloop
  endfacet
  facet normal 0 0 1
    outer loop
      vertex 17.9602 -13.0488 5
      vertex 14.1578 -10.2862 5
      vertex 16.1831 -15.1969 5
    endloop
  endfacet
  facet normal -0 0 1
    outer loop
      vertex 12.757 -11.9796 5
      vertex 16.1831 -15.1969 5
      vertex 14.1578 -10.2862 5
    endloop
  endfacet
  facet normal 0 0 1
    outer loop
      vertex 16.1831 -15.1969 5
      vertex 12.757 -11.9796 5
      vertex 14.1508 -17.1054 5
    endloop
  endfacet
  facet normal -0 0 1
    outer loop
      vertex 11.1549 -13.484 5
      vertex 14.1508 -17.1054 5
      vertex 12.757 -11.9796 5
    endloop
  endfacet
  facet normal 0 0 1
    outer loop
      vertex 14.1508 -17.1054 5
      vertex 11.1549 -13.484 5
      vertex 11.8954 -18.7441 5
    endloop
  endfacet
  facet normal -0 0 1
    outer loop
      vertex 9.37697 -14.7757 5
      vertex 11.8954 -18.7441 5
      vertex 11.1549 -13.484 5
    endloop
  endfacet
  facet normal 0 0 1
    outer loop
      vertex 11.8954 -18.7441 5
      vertex 9.37697 -14.7757 5
      vertex 9.4523 -20.0872 5
    endloop
  endfacet
  facet normal -0 0 1
    outer loop
      vertex 7.45114 -15.8345 5
      vertex 9.4523 -20.0872 5
      vertex 9.37697 -14.7757 5
    endloop
  endfacet
  facet normal 0 0 1
    outer loop
      vertex 7.45114 -15.8345 5
      vertex 6.86018 -21.1135 5
      vertex 9.4523 -20.0872 5
    endloop
  endfacet
  facet normal -0 0 1
    outer loop
      vertex 5.4078 -16.6435 5
      vertex 6.86018 -21.1135 5
      vertex 7.45114 -15.8345 5
    endloop
  endfacet
  facet normal 0 0 1
    outer loop
      vertex 5.4078 -16.6435 5
      vertex 4.15986 -21.8068 5
      vertex 6.86018 -21.1135 5
    endloop
  endfacet
  facet normal -0 0 1
    outer loop
      vertex 3.27917 -17.19 5
      vertex 4.15986 -21.8068 5
      vertex 5.4078 -16.6435 5
    endloop
  endfacet
  facet normal 0 0 1
    outer loop
      vertex 3.27917 -17.19 5
      vertex 1.39395 -22.1562 5
      vertex 4.15986 -21.8068 5
    endloop
  endfacet
  facet normal -0 0 1
    outer loop
      vertex 1.09883 -17.4655 5
      vertex 1.39395 -22.1562 5
      vertex 3.27917 -17.19 5
    endloop
  endfacet
  facet normal -0 0 1
    outer loop
      vertex -1.09883 -17.4655 5
      vertex 1.39395 -22.1562 5
      vertex 1.09883 -17.4655 5
    endloop
  endfacet
  facet normal 0 0 1
    outer loop
      vertex -1.09883 -17.4655 5
      vertex -1.39395 -22.1562 5
      vertex 1.39395 -22.1562 5
    endloop
  endfacet
  facet normal 0 0 1
    outer loop
      vertex -3.27917 -17.19 5
      vertex -1.39395 -22.1562 5
      vertex -1.09883 -17.4655 5
    endloop
  endfacet
  facet normal 0 0 1
    outer loop
      vertex -3.27917 -17.19 5
      vertex -4.15986 -21.8068 5
      vertex -1.39395 -22.1562 5
    endloop
  endfacet
  facet normal 0 0 1
    outer loop
      vertex -5.4078 -16.6435 5
      vertex -4.15986 -21.8068 5
      vertex -3.27917 -17.19 5
    endloop
  endfacet
  facet normal 0 0 1
    outer loop
      vertex -5.4078 -16.6435 5
      vertex -6.86018 -21.1135 5
      vertex -4.15986 -21.8068 5
    endloop
  endfacet
  facet normal 0 0 1
    outer loop
      vertex -7.45114 -15.8345 5
      vertex -6.86018 -21.1135 5
      vertex -5.4078 -16.6435 5
    endloop
  endfacet
  facet normal 0 0 1
    outer loop
      vertex -9.4523 -20.0872 5
      vertex -7.45114 -15.8345 5
      vertex -9.37697 -14.7757 5
    endloop
  endfacet
  facet normal 0 0 1
    outer loop
      vertex -7.45114 -15.8345 5
      vertex -9.4523 -20.0872 5
      vertex -6.86018 -21.1135 5
    endloop
  endfacet
  facet normal 0 0 1
    outer loop
      vertex -11.8954 -18.7441 5
      vertex -9.37697 -14.7757 5
      vertex -11.1549 -13.484 5
    endloop
  endfacet
  facet normal 0 0 1
    outer loop
      vertex -9.37697 -14.7757 5
      vertex -11.8954 -18.7441 5
      vertex -9.4523 -20.0872 5
    endloop
  endfacet
  facet normal 0 0 1
    outer loop
      vertex -14.1508 -17.1054 5
      vertex -11.1549 -13.484 5
      vertex -12.757 -11.9796 5
    endloop
  endfacet
  facet normal 0 0 1
    outer loop
      vertex -11.1549 -13.484 5
      vertex -14.1508 -17.1054 5
      vertex -11.8954 -18.7441 5
    endloop
  endfacet
  facet normal 0 0 1
    outer loop
      vertex -16.1831 -15.1969 5
      vertex -12.757 -11.9796 5
      vertex -14.1578 -10.2862 5
    endloop
  endfacet
  facet normal 0 0 1
    outer loop
      vertex -17.9602 -13.0488 5
      vertex -14.1578 -10.2862 5
      vertex -15.3354 -8.43069 5
    endloop
  endfacet
  facet normal 0 0 1
    outer loop
      vertex -12.757 -11.9796 5
      vertex -16.1831 -15.1969 5
      vertex -14.1508 -17.1054 5
    endloop
  endfacet
  facet normal 0 0 1
    outer loop
      vertex -19.454 -10.6949 5
      vertex -15.3354 -8.43069 5
      vertex -16.2711 -6.44218 5
    endloop
  endfacet
  facet normal 0 0 1
    outer loop
      vertex -20.641 -8.17236 5
      vertex -16.2711 -6.44218 5
      vertex -16.9502 -4.35207 5
    endloop
  endfacet
  facet normal 0 0 1
    outer loop
      vertex -21.5025 -5.52092 5
      vertex -16.9502 -4.35207 5
      vertex -17.362 -2.19333 5
    endloop
  endfacet
  facet normal 0 0 1
    outer loop
      vertex -14.1578 -10.2862 5
      vertex -17.9602 -13.0488 5
      vertex -16.1831 -15.1969 5
    endloop
  endfacet
  facet normal 0 0 1
    outer loop
      vertex -22.0249 -2.7824 5
      vertex -17.362 -2.19333 5
      vertex -17.5 0 5
    endloop
  endfacet
  facet normal -0 0 1
    outer loop
      vertex -21.5025 5.52092 5
      vertex -16.9502 4.35207 5
      vertex -20.641 8.17236 5
    endloop
  endfacet
  facet normal 0 0 1
    outer loop
      vertex -16.9502 4.35207 5
      vertex -21.5025 5.52092 5
      vertex -17.362 2.19333 5
    endloop
  endfacet
  facet normal 0 0 1
    outer loop
      vertex -15.3354 -8.43069 5
      vertex -19.454 -10.6949 5
      vertex -17.9602 -13.0488 5
    endloop
  endfacet
  facet normal -0 0 1
    outer loop
      vertex -22.0249 2.7824 5
      vertex -17.362 2.19333 5
      vertex -21.5025 5.52092 5
    endloop
  endfacet
  facet normal 0 0 1
    outer loop
      vertex -16.2711 -6.44218 5
      vertex -20.641 -8.17236 5
      vertex -19.454 -10.6949 5
    endloop
  endfacet
  facet normal 0 0 1
    outer loop
      vertex -17.362 2.19333 5
      vertex -22.0249 2.7824 5
      vertex -17.5 0 5
    endloop
  endfacet
  facet normal 0 0 1
    outer loop
      vertex -16.9502 -4.35207 5
      vertex -21.5025 -5.52092 5
      vertex -20.641 -8.17236 5
    endloop
  endfacet
  facet normal 0 0 1
    outer loop
      vertex -22.2 0 5
      vertex -17.5 0 5
      vertex -22.0249 2.7824 5
    endloop
  endfacet
  facet normal 0 0 1
    outer loop
      vertex -17.362 -2.19333 5
      vertex -22.0249 -2.7824 5
      vertex -21.5025 -5.52092 5
    endloop
  endfacet
  facet normal 0 0 1
    outer loop
      vertex -17.5 0 5
      vertex -22.2 0 5
      vertex -22.0249 -2.7824 5
    endloop
  endfacet
  facet normal -0.248682 0.968585 0
    outer loop
      vertex -4.15986 21.8068 0
      vertex -6.86018 21.1135 5
      vertex -4.15986 21.8068 5
    endloop
  endfacet
  facet normal -0.248682 0.968585 0
    outer loop
      vertex -6.86018 21.1135 5
      vertex -4.15986 21.8068 0
      vertex -6.86018 21.1135 0
    endloop
  endfacet
  facet normal -0.951057 -0.309015 0
    outer loop
      vertex -20.641 -8.17236 0
      vertex -21.5025 -5.52092 5
      vertex -21.5025 -5.52092 0
    endloop
  endfacet
  facet normal -0.951057 -0.309015 0
    outer loop
      vertex -21.5025 -5.52092 5
      vertex -20.641 -8.17236 0
      vertex -20.641 -8.17236 5
    endloop
  endfacet
  facet normal 0.125328 -0.992115 0
    outer loop
      vertex 1.39395 -22.1562 0
      vertex 4.15986 -21.8068 5
      vertex 1.39395 -22.1562 5
    endloop
  endfacet
  facet normal 0.125328 -0.992115 0
    outer loop
      vertex 4.15986 -21.8068 5
      vertex 1.39395 -22.1562 0
      vertex 4.15986 -21.8068 0
    endloop
  endfacet
  facet normal 0.951057 0.309015 0
    outer loop
      vertex 21.5025 5.52092 5
      vertex 20.641 8.17236 0
      vertex 20.641 8.17236 5
    endloop
  endfacet
  facet normal 0.951057 0.309015 0
    outer loop
      vertex 20.641 8.17236 0
      vertex 21.5025 5.52092 5
      vertex 21.5025 5.52092 0
    endloop
  endfacet
  facet normal 0.982287 0.187381 0
    outer loop
      vertex 22.0249 2.7824 5
      vertex 21.5025 5.52092 0
      vertex 21.5025 5.52092 5
    endloop
  endfacet
  facet normal 0.982287 0.187381 0
    outer loop
      vertex 21.5025 5.52092 0
      vertex 22.0249 2.7824 5
      vertex 22.0249 2.7824 0
    endloop
  endfacet
  facet normal 0.770507 0.637432 0
    outer loop
      vertex 17.9602 13.0488 5
      vertex 16.1831 15.1969 0
      vertex 16.1831 15.1969 5
    endloop
  endfacet
  facet normal 0.770507 0.637432 0
    outer loop
      vertex 16.1831 15.1969 0
      vertex 17.9602 13.0488 5
      vertex 17.9602 13.0488 0
    endloop
  endfacet
  facet normal 0.844333 0.535819 0
    outer loop
      vertex 19.454 10.6949 5
      vertex 17.9602 13.0488 0
      vertex 17.9602 13.0488 5
    endloop
  endfacet
  facet normal 0.844333 0.535819 0
    outer loop
      vertex 17.9602 13.0488 0
      vertex 19.454 10.6949 5
      vertex 19.454 10.6949 0
    endloop
  endfacet
  facet normal 0.248682 0.968585 -0
    outer loop
      vertex 6.86018 21.1135 0
      vertex 4.15986 21.8068 5
      vertex 6.86018 21.1135 5
    endloop
  endfacet
  facet normal 0.248682 0.968585 0
    outer loop
      vertex 4.15986 21.8068 5
      vertex 6.86018 21.1135 0
      vertex 4.15986 21.8068 0
    endloop
  endfacet
  facet normal 0.125328 0.992115 -0
    outer loop
      vertex 4.15986 21.8068 0
      vertex 1.39395 22.1562 5
      vertex 4.15986 21.8068 5
    endloop
  endfacet
  facet normal 0.125328 0.992115 0
    outer loop
      vertex 1.39395 22.1562 5
      vertex 4.15986 21.8068 0
      vertex 1.39395 22.1562 0
    endloop
  endfacet
  facet normal 0.587798 0.809007 -0
    outer loop
      vertex 14.1508 17.1054 0
      vertex 11.8954 18.7441 5
      vertex 14.1508 17.1054 5
    endloop
  endfacet
  facet normal 0.587798 0.809007 0
    outer loop
      vertex 11.8954 18.7441 5
      vertex 14.1508 17.1054 0
      vertex 11.8954 18.7441 0
    endloop
  endfacet
  facet normal -0.844333 0.535819 0
    outer loop
      vertex -19.454 10.6949 0
      vertex -17.9602 13.0488 5
      vertex -17.9602 13.0488 0
    endloop
  endfacet
  facet normal -0.844333 0.535819 0
    outer loop
      vertex -17.9602 13.0488 5
      vertex -19.454 10.6949 0
      vertex -19.454 10.6949 5
    endloop
  endfacet
  facet normal -0.770507 0.637432 0
    outer loop
      vertex -17.9602 13.0488 0
      vertex -16.1831 15.1969 5
      vertex -16.1831 15.1969 0
    endloop
  endfacet
  facet normal -0.770507 0.637432 0
    outer loop
      vertex -16.1831 15.1969 5
      vertex -17.9602 13.0488 0
      vertex -17.9602 13.0488 5
    endloop
  endfacet
  facet normal -0.951057 0.309015 0
    outer loop
      vertex -21.5025 5.52092 0
      vertex -20.641 8.17236 5
      vertex -20.641 8.17236 0
    endloop
  endfacet
  facet normal -0.951057 0.309015 0
    outer loop
      vertex -20.641 8.17236 5
      vertex -21.5025 5.52092 0
      vertex -21.5025 5.52092 5
    endloop
  endfacet
  facet normal -0.982287 0.187381 0
    outer loop
      vertex -22.0249 2.7824 0
      vertex -21.5025 5.52092 5
      vertex -21.5025 5.52092 0
    endloop
  endfacet
  facet normal -0.982287 0.187381 0
    outer loop
      vertex -21.5025 5.52092 5
      vertex -22.0249 2.7824 0
      vertex -22.0249 2.7824 5
    endloop
  endfacet
  facet normal -0.481752 0.876308 0
    outer loop
      vertex -9.4523 20.0872 0
      vertex -11.8954 18.7441 5
      vertex -9.4523 20.0872 5
    endloop
  endfacet
  facet normal -0.481752 0.876308 0
    outer loop
      vertex -11.8954 18.7441 5
      vertex -9.4523 20.0872 0
      vertex -11.8954 18.7441 0
    endloop
  endfacet
  facet normal -0.587798 0.809007 0
    outer loop
      vertex -11.8954 18.7441 0
      vertex -14.1508 17.1054 5
      vertex -11.8954 18.7441 5
    endloop
  endfacet
  facet normal -0.587798 0.809007 0
    outer loop
      vertex -14.1508 17.1054 5
      vertex -11.8954 18.7441 0
      vertex -14.1508 17.1054 0
    endloop
  endfacet
  facet normal -0.125328 0.992115 0
    outer loop
      vertex -1.39395 22.1562 0
      vertex -4.15986 21.8068 5
      vertex -1.39395 22.1562 5
    endloop
  endfacet
  facet normal -0.125328 0.992115 0
    outer loop
      vertex -4.15986 21.8068 5
      vertex -1.39395 22.1562 0
      vertex -4.15986 21.8068 0
    endloop
  endfacet
  facet normal 0.998026 -0.062807 0
    outer loop
      vertex 22.0249 -2.7824 5
      vertex 22.2 0 0
      vertex 22.2 0 5
    endloop
  endfacet
  facet normal 0.998026 -0.062807 0
    outer loop
      vertex 22.2 0 0
      vertex 22.0249 -2.7824 5
      vertex 22.0249 -2.7824 0
    endloop
  endfacet
  facet normal 0.481752 -0.876308 0
    outer loop
      vertex 9.4523 -20.0872 0
      vertex 11.8954 -18.7441 5
      vertex 9.4523 -20.0872 5
    endloop
  endfacet
  facet normal 0.481752 -0.876308 0
    outer loop
      vertex 11.8954 -18.7441 5
      vertex 9.4523 -20.0872 0
      vertex 11.8954 -18.7441 0
    endloop
  endfacet
  facet normal 0.904829 -0.425774 0
    outer loop
      vertex 19.454 -10.6949 5
      vertex 20.641 -8.17236 0
      vertex 20.641 -8.17236 5
    endloop
  endfacet
  facet normal 0.904829 -0.425774 0
    outer loop
      vertex 20.641 -8.17236 0
      vertex 19.454 -10.6949 5
      vertex 19.454 -10.6949 0
    endloop
  endfacet
  facet normal 0.951057 -0.309015 0
    outer loop
      vertex 20.641 -8.17236 5
      vertex 21.5025 -5.52092 0
      vertex 21.5025 -5.52092 5
    endloop
  endfacet
  facet normal 0.951057 -0.309015 0
    outer loop
      vertex 21.5025 -5.52092 0
      vertex 20.641 -8.17236 5
      vertex 20.641 -8.17236 0
    endloop
  endfacet
  facet normal -0.684555 -0.728961 0
    outer loop
      vertex -16.1831 -15.1969 0
      vertex -14.1508 -17.1054 5
      vertex -16.1831 -15.1969 5
    endloop
  endfacet
  facet normal -0.684555 -0.728961 -0
    outer loop
      vertex -14.1508 -17.1054 5
      vertex -16.1831 -15.1969 0
      vertex -14.1508 -17.1054 0
    endloop
  endfacet
  facet normal -0.844333 -0.535819 0
    outer loop
      vertex -17.9602 -13.0488 0
      vertex -19.454 -10.6949 5
      vertex -19.454 -10.6949 0
    endloop
  endfacet
  facet normal -0.844333 -0.535819 0
    outer loop
      vertex -19.454 -10.6949 5
      vertex -17.9602 -13.0488 0
      vertex -17.9602 -13.0488 5
    endloop
  endfacet
  facet normal 0 0 -1
    outer loop
      vertex 17.5 0 0
      vertex 22.2 0 0
      vertex 22.0249 -2.7824 0
    endloop
  endfacet
  facet normal 0 0 -1
    outer loop
      vertex 17.362 -2.19333 0
      vertex 22.0249 -2.7824 0
      vertex 21.5025 -5.52092 0
    endloop
  endfacet
  facet normal 0 0 -1
    outer loop
      vertex 22.2 0 0
      vertex 17.5 0 0
      vertex 22.0249 2.7824 0
    endloop
  endfacet
  facet normal 0 0 -1
    outer loop
      vertex 16.9502 -4.35207 0
      vertex 21.5025 -5.52092 0
      vertex 20.641 -8.17236 0
    endloop
  endfacet
  facet normal 0 0 -1
    outer loop
      vertex 17.362 2.19333 0
      vertex 22.0249 2.7824 0
      vertex 17.5 0 0
    endloop
  endfacet
  facet normal 0 0 -1
    outer loop
      vertex 16.2711 -6.44218 0
      vertex 20.641 -8.17236 0
      vertex 19.454 -10.6949 0
    endloop
  endfacet
  facet normal -0 0 -1
    outer loop
      vertex 22.0249 2.7824 0
      vertex 17.362 2.19333 0
      vertex 21.5025 5.52092 0
    endloop
  endfacet
  facet normal 0 0 -1
    outer loop
      vertex 15.3354 -8.43069 0
      vertex 19.454 -10.6949 0
      vertex 17.9602 -13.0488 0
    endloop
  endfacet
  facet normal 0 0 -1
    outer loop
      vertex 16.9502 4.35207 0
      vertex 21.5025 5.52092 0
      vertex 17.362 2.19333 0
    endloop
  endfacet
  facet normal -0 0 -1
    outer loop
      vertex 21.5025 5.52092 0
      vertex 16.9502 4.35207 0
      vertex 20.641 8.17236 0
    endloop
  endfacet
  facet normal 0 0 -1
    outer loop
      vertex 22.0249 -2.7824 0
      vertex 17.362 -2.19333 0
      vertex 17.5 0 0
    endloop
  endfacet
  facet normal 0 0 -1
    outer loop
      vertex 21.5025 -5.52092 0
      vertex 16.9502 -4.35207 0
      vertex 17.362 -2.19333 0
    endloop
  endfacet
  facet normal 0 0 -1
    outer loop
      vertex 20.641 -8.17236 0
      vertex 16.2711 -6.44218 0
      vertex 16.9502 -4.35207 0
    endloop
  endfacet
  facet normal 0 0 -1
    outer loop
      vertex 14.1578 -10.2862 0
      vertex 17.9602 -13.0488 0
      vertex 16.1831 -15.1969 0
    endloop
  endfacet
  facet normal 0 0 -1
    outer loop
      vertex 19.454 -10.6949 0
      vertex 15.3354 -8.43069 0
      vertex 16.2711 -6.44218 0
    endloop
  endfacet
  facet normal 0 0 -1
    outer loop
      vertex 17.9602 -13.0488 0
      vertex 14.1578 -10.2862 0
      vertex 15.3354 -8.43069 0
    endloop
  endfacet
  facet normal 0 0 -1
    outer loop
      vertex 12.757 -11.9796 0
      vertex 16.1831 -15.1969 0
      vertex 14.1508 -17.1054 0
    endloop
  endfacet
  facet normal 0 0 -1
    outer loop
      vertex 16.1831 -15.1969 0
      vertex 12.757 -11.9796 0
      vertex 14.1578 -10.2862 0
    endloop
  endfacet
  facet normal 0 0 -1
    outer loop
      vertex 11.1549 -13.484 0
      vertex 14.1508 -17.1054 0
      vertex 11.8954 -18.7441 0
    endloop
  endfacet
  facet normal 0 0 -1
    outer loop
      vertex 14.1508 -17.1054 0
      vertex 11.1549 -13.484 0
      vertex 12.757 -11.9796 0
    endloop
  endfacet
  facet normal 0 0 -1
    outer loop
      vertex 9.37697 -14.7757 0
      vertex 11.8954 -18.7441 0
      vertex 9.4523 -20.0872 0
    endloop
  endfacet
  facet normal 0 0 -1
    outer loop
      vertex 11.8954 -18.7441 0
      vertex 9.37697 -14.7757 0
      vertex 11.1549 -13.484 0
    endloop
  endfacet
  facet normal 0 0 -1
    outer loop
      vertex 9.4523 -20.0872 0
      vertex 7.45114 -15.8345 0
      vertex 9.37697 -14.7757 0
    endloop
  endfacet
  facet normal 0 0 -1
    outer loop
      vertex 6.86018 -21.1135 0
      vertex 7.45114 -15.8345 0
      vertex 9.4523 -20.0872 0
    endloop
  endfacet
  facet normal 0 0 -1
    outer loop
      vertex 6.86018 -21.1135 0
      vertex 5.4078 -16.6435 0
      vertex 7.45114 -15.8345 0
    endloop
  endfacet
  facet normal 0 0 -1
    outer loop
      vertex 4.15986 -21.8068 0
      vertex 5.4078 -16.6435 0
      vertex 6.86018 -21.1135 0
    endloop
  endfacet
  facet normal 0 0 -1
    outer loop
      vertex 4.15986 -21.8068 0
      vertex 3.27917 -17.19 0
      vertex 5.4078 -16.6435 0
    endloop
  endfacet
  facet normal 0 0 -1
    outer loop
      vertex 1.39395 -22.1562 0
      vertex 3.27917 -17.19 0
      vertex 4.15986 -21.8068 0
    endloop
  endfacet
  facet normal 0 0 -1
    outer loop
      vertex 1.39395 -22.1562 0
      vertex 1.09883 -17.4655 0
      vertex 3.27917 -17.19 0
    endloop
  endfacet
  facet normal 0 0 -1
    outer loop
      vertex 1.39395 -22.1562 0
      vertex -1.09883 -17.4655 0
      vertex 1.09883 -17.4655 0
    endloop
  endfacet
  facet normal 0 0 -1
    outer loop
      vertex -1.39395 -22.1562 0
      vertex -1.09883 -17.4655 0
      vertex 1.39395 -22.1562 0
    endloop
  endfacet
  facet normal 0 0 -1
    outer loop
      vertex -1.39395 -22.1562 0
      vertex -3.27917 -17.19 0
      vertex -1.09883 -17.4655 0
    endloop
  endfacet
  facet normal 0 0 -1
    outer loop
      vertex -4.15986 -21.8068 0
      vertex -3.27917 -17.19 0
      vertex -1.39395 -22.1562 0
    endloop
  endfacet
  facet normal 0 0 -1
    outer loop
      vertex -4.15986 -21.8068 0
      vertex -5.4078 -16.6435 0
      vertex -3.27917 -17.19 0
    endloop
  endfacet
  facet normal 0 0 -1
    outer loop
      vertex -6.86018 -21.1135 0
      vertex -5.4078 -16.6435 0
      vertex -4.15986 -21.8068 0
    endloop
  endfacet
  facet normal 0 0 -1
    outer loop
      vertex -6.86018 -21.1135 0
      vertex -7.45114 -15.8345 0
      vertex -5.4078 -16.6435 0
    endloop
  endfacet
  facet normal 0 0 -1
    outer loop
      vertex -9.4523 -20.0872 0
      vertex -7.45114 -15.8345 0
      vertex -6.86018 -21.1135 0
    endloop
  endfacet
  facet normal -0 0 -1
    outer loop
      vertex -7.45114 -15.8345 0
      vertex -9.4523 -20.0872 0
      vertex -9.37697 -14.7757 0
    endloop
  endfacet
  facet normal 0 0 -1
    outer loop
      vertex -11.8954 -18.7441 0
      vertex -9.37697 -14.7757 0
      vertex -9.4523 -20.0872 0
    endloop
  endfacet
  facet normal -0 0 -1
    outer loop
      vertex -9.37697 -14.7757 0
      vertex -11.8954 -18.7441 0
      vertex -11.1549 -13.484 0
    endloop
  endfacet
  facet normal 0 0 -1
    outer loop
      vertex -14.1508 -17.1054 0
      vertex -11.1549 -13.484 0
      vertex -11.8954 -18.7441 0
    endloop
  endfacet
  facet normal -0 0 -1
    outer loop
      vertex -11.1549 -13.484 0
      vertex -14.1508 -17.1054 0
      vertex -12.757 -11.9796 0
    endloop
  endfacet
  facet normal 0 0 -1
    outer loop
      vertex -16.1831 -15.1969 0
      vertex -12.757 -11.9796 0
      vertex -14.1508 -17.1054 0
    endloop
  endfacet
  facet normal -0 0 -1
    outer loop
      vertex -12.757 -11.9796 0
      vertex -16.1831 -15.1969 0
      vertex -14.1578 -10.2862 0
    endloop
  endfacet
  facet normal 0 0 -1
    outer loop
      vertex -17.9602 -13.0488 0
      vertex -14.1578 -10.2862 0
      vertex -16.1831 -15.1969 0
    endloop
  endfacet
  facet normal -0 0 -1
    outer loop
      vertex -14.1578 -10.2862 0
      vertex -17.9602 -13.0488 0
      vertex -15.3354 -8.43069 0
    endloop
  endfacet
  facet normal 0 0 -1
    outer loop
      vertex -19.454 -10.6949 0
      vertex -15.3354 -8.43069 0
      vertex -17.9602 -13.0488 0
    endloop
  endfacet
  facet normal -0 0 -1
    outer loop
      vertex -15.3354 -8.43069 0
      vertex -19.454 -10.6949 0
      vertex -16.2711 -6.44218 0
    endloop
  endfacet
  facet normal -0 0 -1
    outer loop
      vertex -16.2711 -6.44218 0
      vertex -20.641 -8.17236 0
      vertex -16.9502 -4.35207 0
    endloop
  endfacet
  facet normal 0 0 -1
    outer loop
      vertex -20.641 -8.17236 0
      vertex -16.2711 -6.44218 0
      vertex -19.454 -10.6949 0
    endloop
  endfacet
  facet normal 0 0 -1
    outer loop
      vertex 16.2711 6.44218 0
      vertex 20.641 8.17236 0
      vertex 16.9502 4.35207 0
    endloop
  endfacet
  facet normal -0 0 -1
    outer loop
      vertex 20.641 8.17236 0
      vertex 16.2711 6.44218 0
      vertex 19.454 10.6949 0
    endloop
  endfacet
  facet normal 0 0 -1
    outer loop
      vertex 15.3354 8.43069 0
      vertex 19.454 10.6949 0
      vertex 16.2711 6.44218 0
    endloop
  endfacet
  facet normal -0 0 -1
    outer loop
      vertex 19.454 10.6949 0
      vertex 15.3354 8.43069 0
      vertex 17.9602 13.0488 0
    endloop
  endfacet
  facet normal 0 0 -1
    outer loop
      vertex 14.1578 10.2862 0
      vertex 17.9602 13.0488 0
      vertex 15.3354 8.43069 0
    endloop
  endfacet
  facet normal -0 0 -1
    outer loop
      vertex 17.9602 13.0488 0
      vertex 14.1578 10.2862 0
      vertex 16.1831 15.1969 0
    endloop
  endfacet
  facet normal 0 0 -1
    outer loop
      vertex 12.757 11.9796 0
      vertex 16.1831 15.1969 0
      vertex 14.1578 10.2862 0
    endloop
  endfacet
  facet normal -0 0 -1
    outer loop
      vertex 16.1831 15.1969 0
      vertex 12.757 11.9796 0
      vertex 14.1508 17.1054 0
    endloop
  endfacet
  facet normal 0 0 -1
    outer loop
      vertex 11.1549 13.484 0
      vertex 14.1508 17.1054 0
      vertex 12.757 11.9796 0
    endloop
  endfacet
  facet normal -0 0 -1
    outer loop
      vertex 14.1508 17.1054 0
      vertex 11.1549 13.484 0
      vertex 11.8954 18.7441 0
    endloop
  endfacet
  facet normal 0 0 -1
    outer loop
      vertex 9.37697 14.7757 0
      vertex 11.8954 18.7441 0
      vertex 11.1549 13.484 0
    endloop
  endfacet
  facet normal -0 0 -1
    outer loop
      vertex 11.8954 18.7441 0
      vertex 9.37697 14.7757 0
      vertex 9.4523 20.0872 0
    endloop
  endfacet
  facet normal 0 0 -1
    outer loop
      vertex 7.45114 15.8345 0
      vertex 9.4523 20.0872 0
      vertex 9.37697 14.7757 0
    endloop
  endfacet
  facet normal 0 0 -1
    outer loop
      vertex 7.45114 15.8345 0
      vertex 6.86018 21.1135 0
      vertex 9.4523 20.0872 0
    endloop
  endfacet
  facet normal 0 0 -1
    outer loop
      vertex 5.4078 16.6435 0
      vertex 6.86018 21.1135 0
      vertex 7.45114 15.8345 0
    endloop
  endfacet
  facet normal 0 0 -1
    outer loop
      vertex 5.4078 16.6435 0
      vertex 4.15986 21.8068 0
      vertex 6.86018 21.1135 0
    endloop
  endfacet
  facet normal 0 0 -1
    outer loop
      vertex 3.27917 17.19 0
      vertex 4.15986 21.8068 0
      vertex 5.4078 16.6435 0
    endloop
  endfacet
  facet normal 0 0 -1
    outer loop
      vertex 3.27917 17.19 0
      vertex 1.39395 22.1562 0
      vertex 4.15986 21.8068 0
    endloop
  endfacet
  facet normal 0 0 -1
    outer loop
      vertex 1.09883 17.4655 0
      vertex 1.39395 22.1562 0
      vertex 3.27917 17.19 0
    endloop
  endfacet
  facet normal 0 0 -1
    outer loop
      vertex -1.09883 17.4655 0
      vertex 1.39395 22.1562 0
      vertex 1.09883 17.4655 0
    endloop
  endfacet
  facet normal 0 0 -1
    outer loop
      vertex -1.09883 17.4655 0
      vertex -1.39395 22.1562 0
      vertex 1.39395 22.1562 0
    endloop
  endfacet
  facet normal 0 0 -1
    outer loop
      vertex -3.27917 17.19 0
      vertex -1.39395 22.1562 0
      vertex -1.09883 17.4655 0
    endloop
  endfacet
  facet normal 0 0 -1
    outer loop
      vertex -3.27917 17.19 0
      vertex -4.15986 21.8068 0
      vertex -1.39395 22.1562 0
    endloop
  endfacet
  facet normal 0 0 -1
    outer loop
      vertex -5.4078 16.6435 0
      vertex -4.15986 21.8068 0
      vertex -3.27917 17.19 0
    endloop
  endfacet
  facet normal 0 0 -1
    outer loop
      vertex -5.4078 16.6435 0
      vertex -6.86018 21.1135 0
      vertex -4.15986 21.8068 0
    endloop
  endfacet
  facet normal 0 0 -1
    outer loop
      vertex -7.45114 15.8345 0
      vertex -6.86018 21.1135 0
      vertex -5.4078 16.6435 0
    endloop
  endfacet
  facet normal 0 0 -1
    outer loop
      vertex -9.4523 20.0872 0
      vertex -7.45114 15.8345 0
      vertex -9.37697 14.7757 0
    endloop
  endfacet
  facet normal 0 0 -1
    outer loop
      vertex -7.45114 15.8345 0
      vertex -9.4523 20.0872 0
      vertex -6.86018 21.1135 0
    endloop
  endfacet
  facet normal 0 0 -1
    outer loop
      vertex -11.8954 18.7441 0
      vertex -9.37697 14.7757 0
      vertex -11.1549 13.484 0
    endloop
  endfacet
  facet normal 0 0 -1
    outer loop
      vertex -9.37697 14.7757 0
      vertex -11.8954 18.7441 0
      vertex -9.4523 20.0872 0
    endloop
  endfacet
  facet normal 0 0 -1
    outer loop
      vertex -14.1508 17.1054 0
      vertex -11.1549 13.484 0
      vertex -12.757 11.9796 0
    endloop
  endfacet
  facet normal 0 0 -1
    outer loop
      vertex -11.1549 13.484 0
      vertex -14.1508 17.1054 0
      vertex -11.8954 18.7441 0
    endloop
  endfacet
  facet normal 0 0 -1
    outer loop
      vertex -16.1831 15.1969 0
      vertex -12.757 11.9796 0
      vertex -14.1578 10.2862 0
    endloop
  endfacet
  facet normal 0 0 -1
    outer loop
      vertex -17.9602 13.0488 0
      vertex -14.1578 10.2862 0
      vertex -15.3354 8.43069 0
    endloop
  endfacet
  facet normal 0 0 -1
    outer loop
      vertex -12.757 11.9796 0
      vertex -16.1831 15.1969 0
      vertex -14.1508 17.1054 0
    endloop
  endfacet
  facet normal 0 0 -1
    outer loop
      vertex -19.454 10.6949 0
      vertex -15.3354 8.43069 0
      vertex -16.2711 6.44218 0
    endloop
  endfacet
  facet normal 0 0 -1
    outer loop
      vertex -20.641 8.17236 0
      vertex -16.2711 6.44218 0
      vertex -16.9502 4.35207 0
    endloop
  endfacet
  facet normal 0 0 -1
    outer loop
      vertex -21.5025 5.52092 0
      vertex -16.9502 4.35207 0
      vertex -17.362 2.19333 0
    endloop
  endfacet
  facet normal 0 0 -1
    outer loop
      vertex -14.1578 10.2862 0
      vertex -17.9602 13.0488 0
      vertex -16.1831 15.1969 0
    endloop
  endfacet
  facet normal 0 0 -1
    outer loop
      vertex -22.0249 2.7824 0
      vertex -17.362 2.19333 0
      vertex -17.5 0 0
    endloop
  endfacet
  facet normal 0 0 -1
    outer loop
      vertex -21.5025 -5.52092 0
      vertex -16.9502 -4.35207 0
      vertex -20.641 -8.17236 0
    endloop
  endfacet
  facet normal -0 0 -1
    outer loop
      vertex -16.9502 -4.35207 0
      vertex -21.5025 -5.52092 0
      vertex -17.362 -2.19333 0
    endloop
  endfacet
  facet normal 0 0 -1
    outer loop
      vertex -15.3354 8.43069 0
      vertex -19.454 10.6949 0
      vertex -17.9602 13.0488 0
    endloop
  endfacet
  facet normal 0 0 -1
    outer loop
      vertex -22.0249 -2.7824 0
      vertex -17.362 -2.19333 0
      vertex -21.5025 -5.52092 0
    endloop
  endfacet
  facet normal 0 0 -1
    outer loop
      vertex -16.2711 6.44218 0
      vertex -20.641 8.17236 0
      vertex -19.454 10.6949 0
    endloop
  endfacet
  facet normal -0 0 -1
    outer loop
      vertex -17.362 -2.19333 0
      vertex -22.0249 -2.7824 0
      vertex -17.5 0 0
    endloop
  endfacet
  facet normal 0 0 -1
    outer loop
      vertex -16.9502 4.35207 0
      vertex -21.5025 5.52092 0
      vertex -20.641 8.17236 0
    endloop
  endfacet
  facet normal 0 0 -1
    outer loop
      vertex -22.2 0 0
      vertex -17.5 0 0
      vertex -22.0249 -2.7824 0
    endloop
  endfacet
  facet normal 0 0 -1
    outer loop
      vertex -17.362 2.19333 0
      vertex -22.0249 2.7824 0
      vertex -21.5025 5.52092 0
    endloop
  endfacet
  facet normal 0 0 -1
    outer loop
      vertex -17.5 0 0
      vertex -22.2 0 0
      vertex -22.0249 2.7824 0
    endloop
  endfacet
  facet normal 0.684555 -0.728961 0
    outer loop
      vertex 14.1508 -17.1054 0
      vertex 16.1831 -15.1969 5
      vertex 14.1508 -17.1054 5
    endloop
  endfacet
  facet normal 0.684555 -0.728961 0
    outer loop
      vertex 16.1831 -15.1969 5
      vertex 14.1508 -17.1054 0
      vertex 16.1831 -15.1969 0
    endloop
  endfacet
  facet normal 0.368127 -0.929776 0
    outer loop
      vertex 6.86018 -21.1135 0
      vertex 9.4523 -20.0872 5
      vertex 6.86018 -21.1135 5
    endloop
  endfacet
  facet normal 0.368127 -0.929776 0
    outer loop
      vertex 9.4523 -20.0872 5
      vertex 6.86018 -21.1135 0
      vertex 9.4523 -20.0872 0
    endloop
  endfacet
  facet normal 0.248682 -0.968585 0
    outer loop
      vertex 4.15986 -21.8068 0
      vertex 6.86018 -21.1135 5
      vertex 4.15986 -21.8068 5
    endloop
  endfacet
  facet normal 0.248682 -0.968585 0
    outer loop
      vertex 6.86018 -21.1135 5
      vertex 4.15986 -21.8068 0
      vertex 6.86018 -21.1135 0
    endloop
  endfacet
  facet normal 0.982287 -0.187381 0
    outer loop
      vertex 21.5025 -5.52092 5
      vertex 22.0249 -2.7824 0
      vertex 22.0249 -2.7824 5
    endloop
  endfacet
  facet normal 0.982287 -0.187381 0
    outer loop
      vertex 22.0249 -2.7824 0
      vertex 21.5025 -5.52092 5
      vertex 21.5025 -5.52092 0
    endloop
  endfacet
  facet normal -0.125328 -0.992115 0
    outer loop
      vertex -4.15986 -21.8068 0
      vertex -1.39395 -22.1562 5
      vertex -4.15986 -21.8068 5
    endloop
  endfacet
  facet normal -0.125328 -0.992115 -0
    outer loop
      vertex -1.39395 -22.1562 5
      vertex -4.15986 -21.8068 0
      vertex -1.39395 -22.1562 0
    endloop
  endfacet
  facet normal -0.368127 -0.929776 0
    outer loop
      vertex -9.4523 -20.0872 0
      vertex -6.86018 -21.1135 5
      vertex -9.4523 -20.0872 5
    endloop
  endfacet
  facet normal -0.368127 -0.929776 -0
    outer loop
      vertex -6.86018 -21.1135 5
      vertex -9.4523 -20.0872 0
      vertex -6.86018 -21.1135 0
    endloop
  endfacet
  facet normal -0.248682 -0.968585 0
    outer loop
      vertex -6.86018 -21.1135 0
      vertex -4.15986 -21.8068 5
      vertex -6.86018 -21.1135 5
    endloop
  endfacet
  facet normal -0.248682 -0.968585 -0
    outer loop
      vertex -4.15986 -21.8068 5
      vertex -6.86018 -21.1135 0
      vertex -4.15986 -21.8068 0
    endloop
  endfacet
  facet normal -0.770507 -0.637432 0
    outer loop
      vertex -16.1831 -15.1969 0
      vertex -17.9602 -13.0488 5
      vertex -17.9602 -13.0488 0
    endloop
  endfacet
  facet normal -0.770507 -0.637432 0
    outer loop
      vertex -17.9602 -13.0488 5
      vertex -16.1831 -15.1969 0
      vertex -16.1831 -15.1969 5
    endloop
  endfacet
  facet normal -0.904829 -0.425774 0
    outer loop
      vertex -19.454 -10.6949 0
      vertex -20.641 -8.17236 5
      vertex -20.641 -8.17236 0
    endloop
  endfacet
  facet normal -0.904829 -0.425774 0
    outer loop
      vertex -20.641 -8.17236 5
      vertex -19.454 -10.6949 0
      vertex -19.454 -10.6949 5
    endloop
  endfacet
  facet normal -0.982287 -0.187381 0
    outer loop
      vertex -21.5025 -5.52092 0
      vertex -22.0249 -2.7824 5
      vertex -22.0249 -2.7824 0
    endloop
  endfacet
  facet normal -0.982287 -0.187381 0
    outer loop
      vertex -22.0249 -2.7824 5
      vertex -21.5025 -5.52092 0
      vertex -21.5025 -5.52092 5
    endloop
  endfacet
  facet normal -0.998026 -0.062807 0
    outer loop
      vertex -22.0249 -2.7824 0
      vertex -22.2 0 5
      vertex -22.2 0 0
    endloop
  endfacet
  facet normal -0.998026 -0.062807 0
    outer loop
      vertex -22.2 0 5
      vertex -22.0249 -2.7824 0
      vertex -22.0249 -2.7824 5
    endloop
  endfacet
  facet normal 0.587798 -0.809007 0
    outer loop
      vertex 11.8954 -18.7441 0
      vertex 14.1508 -17.1054 5
      vertex 11.8954 -18.7441 5
    endloop
  endfacet
  facet normal 0.587798 -0.809007 0
    outer loop
      vertex 14.1508 -17.1054 5
      vertex 11.8954 -18.7441 0
      vertex 14.1508 -17.1054 0
    endloop
  endfacet
  facet normal 0.844333 -0.535819 0
    outer loop
      vertex 17.9602 -13.0488 5
      vertex 19.454 -10.6949 0
      vertex 19.454 -10.6949 5
    endloop
  endfacet
  facet normal 0.844333 -0.535819 0
    outer loop
      vertex 19.454 -10.6949 0
      vertex 17.9602 -13.0488 5
      vertex 17.9602 -13.0488 0
    endloop
  endfacet
  facet normal -0.481752 -0.876308 0
    outer loop
      vertex -11.8954 -18.7441 0
      vertex -9.4523 -20.0872 5
      vertex -11.8954 -18.7441 5
    endloop
  endfacet
  facet normal -0.481752 -0.876308 -0
    outer loop
      vertex -9.4523 -20.0872 5
      vertex -11.8954 -18.7441 0
      vertex -9.4523 -20.0872 0
    endloop
  endfacet
  facet normal -0.587798 -0.809007 0
    outer loop
      vertex -14.1508 -17.1054 0
      vertex -11.8954 -18.7441 5
      vertex -14.1508 -17.1054 5
    endloop
  endfacet
  facet normal -0.587798 -0.809007 -0
    outer loop
      vertex -11.8954 -18.7441 5
      vertex -14.1508 -17.1054 0
      vertex -11.8954 -18.7441 0
    endloop
  endfacet
  facet normal 0.951059 -0.30901 0
    outer loop
      vertex -16.9502 4.35207 5
      vertex -16.2711 6.44218 0
      vertex -16.2711 6.44218 5
    endloop
  endfacet
  facet normal 0.951059 -0.30901 0
    outer loop
      vertex -16.2711 6.44218 0
      vertex -16.9502 4.35207 5
      vertex -16.9502 4.35207 0
    endloop
  endfacet
  facet normal -0.844316 -0.535845 0
    outer loop
      vertex 15.3354 8.43069 0
      vertex 14.1578 10.2862 5
      vertex 14.1578 10.2862 0
    endloop
  endfacet
  facet normal -0.844316 -0.535845 0
    outer loop
      vertex 14.1578 10.2862 5
      vertex 15.3354 8.43069 0
      vertex 15.3354 8.43069 5
    endloop
  endfacet
  facet normal -0.368118 -0.929779 0
    outer loop
      vertex 5.4078 16.6435 0
      vertex 7.45114 15.8345 5
      vertex 5.4078 16.6435 5
    endloop
  endfacet
  facet normal -0.368118 -0.929779 -0
    outer loop
      vertex 7.45114 15.8345 5
      vertex 5.4078 16.6435 0
      vertex 7.45114 15.8345 0
    endloop
  endfacet
  facet normal 0.368118 -0.929779 0
    outer loop
      vertex -7.45114 15.8345 0
      vertex -5.4078 16.6435 5
      vertex -7.45114 15.8345 5
    endloop
  endfacet
  facet normal 0.368118 -0.929779 0
    outer loop
      vertex -5.4078 16.6435 5
      vertex -7.45114 15.8345 0
      vertex -5.4078 16.6435 0
    endloop
  endfacet
  facet normal 0.904831 -0.425771 0
    outer loop
      vertex -16.2711 6.44218 5
      vertex -15.3354 8.43069 0
      vertex -15.3354 8.43069 5
    endloop
  endfacet
  facet normal 0.904831 -0.425771 0
    outer loop
      vertex -15.3354 8.43069 0
      vertex -16.2711 6.44218 5
      vertex -16.2711 6.44218 0
    endloop
  endfacet
  facet normal -0.998027 0.0627939 0
    outer loop
      vertex 17.362 -2.19333 0
      vertex 17.5 0 5
      vertex 17.5 0 0
    endloop
  endfacet
  facet normal -0.998027 0.0627939 0
    outer loop
      vertex 17.5 0 5
      vertex 17.362 -2.19333 0
      vertex 17.362 -2.19333 5
    endloop
  endfacet
  facet normal -0.368118 0.929779 0
    outer loop
      vertex 7.45114 -15.8345 0
      vertex 5.4078 -16.6435 5
      vertex 7.45114 -15.8345 5
    endloop
  endfacet
  facet normal -0.368118 0.929779 0
    outer loop
      vertex 5.4078 -16.6435 5
      vertex 7.45114 -15.8345 0
      vertex 5.4078 -16.6435 0
    endloop
  endfacet
  facet normal -0.68453 -0.728985 0
    outer loop
      vertex 11.1549 13.484 0
      vertex 12.757 11.9796 5
      vertex 11.1549 13.484 5
    endloop
  endfacet
  facet normal -0.68453 -0.728985 -0
    outer loop
      vertex 12.757 11.9796 5
      vertex 11.1549 13.484 0
      vertex 12.757 11.9796 0
    endloop
  endfacet
  facet normal 0 -1 0
    outer loop
      vertex -1.09883 17.4655 0
      vertex 1.09883 17.4655 5
      vertex -1.09883 17.4655 5
    endloop
  endfacet
  facet normal 0 -1 -0
    outer loop
      vertex 1.09883 17.4655 5
      vertex -1.09883 17.4655 0
      vertex 1.09883 17.4655 0
    endloop
  endfacet
  facet normal 0.770536 -0.637396 0
    outer loop
      vertex -14.1578 10.2862 5
      vertex -12.757 11.9796 0
      vertex -12.757 11.9796 5
    endloop
  endfacet
  facet normal 0.770536 -0.637396 0
    outer loop
      vertex -12.757 11.9796 0
      vertex -14.1578 10.2862 5
      vertex -14.1578 10.2862 0
    endloop
  endfacet
  facet normal 0.68453 -0.728985 0
    outer loop
      vertex -12.757 11.9796 0
      vertex -11.1549 13.484 5
      vertex -12.757 11.9796 5
    endloop
  endfacet
  facet normal 0.68453 -0.728985 0
    outer loop
      vertex -11.1549 13.484 5
      vertex -12.757 11.9796 0
      vertex -11.1549 13.484 0
    endloop
  endfacet
  facet normal -0.998027 -0.0627939 0
    outer loop
      vertex 17.5 0 0
      vertex 17.362 2.19333 5
      vertex 17.362 2.19333 0
    endloop
  endfacet
  facet normal -0.998027 -0.0627939 0
    outer loop
      vertex 17.362 2.19333 5
      vertex 17.5 0 0
      vertex 17.5 0 5
    endloop
  endfacet
  facet normal -0.587773 0.809026 0
    outer loop
      vertex 11.1549 -13.484 0
      vertex 9.37697 -14.7757 5
      vertex 11.1549 -13.484 5
    endloop
  endfacet
  facet normal -0.587773 0.809026 0
    outer loop
      vertex 9.37697 -14.7757 5
      vertex 11.1549 -13.484 0
      vertex 9.37697 -14.7757 0
    endloop
  endfacet
  facet normal -0.904831 0.425771 0
    outer loop
      vertex 15.3354 -8.43069 0
      vertex 16.2711 -6.44218 5
      vertex 16.2711 -6.44218 0
    endloop
  endfacet
  facet normal -0.904831 0.425771 0
    outer loop
      vertex 16.2711 -6.44218 5
      vertex 15.3354 -8.43069 0
      vertex 15.3354 -8.43069 5
    endloop
  endfacet
  facet normal -0.248673 0.968587 0
    outer loop
      vertex 5.4078 -16.6435 0
      vertex 3.27917 -17.19 5
      vertex 5.4078 -16.6435 5
    endloop
  endfacet
  facet normal -0.248673 0.968587 0
    outer loop
      vertex 3.27917 -17.19 5
      vertex 5.4078 -16.6435 0
      vertex 3.27917 -17.19 0
    endloop
  endfacet
  facet normal -0.770536 -0.637396 0
    outer loop
      vertex 14.1578 10.2862 0
      vertex 12.757 11.9796 5
      vertex 12.757 11.9796 0
    endloop
  endfacet
  facet normal -0.770536 -0.637396 0
    outer loop
      vertex 12.757 11.9796 5
      vertex 14.1578 10.2862 0
      vertex 14.1578 10.2862 5
    endloop
  endfacet
  facet normal -0.248673 -0.968587 0
    outer loop
      vertex 3.27917 17.19 0
      vertex 5.4078 16.6435 5
      vertex 3.27917 17.19 5
    endloop
  endfacet
  facet normal -0.248673 -0.968587 -0
    outer loop
      vertex 5.4078 16.6435 5
      vertex 3.27917 17.19 0
      vertex 5.4078 16.6435 0
    endloop
  endfacet
  facet normal -0.12536 -0.992111 0
    outer loop
      vertex 1.09883 17.4655 0
      vertex 3.27917 17.19 5
      vertex 1.09883 17.4655 5
    endloop
  endfacet
  facet normal -0.12536 -0.992111 -0
    outer loop
      vertex 3.27917 17.19 5
      vertex 1.09883 17.4655 0
      vertex 3.27917 17.19 0
    endloop
  endfacet
  facet normal -0.587773 -0.809026 0
    outer loop
      vertex 9.37697 14.7757 0
      vertex 11.1549 13.484 5
      vertex 9.37697 14.7757 5
    endloop
  endfacet
  facet normal -0.587773 -0.809026 -0
    outer loop
      vertex 11.1549 13.484 5
      vertex 9.37697 14.7757 0
      vertex 11.1549 13.484 0
    endloop
  endfacet
  facet normal -0.481777 -0.876294 0
    outer loop
      vertex 7.45114 15.8345 0
      vertex 9.37697 14.7757 5
      vertex 7.45114 15.8345 5
    endloop
  endfacet
  facet normal -0.481777 -0.876294 -0
    outer loop
      vertex 9.37697 14.7757 5
      vertex 7.45114 15.8345 0
      vertex 9.37697 14.7757 0
    endloop
  endfacet
  facet normal 0.998027 -0.0627939 0
    outer loop
      vertex -17.5 0 5
      vertex -17.362 2.19333 0
      vertex -17.362 2.19333 5
    endloop
  endfacet
  facet normal 0.998027 -0.0627939 0
    outer loop
      vertex -17.362 2.19333 0
      vertex -17.5 0 5
      vertex -17.5 0 0
    endloop
  endfacet
  facet normal 0.982287 -0.187381 0
    outer loop
      vertex -17.362 2.19333 5
      vertex -16.9502 4.35207 0
      vertex -16.9502 4.35207 5
    endloop
  endfacet
  facet normal 0.982287 -0.187381 0
    outer loop
      vertex -16.9502 4.35207 0
      vertex -17.362 2.19333 5
      vertex -17.362 2.19333 0
    endloop
  endfacet
  facet normal 0.844316 -0.535845 0
    outer loop
      vertex -15.3354 8.43069 5
      vertex -14.1578 10.2862 0
      vertex -14.1578 10.2862 5
    endloop
  endfacet
  facet normal 0.844316 -0.535845 0
    outer loop
      vertex -14.1578 10.2862 0
      vertex -15.3354 8.43069 5
      vertex -15.3354 8.43069 0
    endloop
  endfacet
  facet normal 0.12536 -0.992111 0
    outer loop
      vertex -3.27917 17.19 0
      vertex -1.09883 17.4655 5
      vertex -3.27917 17.19 5
    endloop
  endfacet
  facet normal 0.12536 -0.992111 0
    outer loop
      vertex -1.09883 17.4655 5
      vertex -3.27917 17.19 0
      vertex -1.09883 17.4655 0
    endloop
  endfacet
  facet normal 0.248673 -0.968587 0
    outer loop
      vertex -5.4078 16.6435 0
      vertex -3.27917 17.19 5
      vertex -5.4078 16.6435 5
    endloop
  endfacet
  facet normal 0.248673 -0.968587 0
    outer loop
      vertex -3.27917 17.19 5
      vertex -5.4078 16.6435 0
      vertex -3.27917 17.19 0
    endloop
  endfacet
  facet normal 0.481777 -0.876294 0
    outer loop
      vertex -9.37697 14.7757 0
      vertex -7.45114 15.8345 5
      vertex -9.37697 14.7757 5
    endloop
  endfacet
  facet normal 0.481777 -0.876294 0
    outer loop
      vertex -7.45114 15.8345 5
      vertex -9.37697 14.7757 0
      vertex -7.45114 15.8345 0
    endloop
  endfacet
  facet normal 0.587773 -0.809026 0
    outer loop
      vertex -11.1549 13.484 0
      vertex -9.37697 14.7757 5
      vertex -11.1549 13.484 5
    endloop
  endfacet
  facet normal 0.587773 -0.809026 0
    outer loop
      vertex -9.37697 14.7757 5
      vertex -11.1549 13.484 0
      vertex -9.37697 14.7757 0
    endloop
  endfacet
  facet normal -0.982287 0.187381 0
    outer loop
      vertex 16.9502 -4.35207 0
      vertex 17.362 -2.19333 5
      vertex 17.362 -2.19333 0
    endloop
  endfacet
  facet normal -0.982287 0.187381 0
    outer loop
      vertex 17.362 -2.19333 5
      vertex 16.9502 -4.35207 0
      vertex 16.9502 -4.35207 5
    endloop
  endfacet
  facet normal -0.770536 0.637396 0
    outer loop
      vertex 12.757 -11.9796 0
      vertex 14.1578 -10.2862 5
      vertex 14.1578 -10.2862 0
    endloop
  endfacet
  facet normal -0.770536 0.637396 0
    outer loop
      vertex 14.1578 -10.2862 5
      vertex 12.757 -11.9796 0
      vertex 12.757 -11.9796 5
    endloop
  endfacet
  facet normal -0.844316 0.535845 0
    outer loop
      vertex 14.1578 -10.2862 0
      vertex 15.3354 -8.43069 5
      vertex 15.3354 -8.43069 0
    endloop
  endfacet
  facet normal -0.844316 0.535845 0
    outer loop
      vertex 15.3354 -8.43069 5
      vertex 14.1578 -10.2862 0
      vertex 14.1578 -10.2862 5
    endloop
  endfacet
  facet normal -0.12536 0.992111 0
    outer loop
      vertex 3.27917 -17.19 0
      vertex 1.09883 -17.4655 5
      vertex 3.27917 -17.19 5
    endloop
  endfacet
  facet normal -0.12536 0.992111 0
    outer loop
      vertex 1.09883 -17.4655 5
      vertex 3.27917 -17.19 0
      vertex 1.09883 -17.4655 0
    endloop
  endfacet
  facet normal -0.68453 0.728985 0
    outer loop
      vertex 12.757 -11.9796 0
      vertex 11.1549 -13.484 5
      vertex 12.757 -11.9796 5
    endloop
  endfacet
  facet normal -0.68453 0.728985 0
    outer loop
      vertex 11.1549 -13.484 5
      vertex 12.757 -11.9796 0
      vertex 11.1549 -13.484 0
    endloop
  endfacet
  facet normal -0.904831 -0.425771 0
    outer loop
      vertex 16.2711 6.44218 0
      vertex 15.3354 8.43069 5
      vertex 15.3354 8.43069 0
    endloop
  endfacet
  facet normal -0.904831 -0.425771 0
    outer loop
      vertex 15.3354 8.43069 5
      vertex 16.2711 6.44218 0
      vertex 16.2711 6.44218 5
    endloop
  endfacet
  facet normal -0.951059 -0.30901 0
    outer loop
      vertex 16.9502 4.35207 0
      vertex 16.2711 6.44218 5
      vertex 16.2711 6.44218 0
    endloop
  endfacet
  facet normal -0.951059 -0.30901 0
    outer loop
      vertex 16.2711 6.44218 5
      vertex 16.9502 4.35207 0
      vertex 16.9502 4.35207 5
    endloop
  endfacet
  facet normal -0.982287 -0.187381 0
    outer loop
      vertex 17.362 2.19333 0
      vertex 16.9502 4.35207 5
      vertex 16.9502 4.35207 0
    endloop
  endfacet
  facet normal -0.982287 -0.187381 0
    outer loop
      vertex 16.9502 4.35207 5
      vertex 17.362 2.19333 0
      vertex 17.362 2.19333 5
    endloop
  endfacet
  facet normal 0 1 -0
    outer loop
      vertex 1.09883 -17.4655 0
      vertex -1.09883 -17.4655 5
      vertex 1.09883 -17.4655 5
    endloop
  endfacet
  facet normal 0 1 0
    outer loop
      vertex -1.09883 -17.4655 5
      vertex 1.09883 -17.4655 0
      vertex -1.09883 -17.4655 0
    endloop
  endfacet
  facet normal 0.368118 0.929779 -0
    outer loop
      vertex -5.4078 -16.6435 0
      vertex -7.45114 -15.8345 5
      vertex -5.4078 -16.6435 5
    endloop
  endfacet
  facet normal 0.368118 0.929779 0
    outer loop
      vertex -7.45114 -15.8345 5
      vertex -5.4078 -16.6435 0
      vertex -7.45114 -15.8345 0
    endloop
  endfacet
  facet normal 0.998027 0.0627939 0
    outer loop
      vertex -17.362 -2.19333 5
      vertex -17.5 0 0
      vertex -17.5 0 5
    endloop
  endfacet
  facet normal 0.998027 0.0627939 0
    outer loop
      vertex -17.5 0 0
      vertex -17.362 -2.19333 5
      vertex -17.362 -2.19333 0
    endloop
  endfacet
  facet normal 0.951059 0.30901 0
    outer loop
      vertex -16.2711 -6.44218 5
      vertex -16.9502 -4.35207 0
      vertex -16.9502 -4.35207 5
    endloop
  endfacet
  facet normal 0.951059 0.30901 0
    outer loop
      vertex -16.9502 -4.35207 0
      vertex -16.2711 -6.44218 5
      vertex -16.2711 -6.44218 0
    endloop
  endfacet
  facet normal 0.904831 0.425771 0
    outer loop
      vertex -15.3354 -8.43069 5
      vertex -16.2711 -6.44218 0
      vertex -16.2711 -6.44218 5
    endloop
  endfacet
  facet normal 0.904831 0.425771 0
    outer loop
      vertex -16.2711 -6.44218 0
      vertex -15.3354 -8.43069 5
      vertex -15.3354 -8.43069 0
    endloop
  endfacet
  facet normal -0.481777 0.876294 0
    outer loop
      vertex 9.37697 -14.7757 0
      vertex 7.45114 -15.8345 5
      vertex 9.37697 -14.7757 5
    endloop
  endfacet
  facet normal -0.481777 0.876294 0
    outer loop
      vertex 7.45114 -15.8345 5
      vertex 9.37697 -14.7757 0
      vertex 7.45114 -15.8345 0
    endloop
  endfacet
  facet normal -0.951059 0.30901 0
    outer loop
      vertex 16.2711 -6.44218 0
      vertex 16.9502 -4.35207 5
      vertex 16.9502 -4.35207 0
    endloop
  endfacet
  facet normal -0.951059 0.30901 0
    outer loop
      vertex 16.9502 -4.35207 5
      vertex 16.2711 -6.44218 0
      vertex 16.2711 -6.44218 5
    endloop
  endfacet
  facet normal 0.68453 0.728985 -0
    outer loop
      vertex -11.1549 -13.484 0
      vertex -12.757 -11.9796 5
      vertex -11.1549 -13.484 5
    endloop
  endfacet
  facet normal 0.68453 0.728985 0
    outer loop
      vertex -12.757 -11.9796 5
      vertex -11.1549 -13.484 0
      vertex -12.757 -11.9796 0
    endloop
  endfacet
  facet normal 0.248673 0.968587 -0
    outer loop
      vertex -3.27917 -17.19 0
      vertex -5.4078 -16.6435 5
      vertex -3.27917 -17.19 5
    endloop
  endfacet
  facet normal 0.248673 0.968587 0
    outer loop
      vertex -5.4078 -16.6435 5
      vertex -3.27917 -17.19 0
      vertex -5.4078 -16.6435 0
    endloop
  endfacet
  facet normal 0.481777 0.876294 -0
    outer loop
      vertex -7.45114 -15.8345 0
      vertex -9.37697 -14.7757 5
      vertex -7.45114 -15.8345 5
    endloop
  endfacet
  facet normal 0.481777 0.876294 0
    outer loop
      vertex -9.37697 -14.7757 5
      vertex -7.45114 -15.8345 0
      vertex -9.37697 -14.7757 0
    endloop
  endfacet
  facet normal 0.982287 0.187381 0
    outer loop
      vertex -16.9502 -4.35207 5
      vertex -17.362 -2.19333 0
      vertex -17.362 -2.19333 5
    endloop
  endfacet
  facet normal 0.982287 0.187381 0
    outer loop
      vertex -17.362 -2.19333 0
      vertex -16.9502 -4.35207 5
      vertex -16.9502 -4.35207 0
    endloop
  endfacet
  facet normal 0.770536 0.637396 0
    outer loop
      vertex -12.757 -11.9796 5
      vertex -14.1578 -10.2862 0
      vertex -14.1578 -10.2862 5
    endloop
  endfacet
  facet normal 0.770536 0.637396 0
    outer loop
      vertex -14.1578 -10.2862 0
      vertex -12.757 -11.9796 5
      vertex -12.757 -11.9796 0
    endloop
  endfacet
  facet normal 0.844316 0.535845 0
    outer loop
      vertex -14.1578 -10.2862 5
      vertex -15.3354 -8.43069 0
      vertex -15.3354 -8.43069 5
    endloop
  endfacet
  facet normal 0.844316 0.535845 0
    outer loop
      vertex -15.3354 -8.43069 0
      vertex -14.1578 -10.2862 5
      vertex -14.1578 -10.2862 0
    endloop
  endfacet
  facet normal 0.12536 0.992111 -0
    outer loop
      vertex -1.09883 -17.4655 0
      vertex -3.27917 -17.19 5
      vertex -1.09883 -17.4655 5
    endloop
  endfacet
  facet normal 0.12536 0.992111 0
    outer loop
      vertex -3.27917 -17.19 5
      vertex -1.09883 -17.4655 0
      vertex -3.27917 -17.19 0
    endloop
  endfacet
  facet normal 0.587773 0.809026 -0
    outer loop
      vertex -9.37697 -14.7757 0
      vertex -11.1549 -13.484 5
      vertex -9.37697 -14.7757 5
    endloop
  endfacet
  facet normal 0.587773 0.809026 0
    outer loop
      vertex -11.1549 -13.484 5
      vertex -9.37697 -14.7757 0
      vertex -11.1549 -13.484 0
    endloop
  endfacet
endsolid OpenSCAD_Model
