solid OpenSCAD_Model
  facet normal 0.998027 0.062793 6.03112e-19
    outer loop
      vertex 57.7 0 13
      vertex 57.245 7.23173 0
      vertex 57.245 7.23173 13
    endloop
  endfacet
  facet normal 0.998027 0.062793 6.03112e-19
    outer loop
      vertex 57.245 7.23173 0
      vertex 57.7 0 13
      vertex 57.7 0 0
    endloop
  endfacet
  facet normal -0.998027 0.062793 -6.03112e-19
    outer loop
      vertex -57.7 0 0
      vertex -57.245 7.23173 13
      vertex -57.245 7.23173 0
    endloop
  endfacet
  facet normal -0.998027 0.062793 -6.03112e-19
    outer loop
      vertex -57.245 7.23173 13
      vertex -57.7 0 0
      vertex -57.7 0 13
    endloop
  endfacet
  facet normal 0 1 -0
    outer loop
      vertex 3.62301 57.5861 0
      vertex -3.62301 57.5861 13
      vertex 3.62301 57.5861 13
    endloop
  endfacet
  facet normal 0 1 0
    outer loop
      vertex -3.62301 57.5861 13
      vertex 3.62301 57.5861 0
      vertex -3.62301 57.5861 0
    endloop
  endfacet
  facet normal 0 -1 0
    outer loop
      vertex -3.62301 -57.5861 0
      vertex 3.62301 -57.5861 13
      vertex -3.62301 -57.5861 13
    endloop
  endfacet
  facet normal 0 -1 -0
    outer loop
      vertex 3.62301 -57.5861 13
      vertex -3.62301 -57.5861 0
      vertex 3.62301 -57.5861 0
    endloop
  endfacet
  facet normal 0.684545 0.72897 -0
    outer loop
      vertex 42.0615 39.4984 0
      vertex 36.7794 44.4586 13
      vertex 42.0615 39.4984 13
    endloop
  endfacet
  facet normal 0.684545 0.72897 0
    outer loop
      vertex 36.7794 44.4586 13
      vertex 42.0615 39.4984 0
      vertex 36.7794 44.4586 0
    endloop
  endfacet
  facet normal -0.684545 0.72897 0
    outer loop
      vertex -36.7794 44.4586 0
      vertex -42.0615 39.4984 13
      vertex -36.7794 44.4586 13
    endloop
  endfacet
  facet normal -0.684545 0.72897 0
    outer loop
      vertex -42.0615 39.4984 13
      vertex -36.7794 44.4586 0
      vertex -42.0615 39.4984 0
    endloop
  endfacet
  facet normal -0.368131 0.929774 0
    outer loop
      vertex -17.8303 54.876 0
      vertex -24.5675 52.2085 13
      vertex -17.8303 54.876 13
    endloop
  endfacet
  facet normal -0.368131 0.929774 0
    outer loop
      vertex -24.5675 52.2085 13
      vertex -17.8303 54.876 0
      vertex -24.5675 52.2085 0
    endloop
  endfacet
  facet normal 0.844328 -0.535827 4.82492e-18
    outer loop
      vertex 46.6803 -33.9152 13
      vertex 50.5629 -27.7972 0
      vertex 50.5629 -27.7972 13
    endloop
  endfacet
  facet normal 0.844328 -0.535827 4.82492e-18
    outer loop
      vertex 50.5629 -27.7972 0
      vertex 46.6803 -33.9152 13
      vertex 46.6803 -33.9152 0
    endloop
  endfacet
  facet normal 0.904827 0.425778 7.07161e-18
    outer loop
      vertex 53.6481 21.2408 13
      vertex 50.5629 27.7972 0
      vertex 50.5629 27.7972 13
    endloop
  endfacet
  facet normal 0.904827 0.425778 7.07161e-18
    outer loop
      vertex 50.5629 27.7972 0
      vertex 53.6481 21.2408 13
      vertex 53.6481 21.2408 0
    endloop
  endfacet
  facet normal 0.982286 0.187386 2.32037e-18
    outer loop
      vertex 57.245 7.23173 13
      vertex 55.8872 14.3494 0
      vertex 55.8872 14.3494 13
    endloop
  endfacet
  facet normal 0.982286 0.187386 2.32037e-18
    outer loop
      vertex 55.8872 14.3494 0
      vertex 57.245 7.23173 13
      vertex 57.245 7.23173 0
    endloop
  endfacet
  facet normal 0.844328 0.535827 -4.82492e-18
    outer loop
      vertex 50.5629 27.7972 13
      vertex 46.6803 33.9152 0
      vertex 46.6803 33.9152 13
    endloop
  endfacet
  facet normal 0.844328 0.535827 -4.82492e-18
    outer loop
      vertex 46.6803 33.9152 0
      vertex 50.5629 27.7972 13
      vertex 50.5629 27.7972 0
    endloop
  endfacet
  facet normal 0.368131 0.929774 -0
    outer loop
      vertex 24.5675 52.2085 0
      vertex 17.8303 54.876 13
      vertex 24.5675 52.2085 13
    endloop
  endfacet
  facet normal 0.368131 0.929774 0
    outer loop
      vertex 17.8303 54.876 13
      vertex 24.5675 52.2085 0
      vertex 17.8303 54.876 0
    endloop
  endfacet
  facet normal 0.248687 0.968584 -0
    outer loop
      vertex 17.8303 54.876 0
      vertex 10.8119 56.678 13
      vertex 17.8303 54.876 13
    endloop
  endfacet
  facet normal 0.248687 0.968584 0
    outer loop
      vertex 10.8119 56.678 13
      vertex 17.8303 54.876 0
      vertex 10.8119 56.678 0
    endloop
  endfacet
  facet normal 0.481756 0.876305 -0
    outer loop
      vertex 30.9172 48.7177 0
      vertex 24.5675 52.2085 13
      vertex 30.9172 48.7177 13
    endloop
  endfacet
  facet normal 0.481756 0.876305 0
    outer loop
      vertex 24.5675 52.2085 13
      vertex 30.9172 48.7177 0
      vertex 24.5675 52.2085 0
    endloop
  endfacet
  facet normal -0.904827 0.425778 -7.07161e-18
    outer loop
      vertex -53.6481 21.2408 0
      vertex -50.5629 27.7972 13
      vertex -50.5629 27.7972 0
    endloop
  endfacet
  facet normal -0.904827 0.425778 -7.07161e-18
    outer loop
      vertex -50.5629 27.7972 13
      vertex -53.6481 21.2408 0
      vertex -53.6481 21.2408 13
    endloop
  endfacet
  facet normal -0.844328 0.535827 4.82492e-18
    outer loop
      vertex -50.5629 27.7972 0
      vertex -46.6803 33.9152 13
      vertex -46.6803 33.9152 0
    endloop
  endfacet
  facet normal -0.844328 0.535827 4.82492e-18
    outer loop
      vertex -46.6803 33.9152 13
      vertex -50.5629 27.7972 0
      vertex -50.5629 27.7972 13
    endloop
  endfacet
  facet normal -0.951059 0.309011 -7.6517e-18
    outer loop
      vertex -55.8872 14.3494 0
      vertex -53.6481 21.2408 13
      vertex -53.6481 21.2408 0
    endloop
  endfacet
  facet normal -0.951059 0.309011 -7.6517e-18
    outer loop
      vertex -53.6481 21.2408 13
      vertex -55.8872 14.3494 0
      vertex -55.8872 14.3494 13
    endloop
  endfacet
  facet normal -0.481756 0.876305 0
    outer loop
      vertex -24.5675 52.2085 0
      vertex -30.9172 48.7177 13
      vertex -24.5675 52.2085 13
    endloop
  endfacet
  facet normal -0.481756 0.876305 0
    outer loop
      vertex -30.9172 48.7177 13
      vertex -24.5675 52.2085 0
      vertex -30.9172 48.7177 0
    endloop
  endfacet
  facet normal -0.125324 0.992116 0
    outer loop
      vertex -3.62301 57.5861 0
      vertex -10.8119 56.678 13
      vertex -3.62301 57.5861 13
    endloop
  endfacet
  facet normal -0.125324 0.992116 0
    outer loop
      vertex -10.8119 56.678 13
      vertex -3.62301 57.5861 0
      vertex -10.8119 56.678 0
    endloop
  endfacet
  facet normal 0.125324 -0.992116 0
    outer loop
      vertex 3.62301 -57.5861 0
      vertex 10.8119 -56.678 13
      vertex 3.62301 -57.5861 13
    endloop
  endfacet
  facet normal 0.125324 -0.992116 0
    outer loop
      vertex 10.8119 -56.678 13
      vertex 3.62301 -57.5861 0
      vertex 10.8119 -56.678 0
    endloop
  endfacet
  facet normal 0.951059 0.309011 7.6517e-18
    outer loop
      vertex 55.8872 14.3494 13
      vertex 53.6481 21.2408 0
      vertex 53.6481 21.2408 13
    endloop
  endfacet
  facet normal 0.951059 0.309011 7.6517e-18
    outer loop
      vertex 53.6481 21.2408 0
      vertex 55.8872 14.3494 13
      vertex 55.8872 14.3494 0
    endloop
  endfacet
  facet normal 0.770515 0.637422 1.26147e-17
    outer loop
      vertex 46.6803 33.9152 13
      vertex 42.0615 39.4984 0
      vertex 42.0615 39.4984 13
    endloop
  endfacet
  facet normal 0.770515 0.637422 1.26147e-17
    outer loop
      vertex 42.0615 39.4984 0
      vertex 46.6803 33.9152 13
      vertex 46.6803 33.9152 0
    endloop
  endfacet
  facet normal 0.125324 0.992116 -0
    outer loop
      vertex 10.8119 56.678 0
      vertex 3.62301 57.5861 13
      vertex 10.8119 56.678 13
    endloop
  endfacet
  facet normal 0.125324 0.992116 0
    outer loop
      vertex 3.62301 57.5861 13
      vertex 10.8119 56.678 0
      vertex 3.62301 57.5861 0
    endloop
  endfacet
  facet normal 0.587782 0.809019 -0
    outer loop
      vertex 36.7794 44.4586 0
      vertex 30.9172 48.7177 13
      vertex 36.7794 44.4586 13
    endloop
  endfacet
  facet normal 0.587782 0.809019 0
    outer loop
      vertex 30.9172 48.7177 13
      vertex 36.7794 44.4586 0
      vertex 30.9172 48.7177 0
    endloop
  endfacet
  facet normal -0.982286 0.187386 -2.32037e-18
    outer loop
      vertex -57.245 7.23173 0
      vertex -55.8872 14.3494 13
      vertex -55.8872 14.3494 0
    endloop
  endfacet
  facet normal -0.982286 0.187386 -2.32037e-18
    outer loop
      vertex -55.8872 14.3494 13
      vertex -57.245 7.23173 0
      vertex -57.245 7.23173 13
    endloop
  endfacet
  facet normal 0 0 1
    outer loop
      vertex 45 0 13
      vertex 57.7 0 13
      vertex 57.245 7.23173 13
    endloop
  endfacet
  facet normal 0 0 1
    outer loop
      vertex 44.6452 5.63999 13
      vertex 57.245 7.23173 13
      vertex 55.8872 14.3494 13
    endloop
  endfacet
  facet normal 0 0 1
    outer loop
      vertex 57.7 0 13
      vertex 45 0 13
      vertex 57.245 -7.23173 13
    endloop
  endfacet
  facet normal 0 0 1
    outer loop
      vertex 43.5862 11.191 13
      vertex 55.8872 14.3494 13
      vertex 53.6481 21.2408 13
    endloop
  endfacet
  facet normal -0 0 1
    outer loop
      vertex 44.6452 -5.63999 13
      vertex 57.245 -7.23173 13
      vertex 45 0 13
    endloop
  endfacet
  facet normal 0 0 1
    outer loop
      vertex 41.8399 16.5656 13
      vertex 53.6481 21.2408 13
      vertex 50.5629 27.7972 13
    endloop
  endfacet
  facet normal 0 0 1
    outer loop
      vertex 57.245 -7.23173 13
      vertex 44.6452 -5.63999 13
      vertex 55.8872 -14.3494 13
    endloop
  endfacet
  facet normal 0 0 1
    outer loop
      vertex 39.4338 21.6789 13
      vertex 50.5629 27.7972 13
      vertex 46.6803 33.9152 13
    endloop
  endfacet
  facet normal -0 0 1
    outer loop
      vertex 43.5862 -11.191 13
      vertex 55.8872 -14.3494 13
      vertex 44.6452 -5.63999 13
    endloop
  endfacet
  facet normal 0 0 1
    outer loop
      vertex 55.8872 -14.3494 13
      vertex 43.5862 -11.191 13
      vertex 53.6481 -21.2408 13
    endloop
  endfacet
  facet normal 0 0 1
    outer loop
      vertex 57.245 7.23173 13
      vertex 44.6452 5.63999 13
      vertex 45 0 13
    endloop
  endfacet
  facet normal 0 0 1
    outer loop
      vertex 55.8872 14.3494 13
      vertex 43.5862 11.191 13
      vertex 44.6452 5.63999 13
    endloop
  endfacet
  facet normal 0 0 1
    outer loop
      vertex 36.4058 26.4503 13
      vertex 46.6803 33.9152 13
      vertex 42.0615 39.4984 13
    endloop
  endfacet
  facet normal 0 0 1
    outer loop
      vertex 53.6481 21.2408 13
      vertex 41.8399 16.5656 13
      vertex 43.5862 11.191 13
    endloop
  endfacet
  facet normal 0 0 1
    outer loop
      vertex 50.5629 27.7972 13
      vertex 39.4338 21.6789 13
      vertex 41.8399 16.5656 13
    endloop
  endfacet
  facet normal 0 0 1
    outer loop
      vertex 32.8036 30.8046 13
      vertex 42.0615 39.4984 13
      vertex 36.7794 44.4586 13
    endloop
  endfacet
  facet normal 0 0 1
    outer loop
      vertex 46.6803 33.9152 13
      vertex 36.4058 26.4503 13
      vertex 39.4338 21.6789 13
    endloop
  endfacet
  facet normal 0 0 1
    outer loop
      vertex 42.0615 39.4984 13
      vertex 32.8036 30.8046 13
      vertex 36.4058 26.4503 13
    endloop
  endfacet
  facet normal 0 0 1
    outer loop
      vertex 28.6841 34.6731 13
      vertex 36.7794 44.4586 13
      vertex 30.9172 48.7177 13
    endloop
  endfacet
  facet normal 0 0 1
    outer loop
      vertex 36.7794 44.4586 13
      vertex 28.6841 34.6731 13
      vertex 32.8036 30.8046 13
    endloop
  endfacet
  facet normal 0 0 1
    outer loop
      vertex 24.1122 37.9948 13
      vertex 30.9172 48.7177 13
      vertex 24.5675 52.2085 13
    endloop
  endfacet
  facet normal 0 0 1
    outer loop
      vertex 30.9172 48.7177 13
      vertex 24.1122 37.9948 13
      vertex 28.6841 34.6731 13
    endloop
  endfacet
  facet normal 0 0 1
    outer loop
      vertex 24.5675 52.2085 13
      vertex 19.1601 40.7172 13
      vertex 24.1122 37.9948 13
    endloop
  endfacet
  facet normal 0 0 1
    outer loop
      vertex 17.8303 54.876 13
      vertex 19.1601 40.7172 13
      vertex 24.5675 52.2085 13
    endloop
  endfacet
  facet normal 0 0 1
    outer loop
      vertex 17.8303 54.876 13
      vertex 13.9058 42.7975 13
      vertex 19.1601 40.7172 13
    endloop
  endfacet
  facet normal 0 0 1
    outer loop
      vertex 10.8119 56.678 13
      vertex 13.9058 42.7975 13
      vertex 17.8303 54.876 13
    endloop
  endfacet
  facet normal 0 0 1
    outer loop
      vertex 10.8119 56.678 13
      vertex 8.43216 44.2029 13
      vertex 13.9058 42.7975 13
    endloop
  endfacet
  facet normal 0 0 1
    outer loop
      vertex 3.62301 57.5861 13
      vertex 8.43216 44.2029 13
      vertex 10.8119 56.678 13
    endloop
  endfacet
  facet normal 0 0 1
    outer loop
      vertex 3.62301 57.5861 13
      vertex 2.82557 44.9112 13
      vertex 8.43216 44.2029 13
    endloop
  endfacet
  facet normal 0 0 1
    outer loop
      vertex 3.62301 57.5861 13
      vertex -2.82557 44.9112 13
      vertex 2.82557 44.9112 13
    endloop
  endfacet
  facet normal -0 0 1
    outer loop
      vertex -3.62301 57.5861 13
      vertex -2.82557 44.9112 13
      vertex 3.62301 57.5861 13
    endloop
  endfacet
  facet normal 0 0 1
    outer loop
      vertex -3.62301 57.5861 13
      vertex -8.43216 44.2029 13
      vertex -2.82557 44.9112 13
    endloop
  endfacet
  facet normal -0 0 1
    outer loop
      vertex -10.8119 56.678 13
      vertex -8.43216 44.2029 13
      vertex -3.62301 57.5861 13
    endloop
  endfacet
  facet normal 0 0 1
    outer loop
      vertex -10.8119 56.678 13
      vertex -13.9058 42.7975 13
      vertex -8.43216 44.2029 13
    endloop
  endfacet
  facet normal -0 0 1
    outer loop
      vertex -17.8303 54.876 13
      vertex -13.9058 42.7975 13
      vertex -10.8119 56.678 13
    endloop
  endfacet
  facet normal 0 0 1
    outer loop
      vertex -17.8303 54.876 13
      vertex -19.1601 40.7172 13
      vertex -13.9058 42.7975 13
    endloop
  endfacet
  facet normal -0 0 1
    outer loop
      vertex -24.5675 52.2085 13
      vertex -19.1601 40.7172 13
      vertex -17.8303 54.876 13
    endloop
  endfacet
  facet normal 0 0 1
    outer loop
      vertex -19.1601 40.7172 13
      vertex -24.5675 52.2085 13
      vertex -24.1122 37.9948 13
    endloop
  endfacet
  facet normal -0 0 1
    outer loop
      vertex -30.9172 48.7177 13
      vertex -24.1122 37.9948 13
      vertex -24.5675 52.2085 13
    endloop
  endfacet
  facet normal 0 0 1
    outer loop
      vertex -24.1122 37.9948 13
      vertex -30.9172 48.7177 13
      vertex -28.6841 34.6731 13
    endloop
  endfacet
  facet normal -0 0 1
    outer loop
      vertex -36.7794 44.4586 13
      vertex -28.6841 34.6731 13
      vertex -30.9172 48.7177 13
    endloop
  endfacet
  facet normal 0 0 1
    outer loop
      vertex -28.6841 34.6731 13
      vertex -36.7794 44.4586 13
      vertex -32.8036 30.8046 13
    endloop
  endfacet
  facet normal -0 0 1
    outer loop
      vertex -42.0615 39.4984 13
      vertex -32.8036 30.8046 13
      vertex -36.7794 44.4586 13
    endloop
  endfacet
  facet normal 0 0 1
    outer loop
      vertex -32.8036 30.8046 13
      vertex -42.0615 39.4984 13
      vertex -36.4058 26.4503 13
    endloop
  endfacet
  facet normal -0 0 1
    outer loop
      vertex -46.6803 33.9152 13
      vertex -36.4058 26.4503 13
      vertex -42.0615 39.4984 13
    endloop
  endfacet
  facet normal 0 0 1
    outer loop
      vertex -36.4058 26.4503 13
      vertex -46.6803 33.9152 13
      vertex -39.4338 21.6789 13
    endloop
  endfacet
  facet normal -0 0 1
    outer loop
      vertex -50.5629 27.7972 13
      vertex -39.4338 21.6789 13
      vertex -46.6803 33.9152 13
    endloop
  endfacet
  facet normal 0 0 1
    outer loop
      vertex -39.4338 21.6789 13
      vertex -50.5629 27.7972 13
      vertex -41.8399 16.5656 13
    endloop
  endfacet
  facet normal 0 0 1
    outer loop
      vertex -41.8399 16.5656 13
      vertex -53.6481 21.2408 13
      vertex -43.5862 11.191 13
    endloop
  endfacet
  facet normal -0 0 1
    outer loop
      vertex -53.6481 21.2408 13
      vertex -41.8399 16.5656 13
      vertex -50.5629 27.7972 13
    endloop
  endfacet
  facet normal -0 0 1
    outer loop
      vertex 41.8399 -16.5656 13
      vertex 53.6481 -21.2408 13
      vertex 43.5862 -11.191 13
    endloop
  endfacet
  facet normal 0 0 1
    outer loop
      vertex 53.6481 -21.2408 13
      vertex 41.8399 -16.5656 13
      vertex 50.5629 -27.7972 13
    endloop
  endfacet
  facet normal -0 0 1
    outer loop
      vertex 39.4338 -21.6789 13
      vertex 50.5629 -27.7972 13
      vertex 41.8399 -16.5656 13
    endloop
  endfacet
  facet normal 0 0 1
    outer loop
      vertex 50.5629 -27.7972 13
      vertex 39.4338 -21.6789 13
      vertex 46.6803 -33.9152 13
    endloop
  endfacet
  facet normal -0 0 1
    outer loop
      vertex 36.4058 -26.4503 13
      vertex 46.6803 -33.9152 13
      vertex 39.4338 -21.6789 13
    endloop
  endfacet
  facet normal 0 0 1
    outer loop
      vertex 46.6803 -33.9152 13
      vertex 36.4058 -26.4503 13
      vertex 42.0615 -39.4984 13
    endloop
  endfacet
  facet normal -0 0 1
    outer loop
      vertex 32.8036 -30.8046 13
      vertex 42.0615 -39.4984 13
      vertex 36.4058 -26.4503 13
    endloop
  endfacet
  facet normal 0 0 1
    outer loop
      vertex 42.0615 -39.4984 13
      vertex 32.8036 -30.8046 13
      vertex 36.7794 -44.4586 13
    endloop
  endfacet
  facet normal -0 0 1
    outer loop
      vertex 28.6841 -34.6731 13
      vertex 36.7794 -44.4586 13
      vertex 32.8036 -30.8046 13
    endloop
  endfacet
  facet normal 0 0 1
    outer loop
      vertex 36.7794 -44.4586 13
      vertex 28.6841 -34.6731 13
      vertex 30.9172 -48.7177 13
    endloop
  endfacet
  facet normal -0 0 1
    outer loop
      vertex 24.1122 -37.9948 13
      vertex 30.9172 -48.7177 13
      vertex 28.6841 -34.6731 13
    endloop
  endfacet
  facet normal 0 0 1
    outer loop
      vertex 30.9172 -48.7177 13
      vertex 24.1122 -37.9948 13
      vertex 24.5675 -52.2085 13
    endloop
  endfacet
  facet normal -0 0 1
    outer loop
      vertex 19.1601 -40.7172 13
      vertex 24.5675 -52.2085 13
      vertex 24.1122 -37.9948 13
    endloop
  endfacet
  facet normal 0 0 1
    outer loop
      vertex 19.1601 -40.7172 13
      vertex 17.8303 -54.876 13
      vertex 24.5675 -52.2085 13
    endloop
  endfacet
  facet normal -0 0 1
    outer loop
      vertex 13.9058 -42.7975 13
      vertex 17.8303 -54.876 13
      vertex 19.1601 -40.7172 13
    endloop
  endfacet
  facet normal 0 0 1
    outer loop
      vertex 13.9058 -42.7975 13
      vertex 10.8119 -56.678 13
      vertex 17.8303 -54.876 13
    endloop
  endfacet
  facet normal -0 0 1
    outer loop
      vertex 8.43216 -44.2029 13
      vertex 10.8119 -56.678 13
      vertex 13.9058 -42.7975 13
    endloop
  endfacet
  facet normal 0 0 1
    outer loop
      vertex 8.43216 -44.2029 13
      vertex 3.62301 -57.5861 13
      vertex 10.8119 -56.678 13
    endloop
  endfacet
  facet normal -0 0 1
    outer loop
      vertex 2.82557 -44.9112 13
      vertex 3.62301 -57.5861 13
      vertex 8.43216 -44.2029 13
    endloop
  endfacet
  facet normal -0 0 1
    outer loop
      vertex -2.82557 -44.9112 13
      vertex 3.62301 -57.5861 13
      vertex 2.82557 -44.9112 13
    endloop
  endfacet
  facet normal 0 0 1
    outer loop
      vertex -2.82557 -44.9112 13
      vertex -3.62301 -57.5861 13
      vertex 3.62301 -57.5861 13
    endloop
  endfacet
  facet normal 0 0 1
    outer loop
      vertex -8.43216 -44.2029 13
      vertex -3.62301 -57.5861 13
      vertex -2.82557 -44.9112 13
    endloop
  endfacet
  facet normal 0 0 1
    outer loop
      vertex -8.43216 -44.2029 13
      vertex -10.8119 -56.678 13
      vertex -3.62301 -57.5861 13
    endloop
  endfacet
  facet normal 0 0 1
    outer loop
      vertex -13.9058 -42.7975 13
      vertex -10.8119 -56.678 13
      vertex -8.43216 -44.2029 13
    endloop
  endfacet
  facet normal 0 0 1
    outer loop
      vertex -13.9058 -42.7975 13
      vertex -17.8303 -54.876 13
      vertex -10.8119 -56.678 13
    endloop
  endfacet
  facet normal 0 0 1
    outer loop
      vertex -19.1601 -40.7172 13
      vertex -17.8303 -54.876 13
      vertex -13.9058 -42.7975 13
    endloop
  endfacet
  facet normal 0 0 1
    outer loop
      vertex -24.5675 -52.2085 13
      vertex -19.1601 -40.7172 13
      vertex -24.1122 -37.9948 13
    endloop
  endfacet
  facet normal 0 0 1
    outer loop
      vertex -19.1601 -40.7172 13
      vertex -24.5675 -52.2085 13
      vertex -17.8303 -54.876 13
    endloop
  endfacet
  facet normal 0 0 1
    outer loop
      vertex -30.9172 -48.7177 13
      vertex -24.1122 -37.9948 13
      vertex -28.6841 -34.6731 13
    endloop
  endfacet
  facet normal 0 0 1
    outer loop
      vertex -24.1122 -37.9948 13
      vertex -30.9172 -48.7177 13
      vertex -24.5675 -52.2085 13
    endloop
  endfacet
  facet normal 0 0 1
    outer loop
      vertex -36.7794 -44.4586 13
      vertex -28.6841 -34.6731 13
      vertex -32.8036 -30.8046 13
    endloop
  endfacet
  facet normal 0 0 1
    outer loop
      vertex -42.0615 -39.4984 13
      vertex -32.8036 -30.8046 13
      vertex -36.4058 -26.4503 13
    endloop
  endfacet
  facet normal 0 0 1
    outer loop
      vertex -28.6841 -34.6731 13
      vertex -36.7794 -44.4586 13
      vertex -30.9172 -48.7177 13
    endloop
  endfacet
  facet normal 0 0 1
    outer loop
      vertex -46.6803 -33.9152 13
      vertex -36.4058 -26.4503 13
      vertex -39.4338 -21.6789 13
    endloop
  endfacet
  facet normal 0 0 1
    outer loop
      vertex -50.5629 -27.7972 13
      vertex -39.4338 -21.6789 13
      vertex -41.8399 -16.5656 13
    endloop
  endfacet
  facet normal 0 0 1
    outer loop
      vertex -32.8036 -30.8046 13
      vertex -42.0615 -39.4984 13
      vertex -36.7794 -44.4586 13
    endloop
  endfacet
  facet normal 0 0 1
    outer loop
      vertex -53.6481 -21.2408 13
      vertex -41.8399 -16.5656 13
      vertex -43.5862 -11.191 13
    endloop
  endfacet
  facet normal 0 0 1
    outer loop
      vertex -55.8872 -14.3494 13
      vertex -43.5862 -11.191 13
      vertex -44.6452 -5.63999 13
    endloop
  endfacet
  facet normal 0 0 1
    outer loop
      vertex -36.4058 -26.4503 13
      vertex -46.6803 -33.9152 13
      vertex -42.0615 -39.4984 13
    endloop
  endfacet
  facet normal 0 0 1
    outer loop
      vertex -57.245 -7.23173 13
      vertex -44.6452 -5.63999 13
      vertex -45 0 13
    endloop
  endfacet
  facet normal -0 0 1
    outer loop
      vertex -55.8872 14.3494 13
      vertex -43.5862 11.191 13
      vertex -53.6481 21.2408 13
    endloop
  endfacet
  facet normal 0 0 1
    outer loop
      vertex -43.5862 11.191 13
      vertex -55.8872 14.3494 13
      vertex -44.6452 5.63999 13
    endloop
  endfacet
  facet normal 0 0 1
    outer loop
      vertex -39.4338 -21.6789 13
      vertex -50.5629 -27.7972 13
      vertex -46.6803 -33.9152 13
    endloop
  endfacet
  facet normal -0 0 1
    outer loop
      vertex -57.245 7.23173 13
      vertex -44.6452 5.63999 13
      vertex -55.8872 14.3494 13
    endloop
  endfacet
  facet normal 0 0 1
    outer loop
      vertex -41.8399 -16.5656 13
      vertex -53.6481 -21.2408 13
      vertex -50.5629 -27.7972 13
    endloop
  endfacet
  facet normal 0 0 1
    outer loop
      vertex -44.6452 5.63999 13
      vertex -57.245 7.23173 13
      vertex -45 0 13
    endloop
  endfacet
  facet normal 0 0 1
    outer loop
      vertex -43.5862 -11.191 13
      vertex -55.8872 -14.3494 13
      vertex -53.6481 -21.2408 13
    endloop
  endfacet
  facet normal 0 0 1
    outer loop
      vertex -57.7 0 13
      vertex -45 0 13
      vertex -57.245 7.23173 13
    endloop
  endfacet
  facet normal 0 0 1
    outer loop
      vertex -44.6452 -5.63999 13
      vertex -57.245 -7.23173 13
      vertex -55.8872 -14.3494 13
    endloop
  endfacet
  facet normal 0 0 1
    outer loop
      vertex -45 0 13
      vertex -57.7 0 13
      vertex -57.245 -7.23173 13
    endloop
  endfacet
  facet normal 0.998027 -0.062793 -6.03112e-19
    outer loop
      vertex 57.245 -7.23173 13
      vertex 57.7 0 0
      vertex 57.7 0 13
    endloop
  endfacet
  facet normal 0.998027 -0.062793 -6.03112e-19
    outer loop
      vertex 57.7 0 0
      vertex 57.245 -7.23173 13
      vertex 57.245 -7.23173 0
    endloop
  endfacet
  facet normal 0.982286 -0.187386 -2.32037e-18
    outer loop
      vertex 55.8872 -14.3494 13
      vertex 57.245 -7.23173 0
      vertex 57.245 -7.23173 13
    endloop
  endfacet
  facet normal 0.982286 -0.187386 -2.32037e-18
    outer loop
      vertex 57.245 -7.23173 0
      vertex 55.8872 -14.3494 13
      vertex 55.8872 -14.3494 0
    endloop
  endfacet
  facet normal 0 0 -1
    outer loop
      vertex 45 0 0
      vertex 57.7 0 0
      vertex 57.245 -7.23173 0
    endloop
  endfacet
  facet normal 0 0 -1
    outer loop
      vertex 44.6452 -5.63999 0
      vertex 57.245 -7.23173 0
      vertex 55.8872 -14.3494 0
    endloop
  endfacet
  facet normal 0 0 -1
    outer loop
      vertex 57.7 0 0
      vertex 45 0 0
      vertex 57.245 7.23173 0
    endloop
  endfacet
  facet normal 0 0 -1
    outer loop
      vertex 43.5862 -11.191 0
      vertex 55.8872 -14.3494 0
      vertex 53.6481 -21.2408 0
    endloop
  endfacet
  facet normal 0 0 -1
    outer loop
      vertex 44.6452 5.63999 0
      vertex 57.245 7.23173 0
      vertex 45 0 0
    endloop
  endfacet
  facet normal 0 0 -1
    outer loop
      vertex 41.8399 -16.5656 0
      vertex 53.6481 -21.2408 0
      vertex 50.5629 -27.7972 0
    endloop
  endfacet
  facet normal -0 0 -1
    outer loop
      vertex 57.245 7.23173 0
      vertex 44.6452 5.63999 0
      vertex 55.8872 14.3494 0
    endloop
  endfacet
  facet normal 0 0 -1
    outer loop
      vertex 39.4338 -21.6789 0
      vertex 50.5629 -27.7972 0
      vertex 46.6803 -33.9152 0
    endloop
  endfacet
  facet normal 0 0 -1
    outer loop
      vertex 43.5862 11.191 0
      vertex 55.8872 14.3494 0
      vertex 44.6452 5.63999 0
    endloop
  endfacet
  facet normal -0 0 -1
    outer loop
      vertex 55.8872 14.3494 0
      vertex 43.5862 11.191 0
      vertex 53.6481 21.2408 0
    endloop
  endfacet
  facet normal 0 0 -1
    outer loop
      vertex 57.245 -7.23173 0
      vertex 44.6452 -5.63999 0
      vertex 45 0 0
    endloop
  endfacet
  facet normal 0 0 -1
    outer loop
      vertex 55.8872 -14.3494 0
      vertex 43.5862 -11.191 0
      vertex 44.6452 -5.63999 0
    endloop
  endfacet
  facet normal 0 0 -1
    outer loop
      vertex 36.4058 -26.4503 0
      vertex 46.6803 -33.9152 0
      vertex 42.0615 -39.4984 0
    endloop
  endfacet
  facet normal 0 0 -1
    outer loop
      vertex 53.6481 -21.2408 0
      vertex 41.8399 -16.5656 0
      vertex 43.5862 -11.191 0
    endloop
  endfacet
  facet normal 0 0 -1
    outer loop
      vertex 50.5629 -27.7972 0
      vertex 39.4338 -21.6789 0
      vertex 41.8399 -16.5656 0
    endloop
  endfacet
  facet normal 0 0 -1
    outer loop
      vertex 32.8036 -30.8046 0
      vertex 42.0615 -39.4984 0
      vertex 36.7794 -44.4586 0
    endloop
  endfacet
  facet normal 0 0 -1
    outer loop
      vertex 46.6803 -33.9152 0
      vertex 36.4058 -26.4503 0
      vertex 39.4338 -21.6789 0
    endloop
  endfacet
  facet normal 0 0 -1
    outer loop
      vertex 42.0615 -39.4984 0
      vertex 32.8036 -30.8046 0
      vertex 36.4058 -26.4503 0
    endloop
  endfacet
  facet normal 0 0 -1
    outer loop
      vertex 28.6841 -34.6731 0
      vertex 36.7794 -44.4586 0
      vertex 30.9172 -48.7177 0
    endloop
  endfacet
  facet normal 0 0 -1
    outer loop
      vertex 36.7794 -44.4586 0
      vertex 28.6841 -34.6731 0
      vertex 32.8036 -30.8046 0
    endloop
  endfacet
  facet normal 0 0 -1
    outer loop
      vertex 24.1122 -37.9948 0
      vertex 30.9172 -48.7177 0
      vertex 24.5675 -52.2085 0
    endloop
  endfacet
  facet normal 0 0 -1
    outer loop
      vertex 30.9172 -48.7177 0
      vertex 24.1122 -37.9948 0
      vertex 28.6841 -34.6731 0
    endloop
  endfacet
  facet normal 0 0 -1
    outer loop
      vertex 24.5675 -52.2085 0
      vertex 19.1601 -40.7172 0
      vertex 24.1122 -37.9948 0
    endloop
  endfacet
  facet normal 0 0 -1
    outer loop
      vertex 17.8303 -54.876 0
      vertex 19.1601 -40.7172 0
      vertex 24.5675 -52.2085 0
    endloop
  endfacet
  facet normal 0 0 -1
    outer loop
      vertex 17.8303 -54.876 0
      vertex 13.9058 -42.7975 0
      vertex 19.1601 -40.7172 0
    endloop
  endfacet
  facet normal 0 0 -1
    outer loop
      vertex 10.8119 -56.678 0
      vertex 13.9058 -42.7975 0
      vertex 17.8303 -54.876 0
    endloop
  endfacet
  facet normal 0 0 -1
    outer loop
      vertex 10.8119 -56.678 0
      vertex 8.43216 -44.2029 0
      vertex 13.9058 -42.7975 0
    endloop
  endfacet
  facet normal 0 0 -1
    outer loop
      vertex 3.62301 -57.5861 0
      vertex 8.43216 -44.2029 0
      vertex 10.8119 -56.678 0
    endloop
  endfacet
  facet normal 0 0 -1
    outer loop
      vertex 3.62301 -57.5861 0
      vertex 2.82557 -44.9112 0
      vertex 8.43216 -44.2029 0
    endloop
  endfacet
  facet normal 0 0 -1
    outer loop
      vertex 3.62301 -57.5861 0
      vertex -2.82557 -44.9112 0
      vertex 2.82557 -44.9112 0
    endloop
  endfacet
  facet normal 0 0 -1
    outer loop
      vertex -3.62301 -57.5861 0
      vertex -2.82557 -44.9112 0
      vertex 3.62301 -57.5861 0
    endloop
  endfacet
  facet normal 0 0 -1
    outer loop
      vertex -3.62301 -57.5861 0
      vertex -8.43216 -44.2029 0
      vertex -2.82557 -44.9112 0
    endloop
  endfacet
  facet normal 0 0 -1
    outer loop
      vertex -10.8119 -56.678 0
      vertex -8.43216 -44.2029 0
      vertex -3.62301 -57.5861 0
    endloop
  endfacet
  facet normal 0 0 -1
    outer loop
      vertex -10.8119 -56.678 0
      vertex -13.9058 -42.7975 0
      vertex -8.43216 -44.2029 0
    endloop
  endfacet
  facet normal 0 0 -1
    outer loop
      vertex -17.8303 -54.876 0
      vertex -13.9058 -42.7975 0
      vertex -10.8119 -56.678 0
    endloop
  endfacet
  facet normal 0 0 -1
    outer loop
      vertex -17.8303 -54.876 0
      vertex -19.1601 -40.7172 0
      vertex -13.9058 -42.7975 0
    endloop
  endfacet
  facet normal 0 0 -1
    outer loop
      vertex -24.5675 -52.2085 0
      vertex -19.1601 -40.7172 0
      vertex -17.8303 -54.876 0
    endloop
  endfacet
  facet normal -0 0 -1
    outer loop
      vertex -19.1601 -40.7172 0
      vertex -24.5675 -52.2085 0
      vertex -24.1122 -37.9948 0
    endloop
  endfacet
  facet normal 0 0 -1
    outer loop
      vertex -30.9172 -48.7177 0
      vertex -24.1122 -37.9948 0
      vertex -24.5675 -52.2085 0
    endloop
  endfacet
  facet normal -0 0 -1
    outer loop
      vertex -24.1122 -37.9948 0
      vertex -30.9172 -48.7177 0
      vertex -28.6841 -34.6731 0
    endloop
  endfacet
  facet normal 0 0 -1
    outer loop
      vertex -36.7794 -44.4586 0
      vertex -28.6841 -34.6731 0
      vertex -30.9172 -48.7177 0
    endloop
  endfacet
  facet normal -0 0 -1
    outer loop
      vertex -28.6841 -34.6731 0
      vertex -36.7794 -44.4586 0
      vertex -32.8036 -30.8046 0
    endloop
  endfacet
  facet normal 0 0 -1
    outer loop
      vertex -42.0615 -39.4984 0
      vertex -32.8036 -30.8046 0
      vertex -36.7794 -44.4586 0
    endloop
  endfacet
  facet normal -0 0 -1
    outer loop
      vertex -32.8036 -30.8046 0
      vertex -42.0615 -39.4984 0
      vertex -36.4058 -26.4503 0
    endloop
  endfacet
  facet normal 0 0 -1
    outer loop
      vertex -46.6803 -33.9152 0
      vertex -36.4058 -26.4503 0
      vertex -42.0615 -39.4984 0
    endloop
  endfacet
  facet normal -0 0 -1
    outer loop
      vertex -36.4058 -26.4503 0
      vertex -46.6803 -33.9152 0
      vertex -39.4338 -21.6789 0
    endloop
  endfacet
  facet normal 0 0 -1
    outer loop
      vertex -50.5629 -27.7972 0
      vertex -39.4338 -21.6789 0
      vertex -46.6803 -33.9152 0
    endloop
  endfacet
  facet normal -0 0 -1
    outer loop
      vertex -39.4338 -21.6789 0
      vertex -50.5629 -27.7972 0
      vertex -41.8399 -16.5656 0
    endloop
  endfacet
  facet normal -0 0 -1
    outer loop
      vertex -41.8399 -16.5656 0
      vertex -53.6481 -21.2408 0
      vertex -43.5862 -11.191 0
    endloop
  endfacet
  facet normal 0 0 -1
    outer loop
      vertex -53.6481 -21.2408 0
      vertex -41.8399 -16.5656 0
      vertex -50.5629 -27.7972 0
    endloop
  endfacet
  facet normal 0 0 -1
    outer loop
      vertex 41.8399 16.5656 0
      vertex 53.6481 21.2408 0
      vertex 43.5862 11.191 0
    endloop
  endfacet
  facet normal -0 0 -1
    outer loop
      vertex 53.6481 21.2408 0
      vertex 41.8399 16.5656 0
      vertex 50.5629 27.7972 0
    endloop
  endfacet
  facet normal 0 0 -1
    outer loop
      vertex 39.4338 21.6789 0
      vertex 50.5629 27.7972 0
      vertex 41.8399 16.5656 0
    endloop
  endfacet
  facet normal -0 0 -1
    outer loop
      vertex 50.5629 27.7972 0
      vertex 39.4338 21.6789 0
      vertex 46.6803 33.9152 0
    endloop
  endfacet
  facet normal 0 0 -1
    outer loop
      vertex 36.4058 26.4503 0
      vertex 46.6803 33.9152 0
      vertex 39.4338 21.6789 0
    endloop
  endfacet
  facet normal -0 0 -1
    outer loop
      vertex 46.6803 33.9152 0
      vertex 36.4058 26.4503 0
      vertex 42.0615 39.4984 0
    endloop
  endfacet
  facet normal 0 0 -1
    outer loop
      vertex 32.8036 30.8046 0
      vertex 42.0615 39.4984 0
      vertex 36.4058 26.4503 0
    endloop
  endfacet
  facet normal -0 0 -1
    outer loop
      vertex 42.0615 39.4984 0
      vertex 32.8036 30.8046 0
      vertex 36.7794 44.4586 0
    endloop
  endfacet
  facet normal 0 0 -1
    outer loop
      vertex 28.6841 34.6731 0
      vertex 36.7794 44.4586 0
      vertex 32.8036 30.8046 0
    endloop
  endfacet
  facet normal -0 0 -1
    outer loop
      vertex 36.7794 44.4586 0
      vertex 28.6841 34.6731 0
      vertex 30.9172 48.7177 0
    endloop
  endfacet
  facet normal 0 0 -1
    outer loop
      vertex 24.1122 37.9948 0
      vertex 30.9172 48.7177 0
      vertex 28.6841 34.6731 0
    endloop
  endfacet
  facet normal -0 0 -1
    outer loop
      vertex 30.9172 48.7177 0
      vertex 24.1122 37.9948 0
      vertex 24.5675 52.2085 0
    endloop
  endfacet
  facet normal 0 0 -1
    outer loop
      vertex 19.1601 40.7172 0
      vertex 24.5675 52.2085 0
      vertex 24.1122 37.9948 0
    endloop
  endfacet
  facet normal 0 0 -1
    outer loop
      vertex 19.1601 40.7172 0
      vertex 17.8303 54.876 0
      vertex 24.5675 52.2085 0
    endloop
  endfacet
  facet normal 0 0 -1
    outer loop
      vertex 13.9058 42.7975 0
      vertex 17.8303 54.876 0
      vertex 19.1601 40.7172 0
    endloop
  endfacet
  facet normal 0 0 -1
    outer loop
      vertex 13.9058 42.7975 0
      vertex 10.8119 56.678 0
      vertex 17.8303 54.876 0
    endloop
  endfacet
  facet normal 0 0 -1
    outer loop
      vertex 8.43216 44.2029 0
      vertex 10.8119 56.678 0
      vertex 13.9058 42.7975 0
    endloop
  endfacet
  facet normal 0 0 -1
    outer loop
      vertex 8.43216 44.2029 0
      vertex 3.62301 57.5861 0
      vertex 10.8119 56.678 0
    endloop
  endfacet
  facet normal 0 0 -1
    outer loop
      vertex 2.82557 44.9112 0
      vertex 3.62301 57.5861 0
      vertex 8.43216 44.2029 0
    endloop
  endfacet
  facet normal 0 0 -1
    outer loop
      vertex -2.82557 44.9112 0
      vertex 3.62301 57.5861 0
      vertex 2.82557 44.9112 0
    endloop
  endfacet
  facet normal 0 0 -1
    outer loop
      vertex -2.82557 44.9112 0
      vertex -3.62301 57.5861 0
      vertex 3.62301 57.5861 0
    endloop
  endfacet
  facet normal 0 0 -1
    outer loop
      vertex -8.43216 44.2029 0
      vertex -3.62301 57.5861 0
      vertex -2.82557 44.9112 0
    endloop
  endfacet
  facet normal 0 0 -1
    outer loop
      vertex -8.43216 44.2029 0
      vertex -10.8119 56.678 0
      vertex -3.62301 57.5861 0
    endloop
  endfacet
  facet normal 0 0 -1
    outer loop
      vertex -13.9058 42.7975 0
      vertex -10.8119 56.678 0
      vertex -8.43216 44.2029 0
    endloop
  endfacet
  facet normal 0 0 -1
    outer loop
      vertex -13.9058 42.7975 0
      vertex -17.8303 54.876 0
      vertex -10.8119 56.678 0
    endloop
  endfacet
  facet normal 0 0 -1
    outer loop
      vertex -19.1601 40.7172 0
      vertex -17.8303 54.876 0
      vertex -13.9058 42.7975 0
    endloop
  endfacet
  facet normal 0 0 -1
    outer loop
      vertex -24.5675 52.2085 0
      vertex -19.1601 40.7172 0
      vertex -24.1122 37.9948 0
    endloop
  endfacet
  facet normal 0 0 -1
    outer loop
      vertex -19.1601 40.7172 0
      vertex -24.5675 52.2085 0
      vertex -17.8303 54.876 0
    endloop
  endfacet
  facet normal 0 0 -1
    outer loop
      vertex -30.9172 48.7177 0
      vertex -24.1122 37.9948 0
      vertex -28.6841 34.6731 0
    endloop
  endfacet
  facet normal 0 0 -1
    outer loop
      vertex -24.1122 37.9948 0
      vertex -30.9172 48.7177 0
      vertex -24.5675 52.2085 0
    endloop
  endfacet
  facet normal 0 0 -1
    outer loop
      vertex -36.7794 44.4586 0
      vertex -28.6841 34.6731 0
      vertex -32.8036 30.8046 0
    endloop
  endfacet
  facet normal 0 0 -1
    outer loop
      vertex -42.0615 39.4984 0
      vertex -32.8036 30.8046 0
      vertex -36.4058 26.4503 0
    endloop
  endfacet
  facet normal 0 0 -1
    outer loop
      vertex -28.6841 34.6731 0
      vertex -36.7794 44.4586 0
      vertex -30.9172 48.7177 0
    endloop
  endfacet
  facet normal 0 0 -1
    outer loop
      vertex -46.6803 33.9152 0
      vertex -36.4058 26.4503 0
      vertex -39.4338 21.6789 0
    endloop
  endfacet
  facet normal 0 0 -1
    outer loop
      vertex -50.5629 27.7972 0
      vertex -39.4338 21.6789 0
      vertex -41.8399 16.5656 0
    endloop
  endfacet
  facet normal 0 0 -1
    outer loop
      vertex -32.8036 30.8046 0
      vertex -42.0615 39.4984 0
      vertex -36.7794 44.4586 0
    endloop
  endfacet
  facet normal 0 0 -1
    outer loop
      vertex -53.6481 21.2408 0
      vertex -41.8399 16.5656 0
      vertex -43.5862 11.191 0
    endloop
  endfacet
  facet normal 0 0 -1
    outer loop
      vertex -55.8872 14.3494 0
      vertex -43.5862 11.191 0
      vertex -44.6452 5.63999 0
    endloop
  endfacet
  facet normal 0 0 -1
    outer loop
      vertex -36.4058 26.4503 0
      vertex -46.6803 33.9152 0
      vertex -42.0615 39.4984 0
    endloop
  endfacet
  facet normal 0 0 -1
    outer loop
      vertex -57.245 7.23173 0
      vertex -44.6452 5.63999 0
      vertex -45 0 0
    endloop
  endfacet
  facet normal 0 0 -1
    outer loop
      vertex -55.8872 -14.3494 0
      vertex -43.5862 -11.191 0
      vertex -53.6481 -21.2408 0
    endloop
  endfacet
  facet normal -0 0 -1
    outer loop
      vertex -43.5862 -11.191 0
      vertex -55.8872 -14.3494 0
      vertex -44.6452 -5.63999 0
    endloop
  endfacet
  facet normal 0 0 -1
    outer loop
      vertex -39.4338 21.6789 0
      vertex -50.5629 27.7972 0
      vertex -46.6803 33.9152 0
    endloop
  endfacet
  facet normal 0 0 -1
    outer loop
      vertex -57.245 -7.23173 0
      vertex -44.6452 -5.63999 0
      vertex -55.8872 -14.3494 0
    endloop
  endfacet
  facet normal 0 0 -1
    outer loop
      vertex -41.8399 16.5656 0
      vertex -53.6481 21.2408 0
      vertex -50.5629 27.7972 0
    endloop
  endfacet
  facet normal -0 0 -1
    outer loop
      vertex -44.6452 -5.63999 0
      vertex -57.245 -7.23173 0
      vertex -45 0 0
    endloop
  endfacet
  facet normal 0 0 -1
    outer loop
      vertex -43.5862 11.191 0
      vertex -55.8872 14.3494 0
      vertex -53.6481 21.2408 0
    endloop
  endfacet
  facet normal 0 0 -1
    outer loop
      vertex -57.7 0 0
      vertex -45 0 0
      vertex -57.245 -7.23173 0
    endloop
  endfacet
  facet normal 0 0 -1
    outer loop
      vertex -44.6452 5.63999 0
      vertex -57.245 7.23173 0
      vertex -55.8872 14.3494 0
    endloop
  endfacet
  facet normal 0 0 -1
    outer loop
      vertex -45 0 0
      vertex -57.7 0 0
      vertex -57.245 7.23173 0
    endloop
  endfacet
  facet normal 0.368131 -0.929774 0
    outer loop
      vertex 17.8303 -54.876 0
      vertex 24.5675 -52.2085 13
      vertex 17.8303 -54.876 13
    endloop
  endfacet
  facet normal 0.368131 -0.929774 0
    outer loop
      vertex 24.5675 -52.2085 13
      vertex 17.8303 -54.876 0
      vertex 24.5675 -52.2085 0
    endloop
  endfacet
  facet normal -0.770515 0.637422 -1.26147e-17
    outer loop
      vertex -46.6803 33.9152 0
      vertex -42.0615 39.4984 13
      vertex -42.0615 39.4984 0
    endloop
  endfacet
  facet normal -0.770515 0.637422 -1.26147e-17
    outer loop
      vertex -42.0615 39.4984 13
      vertex -46.6803 33.9152 0
      vertex -46.6803 33.9152 13
    endloop
  endfacet
  facet normal -0.587782 0.809019 0
    outer loop
      vertex -30.9172 48.7177 0
      vertex -36.7794 44.4586 13
      vertex -30.9172 48.7177 13
    endloop
  endfacet
  facet normal -0.587782 0.809019 0
    outer loop
      vertex -36.7794 44.4586 13
      vertex -30.9172 48.7177 0
      vertex -36.7794 44.4586 0
    endloop
  endfacet
  facet normal -0.248687 0.968584 0
    outer loop
      vertex -10.8119 56.678 0
      vertex -17.8303 54.876 13
      vertex -10.8119 56.678 13
    endloop
  endfacet
  facet normal -0.248687 0.968584 0
    outer loop
      vertex -17.8303 54.876 13
      vertex -10.8119 56.678 0
      vertex -17.8303 54.876 0
    endloop
  endfacet
  facet normal 0.481756 -0.876305 0
    outer loop
      vertex 24.5675 -52.2085 0
      vertex 30.9172 -48.7177 13
      vertex 24.5675 -52.2085 13
    endloop
  endfacet
  facet normal 0.481756 -0.876305 0
    outer loop
      vertex 30.9172 -48.7177 13
      vertex 24.5675 -52.2085 0
      vertex 30.9172 -48.7177 0
    endloop
  endfacet
  facet normal 0.904827 -0.425778 -7.07161e-18
    outer loop
      vertex 50.5629 -27.7972 13
      vertex 53.6481 -21.2408 0
      vertex 53.6481 -21.2408 13
    endloop
  endfacet
  facet normal 0.904827 -0.425778 -7.07161e-18
    outer loop
      vertex 53.6481 -21.2408 0
      vertex 50.5629 -27.7972 13
      vertex 50.5629 -27.7972 0
    endloop
  endfacet
  facet normal -0.368131 -0.929774 0
    outer loop
      vertex -24.5675 -52.2085 0
      vertex -17.8303 -54.876 13
      vertex -24.5675 -52.2085 13
    endloop
  endfacet
  facet normal -0.368131 -0.929774 -0
    outer loop
      vertex -17.8303 -54.876 13
      vertex -24.5675 -52.2085 0
      vertex -17.8303 -54.876 0
    endloop
  endfacet
  facet normal -0.770515 -0.637422 1.26147e-17
    outer loop
      vertex -42.0615 -39.4984 0
      vertex -46.6803 -33.9152 13
      vertex -46.6803 -33.9152 0
    endloop
  endfacet
  facet normal -0.770515 -0.637422 1.26147e-17
    outer loop
      vertex -46.6803 -33.9152 13
      vertex -42.0615 -39.4984 0
      vertex -42.0615 -39.4984 13
    endloop
  endfacet
  facet normal -0.951059 -0.309011 7.6517e-18
    outer loop
      vertex -53.6481 -21.2408 0
      vertex -55.8872 -14.3494 13
      vertex -55.8872 -14.3494 0
    endloop
  endfacet
  facet normal -0.951059 -0.309011 7.6517e-18
    outer loop
      vertex -55.8872 -14.3494 13
      vertex -53.6481 -21.2408 0
      vertex -53.6481 -21.2408 13
    endloop
  endfacet
  facet normal 0.248687 -0.968584 0
    outer loop
      vertex 10.8119 -56.678 0
      vertex 17.8303 -54.876 13
      vertex 10.8119 -56.678 13
    endloop
  endfacet
  facet normal 0.248687 -0.968584 0
    outer loop
      vertex 17.8303 -54.876 13
      vertex 10.8119 -56.678 0
      vertex 17.8303 -54.876 0
    endloop
  endfacet
  facet normal 0.684545 -0.72897 0
    outer loop
      vertex 36.7794 -44.4586 0
      vertex 42.0615 -39.4984 13
      vertex 36.7794 -44.4586 13
    endloop
  endfacet
  facet normal 0.684545 -0.72897 0
    outer loop
      vertex 42.0615 -39.4984 13
      vertex 36.7794 -44.4586 0
      vertex 42.0615 -39.4984 0
    endloop
  endfacet
  facet normal 0.770515 -0.637422 -1.26147e-17
    outer loop
      vertex 42.0615 -39.4984 13
      vertex 46.6803 -33.9152 0
      vertex 46.6803 -33.9152 13
    endloop
  endfacet
  facet normal 0.770515 -0.637422 -1.26147e-17
    outer loop
      vertex 46.6803 -33.9152 0
      vertex 42.0615 -39.4984 13
      vertex 42.0615 -39.4984 0
    endloop
  endfacet
  facet normal 0.587782 -0.809019 0
    outer loop
      vertex 30.9172 -48.7177 0
      vertex 36.7794 -44.4586 13
      vertex 30.9172 -48.7177 13
    endloop
  endfacet
  facet normal 0.587782 -0.809019 0
    outer loop
      vertex 36.7794 -44.4586 13
      vertex 30.9172 -48.7177 0
      vertex 36.7794 -44.4586 0
    endloop
  endfacet
  facet normal 0.951059 -0.309011 -7.6517e-18
    outer loop
      vertex 53.6481 -21.2408 13
      vertex 55.8872 -14.3494 0
      vertex 55.8872 -14.3494 13
    endloop
  endfacet
  facet normal 0.951059 -0.309011 -7.6517e-18
    outer loop
      vertex 55.8872 -14.3494 0
      vertex 53.6481 -21.2408 13
      vertex 53.6481 -21.2408 0
    endloop
  endfacet
  facet normal -0.125324 -0.992116 0
    outer loop
      vertex -10.8119 -56.678 0
      vertex -3.62301 -57.5861 13
      vertex -10.8119 -56.678 13
    endloop
  endfacet
  facet normal -0.125324 -0.992116 -0
    outer loop
      vertex -3.62301 -57.5861 13
      vertex -10.8119 -56.678 0
      vertex -3.62301 -57.5861 0
    endloop
  endfacet
  facet normal -0.248687 -0.968584 0
    outer loop
      vertex -17.8303 -54.876 0
      vertex -10.8119 -56.678 13
      vertex -17.8303 -54.876 13
    endloop
  endfacet
  facet normal -0.248687 -0.968584 -0
    outer loop
      vertex -10.8119 -56.678 13
      vertex -17.8303 -54.876 0
      vertex -10.8119 -56.678 0
    endloop
  endfacet
  facet normal -0.684545 -0.72897 0
    outer loop
      vertex -42.0615 -39.4984 0
      vertex -36.7794 -44.4586 13
      vertex -42.0615 -39.4984 13
    endloop
  endfacet
  facet normal -0.684545 -0.72897 -0
    outer loop
      vertex -36.7794 -44.4586 13
      vertex -42.0615 -39.4984 0
      vertex -36.7794 -44.4586 0
    endloop
  endfacet
  facet normal -0.982286 -0.187386 2.32037e-18
    outer loop
      vertex -55.8872 -14.3494 0
      vertex -57.245 -7.23173 13
      vertex -57.245 -7.23173 0
    endloop
  endfacet
  facet normal -0.982286 -0.187386 2.32037e-18
    outer loop
      vertex -57.245 -7.23173 13
      vertex -55.8872 -14.3494 0
      vertex -55.8872 -14.3494 13
    endloop
  endfacet
  facet normal -0.998027 -0.062793 6.03112e-19
    outer loop
      vertex -57.245 -7.23173 0
      vertex -57.7 0 13
      vertex -57.7 0 0
    endloop
  endfacet
  facet normal -0.998027 -0.062793 6.03112e-19
    outer loop
      vertex -57.7 0 13
      vertex -57.245 -7.23173 0
      vertex -57.245 -7.23173 13
    endloop
  endfacet
  facet normal -0.587782 -0.809019 0
    outer loop
      vertex -36.7794 -44.4586 0
      vertex -30.9172 -48.7177 13
      vertex -36.7794 -44.4586 13
    endloop
  endfacet
  facet normal -0.587782 -0.809019 -0
    outer loop
      vertex -30.9172 -48.7177 13
      vertex -36.7794 -44.4586 0
      vertex -30.9172 -48.7177 0
    endloop
  endfacet
  facet normal -0.481756 -0.876305 0
    outer loop
      vertex -30.9172 -48.7177 0
      vertex -24.5675 -52.2085 13
      vertex -30.9172 -48.7177 13
    endloop
  endfacet
  facet normal -0.481756 -0.876305 -0
    outer loop
      vertex -24.5675 -52.2085 13
      vertex -30.9172 -48.7177 0
      vertex -24.5675 -52.2085 0
    endloop
  endfacet
  facet normal -0.844328 -0.535827 -4.82492e-18
    outer loop
      vertex -46.6803 -33.9152 0
      vertex -50.5629 -27.7972 13
      vertex -50.5629 -27.7972 0
    endloop
  endfacet
  facet normal -0.844328 -0.535827 -4.82492e-18
    outer loop
      vertex -50.5629 -27.7972 13
      vertex -46.6803 -33.9152 0
      vertex -46.6803 -33.9152 13
    endloop
  endfacet
  facet normal -0.904827 -0.425778 7.07161e-18
    outer loop
      vertex -50.5629 -27.7972 0
      vertex -53.6481 -21.2408 13
      vertex -53.6481 -21.2408 0
    endloop
  endfacet
  facet normal -0.904827 -0.425778 7.07161e-18
    outer loop
      vertex -53.6481 -21.2408 13
      vertex -50.5629 -27.7972 0
      vertex -50.5629 -27.7972 13
    endloop
  endfacet
  facet normal 0.951057 -0.309015 4.45101e-18
    outer loop
      vertex -43.5862 11.191 13
      vertex -41.8399 16.5656 0
      vertex -41.8399 16.5656 13
    endloop
  endfacet
  facet normal 0.951057 -0.309015 4.45101e-18
    outer loop
      vertex -41.8399 16.5656 0
      vertex -43.5862 11.191 13
      vertex -43.5862 11.191 0
    endloop
  endfacet
  facet normal -0.84433 -0.535824 7.79233e-19
    outer loop
      vertex 39.4338 21.6789 0
      vertex 36.4058 26.4503 13
      vertex 36.4058 26.4503 0
    endloop
  endfacet
  facet normal -0.84433 -0.535824 7.79233e-19
    outer loop
      vertex 36.4058 26.4503 13
      vertex 39.4338 21.6789 0
      vertex 39.4338 21.6789 13
    endloop
  endfacet
  facet normal -0.368121 -0.929778 0
    outer loop
      vertex 13.9058 42.7975 0
      vertex 19.1601 40.7172 13
      vertex 13.9058 42.7975 13
    endloop
  endfacet
  facet normal -0.368121 -0.929778 -0
    outer loop
      vertex 19.1601 40.7172 13
      vertex 13.9058 42.7975 0
      vertex 19.1601 40.7172 0
    endloop
  endfacet
  facet normal 0.368121 -0.929778 0
    outer loop
      vertex -19.1601 40.7172 0
      vertex -13.9058 42.7975 13
      vertex -19.1601 40.7172 13
    endloop
  endfacet
  facet normal 0.368121 -0.929778 0
    outer loop
      vertex -13.9058 42.7975 13
      vertex -19.1601 40.7172 0
      vertex -13.9058 42.7975 0
    endloop
  endfacet
  facet normal 0.90483 -0.425774 4.75803e-18
    outer loop
      vertex -41.8399 16.5656 13
      vertex -39.4338 21.6789 0
      vertex -39.4338 21.6789 13
    endloop
  endfacet
  facet normal 0.90483 -0.425774 4.75803e-18
    outer loop
      vertex -39.4338 21.6789 0
      vertex -41.8399 16.5656 13
      vertex -41.8399 16.5656 0
    endloop
  endfacet
  facet normal -0.982284 0.187396 2.40263e-18
    outer loop
      vertex 43.5862 -11.191 0
      vertex 44.6452 -5.63999 13
      vertex 44.6452 -5.63999 0
    endloop
  endfacet
  facet normal -0.982284 0.187396 2.40263e-18
    outer loop
      vertex 44.6452 -5.63999 13
      vertex 43.5862 -11.191 0
      vertex 43.5862 -11.191 13
    endloop
  endfacet
  facet normal -0.982284 -0.187396 -2.40263e-18
    outer loop
      vertex 44.6452 5.63999 0
      vertex 43.5862 11.191 13
      vertex 43.5862 11.191 0
    endloop
  endfacet
  facet normal -0.982284 -0.187396 -2.40263e-18
    outer loop
      vertex 43.5862 11.191 13
      vertex 44.6452 5.63999 0
      vertex 44.6452 5.63999 13
    endloop
  endfacet
  facet normal 0 -1 0
    outer loop
      vertex -2.82557 44.9112 0
      vertex 2.82557 44.9112 13
      vertex -2.82557 44.9112 13
    endloop
  endfacet
  facet normal 0 -1 -0
    outer loop
      vertex 2.82557 44.9112 13
      vertex -2.82557 44.9112 0
      vertex 2.82557 44.9112 0
    endloop
  endfacet
  facet normal -0.587788 -0.809015 0
    outer loop
      vertex 24.1122 37.9948 0
      vertex 28.6841 34.6731 13
      vertex 24.1122 37.9948 13
    endloop
  endfacet
  facet normal -0.587788 -0.809015 -0
    outer loop
      vertex 28.6841 34.6731 13
      vertex 24.1122 37.9948 0
      vertex 28.6841 34.6731 0
    endloop
  endfacet
  facet normal 0.982284 -0.187396 2.40263e-18
    outer loop
      vertex -44.6452 5.63999 13
      vertex -43.5862 11.191 0
      vertex -43.5862 11.191 13
    endloop
  endfacet
  facet normal 0.982284 -0.187396 2.40263e-18
    outer loop
      vertex -43.5862 11.191 0
      vertex -44.6452 5.63999 13
      vertex -44.6452 5.63999 0
    endloop
  endfacet
  facet normal 0.770512 -0.637425 -5.78515e-18
    outer loop
      vertex -36.4058 26.4503 13
      vertex -32.8036 30.8046 0
      vertex -32.8036 30.8046 13
    endloop
  endfacet
  facet normal 0.770512 -0.637425 -5.78515e-18
    outer loop
      vertex -32.8036 30.8046 0
      vertex -36.4058 26.4503 13
      vertex -36.4058 26.4503 0
    endloop
  endfacet
  facet normal 0.248691 -0.968583 0
    outer loop
      vertex -13.9058 42.7975 0
      vertex -8.43216 44.2029 13
      vertex -13.9058 42.7975 13
    endloop
  endfacet
  facet normal 0.248691 -0.968583 0
    outer loop
      vertex -8.43216 44.2029 13
      vertex -13.9058 42.7975 0
      vertex -8.43216 44.2029 0
    endloop
  endfacet
  facet normal 0.68455 -0.728966 0
    outer loop
      vertex -32.8036 30.8046 0
      vertex -28.6841 34.6731 13
      vertex -32.8036 30.8046 13
    endloop
  endfacet
  facet normal 0.68455 -0.728966 0
    outer loop
      vertex -28.6841 34.6731 13
      vertex -32.8036 30.8046 0
      vertex -28.6841 34.6731 0
    endloop
  endfacet
  facet normal -0.998027 -0.0627838 -6.5526e-19
    outer loop
      vertex 45 0 0
      vertex 44.6452 5.63999 13
      vertex 44.6452 5.63999 0
    endloop
  endfacet
  facet normal -0.998027 -0.0627838 -6.5526e-19
    outer loop
      vertex 44.6452 5.63999 13
      vertex 45 0 0
      vertex 45 0 13
    endloop
  endfacet
  facet normal -0.951057 0.309015 4.45101e-18
    outer loop
      vertex 41.8399 -16.5656 0
      vertex 43.5862 -11.191 13
      vertex 43.5862 -11.191 0
    endloop
  endfacet
  facet normal -0.951057 0.309015 4.45101e-18
    outer loop
      vertex 43.5862 -11.191 13
      vertex 41.8399 -16.5656 0
      vertex 41.8399 -16.5656 13
    endloop
  endfacet
  facet normal -0.587788 0.809015 0
    outer loop
      vertex 28.6841 -34.6731 0
      vertex 24.1122 -37.9948 13
      vertex 28.6841 -34.6731 13
    endloop
  endfacet
  facet normal -0.587788 0.809015 0
    outer loop
      vertex 24.1122 -37.9948 13
      vertex 28.6841 -34.6731 0
      vertex 24.1122 -37.9948 0
    endloop
  endfacet
  facet normal -0.68455 -0.728966 0
    outer loop
      vertex 28.6841 34.6731 0
      vertex 32.8036 30.8046 13
      vertex 28.6841 34.6731 13
    endloop
  endfacet
  facet normal -0.68455 -0.728966 -0
    outer loop
      vertex 32.8036 30.8046 13
      vertex 28.6841 34.6731 0
      vertex 32.8036 30.8046 0
    endloop
  endfacet
  facet normal -0.770512 -0.637425 5.78515e-18
    outer loop
      vertex 36.4058 26.4503 0
      vertex 32.8036 30.8046 13
      vertex 32.8036 30.8046 0
    endloop
  endfacet
  facet normal -0.770512 -0.637425 5.78515e-18
    outer loop
      vertex 32.8036 30.8046 13
      vertex 36.4058 26.4503 0
      vertex 36.4058 26.4503 13
    endloop
  endfacet
  facet normal -0.248691 -0.968583 0
    outer loop
      vertex 8.43216 44.2029 0
      vertex 13.9058 42.7975 13
      vertex 8.43216 44.2029 13
    endloop
  endfacet
  facet normal -0.248691 -0.968583 -0
    outer loop
      vertex 13.9058 42.7975 13
      vertex 8.43216 44.2029 0
      vertex 13.9058 42.7975 0
    endloop
  endfacet
  facet normal -0.125337 -0.992114 0
    outer loop
      vertex 2.82557 44.9112 0
      vertex 8.43216 44.2029 13
      vertex 2.82557 44.9112 13
    endloop
  endfacet
  facet normal -0.125337 -0.992114 -0
    outer loop
      vertex 8.43216 44.2029 13
      vertex 2.82557 44.9112 0
      vertex 8.43216 44.2029 0
    endloop
  endfacet
  facet normal -0.481748 -0.87631 0
    outer loop
      vertex 19.1601 40.7172 0
      vertex 24.1122 37.9948 13
      vertex 19.1601 40.7172 13
    endloop
  endfacet
  facet normal -0.481748 -0.87631 -0
    outer loop
      vertex 24.1122 37.9948 13
      vertex 19.1601 40.7172 0
      vertex 24.1122 37.9948 0
    endloop
  endfacet
  facet normal 0.998027 -0.0627838 6.5526e-19
    outer loop
      vertex -45 0 13
      vertex -44.6452 5.63999 0
      vertex -44.6452 5.63999 13
    endloop
  endfacet
  facet normal 0.998027 -0.0627838 6.5526e-19
    outer loop
      vertex -44.6452 5.63999 0
      vertex -45 0 13
      vertex -45 0 0
    endloop
  endfacet
  facet normal 0.84433 -0.535824 -7.79233e-19
    outer loop
      vertex -39.4338 21.6789 13
      vertex -36.4058 26.4503 0
      vertex -36.4058 26.4503 13
    endloop
  endfacet
  facet normal 0.84433 -0.535824 -7.79233e-19
    outer loop
      vertex -36.4058 26.4503 0
      vertex -39.4338 21.6789 13
      vertex -39.4338 21.6789 0
    endloop
  endfacet
  facet normal 0.125337 -0.992114 0
    outer loop
      vertex -8.43216 44.2029 0
      vertex -2.82557 44.9112 13
      vertex -8.43216 44.2029 13
    endloop
  endfacet
  facet normal 0.125337 -0.992114 0
    outer loop
      vertex -2.82557 44.9112 13
      vertex -8.43216 44.2029 0
      vertex -2.82557 44.9112 0
    endloop
  endfacet
  facet normal 0.587788 -0.809015 0
    outer loop
      vertex -28.6841 34.6731 0
      vertex -24.1122 37.9948 13
      vertex -28.6841 34.6731 13
    endloop
  endfacet
  facet normal 0.587788 -0.809015 0
    outer loop
      vertex -24.1122 37.9948 13
      vertex -28.6841 34.6731 0
      vertex -24.1122 37.9948 0
    endloop
  endfacet
  facet normal 0.481748 -0.87631 0
    outer loop
      vertex -24.1122 37.9948 0
      vertex -19.1601 40.7172 13
      vertex -24.1122 37.9948 13
    endloop
  endfacet
  facet normal 0.481748 -0.87631 0
    outer loop
      vertex -19.1601 40.7172 13
      vertex -24.1122 37.9948 0
      vertex -19.1601 40.7172 0
    endloop
  endfacet
  facet normal -0.84433 0.535824 -7.79233e-19
    outer loop
      vertex 36.4058 -26.4503 0
      vertex 39.4338 -21.6789 13
      vertex 39.4338 -21.6789 0
    endloop
  endfacet
  facet normal -0.84433 0.535824 -7.79233e-19
    outer loop
      vertex 39.4338 -21.6789 13
      vertex 36.4058 -26.4503 0
      vertex 36.4058 -26.4503 13
    endloop
  endfacet
  facet normal 0 1 -0
    outer loop
      vertex 2.82557 -44.9112 0
      vertex -2.82557 -44.9112 13
      vertex 2.82557 -44.9112 13
    endloop
  endfacet
  facet normal 0 1 0
    outer loop
      vertex -2.82557 -44.9112 13
      vertex 2.82557 -44.9112 0
      vertex -2.82557 -44.9112 0
    endloop
  endfacet
  facet normal -0.770512 0.637425 -5.78515e-18
    outer loop
      vertex 32.8036 -30.8046 0
      vertex 36.4058 -26.4503 13
      vertex 36.4058 -26.4503 0
    endloop
  endfacet
  facet normal -0.770512 0.637425 -5.78515e-18
    outer loop
      vertex 36.4058 -26.4503 13
      vertex 32.8036 -30.8046 0
      vertex 32.8036 -30.8046 13
    endloop
  endfacet
  facet normal -0.90483 -0.425774 -4.75803e-18
    outer loop
      vertex 41.8399 16.5656 0
      vertex 39.4338 21.6789 13
      vertex 39.4338 21.6789 0
    endloop
  endfacet
  facet normal -0.90483 -0.425774 -4.75803e-18
    outer loop
      vertex 39.4338 21.6789 13
      vertex 41.8399 16.5656 0
      vertex 41.8399 16.5656 13
    endloop
  endfacet
  facet normal -0.951057 -0.309015 -4.45101e-18
    outer loop
      vertex 43.5862 11.191 0
      vertex 41.8399 16.5656 13
      vertex 41.8399 16.5656 0
    endloop
  endfacet
  facet normal -0.951057 -0.309015 -4.45101e-18
    outer loop
      vertex 41.8399 16.5656 13
      vertex 43.5862 11.191 0
      vertex 43.5862 11.191 13
    endloop
  endfacet
  facet normal -0.998027 0.0627838 6.5526e-19
    outer loop
      vertex 44.6452 -5.63999 0
      vertex 45 0 13
      vertex 45 0 0
    endloop
  endfacet
  facet normal -0.998027 0.0627838 6.5526e-19
    outer loop
      vertex 45 0 13
      vertex 44.6452 -5.63999 0
      vertex 44.6452 -5.63999 13
    endloop
  endfacet
  facet normal -0.90483 0.425774 4.75803e-18
    outer loop
      vertex 39.4338 -21.6789 0
      vertex 41.8399 -16.5656 13
      vertex 41.8399 -16.5656 0
    endloop
  endfacet
  facet normal -0.90483 0.425774 4.75803e-18
    outer loop
      vertex 41.8399 -16.5656 13
      vertex 39.4338 -21.6789 0
      vertex 39.4338 -21.6789 13
    endloop
  endfacet
  facet normal 0.770512 0.637425 5.78515e-18
    outer loop
      vertex -32.8036 -30.8046 13
      vertex -36.4058 -26.4503 0
      vertex -36.4058 -26.4503 13
    endloop
  endfacet
  facet normal 0.770512 0.637425 5.78515e-18
    outer loop
      vertex -36.4058 -26.4503 0
      vertex -32.8036 -30.8046 13
      vertex -32.8036 -30.8046 0
    endloop
  endfacet
  facet normal 0.90483 0.425774 -4.75803e-18
    outer loop
      vertex -39.4338 -21.6789 13
      vertex -41.8399 -16.5656 0
      vertex -41.8399 -16.5656 13
    endloop
  endfacet
  facet normal 0.90483 0.425774 -4.75803e-18
    outer loop
      vertex -41.8399 -16.5656 0
      vertex -39.4338 -21.6789 13
      vertex -39.4338 -21.6789 0
    endloop
  endfacet
  facet normal -0.125337 0.992114 0
    outer loop
      vertex 8.43216 -44.2029 0
      vertex 2.82557 -44.9112 13
      vertex 8.43216 -44.2029 13
    endloop
  endfacet
  facet normal -0.125337 0.992114 0
    outer loop
      vertex 2.82557 -44.9112 13
      vertex 8.43216 -44.2029 0
      vertex 2.82557 -44.9112 0
    endloop
  endfacet
  facet normal -0.481748 0.87631 0
    outer loop
      vertex 24.1122 -37.9948 0
      vertex 19.1601 -40.7172 13
      vertex 24.1122 -37.9948 13
    endloop
  endfacet
  facet normal -0.481748 0.87631 0
    outer loop
      vertex 19.1601 -40.7172 13
      vertex 24.1122 -37.9948 0
      vertex 19.1601 -40.7172 0
    endloop
  endfacet
  facet normal -0.368121 0.929778 0
    outer loop
      vertex 19.1601 -40.7172 0
      vertex 13.9058 -42.7975 13
      vertex 19.1601 -40.7172 13
    endloop
  endfacet
  facet normal -0.368121 0.929778 0
    outer loop
      vertex 13.9058 -42.7975 13
      vertex 19.1601 -40.7172 0
      vertex 13.9058 -42.7975 0
    endloop
  endfacet
  facet normal -0.68455 0.728966 0
    outer loop
      vertex 32.8036 -30.8046 0
      vertex 28.6841 -34.6731 13
      vertex 32.8036 -30.8046 13
    endloop
  endfacet
  facet normal -0.68455 0.728966 0
    outer loop
      vertex 28.6841 -34.6731 13
      vertex 32.8036 -30.8046 0
      vertex 28.6841 -34.6731 0
    endloop
  endfacet
  facet normal 0.587788 0.809015 -0
    outer loop
      vertex -24.1122 -37.9948 0
      vertex -28.6841 -34.6731 13
      vertex -24.1122 -37.9948 13
    endloop
  endfacet
  facet normal 0.587788 0.809015 0
    outer loop
      vertex -28.6841 -34.6731 13
      vertex -24.1122 -37.9948 0
      vertex -28.6841 -34.6731 0
    endloop
  endfacet
  facet normal 0.368121 0.929778 -0
    outer loop
      vertex -13.9058 -42.7975 0
      vertex -19.1601 -40.7172 13
      vertex -13.9058 -42.7975 13
    endloop
  endfacet
  facet normal 0.368121 0.929778 0
    outer loop
      vertex -19.1601 -40.7172 13
      vertex -13.9058 -42.7975 0
      vertex -19.1601 -40.7172 0
    endloop
  endfacet
  facet normal 0.248691 0.968583 -0
    outer loop
      vertex -8.43216 -44.2029 0
      vertex -13.9058 -42.7975 13
      vertex -8.43216 -44.2029 13
    endloop
  endfacet
  facet normal 0.248691 0.968583 0
    outer loop
      vertex -13.9058 -42.7975 13
      vertex -8.43216 -44.2029 0
      vertex -13.9058 -42.7975 0
    endloop
  endfacet
  facet normal 0.982284 0.187396 -2.40263e-18
    outer loop
      vertex -43.5862 -11.191 13
      vertex -44.6452 -5.63999 0
      vertex -44.6452 -5.63999 13
    endloop
  endfacet
  facet normal 0.982284 0.187396 -2.40263e-18
    outer loop
      vertex -44.6452 -5.63999 0
      vertex -43.5862 -11.191 13
      vertex -43.5862 -11.191 0
    endloop
  endfacet
  facet normal 0.998027 0.0627838 -6.5526e-19
    outer loop
      vertex -44.6452 -5.63999 13
      vertex -45 0 0
      vertex -45 0 13
    endloop
  endfacet
  facet normal 0.998027 0.0627838 -6.5526e-19
    outer loop
      vertex -45 0 0
      vertex -44.6452 -5.63999 13
      vertex -44.6452 -5.63999 0
    endloop
  endfacet
  facet normal 0.84433 0.535824 7.79233e-19
    outer loop
      vertex -36.4058 -26.4503 13
      vertex -39.4338 -21.6789 0
      vertex -39.4338 -21.6789 13
    endloop
  endfacet
  facet normal 0.84433 0.535824 7.79233e-19
    outer loop
      vertex -39.4338 -21.6789 0
      vertex -36.4058 -26.4503 13
      vertex -36.4058 -26.4503 0
    endloop
  endfacet
  facet normal -0.248691 0.968583 0
    outer loop
      vertex 13.9058 -42.7975 0
      vertex 8.43216 -44.2029 13
      vertex 13.9058 -42.7975 13
    endloop
  endfacet
  facet normal -0.248691 0.968583 0
    outer loop
      vertex 8.43216 -44.2029 13
      vertex 13.9058 -42.7975 0
      vertex 8.43216 -44.2029 0
    endloop
  endfacet
  facet normal 0.481748 0.87631 -0
    outer loop
      vertex -19.1601 -40.7172 0
      vertex -24.1122 -37.9948 13
      vertex -19.1601 -40.7172 13
    endloop
  endfacet
  facet normal 0.481748 0.87631 0
    outer loop
      vertex -24.1122 -37.9948 13
      vertex -19.1601 -40.7172 0
      vertex -24.1122 -37.9948 0
    endloop
  endfacet
  facet normal 0.125337 0.992114 -0
    outer loop
      vertex -2.82557 -44.9112 0
      vertex -8.43216 -44.2029 13
      vertex -2.82557 -44.9112 13
    endloop
  endfacet
  facet normal 0.125337 0.992114 0
    outer loop
      vertex -8.43216 -44.2029 13
      vertex -2.82557 -44.9112 0
      vertex -8.43216 -44.2029 0
    endloop
  endfacet
  facet normal 0.951057 0.309015 -4.45101e-18
    outer loop
      vertex -41.8399 -16.5656 13
      vertex -43.5862 -11.191 0
      vertex -43.5862 -11.191 13
    endloop
  endfacet
  facet normal 0.951057 0.309015 -4.45101e-18
    outer loop
      vertex -43.5862 -11.191 0
      vertex -41.8399 -16.5656 13
      vertex -41.8399 -16.5656 0
    endloop
  endfacet
  facet normal 0.68455 0.728966 -0
    outer loop
      vertex -28.6841 -34.6731 0
      vertex -32.8036 -30.8046 13
      vertex -28.6841 -34.6731 13
    endloop
  endfacet
  facet normal 0.68455 0.728966 0
    outer loop
      vertex -32.8036 -30.8046 13
      vertex -28.6841 -34.6731 0
      vertex -32.8036 -30.8046 0
    endloop
  endfacet
endsolid OpenSCAD_Model
