solid OpenSCAD_Model
  facet normal 0.998027 0.0627901 1.1727e-18
    outer loop
      vertex 42.7 0 10
      vertex 42.3633 5.35173 0
      vertex 42.3633 5.35173 10
    endloop
  endfacet
  facet normal 0.998027 0.0627901 1.1727e-18
    outer loop
      vertex 42.3633 5.35173 0
      vertex 42.7 0 10
      vertex 42.7 0 0
    endloop
  endfacet
  facet normal -0.998027 0.0627901 -1.1727e-18
    outer loop
      vertex -42.7 0 0
      vertex -42.3633 5.35173 10
      vertex -42.3633 5.35173 0
    endloop
  endfacet
  facet normal -0.998027 0.0627901 -1.1727e-18
    outer loop
      vertex -42.3633 5.35173 10
      vertex -42.7 0 0
      vertex -42.7 0 10
    endloop
  endfacet
  facet normal 0 1 -0
    outer loop
      vertex 2.68115 42.6157 0
      vertex -2.68115 42.6157 10
      vertex 2.68115 42.6157 10
    endloop
  endfacet
  facet normal 0 1 0
    outer loop
      vertex -2.68115 42.6157 10
      vertex 2.68115 42.6157 0
      vertex -2.68115 42.6157 0
    endloop
  endfacet
  facet normal 0 -1 0
    outer loop
      vertex -2.68115 -42.6157 0
      vertex 2.68115 -42.6157 10
      vertex -2.68115 -42.6157 10
    endloop
  endfacet
  facet normal 0 -1 -0
    outer loop
      vertex 2.68115 -42.6157 10
      vertex -2.68115 -42.6157 0
      vertex 2.68115 -42.6157 0
    endloop
  endfacet
  facet normal 0.684538 0.728977 -0
    outer loop
      vertex 31.127 29.2302 0
      vertex 27.218 32.9009 10
      vertex 31.127 29.2302 10
    endloop
  endfacet
  facet normal 0.684538 0.728977 0
    outer loop
      vertex 27.218 32.9009 10
      vertex 31.127 29.2302 0
      vertex 27.218 32.9009 0
    endloop
  endfacet
  facet normal -0.684538 0.728977 0
    outer loop
      vertex -27.218 32.9009 0
      vertex -31.127 29.2302 10
      vertex -27.218 32.9009 10
    endloop
  endfacet
  facet normal -0.684538 0.728977 0
    outer loop
      vertex -31.127 29.2302 10
      vertex -27.218 32.9009 0
      vertex -31.127 29.2302 0
    endloop
  endfacet
  facet normal -0.368122 0.929778 0
    outer loop
      vertex -13.195 40.6101 0
      vertex -18.1808 38.6361 10
      vertex -13.195 40.6101 10
    endloop
  endfacet
  facet normal -0.368122 0.929778 0
    outer loop
      vertex -18.1808 38.6361 10
      vertex -13.195 40.6101 0
      vertex -18.1808 38.6361 0
    endloop
  endfacet
  facet normal 0.904825 0.425783 -7.78017e-18
    outer loop
      vertex 39.7015 15.7189 10
      vertex 37.4183 20.5709 0
      vertex 37.4183 20.5709 10
    endloop
  endfacet
  facet normal 0.904825 0.425783 -7.78017e-18
    outer loop
      vertex 37.4183 20.5709 0
      vertex 39.7015 15.7189 10
      vertex 39.7015 15.7189 0
    endloop
  endfacet
  facet normal 0.982287 0.18738 -5.33776e-19
    outer loop
      vertex 42.3633 5.35173 10
      vertex 41.3585 10.6191 0
      vertex 41.3585 10.6191 10
    endloop
  endfacet
  facet normal 0.982287 0.18738 -5.33776e-19
    outer loop
      vertex 41.3585 10.6191 0
      vertex 42.3633 5.35173 10
      vertex 42.3633 5.35173 0
    endloop
  endfacet
  facet normal 0.368122 0.929778 -0
    outer loop
      vertex 18.1808 38.6361 0
      vertex 13.195 40.6101 10
      vertex 18.1808 38.6361 10
    endloop
  endfacet
  facet normal 0.368122 0.929778 0
    outer loop
      vertex 13.195 40.6101 10
      vertex 18.1808 38.6361 0
      vertex 13.195 40.6101 0
    endloop
  endfacet
  facet normal 0.248699 0.968581 -0
    outer loop
      vertex 13.195 40.6101 0
      vertex 8.00118 41.9437 10
      vertex 13.195 40.6101 10
    endloop
  endfacet
  facet normal 0.248699 0.968581 0
    outer loop
      vertex 8.00118 41.9437 10
      vertex 13.195 40.6101 0
      vertex 8.00118 41.9437 0
    endloop
  endfacet
  facet normal 0.481754 0.876306 -0
    outer loop
      vertex 22.8798 36.0528 0
      vertex 18.1808 38.6361 10
      vertex 22.8798 36.0528 10
    endloop
  endfacet
  facet normal 0.481754 0.876306 0
    outer loop
      vertex 18.1808 38.6361 10
      vertex 22.8798 36.0528 0
      vertex 18.1808 38.6361 0
    endloop
  endfacet
  facet normal -0.904825 0.425783 7.78017e-18
    outer loop
      vertex -39.7015 15.7189 0
      vertex -37.4183 20.5709 10
      vertex -37.4183 20.5709 0
    endloop
  endfacet
  facet normal -0.904825 0.425783 7.78017e-18
    outer loop
      vertex -37.4183 20.5709 10
      vertex -39.7015 15.7189 0
      vertex -39.7015 15.7189 10
    endloop
  endfacet
  facet normal -0.844323 0.535835 6.29216e-18
    outer loop
      vertex -37.4183 20.5709 0
      vertex -34.545 25.0984 10
      vertex -34.545 25.0984 0
    endloop
  endfacet
  facet normal -0.844323 0.535835 6.29216e-18
    outer loop
      vertex -34.545 25.0984 10
      vertex -37.4183 20.5709 0
      vertex -37.4183 20.5709 10
    endloop
  endfacet
  facet normal -0.951058 0.309013 -1.59327e-17
    outer loop
      vertex -41.3585 10.6191 0
      vertex -39.7015 15.7189 10
      vertex -39.7015 15.7189 0
    endloop
  endfacet
  facet normal -0.951058 0.309013 -1.59327e-17
    outer loop
      vertex -39.7015 15.7189 10
      vertex -41.3585 10.6191 0
      vertex -41.3585 10.6191 10
    endloop
  endfacet
  facet normal -0.587787 0.809016 0
    outer loop
      vertex -22.8798 36.0528 0
      vertex -27.218 32.9009 10
      vertex -22.8798 36.0528 10
    endloop
  endfacet
  facet normal -0.587787 0.809016 0
    outer loop
      vertex -27.218 32.9009 10
      vertex -22.8798 36.0528 0
      vertex -27.218 32.9009 0
    endloop
  endfacet
  facet normal -0.125319 0.992116 0
    outer loop
      vertex -2.68115 42.6157 0
      vertex -8.00118 41.9437 10
      vertex -2.68115 42.6157 10
    endloop
  endfacet
  facet normal -0.125319 0.992116 0
    outer loop
      vertex -8.00118 41.9437 10
      vertex -2.68115 42.6157 0
      vertex -8.00118 41.9437 0
    endloop
  endfacet
  facet normal 0.125319 -0.992116 0
    outer loop
      vertex 2.68115 -42.6157 0
      vertex 8.00118 -41.9437 10
      vertex 2.68115 -42.6157 10
    endloop
  endfacet
  facet normal 0.125319 -0.992116 0
    outer loop
      vertex 8.00118 -41.9437 10
      vertex 2.68115 -42.6157 0
      vertex 8.00118 -41.9437 0
    endloop
  endfacet
  facet normal 0.951058 0.309013 1.59327e-17
    outer loop
      vertex 41.3585 10.6191 10
      vertex 39.7015 15.7189 0
      vertex 39.7015 15.7189 10
    endloop
  endfacet
  facet normal 0.951058 0.309013 1.59327e-17
    outer loop
      vertex 39.7015 15.7189 0
      vertex 41.3585 10.6191 10
      vertex 41.3585 10.6191 0
    endloop
  endfacet
  facet normal 0.770524 0.63741 3.73645e-18
    outer loop
      vertex 34.545 25.0984 10
      vertex 31.127 29.2302 0
      vertex 31.127 29.2302 10
    endloop
  endfacet
  facet normal 0.770524 0.63741 3.73645e-18
    outer loop
      vertex 31.127 29.2302 0
      vertex 34.545 25.0984 10
      vertex 34.545 25.0984 0
    endloop
  endfacet
  facet normal 0.844323 0.535835 -6.29216e-18
    outer loop
      vertex 37.4183 20.5709 10
      vertex 34.545 25.0984 0
      vertex 34.545 25.0984 10
    endloop
  endfacet
  facet normal 0.844323 0.535835 -6.29216e-18
    outer loop
      vertex 34.545 25.0984 0
      vertex 37.4183 20.5709 10
      vertex 37.4183 20.5709 0
    endloop
  endfacet
  facet normal 0.125319 0.992116 -0
    outer loop
      vertex 8.00118 41.9437 0
      vertex 2.68115 42.6157 10
      vertex 8.00118 41.9437 10
    endloop
  endfacet
  facet normal 0.125319 0.992116 0
    outer loop
      vertex 2.68115 42.6157 10
      vertex 8.00118 41.9437 0
      vertex 2.68115 42.6157 0
    endloop
  endfacet
  facet normal 0.587787 0.809016 -0
    outer loop
      vertex 27.218 32.9009 0
      vertex 22.8798 36.0528 10
      vertex 27.218 32.9009 10
    endloop
  endfacet
  facet normal 0.587787 0.809016 0
    outer loop
      vertex 22.8798 36.0528 10
      vertex 27.218 32.9009 0
      vertex 22.8798 36.0528 0
    endloop
  endfacet
  facet normal -0.982287 0.18738 5.33776e-19
    outer loop
      vertex -42.3633 5.35173 0
      vertex -41.3585 10.6191 10
      vertex -41.3585 10.6191 0
    endloop
  endfacet
  facet normal -0.982287 0.18738 5.33776e-19
    outer loop
      vertex -41.3585 10.6191 10
      vertex -42.3633 5.35173 0
      vertex -42.3633 5.35173 10
    endloop
  endfacet
  facet normal 0 0 1
    outer loop
      vertex 32.5 0 10
      vertex 42.7 0 10
      vertex 42.3633 5.35173 10
    endloop
  endfacet
  facet normal 0 0 1
    outer loop
      vertex 32.2437 4.07333 10
      vertex 42.3633 5.35173 10
      vertex 41.3585 10.6191 10
    endloop
  endfacet
  facet normal 0 0 1
    outer loop
      vertex 42.7 0 10
      vertex 32.5 0 10
      vertex 42.3633 -5.35173 10
    endloop
  endfacet
  facet normal 0 0 1
    outer loop
      vertex 31.479 8.08242 10
      vertex 41.3585 10.6191 10
      vertex 39.7015 15.7189 10
    endloop
  endfacet
  facet normal -0 0 1
    outer loop
      vertex 32.2437 -4.07333 10
      vertex 42.3633 -5.35173 10
      vertex 32.5 0 10
    endloop
  endfacet
  facet normal 0 0 1
    outer loop
      vertex 30.2177 11.964 10
      vertex 39.7015 15.7189 10
      vertex 37.4183 20.5709 10
    endloop
  endfacet
  facet normal 0 0 1
    outer loop
      vertex 42.3633 -5.35173 10
      vertex 32.2437 -4.07333 10
      vertex 41.3585 -10.6191 10
    endloop
  endfacet
  facet normal 0 0 1
    outer loop
      vertex 28.48 15.657 10
      vertex 37.4183 20.5709 10
      vertex 34.545 25.0984 10
    endloop
  endfacet
  facet normal -0 0 1
    outer loop
      vertex 31.479 -8.08242 10
      vertex 41.3585 -10.6191 10
      vertex 32.2437 -4.07333 10
    endloop
  endfacet
  facet normal 0 0 1
    outer loop
      vertex 41.3585 -10.6191 10
      vertex 31.479 -8.08242 10
      vertex 39.7015 -15.7189 10
    endloop
  endfacet
  facet normal 0 0 1
    outer loop
      vertex 42.3633 5.35173 10
      vertex 32.2437 4.07333 10
      vertex 32.5 0 10
    endloop
  endfacet
  facet normal 0 0 1
    outer loop
      vertex 41.3585 10.6191 10
      vertex 31.479 8.08242 10
      vertex 32.2437 4.07333 10
    endloop
  endfacet
  facet normal 0 0 1
    outer loop
      vertex 26.2931 19.103 10
      vertex 34.545 25.0984 10
      vertex 31.127 29.2302 10
    endloop
  endfacet
  facet normal 0 0 1
    outer loop
      vertex 39.7015 15.7189 10
      vertex 30.2177 11.964 10
      vertex 31.479 8.08242 10
    endloop
  endfacet
  facet normal 0 0 1
    outer loop
      vertex 37.4183 20.5709 10
      vertex 28.48 15.657 10
      vertex 30.2177 11.964 10
    endloop
  endfacet
  facet normal 0 0 1
    outer loop
      vertex 23.6915 22.2478 10
      vertex 31.127 29.2302 10
      vertex 27.218 32.9009 10
    endloop
  endfacet
  facet normal 0 0 1
    outer loop
      vertex 34.545 25.0984 10
      vertex 26.2931 19.103 10
      vertex 28.48 15.657 10
    endloop
  endfacet
  facet normal 0 0 1
    outer loop
      vertex 31.127 29.2302 10
      vertex 23.6915 22.2478 10
      vertex 26.2931 19.103 10
    endloop
  endfacet
  facet normal 0 0 1
    outer loop
      vertex 20.7163 25.0417 10
      vertex 27.218 32.9009 10
      vertex 22.8798 36.0528 10
    endloop
  endfacet
  facet normal 0 0 1
    outer loop
      vertex 27.218 32.9009 10
      vertex 20.7163 25.0417 10
      vertex 23.6915 22.2478 10
    endloop
  endfacet
  facet normal 0 0 1
    outer loop
      vertex 17.4144 27.4407 10
      vertex 22.8798 36.0528 10
      vertex 18.1808 38.6361 10
    endloop
  endfacet
  facet normal 0 0 1
    outer loop
      vertex 22.8798 36.0528 10
      vertex 17.4144 27.4407 10
      vertex 20.7163 25.0417 10
    endloop
  endfacet
  facet normal 0 0 1
    outer loop
      vertex 18.1808 38.6361 10
      vertex 13.8378 29.4069 10
      vertex 17.4144 27.4407 10
    endloop
  endfacet
  facet normal 0 0 1
    outer loop
      vertex 13.195 40.6101 10
      vertex 13.8378 29.4069 10
      vertex 18.1808 38.6361 10
    endloop
  endfacet
  facet normal 0 0 1
    outer loop
      vertex 13.195 40.6101 10
      vertex 10.0431 30.9093 10
      vertex 13.8378 29.4069 10
    endloop
  endfacet
  facet normal 0 0 1
    outer loop
      vertex 8.00118 41.9437 10
      vertex 10.0431 30.9093 10
      vertex 13.195 40.6101 10
    endloop
  endfacet
  facet normal 0 0 1
    outer loop
      vertex 8.00118 41.9437 10
      vertex 6.08989 31.9243 10
      vertex 10.0431 30.9093 10
    endloop
  endfacet
  facet normal 0 0 1
    outer loop
      vertex 2.68115 42.6157 10
      vertex 6.08989 31.9243 10
      vertex 8.00118 41.9437 10
    endloop
  endfacet
  facet normal 0 0 1
    outer loop
      vertex 2.68115 42.6157 10
      vertex 2.04069 32.4359 10
      vertex 6.08989 31.9243 10
    endloop
  endfacet
  facet normal 0 0 1
    outer loop
      vertex 2.68115 42.6157 10
      vertex -2.04069 32.4359 10
      vertex 2.04069 32.4359 10
    endloop
  endfacet
  facet normal -0 0 1
    outer loop
      vertex -2.68115 42.6157 10
      vertex -2.04069 32.4359 10
      vertex 2.68115 42.6157 10
    endloop
  endfacet
  facet normal 0 0 1
    outer loop
      vertex -2.68115 42.6157 10
      vertex -6.08989 31.9243 10
      vertex -2.04069 32.4359 10
    endloop
  endfacet
  facet normal -0 0 1
    outer loop
      vertex -8.00118 41.9437 10
      vertex -6.08989 31.9243 10
      vertex -2.68115 42.6157 10
    endloop
  endfacet
  facet normal 0 0 1
    outer loop
      vertex -8.00118 41.9437 10
      vertex -10.0431 30.9093 10
      vertex -6.08989 31.9243 10
    endloop
  endfacet
  facet normal -0 0 1
    outer loop
      vertex -13.195 40.6101 10
      vertex -10.0431 30.9093 10
      vertex -8.00118 41.9437 10
    endloop
  endfacet
  facet normal 0 0 1
    outer loop
      vertex -13.195 40.6101 10
      vertex -13.8378 29.4069 10
      vertex -10.0431 30.9093 10
    endloop
  endfacet
  facet normal -0 0 1
    outer loop
      vertex -18.1808 38.6361 10
      vertex -13.8378 29.4069 10
      vertex -13.195 40.6101 10
    endloop
  endfacet
  facet normal 0 0 1
    outer loop
      vertex -13.8378 29.4069 10
      vertex -18.1808 38.6361 10
      vertex -17.4144 27.4407 10
    endloop
  endfacet
  facet normal -0 0 1
    outer loop
      vertex -22.8798 36.0528 10
      vertex -17.4144 27.4407 10
      vertex -18.1808 38.6361 10
    endloop
  endfacet
  facet normal 0 0 1
    outer loop
      vertex -17.4144 27.4407 10
      vertex -22.8798 36.0528 10
      vertex -20.7163 25.0417 10
    endloop
  endfacet
  facet normal -0 0 1
    outer loop
      vertex -27.218 32.9009 10
      vertex -20.7163 25.0417 10
      vertex -22.8798 36.0528 10
    endloop
  endfacet
  facet normal 0 0 1
    outer loop
      vertex -20.7163 25.0417 10
      vertex -27.218 32.9009 10
      vertex -23.6915 22.2478 10
    endloop
  endfacet
  facet normal -0 0 1
    outer loop
      vertex -31.127 29.2302 10
      vertex -23.6915 22.2478 10
      vertex -27.218 32.9009 10
    endloop
  endfacet
  facet normal 0 0 1
    outer loop
      vertex -23.6915 22.2478 10
      vertex -31.127 29.2302 10
      vertex -26.2931 19.103 10
    endloop
  endfacet
  facet normal -0 0 1
    outer loop
      vertex -34.545 25.0984 10
      vertex -26.2931 19.103 10
      vertex -31.127 29.2302 10
    endloop
  endfacet
  facet normal 0 0 1
    outer loop
      vertex -26.2931 19.103 10
      vertex -34.545 25.0984 10
      vertex -28.48 15.657 10
    endloop
  endfacet
  facet normal -0 0 1
    outer loop
      vertex -37.4183 20.5709 10
      vertex -28.48 15.657 10
      vertex -34.545 25.0984 10
    endloop
  endfacet
  facet normal 0 0 1
    outer loop
      vertex -28.48 15.657 10
      vertex -37.4183 20.5709 10
      vertex -30.2177 11.964 10
    endloop
  endfacet
  facet normal -0 0 1
    outer loop
      vertex -39.7015 15.7189 10
      vertex -30.2177 11.964 10
      vertex -37.4183 20.5709 10
    endloop
  endfacet
  facet normal 0 0 1
    outer loop
      vertex -30.2177 11.964 10
      vertex -39.7015 15.7189 10
      vertex -31.479 8.08242 10
    endloop
  endfacet
  facet normal -0 0 1
    outer loop
      vertex 30.2177 -11.964 10
      vertex 39.7015 -15.7189 10
      vertex 31.479 -8.08242 10
    endloop
  endfacet
  facet normal 0 0 1
    outer loop
      vertex 39.7015 -15.7189 10
      vertex 30.2177 -11.964 10
      vertex 37.4183 -20.5709 10
    endloop
  endfacet
  facet normal -0 0 1
    outer loop
      vertex 28.48 -15.657 10
      vertex 37.4183 -20.5709 10
      vertex 30.2177 -11.964 10
    endloop
  endfacet
  facet normal 0 0 1
    outer loop
      vertex 37.4183 -20.5709 10
      vertex 28.48 -15.657 10
      vertex 34.545 -25.0984 10
    endloop
  endfacet
  facet normal -0 0 1
    outer loop
      vertex 26.2931 -19.103 10
      vertex 34.545 -25.0984 10
      vertex 28.48 -15.657 10
    endloop
  endfacet
  facet normal 0 0 1
    outer loop
      vertex 34.545 -25.0984 10
      vertex 26.2931 -19.103 10
      vertex 31.127 -29.2302 10
    endloop
  endfacet
  facet normal -0 0 1
    outer loop
      vertex 23.6915 -22.2478 10
      vertex 31.127 -29.2302 10
      vertex 26.2931 -19.103 10
    endloop
  endfacet
  facet normal 0 0 1
    outer loop
      vertex 31.127 -29.2302 10
      vertex 23.6915 -22.2478 10
      vertex 27.218 -32.9009 10
    endloop
  endfacet
  facet normal -0 0 1
    outer loop
      vertex 20.7163 -25.0417 10
      vertex 27.218 -32.9009 10
      vertex 23.6915 -22.2478 10
    endloop
  endfacet
  facet normal 0 0 1
    outer loop
      vertex 27.218 -32.9009 10
      vertex 20.7163 -25.0417 10
      vertex 22.8798 -36.0528 10
    endloop
  endfacet
  facet normal -0 0 1
    outer loop
      vertex 17.4144 -27.4407 10
      vertex 22.8798 -36.0528 10
      vertex 20.7163 -25.0417 10
    endloop
  endfacet
  facet normal 0 0 1
    outer loop
      vertex 22.8798 -36.0528 10
      vertex 17.4144 -27.4407 10
      vertex 18.1808 -38.6361 10
    endloop
  endfacet
  facet normal -0 0 1
    outer loop
      vertex 13.8378 -29.4069 10
      vertex 18.1808 -38.6361 10
      vertex 17.4144 -27.4407 10
    endloop
  endfacet
  facet normal 0 0 1
    outer loop
      vertex 13.8378 -29.4069 10
      vertex 13.195 -40.6101 10
      vertex 18.1808 -38.6361 10
    endloop
  endfacet
  facet normal -0 0 1
    outer loop
      vertex 10.0431 -30.9093 10
      vertex 13.195 -40.6101 10
      vertex 13.8378 -29.4069 10
    endloop
  endfacet
  facet normal 0 0 1
    outer loop
      vertex 10.0431 -30.9093 10
      vertex 8.00118 -41.9437 10
      vertex 13.195 -40.6101 10
    endloop
  endfacet
  facet normal -0 0 1
    outer loop
      vertex 6.08989 -31.9243 10
      vertex 8.00118 -41.9437 10
      vertex 10.0431 -30.9093 10
    endloop
  endfacet
  facet normal 0 0 1
    outer loop
      vertex 6.08989 -31.9243 10
      vertex 2.68115 -42.6157 10
      vertex 8.00118 -41.9437 10
    endloop
  endfacet
  facet normal -0 0 1
    outer loop
      vertex 2.04069 -32.4359 10
      vertex 2.68115 -42.6157 10
      vertex 6.08989 -31.9243 10
    endloop
  endfacet
  facet normal -0 0 1
    outer loop
      vertex -2.04069 -32.4359 10
      vertex 2.68115 -42.6157 10
      vertex 2.04069 -32.4359 10
    endloop
  endfacet
  facet normal 0 0 1
    outer loop
      vertex -2.04069 -32.4359 10
      vertex -2.68115 -42.6157 10
      vertex 2.68115 -42.6157 10
    endloop
  endfacet
  facet normal 0 0 1
    outer loop
      vertex -6.08989 -31.9243 10
      vertex -2.68115 -42.6157 10
      vertex -2.04069 -32.4359 10
    endloop
  endfacet
  facet normal 0 0 1
    outer loop
      vertex -6.08989 -31.9243 10
      vertex -8.00118 -41.9437 10
      vertex -2.68115 -42.6157 10
    endloop
  endfacet
  facet normal 0 0 1
    outer loop
      vertex -10.0431 -30.9093 10
      vertex -8.00118 -41.9437 10
      vertex -6.08989 -31.9243 10
    endloop
  endfacet
  facet normal 0 0 1
    outer loop
      vertex -10.0431 -30.9093 10
      vertex -13.195 -40.6101 10
      vertex -8.00118 -41.9437 10
    endloop
  endfacet
  facet normal 0 0 1
    outer loop
      vertex -13.8378 -29.4069 10
      vertex -13.195 -40.6101 10
      vertex -10.0431 -30.9093 10
    endloop
  endfacet
  facet normal 0 0 1
    outer loop
      vertex -18.1808 -38.6361 10
      vertex -13.8378 -29.4069 10
      vertex -17.4144 -27.4407 10
    endloop
  endfacet
  facet normal 0 0 1
    outer loop
      vertex -13.8378 -29.4069 10
      vertex -18.1808 -38.6361 10
      vertex -13.195 -40.6101 10
    endloop
  endfacet
  facet normal 0 0 1
    outer loop
      vertex -22.8798 -36.0528 10
      vertex -17.4144 -27.4407 10
      vertex -20.7163 -25.0417 10
    endloop
  endfacet
  facet normal 0 0 1
    outer loop
      vertex -17.4144 -27.4407 10
      vertex -22.8798 -36.0528 10
      vertex -18.1808 -38.6361 10
    endloop
  endfacet
  facet normal 0 0 1
    outer loop
      vertex -27.218 -32.9009 10
      vertex -20.7163 -25.0417 10
      vertex -23.6915 -22.2478 10
    endloop
  endfacet
  facet normal 0 0 1
    outer loop
      vertex -31.127 -29.2302 10
      vertex -23.6915 -22.2478 10
      vertex -26.2931 -19.103 10
    endloop
  endfacet
  facet normal 0 0 1
    outer loop
      vertex -20.7163 -25.0417 10
      vertex -27.218 -32.9009 10
      vertex -22.8798 -36.0528 10
    endloop
  endfacet
  facet normal 0 0 1
    outer loop
      vertex -34.545 -25.0984 10
      vertex -26.2931 -19.103 10
      vertex -28.48 -15.657 10
    endloop
  endfacet
  facet normal 0 0 1
    outer loop
      vertex -37.4183 -20.5709 10
      vertex -28.48 -15.657 10
      vertex -30.2177 -11.964 10
    endloop
  endfacet
  facet normal 0 0 1
    outer loop
      vertex -23.6915 -22.2478 10
      vertex -31.127 -29.2302 10
      vertex -27.218 -32.9009 10
    endloop
  endfacet
  facet normal 0 0 1
    outer loop
      vertex -39.7015 -15.7189 10
      vertex -30.2177 -11.964 10
      vertex -31.479 -8.08242 10
    endloop
  endfacet
  facet normal 0 0 1
    outer loop
      vertex -41.3585 -10.6191 10
      vertex -31.479 -8.08242 10
      vertex -32.2437 -4.07333 10
    endloop
  endfacet
  facet normal 0 0 1
    outer loop
      vertex -42.3633 -5.35173 10
      vertex -32.2437 -4.07333 10
      vertex -32.5 0 10
    endloop
  endfacet
  facet normal -0 0 1
    outer loop
      vertex -41.3585 10.6191 10
      vertex -31.479 8.08242 10
      vertex -39.7015 15.7189 10
    endloop
  endfacet
  facet normal 0 0 1
    outer loop
      vertex -26.2931 -19.103 10
      vertex -34.545 -25.0984 10
      vertex -31.127 -29.2302 10
    endloop
  endfacet
  facet normal 0 0 1
    outer loop
      vertex -31.479 8.08242 10
      vertex -41.3585 10.6191 10
      vertex -32.2437 4.07333 10
    endloop
  endfacet
  facet normal 0 0 1
    outer loop
      vertex -28.48 -15.657 10
      vertex -37.4183 -20.5709 10
      vertex -34.545 -25.0984 10
    endloop
  endfacet
  facet normal -0 0 1
    outer loop
      vertex -42.3633 5.35173 10
      vertex -32.2437 4.07333 10
      vertex -41.3585 10.6191 10
    endloop
  endfacet
  facet normal 0 0 1
    outer loop
      vertex -30.2177 -11.964 10
      vertex -39.7015 -15.7189 10
      vertex -37.4183 -20.5709 10
    endloop
  endfacet
  facet normal 0 0 1
    outer loop
      vertex -32.2437 4.07333 10
      vertex -42.3633 5.35173 10
      vertex -32.5 0 10
    endloop
  endfacet
  facet normal 0 0 1
    outer loop
      vertex -31.479 -8.08242 10
      vertex -41.3585 -10.6191 10
      vertex -39.7015 -15.7189 10
    endloop
  endfacet
  facet normal 0 0 1
    outer loop
      vertex -42.7 0 10
      vertex -32.5 0 10
      vertex -42.3633 5.35173 10
    endloop
  endfacet
  facet normal 0 0 1
    outer loop
      vertex -32.2437 -4.07333 10
      vertex -42.3633 -5.35173 10
      vertex -41.3585 -10.6191 10
    endloop
  endfacet
  facet normal 0 0 1
    outer loop
      vertex -32.5 0 10
      vertex -42.7 0 10
      vertex -42.3633 -5.35173 10
    endloop
  endfacet
  facet normal 0.998027 -0.0627901 -1.1727e-18
    outer loop
      vertex 42.3633 -5.35173 10
      vertex 42.7 0 0
      vertex 42.7 0 10
    endloop
  endfacet
  facet normal 0.998027 -0.0627901 -1.1727e-18
    outer loop
      vertex 42.7 0 0
      vertex 42.3633 -5.35173 10
      vertex 42.3633 -5.35173 0
    endloop
  endfacet
  facet normal 0.684538 -0.728977 0
    outer loop
      vertex 27.218 -32.9009 0
      vertex 31.127 -29.2302 10
      vertex 27.218 -32.9009 10
    endloop
  endfacet
  facet normal 0.684538 -0.728977 0
    outer loop
      vertex 31.127 -29.2302 10
      vertex 27.218 -32.9009 0
      vertex 31.127 -29.2302 0
    endloop
  endfacet
  facet normal 0.982287 -0.18738 5.33776e-19
    outer loop
      vertex 41.3585 -10.6191 10
      vertex 42.3633 -5.35173 0
      vertex 42.3633 -5.35173 10
    endloop
  endfacet
  facet normal 0.982287 -0.18738 5.33776e-19
    outer loop
      vertex 42.3633 -5.35173 0
      vertex 41.3585 -10.6191 10
      vertex 41.3585 -10.6191 0
    endloop
  endfacet
  facet normal -0.904825 -0.425783 -7.78017e-18
    outer loop
      vertex -37.4183 -20.5709 0
      vertex -39.7015 -15.7189 10
      vertex -39.7015 -15.7189 0
    endloop
  endfacet
  facet normal -0.904825 -0.425783 -7.78017e-18
    outer loop
      vertex -39.7015 -15.7189 10
      vertex -37.4183 -20.5709 0
      vertex -37.4183 -20.5709 10
    endloop
  endfacet
  facet normal 0 0 -1
    outer loop
      vertex 32.5 0 0
      vertex 42.7 0 0
      vertex 42.3633 -5.35173 0
    endloop
  endfacet
  facet normal 0 0 -1
    outer loop
      vertex 32.2437 -4.07333 0
      vertex 42.3633 -5.35173 0
      vertex 41.3585 -10.6191 0
    endloop
  endfacet
  facet normal 0 0 -1
    outer loop
      vertex 42.7 0 0
      vertex 32.5 0 0
      vertex 42.3633 5.35173 0
    endloop
  endfacet
  facet normal 0 0 -1
    outer loop
      vertex 31.479 -8.08242 0
      vertex 41.3585 -10.6191 0
      vertex 39.7015 -15.7189 0
    endloop
  endfacet
  facet normal 0 0 -1
    outer loop
      vertex 32.2437 4.07333 0
      vertex 42.3633 5.35173 0
      vertex 32.5 0 0
    endloop
  endfacet
  facet normal 0 0 -1
    outer loop
      vertex 30.2177 -11.964 0
      vertex 39.7015 -15.7189 0
      vertex 37.4183 -20.5709 0
    endloop
  endfacet
  facet normal -0 0 -1
    outer loop
      vertex 42.3633 5.35173 0
      vertex 32.2437 4.07333 0
      vertex 41.3585 10.6191 0
    endloop
  endfacet
  facet normal 0 0 -1
    outer loop
      vertex 28.48 -15.657 0
      vertex 37.4183 -20.5709 0
      vertex 34.545 -25.0984 0
    endloop
  endfacet
  facet normal 0 0 -1
    outer loop
      vertex 31.479 8.08242 0
      vertex 41.3585 10.6191 0
      vertex 32.2437 4.07333 0
    endloop
  endfacet
  facet normal -0 0 -1
    outer loop
      vertex 41.3585 10.6191 0
      vertex 31.479 8.08242 0
      vertex 39.7015 15.7189 0
    endloop
  endfacet
  facet normal 0 0 -1
    outer loop
      vertex 42.3633 -5.35173 0
      vertex 32.2437 -4.07333 0
      vertex 32.5 0 0
    endloop
  endfacet
  facet normal 0 0 -1
    outer loop
      vertex 41.3585 -10.6191 0
      vertex 31.479 -8.08242 0
      vertex 32.2437 -4.07333 0
    endloop
  endfacet
  facet normal 0 0 -1
    outer loop
      vertex 26.2931 -19.103 0
      vertex 34.545 -25.0984 0
      vertex 31.127 -29.2302 0
    endloop
  endfacet
  facet normal 0 0 -1
    outer loop
      vertex 39.7015 -15.7189 0
      vertex 30.2177 -11.964 0
      vertex 31.479 -8.08242 0
    endloop
  endfacet
  facet normal 0 0 -1
    outer loop
      vertex 37.4183 -20.5709 0
      vertex 28.48 -15.657 0
      vertex 30.2177 -11.964 0
    endloop
  endfacet
  facet normal 0 0 -1
    outer loop
      vertex 23.6915 -22.2478 0
      vertex 31.127 -29.2302 0
      vertex 27.218 -32.9009 0
    endloop
  endfacet
  facet normal 0 0 -1
    outer loop
      vertex 34.545 -25.0984 0
      vertex 26.2931 -19.103 0
      vertex 28.48 -15.657 0
    endloop
  endfacet
  facet normal 0 0 -1
    outer loop
      vertex 31.127 -29.2302 0
      vertex 23.6915 -22.2478 0
      vertex 26.2931 -19.103 0
    endloop
  endfacet
  facet normal 0 0 -1
    outer loop
      vertex 20.7163 -25.0417 0
      vertex 27.218 -32.9009 0
      vertex 22.8798 -36.0528 0
    endloop
  endfacet
  facet normal 0 0 -1
    outer loop
      vertex 27.218 -32.9009 0
      vertex 20.7163 -25.0417 0
      vertex 23.6915 -22.2478 0
    endloop
  endfacet
  facet normal 0 0 -1
    outer loop
      vertex 17.4144 -27.4407 0
      vertex 22.8798 -36.0528 0
      vertex 18.1808 -38.6361 0
    endloop
  endfacet
  facet normal 0 0 -1
    outer loop
      vertex 22.8798 -36.0528 0
      vertex 17.4144 -27.4407 0
      vertex 20.7163 -25.0417 0
    endloop
  endfacet
  facet normal 0 0 -1
    outer loop
      vertex 18.1808 -38.6361 0
      vertex 13.8378 -29.4069 0
      vertex 17.4144 -27.4407 0
    endloop
  endfacet
  facet normal 0 0 -1
    outer loop
      vertex 13.195 -40.6101 0
      vertex 13.8378 -29.4069 0
      vertex 18.1808 -38.6361 0
    endloop
  endfacet
  facet normal 0 0 -1
    outer loop
      vertex 13.195 -40.6101 0
      vertex 10.0431 -30.9093 0
      vertex 13.8378 -29.4069 0
    endloop
  endfacet
  facet normal 0 0 -1
    outer loop
      vertex 8.00118 -41.9437 0
      vertex 10.0431 -30.9093 0
      vertex 13.195 -40.6101 0
    endloop
  endfacet
  facet normal 0 0 -1
    outer loop
      vertex 8.00118 -41.9437 0
      vertex 6.08989 -31.9243 0
      vertex 10.0431 -30.9093 0
    endloop
  endfacet
  facet normal 0 0 -1
    outer loop
      vertex 2.68115 -42.6157 0
      vertex 6.08989 -31.9243 0
      vertex 8.00118 -41.9437 0
    endloop
  endfacet
  facet normal 0 0 -1
    outer loop
      vertex 2.68115 -42.6157 0
      vertex 2.04069 -32.4359 0
      vertex 6.08989 -31.9243 0
    endloop
  endfacet
  facet normal 0 0 -1
    outer loop
      vertex 2.68115 -42.6157 0
      vertex -2.04069 -32.4359 0
      vertex 2.04069 -32.4359 0
    endloop
  endfacet
  facet normal 0 0 -1
    outer loop
      vertex -2.68115 -42.6157 0
      vertex -2.04069 -32.4359 0
      vertex 2.68115 -42.6157 0
    endloop
  endfacet
  facet normal 0 0 -1
    outer loop
      vertex -2.68115 -42.6157 0
      vertex -6.08989 -31.9243 0
      vertex -2.04069 -32.4359 0
    endloop
  endfacet
  facet normal 0 0 -1
    outer loop
      vertex -8.00118 -41.9437 0
      vertex -6.08989 -31.9243 0
      vertex -2.68115 -42.6157 0
    endloop
  endfacet
  facet normal 0 0 -1
    outer loop
      vertex -8.00118 -41.9437 0
      vertex -10.0431 -30.9093 0
      vertex -6.08989 -31.9243 0
    endloop
  endfacet
  facet normal 0 0 -1
    outer loop
      vertex -13.195 -40.6101 0
      vertex -10.0431 -30.9093 0
      vertex -8.00118 -41.9437 0
    endloop
  endfacet
  facet normal 0 0 -1
    outer loop
      vertex -13.195 -40.6101 0
      vertex -13.8378 -29.4069 0
      vertex -10.0431 -30.9093 0
    endloop
  endfacet
  facet normal 0 0 -1
    outer loop
      vertex -18.1808 -38.6361 0
      vertex -13.8378 -29.4069 0
      vertex -13.195 -40.6101 0
    endloop
  endfacet
  facet normal -0 0 -1
    outer loop
      vertex -13.8378 -29.4069 0
      vertex -18.1808 -38.6361 0
      vertex -17.4144 -27.4407 0
    endloop
  endfacet
  facet normal 0 0 -1
    outer loop
      vertex -22.8798 -36.0528 0
      vertex -17.4144 -27.4407 0
      vertex -18.1808 -38.6361 0
    endloop
  endfacet
  facet normal -0 0 -1
    outer loop
      vertex -17.4144 -27.4407 0
      vertex -22.8798 -36.0528 0
      vertex -20.7163 -25.0417 0
    endloop
  endfacet
  facet normal 0 0 -1
    outer loop
      vertex -27.218 -32.9009 0
      vertex -20.7163 -25.0417 0
      vertex -22.8798 -36.0528 0
    endloop
  endfacet
  facet normal -0 0 -1
    outer loop
      vertex -20.7163 -25.0417 0
      vertex -27.218 -32.9009 0
      vertex -23.6915 -22.2478 0
    endloop
  endfacet
  facet normal 0 0 -1
    outer loop
      vertex -31.127 -29.2302 0
      vertex -23.6915 -22.2478 0
      vertex -27.218 -32.9009 0
    endloop
  endfacet
  facet normal -0 0 -1
    outer loop
      vertex -23.6915 -22.2478 0
      vertex -31.127 -29.2302 0
      vertex -26.2931 -19.103 0
    endloop
  endfacet
  facet normal 0 0 -1
    outer loop
      vertex -34.545 -25.0984 0
      vertex -26.2931 -19.103 0
      vertex -31.127 -29.2302 0
    endloop
  endfacet
  facet normal -0 0 -1
    outer loop
      vertex -26.2931 -19.103 0
      vertex -34.545 -25.0984 0
      vertex -28.48 -15.657 0
    endloop
  endfacet
  facet normal 0 0 -1
    outer loop
      vertex -37.4183 -20.5709 0
      vertex -28.48 -15.657 0
      vertex -34.545 -25.0984 0
    endloop
  endfacet
  facet normal -0 0 -1
    outer loop
      vertex -28.48 -15.657 0
      vertex -37.4183 -20.5709 0
      vertex -30.2177 -11.964 0
    endloop
  endfacet
  facet normal 0 0 -1
    outer loop
      vertex -39.7015 -15.7189 0
      vertex -30.2177 -11.964 0
      vertex -37.4183 -20.5709 0
    endloop
  endfacet
  facet normal -0 0 -1
    outer loop
      vertex -30.2177 -11.964 0
      vertex -39.7015 -15.7189 0
      vertex -31.479 -8.08242 0
    endloop
  endfacet
  facet normal 0 0 -1
    outer loop
      vertex 30.2177 11.964 0
      vertex 39.7015 15.7189 0
      vertex 31.479 8.08242 0
    endloop
  endfacet
  facet normal -0 0 -1
    outer loop
      vertex 39.7015 15.7189 0
      vertex 30.2177 11.964 0
      vertex 37.4183 20.5709 0
    endloop
  endfacet
  facet normal 0 0 -1
    outer loop
      vertex 28.48 15.657 0
      vertex 37.4183 20.5709 0
      vertex 30.2177 11.964 0
    endloop
  endfacet
  facet normal -0 0 -1
    outer loop
      vertex 37.4183 20.5709 0
      vertex 28.48 15.657 0
      vertex 34.545 25.0984 0
    endloop
  endfacet
  facet normal 0 0 -1
    outer loop
      vertex 26.2931 19.103 0
      vertex 34.545 25.0984 0
      vertex 28.48 15.657 0
    endloop
  endfacet
  facet normal -0 0 -1
    outer loop
      vertex 34.545 25.0984 0
      vertex 26.2931 19.103 0
      vertex 31.127 29.2302 0
    endloop
  endfacet
  facet normal 0 0 -1
    outer loop
      vertex 23.6915 22.2478 0
      vertex 31.127 29.2302 0
      vertex 26.2931 19.103 0
    endloop
  endfacet
  facet normal -0 0 -1
    outer loop
      vertex 31.127 29.2302 0
      vertex 23.6915 22.2478 0
      vertex 27.218 32.9009 0
    endloop
  endfacet
  facet normal 0 0 -1
    outer loop
      vertex 20.7163 25.0417 0
      vertex 27.218 32.9009 0
      vertex 23.6915 22.2478 0
    endloop
  endfacet
  facet normal -0 0 -1
    outer loop
      vertex 27.218 32.9009 0
      vertex 20.7163 25.0417 0
      vertex 22.8798 36.0528 0
    endloop
  endfacet
  facet normal 0 0 -1
    outer loop
      vertex 17.4144 27.4407 0
      vertex 22.8798 36.0528 0
      vertex 20.7163 25.0417 0
    endloop
  endfacet
  facet normal -0 0 -1
    outer loop
      vertex 22.8798 36.0528 0
      vertex 17.4144 27.4407 0
      vertex 18.1808 38.6361 0
    endloop
  endfacet
  facet normal 0 0 -1
    outer loop
      vertex 13.8378 29.4069 0
      vertex 18.1808 38.6361 0
      vertex 17.4144 27.4407 0
    endloop
  endfacet
  facet normal 0 0 -1
    outer loop
      vertex 13.8378 29.4069 0
      vertex 13.195 40.6101 0
      vertex 18.1808 38.6361 0
    endloop
  endfacet
  facet normal 0 0 -1
    outer loop
      vertex 10.0431 30.9093 0
      vertex 13.195 40.6101 0
      vertex 13.8378 29.4069 0
    endloop
  endfacet
  facet normal 0 0 -1
    outer loop
      vertex 10.0431 30.9093 0
      vertex 8.00118 41.9437 0
      vertex 13.195 40.6101 0
    endloop
  endfacet
  facet normal 0 0 -1
    outer loop
      vertex 6.08989 31.9243 0
      vertex 8.00118 41.9437 0
      vertex 10.0431 30.9093 0
    endloop
  endfacet
  facet normal 0 0 -1
    outer loop
      vertex 6.08989 31.9243 0
      vertex 2.68115 42.6157 0
      vertex 8.00118 41.9437 0
    endloop
  endfacet
  facet normal 0 0 -1
    outer loop
      vertex 2.04069 32.4359 0
      vertex 2.68115 42.6157 0
      vertex 6.08989 31.9243 0
    endloop
  endfacet
  facet normal 0 0 -1
    outer loop
      vertex -2.04069 32.4359 0
      vertex 2.68115 42.6157 0
      vertex 2.04069 32.4359 0
    endloop
  endfacet
  facet normal 0 0 -1
    outer loop
      vertex -2.04069 32.4359 0
      vertex -2.68115 42.6157 0
      vertex 2.68115 42.6157 0
    endloop
  endfacet
  facet normal 0 0 -1
    outer loop
      vertex -6.08989 31.9243 0
      vertex -2.68115 42.6157 0
      vertex -2.04069 32.4359 0
    endloop
  endfacet
  facet normal 0 0 -1
    outer loop
      vertex -6.08989 31.9243 0
      vertex -8.00118 41.9437 0
      vertex -2.68115 42.6157 0
    endloop
  endfacet
  facet normal 0 0 -1
    outer loop
      vertex -10.0431 30.9093 0
      vertex -8.00118 41.9437 0
      vertex -6.08989 31.9243 0
    endloop
  endfacet
  facet normal 0 0 -1
    outer loop
      vertex -10.0431 30.9093 0
      vertex -13.195 40.6101 0
      vertex -8.00118 41.9437 0
    endloop
  endfacet
  facet normal 0 0 -1
    outer loop
      vertex -13.8378 29.4069 0
      vertex -13.195 40.6101 0
      vertex -10.0431 30.9093 0
    endloop
  endfacet
  facet normal 0 0 -1
    outer loop
      vertex -18.1808 38.6361 0
      vertex -13.8378 29.4069 0
      vertex -17.4144 27.4407 0
    endloop
  endfacet
  facet normal 0 0 -1
    outer loop
      vertex -13.8378 29.4069 0
      vertex -18.1808 38.6361 0
      vertex -13.195 40.6101 0
    endloop
  endfacet
  facet normal 0 0 -1
    outer loop
      vertex -22.8798 36.0528 0
      vertex -17.4144 27.4407 0
      vertex -20.7163 25.0417 0
    endloop
  endfacet
  facet normal 0 0 -1
    outer loop
      vertex -17.4144 27.4407 0
      vertex -22.8798 36.0528 0
      vertex -18.1808 38.6361 0
    endloop
  endfacet
  facet normal 0 0 -1
    outer loop
      vertex -27.218 32.9009 0
      vertex -20.7163 25.0417 0
      vertex -23.6915 22.2478 0
    endloop
  endfacet
  facet normal 0 0 -1
    outer loop
      vertex -31.127 29.2302 0
      vertex -23.6915 22.2478 0
      vertex -26.2931 19.103 0
    endloop
  endfacet
  facet normal 0 0 -1
    outer loop
      vertex -20.7163 25.0417 0
      vertex -27.218 32.9009 0
      vertex -22.8798 36.0528 0
    endloop
  endfacet
  facet normal 0 0 -1
    outer loop
      vertex -34.545 25.0984 0
      vertex -26.2931 19.103 0
      vertex -28.48 15.657 0
    endloop
  endfacet
  facet normal 0 0 -1
    outer loop
      vertex -37.4183 20.5709 0
      vertex -28.48 15.657 0
      vertex -30.2177 11.964 0
    endloop
  endfacet
  facet normal 0 0 -1
    outer loop
      vertex -23.6915 22.2478 0
      vertex -31.127 29.2302 0
      vertex -27.218 32.9009 0
    endloop
  endfacet
  facet normal 0 0 -1
    outer loop
      vertex -39.7015 15.7189 0
      vertex -30.2177 11.964 0
      vertex -31.479 8.08242 0
    endloop
  endfacet
  facet normal 0 0 -1
    outer loop
      vertex -41.3585 10.6191 0
      vertex -31.479 8.08242 0
      vertex -32.2437 4.07333 0
    endloop
  endfacet
  facet normal 0 0 -1
    outer loop
      vertex -42.3633 5.35173 0
      vertex -32.2437 4.07333 0
      vertex -32.5 0 0
    endloop
  endfacet
  facet normal 0 0 -1
    outer loop
      vertex -41.3585 -10.6191 0
      vertex -31.479 -8.08242 0
      vertex -39.7015 -15.7189 0
    endloop
  endfacet
  facet normal 0 0 -1
    outer loop
      vertex -26.2931 19.103 0
      vertex -34.545 25.0984 0
      vertex -31.127 29.2302 0
    endloop
  endfacet
  facet normal -0 0 -1
    outer loop
      vertex -31.479 -8.08242 0
      vertex -41.3585 -10.6191 0
      vertex -32.2437 -4.07333 0
    endloop
  endfacet
  facet normal 0 0 -1
    outer loop
      vertex -28.48 15.657 0
      vertex -37.4183 20.5709 0
      vertex -34.545 25.0984 0
    endloop
  endfacet
  facet normal 0 0 -1
    outer loop
      vertex -42.3633 -5.35173 0
      vertex -32.2437 -4.07333 0
      vertex -41.3585 -10.6191 0
    endloop
  endfacet
  facet normal 0 0 -1
    outer loop
      vertex -30.2177 11.964 0
      vertex -39.7015 15.7189 0
      vertex -37.4183 20.5709 0
    endloop
  endfacet
  facet normal -0 0 -1
    outer loop
      vertex -32.2437 -4.07333 0
      vertex -42.3633 -5.35173 0
      vertex -32.5 0 0
    endloop
  endfacet
  facet normal 0 0 -1
    outer loop
      vertex -31.479 8.08242 0
      vertex -41.3585 10.6191 0
      vertex -39.7015 15.7189 0
    endloop
  endfacet
  facet normal 0 0 -1
    outer loop
      vertex -42.7 0 0
      vertex -32.5 0 0
      vertex -42.3633 -5.35173 0
    endloop
  endfacet
  facet normal 0 0 -1
    outer loop
      vertex -32.2437 4.07333 0
      vertex -42.3633 5.35173 0
      vertex -41.3585 10.6191 0
    endloop
  endfacet
  facet normal 0 0 -1
    outer loop
      vertex -32.5 0 0
      vertex -42.7 0 0
      vertex -42.3633 5.35173 0
    endloop
  endfacet
  facet normal 0.368122 -0.929778 0
    outer loop
      vertex 13.195 -40.6101 0
      vertex 18.1808 -38.6361 10
      vertex 13.195 -40.6101 10
    endloop
  endfacet
  facet normal 0.368122 -0.929778 0
    outer loop
      vertex 18.1808 -38.6361 10
      vertex 13.195 -40.6101 0
      vertex 18.1808 -38.6361 0
    endloop
  endfacet
  facet normal -0.770524 0.63741 -3.73645e-18
    outer loop
      vertex -34.545 25.0984 0
      vertex -31.127 29.2302 10
      vertex -31.127 29.2302 0
    endloop
  endfacet
  facet normal -0.770524 0.63741 -3.73645e-18
    outer loop
      vertex -31.127 29.2302 10
      vertex -34.545 25.0984 0
      vertex -34.545 25.0984 10
    endloop
  endfacet
  facet normal -0.481754 0.876306 0
    outer loop
      vertex -18.1808 38.6361 0
      vertex -22.8798 36.0528 10
      vertex -18.1808 38.6361 10
    endloop
  endfacet
  facet normal -0.481754 0.876306 0
    outer loop
      vertex -22.8798 36.0528 10
      vertex -18.1808 38.6361 0
      vertex -22.8798 36.0528 0
    endloop
  endfacet
  facet normal -0.248699 0.968581 0
    outer loop
      vertex -8.00118 41.9437 0
      vertex -13.195 40.6101 10
      vertex -8.00118 41.9437 10
    endloop
  endfacet
  facet normal -0.248699 0.968581 0
    outer loop
      vertex -13.195 40.6101 10
      vertex -8.00118 41.9437 0
      vertex -13.195 40.6101 0
    endloop
  endfacet
  facet normal 0.481754 -0.876306 0
    outer loop
      vertex 18.1808 -38.6361 0
      vertex 22.8798 -36.0528 10
      vertex 18.1808 -38.6361 10
    endloop
  endfacet
  facet normal 0.481754 -0.876306 0
    outer loop
      vertex 22.8798 -36.0528 10
      vertex 18.1808 -38.6361 0
      vertex 22.8798 -36.0528 0
    endloop
  endfacet
  facet normal 0.904825 -0.425783 7.78017e-18
    outer loop
      vertex 37.4183 -20.5709 10
      vertex 39.7015 -15.7189 0
      vertex 39.7015 -15.7189 10
    endloop
  endfacet
  facet normal 0.904825 -0.425783 7.78017e-18
    outer loop
      vertex 39.7015 -15.7189 0
      vertex 37.4183 -20.5709 10
      vertex 37.4183 -20.5709 0
    endloop
  endfacet
  facet normal 0.770524 -0.63741 -3.73645e-18
    outer loop
      vertex 31.127 -29.2302 10
      vertex 34.545 -25.0984 0
      vertex 34.545 -25.0984 10
    endloop
  endfacet
  facet normal 0.770524 -0.63741 -3.73645e-18
    outer loop
      vertex 34.545 -25.0984 0
      vertex 31.127 -29.2302 10
      vertex 31.127 -29.2302 0
    endloop
  endfacet
  facet normal -0.368122 -0.929778 0
    outer loop
      vertex -18.1808 -38.6361 0
      vertex -13.195 -40.6101 10
      vertex -18.1808 -38.6361 10
    endloop
  endfacet
  facet normal -0.368122 -0.929778 -0
    outer loop
      vertex -13.195 -40.6101 10
      vertex -18.1808 -38.6361 0
      vertex -13.195 -40.6101 0
    endloop
  endfacet
  facet normal -0.684538 -0.728977 0
    outer loop
      vertex -31.127 -29.2302 0
      vertex -27.218 -32.9009 10
      vertex -31.127 -29.2302 10
    endloop
  endfacet
  facet normal -0.684538 -0.728977 -0
    outer loop
      vertex -27.218 -32.9009 10
      vertex -31.127 -29.2302 0
      vertex -27.218 -32.9009 0
    endloop
  endfacet
  facet normal -0.951058 -0.309013 1.59327e-17
    outer loop
      vertex -39.7015 -15.7189 0
      vertex -41.3585 -10.6191 10
      vertex -41.3585 -10.6191 0
    endloop
  endfacet
  facet normal -0.951058 -0.309013 1.59327e-17
    outer loop
      vertex -41.3585 -10.6191 10
      vertex -39.7015 -15.7189 0
      vertex -39.7015 -15.7189 10
    endloop
  endfacet
  facet normal 0.248699 -0.968581 0
    outer loop
      vertex 8.00118 -41.9437 0
      vertex 13.195 -40.6101 10
      vertex 8.00118 -41.9437 10
    endloop
  endfacet
  facet normal 0.248699 -0.968581 0
    outer loop
      vertex 13.195 -40.6101 10
      vertex 8.00118 -41.9437 0
      vertex 13.195 -40.6101 0
    endloop
  endfacet
  facet normal 0.587787 -0.809016 0
    outer loop
      vertex 22.8798 -36.0528 0
      vertex 27.218 -32.9009 10
      vertex 22.8798 -36.0528 10
    endloop
  endfacet
  facet normal 0.587787 -0.809016 0
    outer loop
      vertex 27.218 -32.9009 10
      vertex 22.8798 -36.0528 0
      vertex 27.218 -32.9009 0
    endloop
  endfacet
  facet normal 0.951058 -0.309013 -1.59327e-17
    outer loop
      vertex 39.7015 -15.7189 10
      vertex 41.3585 -10.6191 0
      vertex 41.3585 -10.6191 10
    endloop
  endfacet
  facet normal 0.951058 -0.309013 -1.59327e-17
    outer loop
      vertex 41.3585 -10.6191 0
      vertex 39.7015 -15.7189 10
      vertex 39.7015 -15.7189 0
    endloop
  endfacet
  facet normal 0.844323 -0.535835 6.29216e-18
    outer loop
      vertex 34.545 -25.0984 10
      vertex 37.4183 -20.5709 0
      vertex 37.4183 -20.5709 10
    endloop
  endfacet
  facet normal 0.844323 -0.535835 6.29216e-18
    outer loop
      vertex 37.4183 -20.5709 0
      vertex 34.545 -25.0984 10
      vertex 34.545 -25.0984 0
    endloop
  endfacet
  facet normal -0.125319 -0.992116 0
    outer loop
      vertex -8.00118 -41.9437 0
      vertex -2.68115 -42.6157 10
      vertex -8.00118 -41.9437 10
    endloop
  endfacet
  facet normal -0.125319 -0.992116 -0
    outer loop
      vertex -2.68115 -42.6157 10
      vertex -8.00118 -41.9437 0
      vertex -2.68115 -42.6157 0
    endloop
  endfacet
  facet normal -0.587787 -0.809016 0
    outer loop
      vertex -27.218 -32.9009 0
      vertex -22.8798 -36.0528 10
      vertex -27.218 -32.9009 10
    endloop
  endfacet
  facet normal -0.587787 -0.809016 -0
    outer loop
      vertex -22.8798 -36.0528 10
      vertex -27.218 -32.9009 0
      vertex -22.8798 -36.0528 0
    endloop
  endfacet
  facet normal -0.248699 -0.968581 0
    outer loop
      vertex -13.195 -40.6101 0
      vertex -8.00118 -41.9437 10
      vertex -13.195 -40.6101 10
    endloop
  endfacet
  facet normal -0.248699 -0.968581 -0
    outer loop
      vertex -8.00118 -41.9437 10
      vertex -13.195 -40.6101 0
      vertex -8.00118 -41.9437 0
    endloop
  endfacet
  facet normal -0.844323 -0.535835 -6.29216e-18
    outer loop
      vertex -34.545 -25.0984 0
      vertex -37.4183 -20.5709 10
      vertex -37.4183 -20.5709 0
    endloop
  endfacet
  facet normal -0.844323 -0.535835 -6.29216e-18
    outer loop
      vertex -37.4183 -20.5709 10
      vertex -34.545 -25.0984 0
      vertex -34.545 -25.0984 10
    endloop
  endfacet
  facet normal -0.982287 -0.18738 -5.33776e-19
    outer loop
      vertex -41.3585 -10.6191 0
      vertex -42.3633 -5.35173 10
      vertex -42.3633 -5.35173 0
    endloop
  endfacet
  facet normal -0.982287 -0.18738 -5.33776e-19
    outer loop
      vertex -42.3633 -5.35173 10
      vertex -41.3585 -10.6191 0
      vertex -41.3585 -10.6191 10
    endloop
  endfacet
  facet normal -0.998027 -0.0627901 1.1727e-18
    outer loop
      vertex -42.3633 -5.35173 0
      vertex -42.7 0 10
      vertex -42.7 0 0
    endloop
  endfacet
  facet normal -0.998027 -0.0627901 1.1727e-18
    outer loop
      vertex -42.7 0 10
      vertex -42.3633 -5.35173 0
      vertex -42.3633 -5.35173 10
    endloop
  endfacet
  facet normal -0.481754 -0.876306 0
    outer loop
      vertex -22.8798 -36.0528 0
      vertex -18.1808 -38.6361 10
      vertex -22.8798 -36.0528 10
    endloop
  endfacet
  facet normal -0.481754 -0.876306 -0
    outer loop
      vertex -18.1808 -38.6361 10
      vertex -22.8798 -36.0528 0
      vertex -18.1808 -38.6361 0
    endloop
  endfacet
  facet normal -0.770524 -0.63741 3.73645e-18
    outer loop
      vertex -31.127 -29.2302 0
      vertex -34.545 -25.0984 10
      vertex -34.545 -25.0984 0
    endloop
  endfacet
  facet normal -0.770524 -0.63741 3.73645e-18
    outer loop
      vertex -34.545 -25.0984 10
      vertex -31.127 -29.2302 0
      vertex -31.127 -29.2302 10
    endloop
  endfacet
  facet normal 0.951049 -0.309039 -7.8419e-18
    outer loop
      vertex -31.479 8.08242 10
      vertex -30.2177 11.964 0
      vertex -30.2177 11.964 10
    endloop
  endfacet
  facet normal 0.951049 -0.309039 -7.8419e-18
    outer loop
      vertex -30.2177 11.964 0
      vertex -31.479 8.08242 10
      vertex -31.479 8.08242 0
    endloop
  endfacet
  facet normal -0.844328 -0.535827 7.93755e-18
    outer loop
      vertex 28.48 15.657 0
      vertex 26.2931 19.103 10
      vertex 26.2931 19.103 0
    endloop
  endfacet
  facet normal -0.844328 -0.535827 7.93755e-18
    outer loop
      vertex 26.2931 19.103 10
      vertex 28.48 15.657 0
      vertex 28.48 15.657 10
    endloop
  endfacet
  facet normal -0.368119 -0.929779 0
    outer loop
      vertex 10.0431 30.9093 0
      vertex 13.8378 29.4069 10
      vertex 10.0431 30.9093 10
    endloop
  endfacet
  facet normal -0.368119 -0.929779 -0
    outer loop
      vertex 13.8378 29.4069 10
      vertex 10.0431 30.9093 0
      vertex 13.8378 29.4069 0
    endloop
  endfacet
  facet normal 0.368119 -0.929779 0
    outer loop
      vertex -13.8378 29.4069 0
      vertex -10.0431 30.9093 10
      vertex -13.8378 29.4069 10
    endloop
  endfacet
  facet normal 0.368119 -0.929779 0
    outer loop
      vertex -10.0431 30.9093 10
      vertex -13.8378 29.4069 0
      vertex -10.0431 30.9093 0
    endloop
  endfacet
  facet normal 0.904836 -0.42576 3.18773e-18
    outer loop
      vertex -30.2177 11.964 10
      vertex -28.48 15.657 0
      vertex -28.48 15.657 10
    endloop
  endfacet
  facet normal 0.904836 -0.42576 3.18773e-18
    outer loop
      vertex -28.48 15.657 0
      vertex -30.2177 11.964 10
      vertex -30.2177 11.964 0
    endloop
  endfacet
  facet normal -0.998026 0.0627973 -1.16884e-19
    outer loop
      vertex 32.2437 -4.07333 0
      vertex 32.5 0 10
      vertex 32.5 0 0
    endloop
  endfacet
  facet normal -0.998026 0.0627973 -1.16884e-19
    outer loop
      vertex 32.5 0 10
      vertex 32.2437 -4.07333 0
      vertex 32.2437 -4.07333 10
    endloop
  endfacet
  facet normal -0.368119 0.929779 0
    outer loop
      vertex 13.8378 -29.4069 0
      vertex 10.0431 -30.9093 10
      vertex 13.8378 -29.4069 10
    endloop
  endfacet
  facet normal -0.368119 0.929779 0
    outer loop
      vertex 10.0431 -30.9093 10
      vertex 13.8378 -29.4069 0
      vertex 10.0431 -30.9093 0
    endloop
  endfacet
  facet normal -0.125349 -0.992113 0
    outer loop
      vertex 2.04069 32.4359 0
      vertex 6.08989 31.9243 10
      vertex 2.04069 32.4359 10
    endloop
  endfacet
  facet normal -0.125349 -0.992113 -0
    outer loop
      vertex 6.08989 31.9243 10
      vertex 2.04069 32.4359 0
      vertex 6.08989 31.9243 0
    endloop
  endfacet
  facet normal 0.770514 -0.637423 -2.67768e-18
    outer loop
      vertex -26.2931 19.103 10
      vertex -23.6915 22.2478 0
      vertex -23.6915 22.2478 10
    endloop
  endfacet
  facet normal 0.770514 -0.637423 -2.67768e-18
    outer loop
      vertex -23.6915 22.2478 0
      vertex -26.2931 19.103 10
      vertex -26.2931 19.103 0
    endloop
  endfacet
  facet normal 0.125349 -0.992113 0
    outer loop
      vertex -6.08989 31.9243 0
      vertex -2.04069 32.4359 10
      vertex -6.08989 31.9243 10
    endloop
  endfacet
  facet normal 0.125349 -0.992113 0
    outer loop
      vertex -2.04069 32.4359 10
      vertex -6.08989 31.9243 0
      vertex -2.04069 32.4359 0
    endloop
  endfacet
  facet normal 0.684547 -0.728968 0
    outer loop
      vertex -23.6915 22.2478 0
      vertex -20.7163 25.0417 10
      vertex -23.6915 22.2478 10
    endloop
  endfacet
  facet normal 0.684547 -0.728968 0
    outer loop
      vertex -20.7163 25.0417 10
      vertex -23.6915 22.2478 0
      vertex -20.7163 25.0417 0
    endloop
  endfacet
  facet normal -0.998026 -0.0627973 1.16884e-19
    outer loop
      vertex 32.5 0 0
      vertex 32.2437 4.07333 10
      vertex 32.2437 4.07333 0
    endloop
  endfacet
  facet normal -0.998026 -0.0627973 1.16884e-19
    outer loop
      vertex 32.2437 4.07333 10
      vertex 32.5 0 0
      vertex 32.5 0 10
    endloop
  endfacet
  facet normal -0.951049 0.309039 -7.8419e-18
    outer loop
      vertex 30.2177 -11.964 0
      vertex 31.479 -8.08242 10
      vertex 31.479 -8.08242 0
    endloop
  endfacet
  facet normal -0.951049 0.309039 -7.8419e-18
    outer loop
      vertex 31.479 -8.08242 10
      vertex 30.2177 -11.964 0
      vertex 30.2177 -11.964 10
    endloop
  endfacet
  facet normal -0.248687 0.968584 0
    outer loop
      vertex 10.0431 -30.9093 0
      vertex 6.08989 -31.9243 10
      vertex 10.0431 -30.9093 10
    endloop
  endfacet
  facet normal -0.248687 0.968584 0
    outer loop
      vertex 6.08989 -31.9243 10
      vertex 10.0431 -30.9093 0
      vertex 6.08989 -31.9243 0
    endloop
  endfacet
  facet normal -0.684547 -0.728968 0
    outer loop
      vertex 20.7163 25.0417 0
      vertex 23.6915 22.2478 10
      vertex 20.7163 25.0417 10
    endloop
  endfacet
  facet normal -0.684547 -0.728968 -0
    outer loop
      vertex 23.6915 22.2478 10
      vertex 20.7163 25.0417 0
      vertex 23.6915 22.2478 0
    endloop
  endfacet
  facet normal -0.770514 -0.637423 2.67768e-18
    outer loop
      vertex 26.2931 19.103 0
      vertex 23.6915 22.2478 10
      vertex 23.6915 22.2478 0
    endloop
  endfacet
  facet normal -0.770514 -0.637423 2.67768e-18
    outer loop
      vertex 23.6915 22.2478 10
      vertex 26.2931 19.103 0
      vertex 26.2931 19.103 10
    endloop
  endfacet
  facet normal 0 -1 0
    outer loop
      vertex -2.04069 32.4359 0
      vertex 2.04069 32.4359 10
      vertex -2.04069 32.4359 10
    endloop
  endfacet
  facet normal 0 -1 -0
    outer loop
      vertex 2.04069 32.4359 10
      vertex -2.04069 32.4359 0
      vertex 2.04069 32.4359 0
    endloop
  endfacet
  facet normal -0.248687 -0.968584 0
    outer loop
      vertex 6.08989 31.9243 0
      vertex 10.0431 30.9093 10
      vertex 6.08989 31.9243 10
    endloop
  endfacet
  facet normal -0.248687 -0.968584 -0
    outer loop
      vertex 10.0431 30.9093 10
      vertex 6.08989 31.9243 0
      vertex 10.0431 30.9093 0
    endloop
  endfacet
  facet normal -0.58779 -0.809014 0
    outer loop
      vertex 17.4144 27.4407 0
      vertex 20.7163 25.0417 10
      vertex 17.4144 27.4407 10
    endloop
  endfacet
  facet normal -0.58779 -0.809014 -0
    outer loop
      vertex 20.7163 25.0417 10
      vertex 17.4144 27.4407 0
      vertex 20.7163 25.0417 0
    endloop
  endfacet
  facet normal -0.481744 -0.876312 0
    outer loop
      vertex 13.8378 29.4069 0
      vertex 17.4144 27.4407 10
      vertex 13.8378 29.4069 10
    endloop
  endfacet
  facet normal -0.481744 -0.876312 -0
    outer loop
      vertex 17.4144 27.4407 10
      vertex 13.8378 29.4069 0
      vertex 17.4144 27.4407 0
    endloop
  endfacet
  facet normal 0.998026 -0.0627973 -1.16884e-19
    outer loop
      vertex -32.5 0 10
      vertex -32.2437 4.07333 0
      vertex -32.2437 4.07333 10
    endloop
  endfacet
  facet normal 0.998026 -0.0627973 -1.16884e-19
    outer loop
      vertex -32.2437 4.07333 0
      vertex -32.5 0 10
      vertex -32.5 0 0
    endloop
  endfacet
  facet normal 0.982291 -0.187364 -3.6128e-19
    outer loop
      vertex -32.2437 4.07333 10
      vertex -31.479 8.08242 0
      vertex -31.479 8.08242 10
    endloop
  endfacet
  facet normal 0.982291 -0.187364 -3.6128e-19
    outer loop
      vertex -31.479 8.08242 0
      vertex -32.2437 4.07333 10
      vertex -32.2437 4.07333 0
    endloop
  endfacet
  facet normal 0.844328 -0.535827 -7.93755e-18
    outer loop
      vertex -28.48 15.657 10
      vertex -26.2931 19.103 0
      vertex -26.2931 19.103 10
    endloop
  endfacet
  facet normal 0.844328 -0.535827 -7.93755e-18
    outer loop
      vertex -26.2931 19.103 0
      vertex -28.48 15.657 10
      vertex -28.48 15.657 0
    endloop
  endfacet
  facet normal 0.248687 -0.968584 0
    outer loop
      vertex -10.0431 30.9093 0
      vertex -6.08989 31.9243 10
      vertex -10.0431 30.9093 10
    endloop
  endfacet
  facet normal 0.248687 -0.968584 0
    outer loop
      vertex -6.08989 31.9243 10
      vertex -10.0431 30.9093 0
      vertex -6.08989 31.9243 0
    endloop
  endfacet
  facet normal 0.481744 -0.876312 0
    outer loop
      vertex -17.4144 27.4407 0
      vertex -13.8378 29.4069 10
      vertex -17.4144 27.4407 10
    endloop
  endfacet
  facet normal 0.481744 -0.876312 0
    outer loop
      vertex -13.8378 29.4069 10
      vertex -17.4144 27.4407 0
      vertex -13.8378 29.4069 0
    endloop
  endfacet
  facet normal 0.58779 -0.809014 0
    outer loop
      vertex -20.7163 25.0417 0
      vertex -17.4144 27.4407 10
      vertex -20.7163 25.0417 10
    endloop
  endfacet
  facet normal 0.58779 -0.809014 0
    outer loop
      vertex -17.4144 27.4407 10
      vertex -20.7163 25.0417 0
      vertex -17.4144 27.4407 0
    endloop
  endfacet
  facet normal -0.982291 0.187364 -3.6128e-19
    outer loop
      vertex 31.479 -8.08242 0
      vertex 32.2437 -4.07333 10
      vertex 32.2437 -4.07333 0
    endloop
  endfacet
  facet normal -0.982291 0.187364 -3.6128e-19
    outer loop
      vertex 32.2437 -4.07333 10
      vertex 31.479 -8.08242 0
      vertex 31.479 -8.08242 10
    endloop
  endfacet
  facet normal -0.125349 0.992113 0
    outer loop
      vertex 6.08989 -31.9243 0
      vertex 2.04069 -32.4359 10
      vertex 6.08989 -31.9243 10
    endloop
  endfacet
  facet normal -0.125349 0.992113 0
    outer loop
      vertex 2.04069 -32.4359 10
      vertex 6.08989 -31.9243 0
      vertex 2.04069 -32.4359 0
    endloop
  endfacet
  facet normal -0.904836 -0.42576 -3.18773e-18
    outer loop
      vertex 30.2177 11.964 0
      vertex 28.48 15.657 10
      vertex 28.48 15.657 0
    endloop
  endfacet
  facet normal -0.904836 -0.42576 -3.18773e-18
    outer loop
      vertex 28.48 15.657 10
      vertex 30.2177 11.964 0
      vertex 30.2177 11.964 10
    endloop
  endfacet
  facet normal -0.951049 -0.309039 7.8419e-18
    outer loop
      vertex 31.479 8.08242 0
      vertex 30.2177 11.964 10
      vertex 30.2177 11.964 0
    endloop
  endfacet
  facet normal -0.951049 -0.309039 7.8419e-18
    outer loop
      vertex 30.2177 11.964 10
      vertex 31.479 8.08242 0
      vertex 31.479 8.08242 10
    endloop
  endfacet
  facet normal -0.982291 -0.187364 3.6128e-19
    outer loop
      vertex 32.2437 4.07333 0
      vertex 31.479 8.08242 10
      vertex 31.479 8.08242 0
    endloop
  endfacet
  facet normal -0.982291 -0.187364 3.6128e-19
    outer loop
      vertex 31.479 8.08242 10
      vertex 32.2437 4.07333 0
      vertex 32.2437 4.07333 10
    endloop
  endfacet
  facet normal -0.684547 0.728968 0
    outer loop
      vertex 23.6915 -22.2478 0
      vertex 20.7163 -25.0417 10
      vertex 23.6915 -22.2478 10
    endloop
  endfacet
  facet normal -0.684547 0.728968 0
    outer loop
      vertex 20.7163 -25.0417 10
      vertex 23.6915 -22.2478 0
      vertex 20.7163 -25.0417 0
    endloop
  endfacet
  facet normal -0.844328 0.535827 -7.93755e-18
    outer loop
      vertex 26.2931 -19.103 0
      vertex 28.48 -15.657 10
      vertex 28.48 -15.657 0
    endloop
  endfacet
  facet normal -0.844328 0.535827 -7.93755e-18
    outer loop
      vertex 28.48 -15.657 10
      vertex 26.2931 -19.103 0
      vertex 26.2931 -19.103 10
    endloop
  endfacet
  facet normal 0.368119 0.929779 -0
    outer loop
      vertex -10.0431 -30.9093 0
      vertex -13.8378 -29.4069 10
      vertex -10.0431 -30.9093 10
    endloop
  endfacet
  facet normal 0.368119 0.929779 0
    outer loop
      vertex -13.8378 -29.4069 10
      vertex -10.0431 -30.9093 0
      vertex -13.8378 -29.4069 0
    endloop
  endfacet
  facet normal 0.125349 0.992113 -0
    outer loop
      vertex -2.04069 -32.4359 0
      vertex -6.08989 -31.9243 10
      vertex -2.04069 -32.4359 10
    endloop
  endfacet
  facet normal 0.125349 0.992113 0
    outer loop
      vertex -6.08989 -31.9243 10
      vertex -2.04069 -32.4359 0
      vertex -6.08989 -31.9243 0
    endloop
  endfacet
  facet normal 0.998026 0.0627973 1.16884e-19
    outer loop
      vertex -32.2437 -4.07333 10
      vertex -32.5 0 0
      vertex -32.5 0 10
    endloop
  endfacet
  facet normal 0.998026 0.0627973 1.16884e-19
    outer loop
      vertex -32.5 0 0
      vertex -32.2437 -4.07333 10
      vertex -32.2437 -4.07333 0
    endloop
  endfacet
  facet normal 0.951049 0.309039 7.8419e-18
    outer loop
      vertex -30.2177 -11.964 10
      vertex -31.479 -8.08242 0
      vertex -31.479 -8.08242 10
    endloop
  endfacet
  facet normal 0.951049 0.309039 7.8419e-18
    outer loop
      vertex -31.479 -8.08242 0
      vertex -30.2177 -11.964 10
      vertex -30.2177 -11.964 0
    endloop
  endfacet
  facet normal 0.770514 0.637423 2.67768e-18
    outer loop
      vertex -23.6915 -22.2478 10
      vertex -26.2931 -19.103 0
      vertex -26.2931 -19.103 10
    endloop
  endfacet
  facet normal 0.770514 0.637423 2.67768e-18
    outer loop
      vertex -26.2931 -19.103 0
      vertex -23.6915 -22.2478 10
      vertex -23.6915 -22.2478 0
    endloop
  endfacet
  facet normal -0.481744 0.876312 0
    outer loop
      vertex 17.4144 -27.4407 0
      vertex 13.8378 -29.4069 10
      vertex 17.4144 -27.4407 10
    endloop
  endfacet
  facet normal -0.481744 0.876312 0
    outer loop
      vertex 13.8378 -29.4069 10
      vertex 17.4144 -27.4407 0
      vertex 13.8378 -29.4069 0
    endloop
  endfacet
  facet normal -0.904836 0.42576 3.18773e-18
    outer loop
      vertex 28.48 -15.657 0
      vertex 30.2177 -11.964 10
      vertex 30.2177 -11.964 0
    endloop
  endfacet
  facet normal -0.904836 0.42576 3.18773e-18
    outer loop
      vertex 30.2177 -11.964 10
      vertex 28.48 -15.657 0
      vertex 28.48 -15.657 10
    endloop
  endfacet
  facet normal 0.58779 0.809014 -0
    outer loop
      vertex -17.4144 -27.4407 0
      vertex -20.7163 -25.0417 10
      vertex -17.4144 -27.4407 10
    endloop
  endfacet
  facet normal 0.58779 0.809014 0
    outer loop
      vertex -20.7163 -25.0417 10
      vertex -17.4144 -27.4407 0
      vertex -20.7163 -25.0417 0
    endloop
  endfacet
  facet normal 0 1 -0
    outer loop
      vertex 2.04069 -32.4359 0
      vertex -2.04069 -32.4359 10
      vertex 2.04069 -32.4359 10
    endloop
  endfacet
  facet normal 0 1 0
    outer loop
      vertex -2.04069 -32.4359 10
      vertex 2.04069 -32.4359 0
      vertex -2.04069 -32.4359 0
    endloop
  endfacet
  facet normal 0.248687 0.968584 -0
    outer loop
      vertex -6.08989 -31.9243 0
      vertex -10.0431 -30.9093 10
      vertex -6.08989 -31.9243 10
    endloop
  endfacet
  facet normal 0.248687 0.968584 0
    outer loop
      vertex -10.0431 -30.9093 10
      vertex -6.08989 -31.9243 0
      vertex -10.0431 -30.9093 0
    endloop
  endfacet
  facet normal 0.982291 0.187364 3.6128e-19
    outer loop
      vertex -31.479 -8.08242 10
      vertex -32.2437 -4.07333 0
      vertex -32.2437 -4.07333 10
    endloop
  endfacet
  facet normal 0.982291 0.187364 3.6128e-19
    outer loop
      vertex -32.2437 -4.07333 0
      vertex -31.479 -8.08242 10
      vertex -31.479 -8.08242 0
    endloop
  endfacet
  facet normal 0.684547 0.728968 -0
    outer loop
      vertex -20.7163 -25.0417 0
      vertex -23.6915 -22.2478 10
      vertex -20.7163 -25.0417 10
    endloop
  endfacet
  facet normal 0.684547 0.728968 0
    outer loop
      vertex -23.6915 -22.2478 10
      vertex -20.7163 -25.0417 0
      vertex -23.6915 -22.2478 0
    endloop
  endfacet
  facet normal 0.904836 0.42576 -3.18773e-18
    outer loop
      vertex -28.48 -15.657 10
      vertex -30.2177 -11.964 0
      vertex -30.2177 -11.964 10
    endloop
  endfacet
  facet normal 0.904836 0.42576 -3.18773e-18
    outer loop
      vertex -30.2177 -11.964 0
      vertex -28.48 -15.657 10
      vertex -28.48 -15.657 0
    endloop
  endfacet
  facet normal -0.58779 0.809014 0
    outer loop
      vertex 20.7163 -25.0417 0
      vertex 17.4144 -27.4407 10
      vertex 20.7163 -25.0417 10
    endloop
  endfacet
  facet normal -0.58779 0.809014 0
    outer loop
      vertex 17.4144 -27.4407 10
      vertex 20.7163 -25.0417 0
      vertex 17.4144 -27.4407 0
    endloop
  endfacet
  facet normal -0.770514 0.637423 -2.67768e-18
    outer loop
      vertex 23.6915 -22.2478 0
      vertex 26.2931 -19.103 10
      vertex 26.2931 -19.103 0
    endloop
  endfacet
  facet normal -0.770514 0.637423 -2.67768e-18
    outer loop
      vertex 26.2931 -19.103 10
      vertex 23.6915 -22.2478 0
      vertex 23.6915 -22.2478 10
    endloop
  endfacet
  facet normal 0.481744 0.876312 -0
    outer loop
      vertex -13.8378 -29.4069 0
      vertex -17.4144 -27.4407 10
      vertex -13.8378 -29.4069 10
    endloop
  endfacet
  facet normal 0.481744 0.876312 0
    outer loop
      vertex -17.4144 -27.4407 10
      vertex -13.8378 -29.4069 0
      vertex -17.4144 -27.4407 0
    endloop
  endfacet
  facet normal 0.844328 0.535827 7.93755e-18
    outer loop
      vertex -26.2931 -19.103 10
      vertex -28.48 -15.657 0
      vertex -28.48 -15.657 10
    endloop
  endfacet
  facet normal 0.844328 0.535827 7.93755e-18
    outer loop
      vertex -28.48 -15.657 0
      vertex -26.2931 -19.103 10
      vertex -26.2931 -19.103 0
    endloop
  endfacet
endsolid OpenSCAD_Model
