solid OpenSCAD_Model
  facet normal 0.998026 0.0628096 0
    outer loop
      vertex 18.7 0 4
      vertex 18.5525 2.34373 0
      vertex 18.5525 2.34373 4
    endloop
  endfacet
  facet normal 0.998026 0.0628096 0
    outer loop
      vertex 18.5525 2.34373 0
      vertex 18.7 0 4
      vertex 18.7 0 0
    endloop
  endfacet
  facet normal -0.998026 0.0628096 0
    outer loop
      vertex -18.7 0 0
      vertex -18.5525 2.34373 4
      vertex -18.5525 2.34373 0
    endloop
  endfacet
  facet normal -0.998026 0.0628096 0
    outer loop
      vertex -18.5525 2.34373 4
      vertex -18.7 0 0
      vertex -18.7 0 4
    endloop
  endfacet
  facet normal 0 1 -0
    outer loop
      vertex 1.17418 18.6631 0
      vertex -1.17418 18.6631 4
      vertex 1.17418 18.6631 4
    endloop
  endfacet
  facet normal 0 1 0
    outer loop
      vertex -1.17418 18.6631 4
      vertex 1.17418 18.6631 0
      vertex -1.17418 18.6631 0
    endloop
  endfacet
  facet normal 0 -1 0
    outer loop
      vertex -1.17418 -18.6631 0
      vertex 1.17418 -18.6631 4
      vertex -1.17418 -18.6631 4
    endloop
  endfacet
  facet normal 0 -1 -0
    outer loop
      vertex 1.17418 -18.6631 4
      vertex -1.17418 -18.6631 0
      vertex 1.17418 -18.6631 0
    endloop
  endfacet
  facet normal 0.684551 0.728965 -0
    outer loop
      vertex 13.6317 12.801 0
      vertex 11.9198 14.4086 4
      vertex 13.6317 12.801 4
    endloop
  endfacet
  facet normal 0.684551 0.728965 0
    outer loop
      vertex 11.9198 14.4086 4
      vertex 13.6317 12.801 0
      vertex 11.9198 14.4086 0
    endloop
  endfacet
  facet normal -0.684551 0.728965 0
    outer loop
      vertex -11.9198 14.4086 0
      vertex -13.6317 12.801 4
      vertex -11.9198 14.4086 4
    endloop
  endfacet
  facet normal -0.684551 0.728965 0
    outer loop
      vertex -13.6317 12.801 4
      vertex -11.9198 14.4086 0
      vertex -13.6317 12.801 0
    endloop
  endfacet
  facet normal -0.368129 0.929775 0
    outer loop
      vertex -5.77862 17.7848 0
      vertex -7.96207 16.9203 4
      vertex -5.77862 17.7848 4
    endloop
  endfacet
  facet normal -0.368129 0.929775 0
    outer loop
      vertex -7.96207 16.9203 4
      vertex -5.77862 17.7848 0
      vertex -7.96207 16.9203 0
    endloop
  endfacet
  facet normal 0.904824 0.425785 0
    outer loop
      vertex 17.3868 6.88393 4
      vertex 16.3869 9.00879 0
      vertex 16.3869 9.00879 4
    endloop
  endfacet
  facet normal 0.904824 0.425785 0
    outer loop
      vertex 16.3869 9.00879 0
      vertex 17.3868 6.88393 4
      vertex 17.3868 6.88393 0
    endloop
  endfacet
  facet normal 0.98229 0.187365 0
    outer loop
      vertex 18.5525 2.34373 4
      vertex 18.1125 4.6505 0
      vertex 18.1125 4.6505 4
    endloop
  endfacet
  facet normal 0.98229 0.187365 0
    outer loop
      vertex 18.1125 4.6505 0
      vertex 18.5525 2.34373 4
      vertex 18.5525 2.34373 0
    endloop
  endfacet
  facet normal 0.844334 0.535818 0
    outer loop
      vertex 16.3869 9.00879 4
      vertex 15.1286 10.9916 0
      vertex 15.1286 10.9916 4
    endloop
  endfacet
  facet normal 0.844334 0.535818 0
    outer loop
      vertex 15.1286 10.9916 0
      vertex 16.3869 9.00879 4
      vertex 16.3869 9.00879 0
    endloop
  endfacet
  facet normal 0.368129 0.929775 -0
    outer loop
      vertex 7.96207 16.9203 0
      vertex 5.77862 17.7848 4
      vertex 7.96207 16.9203 4
    endloop
  endfacet
  facet normal 0.368129 0.929775 0
    outer loop
      vertex 5.77862 17.7848 4
      vertex 7.96207 16.9203 0
      vertex 5.77862 17.7848 0
    endloop
  endfacet
  facet normal 0.248684 0.968585 -0
    outer loop
      vertex 5.77862 17.7848 0
      vertex 3.50403 18.3688 4
      vertex 5.77862 17.7848 4
    endloop
  endfacet
  facet normal 0.248684 0.968585 0
    outer loop
      vertex 3.50403 18.3688 4
      vertex 5.77862 17.7848 0
      vertex 3.50403 18.3688 0
    endloop
  endfacet
  facet normal 0.587789 0.809014 -0
    outer loop
      vertex 11.9198 14.4086 0
      vertex 10.02 15.7889 4
      vertex 11.9198 14.4086 4
    endloop
  endfacet
  facet normal 0.587789 0.809014 0
    outer loop
      vertex 10.02 15.7889 4
      vertex 11.9198 14.4086 0
      vertex 10.02 15.7889 0
    endloop
  endfacet
  facet normal -0.904824 0.425785 0
    outer loop
      vertex -17.3868 6.88393 0
      vertex -16.3869 9.00879 4
      vertex -16.3869 9.00879 0
    endloop
  endfacet
  facet normal -0.904824 0.425785 0
    outer loop
      vertex -16.3869 9.00879 4
      vertex -17.3868 6.88393 0
      vertex -17.3868 6.88393 4
    endloop
  endfacet
  facet normal -0.770506 0.637433 0
    outer loop
      vertex -15.1286 10.9916 0
      vertex -13.6317 12.801 4
      vertex -13.6317 12.801 0
    endloop
  endfacet
  facet normal -0.770506 0.637433 0
    outer loop
      vertex -13.6317 12.801 4
      vertex -15.1286 10.9916 0
      vertex -15.1286 10.9916 4
    endloop
  endfacet
  facet normal -0.951055 0.309023 0
    outer loop
      vertex -18.1125 4.6505 0
      vertex -17.3868 6.88393 4
      vertex -17.3868 6.88393 0
    endloop
  endfacet
  facet normal -0.951055 0.309023 0
    outer loop
      vertex -17.3868 6.88393 4
      vertex -18.1125 4.6505 0
      vertex -18.1125 4.6505 4
    endloop
  endfacet
  facet normal -0.125321 0.992116 0
    outer loop
      vertex -1.17418 18.6631 0
      vertex -3.50403 18.3688 4
      vertex -1.17418 18.6631 4
    endloop
  endfacet
  facet normal -0.125321 0.992116 0
    outer loop
      vertex -3.50403 18.3688 4
      vertex -1.17418 18.6631 0
      vertex -3.50403 18.3688 0
    endloop
  endfacet
  facet normal 0.125321 -0.992116 0
    outer loop
      vertex 1.17418 -18.6631 0
      vertex 3.50403 -18.3688 4
      vertex 1.17418 -18.6631 4
    endloop
  endfacet
  facet normal 0.125321 -0.992116 0
    outer loop
      vertex 3.50403 -18.3688 4
      vertex 1.17418 -18.6631 0
      vertex 3.50403 -18.3688 0
    endloop
  endfacet
  facet normal 0.951055 0.309023 0
    outer loop
      vertex 18.1125 4.6505 4
      vertex 17.3868 6.88393 0
      vertex 17.3868 6.88393 4
    endloop
  endfacet
  facet normal 0.951055 0.309023 0
    outer loop
      vertex 17.3868 6.88393 0
      vertex 18.1125 4.6505 4
      vertex 18.1125 4.6505 0
    endloop
  endfacet
  facet normal 0.770506 0.637433 0
    outer loop
      vertex 15.1286 10.9916 4
      vertex 13.6317 12.801 0
      vertex 13.6317 12.801 4
    endloop
  endfacet
  facet normal 0.770506 0.637433 0
    outer loop
      vertex 13.6317 12.801 0
      vertex 15.1286 10.9916 4
      vertex 15.1286 10.9916 0
    endloop
  endfacet
  facet normal 0.125321 0.992116 -0
    outer loop
      vertex 3.50403 18.3688 0
      vertex 1.17418 18.6631 4
      vertex 3.50403 18.3688 4
    endloop
  endfacet
  facet normal 0.125321 0.992116 0
    outer loop
      vertex 1.17418 18.6631 4
      vertex 3.50403 18.3688 0
      vertex 1.17418 18.6631 0
    endloop
  endfacet
  facet normal 0.481768 0.876299 -0
    outer loop
      vertex 10.02 15.7889 0
      vertex 7.96207 16.9203 4
      vertex 10.02 15.7889 4
    endloop
  endfacet
  facet normal 0.481768 0.876299 0
    outer loop
      vertex 7.96207 16.9203 4
      vertex 10.02 15.7889 0
      vertex 7.96207 16.9203 0
    endloop
  endfacet
  facet normal -0.844334 0.535818 0
    outer loop
      vertex -16.3869 9.00879 0
      vertex -15.1286 10.9916 4
      vertex -15.1286 10.9916 0
    endloop
  endfacet
  facet normal -0.844334 0.535818 0
    outer loop
      vertex -15.1286 10.9916 4
      vertex -16.3869 9.00879 0
      vertex -16.3869 9.00879 4
    endloop
  endfacet
  facet normal -0.98229 0.187365 0
    outer loop
      vertex -18.5525 2.34373 0
      vertex -18.1125 4.6505 4
      vertex -18.1125 4.6505 0
    endloop
  endfacet
  facet normal -0.98229 0.187365 0
    outer loop
      vertex -18.1125 4.6505 4
      vertex -18.5525 2.34373 0
      vertex -18.5525 2.34373 4
    endloop
  endfacet
  facet normal 0 0 1
    outer loop
      vertex 15 0 4
      vertex 18.7 0 4
      vertex 18.5525 2.34373 4
    endloop
  endfacet
  facet normal 0 0 1
    outer loop
      vertex 14.8817 1.88 4
      vertex 18.5525 2.34373 4
      vertex 18.1125 4.6505 4
    endloop
  endfacet
  facet normal 0 0 1
    outer loop
      vertex 18.7 0 4
      vertex 15 0 4
      vertex 18.5525 -2.34373 4
    endloop
  endfacet
  facet normal 0 0 1
    outer loop
      vertex 14.5287 3.73035 4
      vertex 18.1125 4.6505 4
      vertex 17.3868 6.88393 4
    endloop
  endfacet
  facet normal -0 0 1
    outer loop
      vertex 14.8817 -1.88 4
      vertex 18.5525 -2.34373 4
      vertex 15 0 4
    endloop
  endfacet
  facet normal 0 0 1
    outer loop
      vertex 13.9466 5.52187 4
      vertex 17.3868 6.88393 4
      vertex 16.3869 9.00879 4
    endloop
  endfacet
  facet normal 0 0 1
    outer loop
      vertex 18.5525 -2.34373 4
      vertex 14.8817 -1.88 4
      vertex 18.1125 -4.6505 4
    endloop
  endfacet
  facet normal 0 0 1
    outer loop
      vertex 13.1446 7.22631 4
      vertex 16.3869 9.00879 4
      vertex 15.1286 10.9916 4
    endloop
  endfacet
  facet normal -0 0 1
    outer loop
      vertex 14.5287 -3.73035 4
      vertex 18.1125 -4.6505 4
      vertex 14.8817 -1.88 4
    endloop
  endfacet
  facet normal 0 0 1
    outer loop
      vertex 18.1125 -4.6505 4
      vertex 14.5287 -3.73035 4
      vertex 17.3868 -6.88393 4
    endloop
  endfacet
  facet normal 0 0 1
    outer loop
      vertex 18.5525 2.34373 4
      vertex 14.8817 1.88 4
      vertex 15 0 4
    endloop
  endfacet
  facet normal 0 0 1
    outer loop
      vertex 18.1125 4.6505 4
      vertex 14.5287 3.73035 4
      vertex 14.8817 1.88 4
    endloop
  endfacet
  facet normal 0 0 1
    outer loop
      vertex 17.3868 6.88393 4
      vertex 13.9466 5.52187 4
      vertex 14.5287 3.73035 4
    endloop
  endfacet
  facet normal 0 0 1
    outer loop
      vertex 12.1353 8.81678 4
      vertex 15.1286 10.9916 4
      vertex 13.6317 12.801 4
    endloop
  endfacet
  facet normal 0 0 1
    outer loop
      vertex 16.3869 9.00879 4
      vertex 13.1446 7.22631 4
      vertex 13.9466 5.52187 4
    endloop
  endfacet
  facet normal 0 0 1
    outer loop
      vertex 15.1286 10.9916 4
      vertex 12.1353 8.81678 4
      vertex 13.1446 7.22631 4
    endloop
  endfacet
  facet normal 0 0 1
    outer loop
      vertex 10.9345 10.2682 4
      vertex 13.6317 12.801 4
      vertex 11.9198 14.4086 4
    endloop
  endfacet
  facet normal 0 0 1
    outer loop
      vertex 13.6317 12.801 4
      vertex 10.9345 10.2682 4
      vertex 12.1353 8.81678 4
    endloop
  endfacet
  facet normal 0 0 1
    outer loop
      vertex 9.56136 11.5577 4
      vertex 11.9198 14.4086 4
      vertex 10.02 15.7889 4
    endloop
  endfacet
  facet normal 0 0 1
    outer loop
      vertex 11.9198 14.4086 4
      vertex 9.56136 11.5577 4
      vertex 10.9345 10.2682 4
    endloop
  endfacet
  facet normal 0 0 1
    outer loop
      vertex 10.02 15.7889 4
      vertex 8.0374 12.6649 4
      vertex 9.56136 11.5577 4
    endloop
  endfacet
  facet normal 0 0 1
    outer loop
      vertex 7.96207 16.9203 4
      vertex 8.0374 12.6649 4
      vertex 10.02 15.7889 4
    endloop
  endfacet
  facet normal 0 0 1
    outer loop
      vertex 7.96207 16.9203 4
      vertex 6.38669 13.5724 4
      vertex 8.0374 12.6649 4
    endloop
  endfacet
  facet normal 0 0 1
    outer loop
      vertex 5.77862 17.7848 4
      vertex 6.38669 13.5724 4
      vertex 7.96207 16.9203 4
    endloop
  endfacet
  facet normal 0 0 1
    outer loop
      vertex 5.77862 17.7848 4
      vertex 4.63525 14.2658 4
      vertex 6.38669 13.5724 4
    endloop
  endfacet
  facet normal 0 0 1
    outer loop
      vertex 3.50403 18.3688 4
      vertex 4.63525 14.2658 4
      vertex 5.77862 17.7848 4
    endloop
  endfacet
  facet normal 0 0 1
    outer loop
      vertex 3.50403 18.3688 4
      vertex 2.81072 14.7343 4
      vertex 4.63525 14.2658 4
    endloop
  endfacet
  facet normal 0 0 1
    outer loop
      vertex 1.17418 18.6631 4
      vertex 2.81072 14.7343 4
      vertex 3.50403 18.3688 4
    endloop
  endfacet
  facet normal 0 0 1
    outer loop
      vertex 1.17418 18.6631 4
      vertex 0.941857 14.9704 4
      vertex 2.81072 14.7343 4
    endloop
  endfacet
  facet normal 0 0 1
    outer loop
      vertex 1.17418 18.6631 4
      vertex -0.941857 14.9704 4
      vertex 0.941857 14.9704 4
    endloop
  endfacet
  facet normal -0 0 1
    outer loop
      vertex -1.17418 18.6631 4
      vertex -0.941857 14.9704 4
      vertex 1.17418 18.6631 4
    endloop
  endfacet
  facet normal 0 0 1
    outer loop
      vertex -1.17418 18.6631 4
      vertex -2.81072 14.7343 4
      vertex -0.941857 14.9704 4
    endloop
  endfacet
  facet normal -0 0 1
    outer loop
      vertex -3.50403 18.3688 4
      vertex -2.81072 14.7343 4
      vertex -1.17418 18.6631 4
    endloop
  endfacet
  facet normal 0 0 1
    outer loop
      vertex -3.50403 18.3688 4
      vertex -4.63525 14.2658 4
      vertex -2.81072 14.7343 4
    endloop
  endfacet
  facet normal -0 0 1
    outer loop
      vertex -5.77862 17.7848 4
      vertex -4.63525 14.2658 4
      vertex -3.50403 18.3688 4
    endloop
  endfacet
  facet normal 0 0 1
    outer loop
      vertex -5.77862 17.7848 4
      vertex -6.38669 13.5724 4
      vertex -4.63525 14.2658 4
    endloop
  endfacet
  facet normal -0 0 1
    outer loop
      vertex -7.96207 16.9203 4
      vertex -6.38669 13.5724 4
      vertex -5.77862 17.7848 4
    endloop
  endfacet
  facet normal 0 0 1
    outer loop
      vertex -7.96207 16.9203 4
      vertex -8.0374 12.6649 4
      vertex -6.38669 13.5724 4
    endloop
  endfacet
  facet normal -0 0 1
    outer loop
      vertex -10.02 15.7889 4
      vertex -8.0374 12.6649 4
      vertex -7.96207 16.9203 4
    endloop
  endfacet
  facet normal 0 0 1
    outer loop
      vertex -8.0374 12.6649 4
      vertex -10.02 15.7889 4
      vertex -9.56136 11.5577 4
    endloop
  endfacet
  facet normal -0 0 1
    outer loop
      vertex -11.9198 14.4086 4
      vertex -9.56136 11.5577 4
      vertex -10.02 15.7889 4
    endloop
  endfacet
  facet normal 0 0 1
    outer loop
      vertex -9.56136 11.5577 4
      vertex -11.9198 14.4086 4
      vertex -10.9345 10.2682 4
    endloop
  endfacet
  facet normal -0 0 1
    outer loop
      vertex -13.6317 12.801 4
      vertex -10.9345 10.2682 4
      vertex -11.9198 14.4086 4
    endloop
  endfacet
  facet normal 0 0 1
    outer loop
      vertex -10.9345 10.2682 4
      vertex -13.6317 12.801 4
      vertex -12.1353 8.81678 4
    endloop
  endfacet
  facet normal -0 0 1
    outer loop
      vertex -15.1286 10.9916 4
      vertex -12.1353 8.81678 4
      vertex -13.6317 12.801 4
    endloop
  endfacet
  facet normal 0 0 1
    outer loop
      vertex -12.1353 8.81678 4
      vertex -15.1286 10.9916 4
      vertex -13.1446 7.22631 4
    endloop
  endfacet
  facet normal -0 0 1
    outer loop
      vertex -16.3869 9.00879 4
      vertex -13.1446 7.22631 4
      vertex -15.1286 10.9916 4
    endloop
  endfacet
  facet normal 0 0 1
    outer loop
      vertex -13.1446 7.22631 4
      vertex -16.3869 9.00879 4
      vertex -13.9466 5.52187 4
    endloop
  endfacet
  facet normal 0 0 1
    outer loop
      vertex -13.9466 5.52187 4
      vertex -17.3868 6.88393 4
      vertex -14.5287 3.73035 4
    endloop
  endfacet
  facet normal -0 0 1
    outer loop
      vertex -17.3868 6.88393 4
      vertex -13.9466 5.52187 4
      vertex -16.3869 9.00879 4
    endloop
  endfacet
  facet normal -0 0 1
    outer loop
      vertex 13.9466 -5.52187 4
      vertex 17.3868 -6.88393 4
      vertex 14.5287 -3.73035 4
    endloop
  endfacet
  facet normal 0 0 1
    outer loop
      vertex 17.3868 -6.88393 4
      vertex 13.9466 -5.52187 4
      vertex 16.3869 -9.00879 4
    endloop
  endfacet
  facet normal -0 0 1
    outer loop
      vertex 13.1446 -7.22631 4
      vertex 16.3869 -9.00879 4
      vertex 13.9466 -5.52187 4
    endloop
  endfacet
  facet normal 0 0 1
    outer loop
      vertex 16.3869 -9.00879 4
      vertex 13.1446 -7.22631 4
      vertex 15.1286 -10.9916 4
    endloop
  endfacet
  facet normal -0 0 1
    outer loop
      vertex 12.1353 -8.81678 4
      vertex 15.1286 -10.9916 4
      vertex 13.1446 -7.22631 4
    endloop
  endfacet
  facet normal 0 0 1
    outer loop
      vertex 15.1286 -10.9916 4
      vertex 12.1353 -8.81678 4
      vertex 13.6317 -12.801 4
    endloop
  endfacet
  facet normal -0 0 1
    outer loop
      vertex 10.9345 -10.2682 4
      vertex 13.6317 -12.801 4
      vertex 12.1353 -8.81678 4
    endloop
  endfacet
  facet normal 0 0 1
    outer loop
      vertex 13.6317 -12.801 4
      vertex 10.9345 -10.2682 4
      vertex 11.9198 -14.4086 4
    endloop
  endfacet
  facet normal -0 0 1
    outer loop
      vertex 9.56136 -11.5577 4
      vertex 11.9198 -14.4086 4
      vertex 10.9345 -10.2682 4
    endloop
  endfacet
  facet normal 0 0 1
    outer loop
      vertex 11.9198 -14.4086 4
      vertex 9.56136 -11.5577 4
      vertex 10.02 -15.7889 4
    endloop
  endfacet
  facet normal -0 0 1
    outer loop
      vertex 8.0374 -12.6649 4
      vertex 10.02 -15.7889 4
      vertex 9.56136 -11.5577 4
    endloop
  endfacet
  facet normal 0 0 1
    outer loop
      vertex 8.0374 -12.6649 4
      vertex 7.96207 -16.9203 4
      vertex 10.02 -15.7889 4
    endloop
  endfacet
  facet normal -0 0 1
    outer loop
      vertex 6.38669 -13.5724 4
      vertex 7.96207 -16.9203 4
      vertex 8.0374 -12.6649 4
    endloop
  endfacet
  facet normal 0 0 1
    outer loop
      vertex 6.38669 -13.5724 4
      vertex 5.77862 -17.7848 4
      vertex 7.96207 -16.9203 4
    endloop
  endfacet
  facet normal -0 0 1
    outer loop
      vertex 4.63525 -14.2658 4
      vertex 5.77862 -17.7848 4
      vertex 6.38669 -13.5724 4
    endloop
  endfacet
  facet normal 0 0 1
    outer loop
      vertex 4.63525 -14.2658 4
      vertex 3.50403 -18.3688 4
      vertex 5.77862 -17.7848 4
    endloop
  endfacet
  facet normal -0 0 1
    outer loop
      vertex 2.81072 -14.7343 4
      vertex 3.50403 -18.3688 4
      vertex 4.63525 -14.2658 4
    endloop
  endfacet
  facet normal 0 0 1
    outer loop
      vertex 2.81072 -14.7343 4
      vertex 1.17418 -18.6631 4
      vertex 3.50403 -18.3688 4
    endloop
  endfacet
  facet normal -0 0 1
    outer loop
      vertex 0.941857 -14.9704 4
      vertex 1.17418 -18.6631 4
      vertex 2.81072 -14.7343 4
    endloop
  endfacet
  facet normal -0 0 1
    outer loop
      vertex -0.941857 -14.9704 4
      vertex 1.17418 -18.6631 4
      vertex 0.941857 -14.9704 4
    endloop
  endfacet
  facet normal 0 0 1
    outer loop
      vertex -0.941857 -14.9704 4
      vertex -1.17418 -18.6631 4
      vertex 1.17418 -18.6631 4
    endloop
  endfacet
  facet normal 0 0 1
    outer loop
      vertex -2.81072 -14.7343 4
      vertex -1.17418 -18.6631 4
      vertex -0.941857 -14.9704 4
    endloop
  endfacet
  facet normal 0 0 1
    outer loop
      vertex -2.81072 -14.7343 4
      vertex -3.50403 -18.3688 4
      vertex -1.17418 -18.6631 4
    endloop
  endfacet
  facet normal 0 0 1
    outer loop
      vertex -4.63525 -14.2658 4
      vertex -3.50403 -18.3688 4
      vertex -2.81072 -14.7343 4
    endloop
  endfacet
  facet normal 0 0 1
    outer loop
      vertex -4.63525 -14.2658 4
      vertex -5.77862 -17.7848 4
      vertex -3.50403 -18.3688 4
    endloop
  endfacet
  facet normal 0 0 1
    outer loop
      vertex -6.38669 -13.5724 4
      vertex -5.77862 -17.7848 4
      vertex -4.63525 -14.2658 4
    endloop
  endfacet
  facet normal 0 0 1
    outer loop
      vertex -6.38669 -13.5724 4
      vertex -7.96207 -16.9203 4
      vertex -5.77862 -17.7848 4
    endloop
  endfacet
  facet normal 0 0 1
    outer loop
      vertex -8.0374 -12.6649 4
      vertex -7.96207 -16.9203 4
      vertex -6.38669 -13.5724 4
    endloop
  endfacet
  facet normal 0 0 1
    outer loop
      vertex -10.02 -15.7889 4
      vertex -8.0374 -12.6649 4
      vertex -9.56136 -11.5577 4
    endloop
  endfacet
  facet normal 0 0 1
    outer loop
      vertex -8.0374 -12.6649 4
      vertex -10.02 -15.7889 4
      vertex -7.96207 -16.9203 4
    endloop
  endfacet
  facet normal 0 0 1
    outer loop
      vertex -11.9198 -14.4086 4
      vertex -9.56136 -11.5577 4
      vertex -10.9345 -10.2682 4
    endloop
  endfacet
  facet normal 0 0 1
    outer loop
      vertex -9.56136 -11.5577 4
      vertex -11.9198 -14.4086 4
      vertex -10.02 -15.7889 4
    endloop
  endfacet
  facet normal 0 0 1
    outer loop
      vertex -13.6317 -12.801 4
      vertex -10.9345 -10.2682 4
      vertex -12.1353 -8.81678 4
    endloop
  endfacet
  facet normal 0 0 1
    outer loop
      vertex -15.1286 -10.9916 4
      vertex -12.1353 -8.81678 4
      vertex -13.1446 -7.22631 4
    endloop
  endfacet
  facet normal 0 0 1
    outer loop
      vertex -10.9345 -10.2682 4
      vertex -13.6317 -12.801 4
      vertex -11.9198 -14.4086 4
    endloop
  endfacet
  facet normal 0 0 1
    outer loop
      vertex -16.3869 -9.00879 4
      vertex -13.1446 -7.22631 4
      vertex -13.9466 -5.52187 4
    endloop
  endfacet
  facet normal 0 0 1
    outer loop
      vertex -17.3868 -6.88393 4
      vertex -13.9466 -5.52187 4
      vertex -14.5287 -3.73035 4
    endloop
  endfacet
  facet normal 0 0 1
    outer loop
      vertex -18.1125 -4.6505 4
      vertex -14.5287 -3.73035 4
      vertex -14.8817 -1.88 4
    endloop
  endfacet
  facet normal 0 0 1
    outer loop
      vertex -12.1353 -8.81678 4
      vertex -15.1286 -10.9916 4
      vertex -13.6317 -12.801 4
    endloop
  endfacet
  facet normal 0 0 1
    outer loop
      vertex -18.5525 -2.34373 4
      vertex -14.8817 -1.88 4
      vertex -15 0 4
    endloop
  endfacet
  facet normal -0 0 1
    outer loop
      vertex -18.1125 4.6505 4
      vertex -14.5287 3.73035 4
      vertex -17.3868 6.88393 4
    endloop
  endfacet
  facet normal 0 0 1
    outer loop
      vertex -14.5287 3.73035 4
      vertex -18.1125 4.6505 4
      vertex -14.8817 1.88 4
    endloop
  endfacet
  facet normal 0 0 1
    outer loop
      vertex -13.1446 -7.22631 4
      vertex -16.3869 -9.00879 4
      vertex -15.1286 -10.9916 4
    endloop
  endfacet
  facet normal -0 0 1
    outer loop
      vertex -18.5525 2.34373 4
      vertex -14.8817 1.88 4
      vertex -18.1125 4.6505 4
    endloop
  endfacet
  facet normal 0 0 1
    outer loop
      vertex -13.9466 -5.52187 4
      vertex -17.3868 -6.88393 4
      vertex -16.3869 -9.00879 4
    endloop
  endfacet
  facet normal 0 0 1
    outer loop
      vertex -14.8817 1.88 4
      vertex -18.5525 2.34373 4
      vertex -15 0 4
    endloop
  endfacet
  facet normal 0 0 1
    outer loop
      vertex -14.5287 -3.73035 4
      vertex -18.1125 -4.6505 4
      vertex -17.3868 -6.88393 4
    endloop
  endfacet
  facet normal 0 0 1
    outer loop
      vertex -18.7 0 4
      vertex -15 0 4
      vertex -18.5525 2.34373 4
    endloop
  endfacet
  facet normal 0 0 1
    outer loop
      vertex -14.8817 -1.88 4
      vertex -18.5525 -2.34373 4
      vertex -18.1125 -4.6505 4
    endloop
  endfacet
  facet normal 0 0 1
    outer loop
      vertex -15 0 4
      vertex -18.7 0 4
      vertex -18.5525 -2.34373 4
    endloop
  endfacet
  facet normal -0.481768 0.876299 0
    outer loop
      vertex -7.96207 16.9203 0
      vertex -10.02 15.7889 4
      vertex -7.96207 16.9203 4
    endloop
  endfacet
  facet normal -0.481768 0.876299 0
    outer loop
      vertex -10.02 15.7889 4
      vertex -7.96207 16.9203 0
      vertex -10.02 15.7889 0
    endloop
  endfacet
  facet normal -0.587789 0.809014 0
    outer loop
      vertex -10.02 15.7889 0
      vertex -11.9198 14.4086 4
      vertex -10.02 15.7889 4
    endloop
  endfacet
  facet normal -0.587789 0.809014 0
    outer loop
      vertex -11.9198 14.4086 4
      vertex -10.02 15.7889 0
      vertex -11.9198 14.4086 0
    endloop
  endfacet
  facet normal -0.248684 0.968585 0
    outer loop
      vertex -3.50403 18.3688 0
      vertex -5.77862 17.7848 4
      vertex -3.50403 18.3688 4
    endloop
  endfacet
  facet normal -0.248684 0.968585 0
    outer loop
      vertex -5.77862 17.7848 4
      vertex -3.50403 18.3688 0
      vertex -5.77862 17.7848 0
    endloop
  endfacet
  facet normal 0.998026 -0.0628096 0
    outer loop
      vertex 18.5525 -2.34373 4
      vertex 18.7 0 0
      vertex 18.7 0 4
    endloop
  endfacet
  facet normal 0.998026 -0.0628096 0
    outer loop
      vertex 18.7 0 0
      vertex 18.5525 -2.34373 4
      vertex 18.5525 -2.34373 0
    endloop
  endfacet
  facet normal 0.951055 -0.309023 0
    outer loop
      vertex 17.3868 -6.88393 4
      vertex 18.1125 -4.6505 0
      vertex 18.1125 -4.6505 4
    endloop
  endfacet
  facet normal 0.951055 -0.309023 0
    outer loop
      vertex 18.1125 -4.6505 0
      vertex 17.3868 -6.88393 4
      vertex 17.3868 -6.88393 0
    endloop
  endfacet
  facet normal 0.98229 -0.187365 0
    outer loop
      vertex 18.1125 -4.6505 4
      vertex 18.5525 -2.34373 0
      vertex 18.5525 -2.34373 4
    endloop
  endfacet
  facet normal 0.98229 -0.187365 0
    outer loop
      vertex 18.5525 -2.34373 0
      vertex 18.1125 -4.6505 4
      vertex 18.1125 -4.6505 0
    endloop
  endfacet
  facet normal -0.904824 -0.425785 0
    outer loop
      vertex -16.3869 -9.00879 0
      vertex -17.3868 -6.88393 4
      vertex -17.3868 -6.88393 0
    endloop
  endfacet
  facet normal -0.904824 -0.425785 0
    outer loop
      vertex -17.3868 -6.88393 4
      vertex -16.3869 -9.00879 0
      vertex -16.3869 -9.00879 4
    endloop
  endfacet
  facet normal 0 0 -1
    outer loop
      vertex 15 0 0
      vertex 18.7 0 0
      vertex 18.5525 -2.34373 0
    endloop
  endfacet
  facet normal 0 0 -1
    outer loop
      vertex 14.8817 -1.88 0
      vertex 18.5525 -2.34373 0
      vertex 18.1125 -4.6505 0
    endloop
  endfacet
  facet normal 0 0 -1
    outer loop
      vertex 18.7 0 0
      vertex 15 0 0
      vertex 18.5525 2.34373 0
    endloop
  endfacet
  facet normal 0 0 -1
    outer loop
      vertex 14.5287 -3.73035 0
      vertex 18.1125 -4.6505 0
      vertex 17.3868 -6.88393 0
    endloop
  endfacet
  facet normal 0 0 -1
    outer loop
      vertex 14.8817 1.88 0
      vertex 18.5525 2.34373 0
      vertex 15 0 0
    endloop
  endfacet
  facet normal 0 0 -1
    outer loop
      vertex 13.9466 -5.52187 0
      vertex 17.3868 -6.88393 0
      vertex 16.3869 -9.00879 0
    endloop
  endfacet
  facet normal -0 0 -1
    outer loop
      vertex 18.5525 2.34373 0
      vertex 14.8817 1.88 0
      vertex 18.1125 4.6505 0
    endloop
  endfacet
  facet normal 0 0 -1
    outer loop
      vertex 13.1446 -7.22631 0
      vertex 16.3869 -9.00879 0
      vertex 15.1286 -10.9916 0
    endloop
  endfacet
  facet normal 0 0 -1
    outer loop
      vertex 14.5287 3.73035 0
      vertex 18.1125 4.6505 0
      vertex 14.8817 1.88 0
    endloop
  endfacet
  facet normal -0 0 -1
    outer loop
      vertex 18.1125 4.6505 0
      vertex 14.5287 3.73035 0
      vertex 17.3868 6.88393 0
    endloop
  endfacet
  facet normal 0 0 -1
    outer loop
      vertex 18.5525 -2.34373 0
      vertex 14.8817 -1.88 0
      vertex 15 0 0
    endloop
  endfacet
  facet normal 0 0 -1
    outer loop
      vertex 18.1125 -4.6505 0
      vertex 14.5287 -3.73035 0
      vertex 14.8817 -1.88 0
    endloop
  endfacet
  facet normal 0 0 -1
    outer loop
      vertex 17.3868 -6.88393 0
      vertex 13.9466 -5.52187 0
      vertex 14.5287 -3.73035 0
    endloop
  endfacet
  facet normal 0 0 -1
    outer loop
      vertex 12.1353 -8.81678 0
      vertex 15.1286 -10.9916 0
      vertex 13.6317 -12.801 0
    endloop
  endfacet
  facet normal 0 0 -1
    outer loop
      vertex 16.3869 -9.00879 0
      vertex 13.1446 -7.22631 0
      vertex 13.9466 -5.52187 0
    endloop
  endfacet
  facet normal 0 0 -1
    outer loop
      vertex 15.1286 -10.9916 0
      vertex 12.1353 -8.81678 0
      vertex 13.1446 -7.22631 0
    endloop
  endfacet
  facet normal 0 0 -1
    outer loop
      vertex 10.9345 -10.2682 0
      vertex 13.6317 -12.801 0
      vertex 11.9198 -14.4086 0
    endloop
  endfacet
  facet normal 0 0 -1
    outer loop
      vertex 13.6317 -12.801 0
      vertex 10.9345 -10.2682 0
      vertex 12.1353 -8.81678 0
    endloop
  endfacet
  facet normal 0 0 -1
    outer loop
      vertex 9.56136 -11.5577 0
      vertex 11.9198 -14.4086 0
      vertex 10.02 -15.7889 0
    endloop
  endfacet
  facet normal 0 0 -1
    outer loop
      vertex 11.9198 -14.4086 0
      vertex 9.56136 -11.5577 0
      vertex 10.9345 -10.2682 0
    endloop
  endfacet
  facet normal 0 0 -1
    outer loop
      vertex 10.02 -15.7889 0
      vertex 8.0374 -12.6649 0
      vertex 9.56136 -11.5577 0
    endloop
  endfacet
  facet normal 0 0 -1
    outer loop
      vertex 7.96207 -16.9203 0
      vertex 8.0374 -12.6649 0
      vertex 10.02 -15.7889 0
    endloop
  endfacet
  facet normal 0 0 -1
    outer loop
      vertex 7.96207 -16.9203 0
      vertex 6.38669 -13.5724 0
      vertex 8.0374 -12.6649 0
    endloop
  endfacet
  facet normal 0 0 -1
    outer loop
      vertex 5.77862 -17.7848 0
      vertex 6.38669 -13.5724 0
      vertex 7.96207 -16.9203 0
    endloop
  endfacet
  facet normal 0 0 -1
    outer loop
      vertex 5.77862 -17.7848 0
      vertex 4.63525 -14.2658 0
      vertex 6.38669 -13.5724 0
    endloop
  endfacet
  facet normal 0 0 -1
    outer loop
      vertex 3.50403 -18.3688 0
      vertex 4.63525 -14.2658 0
      vertex 5.77862 -17.7848 0
    endloop
  endfacet
  facet normal 0 0 -1
    outer loop
      vertex 3.50403 -18.3688 0
      vertex 2.81072 -14.7343 0
      vertex 4.63525 -14.2658 0
    endloop
  endfacet
  facet normal 0 0 -1
    outer loop
      vertex 1.17418 -18.6631 0
      vertex 2.81072 -14.7343 0
      vertex 3.50403 -18.3688 0
    endloop
  endfacet
  facet normal 0 0 -1
    outer loop
      vertex 1.17418 -18.6631 0
      vertex 0.941857 -14.9704 0
      vertex 2.81072 -14.7343 0
    endloop
  endfacet
  facet normal 0 0 -1
    outer loop
      vertex 1.17418 -18.6631 0
      vertex -0.941857 -14.9704 0
      vertex 0.941857 -14.9704 0
    endloop
  endfacet
  facet normal 0 0 -1
    outer loop
      vertex -1.17418 -18.6631 0
      vertex -0.941857 -14.9704 0
      vertex 1.17418 -18.6631 0
    endloop
  endfacet
  facet normal 0 0 -1
    outer loop
      vertex -1.17418 -18.6631 0
      vertex -2.81072 -14.7343 0
      vertex -0.941857 -14.9704 0
    endloop
  endfacet
  facet normal 0 0 -1
    outer loop
      vertex -3.50403 -18.3688 0
      vertex -2.81072 -14.7343 0
      vertex -1.17418 -18.6631 0
    endloop
  endfacet
  facet normal 0 0 -1
    outer loop
      vertex -3.50403 -18.3688 0
      vertex -4.63525 -14.2658 0
      vertex -2.81072 -14.7343 0
    endloop
  endfacet
  facet normal 0 0 -1
    outer loop
      vertex -5.77862 -17.7848 0
      vertex -4.63525 -14.2658 0
      vertex -3.50403 -18.3688 0
    endloop
  endfacet
  facet normal 0 0 -1
    outer loop
      vertex -5.77862 -17.7848 0
      vertex -6.38669 -13.5724 0
      vertex -4.63525 -14.2658 0
    endloop
  endfacet
  facet normal 0 0 -1
    outer loop
      vertex -7.96207 -16.9203 0
      vertex -6.38669 -13.5724 0
      vertex -5.77862 -17.7848 0
    endloop
  endfacet
  facet normal 0 0 -1
    outer loop
      vertex -7.96207 -16.9203 0
      vertex -8.0374 -12.6649 0
      vertex -6.38669 -13.5724 0
    endloop
  endfacet
  facet normal 0 0 -1
    outer loop
      vertex -10.02 -15.7889 0
      vertex -8.0374 -12.6649 0
      vertex -7.96207 -16.9203 0
    endloop
  endfacet
  facet normal -0 0 -1
    outer loop
      vertex -8.0374 -12.6649 0
      vertex -10.02 -15.7889 0
      vertex -9.56136 -11.5577 0
    endloop
  endfacet
  facet normal 0 0 -1
    outer loop
      vertex -11.9198 -14.4086 0
      vertex -9.56136 -11.5577 0
      vertex -10.02 -15.7889 0
    endloop
  endfacet
  facet normal -0 0 -1
    outer loop
      vertex -9.56136 -11.5577 0
      vertex -11.9198 -14.4086 0
      vertex -10.9345 -10.2682 0
    endloop
  endfacet
  facet normal 0 0 -1
    outer loop
      vertex -13.6317 -12.801 0
      vertex -10.9345 -10.2682 0
      vertex -11.9198 -14.4086 0
    endloop
  endfacet
  facet normal -0 0 -1
    outer loop
      vertex -10.9345 -10.2682 0
      vertex -13.6317 -12.801 0
      vertex -12.1353 -8.81678 0
    endloop
  endfacet
  facet normal 0 0 -1
    outer loop
      vertex -15.1286 -10.9916 0
      vertex -12.1353 -8.81678 0
      vertex -13.6317 -12.801 0
    endloop
  endfacet
  facet normal -0 0 -1
    outer loop
      vertex -12.1353 -8.81678 0
      vertex -15.1286 -10.9916 0
      vertex -13.1446 -7.22631 0
    endloop
  endfacet
  facet normal 0 0 -1
    outer loop
      vertex -16.3869 -9.00879 0
      vertex -13.1446 -7.22631 0
      vertex -15.1286 -10.9916 0
    endloop
  endfacet
  facet normal -0 0 -1
    outer loop
      vertex -13.1446 -7.22631 0
      vertex -16.3869 -9.00879 0
      vertex -13.9466 -5.52187 0
    endloop
  endfacet
  facet normal -0 0 -1
    outer loop
      vertex -13.9466 -5.52187 0
      vertex -17.3868 -6.88393 0
      vertex -14.5287 -3.73035 0
    endloop
  endfacet
  facet normal 0 0 -1
    outer loop
      vertex -17.3868 -6.88393 0
      vertex -13.9466 -5.52187 0
      vertex -16.3869 -9.00879 0
    endloop
  endfacet
  facet normal 0 0 -1
    outer loop
      vertex 13.9466 5.52187 0
      vertex 17.3868 6.88393 0
      vertex 14.5287 3.73035 0
    endloop
  endfacet
  facet normal -0 0 -1
    outer loop
      vertex 17.3868 6.88393 0
      vertex 13.9466 5.52187 0
      vertex 16.3869 9.00879 0
    endloop
  endfacet
  facet normal 0 0 -1
    outer loop
      vertex 13.1446 7.22631 0
      vertex 16.3869 9.00879 0
      vertex 13.9466 5.52187 0
    endloop
  endfacet
  facet normal -0 0 -1
    outer loop
      vertex 16.3869 9.00879 0
      vertex 13.1446 7.22631 0
      vertex 15.1286 10.9916 0
    endloop
  endfacet
  facet normal 0 0 -1
    outer loop
      vertex 12.1353 8.81678 0
      vertex 15.1286 10.9916 0
      vertex 13.1446 7.22631 0
    endloop
  endfacet
  facet normal -0 0 -1
    outer loop
      vertex 15.1286 10.9916 0
      vertex 12.1353 8.81678 0
      vertex 13.6317 12.801 0
    endloop
  endfacet
  facet normal 0 0 -1
    outer loop
      vertex 10.9345 10.2682 0
      vertex 13.6317 12.801 0
      vertex 12.1353 8.81678 0
    endloop
  endfacet
  facet normal -0 0 -1
    outer loop
      vertex 13.6317 12.801 0
      vertex 10.9345 10.2682 0
      vertex 11.9198 14.4086 0
    endloop
  endfacet
  facet normal 0 0 -1
    outer loop
      vertex 9.56136 11.5577 0
      vertex 11.9198 14.4086 0
      vertex 10.9345 10.2682 0
    endloop
  endfacet
  facet normal -0 0 -1
    outer loop
      vertex 11.9198 14.4086 0
      vertex 9.56136 11.5577 0
      vertex 10.02 15.7889 0
    endloop
  endfacet
  facet normal 0 0 -1
    outer loop
      vertex 8.0374 12.6649 0
      vertex 10.02 15.7889 0
      vertex 9.56136 11.5577 0
    endloop
  endfacet
  facet normal 0 0 -1
    outer loop
      vertex 8.0374 12.6649 0
      vertex 7.96207 16.9203 0
      vertex 10.02 15.7889 0
    endloop
  endfacet
  facet normal 0 0 -1
    outer loop
      vertex 6.38669 13.5724 0
      vertex 7.96207 16.9203 0
      vertex 8.0374 12.6649 0
    endloop
  endfacet
  facet normal 0 0 -1
    outer loop
      vertex 6.38669 13.5724 0
      vertex 5.77862 17.7848 0
      vertex 7.96207 16.9203 0
    endloop
  endfacet
  facet normal 0 0 -1
    outer loop
      vertex 4.63525 14.2658 0
      vertex 5.77862 17.7848 0
      vertex 6.38669 13.5724 0
    endloop
  endfacet
  facet normal 0 0 -1
    outer loop
      vertex 4.63525 14.2658 0
      vertex 3.50403 18.3688 0
      vertex 5.77862 17.7848 0
    endloop
  endfacet
  facet normal 0 0 -1
    outer loop
      vertex 2.81072 14.7343 0
      vertex 3.50403 18.3688 0
      vertex 4.63525 14.2658 0
    endloop
  endfacet
  facet normal 0 0 -1
    outer loop
      vertex 2.81072 14.7343 0
      vertex 1.17418 18.6631 0
      vertex 3.50403 18.3688 0
    endloop
  endfacet
  facet normal 0 0 -1
    outer loop
      vertex 0.941857 14.9704 0
      vertex 1.17418 18.6631 0
      vertex 2.81072 14.7343 0
    endloop
  endfacet
  facet normal 0 0 -1
    outer loop
      vertex -0.941857 14.9704 0
      vertex 1.17418 18.6631 0
      vertex 0.941857 14.9704 0
    endloop
  endfacet
  facet normal 0 0 -1
    outer loop
      vertex -0.941857 14.9704 0
      vertex -1.17418 18.6631 0
      vertex 1.17418 18.6631 0
    endloop
  endfacet
  facet normal 0 0 -1
    outer loop
      vertex -2.81072 14.7343 0
      vertex -1.17418 18.6631 0
      vertex -0.941857 14.9704 0
    endloop
  endfacet
  facet normal 0 0 -1
    outer loop
      vertex -2.81072 14.7343 0
      vertex -3.50403 18.3688 0
      vertex -1.17418 18.6631 0
    endloop
  endfacet
  facet normal 0 0 -1
    outer loop
      vertex -4.63525 14.2658 0
      vertex -3.50403 18.3688 0
      vertex -2.81072 14.7343 0
    endloop
  endfacet
  facet normal 0 0 -1
    outer loop
      vertex -4.63525 14.2658 0
      vertex -5.77862 17.7848 0
      vertex -3.50403 18.3688 0
    endloop
  endfacet
  facet normal 0 0 -1
    outer loop
      vertex -6.38669 13.5724 0
      vertex -5.77862 17.7848 0
      vertex -4.63525 14.2658 0
    endloop
  endfacet
  facet normal 0 0 -1
    outer loop
      vertex -6.38669 13.5724 0
      vertex -7.96207 16.9203 0
      vertex -5.77862 17.7848 0
    endloop
  endfacet
  facet normal 0 0 -1
    outer loop
      vertex -8.0374 12.6649 0
      vertex -7.96207 16.9203 0
      vertex -6.38669 13.5724 0
    endloop
  endfacet
  facet normal 0 0 -1
    outer loop
      vertex -10.02 15.7889 0
      vertex -8.0374 12.6649 0
      vertex -9.56136 11.5577 0
    endloop
  endfacet
  facet normal 0 0 -1
    outer loop
      vertex -8.0374 12.6649 0
      vertex -10.02 15.7889 0
      vertex -7.96207 16.9203 0
    endloop
  endfacet
  facet normal 0 0 -1
    outer loop
      vertex -11.9198 14.4086 0
      vertex -9.56136 11.5577 0
      vertex -10.9345 10.2682 0
    endloop
  endfacet
  facet normal 0 0 -1
    outer loop
      vertex -9.56136 11.5577 0
      vertex -11.9198 14.4086 0
      vertex -10.02 15.7889 0
    endloop
  endfacet
  facet normal 0 0 -1
    outer loop
      vertex -13.6317 12.801 0
      vertex -10.9345 10.2682 0
      vertex -12.1353 8.81678 0
    endloop
  endfacet
  facet normal 0 0 -1
    outer loop
      vertex -15.1286 10.9916 0
      vertex -12.1353 8.81678 0
      vertex -13.1446 7.22631 0
    endloop
  endfacet
  facet normal 0 0 -1
    outer loop
      vertex -10.9345 10.2682 0
      vertex -13.6317 12.801 0
      vertex -11.9198 14.4086 0
    endloop
  endfacet
  facet normal 0 0 -1
    outer loop
      vertex -16.3869 9.00879 0
      vertex -13.1446 7.22631 0
      vertex -13.9466 5.52187 0
    endloop
  endfacet
  facet normal 0 0 -1
    outer loop
      vertex -17.3868 6.88393 0
      vertex -13.9466 5.52187 0
      vertex -14.5287 3.73035 0
    endloop
  endfacet
  facet normal 0 0 -1
    outer loop
      vertex -18.1125 4.6505 0
      vertex -14.5287 3.73035 0
      vertex -14.8817 1.88 0
    endloop
  endfacet
  facet normal 0 0 -1
    outer loop
      vertex -12.1353 8.81678 0
      vertex -15.1286 10.9916 0
      vertex -13.6317 12.801 0
    endloop
  endfacet
  facet normal 0 0 -1
    outer loop
      vertex -18.5525 2.34373 0
      vertex -14.8817 1.88 0
      vertex -15 0 0
    endloop
  endfacet
  facet normal 0 0 -1
    outer loop
      vertex -18.1125 -4.6505 0
      vertex -14.5287 -3.73035 0
      vertex -17.3868 -6.88393 0
    endloop
  endfacet
  facet normal -0 0 -1
    outer loop
      vertex -14.5287 -3.73035 0
      vertex -18.1125 -4.6505 0
      vertex -14.8817 -1.88 0
    endloop
  endfacet
  facet normal 0 0 -1
    outer loop
      vertex -13.1446 7.22631 0
      vertex -16.3869 9.00879 0
      vertex -15.1286 10.9916 0
    endloop
  endfacet
  facet normal 0 0 -1
    outer loop
      vertex -18.5525 -2.34373 0
      vertex -14.8817 -1.88 0
      vertex -18.1125 -4.6505 0
    endloop
  endfacet
  facet normal 0 0 -1
    outer loop
      vertex -13.9466 5.52187 0
      vertex -17.3868 6.88393 0
      vertex -16.3869 9.00879 0
    endloop
  endfacet
  facet normal -0 0 -1
    outer loop
      vertex -14.8817 -1.88 0
      vertex -18.5525 -2.34373 0
      vertex -15 0 0
    endloop
  endfacet
  facet normal 0 0 -1
    outer loop
      vertex -14.5287 3.73035 0
      vertex -18.1125 4.6505 0
      vertex -17.3868 6.88393 0
    endloop
  endfacet
  facet normal 0 0 -1
    outer loop
      vertex -18.7 0 0
      vertex -15 0 0
      vertex -18.5525 -2.34373 0
    endloop
  endfacet
  facet normal 0 0 -1
    outer loop
      vertex -14.8817 1.88 0
      vertex -18.5525 2.34373 0
      vertex -18.1125 4.6505 0
    endloop
  endfacet
  facet normal 0 0 -1
    outer loop
      vertex -15 0 0
      vertex -18.7 0 0
      vertex -18.5525 2.34373 0
    endloop
  endfacet
  facet normal 0.587789 -0.809014 0
    outer loop
      vertex 10.02 -15.7889 0
      vertex 11.9198 -14.4086 4
      vertex 10.02 -15.7889 4
    endloop
  endfacet
  facet normal 0.587789 -0.809014 0
    outer loop
      vertex 11.9198 -14.4086 4
      vertex 10.02 -15.7889 0
      vertex 11.9198 -14.4086 0
    endloop
  endfacet
  facet normal -0.951055 -0.309023 0
    outer loop
      vertex -17.3868 -6.88393 0
      vertex -18.1125 -4.6505 4
      vertex -18.1125 -4.6505 0
    endloop
  endfacet
  facet normal -0.951055 -0.309023 0
    outer loop
      vertex -18.1125 -4.6505 4
      vertex -17.3868 -6.88393 0
      vertex -17.3868 -6.88393 4
    endloop
  endfacet
  facet normal 0.684551 -0.728965 0
    outer loop
      vertex 11.9198 -14.4086 0
      vertex 13.6317 -12.801 4
      vertex 11.9198 -14.4086 4
    endloop
  endfacet
  facet normal 0.684551 -0.728965 0
    outer loop
      vertex 13.6317 -12.801 4
      vertex 11.9198 -14.4086 0
      vertex 13.6317 -12.801 0
    endloop
  endfacet
  facet normal 0.481768 -0.876299 0
    outer loop
      vertex 7.96207 -16.9203 0
      vertex 10.02 -15.7889 4
      vertex 7.96207 -16.9203 4
    endloop
  endfacet
  facet normal 0.481768 -0.876299 0
    outer loop
      vertex 10.02 -15.7889 4
      vertex 7.96207 -16.9203 0
      vertex 10.02 -15.7889 0
    endloop
  endfacet
  facet normal 0.368129 -0.929775 0
    outer loop
      vertex 5.77862 -17.7848 0
      vertex 7.96207 -16.9203 4
      vertex 5.77862 -17.7848 4
    endloop
  endfacet
  facet normal 0.368129 -0.929775 0
    outer loop
      vertex 7.96207 -16.9203 4
      vertex 5.77862 -17.7848 0
      vertex 7.96207 -16.9203 0
    endloop
  endfacet
  facet normal 0.248684 -0.968585 0
    outer loop
      vertex 3.50403 -18.3688 0
      vertex 5.77862 -17.7848 4
      vertex 3.50403 -18.3688 4
    endloop
  endfacet
  facet normal 0.248684 -0.968585 0
    outer loop
      vertex 5.77862 -17.7848 4
      vertex 3.50403 -18.3688 0
      vertex 5.77862 -17.7848 0
    endloop
  endfacet
  facet normal 0.904824 -0.425785 0
    outer loop
      vertex 16.3869 -9.00879 4
      vertex 17.3868 -6.88393 0
      vertex 17.3868 -6.88393 4
    endloop
  endfacet
  facet normal 0.904824 -0.425785 0
    outer loop
      vertex 17.3868 -6.88393 0
      vertex 16.3869 -9.00879 4
      vertex 16.3869 -9.00879 0
    endloop
  endfacet
  facet normal 0.844334 -0.535818 0
    outer loop
      vertex 15.1286 -10.9916 4
      vertex 16.3869 -9.00879 0
      vertex 16.3869 -9.00879 4
    endloop
  endfacet
  facet normal 0.844334 -0.535818 0
    outer loop
      vertex 16.3869 -9.00879 0
      vertex 15.1286 -10.9916 4
      vertex 15.1286 -10.9916 0
    endloop
  endfacet
  facet normal -0.125321 -0.992116 0
    outer loop
      vertex -3.50403 -18.3688 0
      vertex -1.17418 -18.6631 4
      vertex -3.50403 -18.3688 4
    endloop
  endfacet
  facet normal -0.125321 -0.992116 -0
    outer loop
      vertex -1.17418 -18.6631 4
      vertex -3.50403 -18.3688 0
      vertex -1.17418 -18.6631 0
    endloop
  endfacet
  facet normal -0.368129 -0.929775 0
    outer loop
      vertex -7.96207 -16.9203 0
      vertex -5.77862 -17.7848 4
      vertex -7.96207 -16.9203 4
    endloop
  endfacet
  facet normal -0.368129 -0.929775 -0
    outer loop
      vertex -5.77862 -17.7848 4
      vertex -7.96207 -16.9203 0
      vertex -5.77862 -17.7848 0
    endloop
  endfacet
  facet normal -0.587789 -0.809014 0
    outer loop
      vertex -11.9198 -14.4086 0
      vertex -10.02 -15.7889 4
      vertex -11.9198 -14.4086 4
    endloop
  endfacet
  facet normal -0.587789 -0.809014 -0
    outer loop
      vertex -10.02 -15.7889 4
      vertex -11.9198 -14.4086 0
      vertex -10.02 -15.7889 0
    endloop
  endfacet
  facet normal -0.248684 -0.968585 0
    outer loop
      vertex -5.77862 -17.7848 0
      vertex -3.50403 -18.3688 4
      vertex -5.77862 -17.7848 4
    endloop
  endfacet
  facet normal -0.248684 -0.968585 -0
    outer loop
      vertex -3.50403 -18.3688 4
      vertex -5.77862 -17.7848 0
      vertex -3.50403 -18.3688 0
    endloop
  endfacet
  facet normal -0.770506 -0.637433 0
    outer loop
      vertex -13.6317 -12.801 0
      vertex -15.1286 -10.9916 4
      vertex -15.1286 -10.9916 0
    endloop
  endfacet
  facet normal -0.770506 -0.637433 0
    outer loop
      vertex -15.1286 -10.9916 4
      vertex -13.6317 -12.801 0
      vertex -13.6317 -12.801 4
    endloop
  endfacet
  facet normal -0.684551 -0.728965 0
    outer loop
      vertex -13.6317 -12.801 0
      vertex -11.9198 -14.4086 4
      vertex -13.6317 -12.801 4
    endloop
  endfacet
  facet normal -0.684551 -0.728965 -0
    outer loop
      vertex -11.9198 -14.4086 4
      vertex -13.6317 -12.801 0
      vertex -11.9198 -14.4086 0
    endloop
  endfacet
  facet normal -0.98229 -0.187365 0
    outer loop
      vertex -18.1125 -4.6505 0
      vertex -18.5525 -2.34373 4
      vertex -18.5525 -2.34373 0
    endloop
  endfacet
  facet normal -0.98229 -0.187365 0
    outer loop
      vertex -18.5525 -2.34373 4
      vertex -18.1125 -4.6505 0
      vertex -18.1125 -4.6505 4
    endloop
  endfacet
  facet normal -0.998026 -0.0628096 0
    outer loop
      vertex -18.5525 -2.34373 0
      vertex -18.7 0 4
      vertex -18.7 0 0
    endloop
  endfacet
  facet normal -0.998026 -0.0628096 0
    outer loop
      vertex -18.7 0 4
      vertex -18.5525 -2.34373 0
      vertex -18.5525 -2.34373 4
    endloop
  endfacet
  facet normal 0.770506 -0.637433 0
    outer loop
      vertex 13.6317 -12.801 4
      vertex 15.1286 -10.9916 0
      vertex 15.1286 -10.9916 4
    endloop
  endfacet
  facet normal 0.770506 -0.637433 0
    outer loop
      vertex 15.1286 -10.9916 0
      vertex 13.6317 -12.801 4
      vertex 13.6317 -12.801 0
    endloop
  endfacet
  facet normal -0.481768 -0.876299 0
    outer loop
      vertex -10.02 -15.7889 0
      vertex -7.96207 -16.9203 4
      vertex -10.02 -15.7889 4
    endloop
  endfacet
  facet normal -0.481768 -0.876299 -0
    outer loop
      vertex -7.96207 -16.9203 4
      vertex -10.02 -15.7889 0
      vertex -7.96207 -16.9203 0
    endloop
  endfacet
  facet normal -0.844334 -0.535818 0
    outer loop
      vertex -15.1286 -10.9916 0
      vertex -16.3869 -9.00879 4
      vertex -16.3869 -9.00879 0
    endloop
  endfacet
  facet normal -0.844334 -0.535818 0
    outer loop
      vertex -16.3869 -9.00879 4
      vertex -15.1286 -10.9916 0
      vertex -15.1286 -10.9916 4
    endloop
  endfacet
  facet normal -0.904837 -0.425758 0
    outer loop
      vertex 13.9466 5.52187 0
      vertex 13.1446 7.22631 4
      vertex 13.1446 7.22631 0
    endloop
  endfacet
  facet normal -0.904837 -0.425758 0
    outer loop
      vertex 13.1446 7.22631 4
      vertex 13.9466 5.52187 0
      vertex 13.9466 5.52187 4
    endloop
  endfacet
  facet normal -0.844338 -0.535811 0
    outer loop
      vertex 13.1446 7.22631 0
      vertex 12.1353 8.81678 4
      vertex 12.1353 8.81678 0
    endloop
  endfacet
  facet normal -0.844338 -0.535811 0
    outer loop
      vertex 12.1353 8.81678 4
      vertex 13.1446 7.22631 0
      vertex 13.1446 7.22631 4
    endloop
  endfacet
  facet normal -0.368104 -0.929785 0
    outer loop
      vertex 4.63525 14.2658 0
      vertex 6.38669 13.5724 4
      vertex 4.63525 14.2658 4
    endloop
  endfacet
  facet normal -0.368104 -0.929785 -0
    outer loop
      vertex 6.38669 13.5724 4
      vertex 4.63525 14.2658 0
      vertex 6.38669 13.5724 0
    endloop
  endfacet
  facet normal 0.368104 -0.929785 0
    outer loop
      vertex -6.38669 13.5724 0
      vertex -4.63525 14.2658 4
      vertex -6.38669 13.5724 4
    endloop
  endfacet
  facet normal 0.368104 -0.929785 0
    outer loop
      vertex -4.63525 14.2658 4
      vertex -6.38669 13.5724 0
      vertex -4.63525 14.2658 0
    endloop
  endfacet
  facet normal 0.904837 -0.425758 0
    outer loop
      vertex -13.9466 5.52187 4
      vertex -13.1446 7.22631 0
      vertex -13.1446 7.22631 4
    endloop
  endfacet
  facet normal 0.904837 -0.425758 0
    outer loop
      vertex -13.1446 7.22631 0
      vertex -13.9466 5.52187 4
      vertex -13.9466 5.52187 0
    endloop
  endfacet
  facet normal -0.982285 0.187395 0
    outer loop
      vertex 14.5287 -3.73035 0
      vertex 14.8817 -1.88 4
      vertex 14.8817 -1.88 0
    endloop
  endfacet
  facet normal -0.982285 0.187395 0
    outer loop
      vertex 14.8817 -1.88 4
      vertex 14.5287 -3.73035 0
      vertex 14.5287 -3.73035 4
    endloop
  endfacet
  facet normal 0 -1 0
    outer loop
      vertex -0.941857 14.9704 0
      vertex 0.941857 14.9704 4
      vertex -0.941857 14.9704 4
    endloop
  endfacet
  facet normal 0 -1 -0
    outer loop
      vertex 0.941857 14.9704 4
      vertex -0.941857 14.9704 0
      vertex 0.941857 14.9704 0
    endloop
  endfacet
  facet normal -0.48176 -0.876303 0
    outer loop
      vertex 6.38669 13.5724 0
      vertex 8.0374 12.6649 4
      vertex 6.38669 13.5724 4
    endloop
  endfacet
  facet normal -0.48176 -0.876303 -0
    outer loop
      vertex 8.0374 12.6649 4
      vertex 6.38669 13.5724 0
      vertex 8.0374 12.6649 0
    endloop
  endfacet
  facet normal 0.770492 -0.63745 0
    outer loop
      vertex -12.1353 8.81678 4
      vertex -10.9345 10.2682 0
      vertex -10.9345 10.2682 4
    endloop
  endfacet
  facet normal 0.770492 -0.63745 0
    outer loop
      vertex -10.9345 10.2682 0
      vertex -12.1353 8.81678 4
      vertex -12.1353 8.81678 0
    endloop
  endfacet
  facet normal 0.24871 -0.968578 0
    outer loop
      vertex -4.63525 14.2658 0
      vertex -2.81072 14.7343 4
      vertex -4.63525 14.2658 4
    endloop
  endfacet
  facet normal 0.24871 -0.968578 0
    outer loop
      vertex -2.81072 14.7343 4
      vertex -4.63525 14.2658 0
      vertex -2.81072 14.7343 0
    endloop
  endfacet
  facet normal 0.684557 -0.728959 0
    outer loop
      vertex -10.9345 10.2682 0
      vertex -9.56136 11.5577 4
      vertex -10.9345 10.2682 4
    endloop
  endfacet
  facet normal 0.684557 -0.728959 0
    outer loop
      vertex -9.56136 11.5577 4
      vertex -10.9345 10.2682 0
      vertex -9.56136 11.5577 0
    endloop
  endfacet
  facet normal -0.998026 -0.0628013 0
    outer loop
      vertex 15 0 0
      vertex 14.8817 1.88 4
      vertex 14.8817 1.88 0
    endloop
  endfacet
  facet normal -0.998026 -0.0628013 0
    outer loop
      vertex 14.8817 1.88 4
      vertex 15 0 0
      vertex 15 0 4
    endloop
  endfacet
  facet normal -0.951057 0.309017 0
    outer loop
      vertex 13.9466 -5.52187 0
      vertex 14.5287 -3.73035 4
      vertex 14.5287 -3.73035 0
    endloop
  endfacet
  facet normal -0.951057 0.309017 0
    outer loop
      vertex 14.5287 -3.73035 4
      vertex 13.9466 -5.52187 0
      vertex 13.9466 -5.52187 4
    endloop
  endfacet
  facet normal -0.982285 -0.187395 0
    outer loop
      vertex 14.8817 1.88 0
      vertex 14.5287 3.73035 4
      vertex 14.5287 3.73035 0
    endloop
  endfacet
  facet normal -0.982285 -0.187395 0
    outer loop
      vertex 14.5287 3.73035 4
      vertex 14.8817 1.88 0
      vertex 14.8817 1.88 4
    endloop
  endfacet
  facet normal -0.951057 -0.309017 0
    outer loop
      vertex 14.5287 3.73035 0
      vertex 13.9466 5.52187 4
      vertex 13.9466 5.52187 0
    endloop
  endfacet
  facet normal -0.951057 -0.309017 0
    outer loop
      vertex 13.9466 5.52187 4
      vertex 14.5287 3.73035 0
      vertex 14.5287 3.73035 4
    endloop
  endfacet
  facet normal -0.684557 -0.728959 0
    outer loop
      vertex 9.56136 11.5577 0
      vertex 10.9345 10.2682 4
      vertex 9.56136 11.5577 4
    endloop
  endfacet
  facet normal -0.684557 -0.728959 -0
    outer loop
      vertex 10.9345 10.2682 4
      vertex 9.56136 11.5577 0
      vertex 10.9345 10.2682 0
    endloop
  endfacet
  facet normal -0.770492 -0.63745 0
    outer loop
      vertex 12.1353 8.81678 0
      vertex 10.9345 10.2682 4
      vertex 10.9345 10.2682 0
    endloop
  endfacet
  facet normal -0.770492 -0.63745 0
    outer loop
      vertex 10.9345 10.2682 4
      vertex 12.1353 8.81678 0
      vertex 12.1353 8.81678 4
    endloop
  endfacet
  facet normal -0.24871 -0.968578 0
    outer loop
      vertex 2.81072 14.7343 0
      vertex 4.63525 14.2658 4
      vertex 2.81072 14.7343 4
    endloop
  endfacet
  facet normal -0.24871 -0.968578 -0
    outer loop
      vertex 4.63525 14.2658 4
      vertex 2.81072 14.7343 0
      vertex 4.63525 14.2658 0
    endloop
  endfacet
  facet normal -0.125337 -0.992114 0
    outer loop
      vertex 0.941857 14.9704 0
      vertex 2.81072 14.7343 4
      vertex 0.941857 14.9704 4
    endloop
  endfacet
  facet normal -0.125337 -0.992114 -0
    outer loop
      vertex 2.81072 14.7343 4
      vertex 0.941857 14.9704 0
      vertex 2.81072 14.7343 0
    endloop
  endfacet
  facet normal -0.587778 -0.809022 0
    outer loop
      vertex 8.0374 12.6649 0
      vertex 9.56136 11.5577 4
      vertex 8.0374 12.6649 4
    endloop
  endfacet
  facet normal -0.587778 -0.809022 -0
    outer loop
      vertex 9.56136 11.5577 4
      vertex 8.0374 12.6649 0
      vertex 9.56136 11.5577 0
    endloop
  endfacet
  facet normal 0.998026 -0.0628013 0
    outer loop
      vertex -15 0 4
      vertex -14.8817 1.88 0
      vertex -14.8817 1.88 4
    endloop
  endfacet
  facet normal 0.998026 -0.0628013 0
    outer loop
      vertex -14.8817 1.88 0
      vertex -15 0 4
      vertex -15 0 0
    endloop
  endfacet
  facet normal 0.951057 -0.309017 0
    outer loop
      vertex -14.5287 3.73035 4
      vertex -13.9466 5.52187 0
      vertex -13.9466 5.52187 4
    endloop
  endfacet
  facet normal 0.951057 -0.309017 0
    outer loop
      vertex -13.9466 5.52187 0
      vertex -14.5287 3.73035 4
      vertex -14.5287 3.73035 0
    endloop
  endfacet
  facet normal 0.844338 -0.535811 0
    outer loop
      vertex -13.1446 7.22631 4
      vertex -12.1353 8.81678 0
      vertex -12.1353 8.81678 4
    endloop
  endfacet
  facet normal 0.844338 -0.535811 0
    outer loop
      vertex -12.1353 8.81678 0
      vertex -13.1446 7.22631 4
      vertex -13.1446 7.22631 0
    endloop
  endfacet
  facet normal 0.125337 -0.992114 0
    outer loop
      vertex -2.81072 14.7343 0
      vertex -0.941857 14.9704 4
      vertex -2.81072 14.7343 4
    endloop
  endfacet
  facet normal 0.125337 -0.992114 0
    outer loop
      vertex -0.941857 14.9704 4
      vertex -2.81072 14.7343 0
      vertex -0.941857 14.9704 0
    endloop
  endfacet
  facet normal 0.587778 -0.809022 0
    outer loop
      vertex -9.56136 11.5577 0
      vertex -8.0374 12.6649 4
      vertex -9.56136 11.5577 4
    endloop
  endfacet
  facet normal 0.587778 -0.809022 0
    outer loop
      vertex -8.0374 12.6649 4
      vertex -9.56136 11.5577 0
      vertex -8.0374 12.6649 0
    endloop
  endfacet
  facet normal 0.48176 -0.876303 0
    outer loop
      vertex -8.0374 12.6649 0
      vertex -6.38669 13.5724 4
      vertex -8.0374 12.6649 4
    endloop
  endfacet
  facet normal 0.48176 -0.876303 0
    outer loop
      vertex -6.38669 13.5724 4
      vertex -8.0374 12.6649 0
      vertex -6.38669 13.5724 0
    endloop
  endfacet
  facet normal -0.998026 0.0628013 0
    outer loop
      vertex 14.8817 -1.88 0
      vertex 15 0 4
      vertex 15 0 0
    endloop
  endfacet
  facet normal -0.998026 0.0628013 0
    outer loop
      vertex 15 0 4
      vertex 14.8817 -1.88 0
      vertex 14.8817 -1.88 4
    endloop
  endfacet
  facet normal -0.125337 0.992114 0
    outer loop
      vertex 2.81072 -14.7343 0
      vertex 0.941857 -14.9704 4
      vertex 2.81072 -14.7343 4
    endloop
  endfacet
  facet normal -0.125337 0.992114 0
    outer loop
      vertex 0.941857 -14.9704 4
      vertex 2.81072 -14.7343 0
      vertex 0.941857 -14.9704 0
    endloop
  endfacet
  facet normal 0.982285 -0.187395 0
    outer loop
      vertex -14.8817 1.88 4
      vertex -14.5287 3.73035 0
      vertex -14.5287 3.73035 4
    endloop
  endfacet
  facet normal 0.982285 -0.187395 0
    outer loop
      vertex -14.5287 3.73035 0
      vertex -14.8817 1.88 4
      vertex -14.8817 1.88 0
    endloop
  endfacet
  facet normal -0.904837 0.425758 0
    outer loop
      vertex 13.1446 -7.22631 0
      vertex 13.9466 -5.52187 4
      vertex 13.9466 -5.52187 0
    endloop
  endfacet
  facet normal -0.904837 0.425758 0
    outer loop
      vertex 13.9466 -5.52187 4
      vertex 13.1446 -7.22631 0
      vertex 13.1446 -7.22631 4
    endloop
  endfacet
  facet normal 0 1 -0
    outer loop
      vertex 0.941857 -14.9704 0
      vertex -0.941857 -14.9704 4
      vertex 0.941857 -14.9704 4
    endloop
  endfacet
  facet normal 0 1 0
    outer loop
      vertex -0.941857 -14.9704 4
      vertex 0.941857 -14.9704 0
      vertex -0.941857 -14.9704 0
    endloop
  endfacet
  facet normal 0.998026 0.0628013 0
    outer loop
      vertex -14.8817 -1.88 4
      vertex -15 0 0
      vertex -15 0 4
    endloop
  endfacet
  facet normal 0.998026 0.0628013 0
    outer loop
      vertex -15 0 0
      vertex -14.8817 -1.88 4
      vertex -14.8817 -1.88 0
    endloop
  endfacet
  facet normal 0.982285 0.187395 0
    outer loop
      vertex -14.5287 -3.73035 4
      vertex -14.8817 -1.88 0
      vertex -14.8817 -1.88 4
    endloop
  endfacet
  facet normal 0.982285 0.187395 0
    outer loop
      vertex -14.8817 -1.88 0
      vertex -14.5287 -3.73035 4
      vertex -14.5287 -3.73035 0
    endloop
  endfacet
  facet normal 0.844338 0.535811 0
    outer loop
      vertex -12.1353 -8.81678 4
      vertex -13.1446 -7.22631 0
      vertex -13.1446 -7.22631 4
    endloop
  endfacet
  facet normal 0.844338 0.535811 0
    outer loop
      vertex -13.1446 -7.22631 0
      vertex -12.1353 -8.81678 4
      vertex -12.1353 -8.81678 0
    endloop
  endfacet
  facet normal 0.904837 0.425758 0
    outer loop
      vertex -13.1446 -7.22631 4
      vertex -13.9466 -5.52187 0
      vertex -13.9466 -5.52187 4
    endloop
  endfacet
  facet normal 0.904837 0.425758 0
    outer loop
      vertex -13.9466 -5.52187 0
      vertex -13.1446 -7.22631 4
      vertex -13.1446 -7.22631 0
    endloop
  endfacet
  facet normal -0.368104 0.929785 0
    outer loop
      vertex 6.38669 -13.5724 0
      vertex 4.63525 -14.2658 4
      vertex 6.38669 -13.5724 4
    endloop
  endfacet
  facet normal -0.368104 0.929785 0
    outer loop
      vertex 4.63525 -14.2658 4
      vertex 6.38669 -13.5724 0
      vertex 4.63525 -14.2658 0
    endloop
  endfacet
  facet normal -0.24871 0.968578 0
    outer loop
      vertex 4.63525 -14.2658 0
      vertex 2.81072 -14.7343 4
      vertex 4.63525 -14.2658 4
    endloop
  endfacet
  facet normal -0.24871 0.968578 0
    outer loop
      vertex 2.81072 -14.7343 4
      vertex 4.63525 -14.2658 0
      vertex 2.81072 -14.7343 0
    endloop
  endfacet
  facet normal -0.684557 0.728959 0
    outer loop
      vertex 10.9345 -10.2682 0
      vertex 9.56136 -11.5577 4
      vertex 10.9345 -10.2682 4
    endloop
  endfacet
  facet normal -0.684557 0.728959 0
    outer loop
      vertex 9.56136 -11.5577 4
      vertex 10.9345 -10.2682 0
      vertex 9.56136 -11.5577 0
    endloop
  endfacet
  facet normal -0.844338 0.535811 0
    outer loop
      vertex 12.1353 -8.81678 0
      vertex 13.1446 -7.22631 4
      vertex 13.1446 -7.22631 0
    endloop
  endfacet
  facet normal -0.844338 0.535811 0
    outer loop
      vertex 13.1446 -7.22631 4
      vertex 12.1353 -8.81678 0
      vertex 12.1353 -8.81678 4
    endloop
  endfacet
  facet normal 0.368104 0.929785 -0
    outer loop
      vertex -4.63525 -14.2658 0
      vertex -6.38669 -13.5724 4
      vertex -4.63525 -14.2658 4
    endloop
  endfacet
  facet normal 0.368104 0.929785 0
    outer loop
      vertex -6.38669 -13.5724 4
      vertex -4.63525 -14.2658 0
      vertex -6.38669 -13.5724 0
    endloop
  endfacet
  facet normal 0.125337 0.992114 -0
    outer loop
      vertex -0.941857 -14.9704 0
      vertex -2.81072 -14.7343 4
      vertex -0.941857 -14.9704 4
    endloop
  endfacet
  facet normal 0.125337 0.992114 0
    outer loop
      vertex -2.81072 -14.7343 4
      vertex -0.941857 -14.9704 0
      vertex -2.81072 -14.7343 0
    endloop
  endfacet
  facet normal 0.24871 0.968578 -0
    outer loop
      vertex -2.81072 -14.7343 0
      vertex -4.63525 -14.2658 4
      vertex -2.81072 -14.7343 4
    endloop
  endfacet
  facet normal 0.24871 0.968578 0
    outer loop
      vertex -4.63525 -14.2658 4
      vertex -2.81072 -14.7343 0
      vertex -4.63525 -14.2658 0
    endloop
  endfacet
  facet normal 0.770492 0.63745 0
    outer loop
      vertex -10.9345 -10.2682 4
      vertex -12.1353 -8.81678 0
      vertex -12.1353 -8.81678 4
    endloop
  endfacet
  facet normal 0.770492 0.63745 0
    outer loop
      vertex -12.1353 -8.81678 0
      vertex -10.9345 -10.2682 4
      vertex -10.9345 -10.2682 0
    endloop
  endfacet
  facet normal 0.684557 0.728959 -0
    outer loop
      vertex -9.56136 -11.5577 0
      vertex -10.9345 -10.2682 4
      vertex -9.56136 -11.5577 4
    endloop
  endfacet
  facet normal 0.684557 0.728959 0
    outer loop
      vertex -10.9345 -10.2682 4
      vertex -9.56136 -11.5577 0
      vertex -10.9345 -10.2682 0
    endloop
  endfacet
  facet normal -0.770492 0.63745 0
    outer loop
      vertex 10.9345 -10.2682 0
      vertex 12.1353 -8.81678 4
      vertex 12.1353 -8.81678 0
    endloop
  endfacet
  facet normal -0.770492 0.63745 0
    outer loop
      vertex 12.1353 -8.81678 4
      vertex 10.9345 -10.2682 0
      vertex 10.9345 -10.2682 4
    endloop
  endfacet
  facet normal -0.587778 0.809022 0
    outer loop
      vertex 9.56136 -11.5577 0
      vertex 8.0374 -12.6649 4
      vertex 9.56136 -11.5577 4
    endloop
  endfacet
  facet normal -0.587778 0.809022 0
    outer loop
      vertex 8.0374 -12.6649 4
      vertex 9.56136 -11.5577 0
      vertex 8.0374 -12.6649 0
    endloop
  endfacet
  facet normal -0.48176 0.876303 0
    outer loop
      vertex 8.0374 -12.6649 0
      vertex 6.38669 -13.5724 4
      vertex 8.0374 -12.6649 4
    endloop
  endfacet
  facet normal -0.48176 0.876303 0
    outer loop
      vertex 6.38669 -13.5724 4
      vertex 8.0374 -12.6649 0
      vertex 6.38669 -13.5724 0
    endloop
  endfacet
  facet normal 0.951057 0.309017 0
    outer loop
      vertex -13.9466 -5.52187 4
      vertex -14.5287 -3.73035 0
      vertex -14.5287 -3.73035 4
    endloop
  endfacet
  facet normal 0.951057 0.309017 0
    outer loop
      vertex -14.5287 -3.73035 0
      vertex -13.9466 -5.52187 4
      vertex -13.9466 -5.52187 0
    endloop
  endfacet
  facet normal 0.48176 0.876303 -0
    outer loop
      vertex -6.38669 -13.5724 0
      vertex -8.0374 -12.6649 4
      vertex -6.38669 -13.5724 4
    endloop
  endfacet
  facet normal 0.48176 0.876303 0
    outer loop
      vertex -8.0374 -12.6649 4
      vertex -6.38669 -13.5724 0
      vertex -8.0374 -12.6649 0
    endloop
  endfacet
  facet normal 0.587778 0.809022 -0
    outer loop
      vertex -8.0374 -12.6649 0
      vertex -9.56136 -11.5577 4
      vertex -8.0374 -12.6649 4
    endloop
  endfacet
  facet normal 0.587778 0.809022 0
    outer loop
      vertex -9.56136 -11.5577 4
      vertex -8.0374 -12.6649 0
      vertex -9.56136 -11.5577 0
    endloop
  endfacet
endsolid OpenSCAD_Model
