solid OpenSCAD_Model
  facet normal -0.866025 0.5 -7.75101e-18
    outer loop
      vertex -4.84679 0 0
      vertex -2.42339 4.19745 16
      vertex -2.42339 4.19745 0
    endloop
  endfacet
  facet normal -0.866025 0.5 -7.75101e-18
    outer loop
      vertex -2.42339 4.19745 16
      vertex -4.84679 0 0
      vertex -4.84679 0 16
    endloop
  endfacet
  facet normal 0 1 -0
    outer loop
      vertex 2.42339 4.19745 0
      vertex -2.42339 4.19745 16
      vertex 2.42339 4.19745 16
    endloop
  endfacet
  facet normal 0 1 0
    outer loop
      vertex -2.42339 4.19745 16
      vertex 2.42339 4.19745 0
      vertex -2.42339 4.19745 0
    endloop
  endfacet
  facet normal -0 0 -1
    outer loop
      vertex 4.84679 0 0
      vertex 2.72832 -0.344666 0
      vertex 2.75 0 0
    endloop
  endfacet
  facet normal 0 0 -1
    outer loop
      vertex 4.84679 0 0
      vertex 2.6636 -0.683897 0
      vertex 2.72832 -0.344666 0
    endloop
  endfacet
  facet normal 0 0 -1
    outer loop
      vertex 4.84679 0 0
      vertex 2.55688 -1.01234 0
      vertex 2.6636 -0.683897 0
    endloop
  endfacet
  facet normal 0 0 -1
    outer loop
      vertex 2.40984 -1.32482 0
      vertex 4.84679 0 0
      vertex 2.42339 -4.19745 0
    endloop
  endfacet
  facet normal 0 0 -1
    outer loop
      vertex 4.84679 0 0
      vertex 2.40984 -1.32482 0
      vertex 2.55688 -1.01234 0
    endloop
  endfacet
  facet normal 0 0 -1
    outer loop
      vertex 2.42339 -4.19745 0
      vertex 2.2248 -1.61641 0
      vertex 2.40984 -1.32482 0
    endloop
  endfacet
  facet normal 0 0 -1
    outer loop
      vertex 2.42339 -4.19745 0
      vertex 2.00466 -1.8825 0
      vertex 2.2248 -1.61641 0
    endloop
  endfacet
  facet normal 0 0 -1
    outer loop
      vertex 2.42339 -4.19745 0
      vertex 1.75292 -2.11891 0
      vertex 2.00466 -1.8825 0
    endloop
  endfacet
  facet normal 0 0 -1
    outer loop
      vertex 2.42339 -4.19745 0
      vertex 1.47352 -2.3219 0
      vertex 1.75292 -2.11891 0
    endloop
  endfacet
  facet normal 0 0 -1
    outer loop
      vertex 2.42339 -4.19745 0
      vertex 1.17089 -2.48827 0
      vertex 1.47352 -2.3219 0
    endloop
  endfacet
  facet normal 0 0 -1
    outer loop
      vertex 2.42339 -4.19745 0
      vertex 0.849796 -2.61541 0
      vertex 1.17089 -2.48827 0
    endloop
  endfacet
  facet normal 0 0 -1
    outer loop
      vertex 2.42339 -4.19745 0
      vertex 0.515298 -2.70129 0
      vertex 0.849796 -2.61541 0
    endloop
  endfacet
  facet normal 0 0 -1
    outer loop
      vertex 2.42339 -4.19745 0
      vertex 0.172673 -2.74457 0
      vertex 0.515298 -2.70129 0
    endloop
  endfacet
  facet normal 0 0 -1
    outer loop
      vertex 2.42339 -4.19745 0
      vertex -0.172673 -2.74457 0
      vertex 0.172673 -2.74457 0
    endloop
  endfacet
  facet normal 0 0 -1
    outer loop
      vertex -2.42339 -4.19745 0
      vertex -0.172673 -2.74457 0
      vertex 2.42339 -4.19745 0
    endloop
  endfacet
  facet normal -0 0 -1
    outer loop
      vertex -0.172673 -2.74457 0
      vertex -2.42339 -4.19745 0
      vertex -0.515298 -2.70129 0
    endloop
  endfacet
  facet normal -0 0 -1
    outer loop
      vertex -0.515298 -2.70129 0
      vertex -2.42339 -4.19745 0
      vertex -0.849796 -2.61541 0
    endloop
  endfacet
  facet normal -0 0 -1
    outer loop
      vertex -0.849796 -2.61541 0
      vertex -2.42339 -4.19745 0
      vertex -1.17089 -2.48827 0
    endloop
  endfacet
  facet normal 0 0 -1
    outer loop
      vertex -2.42339 -4.19745 0
      vertex -1.47352 -2.3219 0
      vertex -1.17089 -2.48827 0
    endloop
  endfacet
  facet normal 0 0 -1
    outer loop
      vertex -2.42339 -4.19745 0
      vertex -1.75292 -2.11891 0
      vertex -1.47352 -2.3219 0
    endloop
  endfacet
  facet normal 0 0 -1
    outer loop
      vertex -2.42339 -4.19745 0
      vertex -2.00466 -1.8825 0
      vertex -1.75292 -2.11891 0
    endloop
  endfacet
  facet normal 0 0 -1
    outer loop
      vertex -2.42339 -4.19745 0
      vertex -2.2248 -1.61641 0
      vertex -2.00466 -1.8825 0
    endloop
  endfacet
  facet normal 0 0 -1
    outer loop
      vertex -2.42339 -4.19745 0
      vertex -2.40984 -1.32482 0
      vertex -2.2248 -1.61641 0
    endloop
  endfacet
  facet normal 0 0 -1
    outer loop
      vertex -4.84679 0 0
      vertex -2.40984 -1.32482 0
      vertex -2.42339 -4.19745 0
    endloop
  endfacet
  facet normal 0 0 -1
    outer loop
      vertex -2.40984 -1.32482 0
      vertex -4.84679 0 0
      vertex -2.55688 -1.01234 0
    endloop
  endfacet
  facet normal 0 0 -1
    outer loop
      vertex -2.55688 -1.01234 0
      vertex -4.84679 0 0
      vertex -2.6636 -0.683897 0
    endloop
  endfacet
  facet normal 0 0 -1
    outer loop
      vertex -2.72832 -0.344666 0
      vertex -4.84679 0 0
      vertex -2.75 0 0
    endloop
  endfacet
  facet normal 0 0 -1
    outer loop
      vertex -2.6636 -0.683897 0
      vertex -4.84679 0 0
      vertex -2.72832 -0.344666 0
    endloop
  endfacet
  facet normal 0 0 -1
    outer loop
      vertex 2.72832 0.344666 0
      vertex 4.84679 0 0
      vertex 2.75 0 0
    endloop
  endfacet
  facet normal 0 0 -1
    outer loop
      vertex 2.6636 0.683897 0
      vertex 4.84679 0 0
      vertex 2.72832 0.344666 0
    endloop
  endfacet
  facet normal 0 0 -1
    outer loop
      vertex 2.55688 1.01234 0
      vertex 4.84679 0 0
      vertex 2.6636 0.683897 0
    endloop
  endfacet
  facet normal 0 0 -1
    outer loop
      vertex 2.40984 1.32482 0
      vertex 4.84679 0 0
      vertex 2.55688 1.01234 0
    endloop
  endfacet
  facet normal 0 0 -1
    outer loop
      vertex 4.84679 0 0
      vertex 2.40984 1.32482 0
      vertex 2.42339 4.19745 0
    endloop
  endfacet
  facet normal 0 0 -1
    outer loop
      vertex 2.2248 1.61641 0
      vertex 2.42339 4.19745 0
      vertex 2.40984 1.32482 0
    endloop
  endfacet
  facet normal 0 0 -1
    outer loop
      vertex 2.00466 1.8825 0
      vertex 2.42339 4.19745 0
      vertex 2.2248 1.61641 0
    endloop
  endfacet
  facet normal 0 0 -1
    outer loop
      vertex 1.75292 2.11891 0
      vertex 2.42339 4.19745 0
      vertex 2.00466 1.8825 0
    endloop
  endfacet
  facet normal 0 0 -1
    outer loop
      vertex 1.47352 2.3219 0
      vertex 2.42339 4.19745 0
      vertex 1.75292 2.11891 0
    endloop
  endfacet
  facet normal 0 0 -1
    outer loop
      vertex 1.17089 2.48827 0
      vertex 2.42339 4.19745 0
      vertex 1.47352 2.3219 0
    endloop
  endfacet
  facet normal 0 0 -1
    outer loop
      vertex 0.849796 2.61541 0
      vertex 2.42339 4.19745 0
      vertex 1.17089 2.48827 0
    endloop
  endfacet
  facet normal 0 0 -1
    outer loop
      vertex 0.515298 2.70129 0
      vertex 2.42339 4.19745 0
      vertex 0.849796 2.61541 0
    endloop
  endfacet
  facet normal 0 0 -1
    outer loop
      vertex 0.172673 2.74457 0
      vertex 2.42339 4.19745 0
      vertex 0.515298 2.70129 0
    endloop
  endfacet
  facet normal 0 0 -1
    outer loop
      vertex -0.172673 2.74457 0
      vertex 2.42339 4.19745 0
      vertex 0.172673 2.74457 0
    endloop
  endfacet
  facet normal 0 0 -1
    outer loop
      vertex -2.42339 4.19745 0
      vertex -0.172673 2.74457 0
      vertex -0.515298 2.70129 0
    endloop
  endfacet
  facet normal 0 0 -1
    outer loop
      vertex -2.42339 4.19745 0
      vertex -0.515298 2.70129 0
      vertex -0.849796 2.61541 0
    endloop
  endfacet
  facet normal 0 0 -1
    outer loop
      vertex -2.42339 4.19745 0
      vertex -0.849796 2.61541 0
      vertex -1.17089 2.48827 0
    endloop
  endfacet
  facet normal 0 0 -1
    outer loop
      vertex -0.172673 2.74457 0
      vertex -2.42339 4.19745 0
      vertex 2.42339 4.19745 0
    endloop
  endfacet
  facet normal 0 0 -1
    outer loop
      vertex -1.47352 2.3219 0
      vertex -2.42339 4.19745 0
      vertex -1.17089 2.48827 0
    endloop
  endfacet
  facet normal 0 0 -1
    outer loop
      vertex -1.75292 2.11891 0
      vertex -2.42339 4.19745 0
      vertex -1.47352 2.3219 0
    endloop
  endfacet
  facet normal 0 0 -1
    outer loop
      vertex -2.00466 1.8825 0
      vertex -2.42339 4.19745 0
      vertex -1.75292 2.11891 0
    endloop
  endfacet
  facet normal 0 0 -1
    outer loop
      vertex -2.2248 1.61641 0
      vertex -2.42339 4.19745 0
      vertex -2.00466 1.8825 0
    endloop
  endfacet
  facet normal 0 0 -1
    outer loop
      vertex -2.40984 1.32482 0
      vertex -2.42339 4.19745 0
      vertex -2.2248 1.61641 0
    endloop
  endfacet
  facet normal 0 0 -1
    outer loop
      vertex -4.84679 0 0
      vertex -2.40984 1.32482 0
      vertex -2.55688 1.01234 0
    endloop
  endfacet
  facet normal 0 0 -1
    outer loop
      vertex -4.84679 0 0
      vertex -2.55688 1.01234 0
      vertex -2.6636 0.683897 0
    endloop
  endfacet
  facet normal 0 0 -1
    outer loop
      vertex -4.84679 0 0
      vertex -2.6636 0.683897 0
      vertex -2.72832 0.344666 0
    endloop
  endfacet
  facet normal -0 0 -1
    outer loop
      vertex -2.40984 1.32482 0
      vertex -4.84679 0 0
      vertex -2.42339 4.19745 0
    endloop
  endfacet
  facet normal 0 0 -1
    outer loop
      vertex -4.84679 0 0
      vertex -2.72832 0.344666 0
      vertex -2.75 0 0
    endloop
  endfacet
  facet normal 0.866025 0.5 7.75101e-18
    outer loop
      vertex 4.84679 0 16
      vertex 2.42339 4.19745 0
      vertex 2.42339 4.19745 16
    endloop
  endfacet
  facet normal 0.866025 0.5 7.75101e-18
    outer loop
      vertex 2.42339 4.19745 0
      vertex 4.84679 0 16
      vertex 4.84679 0 0
    endloop
  endfacet
  facet normal 0.866025 -0.5 -7.75101e-18
    outer loop
      vertex 2.42339 -4.19745 16
      vertex 4.84679 0 0
      vertex 4.84679 0 16
    endloop
  endfacet
  facet normal 0.866025 -0.5 -7.75101e-18
    outer loop
      vertex 4.84679 0 0
      vertex 2.42339 -4.19745 16
      vertex 2.42339 -4.19745 0
    endloop
  endfacet
  facet normal 0 0 1
    outer loop
      vertex 2.42339 4.19745 16
      vertex 2.42339 -4.19745 16
      vertex 4.84679 0 16
    endloop
  endfacet
  facet normal -0 0 1
    outer loop
      vertex -2.42339 4.19745 16
      vertex 2.42339 -4.19745 16
      vertex 2.42339 4.19745 16
    endloop
  endfacet
  facet normal 0 0 1
    outer loop
      vertex -2.42339 4.19745 16
      vertex -2.42339 -4.19745 16
      vertex 2.42339 -4.19745 16
    endloop
  endfacet
  facet normal 0 -0 1
    outer loop
      vertex -2.42339 -4.19745 16
      vertex -2.42339 4.19745 16
      vertex -4.84679 0 16
    endloop
  endfacet
  facet normal 0 -1 0
    outer loop
      vertex -2.42339 -4.19745 0
      vertex 2.42339 -4.19745 16
      vertex -2.42339 -4.19745 16
    endloop
  endfacet
  facet normal 0 -1 -0
    outer loop
      vertex 2.42339 -4.19745 16
      vertex -2.42339 -4.19745 0
      vertex 2.42339 -4.19745 0
    endloop
  endfacet
  facet normal -0.866025 -0.5 7.75101e-18
    outer loop
      vertex -2.42339 -4.19745 0
      vertex -4.84679 0 16
      vertex -4.84679 0 0
    endloop
  endfacet
  facet normal -0.866025 -0.5 7.75101e-18
    outer loop
      vertex -4.84679 0 16
      vertex -2.42339 -4.19745 0
      vertex -2.42339 -4.19745 16
    endloop
  endfacet
  facet normal 0.998028 0.0627774 7.58804e-21
    outer loop
      vertex 2.75 0 0
      vertex 2.72832 0.344666 -16
      vertex 2.72832 0.344666 0
    endloop
  endfacet
  facet normal 0.998028 0.0627774 7.58804e-21
    outer loop
      vertex 2.72832 0.344666 -16
      vertex 2.75 0 0
      vertex 2.75 0 -16
    endloop
  endfacet
  facet normal -0.998028 0.0627774 -7.58804e-21
    outer loop
      vertex -2.75 0 -16
      vertex -2.72832 0.344666 0
      vertex -2.72832 0.344666 -16
    endloop
  endfacet
  facet normal -0.998028 0.0627774 -7.58804e-21
    outer loop
      vertex -2.72832 0.344666 0
      vertex -2.75 0 -16
      vertex -2.75 0 0
    endloop
  endfacet
  facet normal 0 1 -0
    outer loop
      vertex 0.172673 2.74457 -16
      vertex -0.172673 2.74457 0
      vertex 0.172673 2.74457 0
    endloop
  endfacet
  facet normal 0 1 0
    outer loop
      vertex -0.172673 2.74457 0
      vertex 0.172673 2.74457 -16
      vertex -0.172673 2.74457 -16
    endloop
  endfacet
  facet normal 0 -1 0
    outer loop
      vertex -0.172673 -2.74457 -16
      vertex 0.172673 -2.74457 0
      vertex -0.172673 -2.74457 0
    endloop
  endfacet
  facet normal 0 -1 -0
    outer loop
      vertex 0.172673 -2.74457 0
      vertex -0.172673 -2.74457 -16
      vertex 0.172673 -2.74457 -16
    endloop
  endfacet
  facet normal 0.684563 0.728954 -0
    outer loop
      vertex 2.00466 1.8825 -16
      vertex 1.75292 2.11891 0
      vertex 2.00466 1.8825 0
    endloop
  endfacet
  facet normal 0.684563 0.728954 0
    outer loop
      vertex 1.75292 2.11891 0
      vertex 2.00466 1.8825 -16
      vertex 1.75292 2.11891 -16
    endloop
  endfacet
  facet normal -0.684563 0.728954 0
    outer loop
      vertex -1.75292 2.11891 -16
      vertex -2.00466 1.8825 0
      vertex -1.75292 2.11891 0
    endloop
  endfacet
  facet normal -0.684563 0.728954 0
    outer loop
      vertex -2.00466 1.8825 0
      vertex -1.75292 2.11891 -16
      vertex -2.00466 1.8825 -16
    endloop
  endfacet
  facet normal -0.368149 0.929767 0
    outer loop
      vertex -0.849796 2.61541 -16
      vertex -1.17089 2.48827 0
      vertex -0.849796 2.61541 0
    endloop
  endfacet
  facet normal -0.368149 0.929767 0
    outer loop
      vertex -1.17089 2.48827 0
      vertex -0.849796 2.61541 -16
      vertex -1.17089 2.48827 -16
    endloop
  endfacet
  facet normal 0.904829 -0.425775 -5.67187e-19
    outer loop
      vertex 2.40984 -1.32482 0
      vertex 2.55688 -1.01234 -16
      vertex 2.55688 -1.01234 0
    endloop
  endfacet
  facet normal 0.904829 -0.425775 -5.67187e-19
    outer loop
      vertex 2.55688 -1.01234 -16
      vertex 2.40984 -1.32482 0
      vertex 2.40984 -1.32482 -16
    endloop
  endfacet
  facet normal 0.904829 0.425775 5.67187e-19
    outer loop
      vertex 2.55688 1.01234 0
      vertex 2.40984 1.32482 -16
      vertex 2.40984 1.32482 0
    endloop
  endfacet
  facet normal 0.904829 0.425775 5.67187e-19
    outer loop
      vertex 2.40984 1.32482 -16
      vertex 2.55688 1.01234 0
      vertex 2.55688 1.01234 -16
    endloop
  endfacet
  facet normal 0.368149 0.929767 -0
    outer loop
      vertex 1.17089 2.48827 -16
      vertex 0.849796 2.61541 0
      vertex 1.17089 2.48827 0
    endloop
  endfacet
  facet normal 0.368149 0.929767 0
    outer loop
      vertex 0.849796 2.61541 0
      vertex 1.17089 2.48827 -16
      vertex 0.849796 2.61541 -16
    endloop
  endfacet
  facet normal 0.587774 0.809025 -0
    outer loop
      vertex 1.75292 2.11891 -16
      vertex 1.47352 2.3219 0
      vertex 1.75292 2.11891 0
    endloop
  endfacet
  facet normal 0.587774 0.809025 0
    outer loop
      vertex 1.47352 2.3219 0
      vertex 1.75292 2.11891 -16
      vertex 1.47352 2.3219 -16
    endloop
  endfacet
  facet normal -0.904829 0.425775 -5.67187e-19
    outer loop
      vertex -2.55688 1.01234 -16
      vertex -2.40984 1.32482 0
      vertex -2.40984 1.32482 -16
    endloop
  endfacet
  facet normal -0.904829 0.425775 -5.67187e-19
    outer loop
      vertex -2.40984 1.32482 0
      vertex -2.55688 1.01234 -16
      vertex -2.55688 1.01234 0
    endloop
  endfacet
  facet normal -0.770497 0.637443 1.55133e-19
    outer loop
      vertex -2.2248 1.61641 -16
      vertex -2.00466 1.8825 0
      vertex -2.00466 1.8825 -16
    endloop
  endfacet
  facet normal -0.770497 0.637443 1.55133e-19
    outer loop
      vertex -2.00466 1.8825 0
      vertex -2.2248 1.61641 -16
      vertex -2.2248 1.61641 0
    endloop
  endfacet
  facet normal -0.481749 0.876309 0
    outer loop
      vertex -1.17089 2.48827 -16
      vertex -1.47352 2.3219 0
      vertex -1.17089 2.48827 0
    endloop
  endfacet
  facet normal -0.481749 0.876309 0
    outer loop
      vertex -1.47352 2.3219 0
      vertex -1.17089 2.48827 -16
      vertex -1.47352 2.3219 -16
    endloop
  endfacet
  facet normal -0.248678 0.968586 0
    outer loop
      vertex -0.515298 2.70129 -16
      vertex -0.849796 2.61541 0
      vertex -0.515298 2.70129 0
    endloop
  endfacet
  facet normal -0.248678 0.968586 0
    outer loop
      vertex -0.849796 2.61541 0
      vertex -0.515298 2.70129 -16
      vertex -0.849796 2.61541 -16
    endloop
  endfacet
  facet normal 0.982283 -0.187404 -2.94015e-19
    outer loop
      vertex 2.6636 -0.683897 0
      vertex 2.72832 -0.344666 -16
      vertex 2.72832 -0.344666 0
    endloop
  endfacet
  facet normal 0.982283 -0.187404 -2.94015e-19
    outer loop
      vertex 2.72832 -0.344666 -16
      vertex 2.6636 -0.683897 0
      vertex 2.6636 -0.683897 -16
    endloop
  endfacet
  facet normal 0 0 -1
    outer loop
      vertex 2.72832 -0.344666 -16
      vertex 2.72832 0.344666 -16
      vertex 2.75 0 -16
    endloop
  endfacet
  facet normal 0 0 -1
    outer loop
      vertex 2.6636 -0.683897 -16
      vertex 2.72832 0.344666 -16
      vertex 2.72832 -0.344666 -16
    endloop
  endfacet
  facet normal 0 0 -1
    outer loop
      vertex 2.6636 -0.683897 -16
      vertex 2.6636 0.683897 -16
      vertex 2.72832 0.344666 -16
    endloop
  endfacet
  facet normal 0 0 -1
    outer loop
      vertex 2.55688 -1.01234 -16
      vertex 2.6636 0.683897 -16
      vertex 2.6636 -0.683897 -16
    endloop
  endfacet
  facet normal 0 0 -1
    outer loop
      vertex 2.55688 -1.01234 -16
      vertex 2.55688 1.01234 -16
      vertex 2.6636 0.683897 -16
    endloop
  endfacet
  facet normal 0 0 -1
    outer loop
      vertex 2.40984 -1.32482 -16
      vertex 2.55688 1.01234 -16
      vertex 2.55688 -1.01234 -16
    endloop
  endfacet
  facet normal 0 0 -1
    outer loop
      vertex 2.40984 -1.32482 -16
      vertex 2.40984 1.32482 -16
      vertex 2.55688 1.01234 -16
    endloop
  endfacet
  facet normal 0 0 -1
    outer loop
      vertex 2.2248 -1.61641 -16
      vertex 2.40984 1.32482 -16
      vertex 2.40984 -1.32482 -16
    endloop
  endfacet
  facet normal 0 0 -1
    outer loop
      vertex 2.2248 -1.61641 -16
      vertex 2.2248 1.61641 -16
      vertex 2.40984 1.32482 -16
    endloop
  endfacet
  facet normal 0 0 -1
    outer loop
      vertex 2.00466 -1.8825 -16
      vertex 2.2248 1.61641 -16
      vertex 2.2248 -1.61641 -16
    endloop
  endfacet
  facet normal 0 0 -1
    outer loop
      vertex 2.00466 -1.8825 -16
      vertex 2.00466 1.8825 -16
      vertex 2.2248 1.61641 -16
    endloop
  endfacet
  facet normal 0 0 -1
    outer loop
      vertex 1.75292 -2.11891 -16
      vertex 2.00466 1.8825 -16
      vertex 2.00466 -1.8825 -16
    endloop
  endfacet
  facet normal 0 0 -1
    outer loop
      vertex 1.75292 -2.11891 -16
      vertex 1.75292 2.11891 -16
      vertex 2.00466 1.8825 -16
    endloop
  endfacet
  facet normal 0 0 -1
    outer loop
      vertex 1.47352 -2.3219 -16
      vertex 1.75292 2.11891 -16
      vertex 1.75292 -2.11891 -16
    endloop
  endfacet
  facet normal 0 0 -1
    outer loop
      vertex 1.47352 -2.3219 -16
      vertex 1.47352 2.3219 -16
      vertex 1.75292 2.11891 -16
    endloop
  endfacet
  facet normal 0 0 -1
    outer loop
      vertex 1.17089 -2.48827 -16
      vertex 1.47352 2.3219 -16
      vertex 1.47352 -2.3219 -16
    endloop
  endfacet
  facet normal 0 0 -1
    outer loop
      vertex 1.17089 -2.48827 -16
      vertex 1.17089 2.48827 -16
      vertex 1.47352 2.3219 -16
    endloop
  endfacet
  facet normal 0 0 -1
    outer loop
      vertex 0.849796 -2.61541 -16
      vertex 1.17089 2.48827 -16
      vertex 1.17089 -2.48827 -16
    endloop
  endfacet
  facet normal 0 0 -1
    outer loop
      vertex 0.849796 -2.61541 -16
      vertex 0.849796 2.61541 -16
      vertex 1.17089 2.48827 -16
    endloop
  endfacet
  facet normal 0 0 -1
    outer loop
      vertex 0.515298 -2.70129 -16
      vertex 0.849796 2.61541 -16
      vertex 0.849796 -2.61541 -16
    endloop
  endfacet
  facet normal 0 0 -1
    outer loop
      vertex 0.515298 -2.70129 -16
      vertex 0.515298 2.70129 -16
      vertex 0.849796 2.61541 -16
    endloop
  endfacet
  facet normal 0 0 -1
    outer loop
      vertex 0.172673 -2.74457 -16
      vertex 0.515298 2.70129 -16
      vertex 0.515298 -2.70129 -16
    endloop
  endfacet
  facet normal 0 0 -1
    outer loop
      vertex 0.172673 -2.74457 -16
      vertex 0.172673 2.74457 -16
      vertex 0.515298 2.70129 -16
    endloop
  endfacet
  facet normal 0 0 -1
    outer loop
      vertex -0.172673 -2.74457 -16
      vertex 0.172673 2.74457 -16
      vertex 0.172673 -2.74457 -16
    endloop
  endfacet
  facet normal 0 0 -1
    outer loop
      vertex -0.172673 -2.74457 -16
      vertex -0.172673 2.74457 -16
      vertex 0.172673 2.74457 -16
    endloop
  endfacet
  facet normal 0 0 -1
    outer loop
      vertex -0.515298 -2.70129 -16
      vertex -0.172673 2.74457 -16
      vertex -0.172673 -2.74457 -16
    endloop
  endfacet
  facet normal 0 0 -1
    outer loop
      vertex -0.515298 -2.70129 -16
      vertex -0.515298 2.70129 -16
      vertex -0.172673 2.74457 -16
    endloop
  endfacet
  facet normal 0 0 -1
    outer loop
      vertex -0.849796 -2.61541 -16
      vertex -0.515298 2.70129 -16
      vertex -0.515298 -2.70129 -16
    endloop
  endfacet
  facet normal 0 0 -1
    outer loop
      vertex -0.849796 -2.61541 -16
      vertex -0.849796 2.61541 -16
      vertex -0.515298 2.70129 -16
    endloop
  endfacet
  facet normal 0 0 -1
    outer loop
      vertex -1.17089 -2.48827 -16
      vertex -0.849796 2.61541 -16
      vertex -0.849796 -2.61541 -16
    endloop
  endfacet
  facet normal 0 0 -1
    outer loop
      vertex -1.17089 -2.48827 -16
      vertex -1.17089 2.48827 -16
      vertex -0.849796 2.61541 -16
    endloop
  endfacet
  facet normal 0 0 -1
    outer loop
      vertex -1.47352 -2.3219 -16
      vertex -1.17089 2.48827 -16
      vertex -1.17089 -2.48827 -16
    endloop
  endfacet
  facet normal 0 0 -1
    outer loop
      vertex -1.47352 -2.3219 -16
      vertex -1.47352 2.3219 -16
      vertex -1.17089 2.48827 -16
    endloop
  endfacet
  facet normal 0 0 -1
    outer loop
      vertex -1.75292 -2.11891 -16
      vertex -1.47352 2.3219 -16
      vertex -1.47352 -2.3219 -16
    endloop
  endfacet
  facet normal 0 0 -1
    outer loop
      vertex -1.75292 -2.11891 -16
      vertex -1.75292 2.11891 -16
      vertex -1.47352 2.3219 -16
    endloop
  endfacet
  facet normal 0 0 -1
    outer loop
      vertex -2.00466 -1.8825 -16
      vertex -1.75292 2.11891 -16
      vertex -1.75292 -2.11891 -16
    endloop
  endfacet
  facet normal 0 0 -1
    outer loop
      vertex -2.00466 -1.8825 -16
      vertex -2.00466 1.8825 -16
      vertex -1.75292 2.11891 -16
    endloop
  endfacet
  facet normal 0 0 -1
    outer loop
      vertex -2.2248 -1.61641 -16
      vertex -2.00466 1.8825 -16
      vertex -2.00466 -1.8825 -16
    endloop
  endfacet
  facet normal 0 0 -1
    outer loop
      vertex -2.2248 -1.61641 -16
      vertex -2.2248 1.61641 -16
      vertex -2.00466 1.8825 -16
    endloop
  endfacet
  facet normal 0 0 -1
    outer loop
      vertex -2.40984 -1.32482 -16
      vertex -2.2248 1.61641 -16
      vertex -2.2248 -1.61641 -16
    endloop
  endfacet
  facet normal 0 0 -1
    outer loop
      vertex -2.40984 -1.32482 -16
      vertex -2.40984 1.32482 -16
      vertex -2.2248 1.61641 -16
    endloop
  endfacet
  facet normal 0 0 -1
    outer loop
      vertex -2.55688 -1.01234 -16
      vertex -2.40984 1.32482 -16
      vertex -2.40984 -1.32482 -16
    endloop
  endfacet
  facet normal 0 0 -1
    outer loop
      vertex -2.55688 -1.01234 -16
      vertex -2.55688 1.01234 -16
      vertex -2.40984 1.32482 -16
    endloop
  endfacet
  facet normal 0 0 -1
    outer loop
      vertex -2.6636 -0.683897 -16
      vertex -2.55688 1.01234 -16
      vertex -2.55688 -1.01234 -16
    endloop
  endfacet
  facet normal 0 0 -1
    outer loop
      vertex -2.6636 -0.683897 -16
      vertex -2.6636 0.683897 -16
      vertex -2.55688 1.01234 -16
    endloop
  endfacet
  facet normal 0 0 -1
    outer loop
      vertex -2.72832 -0.344666 -16
      vertex -2.6636 0.683897 -16
      vertex -2.6636 -0.683897 -16
    endloop
  endfacet
  facet normal 0 0 -1
    outer loop
      vertex -2.72832 -0.344666 -16
      vertex -2.72832 0.344666 -16
      vertex -2.6636 0.683897 -16
    endloop
  endfacet
  facet normal 0 -0 -1
    outer loop
      vertex -2.72832 0.344666 -16
      vertex -2.72832 -0.344666 -16
      vertex -2.75 0 -16
    endloop
  endfacet
  facet normal 0.368149 -0.929767 0
    outer loop
      vertex 0.849796 -2.61541 -16
      vertex 1.17089 -2.48827 0
      vertex 0.849796 -2.61541 0
    endloop
  endfacet
  facet normal 0.368149 -0.929767 0
    outer loop
      vertex 1.17089 -2.48827 0
      vertex 0.849796 -2.61541 -16
      vertex 1.17089 -2.48827 -16
    endloop
  endfacet
  facet normal 0.951054 0.309023 5.35916e-19
    outer loop
      vertex 2.6636 0.683897 0
      vertex 2.55688 1.01234 -16
      vertex 2.55688 1.01234 0
    endloop
  endfacet
  facet normal 0.951054 0.309023 5.35916e-19
    outer loop
      vertex 2.55688 1.01234 -16
      vertex 2.6636 0.683897 0
      vertex 2.6636 0.683897 -16
    endloop
  endfacet
  facet normal 0.982283 0.187404 2.94015e-19
    outer loop
      vertex 2.72832 0.344666 0
      vertex 2.6636 0.683897 -16
      vertex 2.6636 0.683897 0
    endloop
  endfacet
  facet normal 0.982283 0.187404 2.94015e-19
    outer loop
      vertex 2.6636 0.683897 -16
      vertex 2.72832 0.344666 0
      vertex 2.72832 0.344666 -16
    endloop
  endfacet
  facet normal 0.770497 0.637443 -1.55133e-19
    outer loop
      vertex 2.2248 1.61641 0
      vertex 2.00466 1.8825 -16
      vertex 2.00466 1.8825 0
    endloop
  endfacet
  facet normal 0.770497 0.637443 -1.55133e-19
    outer loop
      vertex 2.00466 1.8825 -16
      vertex 2.2248 1.61641 0
      vertex 2.2248 1.61641 -16
    endloop
  endfacet
  facet normal 0.844339 0.535809 2.27488e-19
    outer loop
      vertex 2.40984 1.32482 0
      vertex 2.2248 1.61641 -16
      vertex 2.2248 1.61641 0
    endloop
  endfacet
  facet normal 0.844339 0.535809 2.27488e-19
    outer loop
      vertex 2.2248 1.61641 -16
      vertex 2.40984 1.32482 0
      vertex 2.40984 1.32482 -16
    endloop
  endfacet
  facet normal 0.248678 0.968586 -0
    outer loop
      vertex 0.849796 2.61541 -16
      vertex 0.515298 2.70129 0
      vertex 0.849796 2.61541 0
    endloop
  endfacet
  facet normal 0.248678 0.968586 0
    outer loop
      vertex 0.515298 2.70129 0
      vertex 0.849796 2.61541 -16
      vertex 0.515298 2.70129 -16
    endloop
  endfacet
  facet normal 0.125323 0.992116 -0
    outer loop
      vertex 0.515298 2.70129 -16
      vertex 0.172673 2.74457 0
      vertex 0.515298 2.70129 0
    endloop
  endfacet
  facet normal 0.125323 0.992116 0
    outer loop
      vertex 0.172673 2.74457 0
      vertex 0.515298 2.70129 -16
      vertex 0.172673 2.74457 -16
    endloop
  endfacet
  facet normal 0.481749 0.876309 -0
    outer loop
      vertex 1.47352 2.3219 -16
      vertex 1.17089 2.48827 0
      vertex 1.47352 2.3219 0
    endloop
  endfacet
  facet normal 0.481749 0.876309 0
    outer loop
      vertex 1.17089 2.48827 0
      vertex 1.47352 2.3219 -16
      vertex 1.17089 2.48827 -16
    endloop
  endfacet
  facet normal -0.844339 0.535809 -2.27488e-19
    outer loop
      vertex -2.40984 1.32482 -16
      vertex -2.2248 1.61641 0
      vertex -2.2248 1.61641 -16
    endloop
  endfacet
  facet normal -0.844339 0.535809 -2.27488e-19
    outer loop
      vertex -2.2248 1.61641 0
      vertex -2.40984 1.32482 -16
      vertex -2.40984 1.32482 0
    endloop
  endfacet
  facet normal -0.951054 0.309023 -5.35916e-19
    outer loop
      vertex -2.6636 0.683897 -16
      vertex -2.55688 1.01234 0
      vertex -2.55688 1.01234 -16
    endloop
  endfacet
  facet normal -0.951054 0.309023 -5.35916e-19
    outer loop
      vertex -2.55688 1.01234 0
      vertex -2.6636 0.683897 -16
      vertex -2.6636 0.683897 0
    endloop
  endfacet
  facet normal -0.982283 0.187404 -2.94015e-19
    outer loop
      vertex -2.72832 0.344666 -16
      vertex -2.6636 0.683897 0
      vertex -2.6636 0.683897 -16
    endloop
  endfacet
  facet normal -0.982283 0.187404 -2.94015e-19
    outer loop
      vertex -2.6636 0.683897 0
      vertex -2.72832 0.344666 -16
      vertex -2.72832 0.344666 0
    endloop
  endfacet
  facet normal -0.587774 0.809025 0
    outer loop
      vertex -1.47352 2.3219 -16
      vertex -1.75292 2.11891 0
      vertex -1.47352 2.3219 0
    endloop
  endfacet
  facet normal -0.587774 0.809025 0
    outer loop
      vertex -1.75292 2.11891 0
      vertex -1.47352 2.3219 -16
      vertex -1.75292 2.11891 -16
    endloop
  endfacet
  facet normal -0.125323 0.992116 0
    outer loop
      vertex -0.172673 2.74457 -16
      vertex -0.515298 2.70129 0
      vertex -0.172673 2.74457 0
    endloop
  endfacet
  facet normal -0.125323 0.992116 0
    outer loop
      vertex -0.515298 2.70129 0
      vertex -0.172673 2.74457 -16
      vertex -0.515298 2.70129 -16
    endloop
  endfacet
  facet normal 0.998028 -0.0627774 -7.58804e-21
    outer loop
      vertex 2.72832 -0.344666 0
      vertex 2.75 0 -16
      vertex 2.75 0 0
    endloop
  endfacet
  facet normal 0.998028 -0.0627774 -7.58804e-21
    outer loop
      vertex 2.75 0 -16
      vertex 2.72832 -0.344666 0
      vertex 2.72832 -0.344666 -16
    endloop
  endfacet
  facet normal 0.770497 -0.637443 1.55133e-19
    outer loop
      vertex 2.00466 -1.8825 0
      vertex 2.2248 -1.61641 -16
      vertex 2.2248 -1.61641 0
    endloop
  endfacet
  facet normal 0.770497 -0.637443 1.55133e-19
    outer loop
      vertex 2.2248 -1.61641 -16
      vertex 2.00466 -1.8825 0
      vertex 2.00466 -1.8825 -16
    endloop
  endfacet
  facet normal -0.904829 -0.425775 5.67187e-19
    outer loop
      vertex -2.40984 -1.32482 -16
      vertex -2.55688 -1.01234 0
      vertex -2.55688 -1.01234 -16
    endloop
  endfacet
  facet normal -0.904829 -0.425775 5.67187e-19
    outer loop
      vertex -2.55688 -1.01234 0
      vertex -2.40984 -1.32482 -16
      vertex -2.40984 -1.32482 0
    endloop
  endfacet
  facet normal -0.770497 -0.637443 -1.55133e-19
    outer loop
      vertex -2.00466 -1.8825 -16
      vertex -2.2248 -1.61641 0
      vertex -2.2248 -1.61641 -16
    endloop
  endfacet
  facet normal -0.770497 -0.637443 -1.55133e-19
    outer loop
      vertex -2.2248 -1.61641 0
      vertex -2.00466 -1.8825 -16
      vertex -2.00466 -1.8825 0
    endloop
  endfacet
  facet normal 0.481749 -0.876309 0
    outer loop
      vertex 1.17089 -2.48827 -16
      vertex 1.47352 -2.3219 0
      vertex 1.17089 -2.48827 0
    endloop
  endfacet
  facet normal 0.481749 -0.876309 0
    outer loop
      vertex 1.47352 -2.3219 0
      vertex 1.17089 -2.48827 -16
      vertex 1.47352 -2.3219 -16
    endloop
  endfacet
  facet normal 0.951054 -0.309023 -5.35916e-19
    outer loop
      vertex 2.55688 -1.01234 0
      vertex 2.6636 -0.683897 -16
      vertex 2.6636 -0.683897 0
    endloop
  endfacet
  facet normal 0.951054 -0.309023 -5.35916e-19
    outer loop
      vertex 2.6636 -0.683897 -16
      vertex 2.55688 -1.01234 0
      vertex 2.55688 -1.01234 -16
    endloop
  endfacet
  facet normal 0.844339 -0.535809 -2.27488e-19
    outer loop
      vertex 2.2248 -1.61641 0
      vertex 2.40984 -1.32482 -16
      vertex 2.40984 -1.32482 0
    endloop
  endfacet
  facet normal 0.844339 -0.535809 -2.27488e-19
    outer loop
      vertex 2.40984 -1.32482 -16
      vertex 2.2248 -1.61641 0
      vertex 2.2248 -1.61641 -16
    endloop
  endfacet
  facet normal -0.982283 -0.187404 2.94015e-19
    outer loop
      vertex -2.6636 -0.683897 -16
      vertex -2.72832 -0.344666 0
      vertex -2.72832 -0.344666 -16
    endloop
  endfacet
  facet normal -0.982283 -0.187404 2.94015e-19
    outer loop
      vertex -2.72832 -0.344666 0
      vertex -2.6636 -0.683897 -16
      vertex -2.6636 -0.683897 0
    endloop
  endfacet
  facet normal -0.998028 -0.0627774 7.58804e-21
    outer loop
      vertex -2.72832 -0.344666 -16
      vertex -2.75 0 0
      vertex -2.75 0 -16
    endloop
  endfacet
  facet normal -0.998028 -0.0627774 7.58804e-21
    outer loop
      vertex -2.75 0 0
      vertex -2.72832 -0.344666 -16
      vertex -2.72832 -0.344666 0
    endloop
  endfacet
  facet normal -0.951054 -0.309023 5.35916e-19
    outer loop
      vertex -2.55688 -1.01234 -16
      vertex -2.6636 -0.683897 0
      vertex -2.6636 -0.683897 -16
    endloop
  endfacet
  facet normal -0.951054 -0.309023 5.35916e-19
    outer loop
      vertex -2.6636 -0.683897 0
      vertex -2.55688 -1.01234 -16
      vertex -2.55688 -1.01234 0
    endloop
  endfacet
  facet normal 0.587774 -0.809025 0
    outer loop
      vertex 1.47352 -2.3219 -16
      vertex 1.75292 -2.11891 0
      vertex 1.47352 -2.3219 0
    endloop
  endfacet
  facet normal 0.587774 -0.809025 0
    outer loop
      vertex 1.75292 -2.11891 0
      vertex 1.47352 -2.3219 -16
      vertex 1.75292 -2.11891 -16
    endloop
  endfacet
  facet normal 0.248678 -0.968586 0
    outer loop
      vertex 0.515298 -2.70129 -16
      vertex 0.849796 -2.61541 0
      vertex 0.515298 -2.70129 0
    endloop
  endfacet
  facet normal 0.248678 -0.968586 0
    outer loop
      vertex 0.849796 -2.61541 0
      vertex 0.515298 -2.70129 -16
      vertex 0.849796 -2.61541 -16
    endloop
  endfacet
  facet normal 0.125323 -0.992116 0
    outer loop
      vertex 0.172673 -2.74457 -16
      vertex 0.515298 -2.70129 0
      vertex 0.172673 -2.74457 0
    endloop
  endfacet
  facet normal 0.125323 -0.992116 0
    outer loop
      vertex 0.515298 -2.70129 0
      vertex 0.172673 -2.74457 -16
      vertex 0.515298 -2.70129 -16
    endloop
  endfacet
  facet normal -0.125323 -0.992116 0
    outer loop
      vertex -0.515298 -2.70129 -16
      vertex -0.172673 -2.74457 0
      vertex -0.515298 -2.70129 0
    endloop
  endfacet
  facet normal -0.125323 -0.992116 -0
    outer loop
      vertex -0.172673 -2.74457 0
      vertex -0.515298 -2.70129 -16
      vertex -0.172673 -2.74457 -16
    endloop
  endfacet
  facet normal -0.368149 -0.929767 0
    outer loop
      vertex -1.17089 -2.48827 -16
      vertex -0.849796 -2.61541 0
      vertex -1.17089 -2.48827 0
    endloop
  endfacet
  facet normal -0.368149 -0.929767 -0
    outer loop
      vertex -0.849796 -2.61541 0
      vertex -1.17089 -2.48827 -16
      vertex -0.849796 -2.61541 -16
    endloop
  endfacet
  facet normal -0.248678 -0.968586 0
    outer loop
      vertex -0.849796 -2.61541 -16
      vertex -0.515298 -2.70129 0
      vertex -0.849796 -2.61541 0
    endloop
  endfacet
  facet normal -0.248678 -0.968586 -0
    outer loop
      vertex -0.515298 -2.70129 0
      vertex -0.849796 -2.61541 -16
      vertex -0.515298 -2.70129 -16
    endloop
  endfacet
  facet normal -0.844339 -0.535809 2.27488e-19
    outer loop
      vertex -2.2248 -1.61641 -16
      vertex -2.40984 -1.32482 0
      vertex -2.40984 -1.32482 -16
    endloop
  endfacet
  facet normal -0.844339 -0.535809 2.27488e-19
    outer loop
      vertex -2.40984 -1.32482 0
      vertex -2.2248 -1.61641 -16
      vertex -2.2248 -1.61641 0
    endloop
  endfacet
  facet normal 0.684563 -0.728954 0
    outer loop
      vertex 1.75292 -2.11891 -16
      vertex 2.00466 -1.8825 0
      vertex 1.75292 -2.11891 0
    endloop
  endfacet
  facet normal 0.684563 -0.728954 0
    outer loop
      vertex 2.00466 -1.8825 0
      vertex 1.75292 -2.11891 -16
      vertex 2.00466 -1.8825 -16
    endloop
  endfacet
  facet normal -0.481749 -0.876309 0
    outer loop
      vertex -1.47352 -2.3219 -16
      vertex -1.17089 -2.48827 0
      vertex -1.47352 -2.3219 0
    endloop
  endfacet
  facet normal -0.481749 -0.876309 -0
    outer loop
      vertex -1.17089 -2.48827 0
      vertex -1.47352 -2.3219 -16
      vertex -1.17089 -2.48827 -16
    endloop
  endfacet
  facet normal -0.587774 -0.809025 0
    outer loop
      vertex -1.75292 -2.11891 -16
      vertex -1.47352 -2.3219 0
      vertex -1.75292 -2.11891 0
    endloop
  endfacet
  facet normal -0.587774 -0.809025 -0
    outer loop
      vertex -1.47352 -2.3219 0
      vertex -1.75292 -2.11891 -16
      vertex -1.47352 -2.3219 -16
    endloop
  endfacet
  facet normal -0.684563 -0.728954 0
    outer loop
      vertex -2.00466 -1.8825 -16
      vertex -1.75292 -2.11891 0
      vertex -2.00466 -1.8825 0
    endloop
  endfacet
  facet normal -0.684563 -0.728954 -0
    outer loop
      vertex -1.75292 -2.11891 0
      vertex -2.00466 -1.8825 -16
      vertex -1.75292 -2.11891 -16
    endloop
  endfacet
endsolid OpenSCAD_Model
