solid OpenSCAD_Model
  facet normal 0 0 -1
    outer loop
      vertex -1.91227 -2.31154 0
      vertex -1.75 -0.413301 0
      vertex -1.75 -2.42944 0
    endloop
  endfacet
  facet normal 0 0 -1
    outer loop
      vertex -2.18691 -2.05364 0
      vertex -1.75 -0.413301 0
      vertex -1.91227 -2.31154 0
    endloop
  endfacet
  facet normal 0 0 -1
    outer loop
      vertex -2.42705 -1.76336 0
      vertex -1.75 -0.413301 0
      vertex -2.18691 -2.05364 0
    endloop
  endfacet
  facet normal 0 0 -1
    outer loop
      vertex -2.97634 0.375999 0
      vertex -1.75 0.413301 0
      vertex -1.78581 0.225599 0
    endloop
  endfacet
  facet normal 0 0 -1
    outer loop
      vertex -2.97634 0.375999 0
      vertex -1.78581 0.225599 0
      vertex -1.8 0 0
    endloop
  endfacet
  facet normal 0 0 -1
    outer loop
      vertex -2.62892 -1.44526 0
      vertex -1.75 -0.413301 0
      vertex -2.42705 -1.76336 0
    endloop
  endfacet
  facet normal 0 0 -1
    outer loop
      vertex -2.78933 -1.10437 0
      vertex -1.75 -0.413301 0
      vertex -2.62892 -1.44526 0
    endloop
  endfacet
  facet normal 0 0 -1
    outer loop
      vertex -1.75 0.413301 0
      vertex -2.18691 2.05364 0
      vertex -1.91227 2.31154 0
    endloop
  endfacet
  facet normal 0 0 -1
    outer loop
      vertex -1.75 0.413301 0
      vertex -1.91227 2.31154 0
      vertex -1.75 2.42944 0
    endloop
  endfacet
  facet normal 0 0 -1
    outer loop
      vertex -2.90575 -0.746069 0
      vertex -1.75 -0.413301 0
      vertex -2.78933 -1.10437 0
    endloop
  endfacet
  facet normal 0 0 -1
    outer loop
      vertex -1.75 0.413301 0
      vertex -2.42705 1.76336 0
      vertex -2.18691 2.05364 0
    endloop
  endfacet
  facet normal 0 0 -1
    outer loop
      vertex -2.97634 -0.375999 0
      vertex -1.75 -0.413301 0
      vertex -2.90575 -0.746069 0
    endloop
  endfacet
  facet normal 0 0 -1
    outer loop
      vertex -1.75 0.413301 0
      vertex -2.62892 1.44526 0
      vertex -2.42705 1.76336 0
    endloop
  endfacet
  facet normal 0 0 -1
    outer loop
      vertex -1.75 -0.413301 0
      vertex -2.97634 -0.375999 0
      vertex -1.78581 -0.225599 0
    endloop
  endfacet
  facet normal 0 0 -1
    outer loop
      vertex -1.75 0.413301 0
      vertex -2.78933 1.10437 0
      vertex -2.62892 1.44526 0
    endloop
  endfacet
  facet normal -0 0 -1
    outer loop
      vertex -1.78581 -0.225599 0
      vertex -2.97634 -0.375999 0
      vertex -1.8 0 0
    endloop
  endfacet
  facet normal 0 0 -1
    outer loop
      vertex -1.75 0.413301 0
      vertex -2.90575 0.746069 0
      vertex -2.78933 1.10437 0
    endloop
  endfacet
  facet normal 0 0 -1
    outer loop
      vertex -3 0 0
      vertex -1.8 0 0
      vertex -2.97634 -0.375999 0
    endloop
  endfacet
  facet normal -0 0 -1
    outer loop
      vertex -1.75 0.413301 0
      vertex -2.97634 0.375999 0
      vertex -2.90575 0.746069 0
    endloop
  endfacet
  facet normal 0 0 -1
    outer loop
      vertex -1.8 0 0
      vertex -3 0 0
      vertex -2.97634 0.375999 0
    endloop
  endfacet
  facet normal 0 0 -1
    outer loop
      vertex 1.8 0 0
      vertex 3 0 0
      vertex 2.97634 -0.375999 0
    endloop
  endfacet
  facet normal 0 0 -1
    outer loop
      vertex 1.75 -0.413301 0
      vertex 2.97634 -0.375999 0
      vertex 2.90575 -0.746069 0
    endloop
  endfacet
  facet normal 0 0 -1
    outer loop
      vertex 3 0 0
      vertex 1.8 0 0
      vertex 2.97634 0.375999 0
    endloop
  endfacet
  facet normal 0 0 -1
    outer loop
      vertex 1.75 -0.413301 0
      vertex 2.90575 -0.746069 0
      vertex 2.78933 -1.10437 0
    endloop
  endfacet
  facet normal 0 0 -1
    outer loop
      vertex 1.78581 0.225599 0
      vertex 2.97634 0.375999 0
      vertex 1.8 0 0
    endloop
  endfacet
  facet normal 0 0 -1
    outer loop
      vertex 1.75 -0.413301 0
      vertex 2.78933 -1.10437 0
      vertex 2.62892 -1.44526 0
    endloop
  endfacet
  facet normal 0 0 -1
    outer loop
      vertex 1.75 0.413301 0
      vertex 2.97634 0.375999 0
      vertex 1.78581 0.225599 0
    endloop
  endfacet
  facet normal 0 0 -1
    outer loop
      vertex 1.75 -0.413301 0
      vertex 2.62892 -1.44526 0
      vertex 2.42705 -1.76336 0
    endloop
  endfacet
  facet normal 0 0 -1
    outer loop
      vertex 2.97634 0.375999 0
      vertex 1.75 0.413301 0
      vertex 2.90575 0.746069 0
    endloop
  endfacet
  facet normal 0 0 -1
    outer loop
      vertex 1.75 -0.413301 0
      vertex 2.42705 -1.76336 0
      vertex 2.18691 -2.05364 0
    endloop
  endfacet
  facet normal -0 0 -1
    outer loop
      vertex 2.90575 0.746069 0
      vertex 1.75 0.413301 0
      vertex 2.78933 1.10437 0
    endloop
  endfacet
  facet normal 0 0 -1
    outer loop
      vertex 1.75 -0.413301 0
      vertex 2.18691 -2.05364 0
      vertex 1.91227 -2.31154 0
    endloop
  endfacet
  facet normal -0 0 -1
    outer loop
      vertex 2.78933 1.10437 0
      vertex 1.75 0.413301 0
      vertex 2.62892 1.44526 0
    endloop
  endfacet
  facet normal -0 0 -1
    outer loop
      vertex 2.62892 1.44526 0
      vertex 1.75 0.413301 0
      vertex 2.42705 1.76336 0
    endloop
  endfacet
  facet normal 0 0 -1
    outer loop
      vertex 2.97634 -0.375999 0
      vertex 1.78581 -0.225599 0
      vertex 1.8 0 0
    endloop
  endfacet
  facet normal 0 0 -1
    outer loop
      vertex 1.75 -0.413301 0
      vertex 1.91227 -2.31154 0
      vertex 1.75 -2.42944 0
    endloop
  endfacet
  facet normal -0 0 -1
    outer loop
      vertex 2.97634 -0.375999 0
      vertex 1.75 -0.413301 0
      vertex 1.78581 -0.225599 0
    endloop
  endfacet
  facet normal -0 0 -1
    outer loop
      vertex 2.42705 1.76336 0
      vertex 1.75 0.413301 0
      vertex 2.18691 2.05364 0
    endloop
  endfacet
  facet normal -0 0 -1
    outer loop
      vertex 2.18691 2.05364 0
      vertex 1.75 0.413301 0
      vertex 1.91227 2.31154 0
    endloop
  endfacet
  facet normal -0 0 -1
    outer loop
      vertex 1.91227 2.31154 0
      vertex 1.75 0.413301 0
      vertex 1.75 2.42944 0
    endloop
  endfacet
  facet normal -0 0 1
    outer loop
      vertex 1.60748 -2.53298 0
      vertex 1.75 -3.25 0
      vertex 1.75 -2.42944 0
    endloop
  endfacet
  facet normal -0 0 1
    outer loop
      vertex 1.27734 -2.71448 0
      vertex 1.75 -3.25 0
      vertex 1.60748 -2.53298 0
    endloop
  endfacet
  facet normal -0 0 1
    outer loop
      vertex 0.927051 -2.85317 0
      vertex 1.75 -3.25 0
      vertex 1.27734 -2.71448 0
    endloop
  endfacet
  facet normal -0 0 1
    outer loop
      vertex 0.562143 -2.94686 0
      vertex 1.75 -3.25 0
      vertex 0.927051 -2.85317 0
    endloop
  endfacet
  facet normal -0 0 1
    outer loop
      vertex 0.188371 -2.99408 0
      vertex 1.75 -3.25 0
      vertex 0.562143 -2.94686 0
    endloop
  endfacet
  facet normal -0 0 1
    outer loop
      vertex -0.188371 -2.99408 0
      vertex 1.75 -3.25 0
      vertex 0.188371 -2.99408 0
    endloop
  endfacet
  facet normal 0 0 1
    outer loop
      vertex -1.75 -3.25 0
      vertex -0.188371 -2.99408 0
      vertex -0.562143 -2.94686 0
    endloop
  endfacet
  facet normal 0 0 1
    outer loop
      vertex -0.188371 -2.99408 0
      vertex -1.75 -3.25 0
      vertex 1.75 -3.25 0
    endloop
  endfacet
  facet normal 0 0 1
    outer loop
      vertex -0.927051 -2.85317 0
      vertex -1.75 -3.25 0
      vertex -0.562143 -2.94686 0
    endloop
  endfacet
  facet normal 0 0 1
    outer loop
      vertex -1.27734 -2.71448 0
      vertex -1.75 -3.25 0
      vertex -0.927051 -2.85317 0
    endloop
  endfacet
  facet normal 0 0 1
    outer loop
      vertex -1.60748 -2.53298 0
      vertex -1.75 -3.25 0
      vertex -1.27734 -2.71448 0
    endloop
  endfacet
  facet normal 0 0 1
    outer loop
      vertex -1.75 -3.25 0
      vertex -1.60748 -2.53298 0
      vertex -1.75 -2.42944 0
    endloop
  endfacet
  facet normal 0 0 1
    outer loop
      vertex 1.75 3.25 0
      vertex 1.60748 2.53298 0
      vertex 1.75 2.42944 0
    endloop
  endfacet
  facet normal 0 0 1
    outer loop
      vertex 1.75 3.25 0
      vertex 1.27734 2.71448 0
      vertex 1.60748 2.53298 0
    endloop
  endfacet
  facet normal 0 0 1
    outer loop
      vertex 1.75 3.25 0
      vertex 0.927051 2.85317 0
      vertex 1.27734 2.71448 0
    endloop
  endfacet
  facet normal 0 0 1
    outer loop
      vertex 1.75 3.25 0
      vertex 0.562143 2.94686 0
      vertex 0.927051 2.85317 0
    endloop
  endfacet
  facet normal 0 0 1
    outer loop
      vertex 1.75 3.25 0
      vertex 0.188371 2.99408 0
      vertex 0.562143 2.94686 0
    endloop
  endfacet
  facet normal 0 0 1
    outer loop
      vertex 1.75 3.25 0
      vertex -0.188371 2.99408 0
      vertex 0.188371 2.99408 0
    endloop
  endfacet
  facet normal -0 0 1
    outer loop
      vertex -1.75 3.25 0
      vertex -0.188371 2.99408 0
      vertex 1.75 3.25 0
    endloop
  endfacet
  facet normal 0 0 1
    outer loop
      vertex -0.188371 2.99408 0
      vertex -1.75 3.25 0
      vertex -0.562143 2.94686 0
    endloop
  endfacet
  facet normal 0 0 1
    outer loop
      vertex -1.75 3.25 0
      vertex -0.927051 2.85317 0
      vertex -0.562143 2.94686 0
    endloop
  endfacet
  facet normal 0 0 1
    outer loop
      vertex -1.75 3.25 0
      vertex -1.27734 2.71448 0
      vertex -0.927051 2.85317 0
    endloop
  endfacet
  facet normal 0 0 1
    outer loop
      vertex -1.75 3.25 0
      vertex -1.60748 2.53298 0
      vertex -1.27734 2.71448 0
    endloop
  endfacet
  facet normal 0 0 1
    outer loop
      vertex -1.60748 2.53298 0
      vertex -1.75 3.25 0
      vertex -1.75 2.42944 0
    endloop
  endfacet
  facet normal 0 0 -1
    outer loop
      vertex 1.78581 -0.225599 -18
      vertex 1.78581 0.225599 -18
      vertex 1.8 0 -18
    endloop
  endfacet
  facet normal 0 0 -1
    outer loop
      vertex 1.74345 -0.447641 -18
      vertex 1.78581 0.225599 -18
      vertex 1.78581 -0.225599 -18
    endloop
  endfacet
  facet normal 0 0 -1
    outer loop
      vertex 1.74345 -0.447641 -18
      vertex 1.74345 0.447641 -18
      vertex 1.78581 0.225599 -18
    endloop
  endfacet
  facet normal 0 0 -1
    outer loop
      vertex 1.6736 -0.662623 -18
      vertex 1.74345 0.447641 -18
      vertex 1.74345 -0.447641 -18
    endloop
  endfacet
  facet normal 0 0 -1
    outer loop
      vertex 1.6736 -0.662623 -18
      vertex 1.6736 0.662623 -18
      vertex 1.74345 0.447641 -18
    endloop
  endfacet
  facet normal 0 0 -1
    outer loop
      vertex 1.57735 -0.867156 -18
      vertex 1.6736 0.662623 -18
      vertex 1.6736 -0.662623 -18
    endloop
  endfacet
  facet normal 0 0 -1
    outer loop
      vertex 1.57735 -0.867156 -18
      vertex 1.57735 0.867156 -18
      vertex 1.6736 0.662623 -18
    endloop
  endfacet
  facet normal 0 0 -1
    outer loop
      vertex 1.45623 -1.05801 -18
      vertex 1.57735 0.867156 -18
      vertex 1.57735 -0.867156 -18
    endloop
  endfacet
  facet normal 0 0 -1
    outer loop
      vertex 1.45623 -1.05801 -18
      vertex 1.45623 1.05801 -18
      vertex 1.57735 0.867156 -18
    endloop
  endfacet
  facet normal 0 0 -1
    outer loop
      vertex 1.31214 -1.23218 -18
      vertex 1.45623 1.05801 -18
      vertex 1.45623 -1.05801 -18
    endloop
  endfacet
  facet normal 0 0 -1
    outer loop
      vertex 1.31214 -1.23218 -18
      vertex 1.31214 1.23218 -18
      vertex 1.45623 1.05801 -18
    endloop
  endfacet
  facet normal 0 0 -1
    outer loop
      vertex 1.14736 -1.38692 -18
      vertex 1.31214 1.23218 -18
      vertex 1.31214 -1.23218 -18
    endloop
  endfacet
  facet normal 0 0 -1
    outer loop
      vertex 1.14736 -1.38692 -18
      vertex 1.14736 1.38692 -18
      vertex 1.31214 1.23218 -18
    endloop
  endfacet
  facet normal 0 0 -1
    outer loop
      vertex 0.964488 -1.51979 -18
      vertex 1.14736 1.38692 -18
      vertex 1.14736 -1.38692 -18
    endloop
  endfacet
  facet normal 0 0 -1
    outer loop
      vertex 0.964488 -1.51979 -18
      vertex 0.964488 1.51979 -18
      vertex 1.14736 1.38692 -18
    endloop
  endfacet
  facet normal 0 0 -1
    outer loop
      vertex 0.766402 -1.62869 -18
      vertex 0.964488 1.51979 -18
      vertex 0.964488 -1.51979 -18
    endloop
  endfacet
  facet normal 0 0 -1
    outer loop
      vertex 0.766402 -1.62869 -18
      vertex 0.766402 1.62869 -18
      vertex 0.964488 1.51979 -18
    endloop
  endfacet
  facet normal 0 0 -1
    outer loop
      vertex 0.556231 -1.7119 -18
      vertex 0.766402 1.62869 -18
      vertex 0.766402 -1.62869 -18
    endloop
  endfacet
  facet normal 0 0 -1
    outer loop
      vertex 0.556231 -1.7119 -18
      vertex 0.556231 1.7119 -18
      vertex 0.766402 1.62869 -18
    endloop
  endfacet
  facet normal 0 0 -1
    outer loop
      vertex 0.337286 -1.76812 -18
      vertex 0.556231 1.7119 -18
      vertex 0.556231 -1.7119 -18
    endloop
  endfacet
  facet normal 0 0 -1
    outer loop
      vertex 0.337286 -1.76812 -18
      vertex 0.337286 1.76812 -18
      vertex 0.556231 1.7119 -18
    endloop
  endfacet
  facet normal 0 0 -1
    outer loop
      vertex 0.113023 -1.79645 -18
      vertex 0.337286 1.76812 -18
      vertex 0.337286 -1.76812 -18
    endloop
  endfacet
  facet normal 0 0 -1
    outer loop
      vertex 0.113023 -1.79645 -18
      vertex 0.113023 1.79645 -18
      vertex 0.337286 1.76812 -18
    endloop
  endfacet
  facet normal 0 0 -1
    outer loop
      vertex -0.113023 -1.79645 -18
      vertex 0.113023 1.79645 -18
      vertex 0.113023 -1.79645 -18
    endloop
  endfacet
  facet normal 0 0 -1
    outer loop
      vertex -0.113023 -1.79645 -18
      vertex -0.113023 1.79645 -18
      vertex 0.113023 1.79645 -18
    endloop
  endfacet
  facet normal 0 0 -1
    outer loop
      vertex -0.337286 -1.76812 -18
      vertex -0.113023 1.79645 -18
      vertex -0.113023 -1.79645 -18
    endloop
  endfacet
  facet normal 0 0 -1
    outer loop
      vertex -0.337286 -1.76812 -18
      vertex -0.337286 1.76812 -18
      vertex -0.113023 1.79645 -18
    endloop
  endfacet
  facet normal 0 0 -1
    outer loop
      vertex -0.556231 -1.7119 -18
      vertex -0.337286 1.76812 -18
      vertex -0.337286 -1.76812 -18
    endloop
  endfacet
  facet normal 0 0 -1
    outer loop
      vertex -0.556231 -1.7119 -18
      vertex -0.556231 1.7119 -18
      vertex -0.337286 1.76812 -18
    endloop
  endfacet
  facet normal 0 0 -1
    outer loop
      vertex -0.766402 -1.62869 -18
      vertex -0.556231 1.7119 -18
      vertex -0.556231 -1.7119 -18
    endloop
  endfacet
  facet normal 0 0 -1
    outer loop
      vertex -0.766402 -1.62869 -18
      vertex -0.766402 1.62869 -18
      vertex -0.556231 1.7119 -18
    endloop
  endfacet
  facet normal 0 0 -1
    outer loop
      vertex -0.964488 -1.51979 -18
      vertex -0.766402 1.62869 -18
      vertex -0.766402 -1.62869 -18
    endloop
  endfacet
  facet normal 0 0 -1
    outer loop
      vertex -0.964488 -1.51979 -18
      vertex -0.964488 1.51979 -18
      vertex -0.766402 1.62869 -18
    endloop
  endfacet
  facet normal 0 0 -1
    outer loop
      vertex -1.14736 -1.38692 -18
      vertex -0.964488 1.51979 -18
      vertex -0.964488 -1.51979 -18
    endloop
  endfacet
  facet normal 0 0 -1
    outer loop
      vertex -1.14736 -1.38692 -18
      vertex -1.14736 1.38692 -18
      vertex -0.964488 1.51979 -18
    endloop
  endfacet
  facet normal 0 0 -1
    outer loop
      vertex -1.31214 -1.23218 -18
      vertex -1.14736 1.38692 -18
      vertex -1.14736 -1.38692 -18
    endloop
  endfacet
  facet normal 0 0 -1
    outer loop
      vertex -1.31214 -1.23218 -18
      vertex -1.31214 1.23218 -18
      vertex -1.14736 1.38692 -18
    endloop
  endfacet
  facet normal 0 0 -1
    outer loop
      vertex -1.45623 -1.05801 -18
      vertex -1.31214 1.23218 -18
      vertex -1.31214 -1.23218 -18
    endloop
  endfacet
  facet normal 0 0 -1
    outer loop
      vertex -1.45623 -1.05801 -18
      vertex -1.45623 1.05801 -18
      vertex -1.31214 1.23218 -18
    endloop
  endfacet
  facet normal 0 0 -1
    outer loop
      vertex -1.57735 -0.867156 -18
      vertex -1.45623 1.05801 -18
      vertex -1.45623 -1.05801 -18
    endloop
  endfacet
  facet normal 0 0 -1
    outer loop
      vertex -1.57735 -0.867156 -18
      vertex -1.57735 0.867156 -18
      vertex -1.45623 1.05801 -18
    endloop
  endfacet
  facet normal 0 0 -1
    outer loop
      vertex -1.6736 -0.662623 -18
      vertex -1.57735 0.867156 -18
      vertex -1.57735 -0.867156 -18
    endloop
  endfacet
  facet normal 0 0 -1
    outer loop
      vertex -1.6736 -0.662623 -18
      vertex -1.6736 0.662623 -18
      vertex -1.57735 0.867156 -18
    endloop
  endfacet
  facet normal 0 0 -1
    outer loop
      vertex -1.74345 -0.447641 -18
      vertex -1.6736 0.662623 -18
      vertex -1.6736 -0.662623 -18
    endloop
  endfacet
  facet normal 0 0 -1
    outer loop
      vertex -1.74345 -0.447641 -18
      vertex -1.74345 0.447641 -18
      vertex -1.6736 0.662623 -18
    endloop
  endfacet
  facet normal 0 0 -1
    outer loop
      vertex -1.78581 -0.225599 -18
      vertex -1.74345 0.447641 -18
      vertex -1.74345 -0.447641 -18
    endloop
  endfacet
  facet normal 0 0 -1
    outer loop
      vertex -1.78581 -0.225599 -18
      vertex -1.78581 0.225599 -18
      vertex -1.74345 0.447641 -18
    endloop
  endfacet
  facet normal 0 -0 -1
    outer loop
      vertex -1.78581 0.225599 -18
      vertex -1.78581 -0.225599 -18
      vertex -1.8 0 -18
    endloop
  endfacet
  facet normal 0.998026 0.0628015 0
    outer loop
      vertex 3 0 3.2
      vertex 2.97634 0.375999 0
      vertex 2.97634 0.375999 3.2
    endloop
  endfacet
  facet normal 0.998026 0.0628015 0
    outer loop
      vertex 2.97634 0.375999 0
      vertex 3 0 3.2
      vertex 3 0 0
    endloop
  endfacet
  facet normal -0.998026 0.0628015 0
    outer loop
      vertex -3 0 0
      vertex -2.97634 0.375999 3.2
      vertex -2.97634 0.375999 0
    endloop
  endfacet
  facet normal -0.998026 0.0628015 0
    outer loop
      vertex -2.97634 0.375999 3.2
      vertex -3 0 0
      vertex -3 0 3.2
    endloop
  endfacet
  facet normal 0 1 -0
    outer loop
      vertex 0.188371 2.99408 0
      vertex -0.188371 2.99408 3.2
      vertex 0.188371 2.99408 3.2
    endloop
  endfacet
  facet normal 0 1 0
    outer loop
      vertex -0.188371 2.99408 3.2
      vertex 0.188371 2.99408 0
      vertex -0.188371 2.99408 0
    endloop
  endfacet
  facet normal 0.684541 0.728974 -0
    outer loop
      vertex 2.18691 2.05364 0
      vertex 1.91227 2.31154 3.2
      vertex 2.18691 2.05364 3.2
    endloop
  endfacet
  facet normal 0.684541 0.728974 0
    outer loop
      vertex 1.91227 2.31154 3.2
      vertex 2.18691 2.05364 0
      vertex 1.91227 2.31154 0
    endloop
  endfacet
  facet normal -0.684541 0.728974 0
    outer loop
      vertex -1.91227 2.31154 0
      vertex -2.18691 2.05364 3.2
      vertex -1.91227 2.31154 3.2
    endloop
  endfacet
  facet normal -0.684541 0.728974 0
    outer loop
      vertex -2.18691 2.05364 3.2
      vertex -1.91227 2.31154 0
      vertex -2.18691 2.05364 0
    endloop
  endfacet
  facet normal -0.368126 0.929776 0
    outer loop
      vertex -0.927051 2.85317 0
      vertex -1.27734 2.71448 3.2
      vertex -0.927051 2.85317 3.2
    endloop
  endfacet
  facet normal -0.368126 0.929776 0
    outer loop
      vertex -1.27734 2.71448 3.2
      vertex -0.927051 2.85317 0
      vertex -1.27734 2.71448 0
    endloop
  endfacet
  facet normal 0.904828 0.425778 0
    outer loop
      vertex 2.78933 1.10437 3.2
      vertex 2.62892 1.44526 0
      vertex 2.62892 1.44526 3.2
    endloop
  endfacet
  facet normal 0.904828 0.425778 0
    outer loop
      vertex 2.62892 1.44526 0
      vertex 2.78933 1.10437 3.2
      vertex 2.78933 1.10437 0
    endloop
  endfacet
  facet normal 0.98229 0.187369 0
    outer loop
      vertex 2.97634 0.375999 3.2
      vertex 2.90575 0.746069 0
      vertex 2.90575 0.746069 3.2
    endloop
  endfacet
  facet normal 0.98229 0.187369 0
    outer loop
      vertex 2.90575 0.746069 0
      vertex 2.97634 0.375999 3.2
      vertex 2.97634 0.375999 0
    endloop
  endfacet
  facet normal 0.368126 0.929776 -0
    outer loop
      vertex 1.27734 2.71448 0
      vertex 0.927051 2.85317 3.2
      vertex 1.27734 2.71448 3.2
    endloop
  endfacet
  facet normal 0.368126 0.929776 0
    outer loop
      vertex 0.927051 2.85317 3.2
      vertex 1.27734 2.71448 0
      vertex 0.927051 2.85317 0
    endloop
  endfacet
  facet normal 0.248684 0.968585 -0
    outer loop
      vertex 0.927051 2.85317 0
      vertex 0.562143 2.94686 3.2
      vertex 0.927051 2.85317 3.2
    endloop
  endfacet
  facet normal 0.248684 0.968585 0
    outer loop
      vertex 0.562143 2.94686 3.2
      vertex 0.927051 2.85317 0
      vertex 0.562143 2.94686 0
    endloop
  endfacet
  facet normal 0.587798 0.809008 0
    outer loop
      vertex 1.75 2.42944 0
      vertex 1.91227 2.31154 3.2
      vertex 1.91227 2.31154 0
    endloop
  endfacet
  facet normal 0.58778 0.809021 1.38707e-06
    outer loop
      vertex 1.91227 2.31154 3.2
      vertex 1.75 2.42944 0
      vertex 1.60748 2.53298 3.2
    endloop
  endfacet
  facet normal 0.58776 0.809035 0
    outer loop
      vertex 1.60748 2.53298 3.2
      vertex 1.75 2.42944 0
      vertex 1.60748 2.53298 0
    endloop
  endfacet
  facet normal -0.904828 0.425778 0
    outer loop
      vertex -2.78933 1.10437 0
      vertex -2.62892 1.44526 3.2
      vertex -2.62892 1.44526 0
    endloop
  endfacet
  facet normal -0.904828 0.425778 0
    outer loop
      vertex -2.62892 1.44526 3.2
      vertex -2.78933 1.10437 0
      vertex -2.78933 1.10437 3.2
    endloop
  endfacet
  facet normal -0.844331 0.535822 0
    outer loop
      vertex -2.62892 1.44526 0
      vertex -2.42705 1.76336 3.2
      vertex -2.42705 1.76336 0
    endloop
  endfacet
  facet normal -0.844331 0.535822 0
    outer loop
      vertex -2.42705 1.76336 3.2
      vertex -2.62892 1.44526 0
      vertex -2.62892 1.44526 3.2
    endloop
  endfacet
  facet normal -0.951056 0.309019 0
    outer loop
      vertex -2.90575 0.746069 0
      vertex -2.78933 1.10437 3.2
      vertex -2.78933 1.10437 0
    endloop
  endfacet
  facet normal -0.951056 0.309019 0
    outer loop
      vertex -2.78933 1.10437 3.2
      vertex -2.90575 0.746069 0
      vertex -2.90575 0.746069 3.2
    endloop
  endfacet
  facet normal -0.58776 0.809035 0
    outer loop
      vertex -1.75 2.42944 0
      vertex -1.60748 2.53298 3.2
      vertex -1.60748 2.53298 0
    endloop
  endfacet
  facet normal -0.58778 0.809021 1.38707e-06
    outer loop
      vertex -1.60748 2.53298 3.2
      vertex -1.75 2.42944 0
      vertex -1.91227 2.31154 3.2
    endloop
  endfacet
  facet normal -0.587798 0.809008 0
    outer loop
      vertex -1.91227 2.31154 3.2
      vertex -1.75 2.42944 0
      vertex -1.91227 2.31154 0
    endloop
  endfacet
  facet normal -0.125337 0.992114 0
    outer loop
      vertex -0.188371 2.99408 0
      vertex -0.562143 2.94686 3.2
      vertex -0.188371 2.99408 3.2
    endloop
  endfacet
  facet normal -0.125337 0.992114 0
    outer loop
      vertex -0.562143 2.94686 3.2
      vertex -0.188371 2.99408 0
      vertex -0.562143 2.94686 0
    endloop
  endfacet
  facet normal 0.998026 -0.0628015 0
    outer loop
      vertex 2.97634 -0.375999 3.2
      vertex 3 0 0
      vertex 3 0 3.2
    endloop
  endfacet
  facet normal 0.998026 -0.0628015 0
    outer loop
      vertex 3 0 0
      vertex 2.97634 -0.375999 3.2
      vertex 2.97634 -0.375999 0
    endloop
  endfacet
  facet normal -0.904828 -0.425778 0
    outer loop
      vertex -2.62892 -1.44526 0
      vertex -2.78933 -1.10437 3.2
      vertex -2.78933 -1.10437 0
    endloop
  endfacet
  facet normal -0.904828 -0.425778 0
    outer loop
      vertex -2.78933 -1.10437 3.2
      vertex -2.62892 -1.44526 0
      vertex -2.62892 -1.44526 3.2
    endloop
  endfacet
  facet normal 0.125337 -0.992114 0
    outer loop
      vertex 0.188371 -2.99408 0
      vertex 0.562143 -2.94686 3.2
      vertex 0.188371 -2.99408 3.2
    endloop
  endfacet
  facet normal 0.125337 -0.992114 0
    outer loop
      vertex 0.562143 -2.94686 3.2
      vertex 0.188371 -2.99408 0
      vertex 0.562143 -2.94686 0
    endloop
  endfacet
  facet normal 0.951056 0.309019 0
    outer loop
      vertex 2.90575 0.746069 3.2
      vertex 2.78933 1.10437 0
      vertex 2.78933 1.10437 3.2
    endloop
  endfacet
  facet normal 0.951056 0.309019 0
    outer loop
      vertex 2.78933 1.10437 0
      vertex 2.90575 0.746069 3.2
      vertex 2.90575 0.746069 0
    endloop
  endfacet
  facet normal 0.770514 0.637423 0
    outer loop
      vertex 2.42705 1.76336 3.2
      vertex 2.18691 2.05364 0
      vertex 2.18691 2.05364 3.2
    endloop
  endfacet
  facet normal 0.770514 0.637423 0
    outer loop
      vertex 2.18691 2.05364 0
      vertex 2.42705 1.76336 3.2
      vertex 2.42705 1.76336 0
    endloop
  endfacet
  facet normal 0.844331 0.535822 0
    outer loop
      vertex 2.62892 1.44526 3.2
      vertex 2.42705 1.76336 0
      vertex 2.42705 1.76336 3.2
    endloop
  endfacet
  facet normal 0.844331 0.535822 0
    outer loop
      vertex 2.42705 1.76336 0
      vertex 2.62892 1.44526 3.2
      vertex 2.62892 1.44526 0
    endloop
  endfacet
  facet normal 0.125337 0.992114 -0
    outer loop
      vertex 0.562143 2.94686 0
      vertex 0.188371 2.99408 3.2
      vertex 0.562143 2.94686 3.2
    endloop
  endfacet
  facet normal 0.125337 0.992114 0
    outer loop
      vertex 0.188371 2.99408 3.2
      vertex 0.562143 2.94686 0
      vertex 0.188371 2.99408 0
    endloop
  endfacet
  facet normal 0.481762 0.876302 -0
    outer loop
      vertex 1.60748 2.53298 0
      vertex 1.27734 2.71448 3.2
      vertex 1.60748 2.53298 3.2
    endloop
  endfacet
  facet normal 0.481762 0.876302 0
    outer loop
      vertex 1.27734 2.71448 3.2
      vertex 1.60748 2.53298 0
      vertex 1.27734 2.71448 0
    endloop
  endfacet
  facet normal -0.98229 0.187369 0
    outer loop
      vertex -2.97634 0.375999 0
      vertex -2.90575 0.746069 3.2
      vertex -2.90575 0.746069 0
    endloop
  endfacet
  facet normal -0.98229 0.187369 0
    outer loop
      vertex -2.90575 0.746069 3.2
      vertex -2.97634 0.375999 0
      vertex -2.97634 0.375999 3.2
    endloop
  endfacet
  facet normal -0.248684 0.968585 0
    outer loop
      vertex -0.562143 2.94686 0
      vertex -0.927051 2.85317 3.2
      vertex -0.562143 2.94686 3.2
    endloop
  endfacet
  facet normal -0.248684 0.968585 0
    outer loop
      vertex -0.927051 2.85317 3.2
      vertex -0.562143 2.94686 0
      vertex -0.927051 2.85317 0
    endloop
  endfacet
  facet normal 0.98229 -0.187369 0
    outer loop
      vertex 2.90575 -0.746069 3.2
      vertex 2.97634 -0.375999 0
      vertex 2.97634 -0.375999 3.2
    endloop
  endfacet
  facet normal 0.98229 -0.187369 0
    outer loop
      vertex 2.97634 -0.375999 0
      vertex 2.90575 -0.746069 3.2
      vertex 2.90575 -0.746069 0
    endloop
  endfacet
  facet normal -0.951056 -0.309019 0
    outer loop
      vertex -2.78933 -1.10437 0
      vertex -2.90575 -0.746069 3.2
      vertex -2.90575 -0.746069 0
    endloop
  endfacet
  facet normal -0.951056 -0.309019 0
    outer loop
      vertex -2.90575 -0.746069 3.2
      vertex -2.78933 -1.10437 0
      vertex -2.78933 -1.10437 3.2
    endloop
  endfacet
  facet normal 0.368126 -0.929776 0
    outer loop
      vertex 0.927051 -2.85317 0
      vertex 1.27734 -2.71448 3.2
      vertex 0.927051 -2.85317 3.2
    endloop
  endfacet
  facet normal 0.368126 -0.929776 0
    outer loop
      vertex 1.27734 -2.71448 3.2
      vertex 0.927051 -2.85317 0
      vertex 1.27734 -2.71448 0
    endloop
  endfacet
  facet normal 0.248684 -0.968585 0
    outer loop
      vertex 0.562143 -2.94686 0
      vertex 0.927051 -2.85317 3.2
      vertex 0.562143 -2.94686 3.2
    endloop
  endfacet
  facet normal 0.248684 -0.968585 0
    outer loop
      vertex 0.927051 -2.85317 3.2
      vertex 0.562143 -2.94686 0
      vertex 0.927051 -2.85317 0
    endloop
  endfacet
  facet normal -0.770514 0.637423 0
    outer loop
      vertex -2.42705 1.76336 0
      vertex -2.18691 2.05364 3.2
      vertex -2.18691 2.05364 0
    endloop
  endfacet
  facet normal -0.770514 0.637423 0
    outer loop
      vertex -2.18691 2.05364 3.2
      vertex -2.42705 1.76336 0
      vertex -2.42705 1.76336 3.2
    endloop
  endfacet
  facet normal 0 0 1
    outer loop
      vertex 2.97634 0.375999 3.2
      vertex 2.97634 -0.375999 3.2
      vertex 3 0 3.2
    endloop
  endfacet
  facet normal 0 0 1
    outer loop
      vertex 2.90575 0.746069 3.2
      vertex 2.97634 -0.375999 3.2
      vertex 2.97634 0.375999 3.2
    endloop
  endfacet
  facet normal 0 0 1
    outer loop
      vertex 2.90575 0.746069 3.2
      vertex 2.90575 -0.746069 3.2
      vertex 2.97634 -0.375999 3.2
    endloop
  endfacet
  facet normal 0 0 1
    outer loop
      vertex 2.78933 1.10437 3.2
      vertex 2.90575 -0.746069 3.2
      vertex 2.90575 0.746069 3.2
    endloop
  endfacet
  facet normal 0 0 1
    outer loop
      vertex 2.78933 1.10437 3.2
      vertex 2.78933 -1.10437 3.2
      vertex 2.90575 -0.746069 3.2
    endloop
  endfacet
  facet normal 0 0 1
    outer loop
      vertex 2.62892 1.44526 3.2
      vertex 2.78933 -1.10437 3.2
      vertex 2.78933 1.10437 3.2
    endloop
  endfacet
  facet normal 0 0 1
    outer loop
      vertex 2.62892 1.44526 3.2
      vertex 2.62892 -1.44526 3.2
      vertex 2.78933 -1.10437 3.2
    endloop
  endfacet
  facet normal 0 0 1
    outer loop
      vertex 2.42705 1.76336 3.2
      vertex 2.62892 -1.44526 3.2
      vertex 2.62892 1.44526 3.2
    endloop
  endfacet
  facet normal 0 0 1
    outer loop
      vertex 2.42705 1.76336 3.2
      vertex 2.42705 -1.76336 3.2
      vertex 2.62892 -1.44526 3.2
    endloop
  endfacet
  facet normal 0 0 1
    outer loop
      vertex 2.18691 2.05364 3.2
      vertex 2.42705 -1.76336 3.2
      vertex 2.42705 1.76336 3.2
    endloop
  endfacet
  facet normal 0 0 1
    outer loop
      vertex 2.18691 2.05364 3.2
      vertex 2.18691 -2.05364 3.2
      vertex 2.42705 -1.76336 3.2
    endloop
  endfacet
  facet normal 0 0 1
    outer loop
      vertex 1.91227 2.31154 3.2
      vertex 2.18691 -2.05364 3.2
      vertex 2.18691 2.05364 3.2
    endloop
  endfacet
  facet normal 0 0 1
    outer loop
      vertex 1.91227 2.31154 3.2
      vertex 1.91227 -2.31154 3.2
      vertex 2.18691 -2.05364 3.2
    endloop
  endfacet
  facet normal 0 0 1
    outer loop
      vertex 1.60748 2.53298 3.2
      vertex 1.91227 -2.31154 3.2
      vertex 1.91227 2.31154 3.2
    endloop
  endfacet
  facet normal 0 0 1
    outer loop
      vertex 1.60748 2.53298 3.2
      vertex 1.60748 -2.53298 3.2
      vertex 1.91227 -2.31154 3.2
    endloop
  endfacet
  facet normal 0 0 1
    outer loop
      vertex 1.27734 2.71448 3.2
      vertex 1.60748 -2.53298 3.2
      vertex 1.60748 2.53298 3.2
    endloop
  endfacet
  facet normal 0 0 1
    outer loop
      vertex 1.27734 2.71448 3.2
      vertex 1.27734 -2.71448 3.2
      vertex 1.60748 -2.53298 3.2
    endloop
  endfacet
  facet normal 0 0 1
    outer loop
      vertex 0.927051 2.85317 3.2
      vertex 1.27734 -2.71448 3.2
      vertex 1.27734 2.71448 3.2
    endloop
  endfacet
  facet normal 0 0 1
    outer loop
      vertex 0.927051 2.85317 3.2
      vertex 0.927051 -2.85317 3.2
      vertex 1.27734 -2.71448 3.2
    endloop
  endfacet
  facet normal 0 0 1
    outer loop
      vertex 0.562143 2.94686 3.2
      vertex 0.927051 -2.85317 3.2
      vertex 0.927051 2.85317 3.2
    endloop
  endfacet
  facet normal 0 0 1
    outer loop
      vertex 0.562143 2.94686 3.2
      vertex 0.562143 -2.94686 3.2
      vertex 0.927051 -2.85317 3.2
    endloop
  endfacet
  facet normal 0 0 1
    outer loop
      vertex 0.188371 2.99408 3.2
      vertex 0.562143 -2.94686 3.2
      vertex 0.562143 2.94686 3.2
    endloop
  endfacet
  facet normal 0 0 1
    outer loop
      vertex 0.188371 2.99408 3.2
      vertex 0.188371 -2.99408 3.2
      vertex 0.562143 -2.94686 3.2
    endloop
  endfacet
  facet normal -0 0 1
    outer loop
      vertex -0.188371 2.99408 3.2
      vertex 0.188371 -2.99408 3.2
      vertex 0.188371 2.99408 3.2
    endloop
  endfacet
  facet normal 0 0 1
    outer loop
      vertex -0.188371 2.99408 3.2
      vertex -0.188371 -2.99408 3.2
      vertex 0.188371 -2.99408 3.2
    endloop
  endfacet
  facet normal -0 0 1
    outer loop
      vertex -0.562143 2.94686 3.2
      vertex -0.188371 -2.99408 3.2
      vertex -0.188371 2.99408 3.2
    endloop
  endfacet
  facet normal 0 0 1
    outer loop
      vertex -0.562143 2.94686 3.2
      vertex -0.562143 -2.94686 3.2
      vertex -0.188371 -2.99408 3.2
    endloop
  endfacet
  facet normal -0 0 1
    outer loop
      vertex -0.927051 2.85317 3.2
      vertex -0.562143 -2.94686 3.2
      vertex -0.562143 2.94686 3.2
    endloop
  endfacet
  facet normal 0 0 1
    outer loop
      vertex -0.927051 2.85317 3.2
      vertex -0.927051 -2.85317 3.2
      vertex -0.562143 -2.94686 3.2
    endloop
  endfacet
  facet normal -0 0 1
    outer loop
      vertex -1.27734 2.71448 3.2
      vertex -0.927051 -2.85317 3.2
      vertex -0.927051 2.85317 3.2
    endloop
  endfacet
  facet normal 0 0 1
    outer loop
      vertex -1.27734 2.71448 3.2
      vertex -1.27734 -2.71448 3.2
      vertex -0.927051 -2.85317 3.2
    endloop
  endfacet
  facet normal -0 0 1
    outer loop
      vertex -1.60748 2.53298 3.2
      vertex -1.27734 -2.71448 3.2
      vertex -1.27734 2.71448 3.2
    endloop
  endfacet
  facet normal 0 0 1
    outer loop
      vertex -1.60748 2.53298 3.2
      vertex -1.60748 -2.53298 3.2
      vertex -1.27734 -2.71448 3.2
    endloop
  endfacet
  facet normal -0 0 1
    outer loop
      vertex -1.91227 2.31154 3.2
      vertex -1.60748 -2.53298 3.2
      vertex -1.60748 2.53298 3.2
    endloop
  endfacet
  facet normal 0 0 1
    outer loop
      vertex -1.91227 2.31154 3.2
      vertex -1.91227 -2.31154 3.2
      vertex -1.60748 -2.53298 3.2
    endloop
  endfacet
  facet normal -0 0 1
    outer loop
      vertex -2.18691 2.05364 3.2
      vertex -1.91227 -2.31154 3.2
      vertex -1.91227 2.31154 3.2
    endloop
  endfacet
  facet normal 0 0 1
    outer loop
      vertex -2.18691 2.05364 3.2
      vertex -2.18691 -2.05364 3.2
      vertex -1.91227 -2.31154 3.2
    endloop
  endfacet
  facet normal -0 0 1
    outer loop
      vertex -2.42705 1.76336 3.2
      vertex -2.18691 -2.05364 3.2
      vertex -2.18691 2.05364 3.2
    endloop
  endfacet
  facet normal 0 0 1
    outer loop
      vertex -2.42705 1.76336 3.2
      vertex -2.42705 -1.76336 3.2
      vertex -2.18691 -2.05364 3.2
    endloop
  endfacet
  facet normal -0 0 1
    outer loop
      vertex -2.62892 1.44526 3.2
      vertex -2.42705 -1.76336 3.2
      vertex -2.42705 1.76336 3.2
    endloop
  endfacet
  facet normal 0 0 1
    outer loop
      vertex -2.62892 1.44526 3.2
      vertex -2.62892 -1.44526 3.2
      vertex -2.42705 -1.76336 3.2
    endloop
  endfacet
  facet normal -0 0 1
    outer loop
      vertex -2.78933 1.10437 3.2
      vertex -2.62892 -1.44526 3.2
      vertex -2.62892 1.44526 3.2
    endloop
  endfacet
  facet normal 0 0 1
    outer loop
      vertex -2.78933 1.10437 3.2
      vertex -2.78933 -1.10437 3.2
      vertex -2.62892 -1.44526 3.2
    endloop
  endfacet
  facet normal -0 0 1
    outer loop
      vertex -2.90575 0.746069 3.2
      vertex -2.78933 -1.10437 3.2
      vertex -2.78933 1.10437 3.2
    endloop
  endfacet
  facet normal 0 0 1
    outer loop
      vertex -2.90575 0.746069 3.2
      vertex -2.90575 -0.746069 3.2
      vertex -2.78933 -1.10437 3.2
    endloop
  endfacet
  facet normal -0 0 1
    outer loop
      vertex -2.97634 0.375999 3.2
      vertex -2.90575 -0.746069 3.2
      vertex -2.90575 0.746069 3.2
    endloop
  endfacet
  facet normal 0 0 1
    outer loop
      vertex -2.97634 0.375999 3.2
      vertex -2.97634 -0.375999 3.2
      vertex -2.90575 -0.746069 3.2
    endloop
  endfacet
  facet normal 0 -0 1
    outer loop
      vertex -2.97634 -0.375999 3.2
      vertex -2.97634 0.375999 3.2
      vertex -3 0 3.2
    endloop
  endfacet
  facet normal -0.481762 0.876302 0
    outer loop
      vertex -1.27734 2.71448 0
      vertex -1.60748 2.53298 3.2
      vertex -1.27734 2.71448 3.2
    endloop
  endfacet
  facet normal -0.481762 0.876302 0
    outer loop
      vertex -1.60748 2.53298 3.2
      vertex -1.27734 2.71448 0
      vertex -1.60748 2.53298 0
    endloop
  endfacet
  facet normal 0.481762 -0.876302 0
    outer loop
      vertex 1.27734 -2.71448 0
      vertex 1.60748 -2.53298 3.2
      vertex 1.27734 -2.71448 3.2
    endloop
  endfacet
  facet normal 0.481762 -0.876302 0
    outer loop
      vertex 1.60748 -2.53298 3.2
      vertex 1.27734 -2.71448 0
      vertex 1.60748 -2.53298 0
    endloop
  endfacet
  facet normal 0.684541 -0.728974 0
    outer loop
      vertex 1.91227 -2.31154 0
      vertex 2.18691 -2.05364 3.2
      vertex 1.91227 -2.31154 3.2
    endloop
  endfacet
  facet normal 0.684541 -0.728974 0
    outer loop
      vertex 2.18691 -2.05364 3.2
      vertex 1.91227 -2.31154 0
      vertex 2.18691 -2.05364 0
    endloop
  endfacet
  facet normal 0.904828 -0.425778 0
    outer loop
      vertex 2.62892 -1.44526 3.2
      vertex 2.78933 -1.10437 0
      vertex 2.78933 -1.10437 3.2
    endloop
  endfacet
  facet normal 0.904828 -0.425778 0
    outer loop
      vertex 2.78933 -1.10437 0
      vertex 2.62892 -1.44526 3.2
      vertex 2.62892 -1.44526 0
    endloop
  endfacet
  facet normal 0.770514 -0.637423 0
    outer loop
      vertex 2.18691 -2.05364 3.2
      vertex 2.42705 -1.76336 0
      vertex 2.42705 -1.76336 3.2
    endloop
  endfacet
  facet normal 0.770514 -0.637423 0
    outer loop
      vertex 2.42705 -1.76336 0
      vertex 2.18691 -2.05364 3.2
      vertex 2.18691 -2.05364 0
    endloop
  endfacet
  facet normal -0.368126 -0.929776 0
    outer loop
      vertex -1.27734 -2.71448 0
      vertex -0.927051 -2.85317 3.2
      vertex -1.27734 -2.71448 3.2
    endloop
  endfacet
  facet normal -0.368126 -0.929776 -0
    outer loop
      vertex -0.927051 -2.85317 3.2
      vertex -1.27734 -2.71448 0
      vertex -0.927051 -2.85317 0
    endloop
  endfacet
  facet normal -0.684541 -0.728974 0
    outer loop
      vertex -2.18691 -2.05364 0
      vertex -1.91227 -2.31154 3.2
      vertex -2.18691 -2.05364 3.2
    endloop
  endfacet
  facet normal -0.684541 -0.728974 -0
    outer loop
      vertex -1.91227 -2.31154 3.2
      vertex -2.18691 -2.05364 0
      vertex -1.91227 -2.31154 0
    endloop
  endfacet
  facet normal -0.998026 -0.0628015 0
    outer loop
      vertex -2.97634 -0.375999 0
      vertex -3 0 3.2
      vertex -3 0 0
    endloop
  endfacet
  facet normal -0.998026 -0.0628015 0
    outer loop
      vertex -3 0 3.2
      vertex -2.97634 -0.375999 0
      vertex -2.97634 -0.375999 3.2
    endloop
  endfacet
  facet normal -0.98229 -0.187369 0
    outer loop
      vertex -2.90575 -0.746069 0
      vertex -2.97634 -0.375999 3.2
      vertex -2.97634 -0.375999 0
    endloop
  endfacet
  facet normal -0.98229 -0.187369 0
    outer loop
      vertex -2.97634 -0.375999 3.2
      vertex -2.90575 -0.746069 0
      vertex -2.90575 -0.746069 3.2
    endloop
  endfacet
  facet normal 0.58776 -0.809035 0
    outer loop
      vertex 1.75 -2.42944 0
      vertex 1.60748 -2.53298 3.2
      vertex 1.60748 -2.53298 0
    endloop
  endfacet
  facet normal 0.58778 -0.809021 1.38707e-06
    outer loop
      vertex 1.60748 -2.53298 3.2
      vertex 1.75 -2.42944 0
      vertex 1.91227 -2.31154 3.2
    endloop
  endfacet
  facet normal 0.587798 -0.809008 0
    outer loop
      vertex 1.91227 -2.31154 3.2
      vertex 1.75 -2.42944 0
      vertex 1.91227 -2.31154 0
    endloop
  endfacet
  facet normal 0.951056 -0.309019 0
    outer loop
      vertex 2.78933 -1.10437 3.2
      vertex 2.90575 -0.746069 0
      vertex 2.90575 -0.746069 3.2
    endloop
  endfacet
  facet normal 0.951056 -0.309019 0
    outer loop
      vertex 2.90575 -0.746069 0
      vertex 2.78933 -1.10437 3.2
      vertex 2.78933 -1.10437 0
    endloop
  endfacet
  facet normal 0.844331 -0.535822 0
    outer loop
      vertex 2.42705 -1.76336 3.2
      vertex 2.62892 -1.44526 0
      vertex 2.62892 -1.44526 3.2
    endloop
  endfacet
  facet normal 0.844331 -0.535822 0
    outer loop
      vertex 2.62892 -1.44526 0
      vertex 2.42705 -1.76336 3.2
      vertex 2.42705 -1.76336 0
    endloop
  endfacet
  facet normal 0 -1 0
    outer loop
      vertex -0.188371 -2.99408 0
      vertex 0.188371 -2.99408 3.2
      vertex -0.188371 -2.99408 3.2
    endloop
  endfacet
  facet normal 0 -1 -0
    outer loop
      vertex 0.188371 -2.99408 3.2
      vertex -0.188371 -2.99408 0
      vertex 0.188371 -2.99408 0
    endloop
  endfacet
  facet normal -0.125337 -0.992114 0
    outer loop
      vertex -0.562143 -2.94686 0
      vertex -0.188371 -2.99408 3.2
      vertex -0.562143 -2.94686 3.2
    endloop
  endfacet
  facet normal -0.125337 -0.992114 -0
    outer loop
      vertex -0.188371 -2.99408 3.2
      vertex -0.562143 -2.94686 0
      vertex -0.188371 -2.99408 0
    endloop
  endfacet
  facet normal -0.248684 -0.968585 0
    outer loop
      vertex -0.927051 -2.85317 0
      vertex -0.562143 -2.94686 3.2
      vertex -0.927051 -2.85317 3.2
    endloop
  endfacet
  facet normal -0.248684 -0.968585 -0
    outer loop
      vertex -0.562143 -2.94686 3.2
      vertex -0.927051 -2.85317 0
      vertex -0.562143 -2.94686 0
    endloop
  endfacet
  facet normal -0.587798 -0.809008 0
    outer loop
      vertex -1.75 -2.42944 0
      vertex -1.91227 -2.31154 3.2
      vertex -1.91227 -2.31154 0
    endloop
  endfacet
  facet normal -0.58778 -0.809021 1.38707e-06
    outer loop
      vertex -1.91227 -2.31154 3.2
      vertex -1.75 -2.42944 0
      vertex -1.60748 -2.53298 3.2
    endloop
  endfacet
  facet normal -0.58776 -0.809035 -0
    outer loop
      vertex -1.60748 -2.53298 3.2
      vertex -1.75 -2.42944 0
      vertex -1.60748 -2.53298 0
    endloop
  endfacet
  facet normal -0.844331 -0.535822 0
    outer loop
      vertex -2.42705 -1.76336 0
      vertex -2.62892 -1.44526 3.2
      vertex -2.62892 -1.44526 0
    endloop
  endfacet
  facet normal -0.844331 -0.535822 0
    outer loop
      vertex -2.62892 -1.44526 3.2
      vertex -2.42705 -1.76336 0
      vertex -2.42705 -1.76336 3.2
    endloop
  endfacet
  facet normal -0.481762 -0.876302 0
    outer loop
      vertex -1.60748 -2.53298 0
      vertex -1.27734 -2.71448 3.2
      vertex -1.60748 -2.53298 3.2
    endloop
  endfacet
  facet normal -0.481762 -0.876302 -0
    outer loop
      vertex -1.27734 -2.71448 3.2
      vertex -1.60748 -2.53298 0
      vertex -1.27734 -2.71448 0
    endloop
  endfacet
  facet normal -0.770514 -0.637423 0
    outer loop
      vertex -2.18691 -2.05364 0
      vertex -2.42705 -1.76336 3.2
      vertex -2.42705 -1.76336 0
    endloop
  endfacet
  facet normal -0.770514 -0.637423 0
    outer loop
      vertex -2.42705 -1.76336 3.2
      vertex -2.18691 -2.05364 0
      vertex -2.18691 -2.05364 3.2
    endloop
  endfacet
  facet normal -0.951059 0.309009 0
    outer loop
      vertex -1.74345 0.447641 -18
      vertex -1.6736 0.662623 -0.599999
      vertex -1.6736 0.662623 -18
    endloop
  endfacet
  facet normal -0.951059 0.309009 0
    outer loop
      vertex -1.6736 0.662623 -0.599999
      vertex -1.74345 0.447641 -18
      vertex -1.74345 0.447641 -0.599999
    endloop
  endfacet
  facet normal 0.844327 0.535828 0
    outer loop
      vertex 1.57735 0.867156 -0.599999
      vertex 1.45623 1.05801 -18
      vertex 1.45623 1.05801 -0.599999
    endloop
  endfacet
  facet normal 0.844327 0.535828 0
    outer loop
      vertex 1.45623 1.05801 -18
      vertex 1.57735 0.867156 -0.599999
      vertex 1.57735 0.867156 -18
    endloop
  endfacet
  facet normal 0.248699 0.968581 0
    outer loop
      vertex 0.556231 1.7119 -0.599999
      vertex 0.556231 1.7119 -18
      vertex 0.407847 1.75 -0.599999
    endloop
  endfacet
  facet normal 0.248729 0.968573 -0
    outer loop
      vertex 0.407847 1.75 -0.599999
      vertex 0.337286 1.76812 -0.299999
      vertex 0.407847 1.75 -0.299999
    endloop
  endfacet
  facet normal 0.248708 0.968578 8.74548e-08
    outer loop
      vertex 0.337286 1.76812 -18
      vertex 0.407847 1.75 -0.599999
      vertex 0.556231 1.7119 -18
    endloop
  endfacet
  facet normal 0.248729 0.968573 0
    outer loop
      vertex 0.407847 1.75 -0.599999
      vertex 0.337286 1.76812 -18
      vertex 0.337286 1.76812 -0.299999
    endloop
  endfacet
  facet normal 0.368115 0.92978 -0
    outer loop
      vertex 0.766402 1.62869 -18
      vertex 0.556231 1.7119 -0.599999
      vertex 0.766402 1.62869 -0.599999
    endloop
  endfacet
  facet normal 0.368115 0.92978 0
    outer loop
      vertex 0.556231 1.7119 -0.599999
      vertex 0.766402 1.62869 -18
      vertex 0.556231 1.7119 -18
    endloop
  endfacet
  facet normal -0.368115 0.92978 0
    outer loop
      vertex -0.556231 1.7119 -18
      vertex -0.766402 1.62869 -0.599999
      vertex -0.556231 1.7119 -0.599999
    endloop
  endfacet
  facet normal -0.368115 0.92978 0
    outer loop
      vertex -0.766402 1.62869 -0.599999
      vertex -0.556231 1.7119 -18
      vertex -0.766402 1.62869 -18
    endloop
  endfacet
  facet normal -0.90482 0.425794 0
    outer loop
      vertex -1.6736 0.662623 -18
      vertex -1.57735 0.867156 -0.599999
      vertex -1.57735 0.867156 -18
    endloop
  endfacet
  facet normal -0.90482 0.425794 0
    outer loop
      vertex -1.57735 0.867156 -0.599999
      vertex -1.6736 0.662623 -18
      vertex -1.6736 0.662623 -0.599999
    endloop
  endfacet
  facet normal 0.998028 -0.0627752 0
    outer loop
      vertex 1.78581 -0.225599 0
      vertex 1.8 0 -18
      vertex 1.8 0 0
    endloop
  endfacet
  facet normal 0.998028 -0.0627752 0
    outer loop
      vertex 1.8 0 -18
      vertex 1.78581 -0.225599 0
      vertex 1.78581 -0.225599 -18
    endloop
  endfacet
  facet normal 0.368115 -0.92978 0
    outer loop
      vertex 0.556231 -1.7119 -18
      vertex 0.766402 -1.62869 -0.599999
      vertex 0.556231 -1.7119 -0.599999
    endloop
  endfacet
  facet normal 0.368115 -0.92978 0
    outer loop
      vertex 0.766402 -1.62869 -0.599999
      vertex 0.556231 -1.7119 -18
      vertex 0.766402 -1.62869 -18
    endloop
  endfacet
  facet normal 0.68455 0.728966 -0
    outer loop
      vertex 1.31214 1.23218 -18
      vertex 1.14736 1.38692 -0.599999
      vertex 1.31214 1.23218 -0.599999
    endloop
  endfacet
  facet normal 0.68455 0.728966 0
    outer loop
      vertex 1.14736 1.38692 -0.599999
      vertex 1.31214 1.23218 -18
      vertex 1.14736 1.38692 -18
    endloop
  endfacet
  facet normal 0.587802 0.809005 -0
    outer loop
      vertex 1.14736 1.38692 -18
      vertex 0.964488 1.51979 -0.599999
      vertex 1.14736 1.38692 -0.599999
    endloop
  endfacet
  facet normal 0.587802 0.809005 0
    outer loop
      vertex 0.964488 1.51979 -0.599999
      vertex 1.14736 1.38692 -18
      vertex 0.964488 1.51979 -18
    endloop
  endfacet
  facet normal -0.770504 0.637435 0
    outer loop
      vertex -1.45623 1.05801 -18
      vertex -1.31214 1.23218 -0.599999
      vertex -1.31214 1.23218 -18
    endloop
  endfacet
  facet normal -0.770504 0.637435 0
    outer loop
      vertex -1.31214 1.23218 -0.599999
      vertex -1.45623 1.05801 -18
      vertex -1.45623 1.05801 -0.599999
    endloop
  endfacet
  facet normal -0.68455 0.728966 0
    outer loop
      vertex -1.14736 1.38692 -18
      vertex -1.31214 1.23218 -0.599999
      vertex -1.14736 1.38692 -0.599999
    endloop
  endfacet
  facet normal -0.68455 0.728966 0
    outer loop
      vertex -1.31214 1.23218 -0.599999
      vertex -1.14736 1.38692 -18
      vertex -1.31214 1.23218 -18
    endloop
  endfacet
  facet normal 0.998028 0.0627752 0
    outer loop
      vertex 1.8 0 0
      vertex 1.78581 0.225599 -18
      vertex 1.78581 0.225599 0
    endloop
  endfacet
  facet normal 0.998028 0.0627752 0
    outer loop
      vertex 1.78581 0.225599 -18
      vertex 1.8 0 0
      vertex 1.8 0 -18
    endloop
  endfacet
  facet normal 0.90482 -0.425794 0
    outer loop
      vertex 1.57735 -0.867156 -0.599999
      vertex 1.6736 -0.662623 -18
      vertex 1.6736 -0.662623 -0.599999
    endloop
  endfacet
  facet normal 0.90482 -0.425794 0
    outer loop
      vertex 1.6736 -0.662623 -18
      vertex 1.57735 -0.867156 -0.599999
      vertex 1.57735 -0.867156 -18
    endloop
  endfacet
  facet normal -0.248699 -0.968581 -0
    outer loop
      vertex -0.556231 -1.7119 -0.599999
      vertex -0.556231 -1.7119 -18
      vertex -0.407847 -1.75 -0.599999
    endloop
  endfacet
  facet normal -0.248729 -0.968573 0
    outer loop
      vertex -0.407847 -1.75 -0.599999
      vertex -0.337286 -1.76812 -0.299999
      vertex -0.407847 -1.75 -0.299999
    endloop
  endfacet
  facet normal -0.248708 -0.968578 8.74548e-08
    outer loop
      vertex -0.337286 -1.76812 -18
      vertex -0.407847 -1.75 -0.599999
      vertex -0.556231 -1.7119 -18
    endloop
  endfacet
  facet normal -0.248729 -0.968573 0
    outer loop
      vertex -0.407847 -1.75 -0.599999
      vertex -0.337286 -1.76812 -18
      vertex -0.337286 -1.76812 -0.299999
    endloop
  endfacet
  facet normal 0.248729 -0.968573 0
    outer loop
      vertex 0.337286 -1.76812 -0.299999
      vertex 0.407847 -1.75 -0.599999
      vertex 0.407847 -1.75 -0.299999
    endloop
  endfacet
  facet normal 0.248729 -0.968573 0
    outer loop
      vertex 0.337286 -1.76812 -18
      vertex 0.407847 -1.75 -0.599999
      vertex 0.337286 -1.76812 -0.299999
    endloop
  endfacet
  facet normal 0.248699 -0.968581 1.29042e-07
    outer loop
      vertex 0.337286 -1.76812 -18
      vertex 0.556231 -1.7119 -0.599999
      vertex 0.407847 -1.75 -0.599999
    endloop
  endfacet
  facet normal 0.248708 -0.968578 0
    outer loop
      vertex 0.556231 -1.7119 -0.599999
      vertex 0.337286 -1.76812 -18
      vertex 0.556231 -1.7119 -18
    endloop
  endfacet
  facet normal 0.770504 0.637435 0
    outer loop
      vertex 1.45623 1.05801 -0.599999
      vertex 1.31214 1.23218 -18
      vertex 1.31214 1.23218 -0.599999
    endloop
  endfacet
  facet normal 0.770504 0.637435 0
    outer loop
      vertex 1.31214 1.23218 -18
      vertex 1.45623 1.05801 -0.599999
      vertex 1.45623 1.05801 -18
    endloop
  endfacet
  facet normal 0 1 -0
    outer loop
      vertex 0.113023 1.79645 -18
      vertex -0.113023 1.79645 -0.299999
      vertex 0.113023 1.79645 -0.299999
    endloop
  endfacet
  facet normal 0 1 0
    outer loop
      vertex -0.113023 1.79645 -0.299999
      vertex 0.113023 1.79645 -18
      vertex -0.113023 1.79645 -18
    endloop
  endfacet
  facet normal 0.481758 0.876304 -0
    outer loop
      vertex 0.964488 1.51979 -18
      vertex 0.766402 1.62869 -0.599999
      vertex 0.964488 1.51979 -0.599999
    endloop
  endfacet
  facet normal 0.481758 0.876304 0
    outer loop
      vertex 0.766402 1.62869 -0.599999
      vertex 0.964488 1.51979 -18
      vertex 0.766402 1.62869 -18
    endloop
  endfacet
  facet normal -0.998028 0.0627752 0
    outer loop
      vertex -1.8 0 -18
      vertex -1.78581 0.225599 0
      vertex -1.78581 0.225599 -18
    endloop
  endfacet
  facet normal -0.998028 0.0627752 0
    outer loop
      vertex -1.78581 0.225599 0
      vertex -1.8 0 -18
      vertex -1.8 0 0
    endloop
  endfacet
  facet normal -0.982291 0.187362 0
    outer loop
      vertex -1.74345 0.447641 -18
      vertex -1.75 0.413301 -0.599999
      vertex -1.74345 0.447641 -0.599999
    endloop
  endfacet
  facet normal -0.982285 0.187395 6.79598e-08
    outer loop
      vertex -1.78581 0.225599 -18
      vertex -1.75 0.413301 -0.599999
      vertex -1.74345 0.447641 -18
    endloop
  endfacet
  facet normal -0.982283 0.187401 0
    outer loop
      vertex -1.78581 0.225599 0
      vertex -1.75 0.413301 -0.599999
      vertex -1.78581 0.225599 -18
    endloop
  endfacet
  facet normal -0.982283 0.187401 0
    outer loop
      vertex -1.75 0.413301 -0.599999
      vertex -1.78581 0.225599 0
      vertex -1.75 0.413301 0
    endloop
  endfacet
  facet normal -0.844327 0.535828 0
    outer loop
      vertex -1.57735 0.867156 -18
      vertex -1.45623 1.05801 -0.599999
      vertex -1.45623 1.05801 -18
    endloop
  endfacet
  facet normal -0.844327 0.535828 0
    outer loop
      vertex -1.45623 1.05801 -0.599999
      vertex -1.57735 0.867156 -18
      vertex -1.57735 0.867156 -0.599999
    endloop
  endfacet
  facet normal -0.125329 0.992115 0
    outer loop
      vertex -0.113023 1.79645 -18
      vertex -0.337286 1.76812 -0.299999
      vertex -0.113023 1.79645 -0.299999
    endloop
  endfacet
  facet normal -0.125329 0.992115 0
    outer loop
      vertex -0.337286 1.76812 -0.299999
      vertex -0.113023 1.79645 -18
      vertex -0.337286 1.76812 -18
    endloop
  endfacet
  facet normal -0.248729 0.968573 0
    outer loop
      vertex -0.337286 1.76812 -0.299999
      vertex -0.407847 1.75 -0.599999
      vertex -0.407847 1.75 -0.299999
    endloop
  endfacet
  facet normal -0.248729 0.968573 0
    outer loop
      vertex -0.337286 1.76812 -18
      vertex -0.407847 1.75 -0.599999
      vertex -0.337286 1.76812 -0.299999
    endloop
  endfacet
  facet normal -0.248699 0.968581 1.29042e-07
    outer loop
      vertex -0.337286 1.76812 -18
      vertex -0.556231 1.7119 -0.599999
      vertex -0.407847 1.75 -0.599999
    endloop
  endfacet
  facet normal -0.248708 0.968578 0
    outer loop
      vertex -0.556231 1.7119 -0.599999
      vertex -0.337286 1.76812 -18
      vertex -0.556231 1.7119 -18
    endloop
  endfacet
  facet normal -0.481758 0.876304 0
    outer loop
      vertex -0.766402 1.62869 -18
      vertex -0.964488 1.51979 -0.599999
      vertex -0.766402 1.62869 -0.599999
    endloop
  endfacet
  facet normal -0.481758 0.876304 0
    outer loop
      vertex -0.964488 1.51979 -0.599999
      vertex -0.766402 1.62869 -18
      vertex -0.964488 1.51979 -18
    endloop
  endfacet
  facet normal -0.587802 0.809005 0
    outer loop
      vertex -0.964488 1.51979 -18
      vertex -1.14736 1.38692 -0.599999
      vertex -0.964488 1.51979 -0.599999
    endloop
  endfacet
  facet normal -0.587802 0.809005 0
    outer loop
      vertex -1.14736 1.38692 -0.599999
      vertex -0.964488 1.51979 -18
      vertex -1.14736 1.38692 -18
    endloop
  endfacet
  facet normal 0.982283 -0.187401 0
    outer loop
      vertex 1.75 -0.413301 -0.599999
      vertex 1.78581 -0.225599 0
      vertex 1.75 -0.413301 0
    endloop
  endfacet
  facet normal 0.982283 -0.187401 0
    outer loop
      vertex 1.78581 -0.225599 0
      vertex 1.75 -0.413301 -0.599999
      vertex 1.78581 -0.225599 -18
    endloop
  endfacet
  facet normal 0.982291 -0.187362 0
    outer loop
      vertex 1.74345 -0.447641 -18
      vertex 1.75 -0.413301 -0.599999
      vertex 1.74345 -0.447641 -0.599999
    endloop
  endfacet
  facet normal 0.982285 -0.187395 6.79598e-08
    outer loop
      vertex 1.75 -0.413301 -0.599999
      vertex 1.74345 -0.447641 -18
      vertex 1.78581 -0.225599 -18
    endloop
  endfacet
  facet normal 0.125329 -0.992115 0
    outer loop
      vertex 0.113023 -1.79645 -18
      vertex 0.337286 -1.76812 -0.299999
      vertex 0.113023 -1.79645 -0.299999
    endloop
  endfacet
  facet normal 0.125329 -0.992115 0
    outer loop
      vertex 0.337286 -1.76812 -0.299999
      vertex 0.113023 -1.79645 -18
      vertex 0.337286 -1.76812 -18
    endloop
  endfacet
  facet normal 0.90482 0.425794 0
    outer loop
      vertex 1.6736 0.662623 -0.599999
      vertex 1.57735 0.867156 -18
      vertex 1.57735 0.867156 -0.599999
    endloop
  endfacet
  facet normal 0.90482 0.425794 0
    outer loop
      vertex 1.57735 0.867156 -18
      vertex 1.6736 0.662623 -0.599999
      vertex 1.6736 0.662623 -18
    endloop
  endfacet
  facet normal 0.951059 0.309009 0
    outer loop
      vertex 1.74345 0.447641 -0.599999
      vertex 1.6736 0.662623 -18
      vertex 1.6736 0.662623 -0.599999
    endloop
  endfacet
  facet normal 0.951059 0.309009 0
    outer loop
      vertex 1.6736 0.662623 -18
      vertex 1.74345 0.447641 -0.599999
      vertex 1.74345 0.447641 -18
    endloop
  endfacet
  facet normal 0.982283 0.187401 0
    outer loop
      vertex 1.75 0.413301 0
      vertex 1.78581 0.225599 0
      vertex 1.75 0.413301 -0.599999
    endloop
  endfacet
  facet normal 0.982291 0.187362 0
    outer loop
      vertex 1.75 0.413301 -0.599999
      vertex 1.74345 0.447641 -18
      vertex 1.74345 0.447641 -0.599999
    endloop
  endfacet
  facet normal 0.982283 0.187401 -0
    outer loop
      vertex 1.78581 0.225599 -18
      vertex 1.75 0.413301 -0.599999
      vertex 1.78581 0.225599 0
    endloop
  endfacet
  facet normal 0.982285 0.187395 6.79598e-08
    outer loop
      vertex 1.75 0.413301 -0.599999
      vertex 1.78581 0.225599 -18
      vertex 1.74345 0.447641 -18
    endloop
  endfacet
  facet normal 0.125329 0.992115 -0
    outer loop
      vertex 0.337286 1.76812 -18
      vertex 0.113023 1.79645 -0.299999
      vertex 0.337286 1.76812 -0.299999
    endloop
  endfacet
  facet normal 0.125329 0.992115 0
    outer loop
      vertex 0.113023 1.79645 -0.299999
      vertex 0.337286 1.76812 -18
      vertex 0.113023 1.79645 -18
    endloop
  endfacet
  facet normal 0.481758 -0.876304 0
    outer loop
      vertex 0.766402 -1.62869 -18
      vertex 0.964488 -1.51979 -0.599999
      vertex 0.766402 -1.62869 -0.599999
    endloop
  endfacet
  facet normal 0.481758 -0.876304 0
    outer loop
      vertex 0.964488 -1.51979 -0.599999
      vertex 0.766402 -1.62869 -18
      vertex 0.964488 -1.51979 -18
    endloop
  endfacet
  facet normal 0.68455 -0.728966 0
    outer loop
      vertex 1.14736 -1.38692 -18
      vertex 1.31214 -1.23218 -0.599999
      vertex 1.14736 -1.38692 -0.599999
    endloop
  endfacet
  facet normal 0.68455 -0.728966 0
    outer loop
      vertex 1.31214 -1.23218 -0.599999
      vertex 1.14736 -1.38692 -18
      vertex 1.31214 -1.23218 -18
    endloop
  endfacet
  facet normal 0.770504 -0.637435 0
    outer loop
      vertex 1.31214 -1.23218 -0.599999
      vertex 1.45623 -1.05801 -18
      vertex 1.45623 -1.05801 -0.599999
    endloop
  endfacet
  facet normal 0.770504 -0.637435 0
    outer loop
      vertex 1.45623 -1.05801 -18
      vertex 1.31214 -1.23218 -0.599999
      vertex 1.31214 -1.23218 -18
    endloop
  endfacet
  facet normal -0.125329 -0.992115 0
    outer loop
      vertex -0.337286 -1.76812 -18
      vertex -0.113023 -1.79645 -0.299999
      vertex -0.337286 -1.76812 -0.299999
    endloop
  endfacet
  facet normal -0.125329 -0.992115 -0
    outer loop
      vertex -0.113023 -1.79645 -0.299999
      vertex -0.337286 -1.76812 -18
      vertex -0.113023 -1.79645 -18
    endloop
  endfacet
  facet normal -0.998028 -0.0627752 0
    outer loop
      vertex -1.78581 -0.225599 -18
      vertex -1.8 0 0
      vertex -1.8 0 -18
    endloop
  endfacet
  facet normal -0.998028 -0.0627752 0
    outer loop
      vertex -1.8 0 0
      vertex -1.78581 -0.225599 -18
      vertex -1.78581 -0.225599 0
    endloop
  endfacet
  facet normal -0.951059 -0.309009 0
    outer loop
      vertex -1.6736 -0.662623 -18
      vertex -1.74345 -0.447641 -0.599999
      vertex -1.74345 -0.447641 -18
    endloop
  endfacet
  facet normal -0.951059 -0.309009 0
    outer loop
      vertex -1.74345 -0.447641 -0.599999
      vertex -1.6736 -0.662623 -18
      vertex -1.6736 -0.662623 -0.599999
    endloop
  endfacet
  facet normal -0.770504 -0.637435 0
    outer loop
      vertex -1.31214 -1.23218 -18
      vertex -1.45623 -1.05801 -0.599999
      vertex -1.45623 -1.05801 -18
    endloop
  endfacet
  facet normal -0.770504 -0.637435 0
    outer loop
      vertex -1.45623 -1.05801 -0.599999
      vertex -1.31214 -1.23218 -18
      vertex -1.31214 -1.23218 -0.599999
    endloop
  endfacet
  facet normal 0.951059 -0.309009 0
    outer loop
      vertex 1.6736 -0.662623 -0.599999
      vertex 1.74345 -0.447641 -18
      vertex 1.74345 -0.447641 -0.599999
    endloop
  endfacet
  facet normal 0.951059 -0.309009 0
    outer loop
      vertex 1.74345 -0.447641 -18
      vertex 1.6736 -0.662623 -0.599999
      vertex 1.6736 -0.662623 -18
    endloop
  endfacet
  facet normal 0.587802 -0.809005 0
    outer loop
      vertex 0.964488 -1.51979 -18
      vertex 1.14736 -1.38692 -0.599999
      vertex 0.964488 -1.51979 -0.599999
    endloop
  endfacet
  facet normal 0.587802 -0.809005 0
    outer loop
      vertex 1.14736 -1.38692 -0.599999
      vertex 0.964488 -1.51979 -18
      vertex 1.14736 -1.38692 -18
    endloop
  endfacet
  facet normal 0.844327 -0.535828 0
    outer loop
      vertex 1.45623 -1.05801 -0.599999
      vertex 1.57735 -0.867156 -18
      vertex 1.57735 -0.867156 -0.599999
    endloop
  endfacet
  facet normal 0.844327 -0.535828 0
    outer loop
      vertex 1.57735 -0.867156 -18
      vertex 1.45623 -1.05801 -0.599999
      vertex 1.45623 -1.05801 -18
    endloop
  endfacet
  facet normal -0.587802 -0.809005 0
    outer loop
      vertex -1.14736 -1.38692 -18
      vertex -0.964488 -1.51979 -0.599999
      vertex -1.14736 -1.38692 -0.599999
    endloop
  endfacet
  facet normal -0.587802 -0.809005 -0
    outer loop
      vertex -0.964488 -1.51979 -0.599999
      vertex -1.14736 -1.38692 -18
      vertex -0.964488 -1.51979 -18
    endloop
  endfacet
  facet normal 0 -1 0
    outer loop
      vertex -0.113023 -1.79645 -18
      vertex 0.113023 -1.79645 -0.299999
      vertex -0.113023 -1.79645 -0.299999
    endloop
  endfacet
  facet normal 0 -1 -0
    outer loop
      vertex 0.113023 -1.79645 -0.299999
      vertex -0.113023 -1.79645 -18
      vertex 0.113023 -1.79645 -18
    endloop
  endfacet
  facet normal -0.982283 -0.187401 0
    outer loop
      vertex -1.78581 -0.225599 -18
      vertex -1.75 -0.413301 -0.599999
      vertex -1.78581 -0.225599 0
    endloop
  endfacet
  facet normal -0.982285 -0.187395 6.79598e-08
    outer loop
      vertex -1.74345 -0.447641 -18
      vertex -1.75 -0.413301 -0.599999
      vertex -1.78581 -0.225599 -18
    endloop
  endfacet
  facet normal -0.982291 -0.187362 0
    outer loop
      vertex -1.75 -0.413301 -0.599999
      vertex -1.74345 -0.447641 -18
      vertex -1.74345 -0.447641 -0.599999
    endloop
  endfacet
  facet normal -0.982283 -0.187401 0
    outer loop
      vertex -1.78581 -0.225599 0
      vertex -1.75 -0.413301 -0.599999
      vertex -1.75 -0.413301 0
    endloop
  endfacet
  facet normal -0.68455 -0.728966 0
    outer loop
      vertex -1.31214 -1.23218 -18
      vertex -1.14736 -1.38692 -0.599999
      vertex -1.31214 -1.23218 -0.599999
    endloop
  endfacet
  facet normal -0.68455 -0.728966 -0
    outer loop
      vertex -1.14736 -1.38692 -0.599999
      vertex -1.31214 -1.23218 -18
      vertex -1.14736 -1.38692 -18
    endloop
  endfacet
  facet normal -0.481758 -0.876304 0
    outer loop
      vertex -0.964488 -1.51979 -18
      vertex -0.766402 -1.62869 -0.599999
      vertex -0.964488 -1.51979 -0.599999
    endloop
  endfacet
  facet normal -0.481758 -0.876304 -0
    outer loop
      vertex -0.766402 -1.62869 -0.599999
      vertex -0.964488 -1.51979 -18
      vertex -0.766402 -1.62869 -18
    endloop
  endfacet
  facet normal -0.368115 -0.92978 0
    outer loop
      vertex -0.766402 -1.62869 -18
      vertex -0.556231 -1.7119 -0.599999
      vertex -0.766402 -1.62869 -0.599999
    endloop
  endfacet
  facet normal -0.368115 -0.92978 -0
    outer loop
      vertex -0.556231 -1.7119 -0.599999
      vertex -0.766402 -1.62869 -18
      vertex -0.556231 -1.7119 -18
    endloop
  endfacet
  facet normal -0.844327 -0.535828 0
    outer loop
      vertex -1.45623 -1.05801 -18
      vertex -1.57735 -0.867156 -0.599999
      vertex -1.57735 -0.867156 -18
    endloop
  endfacet
  facet normal -0.844327 -0.535828 0
    outer loop
      vertex -1.57735 -0.867156 -0.599999
      vertex -1.45623 -1.05801 -18
      vertex -1.45623 -1.05801 -0.599999
    endloop
  endfacet
  facet normal -0.90482 -0.425794 0
    outer loop
      vertex -1.57735 -0.867156 -18
      vertex -1.6736 -0.662623 -0.599999
      vertex -1.6736 -0.662623 -18
    endloop
  endfacet
  facet normal -0.90482 -0.425794 0
    outer loop
      vertex -1.6736 -0.662623 -0.599999
      vertex -1.57735 -0.867156 -18
      vertex -1.57735 -0.867156 -0.599999
    endloop
  endfacet
  facet normal -1 0 0
    outer loop
      vertex -1.75 -1.75 -0.299999
      vertex -1.75 -0.413301 -0.599999
      vertex -1.75 -1.75 -0.599999
    endloop
  endfacet
  facet normal -1 0 0
    outer loop
      vertex -1.75 -0.413301 -0.599999
      vertex -1.75 -1.75 -0.299999
      vertex -1.75 -0.413301 0
    endloop
  endfacet
  facet normal -1 0 0
    outer loop
      vertex -1.75 -1.75 -0.299999
      vertex -1.75 -2.42944 0
      vertex -1.75 -0.413301 0
    endloop
  endfacet
  facet normal -1 0 0
    outer loop
      vertex -1.75 -3.25 -0.299999
      vertex -1.75 -2.42944 0
      vertex -1.75 -1.75 -0.299999
    endloop
  endfacet
  facet normal -1 -0 0
    outer loop
      vertex -1.75 -2.42944 0
      vertex -1.75 -3.25 -0.299999
      vertex -1.75 -3.25 0
    endloop
  endfacet
  facet normal -1 0 0
    outer loop
      vertex -1.75 1.75 -0.599999
      vertex -1.75 0.413301 -0.599999
      vertex -1.75 1.75 -0.299999
    endloop
  endfacet
  facet normal -1 0 0
    outer loop
      vertex -1.75 3.25 -0.299999
      vertex -1.75 2.42944 0
      vertex -1.75 3.25 0
    endloop
  endfacet
  facet normal -1 0 0
    outer loop
      vertex -1.75 1.75 -0.299999
      vertex -1.75 2.42944 0
      vertex -1.75 3.25 -0.299999
    endloop
  endfacet
  facet normal -1 0 0
    outer loop
      vertex -1.75 0.413301 0
      vertex -1.75 1.75 -0.299999
      vertex -1.75 0.413301 -0.599999
    endloop
  endfacet
  facet normal -1 0 0
    outer loop
      vertex -1.75 1.75 -0.299999
      vertex -1.75 0.413301 0
      vertex -1.75 2.42944 0
    endloop
  endfacet
  facet normal 1 0 0
    outer loop
      vertex 1.75 -0.413301 0
      vertex 1.75 -1.75 -0.299999
      vertex 1.75 -0.413301 -0.599999
    endloop
  endfacet
  facet normal 1 -0 0
    outer loop
      vertex 1.75 -2.42944 0
      vertex 1.75 -1.75 -0.299999
      vertex 1.75 -0.413301 0
    endloop
  endfacet
  facet normal 1 0 0
    outer loop
      vertex 1.75 -3.25 -0.299999
      vertex 1.75 -2.42944 0
      vertex 1.75 -3.25 0
    endloop
  endfacet
  facet normal 1 0 0
    outer loop
      vertex 1.75 -2.42944 0
      vertex 1.75 -3.25 -0.299999
      vertex 1.75 -1.75 -0.299999
    endloop
  endfacet
  facet normal 1 0 0
    outer loop
      vertex 1.75 -0.413301 -0.599999
      vertex 1.75 -1.75 -0.299999
      vertex 1.75 -1.75 -0.599999
    endloop
  endfacet
  facet normal 1 -0 0
    outer loop
      vertex 1.75 2.42944 0
      vertex 1.75 3.25 -0.299999
      vertex 1.75 3.25 0
    endloop
  endfacet
  facet normal 1 0 0
    outer loop
      vertex 1.75 2.42944 0
      vertex 1.75 1.75 -0.299999
      vertex 1.75 3.25 -0.299999
    endloop
  endfacet
  facet normal 1 -0 0
    outer loop
      vertex 1.75 0.413301 0
      vertex 1.75 1.75 -0.299999
      vertex 1.75 2.42944 0
    endloop
  endfacet
  facet normal 1 0 0
    outer loop
      vertex 1.75 0.413301 -0.599999
      vertex 1.75 1.75 -0.299999
      vertex 1.75 0.413301 0
    endloop
  endfacet
  facet normal 1 0 0
    outer loop
      vertex 1.75 1.75 -0.299999
      vertex 1.75 0.413301 -0.599999
      vertex 1.75 1.75 -0.599999
    endloop
  endfacet
  facet normal 0 0 -1
    outer loop
      vertex 1.75 -3.25 -0.299999
      vertex 0.407847 -1.75 -0.299999
      vertex 1.75 -1.75 -0.299999
    endloop
  endfacet
  facet normal 0 0 -1
    outer loop
      vertex 1.75 -3.25 -0.299999
      vertex 0.337286 -1.76812 -0.299999
      vertex 0.407847 -1.75 -0.299999
    endloop
  endfacet
  facet normal 0 0 -1
    outer loop
      vertex 1.75 -3.25 -0.299999
      vertex 0.113023 -1.79645 -0.299999
      vertex 0.337286 -1.76812 -0.299999
    endloop
  endfacet
  facet normal 0 0 -1
    outer loop
      vertex 1.75 -3.25 -0.299999
      vertex -0.113023 -1.79645 -0.299999
      vertex 0.113023 -1.79645 -0.299999
    endloop
  endfacet
  facet normal 0 0 -1
    outer loop
      vertex -1.75 -3.25 -0.299999
      vertex -0.113023 -1.79645 -0.299999
      vertex 1.75 -3.25 -0.299999
    endloop
  endfacet
  facet normal -0 0 -1
    outer loop
      vertex -0.113023 -1.79645 -0.299999
      vertex -1.75 -3.25 -0.299999
      vertex -0.337286 -1.76812 -0.299999
    endloop
  endfacet
  facet normal -0 0 -1
    outer loop
      vertex -0.337286 -1.76812 -0.299999
      vertex -1.75 -3.25 -0.299999
      vertex -0.407847 -1.75 -0.299999
    endloop
  endfacet
  facet normal -0 0 -1
    outer loop
      vertex -0.407847 -1.75 -0.299999
      vertex -1.75 -3.25 -0.299999
      vertex -1.75 -1.75 -0.299999
    endloop
  endfacet
  facet normal 0 0 -1
    outer loop
      vertex 0.407847 1.75 -0.299999
      vertex 1.75 3.25 -0.299999
      vertex 1.75 1.75 -0.299999
    endloop
  endfacet
  facet normal 0 0 -1
    outer loop
      vertex 0.337286 1.76812 -0.299999
      vertex 1.75 3.25 -0.299999
      vertex 0.407847 1.75 -0.299999
    endloop
  endfacet
  facet normal 0 0 -1
    outer loop
      vertex 0.113023 1.79645 -0.299999
      vertex 1.75 3.25 -0.299999
      vertex 0.337286 1.76812 -0.299999
    endloop
  endfacet
  facet normal 0 0 -1
    outer loop
      vertex -0.113023 1.79645 -0.299999
      vertex 1.75 3.25 -0.299999
      vertex 0.113023 1.79645 -0.299999
    endloop
  endfacet
  facet normal 0 0 -1
    outer loop
      vertex -1.75 3.25 -0.299999
      vertex -0.113023 1.79645 -0.299999
      vertex -0.337286 1.76812 -0.299999
    endloop
  endfacet
  facet normal 0 0 -1
    outer loop
      vertex -1.75 3.25 -0.299999
      vertex -0.337286 1.76812 -0.299999
      vertex -0.407847 1.75 -0.299999
    endloop
  endfacet
  facet normal 0 0 -1
    outer loop
      vertex -1.75 3.25 -0.299999
      vertex -0.407847 1.75 -0.299999
      vertex -1.75 1.75 -0.299999
    endloop
  endfacet
  facet normal 0 0 -1
    outer loop
      vertex -0.113023 1.79645 -0.299999
      vertex -1.75 3.25 -0.299999
      vertex 1.75 3.25 -0.299999
    endloop
  endfacet
  facet normal 0 -1 0
    outer loop
      vertex -1.75 -3.25 -0.299999
      vertex 1.75 -3.25 0
      vertex -1.75 -3.25 0
    endloop
  endfacet
  facet normal 0 -1 -0
    outer loop
      vertex 1.75 -3.25 0
      vertex -1.75 -3.25 -0.299999
      vertex 1.75 -3.25 -0.299999
    endloop
  endfacet
  facet normal 0 1 -0
    outer loop
      vertex 1.75 3.25 -0.299999
      vertex -1.75 3.25 0
      vertex 1.75 3.25 0
    endloop
  endfacet
  facet normal 0 1 0
    outer loop
      vertex -1.75 3.25 0
      vertex 1.75 3.25 -0.299999
      vertex -1.75 3.25 -0.299999
    endloop
  endfacet
  facet normal 0 1 -0
    outer loop
      vertex 1.75 1.75 -0.599999
      vertex 0.407847 1.75 -0.299999
      vertex 1.75 1.75 -0.299999
    endloop
  endfacet
  facet normal 0 1 0
    outer loop
      vertex 0.407847 1.75 -0.299999
      vertex 1.75 1.75 -0.599999
      vertex 0.407847 1.75 -0.599999
    endloop
  endfacet
  facet normal 0 1 -0
    outer loop
      vertex -0.407847 1.75 -0.599999
      vertex -1.75 1.75 -0.299999
      vertex -0.407847 1.75 -0.299999
    endloop
  endfacet
  facet normal 0 1 0
    outer loop
      vertex -1.75 1.75 -0.299999
      vertex -0.407847 1.75 -0.599999
      vertex -1.75 1.75 -0.599999
    endloop
  endfacet
  facet normal 0 0 -1
    outer loop
      vertex -1.75 -1.75 -0.599999
      vertex -0.556231 -1.7119 -0.599999
      vertex -0.407847 -1.75 -0.599999
    endloop
  endfacet
  facet normal 0 0 -1
    outer loop
      vertex -1.75 -1.75 -0.599999
      vertex -0.766402 -1.62869 -0.599999
      vertex -0.556231 -1.7119 -0.599999
    endloop
  endfacet
  facet normal 0 0 -1
    outer loop
      vertex -1.75 -1.75 -0.599999
      vertex -0.964488 -1.51979 -0.599999
      vertex -0.766402 -1.62869 -0.599999
    endloop
  endfacet
  facet normal 0 0 -1
    outer loop
      vertex -1.75 -1.75 -0.599999
      vertex -1.14736 -1.38692 -0.599999
      vertex -0.964488 -1.51979 -0.599999
    endloop
  endfacet
  facet normal 0 0 -1
    outer loop
      vertex -1.75 -1.75 -0.599999
      vertex -1.31214 -1.23218 -0.599999
      vertex -1.14736 -1.38692 -0.599999
    endloop
  endfacet
  facet normal 0 0 -1
    outer loop
      vertex -1.75 -1.75 -0.599999
      vertex -1.45623 -1.05801 -0.599999
      vertex -1.31214 -1.23218 -0.599999
    endloop
  endfacet
  facet normal 0 0 -1
    outer loop
      vertex -1.75 -1.75 -0.599999
      vertex -1.57735 -0.867156 -0.599999
      vertex -1.45623 -1.05801 -0.599999
    endloop
  endfacet
  facet normal 0 0 -1
    outer loop
      vertex -1.75 -1.75 -0.599999
      vertex -1.6736 -0.662623 -0.599999
      vertex -1.57735 -0.867156 -0.599999
    endloop
  endfacet
  facet normal 0 0 -1
    outer loop
      vertex -1.75 -1.75 -0.599999
      vertex -1.74345 -0.447641 -0.599999
      vertex -1.6736 -0.662623 -0.599999
    endloop
  endfacet
  facet normal -0 0 -1
    outer loop
      vertex -1.74345 -0.447641 -0.599999
      vertex -1.75 -1.75 -0.599999
      vertex -1.75 -0.413301 -0.599999
    endloop
  endfacet
  facet normal 0 0 -1
    outer loop
      vertex 1.74345 0.447641 -0.599999
      vertex 1.75 1.75 -0.599999
      vertex 1.75 0.413301 -0.599999
    endloop
  endfacet
  facet normal 0 0 -1
    outer loop
      vertex 1.6736 0.662623 -0.599999
      vertex 1.75 1.75 -0.599999
      vertex 1.74345 0.447641 -0.599999
    endloop
  endfacet
  facet normal 0 0 -1
    outer loop
      vertex 1.57735 0.867156 -0.599999
      vertex 1.75 1.75 -0.599999
      vertex 1.6736 0.662623 -0.599999
    endloop
  endfacet
  facet normal 0 0 -1
    outer loop
      vertex 1.45623 1.05801 -0.599999
      vertex 1.75 1.75 -0.599999
      vertex 1.57735 0.867156 -0.599999
    endloop
  endfacet
  facet normal 0 0 -1
    outer loop
      vertex 1.31214 1.23218 -0.599999
      vertex 1.75 1.75 -0.599999
      vertex 1.45623 1.05801 -0.599999
    endloop
  endfacet
  facet normal 0 0 -1
    outer loop
      vertex 1.14736 1.38692 -0.599999
      vertex 1.75 1.75 -0.599999
      vertex 1.31214 1.23218 -0.599999
    endloop
  endfacet
  facet normal 0 0 -1
    outer loop
      vertex 0.964488 1.51979 -0.599999
      vertex 1.75 1.75 -0.599999
      vertex 1.14736 1.38692 -0.599999
    endloop
  endfacet
  facet normal 0 0 -1
    outer loop
      vertex 0.766402 1.62869 -0.599999
      vertex 1.75 1.75 -0.599999
      vertex 0.964488 1.51979 -0.599999
    endloop
  endfacet
  facet normal 0 0 -1
    outer loop
      vertex 0.556231 1.7119 -0.599999
      vertex 1.75 1.75 -0.599999
      vertex 0.766402 1.62869 -0.599999
    endloop
  endfacet
  facet normal -0 0 -1
    outer loop
      vertex 1.75 1.75 -0.599999
      vertex 0.556231 1.7119 -0.599999
      vertex 0.407847 1.75 -0.599999
    endloop
  endfacet
  facet normal 0 0 -1
    outer loop
      vertex -0.556231 1.7119 -0.599999
      vertex -1.75 1.75 -0.599999
      vertex -0.407847 1.75 -0.599999
    endloop
  endfacet
  facet normal 0 0 -1
    outer loop
      vertex -0.766402 1.62869 -0.599999
      vertex -1.75 1.75 -0.599999
      vertex -0.556231 1.7119 -0.599999
    endloop
  endfacet
  facet normal 0 0 -1
    outer loop
      vertex -0.964488 1.51979 -0.599999
      vertex -1.75 1.75 -0.599999
      vertex -0.766402 1.62869 -0.599999
    endloop
  endfacet
  facet normal 0 0 -1
    outer loop
      vertex -1.14736 1.38692 -0.599999
      vertex -1.75 1.75 -0.599999
      vertex -0.964488 1.51979 -0.599999
    endloop
  endfacet
  facet normal 0 0 -1
    outer loop
      vertex -1.31214 1.23218 -0.599999
      vertex -1.75 1.75 -0.599999
      vertex -1.14736 1.38692 -0.599999
    endloop
  endfacet
  facet normal 0 0 -1
    outer loop
      vertex -1.45623 1.05801 -0.599999
      vertex -1.75 1.75 -0.599999
      vertex -1.31214 1.23218 -0.599999
    endloop
  endfacet
  facet normal 0 0 -1
    outer loop
      vertex -1.57735 0.867156 -0.599999
      vertex -1.75 1.75 -0.599999
      vertex -1.45623 1.05801 -0.599999
    endloop
  endfacet
  facet normal 0 0 -1
    outer loop
      vertex -1.6736 0.662623 -0.599999
      vertex -1.75 1.75 -0.599999
      vertex -1.57735 0.867156 -0.599999
    endloop
  endfacet
  facet normal 0 0 -1
    outer loop
      vertex -1.74345 0.447641 -0.599999
      vertex -1.75 1.75 -0.599999
      vertex -1.6736 0.662623 -0.599999
    endloop
  endfacet
  facet normal 0 0 -1
    outer loop
      vertex -1.75 1.75 -0.599999
      vertex -1.74345 0.447641 -0.599999
      vertex -1.75 0.413301 -0.599999
    endloop
  endfacet
  facet normal 0 0 -1
    outer loop
      vertex 1.75 -1.75 -0.599999
      vertex 1.74345 -0.447641 -0.599999
      vertex 1.75 -0.413301 -0.599999
    endloop
  endfacet
  facet normal 0 0 -1
    outer loop
      vertex 1.75 -1.75 -0.599999
      vertex 1.6736 -0.662623 -0.599999
      vertex 1.74345 -0.447641 -0.599999
    endloop
  endfacet
  facet normal 0 0 -1
    outer loop
      vertex 1.75 -1.75 -0.599999
      vertex 1.57735 -0.867156 -0.599999
      vertex 1.6736 -0.662623 -0.599999
    endloop
  endfacet
  facet normal 0 0 -1
    outer loop
      vertex 1.75 -1.75 -0.599999
      vertex 1.45623 -1.05801 -0.599999
      vertex 1.57735 -0.867156 -0.599999
    endloop
  endfacet
  facet normal 0 0 -1
    outer loop
      vertex 1.75 -1.75 -0.599999
      vertex 1.31214 -1.23218 -0.599999
      vertex 1.45623 -1.05801 -0.599999
    endloop
  endfacet
  facet normal 0 0 -1
    outer loop
      vertex 1.75 -1.75 -0.599999
      vertex 1.14736 -1.38692 -0.599999
      vertex 1.31214 -1.23218 -0.599999
    endloop
  endfacet
  facet normal 0 0 -1
    outer loop
      vertex 1.75 -1.75 -0.599999
      vertex 0.964488 -1.51979 -0.599999
      vertex 1.14736 -1.38692 -0.599999
    endloop
  endfacet
  facet normal 0 0 -1
    outer loop
      vertex 1.75 -1.75 -0.599999
      vertex 0.766402 -1.62869 -0.599999
      vertex 0.964488 -1.51979 -0.599999
    endloop
  endfacet
  facet normal 0 0 -1
    outer loop
      vertex 1.75 -1.75 -0.599999
      vertex 0.556231 -1.7119 -0.599999
      vertex 0.766402 -1.62869 -0.599999
    endloop
  endfacet
  facet normal 0 -0 -1
    outer loop
      vertex 0.556231 -1.7119 -0.599999
      vertex 1.75 -1.75 -0.599999
      vertex 0.407847 -1.75 -0.599999
    endloop
  endfacet
  facet normal 0 -1 0
    outer loop
      vertex 0.407847 -1.75 -0.599999
      vertex 1.75 -1.75 -0.299999
      vertex 0.407847 -1.75 -0.299999
    endloop
  endfacet
  facet normal 0 -1 -0
    outer loop
      vertex 1.75 -1.75 -0.299999
      vertex 0.407847 -1.75 -0.599999
      vertex 1.75 -1.75 -0.599999
    endloop
  endfacet
  facet normal 0 -1 0
    outer loop
      vertex -1.75 -1.75 -0.599999
      vertex -0.407847 -1.75 -0.299999
      vertex -1.75 -1.75 -0.299999
    endloop
  endfacet
  facet normal 0 -1 -0
    outer loop
      vertex -0.407847 -1.75 -0.299999
      vertex -1.75 -1.75 -0.599999
      vertex -0.407847 -1.75 -0.599999
    endloop
  endfacet
endsolid OpenSCAD_Model
