solid OpenSCAD_Model
  facet normal -0.866025 0.5 4.0086e-18
    outer loop
      vertex -3.63509 0 0
      vertex -1.81754 3.14809 10
      vertex -1.81754 3.14809 0
    endloop
  endfacet
  facet normal -0.866025 0.5 4.0086e-18
    outer loop
      vertex -1.81754 3.14809 10
      vertex -3.63509 0 0
      vertex -3.63509 0 10
    endloop
  endfacet
  facet normal 0 1 -0
    outer loop
      vertex 1.81754 3.14809 0
      vertex -1.81754 3.14809 10
      vertex 1.81754 3.14809 10
    endloop
  endfacet
  facet normal 0 1 0
    outer loop
      vertex -1.81754 3.14809 10
      vertex 1.81754 3.14809 0
      vertex -1.81754 3.14809 0
    endloop
  endfacet
  facet normal 0 0 -1
    outer loop
      vertex 1.57735 -0.867156 0
      vertex 3.63509 0 0
      vertex 1.81754 -3.14809 0
    endloop
  endfacet
  facet normal 0 0 -1
    outer loop
      vertex 1.78581 0.225599 0
      vertex 3.63509 0 0
      vertex 1.8 0 0
    endloop
  endfacet
  facet normal -0 0 -1
    outer loop
      vertex 3.63509 0 0
      vertex 1.78581 -0.225599 0
      vertex 1.8 0 0
    endloop
  endfacet
  facet normal 0 0 -1
    outer loop
      vertex 3.63509 0 0
      vertex 1.74345 -0.447641 0
      vertex 1.78581 -0.225599 0
    endloop
  endfacet
  facet normal 0 0 -1
    outer loop
      vertex 3.63509 0 0
      vertex 1.6736 -0.662623 0
      vertex 1.74345 -0.447641 0
    endloop
  endfacet
  facet normal 0 0 -1
    outer loop
      vertex 3.63509 0 0
      vertex 1.57735 -0.867156 0
      vertex 1.6736 -0.662623 0
    endloop
  endfacet
  facet normal 0 0 -1
    outer loop
      vertex 1.81754 -3.14809 0
      vertex 1.45623 -1.05801 0
      vertex 1.57735 -0.867156 0
    endloop
  endfacet
  facet normal 0 0 -1
    outer loop
      vertex 1.81754 -3.14809 0
      vertex 1.31214 -1.23218 0
      vertex 1.45623 -1.05801 0
    endloop
  endfacet
  facet normal 0 0 -1
    outer loop
      vertex 1.81754 -3.14809 0
      vertex 1.14736 -1.38692 0
      vertex 1.31214 -1.23218 0
    endloop
  endfacet
  facet normal 0 0 -1
    outer loop
      vertex 1.81754 -3.14809 0
      vertex 0.964488 -1.51979 0
      vertex 1.14736 -1.38692 0
    endloop
  endfacet
  facet normal 0 0 -1
    outer loop
      vertex 1.81754 -3.14809 0
      vertex 0.766402 -1.62869 0
      vertex 0.964488 -1.51979 0
    endloop
  endfacet
  facet normal 0 0 -1
    outer loop
      vertex 1.81754 -3.14809 0
      vertex 0.556231 -1.7119 0
      vertex 0.766402 -1.62869 0
    endloop
  endfacet
  facet normal 0 0 -1
    outer loop
      vertex 1.81754 -3.14809 0
      vertex 0.337286 -1.76812 0
      vertex 0.556231 -1.7119 0
    endloop
  endfacet
  facet normal 0 0 -1
    outer loop
      vertex 1.81754 -3.14809 0
      vertex 0.113023 -1.79645 0
      vertex 0.337286 -1.76812 0
    endloop
  endfacet
  facet normal 0 0 -1
    outer loop
      vertex 1.81754 -3.14809 0
      vertex -0.113023 -1.79645 0
      vertex 0.113023 -1.79645 0
    endloop
  endfacet
  facet normal 0 0 -1
    outer loop
      vertex -1.81754 -3.14809 0
      vertex -0.113023 -1.79645 0
      vertex 1.81754 -3.14809 0
    endloop
  endfacet
  facet normal -0 0 -1
    outer loop
      vertex -0.113023 -1.79645 0
      vertex -1.81754 -3.14809 0
      vertex -0.337286 -1.76812 0
    endloop
  endfacet
  facet normal -0 0 -1
    outer loop
      vertex -0.337286 -1.76812 0
      vertex -1.81754 -3.14809 0
      vertex -0.556231 -1.7119 0
    endloop
  endfacet
  facet normal -0 0 -1
    outer loop
      vertex -0.556231 -1.7119 0
      vertex -1.81754 -3.14809 0
      vertex -0.766402 -1.62869 0
    endloop
  endfacet
  facet normal 0 0 -1
    outer loop
      vertex -1.74345 -0.447641 0
      vertex -3.63509 0 0
      vertex -1.78581 -0.225599 0
    endloop
  endfacet
  facet normal 0 0 -1
    outer loop
      vertex -1.6736 -0.662623 0
      vertex -3.63509 0 0
      vertex -1.74345 -0.447641 0
    endloop
  endfacet
  facet normal 0 0 -1
    outer loop
      vertex -1.57735 -0.867156 0
      vertex -3.63509 0 0
      vertex -1.6736 -0.662623 0
    endloop
  endfacet
  facet normal 0 0 -1
    outer loop
      vertex -3.63509 0 0
      vertex -1.57735 -0.867156 0
      vertex -1.81754 -3.14809 0
    endloop
  endfacet
  facet normal -0 0 -1
    outer loop
      vertex -1.45623 -1.05801 0
      vertex -1.81754 -3.14809 0
      vertex -1.57735 -0.867156 0
    endloop
  endfacet
  facet normal -0 0 -1
    outer loop
      vertex -1.31214 -1.23218 0
      vertex -1.81754 -3.14809 0
      vertex -1.45623 -1.05801 0
    endloop
  endfacet
  facet normal -0 0 -1
    outer loop
      vertex -1.14736 -1.38692 0
      vertex -1.81754 -3.14809 0
      vertex -1.31214 -1.23218 0
    endloop
  endfacet
  facet normal -0 0 -1
    outer loop
      vertex -0.964488 -1.51979 0
      vertex -1.81754 -3.14809 0
      vertex -1.14736 -1.38692 0
    endloop
  endfacet
  facet normal -0 0 -1
    outer loop
      vertex -0.766402 -1.62869 0
      vertex -1.81754 -3.14809 0
      vertex -0.964488 -1.51979 0
    endloop
  endfacet
  facet normal 0 0 -1
    outer loop
      vertex 1.74345 0.447641 0
      vertex 3.63509 0 0
      vertex 1.78581 0.225599 0
    endloop
  endfacet
  facet normal 0 0 -1
    outer loop
      vertex 1.6736 0.662623 0
      vertex 3.63509 0 0
      vertex 1.74345 0.447641 0
    endloop
  endfacet
  facet normal 0 0 -1
    outer loop
      vertex 1.57735 0.867156 0
      vertex 3.63509 0 0
      vertex 1.6736 0.662623 0
    endloop
  endfacet
  facet normal 0 0 -1
    outer loop
      vertex 3.63509 0 0
      vertex 1.57735 0.867156 0
      vertex 1.81754 3.14809 0
    endloop
  endfacet
  facet normal 0 0 -1
    outer loop
      vertex 1.45623 1.05801 0
      vertex 1.81754 3.14809 0
      vertex 1.57735 0.867156 0
    endloop
  endfacet
  facet normal 0 0 -1
    outer loop
      vertex 1.31214 1.23218 0
      vertex 1.81754 3.14809 0
      vertex 1.45623 1.05801 0
    endloop
  endfacet
  facet normal 0 0 -1
    outer loop
      vertex 1.14736 1.38692 0
      vertex 1.81754 3.14809 0
      vertex 1.31214 1.23218 0
    endloop
  endfacet
  facet normal 0 0 -1
    outer loop
      vertex 0.964488 1.51979 0
      vertex 1.81754 3.14809 0
      vertex 1.14736 1.38692 0
    endloop
  endfacet
  facet normal 0 0 -1
    outer loop
      vertex 0.766402 1.62869 0
      vertex 1.81754 3.14809 0
      vertex 0.964488 1.51979 0
    endloop
  endfacet
  facet normal 0 0 -1
    outer loop
      vertex 0.556231 1.7119 0
      vertex 1.81754 3.14809 0
      vertex 0.766402 1.62869 0
    endloop
  endfacet
  facet normal 0 0 -1
    outer loop
      vertex 0.337286 1.76812 0
      vertex 1.81754 3.14809 0
      vertex 0.556231 1.7119 0
    endloop
  endfacet
  facet normal 0 0 -1
    outer loop
      vertex 0.113023 1.79645 0
      vertex 1.81754 3.14809 0
      vertex 0.337286 1.76812 0
    endloop
  endfacet
  facet normal 0 0 -1
    outer loop
      vertex -0.113023 1.79645 0
      vertex 1.81754 3.14809 0
      vertex 0.113023 1.79645 0
    endloop
  endfacet
  facet normal 0 0 -1
    outer loop
      vertex -1.81754 3.14809 0
      vertex -0.113023 1.79645 0
      vertex -0.337286 1.76812 0
    endloop
  endfacet
  facet normal 0 0 -1
    outer loop
      vertex -1.81754 3.14809 0
      vertex -0.337286 1.76812 0
      vertex -0.556231 1.7119 0
    endloop
  endfacet
  facet normal 0 0 -1
    outer loop
      vertex -1.81754 3.14809 0
      vertex -0.556231 1.7119 0
      vertex -0.766402 1.62869 0
    endloop
  endfacet
  facet normal 0 0 -1
    outer loop
      vertex -1.81754 3.14809 0
      vertex -0.766402 1.62869 0
      vertex -0.964488 1.51979 0
    endloop
  endfacet
  facet normal 0 0 -1
    outer loop
      vertex -0.113023 1.79645 0
      vertex -1.81754 3.14809 0
      vertex 1.81754 3.14809 0
    endloop
  endfacet
  facet normal 0 0 -1
    outer loop
      vertex -1.14736 1.38692 0
      vertex -1.81754 3.14809 0
      vertex -0.964488 1.51979 0
    endloop
  endfacet
  facet normal 0 0 -1
    outer loop
      vertex -1.31214 1.23218 0
      vertex -1.81754 3.14809 0
      vertex -1.14736 1.38692 0
    endloop
  endfacet
  facet normal 0 0 -1
    outer loop
      vertex -1.45623 1.05801 0
      vertex -1.81754 3.14809 0
      vertex -1.31214 1.23218 0
    endloop
  endfacet
  facet normal 0 0 -1
    outer loop
      vertex -1.57735 0.867156 0
      vertex -1.81754 3.14809 0
      vertex -1.45623 1.05801 0
    endloop
  endfacet
  facet normal 0 0 -1
    outer loop
      vertex -3.63509 0 0
      vertex -1.57735 0.867156 0
      vertex -1.6736 0.662623 0
    endloop
  endfacet
  facet normal 0 0 -1
    outer loop
      vertex -3.63509 0 0
      vertex -1.6736 0.662623 0
      vertex -1.74345 0.447641 0
    endloop
  endfacet
  facet normal 0 0 -1
    outer loop
      vertex -3.63509 0 0
      vertex -1.74345 0.447641 0
      vertex -1.78581 0.225599 0
    endloop
  endfacet
  facet normal 0 0 -1
    outer loop
      vertex -3.63509 0 0
      vertex -1.78581 0.225599 0
      vertex -1.8 0 0
    endloop
  endfacet
  facet normal 0 0 -1
    outer loop
      vertex -1.78581 -0.225599 0
      vertex -3.63509 0 0
      vertex -1.8 0 0
    endloop
  endfacet
  facet normal -0 0 -1
    outer loop
      vertex -1.57735 0.867156 0
      vertex -3.63509 0 0
      vertex -1.81754 3.14809 0
    endloop
  endfacet
  facet normal 0.866025 0.5 -4.0086e-18
    outer loop
      vertex 3.63509 0 10
      vertex 1.81754 3.14809 0
      vertex 1.81754 3.14809 10
    endloop
  endfacet
  facet normal 0.866025 0.5 -4.0086e-18
    outer loop
      vertex 1.81754 3.14809 0
      vertex 3.63509 0 10
      vertex 3.63509 0 0
    endloop
  endfacet
  facet normal 0.866025 -0.5 4.0086e-18
    outer loop
      vertex 1.81754 -3.14809 10
      vertex 3.63509 0 0
      vertex 3.63509 0 10
    endloop
  endfacet
  facet normal 0.866025 -0.5 4.0086e-18
    outer loop
      vertex 3.63509 0 0
      vertex 1.81754 -3.14809 10
      vertex 1.81754 -3.14809 0
    endloop
  endfacet
  facet normal -0 0 1
    outer loop
      vertex 1.57735 0.867156 10
      vertex 3.63509 0 10
      vertex 1.81754 3.14809 10
    endloop
  endfacet
  facet normal 0 0 1
    outer loop
      vertex 1.78581 -0.225599 10
      vertex 3.63509 0 10
      vertex 1.8 0 10
    endloop
  endfacet
  facet normal 0 0 1
    outer loop
      vertex 3.63509 0 10
      vertex 1.78581 0.225599 10
      vertex 1.8 0 10
    endloop
  endfacet
  facet normal 0 0 1
    outer loop
      vertex 3.63509 0 10
      vertex 1.74345 0.447641 10
      vertex 1.78581 0.225599 10
    endloop
  endfacet
  facet normal 0 0 1
    outer loop
      vertex 3.63509 0 10
      vertex 1.6736 0.662623 10
      vertex 1.74345 0.447641 10
    endloop
  endfacet
  facet normal 0 0 1
    outer loop
      vertex 3.63509 0 10
      vertex 1.57735 0.867156 10
      vertex 1.6736 0.662623 10
    endloop
  endfacet
  facet normal 0 0 1
    outer loop
      vertex 1.81754 3.14809 10
      vertex 1.45623 1.05801 10
      vertex 1.57735 0.867156 10
    endloop
  endfacet
  facet normal 0 0 1
    outer loop
      vertex 1.81754 3.14809 10
      vertex 1.31214 1.23218 10
      vertex 1.45623 1.05801 10
    endloop
  endfacet
  facet normal 0 0 1
    outer loop
      vertex 1.81754 3.14809 10
      vertex 1.14736 1.38692 10
      vertex 1.31214 1.23218 10
    endloop
  endfacet
  facet normal 0 0 1
    outer loop
      vertex 1.81754 3.14809 10
      vertex 0.964488 1.51979 10
      vertex 1.14736 1.38692 10
    endloop
  endfacet
  facet normal 0 0 1
    outer loop
      vertex 1.81754 3.14809 10
      vertex 0.766402 1.62869 10
      vertex 0.964488 1.51979 10
    endloop
  endfacet
  facet normal 0 0 1
    outer loop
      vertex 1.81754 3.14809 10
      vertex 0.556231 1.7119 10
      vertex 0.766402 1.62869 10
    endloop
  endfacet
  facet normal 0 0 1
    outer loop
      vertex 1.81754 3.14809 10
      vertex 0.337286 1.76812 10
      vertex 0.556231 1.7119 10
    endloop
  endfacet
  facet normal 0 0 1
    outer loop
      vertex 1.81754 3.14809 10
      vertex 0.113023 1.79645 10
      vertex 0.337286 1.76812 10
    endloop
  endfacet
  facet normal 0 0 1
    outer loop
      vertex 1.81754 3.14809 10
      vertex -0.113023 1.79645 10
      vertex 0.113023 1.79645 10
    endloop
  endfacet
  facet normal -0 0 1
    outer loop
      vertex -1.81754 3.14809 10
      vertex -0.113023 1.79645 10
      vertex 1.81754 3.14809 10
    endloop
  endfacet
  facet normal 0 0 1
    outer loop
      vertex -0.113023 1.79645 10
      vertex -1.81754 3.14809 10
      vertex -0.337286 1.76812 10
    endloop
  endfacet
  facet normal 0 0 1
    outer loop
      vertex -0.337286 1.76812 10
      vertex -1.81754 3.14809 10
      vertex -0.556231 1.7119 10
    endloop
  endfacet
  facet normal 0 0 1
    outer loop
      vertex -0.556231 1.7119 10
      vertex -1.81754 3.14809 10
      vertex -0.766402 1.62869 10
    endloop
  endfacet
  facet normal 0 0 1
    outer loop
      vertex -1.74345 0.447641 10
      vertex -3.63509 0 10
      vertex -1.78581 0.225599 10
    endloop
  endfacet
  facet normal 0 0 1
    outer loop
      vertex -1.6736 0.662623 10
      vertex -3.63509 0 10
      vertex -1.74345 0.447641 10
    endloop
  endfacet
  facet normal 0 0 1
    outer loop
      vertex -1.57735 0.867156 10
      vertex -3.63509 0 10
      vertex -1.6736 0.662623 10
    endloop
  endfacet
  facet normal 0 0 1
    outer loop
      vertex -3.63509 0 10
      vertex -1.57735 0.867156 10
      vertex -1.81754 3.14809 10
    endloop
  endfacet
  facet normal 0 0 1
    outer loop
      vertex -1.45623 1.05801 10
      vertex -1.81754 3.14809 10
      vertex -1.57735 0.867156 10
    endloop
  endfacet
  facet normal 0 0 1
    outer loop
      vertex -1.31214 1.23218 10
      vertex -1.81754 3.14809 10
      vertex -1.45623 1.05801 10
    endloop
  endfacet
  facet normal 0 0 1
    outer loop
      vertex -1.14736 1.38692 10
      vertex -1.81754 3.14809 10
      vertex -1.31214 1.23218 10
    endloop
  endfacet
  facet normal 0 0 1
    outer loop
      vertex -0.964488 1.51979 10
      vertex -1.81754 3.14809 10
      vertex -1.14736 1.38692 10
    endloop
  endfacet
  facet normal 0 0 1
    outer loop
      vertex -0.766402 1.62869 10
      vertex -1.81754 3.14809 10
      vertex -0.964488 1.51979 10
    endloop
  endfacet
  facet normal 0 0 1
    outer loop
      vertex 1.74345 -0.447641 10
      vertex 3.63509 0 10
      vertex 1.78581 -0.225599 10
    endloop
  endfacet
  facet normal 0 0 1
    outer loop
      vertex 1.6736 -0.662623 10
      vertex 3.63509 0 10
      vertex 1.74345 -0.447641 10
    endloop
  endfacet
  facet normal 0 0 1
    outer loop
      vertex 1.57735 -0.867156 10
      vertex 3.63509 0 10
      vertex 1.6736 -0.662623 10
    endloop
  endfacet
  facet normal 0 0 1
    outer loop
      vertex 3.63509 0 10
      vertex 1.57735 -0.867156 10
      vertex 1.81754 -3.14809 10
    endloop
  endfacet
  facet normal -0 0 1
    outer loop
      vertex 1.45623 -1.05801 10
      vertex 1.81754 -3.14809 10
      vertex 1.57735 -0.867156 10
    endloop
  endfacet
  facet normal -0 0 1
    outer loop
      vertex 1.31214 -1.23218 10
      vertex 1.81754 -3.14809 10
      vertex 1.45623 -1.05801 10
    endloop
  endfacet
  facet normal -0 0 1
    outer loop
      vertex 1.14736 -1.38692 10
      vertex 1.81754 -3.14809 10
      vertex 1.31214 -1.23218 10
    endloop
  endfacet
  facet normal -0 0 1
    outer loop
      vertex 0.964488 -1.51979 10
      vertex 1.81754 -3.14809 10
      vertex 1.14736 -1.38692 10
    endloop
  endfacet
  facet normal -0 0 1
    outer loop
      vertex 0.766402 -1.62869 10
      vertex 1.81754 -3.14809 10
      vertex 0.964488 -1.51979 10
    endloop
  endfacet
  facet normal -0 0 1
    outer loop
      vertex 0.556231 -1.7119 10
      vertex 1.81754 -3.14809 10
      vertex 0.766402 -1.62869 10
    endloop
  endfacet
  facet normal -0 0 1
    outer loop
      vertex 0.337286 -1.76812 10
      vertex 1.81754 -3.14809 10
      vertex 0.556231 -1.7119 10
    endloop
  endfacet
  facet normal -0 0 1
    outer loop
      vertex 0.113023 -1.79645 10
      vertex 1.81754 -3.14809 10
      vertex 0.337286 -1.76812 10
    endloop
  endfacet
  facet normal -0 0 1
    outer loop
      vertex -0.113023 -1.79645 10
      vertex 1.81754 -3.14809 10
      vertex 0.113023 -1.79645 10
    endloop
  endfacet
  facet normal 0 0 1
    outer loop
      vertex -1.81754 -3.14809 10
      vertex -0.113023 -1.79645 10
      vertex -0.337286 -1.76812 10
    endloop
  endfacet
  facet normal 0 0 1
    outer loop
      vertex -1.81754 -3.14809 10
      vertex -0.337286 -1.76812 10
      vertex -0.556231 -1.7119 10
    endloop
  endfacet
  facet normal 0 0 1
    outer loop
      vertex -1.81754 -3.14809 10
      vertex -0.556231 -1.7119 10
      vertex -0.766402 -1.62869 10
    endloop
  endfacet
  facet normal 0 0 1
    outer loop
      vertex -1.81754 -3.14809 10
      vertex -0.766402 -1.62869 10
      vertex -0.964488 -1.51979 10
    endloop
  endfacet
  facet normal 0 0 1
    outer loop
      vertex -0.113023 -1.79645 10
      vertex -1.81754 -3.14809 10
      vertex 1.81754 -3.14809 10
    endloop
  endfacet
  facet normal 0 0 1
    outer loop
      vertex -1.14736 -1.38692 10
      vertex -1.81754 -3.14809 10
      vertex -0.964488 -1.51979 10
    endloop
  endfacet
  facet normal 0 0 1
    outer loop
      vertex -1.31214 -1.23218 10
      vertex -1.81754 -3.14809 10
      vertex -1.14736 -1.38692 10
    endloop
  endfacet
  facet normal 0 0 1
    outer loop
      vertex -1.45623 -1.05801 10
      vertex -1.81754 -3.14809 10
      vertex -1.31214 -1.23218 10
    endloop
  endfacet
  facet normal 0 0 1
    outer loop
      vertex -1.57735 -0.867156 10
      vertex -1.81754 -3.14809 10
      vertex -1.45623 -1.05801 10
    endloop
  endfacet
  facet normal 0 0 1
    outer loop
      vertex -3.63509 0 10
      vertex -1.57735 -0.867156 10
      vertex -1.6736 -0.662623 10
    endloop
  endfacet
  facet normal 0 0 1
    outer loop
      vertex -3.63509 0 10
      vertex -1.6736 -0.662623 10
      vertex -1.74345 -0.447641 10
    endloop
  endfacet
  facet normal 0 0 1
    outer loop
      vertex -3.63509 0 10
      vertex -1.74345 -0.447641 10
      vertex -1.78581 -0.225599 10
    endloop
  endfacet
  facet normal -0 0 1
    outer loop
      vertex -3.63509 0 10
      vertex -1.78581 -0.225599 10
      vertex -1.8 0 10
    endloop
  endfacet
  facet normal 0 0 1
    outer loop
      vertex -1.78581 0.225599 10
      vertex -3.63509 0 10
      vertex -1.8 0 10
    endloop
  endfacet
  facet normal 0 0 1
    outer loop
      vertex -1.57735 -0.867156 10
      vertex -3.63509 0 10
      vertex -1.81754 -3.14809 10
    endloop
  endfacet
  facet normal 0 -1 0
    outer loop
      vertex -1.81754 -3.14809 0
      vertex 1.81754 -3.14809 10
      vertex -1.81754 -3.14809 10
    endloop
  endfacet
  facet normal 0 -1 -0
    outer loop
      vertex 1.81754 -3.14809 10
      vertex -1.81754 -3.14809 0
      vertex 1.81754 -3.14809 0
    endloop
  endfacet
  facet normal -0.866025 -0.5 -4.0086e-18
    outer loop
      vertex -1.81754 -3.14809 0
      vertex -3.63509 0 10
      vertex -3.63509 0 0
    endloop
  endfacet
  facet normal -0.866025 -0.5 -4.0086e-18
    outer loop
      vertex -3.63509 0 10
      vertex -1.81754 -3.14809 0
      vertex -1.81754 -3.14809 10
    endloop
  endfacet
  facet normal -0.844327 -0.535828 6.8874e-19
    outer loop
      vertex 1.57735 0.867156 0
      vertex 1.45623 1.05801 10
      vertex 1.45623 1.05801 0
    endloop
  endfacet
  facet normal -0.844327 -0.535828 6.8874e-19
    outer loop
      vertex 1.45623 1.05801 10
      vertex 1.57735 0.867156 0
      vertex 1.57735 0.867156 10
    endloop
  endfacet
  facet normal -0.248708 -0.968578 0
    outer loop
      vertex 0.337286 1.76812 0
      vertex 0.556231 1.7119 10
      vertex 0.337286 1.76812 10
    endloop
  endfacet
  facet normal -0.248708 -0.968578 -0
    outer loop
      vertex 0.556231 1.7119 10
      vertex 0.337286 1.76812 0
      vertex 0.556231 1.7119 0
    endloop
  endfacet
  facet normal -0.368115 -0.92978 0
    outer loop
      vertex 0.556231 1.7119 0
      vertex 0.766402 1.62869 10
      vertex 0.556231 1.7119 10
    endloop
  endfacet
  facet normal -0.368115 -0.92978 -0
    outer loop
      vertex 0.766402 1.62869 10
      vertex 0.556231 1.7119 0
      vertex 0.766402 1.62869 0
    endloop
  endfacet
  facet normal 0.368115 -0.92978 0
    outer loop
      vertex -0.766402 1.62869 0
      vertex -0.556231 1.7119 10
      vertex -0.766402 1.62869 10
    endloop
  endfacet
  facet normal 0.368115 -0.92978 0
    outer loop
      vertex -0.556231 1.7119 10
      vertex -0.766402 1.62869 0
      vertex -0.556231 1.7119 0
    endloop
  endfacet
  facet normal 0.90482 -0.425794 -8.99312e-20
    outer loop
      vertex -1.6736 0.662623 10
      vertex -1.57735 0.867156 0
      vertex -1.57735 0.867156 10
    endloop
  endfacet
  facet normal 0.90482 -0.425794 -8.99312e-20
    outer loop
      vertex -1.57735 0.867156 0
      vertex -1.6736 0.662623 10
      vertex -1.6736 0.662623 0
    endloop
  endfacet
  facet normal -0.982285 0.187395 2.2408e-19
    outer loop
      vertex 1.74345 -0.447641 0
      vertex 1.78581 -0.225599 10
      vertex 1.78581 -0.225599 0
    endloop
  endfacet
  facet normal -0.982285 0.187395 2.2408e-19
    outer loop
      vertex 1.78581 -0.225599 10
      vertex 1.74345 -0.447641 0
      vertex 1.74345 -0.447641 10
    endloop
  endfacet
  facet normal -0.982285 -0.187395 -2.2408e-19
    outer loop
      vertex 1.78581 0.225599 0
      vertex 1.74345 0.447641 10
      vertex 1.74345 0.447641 0
    endloop
  endfacet
  facet normal -0.982285 -0.187395 -2.2408e-19
    outer loop
      vertex 1.74345 0.447641 10
      vertex 1.78581 0.225599 0
      vertex 1.78581 0.225599 10
    endloop
  endfacet
  facet normal -0.68455 -0.728966 0
    outer loop
      vertex 1.14736 1.38692 0
      vertex 1.31214 1.23218 10
      vertex 1.14736 1.38692 10
    endloop
  endfacet
  facet normal -0.68455 -0.728966 -0
    outer loop
      vertex 1.31214 1.23218 10
      vertex 1.14736 1.38692 0
      vertex 1.31214 1.23218 0
    endloop
  endfacet
  facet normal -0.587802 -0.809005 0
    outer loop
      vertex 0.964488 1.51979 0
      vertex 1.14736 1.38692 10
      vertex 0.964488 1.51979 10
    endloop
  endfacet
  facet normal -0.587802 -0.809005 -0
    outer loop
      vertex 1.14736 1.38692 10
      vertex 0.964488 1.51979 0
      vertex 1.14736 1.38692 0
    endloop
  endfacet
  facet normal 0.982285 -0.187395 2.2408e-19
    outer loop
      vertex -1.78581 0.225599 10
      vertex -1.74345 0.447641 0
      vertex -1.74345 0.447641 10
    endloop
  endfacet
  facet normal 0.982285 -0.187395 2.2408e-19
    outer loop
      vertex -1.74345 0.447641 0
      vertex -1.78581 0.225599 10
      vertex -1.78581 0.225599 0
    endloop
  endfacet
  facet normal 0.770504 -0.637435 -4.3467e-19
    outer loop
      vertex -1.45623 1.05801 10
      vertex -1.31214 1.23218 0
      vertex -1.31214 1.23218 10
    endloop
  endfacet
  facet normal 0.770504 -0.637435 -4.3467e-19
    outer loop
      vertex -1.31214 1.23218 0
      vertex -1.45623 1.05801 10
      vertex -1.45623 1.05801 0
    endloop
  endfacet
  facet normal 0.248708 -0.968578 0
    outer loop
      vertex -0.556231 1.7119 0
      vertex -0.337286 1.76812 10
      vertex -0.556231 1.7119 10
    endloop
  endfacet
  facet normal 0.248708 -0.968578 0
    outer loop
      vertex -0.337286 1.76812 10
      vertex -0.556231 1.7119 0
      vertex -0.337286 1.76812 0
    endloop
  endfacet
  facet normal 0.68455 -0.728966 0
    outer loop
      vertex -1.31214 1.23218 0
      vertex -1.14736 1.38692 10
      vertex -1.31214 1.23218 10
    endloop
  endfacet
  facet normal 0.68455 -0.728966 0
    outer loop
      vertex -1.14736 1.38692 10
      vertex -1.31214 1.23218 0
      vertex -1.14736 1.38692 0
    endloop
  endfacet
  facet normal -0.998028 -0.0627752 4.87135e-20
    outer loop
      vertex 1.8 0 0
      vertex 1.78581 0.225599 10
      vertex 1.78581 0.225599 0
    endloop
  endfacet
  facet normal -0.998028 -0.0627752 4.87135e-20
    outer loop
      vertex 1.78581 0.225599 10
      vertex 1.8 0 0
      vertex 1.8 0 10
    endloop
  endfacet
  facet normal -0.770504 -0.637435 4.3467e-19
    outer loop
      vertex 1.45623 1.05801 0
      vertex 1.31214 1.23218 10
      vertex 1.31214 1.23218 0
    endloop
  endfacet
  facet normal -0.770504 -0.637435 4.3467e-19
    outer loop
      vertex 1.31214 1.23218 10
      vertex 1.45623 1.05801 0
      vertex 1.45623 1.05801 10
    endloop
  endfacet
  facet normal 0 -1 0
    outer loop
      vertex -0.113023 1.79645 0
      vertex 0.113023 1.79645 10
      vertex -0.113023 1.79645 10
    endloop
  endfacet
  facet normal 0 -1 -0
    outer loop
      vertex 0.113023 1.79645 10
      vertex -0.113023 1.79645 0
      vertex 0.113023 1.79645 0
    endloop
  endfacet
  facet normal -0.481758 -0.876304 0
    outer loop
      vertex 0.766402 1.62869 0
      vertex 0.964488 1.51979 10
      vertex 0.766402 1.62869 10
    endloop
  endfacet
  facet normal -0.481758 -0.876304 -0
    outer loop
      vertex 0.964488 1.51979 10
      vertex 0.766402 1.62869 0
      vertex 0.964488 1.51979 0
    endloop
  endfacet
  facet normal 0.998028 -0.0627752 -4.87135e-20
    outer loop
      vertex -1.8 0 10
      vertex -1.78581 0.225599 0
      vertex -1.78581 0.225599 10
    endloop
  endfacet
  facet normal 0.998028 -0.0627752 -4.87135e-20
    outer loop
      vertex -1.78581 0.225599 0
      vertex -1.8 0 10
      vertex -1.8 0 0
    endloop
  endfacet
  facet normal 0.951059 -0.309009 -7.11966e-21
    outer loop
      vertex -1.74345 0.447641 10
      vertex -1.6736 0.662623 0
      vertex -1.6736 0.662623 10
    endloop
  endfacet
  facet normal 0.951059 -0.309009 -7.11966e-21
    outer loop
      vertex -1.6736 0.662623 0
      vertex -1.74345 0.447641 10
      vertex -1.74345 0.447641 0
    endloop
  endfacet
  facet normal 0.844327 -0.535828 -6.8874e-19
    outer loop
      vertex -1.57735 0.867156 10
      vertex -1.45623 1.05801 0
      vertex -1.45623 1.05801 10
    endloop
  endfacet
  facet normal 0.844327 -0.535828 -6.8874e-19
    outer loop
      vertex -1.45623 1.05801 0
      vertex -1.57735 0.867156 10
      vertex -1.57735 0.867156 0
    endloop
  endfacet
  facet normal 0.125329 -0.992115 0
    outer loop
      vertex -0.337286 1.76812 0
      vertex -0.113023 1.79645 10
      vertex -0.337286 1.76812 10
    endloop
  endfacet
  facet normal 0.125329 -0.992115 0
    outer loop
      vertex -0.113023 1.79645 10
      vertex -0.337286 1.76812 0
      vertex -0.113023 1.79645 0
    endloop
  endfacet
  facet normal 0.587802 -0.809005 0
    outer loop
      vertex -1.14736 1.38692 0
      vertex -0.964488 1.51979 10
      vertex -1.14736 1.38692 10
    endloop
  endfacet
  facet normal 0.587802 -0.809005 0
    outer loop
      vertex -0.964488 1.51979 10
      vertex -1.14736 1.38692 0
      vertex -0.964488 1.51979 0
    endloop
  endfacet
  facet normal 0.481758 -0.876304 0
    outer loop
      vertex -0.964488 1.51979 0
      vertex -0.766402 1.62869 10
      vertex -0.964488 1.51979 10
    endloop
  endfacet
  facet normal 0.481758 -0.876304 0
    outer loop
      vertex -0.766402 1.62869 10
      vertex -0.964488 1.51979 0
      vertex -0.766402 1.62869 0
    endloop
  endfacet
  facet normal 0 1 -0
    outer loop
      vertex 0.113023 -1.79645 0
      vertex -0.113023 -1.79645 10
      vertex 0.113023 -1.79645 10
    endloop
  endfacet
  facet normal 0 1 0
    outer loop
      vertex -0.113023 -1.79645 10
      vertex 0.113023 -1.79645 0
      vertex -0.113023 -1.79645 0
    endloop
  endfacet
  facet normal 0.951059 0.309009 7.11966e-21
    outer loop
      vertex -1.6736 -0.662623 10
      vertex -1.74345 -0.447641 0
      vertex -1.74345 -0.447641 10
    endloop
  endfacet
  facet normal 0.951059 0.309009 7.11966e-21
    outer loop
      vertex -1.74345 -0.447641 0
      vertex -1.6736 -0.662623 10
      vertex -1.6736 -0.662623 0
    endloop
  endfacet
  facet normal 0.90482 0.425794 8.99312e-20
    outer loop
      vertex -1.57735 -0.867156 10
      vertex -1.6736 -0.662623 0
      vertex -1.6736 -0.662623 10
    endloop
  endfacet
  facet normal 0.90482 0.425794 8.99312e-20
    outer loop
      vertex -1.6736 -0.662623 0
      vertex -1.57735 -0.867156 10
      vertex -1.57735 -0.867156 0
    endloop
  endfacet
  facet normal -0.125329 0.992115 0
    outer loop
      vertex 0.337286 -1.76812 0
      vertex 0.113023 -1.79645 10
      vertex 0.337286 -1.76812 10
    endloop
  endfacet
  facet normal -0.125329 0.992115 0
    outer loop
      vertex 0.113023 -1.79645 10
      vertex 0.337286 -1.76812 0
      vertex 0.113023 -1.79645 0
    endloop
  endfacet
  facet normal -0.368115 0.92978 0
    outer loop
      vertex 0.766402 -1.62869 0
      vertex 0.556231 -1.7119 10
      vertex 0.766402 -1.62869 10
    endloop
  endfacet
  facet normal -0.368115 0.92978 0
    outer loop
      vertex 0.556231 -1.7119 10
      vertex 0.766402 -1.62869 0
      vertex 0.556231 -1.7119 0
    endloop
  endfacet
  facet normal -0.90482 -0.425794 8.99312e-20
    outer loop
      vertex 1.6736 0.662623 0
      vertex 1.57735 0.867156 10
      vertex 1.57735 0.867156 0
    endloop
  endfacet
  facet normal -0.90482 -0.425794 8.99312e-20
    outer loop
      vertex 1.57735 0.867156 10
      vertex 1.6736 0.662623 0
      vertex 1.6736 0.662623 10
    endloop
  endfacet
  facet normal -0.951059 -0.309009 7.11966e-21
    outer loop
      vertex 1.74345 0.447641 0
      vertex 1.6736 0.662623 10
      vertex 1.6736 0.662623 0
    endloop
  endfacet
  facet normal -0.951059 -0.309009 7.11966e-21
    outer loop
      vertex 1.6736 0.662623 10
      vertex 1.74345 0.447641 0
      vertex 1.74345 0.447641 10
    endloop
  endfacet
  facet normal -0.125329 -0.992115 0
    outer loop
      vertex 0.113023 1.79645 0
      vertex 0.337286 1.76812 10
      vertex 0.113023 1.79645 10
    endloop
  endfacet
  facet normal -0.125329 -0.992115 -0
    outer loop
      vertex 0.337286 1.76812 10
      vertex 0.113023 1.79645 0
      vertex 0.337286 1.76812 0
    endloop
  endfacet
  facet normal -0.998028 0.0627752 -4.87135e-20
    outer loop
      vertex 1.78581 -0.225599 0
      vertex 1.8 0 10
      vertex 1.8 0 0
    endloop
  endfacet
  facet normal -0.998028 0.0627752 -4.87135e-20
    outer loop
      vertex 1.8 0 10
      vertex 1.78581 -0.225599 0
      vertex 1.78581 -0.225599 10
    endloop
  endfacet
  facet normal -0.90482 0.425794 -8.99312e-20
    outer loop
      vertex 1.57735 -0.867156 0
      vertex 1.6736 -0.662623 10
      vertex 1.6736 -0.662623 0
    endloop
  endfacet
  facet normal -0.90482 0.425794 -8.99312e-20
    outer loop
      vertex 1.6736 -0.662623 10
      vertex 1.57735 -0.867156 0
      vertex 1.57735 -0.867156 10
    endloop
  endfacet
  facet normal -0.951059 0.309009 -7.11966e-21
    outer loop
      vertex 1.6736 -0.662623 0
      vertex 1.74345 -0.447641 10
      vertex 1.74345 -0.447641 0
    endloop
  endfacet
  facet normal -0.951059 0.309009 -7.11966e-21
    outer loop
      vertex 1.74345 -0.447641 10
      vertex 1.6736 -0.662623 0
      vertex 1.6736 -0.662623 10
    endloop
  endfacet
  facet normal -0.68455 0.728966 0
    outer loop
      vertex 1.31214 -1.23218 0
      vertex 1.14736 -1.38692 10
      vertex 1.31214 -1.23218 10
    endloop
  endfacet
  facet normal -0.68455 0.728966 0
    outer loop
      vertex 1.14736 -1.38692 10
      vertex 1.31214 -1.23218 0
      vertex 1.14736 -1.38692 0
    endloop
  endfacet
  facet normal -0.770504 0.637435 -4.3467e-19
    outer loop
      vertex 1.31214 -1.23218 0
      vertex 1.45623 -1.05801 10
      vertex 1.45623 -1.05801 0
    endloop
  endfacet
  facet normal -0.770504 0.637435 -4.3467e-19
    outer loop
      vertex 1.45623 -1.05801 10
      vertex 1.31214 -1.23218 0
      vertex 1.31214 -1.23218 10
    endloop
  endfacet
  facet normal -0.844327 0.535828 -6.8874e-19
    outer loop
      vertex 1.45623 -1.05801 0
      vertex 1.57735 -0.867156 10
      vertex 1.57735 -0.867156 0
    endloop
  endfacet
  facet normal -0.844327 0.535828 -6.8874e-19
    outer loop
      vertex 1.57735 -0.867156 10
      vertex 1.45623 -1.05801 0
      vertex 1.45623 -1.05801 10
    endloop
  endfacet
  facet normal 0.844327 0.535828 6.8874e-19
    outer loop
      vertex -1.45623 -1.05801 10
      vertex -1.57735 -0.867156 0
      vertex -1.57735 -0.867156 10
    endloop
  endfacet
  facet normal 0.844327 0.535828 6.8874e-19
    outer loop
      vertex -1.57735 -0.867156 0
      vertex -1.45623 -1.05801 10
      vertex -1.45623 -1.05801 0
    endloop
  endfacet
  facet normal -0.248708 0.968578 0
    outer loop
      vertex 0.556231 -1.7119 0
      vertex 0.337286 -1.76812 10
      vertex 0.556231 -1.7119 10
    endloop
  endfacet
  facet normal -0.248708 0.968578 0
    outer loop
      vertex 0.337286 -1.76812 10
      vertex 0.556231 -1.7119 0
      vertex 0.337286 -1.76812 0
    endloop
  endfacet
  facet normal -0.587802 0.809005 0
    outer loop
      vertex 1.14736 -1.38692 0
      vertex 0.964488 -1.51979 10
      vertex 1.14736 -1.38692 10
    endloop
  endfacet
  facet normal -0.587802 0.809005 0
    outer loop
      vertex 0.964488 -1.51979 10
      vertex 1.14736 -1.38692 0
      vertex 0.964488 -1.51979 0
    endloop
  endfacet
  facet normal -0.481758 0.876304 0
    outer loop
      vertex 0.964488 -1.51979 0
      vertex 0.766402 -1.62869 10
      vertex 0.964488 -1.51979 10
    endloop
  endfacet
  facet normal -0.481758 0.876304 0
    outer loop
      vertex 0.766402 -1.62869 10
      vertex 0.964488 -1.51979 0
      vertex 0.766402 -1.62869 0
    endloop
  endfacet
  facet normal 0.587802 0.809005 -0
    outer loop
      vertex -0.964488 -1.51979 0
      vertex -1.14736 -1.38692 10
      vertex -0.964488 -1.51979 10
    endloop
  endfacet
  facet normal 0.587802 0.809005 0
    outer loop
      vertex -1.14736 -1.38692 10
      vertex -0.964488 -1.51979 0
      vertex -1.14736 -1.38692 0
    endloop
  endfacet
  facet normal 0.248708 0.968578 -0
    outer loop
      vertex -0.337286 -1.76812 0
      vertex -0.556231 -1.7119 10
      vertex -0.337286 -1.76812 10
    endloop
  endfacet
  facet normal 0.248708 0.968578 0
    outer loop
      vertex -0.556231 -1.7119 10
      vertex -0.337286 -1.76812 0
      vertex -0.556231 -1.7119 0
    endloop
  endfacet
  facet normal 0.125329 0.992115 -0
    outer loop
      vertex -0.113023 -1.79645 0
      vertex -0.337286 -1.76812 10
      vertex -0.113023 -1.79645 10
    endloop
  endfacet
  facet normal 0.125329 0.992115 0
    outer loop
      vertex -0.337286 -1.76812 10
      vertex -0.113023 -1.79645 0
      vertex -0.337286 -1.76812 0
    endloop
  endfacet
  facet normal 0.68455 0.728966 -0
    outer loop
      vertex -1.14736 -1.38692 0
      vertex -1.31214 -1.23218 10
      vertex -1.14736 -1.38692 10
    endloop
  endfacet
  facet normal 0.68455 0.728966 0
    outer loop
      vertex -1.31214 -1.23218 10
      vertex -1.14736 -1.38692 0
      vertex -1.31214 -1.23218 0
    endloop
  endfacet
  facet normal 0.982285 0.187395 -2.2408e-19
    outer loop
      vertex -1.74345 -0.447641 10
      vertex -1.78581 -0.225599 0
      vertex -1.78581 -0.225599 10
    endloop
  endfacet
  facet normal 0.982285 0.187395 -2.2408e-19
    outer loop
      vertex -1.78581 -0.225599 0
      vertex -1.74345 -0.447641 10
      vertex -1.74345 -0.447641 0
    endloop
  endfacet
  facet normal 0.998028 0.0627752 4.87135e-20
    outer loop
      vertex -1.78581 -0.225599 10
      vertex -1.8 0 0
      vertex -1.8 0 10
    endloop
  endfacet
  facet normal 0.998028 0.0627752 4.87135e-20
    outer loop
      vertex -1.8 0 0
      vertex -1.78581 -0.225599 10
      vertex -1.78581 -0.225599 0
    endloop
  endfacet
  facet normal 0.481758 0.876304 -0
    outer loop
      vertex -0.766402 -1.62869 0
      vertex -0.964488 -1.51979 10
      vertex -0.766402 -1.62869 10
    endloop
  endfacet
  facet normal 0.481758 0.876304 0
    outer loop
      vertex -0.964488 -1.51979 10
      vertex -0.766402 -1.62869 0
      vertex -0.964488 -1.51979 0
    endloop
  endfacet
  facet normal 0.368115 0.92978 -0
    outer loop
      vertex -0.556231 -1.7119 0
      vertex -0.766402 -1.62869 10
      vertex -0.556231 -1.7119 10
    endloop
  endfacet
  facet normal 0.368115 0.92978 0
    outer loop
      vertex -0.766402 -1.62869 10
      vertex -0.556231 -1.7119 0
      vertex -0.766402 -1.62869 0
    endloop
  endfacet
  facet normal 0.770504 0.637435 4.3467e-19
    outer loop
      vertex -1.31214 -1.23218 10
      vertex -1.45623 -1.05801 0
      vertex -1.45623 -1.05801 10
    endloop
  endfacet
  facet normal 0.770504 0.637435 4.3467e-19
    outer loop
      vertex -1.45623 -1.05801 0
      vertex -1.31214 -1.23218 10
      vertex -1.31214 -1.23218 0
    endloop
  endfacet
endsolid OpenSCAD_Model
