solid OpenSCAD_Model
  facet normal 0.998025 0.0628106 0
    outer loop
      vertex 10.7 0 4
      vertex 10.6156 1.34107 0
      vertex 10.6156 1.34107 4
    endloop
  endfacet
  facet normal 0.998025 0.0628106 0
    outer loop
      vertex 10.6156 1.34107 0
      vertex 10.7 0 4
      vertex 10.7 0 0
    endloop
  endfacet
  facet normal -0.998025 0.0628106 0
    outer loop
      vertex -10.7 0 0
      vertex -10.6156 1.34107 4
      vertex -10.6156 1.34107 0
    endloop
  endfacet
  facet normal -0.998025 0.0628106 0
    outer loop
      vertex -10.6156 1.34107 4
      vertex -10.7 0 0
      vertex -10.7 0 4
    endloop
  endfacet
  facet normal 0 1 -0
    outer loop
      vertex 0.671858 10.6789 0
      vertex -0.671858 10.6789 4
      vertex 0.671858 10.6789 4
    endloop
  endfacet
  facet normal 0 1 0
    outer loop
      vertex -0.671858 10.6789 4
      vertex 0.671858 10.6789 0
      vertex -0.671858 10.6789 0
    endloop
  endfacet
  facet normal 0 -1 0
    outer loop
      vertex -0.671858 -10.6789 0
      vertex 0.671858 -10.6789 4
      vertex -0.671858 -10.6789 4
    endloop
  endfacet
  facet normal 0 -1 -0
    outer loop
      vertex 0.671858 -10.6789 4
      vertex -0.671858 -10.6789 0
      vertex 0.671858 -10.6789 0
    endloop
  endfacet
  facet normal 0.684551 0.728965 -0
    outer loop
      vertex 7.79996 7.32465 0
      vertex 6.82044 8.24449 4
      vertex 7.79996 7.32465 4
    endloop
  endfacet
  facet normal 0.684551 0.728965 0
    outer loop
      vertex 6.82044 8.24449 4
      vertex 7.79996 7.32465 0
      vertex 6.82044 8.24449 0
    endloop
  endfacet
  facet normal -0.684551 0.728965 0
    outer loop
      vertex -6.82044 8.24449 0
      vertex -7.79996 7.32465 4
      vertex -6.82044 8.24449 4
    endloop
  endfacet
  facet normal -0.684551 0.728965 0
    outer loop
      vertex -7.79996 7.32465 4
      vertex -6.82044 8.24449 0
      vertex -7.79996 7.32465 0
    endloop
  endfacet
  facet normal -0.36812 0.929778 0
    outer loop
      vertex -3.30648 10.1763 0
      vertex -4.55584 9.68165 4
      vertex -3.30648 10.1763 4
    endloop
  endfacet
  facet normal -0.36812 0.929778 0
    outer loop
      vertex -4.55584 9.68165 4
      vertex -3.30648 10.1763 0
      vertex -4.55584 9.68165 0
    endloop
  endfacet
  facet normal 0.904826 0.425782 0
    outer loop
      vertex 9.94861 3.93893 4
      vertex 9.37648 5.15476 0
      vertex 9.37648 5.15476 4
    endloop
  endfacet
  facet normal 0.904826 0.425782 0
    outer loop
      vertex 9.37648 5.15476 0
      vertex 9.94861 3.93893 4
      vertex 9.94861 3.93893 0
    endloop
  endfacet
  facet normal 0.844328 0.535826 0
    outer loop
      vertex 9.37648 5.15476 4
      vertex 8.65648 6.2893 0
      vertex 8.65648 6.2893 4
    endloop
  endfacet
  facet normal 0.844328 0.535826 0
    outer loop
      vertex 8.65648 6.2893 0
      vertex 9.37648 5.15476 4
      vertex 9.37648 5.15476 0
    endloop
  endfacet
  facet normal 0.36812 0.929778 -0
    outer loop
      vertex 4.55584 9.68165 0
      vertex 3.30648 10.1763 4
      vertex 4.55584 9.68165 4
    endloop
  endfacet
  facet normal 0.36812 0.929778 0
    outer loop
      vertex 3.30648 10.1763 4
      vertex 4.55584 9.68165 0
      vertex 3.30648 10.1763 0
    endloop
  endfacet
  facet normal 0.248712 0.968577 -0
    outer loop
      vertex 3.30648 10.1763 0
      vertex 2.00498 10.5105 4
      vertex 3.30648 10.1763 4
    endloop
  endfacet
  facet normal 0.248712 0.968577 0
    outer loop
      vertex 2.00498 10.5105 4
      vertex 3.30648 10.1763 0
      vertex 2.00498 10.5105 0
    endloop
  endfacet
  facet normal 0.481753 0.876307 -0
    outer loop
      vertex 5.73335 9.03431 0
      vertex 4.55584 9.68165 4
      vertex 5.73335 9.03431 4
    endloop
  endfacet
  facet normal 0.481753 0.876307 0
    outer loop
      vertex 4.55584 9.68165 4
      vertex 5.73335 9.03431 0
      vertex 4.55584 9.68165 0
    endloop
  endfacet
  facet normal -0.904826 0.425782 0
    outer loop
      vertex -9.94861 3.93893 0
      vertex -9.37648 5.15476 4
      vertex -9.37648 5.15476 0
    endloop
  endfacet
  facet normal -0.904826 0.425782 0
    outer loop
      vertex -9.37648 5.15476 4
      vertex -9.94861 3.93893 0
      vertex -9.94861 3.93893 4
    endloop
  endfacet
  facet normal -0.770512 0.637426 0
    outer loop
      vertex -8.65648 6.2893 0
      vertex -7.79996 7.32465 4
      vertex -7.79996 7.32465 0
    endloop
  endfacet
  facet normal -0.770512 0.637426 0
    outer loop
      vertex -7.79996 7.32465 4
      vertex -8.65648 6.2893 0
      vertex -8.65648 6.2893 4
    endloop
  endfacet
  facet normal 0 0 1
    outer loop
      vertex 7.5 0 4
      vertex 10.7 0 4
      vertex 10.6156 1.34107 4
    endloop
  endfacet
  facet normal 0 0 1
    outer loop
      vertex 7.44086 0.939999 4
      vertex 10.6156 1.34107 4
      vertex 10.3638 2.66098 4
    endloop
  endfacet
  facet normal 0 0 1
    outer loop
      vertex 10.7 0 4
      vertex 7.5 0 4
      vertex 10.6156 -1.34107 4
    endloop
  endfacet
  facet normal 0 0 1
    outer loop
      vertex 7.26437 1.86517 4
      vertex 10.3638 2.66098 4
      vertex 9.94861 3.93893 4
    endloop
  endfacet
  facet normal -0 0 1
    outer loop
      vertex 7.44086 -0.939999 4
      vertex 10.6156 -1.34107 4
      vertex 7.5 0 4
    endloop
  endfacet
  facet normal 0 0 1
    outer loop
      vertex 6.97332 2.76093 4
      vertex 9.94861 3.93893 4
      vertex 9.37648 5.15476 4
    endloop
  endfacet
  facet normal 0 0 1
    outer loop
      vertex 10.6156 -1.34107 4
      vertex 7.44086 -0.939999 4
      vertex 10.3638 -2.66098 4
    endloop
  endfacet
  facet normal 0 0 1
    outer loop
      vertex 6.5723 3.61315 4
      vertex 9.37648 5.15476 4
      vertex 8.65648 6.2893 4
    endloop
  endfacet
  facet normal -0 0 1
    outer loop
      vertex 7.26437 -1.86517 4
      vertex 10.3638 -2.66098 4
      vertex 7.44086 -0.939999 4
    endloop
  endfacet
  facet normal 0 0 1
    outer loop
      vertex 6.06763 4.40839 4
      vertex 8.65648 6.2893 4
      vertex 7.79996 7.32465 4
    endloop
  endfacet
  facet normal 0 0 1
    outer loop
      vertex 10.3638 -2.66098 4
      vertex 7.26437 -1.86517 4
      vertex 9.94861 -3.93893 4
    endloop
  endfacet
  facet normal -0 0 1
    outer loop
      vertex 6.97332 -2.76093 4
      vertex 9.94861 -3.93893 4
      vertex 7.26437 -1.86517 4
    endloop
  endfacet
  facet normal 0 0 1
    outer loop
      vertex 10.6156 1.34107 4
      vertex 7.44086 0.939999 4
      vertex 7.5 0 4
    endloop
  endfacet
  facet normal 0 0 1
    outer loop
      vertex 10.3638 2.66098 4
      vertex 7.26437 1.86517 4
      vertex 7.44086 0.939999 4
    endloop
  endfacet
  facet normal 0 0 1
    outer loop
      vertex 9.94861 3.93893 4
      vertex 6.97332 2.76093 4
      vertex 7.26437 1.86517 4
    endloop
  endfacet
  facet normal 0 0 1
    outer loop
      vertex 5.46726 5.1341 4
      vertex 7.79996 7.32465 4
      vertex 6.82044 8.24449 4
    endloop
  endfacet
  facet normal 0 0 1
    outer loop
      vertex 9.37648 5.15476 4
      vertex 6.5723 3.61315 4
      vertex 6.97332 2.76093 4
    endloop
  endfacet
  facet normal 0 0 1
    outer loop
      vertex 8.65648 6.2893 4
      vertex 6.06763 4.40839 4
      vertex 6.5723 3.61315 4
    endloop
  endfacet
  facet normal 0 0 1
    outer loop
      vertex 4.78068 5.77885 4
      vertex 6.82044 8.24449 4
      vertex 5.73335 9.03431 4
    endloop
  endfacet
  facet normal 0 0 1
    outer loop
      vertex 7.79996 7.32465 4
      vertex 5.46726 5.1341 4
      vertex 6.06763 4.40839 4
    endloop
  endfacet
  facet normal 0 0 1
    outer loop
      vertex 6.82044 8.24449 4
      vertex 4.78068 5.77885 4
      vertex 5.46726 5.1341 4
    endloop
  endfacet
  facet normal 0 0 1
    outer loop
      vertex 4.0187 6.33246 4
      vertex 5.73335 9.03431 4
      vertex 4.55584 9.68165 4
    endloop
  endfacet
  facet normal 0 0 1
    outer loop
      vertex 5.73335 9.03431 4
      vertex 4.0187 6.33246 4
      vertex 4.78068 5.77885 4
    endloop
  endfacet
  facet normal 0 0 1
    outer loop
      vertex 3.19334 6.7862 4
      vertex 4.55584 9.68165 4
      vertex 3.30648 10.1763 4
    endloop
  endfacet
  facet normal 0 0 1
    outer loop
      vertex 4.55584 9.68165 4
      vertex 3.19334 6.7862 4
      vertex 4.0187 6.33246 4
    endloop
  endfacet
  facet normal 0 0 1
    outer loop
      vertex 3.30648 10.1763 4
      vertex 2.31763 7.13292 4
      vertex 3.19334 6.7862 4
    endloop
  endfacet
  facet normal 0 0 1
    outer loop
      vertex 2.00498 10.5105 4
      vertex 2.31763 7.13292 4
      vertex 3.30648 10.1763 4
    endloop
  endfacet
  facet normal 0 0 1
    outer loop
      vertex 2.00498 10.5105 4
      vertex 1.40536 7.36715 4
      vertex 2.31763 7.13292 4
    endloop
  endfacet
  facet normal 0 0 1
    outer loop
      vertex 0.671858 10.6789 4
      vertex 1.40536 7.36715 4
      vertex 2.00498 10.5105 4
    endloop
  endfacet
  facet normal 0 0 1
    outer loop
      vertex 0.671858 10.6789 4
      vertex 0.470928 7.4852 4
      vertex 1.40536 7.36715 4
    endloop
  endfacet
  facet normal 0 0 1
    outer loop
      vertex 0.671858 10.6789 4
      vertex -0.470928 7.4852 4
      vertex 0.470928 7.4852 4
    endloop
  endfacet
  facet normal -0 0 1
    outer loop
      vertex -0.671858 10.6789 4
      vertex -0.470928 7.4852 4
      vertex 0.671858 10.6789 4
    endloop
  endfacet
  facet normal 0 0 1
    outer loop
      vertex -0.671858 10.6789 4
      vertex -1.40536 7.36715 4
      vertex -0.470928 7.4852 4
    endloop
  endfacet
  facet normal -0 0 1
    outer loop
      vertex -2.00498 10.5105 4
      vertex -1.40536 7.36715 4
      vertex -0.671858 10.6789 4
    endloop
  endfacet
  facet normal 0 0 1
    outer loop
      vertex -2.00498 10.5105 4
      vertex -2.31763 7.13292 4
      vertex -1.40536 7.36715 4
    endloop
  endfacet
  facet normal -0 0 1
    outer loop
      vertex -3.30648 10.1763 4
      vertex -2.31763 7.13292 4
      vertex -2.00498 10.5105 4
    endloop
  endfacet
  facet normal 0 0 1
    outer loop
      vertex -2.31763 7.13292 4
      vertex -3.30648 10.1763 4
      vertex -3.19334 6.7862 4
    endloop
  endfacet
  facet normal -0 0 1
    outer loop
      vertex -4.55584 9.68165 4
      vertex -3.19334 6.7862 4
      vertex -3.30648 10.1763 4
    endloop
  endfacet
  facet normal 0 0 1
    outer loop
      vertex -3.19334 6.7862 4
      vertex -4.55584 9.68165 4
      vertex -4.0187 6.33246 4
    endloop
  endfacet
  facet normal -0 0 1
    outer loop
      vertex -5.73335 9.03431 4
      vertex -4.0187 6.33246 4
      vertex -4.55584 9.68165 4
    endloop
  endfacet
  facet normal 0 0 1
    outer loop
      vertex -4.0187 6.33246 4
      vertex -5.73335 9.03431 4
      vertex -4.78068 5.77885 4
    endloop
  endfacet
  facet normal -0 0 1
    outer loop
      vertex -6.82044 8.24449 4
      vertex -4.78068 5.77885 4
      vertex -5.73335 9.03431 4
    endloop
  endfacet
  facet normal 0 0 1
    outer loop
      vertex -4.78068 5.77885 4
      vertex -6.82044 8.24449 4
      vertex -5.46726 5.1341 4
    endloop
  endfacet
  facet normal -0 0 1
    outer loop
      vertex -7.79996 7.32465 4
      vertex -5.46726 5.1341 4
      vertex -6.82044 8.24449 4
    endloop
  endfacet
  facet normal 0 0 1
    outer loop
      vertex -5.46726 5.1341 4
      vertex -7.79996 7.32465 4
      vertex -6.06763 4.40839 4
    endloop
  endfacet
  facet normal -0 0 1
    outer loop
      vertex -8.65648 6.2893 4
      vertex -6.06763 4.40839 4
      vertex -7.79996 7.32465 4
    endloop
  endfacet
  facet normal 0 0 1
    outer loop
      vertex -6.06763 4.40839 4
      vertex -8.65648 6.2893 4
      vertex -6.5723 3.61315 4
    endloop
  endfacet
  facet normal -0 0 1
    outer loop
      vertex -9.37648 5.15476 4
      vertex -6.5723 3.61315 4
      vertex -8.65648 6.2893 4
    endloop
  endfacet
  facet normal -0 0 1
    outer loop
      vertex -9.94861 3.93893 4
      vertex -6.97332 2.76093 4
      vertex -9.37648 5.15476 4
    endloop
  endfacet
  facet normal 0 0 1
    outer loop
      vertex -6.5723 3.61315 4
      vertex -9.37648 5.15476 4
      vertex -6.97332 2.76093 4
    endloop
  endfacet
  facet normal 0 0 1
    outer loop
      vertex 9.94861 -3.93893 4
      vertex 6.97332 -2.76093 4
      vertex 9.37648 -5.15476 4
    endloop
  endfacet
  facet normal -0 0 1
    outer loop
      vertex 6.5723 -3.61315 4
      vertex 9.37648 -5.15476 4
      vertex 6.97332 -2.76093 4
    endloop
  endfacet
  facet normal 0 0 1
    outer loop
      vertex 9.37648 -5.15476 4
      vertex 6.5723 -3.61315 4
      vertex 8.65648 -6.2893 4
    endloop
  endfacet
  facet normal -0 0 1
    outer loop
      vertex 6.06763 -4.40839 4
      vertex 8.65648 -6.2893 4
      vertex 6.5723 -3.61315 4
    endloop
  endfacet
  facet normal 0 0 1
    outer loop
      vertex 8.65648 -6.2893 4
      vertex 6.06763 -4.40839 4
      vertex 7.79996 -7.32465 4
    endloop
  endfacet
  facet normal -0 0 1
    outer loop
      vertex 5.46726 -5.1341 4
      vertex 7.79996 -7.32465 4
      vertex 6.06763 -4.40839 4
    endloop
  endfacet
  facet normal 0 0 1
    outer loop
      vertex 7.79996 -7.32465 4
      vertex 5.46726 -5.1341 4
      vertex 6.82044 -8.24449 4
    endloop
  endfacet
  facet normal -0 0 1
    outer loop
      vertex 4.78068 -5.77885 4
      vertex 6.82044 -8.24449 4
      vertex 5.46726 -5.1341 4
    endloop
  endfacet
  facet normal 0 0 1
    outer loop
      vertex 6.82044 -8.24449 4
      vertex 4.78068 -5.77885 4
      vertex 5.73335 -9.03431 4
    endloop
  endfacet
  facet normal -0 0 1
    outer loop
      vertex 4.0187 -6.33246 4
      vertex 5.73335 -9.03431 4
      vertex 4.78068 -5.77885 4
    endloop
  endfacet
  facet normal 0 0 1
    outer loop
      vertex 5.73335 -9.03431 4
      vertex 4.0187 -6.33246 4
      vertex 4.55584 -9.68165 4
    endloop
  endfacet
  facet normal -0 0 1
    outer loop
      vertex 3.19334 -6.7862 4
      vertex 4.55584 -9.68165 4
      vertex 4.0187 -6.33246 4
    endloop
  endfacet
  facet normal 0 0 1
    outer loop
      vertex 4.55584 -9.68165 4
      vertex 3.19334 -6.7862 4
      vertex 3.30648 -10.1763 4
    endloop
  endfacet
  facet normal -0 0 1
    outer loop
      vertex 2.31763 -7.13292 4
      vertex 3.30648 -10.1763 4
      vertex 3.19334 -6.7862 4
    endloop
  endfacet
  facet normal 0 0 1
    outer loop
      vertex 2.31763 -7.13292 4
      vertex 2.00498 -10.5105 4
      vertex 3.30648 -10.1763 4
    endloop
  endfacet
  facet normal -0 0 1
    outer loop
      vertex 1.40536 -7.36715 4
      vertex 2.00498 -10.5105 4
      vertex 2.31763 -7.13292 4
    endloop
  endfacet
  facet normal 0 0 1
    outer loop
      vertex 1.40536 -7.36715 4
      vertex 0.671858 -10.6789 4
      vertex 2.00498 -10.5105 4
    endloop
  endfacet
  facet normal -0 0 1
    outer loop
      vertex 0.470928 -7.4852 4
      vertex 0.671858 -10.6789 4
      vertex 1.40536 -7.36715 4
    endloop
  endfacet
  facet normal -0 0 1
    outer loop
      vertex -0.470928 -7.4852 4
      vertex 0.671858 -10.6789 4
      vertex 0.470928 -7.4852 4
    endloop
  endfacet
  facet normal 0 0 1
    outer loop
      vertex -0.470928 -7.4852 4
      vertex -0.671858 -10.6789 4
      vertex 0.671858 -10.6789 4
    endloop
  endfacet
  facet normal 0 0 1
    outer loop
      vertex -1.40536 -7.36715 4
      vertex -0.671858 -10.6789 4
      vertex -0.470928 -7.4852 4
    endloop
  endfacet
  facet normal 0 0 1
    outer loop
      vertex -1.40536 -7.36715 4
      vertex -2.00498 -10.5105 4
      vertex -0.671858 -10.6789 4
    endloop
  endfacet
  facet normal 0 0 1
    outer loop
      vertex -2.31763 -7.13292 4
      vertex -2.00498 -10.5105 4
      vertex -1.40536 -7.36715 4
    endloop
  endfacet
  facet normal 0 0 1
    outer loop
      vertex -3.30648 -10.1763 4
      vertex -2.31763 -7.13292 4
      vertex -3.19334 -6.7862 4
    endloop
  endfacet
  facet normal 0 0 1
    outer loop
      vertex -2.31763 -7.13292 4
      vertex -3.30648 -10.1763 4
      vertex -2.00498 -10.5105 4
    endloop
  endfacet
  facet normal 0 0 1
    outer loop
      vertex -4.55584 -9.68165 4
      vertex -3.19334 -6.7862 4
      vertex -4.0187 -6.33246 4
    endloop
  endfacet
  facet normal 0 0 1
    outer loop
      vertex -3.19334 -6.7862 4
      vertex -4.55584 -9.68165 4
      vertex -3.30648 -10.1763 4
    endloop
  endfacet
  facet normal 0 0 1
    outer loop
      vertex -5.73335 -9.03431 4
      vertex -4.0187 -6.33246 4
      vertex -4.78068 -5.77885 4
    endloop
  endfacet
  facet normal 0 0 1
    outer loop
      vertex -6.82044 -8.24449 4
      vertex -4.78068 -5.77885 4
      vertex -5.46726 -5.1341 4
    endloop
  endfacet
  facet normal 0 0 1
    outer loop
      vertex -4.0187 -6.33246 4
      vertex -5.73335 -9.03431 4
      vertex -4.55584 -9.68165 4
    endloop
  endfacet
  facet normal 0 0 1
    outer loop
      vertex -7.79996 -7.32465 4
      vertex -5.46726 -5.1341 4
      vertex -6.06763 -4.40839 4
    endloop
  endfacet
  facet normal 0 0 1
    outer loop
      vertex -8.65648 -6.2893 4
      vertex -6.06763 -4.40839 4
      vertex -6.5723 -3.61315 4
    endloop
  endfacet
  facet normal 0 0 1
    outer loop
      vertex -4.78068 -5.77885 4
      vertex -6.82044 -8.24449 4
      vertex -5.73335 -9.03431 4
    endloop
  endfacet
  facet normal 0 0 1
    outer loop
      vertex -9.37648 -5.15476 4
      vertex -6.5723 -3.61315 4
      vertex -6.97332 -2.76093 4
    endloop
  endfacet
  facet normal 0 0 1
    outer loop
      vertex -9.94861 -3.93893 4
      vertex -6.97332 -2.76093 4
      vertex -7.26437 -1.86517 4
    endloop
  endfacet
  facet normal 0 0 1
    outer loop
      vertex -10.3638 -2.66098 4
      vertex -7.26437 -1.86517 4
      vertex -7.44086 -0.939999 4
    endloop
  endfacet
  facet normal 0 0 1
    outer loop
      vertex -5.46726 -5.1341 4
      vertex -7.79996 -7.32465 4
      vertex -6.82044 -8.24449 4
    endloop
  endfacet
  facet normal 0 0 1
    outer loop
      vertex -10.6156 -1.34107 4
      vertex -7.44086 -0.939999 4
      vertex -7.5 0 4
    endloop
  endfacet
  facet normal 0 0 1
    outer loop
      vertex -6.97332 2.76093 4
      vertex -9.94861 3.93893 4
      vertex -7.26437 1.86517 4
    endloop
  endfacet
  facet normal -0 0 1
    outer loop
      vertex -10.3638 2.66098 4
      vertex -7.26437 1.86517 4
      vertex -9.94861 3.93893 4
    endloop
  endfacet
  facet normal 0 0 1
    outer loop
      vertex -6.06763 -4.40839 4
      vertex -8.65648 -6.2893 4
      vertex -7.79996 -7.32465 4
    endloop
  endfacet
  facet normal 0 0 1
    outer loop
      vertex -7.26437 1.86517 4
      vertex -10.3638 2.66098 4
      vertex -7.44086 0.939999 4
    endloop
  endfacet
  facet normal 0 0 1
    outer loop
      vertex -6.5723 -3.61315 4
      vertex -9.37648 -5.15476 4
      vertex -8.65648 -6.2893 4
    endloop
  endfacet
  facet normal -0 0 1
    outer loop
      vertex -10.6156 1.34107 4
      vertex -7.44086 0.939999 4
      vertex -10.3638 2.66098 4
    endloop
  endfacet
  facet normal 0 0 1
    outer loop
      vertex -6.97332 -2.76093 4
      vertex -9.94861 -3.93893 4
      vertex -9.37648 -5.15476 4
    endloop
  endfacet
  facet normal 0 0 1
    outer loop
      vertex -7.44086 0.939999 4
      vertex -10.6156 1.34107 4
      vertex -7.5 0 4
    endloop
  endfacet
  facet normal 0 0 1
    outer loop
      vertex -7.26437 -1.86517 4
      vertex -10.3638 -2.66098 4
      vertex -9.94861 -3.93893 4
    endloop
  endfacet
  facet normal 0 0 1
    outer loop
      vertex -10.7 0 4
      vertex -7.5 0 4
      vertex -10.6156 1.34107 4
    endloop
  endfacet
  facet normal 0 0 1
    outer loop
      vertex -7.44086 -0.939999 4
      vertex -10.6156 -1.34107 4
      vertex -10.3638 -2.66098 4
    endloop
  endfacet
  facet normal 0 0 1
    outer loop
      vertex -7.5 0 4
      vertex -10.7 0 4
      vertex -10.6156 -1.34107 4
    endloop
  endfacet
  facet normal -0.125324 0.992116 0
    outer loop
      vertex -0.671858 10.6789 0
      vertex -2.00498 10.5105 4
      vertex -0.671858 10.6789 4
    endloop
  endfacet
  facet normal -0.125324 0.992116 0
    outer loop
      vertex -2.00498 10.5105 4
      vertex -0.671858 10.6789 0
      vertex -2.00498 10.5105 0
    endloop
  endfacet
  facet normal 0 0 -1
    outer loop
      vertex 7.5 0 0
      vertex 10.7 0 0
      vertex 10.6156 -1.34107 0
    endloop
  endfacet
  facet normal 0 0 -1
    outer loop
      vertex 7.44086 -0.939999 0
      vertex 10.6156 -1.34107 0
      vertex 10.3638 -2.66098 0
    endloop
  endfacet
  facet normal 0 0 -1
    outer loop
      vertex 10.7 0 0
      vertex 7.5 0 0
      vertex 10.6156 1.34107 0
    endloop
  endfacet
  facet normal 0 0 -1
    outer loop
      vertex 7.26437 -1.86517 0
      vertex 10.3638 -2.66098 0
      vertex 9.94861 -3.93893 0
    endloop
  endfacet
  facet normal 0 0 -1
    outer loop
      vertex 7.44086 0.939999 0
      vertex 10.6156 1.34107 0
      vertex 7.5 0 0
    endloop
  endfacet
  facet normal 0 0 -1
    outer loop
      vertex 6.97332 -2.76093 0
      vertex 9.94861 -3.93893 0
      vertex 9.37648 -5.15476 0
    endloop
  endfacet
  facet normal -0 0 -1
    outer loop
      vertex 10.6156 1.34107 0
      vertex 7.44086 0.939999 0
      vertex 10.3638 2.66098 0
    endloop
  endfacet
  facet normal 0 0 -1
    outer loop
      vertex 6.5723 -3.61315 0
      vertex 9.37648 -5.15476 0
      vertex 8.65648 -6.2893 0
    endloop
  endfacet
  facet normal 0 0 -1
    outer loop
      vertex 7.26437 1.86517 0
      vertex 10.3638 2.66098 0
      vertex 7.44086 0.939999 0
    endloop
  endfacet
  facet normal 0 0 -1
    outer loop
      vertex 6.06763 -4.40839 0
      vertex 8.65648 -6.2893 0
      vertex 7.79996 -7.32465 0
    endloop
  endfacet
  facet normal -0 0 -1
    outer loop
      vertex 10.3638 2.66098 0
      vertex 7.26437 1.86517 0
      vertex 9.94861 3.93893 0
    endloop
  endfacet
  facet normal 0 0 -1
    outer loop
      vertex 6.97332 2.76093 0
      vertex 9.94861 3.93893 0
      vertex 7.26437 1.86517 0
    endloop
  endfacet
  facet normal 0 0 -1
    outer loop
      vertex 10.6156 -1.34107 0
      vertex 7.44086 -0.939999 0
      vertex 7.5 0 0
    endloop
  endfacet
  facet normal 0 0 -1
    outer loop
      vertex 10.3638 -2.66098 0
      vertex 7.26437 -1.86517 0
      vertex 7.44086 -0.939999 0
    endloop
  endfacet
  facet normal 0 0 -1
    outer loop
      vertex 9.94861 -3.93893 0
      vertex 6.97332 -2.76093 0
      vertex 7.26437 -1.86517 0
    endloop
  endfacet
  facet normal 0 0 -1
    outer loop
      vertex 5.46726 -5.1341 0
      vertex 7.79996 -7.32465 0
      vertex 6.82044 -8.24449 0
    endloop
  endfacet
  facet normal 0 0 -1
    outer loop
      vertex 9.37648 -5.15476 0
      vertex 6.5723 -3.61315 0
      vertex 6.97332 -2.76093 0
    endloop
  endfacet
  facet normal 0 0 -1
    outer loop
      vertex 8.65648 -6.2893 0
      vertex 6.06763 -4.40839 0
      vertex 6.5723 -3.61315 0
    endloop
  endfacet
  facet normal 0 0 -1
    outer loop
      vertex 4.78068 -5.77885 0
      vertex 6.82044 -8.24449 0
      vertex 5.73335 -9.03431 0
    endloop
  endfacet
  facet normal 0 0 -1
    outer loop
      vertex 7.79996 -7.32465 0
      vertex 5.46726 -5.1341 0
      vertex 6.06763 -4.40839 0
    endloop
  endfacet
  facet normal 0 0 -1
    outer loop
      vertex 6.82044 -8.24449 0
      vertex 4.78068 -5.77885 0
      vertex 5.46726 -5.1341 0
    endloop
  endfacet
  facet normal 0 0 -1
    outer loop
      vertex 4.0187 -6.33246 0
      vertex 5.73335 -9.03431 0
      vertex 4.55584 -9.68165 0
    endloop
  endfacet
  facet normal 0 0 -1
    outer loop
      vertex 5.73335 -9.03431 0
      vertex 4.0187 -6.33246 0
      vertex 4.78068 -5.77885 0
    endloop
  endfacet
  facet normal 0 0 -1
    outer loop
      vertex 3.19334 -6.7862 0
      vertex 4.55584 -9.68165 0
      vertex 3.30648 -10.1763 0
    endloop
  endfacet
  facet normal 0 0 -1
    outer loop
      vertex 4.55584 -9.68165 0
      vertex 3.19334 -6.7862 0
      vertex 4.0187 -6.33246 0
    endloop
  endfacet
  facet normal 0 0 -1
    outer loop
      vertex 3.30648 -10.1763 0
      vertex 2.31763 -7.13292 0
      vertex 3.19334 -6.7862 0
    endloop
  endfacet
  facet normal 0 0 -1
    outer loop
      vertex 2.00498 -10.5105 0
      vertex 2.31763 -7.13292 0
      vertex 3.30648 -10.1763 0
    endloop
  endfacet
  facet normal 0 0 -1
    outer loop
      vertex 2.00498 -10.5105 0
      vertex 1.40536 -7.36715 0
      vertex 2.31763 -7.13292 0
    endloop
  endfacet
  facet normal 0 0 -1
    outer loop
      vertex 0.671858 -10.6789 0
      vertex 1.40536 -7.36715 0
      vertex 2.00498 -10.5105 0
    endloop
  endfacet
  facet normal 0 0 -1
    outer loop
      vertex 0.671858 -10.6789 0
      vertex 0.470928 -7.4852 0
      vertex 1.40536 -7.36715 0
    endloop
  endfacet
  facet normal 0 0 -1
    outer loop
      vertex 0.671858 -10.6789 0
      vertex -0.470928 -7.4852 0
      vertex 0.470928 -7.4852 0
    endloop
  endfacet
  facet normal 0 0 -1
    outer loop
      vertex -0.671858 -10.6789 0
      vertex -0.470928 -7.4852 0
      vertex 0.671858 -10.6789 0
    endloop
  endfacet
  facet normal 0 0 -1
    outer loop
      vertex -0.671858 -10.6789 0
      vertex -1.40536 -7.36715 0
      vertex -0.470928 -7.4852 0
    endloop
  endfacet
  facet normal 0 0 -1
    outer loop
      vertex -2.00498 -10.5105 0
      vertex -1.40536 -7.36715 0
      vertex -0.671858 -10.6789 0
    endloop
  endfacet
  facet normal 0 0 -1
    outer loop
      vertex -2.00498 -10.5105 0
      vertex -2.31763 -7.13292 0
      vertex -1.40536 -7.36715 0
    endloop
  endfacet
  facet normal 0 0 -1
    outer loop
      vertex -3.30648 -10.1763 0
      vertex -2.31763 -7.13292 0
      vertex -2.00498 -10.5105 0
    endloop
  endfacet
  facet normal -0 0 -1
    outer loop
      vertex -2.31763 -7.13292 0
      vertex -3.30648 -10.1763 0
      vertex -3.19334 -6.7862 0
    endloop
  endfacet
  facet normal 0 0 -1
    outer loop
      vertex -4.55584 -9.68165 0
      vertex -3.19334 -6.7862 0
      vertex -3.30648 -10.1763 0
    endloop
  endfacet
  facet normal -0 0 -1
    outer loop
      vertex -3.19334 -6.7862 0
      vertex -4.55584 -9.68165 0
      vertex -4.0187 -6.33246 0
    endloop
  endfacet
  facet normal 0 0 -1
    outer loop
      vertex -5.73335 -9.03431 0
      vertex -4.0187 -6.33246 0
      vertex -4.55584 -9.68165 0
    endloop
  endfacet
  facet normal -0 0 -1
    outer loop
      vertex -4.0187 -6.33246 0
      vertex -5.73335 -9.03431 0
      vertex -4.78068 -5.77885 0
    endloop
  endfacet
  facet normal 0 0 -1
    outer loop
      vertex -6.82044 -8.24449 0
      vertex -4.78068 -5.77885 0
      vertex -5.73335 -9.03431 0
    endloop
  endfacet
  facet normal -0 0 -1
    outer loop
      vertex -4.78068 -5.77885 0
      vertex -6.82044 -8.24449 0
      vertex -5.46726 -5.1341 0
    endloop
  endfacet
  facet normal 0 0 -1
    outer loop
      vertex -7.79996 -7.32465 0
      vertex -5.46726 -5.1341 0
      vertex -6.82044 -8.24449 0
    endloop
  endfacet
  facet normal -0 0 -1
    outer loop
      vertex -5.46726 -5.1341 0
      vertex -7.79996 -7.32465 0
      vertex -6.06763 -4.40839 0
    endloop
  endfacet
  facet normal 0 0 -1
    outer loop
      vertex -8.65648 -6.2893 0
      vertex -6.06763 -4.40839 0
      vertex -7.79996 -7.32465 0
    endloop
  endfacet
  facet normal -0 0 -1
    outer loop
      vertex -6.06763 -4.40839 0
      vertex -8.65648 -6.2893 0
      vertex -6.5723 -3.61315 0
    endloop
  endfacet
  facet normal 0 0 -1
    outer loop
      vertex -9.37648 -5.15476 0
      vertex -6.5723 -3.61315 0
      vertex -8.65648 -6.2893 0
    endloop
  endfacet
  facet normal 0 0 -1
    outer loop
      vertex -9.94861 -3.93893 0
      vertex -6.97332 -2.76093 0
      vertex -9.37648 -5.15476 0
    endloop
  endfacet
  facet normal -0 0 -1
    outer loop
      vertex -6.5723 -3.61315 0
      vertex -9.37648 -5.15476 0
      vertex -6.97332 -2.76093 0
    endloop
  endfacet
  facet normal -0 0 -1
    outer loop
      vertex 9.94861 3.93893 0
      vertex 6.97332 2.76093 0
      vertex 9.37648 5.15476 0
    endloop
  endfacet
  facet normal 0 0 -1
    outer loop
      vertex 6.5723 3.61315 0
      vertex 9.37648 5.15476 0
      vertex 6.97332 2.76093 0
    endloop
  endfacet
  facet normal -0 0 -1
    outer loop
      vertex 9.37648 5.15476 0
      vertex 6.5723 3.61315 0
      vertex 8.65648 6.2893 0
    endloop
  endfacet
  facet normal 0 0 -1
    outer loop
      vertex 6.06763 4.40839 0
      vertex 8.65648 6.2893 0
      vertex 6.5723 3.61315 0
    endloop
  endfacet
  facet normal -0 0 -1
    outer loop
      vertex 8.65648 6.2893 0
      vertex 6.06763 4.40839 0
      vertex 7.79996 7.32465 0
    endloop
  endfacet
  facet normal 0 0 -1
    outer loop
      vertex 5.46726 5.1341 0
      vertex 7.79996 7.32465 0
      vertex 6.06763 4.40839 0
    endloop
  endfacet
  facet normal -0 0 -1
    outer loop
      vertex 7.79996 7.32465 0
      vertex 5.46726 5.1341 0
      vertex 6.82044 8.24449 0
    endloop
  endfacet
  facet normal 0 0 -1
    outer loop
      vertex 4.78068 5.77885 0
      vertex 6.82044 8.24449 0
      vertex 5.46726 5.1341 0
    endloop
  endfacet
  facet normal -0 0 -1
    outer loop
      vertex 6.82044 8.24449 0
      vertex 4.78068 5.77885 0
      vertex 5.73335 9.03431 0
    endloop
  endfacet
  facet normal 0 0 -1
    outer loop
      vertex 4.0187 6.33246 0
      vertex 5.73335 9.03431 0
      vertex 4.78068 5.77885 0
    endloop
  endfacet
  facet normal -0 0 -1
    outer loop
      vertex 5.73335 9.03431 0
      vertex 4.0187 6.33246 0
      vertex 4.55584 9.68165 0
    endloop
  endfacet
  facet normal 0 0 -1
    outer loop
      vertex 3.19334 6.7862 0
      vertex 4.55584 9.68165 0
      vertex 4.0187 6.33246 0
    endloop
  endfacet
  facet normal -0 0 -1
    outer loop
      vertex 4.55584 9.68165 0
      vertex 3.19334 6.7862 0
      vertex 3.30648 10.1763 0
    endloop
  endfacet
  facet normal 0 0 -1
    outer loop
      vertex 2.31763 7.13292 0
      vertex 3.30648 10.1763 0
      vertex 3.19334 6.7862 0
    endloop
  endfacet
  facet normal 0 0 -1
    outer loop
      vertex 2.31763 7.13292 0
      vertex 2.00498 10.5105 0
      vertex 3.30648 10.1763 0
    endloop
  endfacet
  facet normal 0 0 -1
    outer loop
      vertex 1.40536 7.36715 0
      vertex 2.00498 10.5105 0
      vertex 2.31763 7.13292 0
    endloop
  endfacet
  facet normal 0 0 -1
    outer loop
      vertex 1.40536 7.36715 0
      vertex 0.671858 10.6789 0
      vertex 2.00498 10.5105 0
    endloop
  endfacet
  facet normal 0 0 -1
    outer loop
      vertex 0.470928 7.4852 0
      vertex 0.671858 10.6789 0
      vertex 1.40536 7.36715 0
    endloop
  endfacet
  facet normal 0 0 -1
    outer loop
      vertex -0.470928 7.4852 0
      vertex 0.671858 10.6789 0
      vertex 0.470928 7.4852 0
    endloop
  endfacet
  facet normal 0 0 -1
    outer loop
      vertex -0.470928 7.4852 0
      vertex -0.671858 10.6789 0
      vertex 0.671858 10.6789 0
    endloop
  endfacet
  facet normal 0 0 -1
    outer loop
      vertex -1.40536 7.36715 0
      vertex -0.671858 10.6789 0
      vertex -0.470928 7.4852 0
    endloop
  endfacet
  facet normal 0 0 -1
    outer loop
      vertex -1.40536 7.36715 0
      vertex -2.00498 10.5105 0
      vertex -0.671858 10.6789 0
    endloop
  endfacet
  facet normal 0 0 -1
    outer loop
      vertex -2.31763 7.13292 0
      vertex -2.00498 10.5105 0
      vertex -1.40536 7.36715 0
    endloop
  endfacet
  facet normal 0 0 -1
    outer loop
      vertex -3.30648 10.1763 0
      vertex -2.31763 7.13292 0
      vertex -3.19334 6.7862 0
    endloop
  endfacet
  facet normal 0 0 -1
    outer loop
      vertex -2.31763 7.13292 0
      vertex -3.30648 10.1763 0
      vertex -2.00498 10.5105 0
    endloop
  endfacet
  facet normal 0 0 -1
    outer loop
      vertex -4.55584 9.68165 0
      vertex -3.19334 6.7862 0
      vertex -4.0187 6.33246 0
    endloop
  endfacet
  facet normal 0 0 -1
    outer loop
      vertex -3.19334 6.7862 0
      vertex -4.55584 9.68165 0
      vertex -3.30648 10.1763 0
    endloop
  endfacet
  facet normal 0 0 -1
    outer loop
      vertex -5.73335 9.03431 0
      vertex -4.0187 6.33246 0
      vertex -4.78068 5.77885 0
    endloop
  endfacet
  facet normal 0 0 -1
    outer loop
      vertex -6.82044 8.24449 0
      vertex -4.78068 5.77885 0
      vertex -5.46726 5.1341 0
    endloop
  endfacet
  facet normal 0 0 -1
    outer loop
      vertex -4.0187 6.33246 0
      vertex -5.73335 9.03431 0
      vertex -4.55584 9.68165 0
    endloop
  endfacet
  facet normal 0 0 -1
    outer loop
      vertex -7.79996 7.32465 0
      vertex -5.46726 5.1341 0
      vertex -6.06763 4.40839 0
    endloop
  endfacet
  facet normal 0 0 -1
    outer loop
      vertex -8.65648 6.2893 0
      vertex -6.06763 4.40839 0
      vertex -6.5723 3.61315 0
    endloop
  endfacet
  facet normal 0 0 -1
    outer loop
      vertex -4.78068 5.77885 0
      vertex -6.82044 8.24449 0
      vertex -5.73335 9.03431 0
    endloop
  endfacet
  facet normal 0 0 -1
    outer loop
      vertex -9.37648 5.15476 0
      vertex -6.5723 3.61315 0
      vertex -6.97332 2.76093 0
    endloop
  endfacet
  facet normal 0 0 -1
    outer loop
      vertex -9.94861 3.93893 0
      vertex -6.97332 2.76093 0
      vertex -7.26437 1.86517 0
    endloop
  endfacet
  facet normal 0 0 -1
    outer loop
      vertex -10.3638 2.66098 0
      vertex -7.26437 1.86517 0
      vertex -7.44086 0.939999 0
    endloop
  endfacet
  facet normal 0 0 -1
    outer loop
      vertex -5.46726 5.1341 0
      vertex -7.79996 7.32465 0
      vertex -6.82044 8.24449 0
    endloop
  endfacet
  facet normal 0 0 -1
    outer loop
      vertex -10.6156 1.34107 0
      vertex -7.44086 0.939999 0
      vertex -7.5 0 0
    endloop
  endfacet
  facet normal -0 0 -1
    outer loop
      vertex -6.97332 -2.76093 0
      vertex -9.94861 -3.93893 0
      vertex -7.26437 -1.86517 0
    endloop
  endfacet
  facet normal 0 0 -1
    outer loop
      vertex -10.3638 -2.66098 0
      vertex -7.26437 -1.86517 0
      vertex -9.94861 -3.93893 0
    endloop
  endfacet
  facet normal 0 0 -1
    outer loop
      vertex -6.06763 4.40839 0
      vertex -8.65648 6.2893 0
      vertex -7.79996 7.32465 0
    endloop
  endfacet
  facet normal -0 0 -1
    outer loop
      vertex -7.26437 -1.86517 0
      vertex -10.3638 -2.66098 0
      vertex -7.44086 -0.939999 0
    endloop
  endfacet
  facet normal 0 0 -1
    outer loop
      vertex -6.5723 3.61315 0
      vertex -9.37648 5.15476 0
      vertex -8.65648 6.2893 0
    endloop
  endfacet
  facet normal 0 0 -1
    outer loop
      vertex -10.6156 -1.34107 0
      vertex -7.44086 -0.939999 0
      vertex -10.3638 -2.66098 0
    endloop
  endfacet
  facet normal 0 0 -1
    outer loop
      vertex -6.97332 2.76093 0
      vertex -9.94861 3.93893 0
      vertex -9.37648 5.15476 0
    endloop
  endfacet
  facet normal -0 0 -1
    outer loop
      vertex -7.44086 -0.939999 0
      vertex -10.6156 -1.34107 0
      vertex -7.5 0 0
    endloop
  endfacet
  facet normal 0 0 -1
    outer loop
      vertex -7.26437 1.86517 0
      vertex -10.3638 2.66098 0
      vertex -9.94861 3.93893 0
    endloop
  endfacet
  facet normal 0 0 -1
    outer loop
      vertex -10.7 0 0
      vertex -7.5 0 0
      vertex -10.6156 -1.34107 0
    endloop
  endfacet
  facet normal 0 0 -1
    outer loop
      vertex -7.44086 0.939999 0
      vertex -10.6156 1.34107 0
      vertex -10.3638 2.66098 0
    endloop
  endfacet
  facet normal 0 0 -1
    outer loop
      vertex -7.5 0 0
      vertex -10.7 0 0
      vertex -10.6156 1.34107 0
    endloop
  endfacet
  facet normal 0.125324 -0.992116 0
    outer loop
      vertex 0.671858 -10.6789 0
      vertex 2.00498 -10.5105 4
      vertex 0.671858 -10.6789 4
    endloop
  endfacet
  facet normal 0.125324 -0.992116 0
    outer loop
      vertex 2.00498 -10.5105 4
      vertex 0.671858 -10.6789 0
      vertex 2.00498 -10.5105 0
    endloop
  endfacet
  facet normal 0.951066 0.308989 0
    outer loop
      vertex 10.3638 2.66098 4
      vertex 9.94861 3.93893 0
      vertex 9.94861 3.93893 4
    endloop
  endfacet
  facet normal 0.951066 0.308989 0
    outer loop
      vertex 9.94861 3.93893 0
      vertex 10.3638 2.66098 4
      vertex 10.3638 2.66098 0
    endloop
  endfacet
  facet normal 0.982285 0.187391 0
    outer loop
      vertex 10.6156 1.34107 4
      vertex 10.3638 2.66098 0
      vertex 10.3638 2.66098 4
    endloop
  endfacet
  facet normal 0.982285 0.187391 0
    outer loop
      vertex 10.3638 2.66098 0
      vertex 10.6156 1.34107 4
      vertex 10.6156 1.34107 0
    endloop
  endfacet
  facet normal 0.770512 0.637426 0
    outer loop
      vertex 8.65648 6.2893 4
      vertex 7.79996 7.32465 0
      vertex 7.79996 7.32465 4
    endloop
  endfacet
  facet normal 0.770512 0.637426 0
    outer loop
      vertex 7.79996 7.32465 0
      vertex 8.65648 6.2893 4
      vertex 8.65648 6.2893 0
    endloop
  endfacet
  facet normal 0.125324 0.992116 -0
    outer loop
      vertex 2.00498 10.5105 0
      vertex 0.671858 10.6789 4
      vertex 2.00498 10.5105 4
    endloop
  endfacet
  facet normal 0.125324 0.992116 0
    outer loop
      vertex 0.671858 10.6789 4
      vertex 2.00498 10.5105 0
      vertex 0.671858 10.6789 0
    endloop
  endfacet
  facet normal 0.587787 0.809016 -0
    outer loop
      vertex 6.82044 8.24449 0
      vertex 5.73335 9.03431 4
      vertex 6.82044 8.24449 4
    endloop
  endfacet
  facet normal 0.587787 0.809016 0
    outer loop
      vertex 5.73335 9.03431 4
      vertex 6.82044 8.24449 0
      vertex 5.73335 9.03431 0
    endloop
  endfacet
  facet normal -0.844328 0.535826 0
    outer loop
      vertex -9.37648 5.15476 0
      vertex -8.65648 6.2893 4
      vertex -8.65648 6.2893 0
    endloop
  endfacet
  facet normal -0.844328 0.535826 0
    outer loop
      vertex -8.65648 6.2893 4
      vertex -9.37648 5.15476 0
      vertex -9.37648 5.15476 4
    endloop
  endfacet
  facet normal -0.951066 0.308989 0
    outer loop
      vertex -10.3638 2.66098 0
      vertex -9.94861 3.93893 4
      vertex -9.94861 3.93893 0
    endloop
  endfacet
  facet normal -0.951066 0.308989 0
    outer loop
      vertex -9.94861 3.93893 4
      vertex -10.3638 2.66098 0
      vertex -10.3638 2.66098 4
    endloop
  endfacet
  facet normal -0.982285 0.187391 0
    outer loop
      vertex -10.6156 1.34107 0
      vertex -10.3638 2.66098 4
      vertex -10.3638 2.66098 0
    endloop
  endfacet
  facet normal -0.982285 0.187391 0
    outer loop
      vertex -10.3638 2.66098 4
      vertex -10.6156 1.34107 0
      vertex -10.6156 1.34107 4
    endloop
  endfacet
  facet normal -0.481753 0.876307 0
    outer loop
      vertex -4.55584 9.68165 0
      vertex -5.73335 9.03431 4
      vertex -4.55584 9.68165 4
    endloop
  endfacet
  facet normal -0.481753 0.876307 0
    outer loop
      vertex -5.73335 9.03431 4
      vertex -4.55584 9.68165 0
      vertex -5.73335 9.03431 0
    endloop
  endfacet
  facet normal -0.587787 0.809016 0
    outer loop
      vertex -5.73335 9.03431 0
      vertex -6.82044 8.24449 4
      vertex -5.73335 9.03431 4
    endloop
  endfacet
  facet normal -0.587787 0.809016 0
    outer loop
      vertex -6.82044 8.24449 4
      vertex -5.73335 9.03431 0
      vertex -6.82044 8.24449 0
    endloop
  endfacet
  facet normal -0.248712 0.968577 0
    outer loop
      vertex -2.00498 10.5105 0
      vertex -3.30648 10.1763 4
      vertex -2.00498 10.5105 4
    endloop
  endfacet
  facet normal -0.248712 0.968577 0
    outer loop
      vertex -3.30648 10.1763 4
      vertex -2.00498 10.5105 0
      vertex -3.30648 10.1763 0
    endloop
  endfacet
  facet normal 0.998025 -0.0628106 0
    outer loop
      vertex 10.6156 -1.34107 4
      vertex 10.7 0 0
      vertex 10.7 0 4
    endloop
  endfacet
  facet normal 0.998025 -0.0628106 0
    outer loop
      vertex 10.7 0 0
      vertex 10.6156 -1.34107 4
      vertex 10.6156 -1.34107 0
    endloop
  endfacet
  facet normal 0.770512 -0.637426 0
    outer loop
      vertex 7.79996 -7.32465 4
      vertex 8.65648 -6.2893 0
      vertex 8.65648 -6.2893 4
    endloop
  endfacet
  facet normal 0.770512 -0.637426 0
    outer loop
      vertex 8.65648 -6.2893 0
      vertex 7.79996 -7.32465 4
      vertex 7.79996 -7.32465 0
    endloop
  endfacet
  facet normal 0.951066 -0.308989 0
    outer loop
      vertex 9.94861 -3.93893 4
      vertex 10.3638 -2.66098 0
      vertex 10.3638 -2.66098 4
    endloop
  endfacet
  facet normal 0.951066 -0.308989 0
    outer loop
      vertex 10.3638 -2.66098 0
      vertex 9.94861 -3.93893 4
      vertex 9.94861 -3.93893 0
    endloop
  endfacet
  facet normal 0.982285 -0.187391 0
    outer loop
      vertex 10.3638 -2.66098 4
      vertex 10.6156 -1.34107 0
      vertex 10.6156 -1.34107 4
    endloop
  endfacet
  facet normal 0.982285 -0.187391 0
    outer loop
      vertex 10.6156 -1.34107 0
      vertex 10.3638 -2.66098 4
      vertex 10.3638 -2.66098 0
    endloop
  endfacet
  facet normal -0.904826 -0.425782 0
    outer loop
      vertex -9.37648 -5.15476 0
      vertex -9.94861 -3.93893 4
      vertex -9.94861 -3.93893 0
    endloop
  endfacet
  facet normal -0.904826 -0.425782 0
    outer loop
      vertex -9.94861 -3.93893 4
      vertex -9.37648 -5.15476 0
      vertex -9.37648 -5.15476 4
    endloop
  endfacet
  facet normal 0.481753 -0.876307 0
    outer loop
      vertex 4.55584 -9.68165 0
      vertex 5.73335 -9.03431 4
      vertex 4.55584 -9.68165 4
    endloop
  endfacet
  facet normal 0.481753 -0.876307 0
    outer loop
      vertex 5.73335 -9.03431 4
      vertex 4.55584 -9.68165 0
      vertex 5.73335 -9.03431 0
    endloop
  endfacet
  facet normal 0.684551 -0.728965 0
    outer loop
      vertex 6.82044 -8.24449 0
      vertex 7.79996 -7.32465 4
      vertex 6.82044 -8.24449 4
    endloop
  endfacet
  facet normal 0.684551 -0.728965 0
    outer loop
      vertex 7.79996 -7.32465 4
      vertex 6.82044 -8.24449 0
      vertex 7.79996 -7.32465 0
    endloop
  endfacet
  facet normal 0.844328 -0.535826 0
    outer loop
      vertex 8.65648 -6.2893 4
      vertex 9.37648 -5.15476 0
      vertex 9.37648 -5.15476 4
    endloop
  endfacet
  facet normal 0.844328 -0.535826 0
    outer loop
      vertex 9.37648 -5.15476 0
      vertex 8.65648 -6.2893 4
      vertex 8.65648 -6.2893 0
    endloop
  endfacet
  facet normal -0.982285 -0.187391 0
    outer loop
      vertex -10.3638 -2.66098 0
      vertex -10.6156 -1.34107 4
      vertex -10.6156 -1.34107 0
    endloop
  endfacet
  facet normal -0.982285 -0.187391 0
    outer loop
      vertex -10.6156 -1.34107 4
      vertex -10.3638 -2.66098 0
      vertex -10.3638 -2.66098 4
    endloop
  endfacet
  facet normal -0.998025 -0.0628106 0
    outer loop
      vertex -10.6156 -1.34107 0
      vertex -10.7 0 4
      vertex -10.7 0 0
    endloop
  endfacet
  facet normal -0.998025 -0.0628106 0
    outer loop
      vertex -10.7 0 4
      vertex -10.6156 -1.34107 0
      vertex -10.6156 -1.34107 4
    endloop
  endfacet
  facet normal -0.951066 -0.308989 0
    outer loop
      vertex -9.94861 -3.93893 0
      vertex -10.3638 -2.66098 4
      vertex -10.3638 -2.66098 0
    endloop
  endfacet
  facet normal -0.951066 -0.308989 0
    outer loop
      vertex -10.3638 -2.66098 4
      vertex -9.94861 -3.93893 0
      vertex -9.94861 -3.93893 4
    endloop
  endfacet
  facet normal 0.36812 -0.929778 0
    outer loop
      vertex 3.30648 -10.1763 0
      vertex 4.55584 -9.68165 4
      vertex 3.30648 -10.1763 4
    endloop
  endfacet
  facet normal 0.36812 -0.929778 0
    outer loop
      vertex 4.55584 -9.68165 4
      vertex 3.30648 -10.1763 0
      vertex 4.55584 -9.68165 0
    endloop
  endfacet
  facet normal 0.248712 -0.968577 0
    outer loop
      vertex 2.00498 -10.5105 0
      vertex 3.30648 -10.1763 4
      vertex 2.00498 -10.5105 4
    endloop
  endfacet
  facet normal 0.248712 -0.968577 0
    outer loop
      vertex 3.30648 -10.1763 4
      vertex 2.00498 -10.5105 0
      vertex 3.30648 -10.1763 0
    endloop
  endfacet
  facet normal 0.904826 -0.425782 0
    outer loop
      vertex 9.37648 -5.15476 4
      vertex 9.94861 -3.93893 0
      vertex 9.94861 -3.93893 4
    endloop
  endfacet
  facet normal 0.904826 -0.425782 0
    outer loop
      vertex 9.94861 -3.93893 0
      vertex 9.37648 -5.15476 4
      vertex 9.37648 -5.15476 0
    endloop
  endfacet
  facet normal -0.125324 -0.992116 0
    outer loop
      vertex -2.00498 -10.5105 0
      vertex -0.671858 -10.6789 4
      vertex -2.00498 -10.5105 4
    endloop
  endfacet
  facet normal -0.125324 -0.992116 -0
    outer loop
      vertex -0.671858 -10.6789 4
      vertex -2.00498 -10.5105 0
      vertex -0.671858 -10.6789 0
    endloop
  endfacet
  facet normal -0.36812 -0.929778 0
    outer loop
      vertex -4.55584 -9.68165 0
      vertex -3.30648 -10.1763 4
      vertex -4.55584 -9.68165 4
    endloop
  endfacet
  facet normal -0.36812 -0.929778 -0
    outer loop
      vertex -3.30648 -10.1763 4
      vertex -4.55584 -9.68165 0
      vertex -3.30648 -10.1763 0
    endloop
  endfacet
  facet normal -0.248712 -0.968577 0
    outer loop
      vertex -3.30648 -10.1763 0
      vertex -2.00498 -10.5105 4
      vertex -3.30648 -10.1763 4
    endloop
  endfacet
  facet normal -0.248712 -0.968577 -0
    outer loop
      vertex -2.00498 -10.5105 4
      vertex -3.30648 -10.1763 0
      vertex -2.00498 -10.5105 0
    endloop
  endfacet
  facet normal -0.770512 -0.637426 0
    outer loop
      vertex -7.79996 -7.32465 0
      vertex -8.65648 -6.2893 4
      vertex -8.65648 -6.2893 0
    endloop
  endfacet
  facet normal -0.770512 -0.637426 0
    outer loop
      vertex -8.65648 -6.2893 4
      vertex -7.79996 -7.32465 0
      vertex -7.79996 -7.32465 4
    endloop
  endfacet
  facet normal -0.684551 -0.728965 0
    outer loop
      vertex -7.79996 -7.32465 0
      vertex -6.82044 -8.24449 4
      vertex -7.79996 -7.32465 4
    endloop
  endfacet
  facet normal -0.684551 -0.728965 -0
    outer loop
      vertex -6.82044 -8.24449 4
      vertex -7.79996 -7.32465 0
      vertex -6.82044 -8.24449 0
    endloop
  endfacet
  facet normal 0.587787 -0.809016 0
    outer loop
      vertex 5.73335 -9.03431 0
      vertex 6.82044 -8.24449 4
      vertex 5.73335 -9.03431 4
    endloop
  endfacet
  facet normal 0.587787 -0.809016 0
    outer loop
      vertex 6.82044 -8.24449 4
      vertex 5.73335 -9.03431 0
      vertex 6.82044 -8.24449 0
    endloop
  endfacet
  facet normal -0.844328 -0.535826 0
    outer loop
      vertex -8.65648 -6.2893 0
      vertex -9.37648 -5.15476 4
      vertex -9.37648 -5.15476 0
    endloop
  endfacet
  facet normal -0.844328 -0.535826 0
    outer loop
      vertex -9.37648 -5.15476 4
      vertex -8.65648 -6.2893 0
      vertex -8.65648 -6.2893 4
    endloop
  endfacet
  facet normal -0.481753 -0.876307 0
    outer loop
      vertex -5.73335 -9.03431 0
      vertex -4.55584 -9.68165 4
      vertex -5.73335 -9.03431 4
    endloop
  endfacet
  facet normal -0.481753 -0.876307 -0
    outer loop
      vertex -4.55584 -9.68165 4
      vertex -5.73335 -9.03431 0
      vertex -4.55584 -9.68165 0
    endloop
  endfacet
  facet normal -0.587787 -0.809016 0
    outer loop
      vertex -6.82044 -8.24449 0
      vertex -5.73335 -9.03431 4
      vertex -6.82044 -8.24449 4
    endloop
  endfacet
  facet normal -0.587787 -0.809016 -0
    outer loop
      vertex -5.73335 -9.03431 4
      vertex -6.82044 -8.24449 0
      vertex -5.73335 -9.03431 0
    endloop
  endfacet
  facet normal -0.904829 -0.425776 0
    outer loop
      vertex 6.97332 2.76093 0
      vertex 6.5723 3.61315 4
      vertex 6.5723 3.61315 0
    endloop
  endfacet
  facet normal -0.904829 -0.425776 0
    outer loop
      vertex 6.5723 3.61315 4
      vertex 6.97332 2.76093 0
      vertex 6.97332 2.76093 4
    endloop
  endfacet
  facet normal -0.84433 -0.535823 0
    outer loop
      vertex 6.5723 3.61315 0
      vertex 6.06763 4.40839 4
      vertex 6.06763 4.40839 0
    endloop
  endfacet
  facet normal -0.84433 -0.535823 0
    outer loop
      vertex 6.06763 4.40839 4
      vertex 6.5723 3.61315 0
      vertex 6.5723 3.61315 4
    endloop
  endfacet
  facet normal -0.368126 -0.929776 0
    outer loop
      vertex 2.31763 7.13292 0
      vertex 3.19334 6.7862 4
      vertex 2.31763 7.13292 4
    endloop
  endfacet
  facet normal -0.368126 -0.929776 -0
    outer loop
      vertex 3.19334 6.7862 4
      vertex 2.31763 7.13292 0
      vertex 3.19334 6.7862 0
    endloop
  endfacet
  facet normal 0.368126 -0.929776 0
    outer loop
      vertex -3.19334 6.7862 0
      vertex -2.31763 7.13292 4
      vertex -3.19334 6.7862 4
    endloop
  endfacet
  facet normal 0.368126 -0.929776 0
    outer loop
      vertex -2.31763 7.13292 4
      vertex -3.19334 6.7862 0
      vertex -2.31763 7.13292 0
    endloop
  endfacet
  facet normal 0.904829 -0.425776 0
    outer loop
      vertex -6.97332 2.76093 4
      vertex -6.5723 3.61315 0
      vertex -6.5723 3.61315 4
    endloop
  endfacet
  facet normal 0.904829 -0.425776 0
    outer loop
      vertex -6.5723 3.61315 0
      vertex -6.97332 2.76093 4
      vertex -6.97332 2.76093 0
    endloop
  endfacet
  facet normal -0.982286 0.187386 0
    outer loop
      vertex 7.26437 -1.86517 0
      vertex 7.44086 -0.939999 4
      vertex 7.44086 -0.939999 0
    endloop
  endfacet
  facet normal -0.982286 0.187386 0
    outer loop
      vertex 7.44086 -0.939999 4
      vertex 7.26437 -1.86517 0
      vertex 7.26437 -1.86517 4
    endloop
  endfacet
  facet normal -0.684552 -0.728964 0
    outer loop
      vertex 4.78068 5.77885 0
      vertex 5.46726 5.1341 4
      vertex 4.78068 5.77885 4
    endloop
  endfacet
  facet normal -0.684552 -0.728964 -0
    outer loop
      vertex 5.46726 5.1341 4
      vertex 4.78068 5.77885 0
      vertex 5.46726 5.1341 0
    endloop
  endfacet
  facet normal -0.125337 -0.992114 0
    outer loop
      vertex 0.470928 7.4852 0
      vertex 1.40536 7.36715 4
      vertex 0.470928 7.4852 4
    endloop
  endfacet
  facet normal -0.125337 -0.992114 -0
    outer loop
      vertex 1.40536 7.36715 4
      vertex 0.470928 7.4852 0
      vertex 1.40536 7.36715 0
    endloop
  endfacet
  facet normal -0.481749 -0.876309 0
    outer loop
      vertex 3.19334 6.7862 0
      vertex 4.0187 6.33246 4
      vertex 3.19334 6.7862 4
    endloop
  endfacet
  facet normal -0.481749 -0.876309 -0
    outer loop
      vertex 4.0187 6.33246 4
      vertex 3.19334 6.7862 0
      vertex 4.0187 6.33246 0
    endloop
  endfacet
  facet normal 0.998027 -0.0627908 0
    outer loop
      vertex -7.5 0 4
      vertex -7.44086 0.939999 0
      vertex -7.44086 0.939999 4
    endloop
  endfacet
  facet normal 0.998027 -0.0627908 0
    outer loop
      vertex -7.44086 0.939999 0
      vertex -7.5 0 4
      vertex -7.5 0 0
    endloop
  endfacet
  facet normal 0.770508 -0.637431 0
    outer loop
      vertex -6.06763 4.40839 4
      vertex -5.46726 5.1341 0
      vertex -5.46726 5.1341 4
    endloop
  endfacet
  facet normal 0.770508 -0.637431 0
    outer loop
      vertex -5.46726 5.1341 0
      vertex -6.06763 4.40839 4
      vertex -6.06763 4.40839 0
    endloop
  endfacet
  facet normal 0.125337 -0.992114 0
    outer loop
      vertex -1.40536 7.36715 0
      vertex -0.470928 7.4852 4
      vertex -1.40536 7.36715 4
    endloop
  endfacet
  facet normal 0.125337 -0.992114 0
    outer loop
      vertex -0.470928 7.4852 4
      vertex -1.40536 7.36715 0
      vertex -0.470928 7.4852 0
    endloop
  endfacet
  facet normal 0.684552 -0.728964 0
    outer loop
      vertex -5.46726 5.1341 0
      vertex -4.78068 5.77885 4
      vertex -5.46726 5.1341 4
    endloop
  endfacet
  facet normal 0.684552 -0.728964 0
    outer loop
      vertex -4.78068 5.77885 4
      vertex -5.46726 5.1341 0
      vertex -4.78068 5.77885 0
    endloop
  endfacet
  facet normal -0.998027 -0.0627908 0
    outer loop
      vertex 7.5 0 0
      vertex 7.44086 0.939999 4
      vertex 7.44086 0.939999 0
    endloop
  endfacet
  facet normal -0.998027 -0.0627908 0
    outer loop
      vertex 7.44086 0.939999 4
      vertex 7.5 0 0
      vertex 7.5 0 4
    endloop
  endfacet
  facet normal -0.982286 -0.187386 0
    outer loop
      vertex 7.44086 0.939999 0
      vertex 7.26437 1.86517 4
      vertex 7.26437 1.86517 0
    endloop
  endfacet
  facet normal -0.982286 -0.187386 0
    outer loop
      vertex 7.26437 1.86517 4
      vertex 7.44086 0.939999 0
      vertex 7.44086 0.939999 4
    endloop
  endfacet
  facet normal -0.951057 -0.309017 0
    outer loop
      vertex 7.26437 1.86517 0
      vertex 6.97332 2.76093 4
      vertex 6.97332 2.76093 0
    endloop
  endfacet
  facet normal -0.951057 -0.309017 0
    outer loop
      vertex 6.97332 2.76093 4
      vertex 7.26437 1.86517 0
      vertex 7.26437 1.86517 4
    endloop
  endfacet
  facet normal -0.770508 -0.637431 0
    outer loop
      vertex 6.06763 4.40839 0
      vertex 5.46726 5.1341 4
      vertex 5.46726 5.1341 0
    endloop
  endfacet
  facet normal -0.770508 -0.637431 0
    outer loop
      vertex 5.46726 5.1341 4
      vertex 6.06763 4.40839 0
      vertex 6.06763 4.40839 4
    endloop
  endfacet
  facet normal 0 -1 0
    outer loop
      vertex -0.470928 7.4852 0
      vertex 0.470928 7.4852 4
      vertex -0.470928 7.4852 4
    endloop
  endfacet
  facet normal 0 -1 -0
    outer loop
      vertex 0.470928 7.4852 4
      vertex -0.470928 7.4852 0
      vertex 0.470928 7.4852 0
    endloop
  endfacet
  facet normal -0.248689 -0.968583 0
    outer loop
      vertex 1.40536 7.36715 0
      vertex 2.31763 7.13292 4
      vertex 1.40536 7.36715 4
    endloop
  endfacet
  facet normal -0.248689 -0.968583 -0
    outer loop
      vertex 2.31763 7.13292 4
      vertex 1.40536 7.36715 0
      vertex 2.31763 7.13292 0
    endloop
  endfacet
  facet normal -0.587785 -0.809017 0
    outer loop
      vertex 4.0187 6.33246 0
      vertex 4.78068 5.77885 4
      vertex 4.0187 6.33246 4
    endloop
  endfacet
  facet normal -0.587785 -0.809017 -0
    outer loop
      vertex 4.78068 5.77885 4
      vertex 4.0187 6.33246 0
      vertex 4.78068 5.77885 0
    endloop
  endfacet
  facet normal 0.951057 -0.309017 0
    outer loop
      vertex -7.26437 1.86517 4
      vertex -6.97332 2.76093 0
      vertex -6.97332 2.76093 4
    endloop
  endfacet
  facet normal 0.951057 -0.309017 0
    outer loop
      vertex -6.97332 2.76093 0
      vertex -7.26437 1.86517 4
      vertex -7.26437 1.86517 0
    endloop
  endfacet
  facet normal 0.982286 -0.187386 0
    outer loop
      vertex -7.44086 0.939999 4
      vertex -7.26437 1.86517 0
      vertex -7.26437 1.86517 4
    endloop
  endfacet
  facet normal 0.982286 -0.187386 0
    outer loop
      vertex -7.26437 1.86517 0
      vertex -7.44086 0.939999 4
      vertex -7.44086 0.939999 0
    endloop
  endfacet
  facet normal 0.84433 -0.535823 0
    outer loop
      vertex -6.5723 3.61315 4
      vertex -6.06763 4.40839 0
      vertex -6.06763 4.40839 4
    endloop
  endfacet
  facet normal 0.84433 -0.535823 0
    outer loop
      vertex -6.06763 4.40839 0
      vertex -6.5723 3.61315 4
      vertex -6.5723 3.61315 0
    endloop
  endfacet
  facet normal 0.248689 -0.968583 0
    outer loop
      vertex -2.31763 7.13292 0
      vertex -1.40536 7.36715 4
      vertex -2.31763 7.13292 4
    endloop
  endfacet
  facet normal 0.248689 -0.968583 0
    outer loop
      vertex -1.40536 7.36715 4
      vertex -2.31763 7.13292 0
      vertex -1.40536 7.36715 0
    endloop
  endfacet
  facet normal 0.587785 -0.809017 0
    outer loop
      vertex -4.78068 5.77885 0
      vertex -4.0187 6.33246 4
      vertex -4.78068 5.77885 4
    endloop
  endfacet
  facet normal 0.587785 -0.809017 0
    outer loop
      vertex -4.0187 6.33246 4
      vertex -4.78068 5.77885 0
      vertex -4.0187 6.33246 0
    endloop
  endfacet
  facet normal 0.481749 -0.876309 0
    outer loop
      vertex -4.0187 6.33246 0
      vertex -3.19334 6.7862 4
      vertex -4.0187 6.33246 4
    endloop
  endfacet
  facet normal 0.481749 -0.876309 0
    outer loop
      vertex -3.19334 6.7862 4
      vertex -4.0187 6.33246 0
      vertex -3.19334 6.7862 0
    endloop
  endfacet
  facet normal -0.998027 0.0627908 0
    outer loop
      vertex 7.44086 -0.939999 0
      vertex 7.5 0 4
      vertex 7.5 0 0
    endloop
  endfacet
  facet normal -0.998027 0.0627908 0
    outer loop
      vertex 7.5 0 4
      vertex 7.44086 -0.939999 0
      vertex 7.44086 -0.939999 4
    endloop
  endfacet
  facet normal -0.84433 0.535823 0
    outer loop
      vertex 6.06763 -4.40839 0
      vertex 6.5723 -3.61315 4
      vertex 6.5723 -3.61315 0
    endloop
  endfacet
  facet normal -0.84433 0.535823 0
    outer loop
      vertex 6.5723 -3.61315 4
      vertex 6.06763 -4.40839 0
      vertex 6.06763 -4.40839 4
    endloop
  endfacet
  facet normal 0.998027 0.0627908 0
    outer loop
      vertex -7.44086 -0.939999 4
      vertex -7.5 0 0
      vertex -7.5 0 4
    endloop
  endfacet
  facet normal 0.998027 0.0627908 0
    outer loop
      vertex -7.5 0 0
      vertex -7.44086 -0.939999 4
      vertex -7.44086 -0.939999 0
    endloop
  endfacet
  facet normal 0.84433 0.535823 0
    outer loop
      vertex -6.06763 -4.40839 4
      vertex -6.5723 -3.61315 0
      vertex -6.5723 -3.61315 4
    endloop
  endfacet
  facet normal 0.84433 0.535823 0
    outer loop
      vertex -6.5723 -3.61315 0
      vertex -6.06763 -4.40839 4
      vertex -6.06763 -4.40839 0
    endloop
  endfacet
  facet normal -0.125337 0.992114 0
    outer loop
      vertex 1.40536 -7.36715 0
      vertex 0.470928 -7.4852 4
      vertex 1.40536 -7.36715 4
    endloop
  endfacet
  facet normal -0.125337 0.992114 0
    outer loop
      vertex 0.470928 -7.4852 4
      vertex 1.40536 -7.36715 0
      vertex 0.470928 -7.4852 0
    endloop
  endfacet
  facet normal -0.904829 0.425776 0
    outer loop
      vertex 6.5723 -3.61315 0
      vertex 6.97332 -2.76093 4
      vertex 6.97332 -2.76093 0
    endloop
  endfacet
  facet normal -0.904829 0.425776 0
    outer loop
      vertex 6.97332 -2.76093 4
      vertex 6.5723 -3.61315 0
      vertex 6.5723 -3.61315 4
    endloop
  endfacet
  facet normal -0.951057 0.309017 0
    outer loop
      vertex 6.97332 -2.76093 0
      vertex 7.26437 -1.86517 4
      vertex 7.26437 -1.86517 0
    endloop
  endfacet
  facet normal -0.951057 0.309017 0
    outer loop
      vertex 7.26437 -1.86517 4
      vertex 6.97332 -2.76093 0
      vertex 6.97332 -2.76093 4
    endloop
  endfacet
  facet normal 0.125337 0.992114 -0
    outer loop
      vertex -0.470928 -7.4852 0
      vertex -1.40536 -7.36715 4
      vertex -0.470928 -7.4852 4
    endloop
  endfacet
  facet normal 0.125337 0.992114 0
    outer loop
      vertex -1.40536 -7.36715 4
      vertex -0.470928 -7.4852 0
      vertex -1.40536 -7.36715 0
    endloop
  endfacet
  facet normal 0.684552 0.728964 -0
    outer loop
      vertex -4.78068 -5.77885 0
      vertex -5.46726 -5.1341 4
      vertex -4.78068 -5.77885 4
    endloop
  endfacet
  facet normal 0.684552 0.728964 0
    outer loop
      vertex -5.46726 -5.1341 4
      vertex -4.78068 -5.77885 0
      vertex -5.46726 -5.1341 0
    endloop
  endfacet
  facet normal -0.368126 0.929776 0
    outer loop
      vertex 3.19334 -6.7862 0
      vertex 2.31763 -7.13292 4
      vertex 3.19334 -6.7862 4
    endloop
  endfacet
  facet normal -0.368126 0.929776 0
    outer loop
      vertex 2.31763 -7.13292 4
      vertex 3.19334 -6.7862 0
      vertex 2.31763 -7.13292 0
    endloop
  endfacet
  facet normal -0.248689 0.968583 0
    outer loop
      vertex 2.31763 -7.13292 0
      vertex 1.40536 -7.36715 4
      vertex 2.31763 -7.13292 4
    endloop
  endfacet
  facet normal -0.248689 0.968583 0
    outer loop
      vertex 1.40536 -7.36715 4
      vertex 2.31763 -7.13292 0
      vertex 1.40536 -7.36715 0
    endloop
  endfacet
  facet normal -0.587785 0.809017 0
    outer loop
      vertex 4.78068 -5.77885 0
      vertex 4.0187 -6.33246 4
      vertex 4.78068 -5.77885 4
    endloop
  endfacet
  facet normal -0.587785 0.809017 0
    outer loop
      vertex 4.0187 -6.33246 4
      vertex 4.78068 -5.77885 0
      vertex 4.0187 -6.33246 0
    endloop
  endfacet
  facet normal -0.481749 0.876309 0
    outer loop
      vertex 4.0187 -6.33246 0
      vertex 3.19334 -6.7862 4
      vertex 4.0187 -6.33246 4
    endloop
  endfacet
  facet normal -0.481749 0.876309 0
    outer loop
      vertex 3.19334 -6.7862 4
      vertex 4.0187 -6.33246 0
      vertex 3.19334 -6.7862 0
    endloop
  endfacet
  facet normal -0.770508 0.637431 0
    outer loop
      vertex 5.46726 -5.1341 0
      vertex 6.06763 -4.40839 4
      vertex 6.06763 -4.40839 0
    endloop
  endfacet
  facet normal -0.770508 0.637431 0
    outer loop
      vertex 6.06763 -4.40839 4
      vertex 5.46726 -5.1341 0
      vertex 5.46726 -5.1341 4
    endloop
  endfacet
  facet normal -0.684552 0.728964 0
    outer loop
      vertex 5.46726 -5.1341 0
      vertex 4.78068 -5.77885 4
      vertex 5.46726 -5.1341 4
    endloop
  endfacet
  facet normal -0.684552 0.728964 0
    outer loop
      vertex 4.78068 -5.77885 4
      vertex 5.46726 -5.1341 0
      vertex 4.78068 -5.77885 0
    endloop
  endfacet
  facet normal 0.368126 0.929776 -0
    outer loop
      vertex -2.31763 -7.13292 0
      vertex -3.19334 -6.7862 4
      vertex -2.31763 -7.13292 4
    endloop
  endfacet
  facet normal 0.368126 0.929776 0
    outer loop
      vertex -3.19334 -6.7862 4
      vertex -2.31763 -7.13292 0
      vertex -3.19334 -6.7862 0
    endloop
  endfacet
  facet normal 0 1 -0
    outer loop
      vertex 0.470928 -7.4852 0
      vertex -0.470928 -7.4852 4
      vertex 0.470928 -7.4852 4
    endloop
  endfacet
  facet normal 0 1 0
    outer loop
      vertex -0.470928 -7.4852 4
      vertex 0.470928 -7.4852 0
      vertex -0.470928 -7.4852 0
    endloop
  endfacet
  facet normal 0.951057 0.309017 0
    outer loop
      vertex -6.97332 -2.76093 4
      vertex -7.26437 -1.86517 0
      vertex -7.26437 -1.86517 4
    endloop
  endfacet
  facet normal 0.951057 0.309017 0
    outer loop
      vertex -7.26437 -1.86517 0
      vertex -6.97332 -2.76093 4
      vertex -6.97332 -2.76093 0
    endloop
  endfacet
  facet normal 0.982286 0.187386 0
    outer loop
      vertex -7.26437 -1.86517 4
      vertex -7.44086 -0.939999 0
      vertex -7.44086 -0.939999 4
    endloop
  endfacet
  facet normal 0.982286 0.187386 0
    outer loop
      vertex -7.44086 -0.939999 0
      vertex -7.26437 -1.86517 4
      vertex -7.26437 -1.86517 0
    endloop
  endfacet
  facet normal 0.904829 0.425776 0
    outer loop
      vertex -6.5723 -3.61315 4
      vertex -6.97332 -2.76093 0
      vertex -6.97332 -2.76093 4
    endloop
  endfacet
  facet normal 0.904829 0.425776 0
    outer loop
      vertex -6.97332 -2.76093 0
      vertex -6.5723 -3.61315 4
      vertex -6.5723 -3.61315 0
    endloop
  endfacet
  facet normal 0.587785 0.809017 -0
    outer loop
      vertex -4.0187 -6.33246 0
      vertex -4.78068 -5.77885 4
      vertex -4.0187 -6.33246 4
    endloop
  endfacet
  facet normal 0.587785 0.809017 0
    outer loop
      vertex -4.78068 -5.77885 4
      vertex -4.0187 -6.33246 0
      vertex -4.78068 -5.77885 0
    endloop
  endfacet
  facet normal 0.248689 0.968583 -0
    outer loop
      vertex -1.40536 -7.36715 0
      vertex -2.31763 -7.13292 4
      vertex -1.40536 -7.36715 4
    endloop
  endfacet
  facet normal 0.248689 0.968583 0
    outer loop
      vertex -2.31763 -7.13292 4
      vertex -1.40536 -7.36715 0
      vertex -2.31763 -7.13292 0
    endloop
  endfacet
  facet normal 0.770508 0.637431 0
    outer loop
      vertex -5.46726 -5.1341 4
      vertex -6.06763 -4.40839 0
      vertex -6.06763 -4.40839 4
    endloop
  endfacet
  facet normal 0.770508 0.637431 0
    outer loop
      vertex -6.06763 -4.40839 0
      vertex -5.46726 -5.1341 4
      vertex -5.46726 -5.1341 0
    endloop
  endfacet
  facet normal 0.481749 0.876309 -0
    outer loop
      vertex -3.19334 -6.7862 0
      vertex -4.0187 -6.33246 4
      vertex -3.19334 -6.7862 4
    endloop
  endfacet
  facet normal 0.481749 0.876309 0
    outer loop
      vertex -4.0187 -6.33246 4
      vertex -3.19334 -6.7862 0
      vertex -4.0187 -6.33246 0
    endloop
  endfacet
endsolid OpenSCAD_Model
