solid OpenSCAD_Model
  facet normal -0 0 1
    outer loop
      vertex 1.17089 -2.48827 0
      vertex 1.25 -2.75 0
      vertex 1.25 -2.44478 0
    endloop
  endfacet
  facet normal -0 0 1
    outer loop
      vertex 0.849796 -2.61541 0
      vertex 1.25 -2.75 0
      vertex 1.17089 -2.48827 0
    endloop
  endfacet
  facet normal -0 0 1
    outer loop
      vertex 0.515298 -2.70129 0
      vertex 1.25 -2.75 0
      vertex 0.849796 -2.61541 0
    endloop
  endfacet
  facet normal -0 0 1
    outer loop
      vertex 0.172673 -2.74457 0
      vertex 1.25 -2.75 0
      vertex 0.515298 -2.70129 0
    endloop
  endfacet
  facet normal -0 0 1
    outer loop
      vertex -0.172673 -2.74457 0
      vertex 1.25 -2.75 0
      vertex 0.172673 -2.74457 0
    endloop
  endfacet
  facet normal 0 0 1
    outer loop
      vertex -0.172673 -2.74457 0
      vertex -1.25 -2.75 0
      vertex 1.25 -2.75 0
    endloop
  endfacet
  facet normal 0 0 1
    outer loop
      vertex -0.515298 -2.70129 0
      vertex -1.25 -2.75 0
      vertex -0.172673 -2.74457 0
    endloop
  endfacet
  facet normal 0 0 1
    outer loop
      vertex -0.849796 -2.61541 0
      vertex -1.25 -2.75 0
      vertex -0.515298 -2.70129 0
    endloop
  endfacet
  facet normal 0 0 1
    outer loop
      vertex -1.17089 -2.48827 0
      vertex -1.25 -2.75 0
      vertex -0.849796 -2.61541 0
    endloop
  endfacet
  facet normal 0 0 1
    outer loop
      vertex -1.25 -2.75 0
      vertex -1.17089 -2.48827 0
      vertex -1.25 -2.44478 0
    endloop
  endfacet
  facet normal 0 0 1
    outer loop
      vertex 1.25 2.75 0
      vertex 1.17089 2.48827 0
      vertex 1.25 2.44478 0
    endloop
  endfacet
  facet normal 0 0 1
    outer loop
      vertex 1.25 2.75 0
      vertex 0.849796 2.61541 0
      vertex 1.17089 2.48827 0
    endloop
  endfacet
  facet normal 0 0 1
    outer loop
      vertex 1.25 2.75 0
      vertex 0.515298 2.70129 0
      vertex 0.849796 2.61541 0
    endloop
  endfacet
  facet normal 0 0 1
    outer loop
      vertex 1.25 2.75 0
      vertex 0.172673 2.74457 0
      vertex 0.515298 2.70129 0
    endloop
  endfacet
  facet normal 0 0 1
    outer loop
      vertex 1.25 2.75 0
      vertex -0.172673 2.74457 0
      vertex 0.172673 2.74457 0
    endloop
  endfacet
  facet normal -0 0 1
    outer loop
      vertex -1.25 2.75 0
      vertex -0.172673 2.74457 0
      vertex 1.25 2.75 0
    endloop
  endfacet
  facet normal 0 0 1
    outer loop
      vertex -1.25 2.75 0
      vertex -0.515298 2.70129 0
      vertex -0.172673 2.74457 0
    endloop
  endfacet
  facet normal 0 0 1
    outer loop
      vertex -1.25 2.75 0
      vertex -0.849796 2.61541 0
      vertex -0.515298 2.70129 0
    endloop
  endfacet
  facet normal 0 0 1
    outer loop
      vertex -1.25 2.75 0
      vertex -1.17089 2.48827 0
      vertex -0.849796 2.61541 0
    endloop
  endfacet
  facet normal 0 0 1
    outer loop
      vertex -1.17089 2.48827 0
      vertex -1.25 2.75 0
      vertex -1.25 2.44478 0
    endloop
  endfacet
  facet normal 0 0 -1
    outer loop
      vertex 2.72832 -0.344666 0
      vertex 2.72832 0.344666 0
      vertex 2.75 0 0
    endloop
  endfacet
  facet normal 0 0 -1
    outer loop
      vertex 2.6636 -0.683897 0
      vertex 2.72832 0.344666 0
      vertex 2.72832 -0.344666 0
    endloop
  endfacet
  facet normal 0 0 -1
    outer loop
      vertex 2.6636 -0.683897 0
      vertex 2.6636 0.683897 0
      vertex 2.72832 0.344666 0
    endloop
  endfacet
  facet normal 0 0 -1
    outer loop
      vertex 2.55688 -1.01234 0
      vertex 2.6636 0.683897 0
      vertex 2.6636 -0.683897 0
    endloop
  endfacet
  facet normal 0 0 -1
    outer loop
      vertex 2.55688 -1.01234 0
      vertex 2.55688 1.01234 0
      vertex 2.6636 0.683897 0
    endloop
  endfacet
  facet normal 0 0 -1
    outer loop
      vertex 2.40984 -1.32482 0
      vertex 2.55688 1.01234 0
      vertex 2.55688 -1.01234 0
    endloop
  endfacet
  facet normal 0 0 -1
    outer loop
      vertex 2.40984 -1.32482 0
      vertex 2.40984 1.32482 0
      vertex 2.55688 1.01234 0
    endloop
  endfacet
  facet normal 0 0 -1
    outer loop
      vertex 2.2248 -1.61641 0
      vertex 2.40984 1.32482 0
      vertex 2.40984 -1.32482 0
    endloop
  endfacet
  facet normal 0 0 -1
    outer loop
      vertex 2.2248 -1.61641 0
      vertex 2.2248 1.61641 0
      vertex 2.40984 1.32482 0
    endloop
  endfacet
  facet normal 0 0 -1
    outer loop
      vertex 2.00466 -1.8825 0
      vertex 2.2248 1.61641 0
      vertex 2.2248 -1.61641 0
    endloop
  endfacet
  facet normal 0 0 -1
    outer loop
      vertex 2.00466 -1.8825 0
      vertex 2.00466 1.8825 0
      vertex 2.2248 1.61641 0
    endloop
  endfacet
  facet normal 0 0 -1
    outer loop
      vertex 1.75292 -2.11891 0
      vertex 2.00466 1.8825 0
      vertex 2.00466 -1.8825 0
    endloop
  endfacet
  facet normal 0 0 -1
    outer loop
      vertex 1.75292 -2.11891 0
      vertex 1.75292 2.11891 0
      vertex 2.00466 1.8825 0
    endloop
  endfacet
  facet normal 0 0 -1
    outer loop
      vertex 1.25 -2.44478 0
      vertex 1.75292 -2.11891 0
      vertex 1.47352 -2.3219 0
    endloop
  endfacet
  facet normal -0 0 -1
    outer loop
      vertex 1.75292 -2.11891 0
      vertex 1.25 -2.44478 0
      vertex 1.75292 2.11891 0
    endloop
  endfacet
  facet normal 0 0 -1
    outer loop
      vertex 1.25 2.44478 0
      vertex 1.75292 2.11891 0
      vertex 1.25 -2.44478 0
    endloop
  endfacet
  facet normal 0 0 -1
    outer loop
      vertex 1.75292 2.11891 0
      vertex 1.25 2.44478 0
      vertex 1.47352 2.3219 0
    endloop
  endfacet
  facet normal 0 0 -1
    outer loop
      vertex -1.75292 -2.11891 0
      vertex -1.25 -2.44478 0
      vertex -1.47352 -2.3219 0
    endloop
  endfacet
  facet normal 0 0 -1
    outer loop
      vertex -1.25 -2.44478 0
      vertex -1.75292 -2.11891 0
      vertex -1.25 2.44478 0
    endloop
  endfacet
  facet normal 0 0 -1
    outer loop
      vertex -1.75292 2.11891 0
      vertex -1.25 2.44478 0
      vertex -1.75292 -2.11891 0
    endloop
  endfacet
  facet normal 0 0 -1
    outer loop
      vertex -1.25 2.44478 0
      vertex -1.75292 2.11891 0
      vertex -1.47352 2.3219 0
    endloop
  endfacet
  facet normal 0 0 -1
    outer loop
      vertex -2.00466 -1.8825 0
      vertex -1.75292 2.11891 0
      vertex -1.75292 -2.11891 0
    endloop
  endfacet
  facet normal 0 0 -1
    outer loop
      vertex -2.00466 -1.8825 0
      vertex -2.00466 1.8825 0
      vertex -1.75292 2.11891 0
    endloop
  endfacet
  facet normal 0 0 -1
    outer loop
      vertex -2.2248 -1.61641 0
      vertex -2.00466 1.8825 0
      vertex -2.00466 -1.8825 0
    endloop
  endfacet
  facet normal 0 0 -1
    outer loop
      vertex -2.2248 -1.61641 0
      vertex -2.2248 1.61641 0
      vertex -2.00466 1.8825 0
    endloop
  endfacet
  facet normal 0 0 -1
    outer loop
      vertex -2.40984 -1.32482 0
      vertex -2.2248 1.61641 0
      vertex -2.2248 -1.61641 0
    endloop
  endfacet
  facet normal 0 0 -1
    outer loop
      vertex -2.40984 -1.32482 0
      vertex -2.40984 1.32482 0
      vertex -2.2248 1.61641 0
    endloop
  endfacet
  facet normal 0 0 -1
    outer loop
      vertex -2.55688 -1.01234 0
      vertex -2.40984 1.32482 0
      vertex -2.40984 -1.32482 0
    endloop
  endfacet
  facet normal 0 0 -1
    outer loop
      vertex -2.55688 -1.01234 0
      vertex -2.55688 1.01234 0
      vertex -2.40984 1.32482 0
    endloop
  endfacet
  facet normal 0 0 -1
    outer loop
      vertex -2.6636 -0.683897 0
      vertex -2.55688 1.01234 0
      vertex -2.55688 -1.01234 0
    endloop
  endfacet
  facet normal 0 0 -1
    outer loop
      vertex -2.6636 -0.683897 0
      vertex -2.6636 0.683897 0
      vertex -2.55688 1.01234 0
    endloop
  endfacet
  facet normal 0 0 -1
    outer loop
      vertex -2.72832 -0.344666 0
      vertex -2.6636 0.683897 0
      vertex -2.6636 -0.683897 0
    endloop
  endfacet
  facet normal 0 0 -1
    outer loop
      vertex -2.72832 -0.344666 0
      vertex -2.72832 0.344666 0
      vertex -2.6636 0.683897 0
    endloop
  endfacet
  facet normal 0 -0 -1
    outer loop
      vertex -2.72832 0.344666 0
      vertex -2.72832 -0.344666 0
      vertex -2.75 0 0
    endloop
  endfacet
  facet normal 0 0 -1
    outer loop
      vertex 0.992114 -0.125333 -12
      vertex 0.992114 0.125333 -12
      vertex 1 0 -12
    endloop
  endfacet
  facet normal 0 0 -1
    outer loop
      vertex 0.968583 -0.24869 -12
      vertex 0.992114 0.125333 -12
      vertex 0.992114 -0.125333 -12
    endloop
  endfacet
  facet normal 0 0 -1
    outer loop
      vertex 0.968583 -0.24869 -12
      vertex 0.968583 0.24869 -12
      vertex 0.992114 0.125333 -12
    endloop
  endfacet
  facet normal 0 0 -1
    outer loop
      vertex 0.929776 -0.368124 -12
      vertex 0.968583 0.24869 -12
      vertex 0.968583 -0.24869 -12
    endloop
  endfacet
  facet normal 0 0 -1
    outer loop
      vertex 0.929776 -0.368124 -12
      vertex 0.929776 0.368124 -12
      vertex 0.968583 0.24869 -12
    endloop
  endfacet
  facet normal 0 0 -1
    outer loop
      vertex 0.876307 -0.481753 -12
      vertex 0.929776 0.368124 -12
      vertex 0.929776 -0.368124 -12
    endloop
  endfacet
  facet normal 0 0 -1
    outer loop
      vertex 0.876307 -0.481753 -12
      vertex 0.876307 0.481753 -12
      vertex 0.929776 0.368124 -12
    endloop
  endfacet
  facet normal 0 0 -1
    outer loop
      vertex 0.809016 -0.587785 -12
      vertex 0.876307 0.481753 -12
      vertex 0.876307 -0.481753 -12
    endloop
  endfacet
  facet normal 0 0 -1
    outer loop
      vertex 0.809016 -0.587785 -12
      vertex 0.809016 0.587785 -12
      vertex 0.876307 0.481753 -12
    endloop
  endfacet
  facet normal 0 0 -1
    outer loop
      vertex 0.728969 -0.684546 -12
      vertex 0.809016 0.587785 -12
      vertex 0.809016 -0.587785 -12
    endloop
  endfacet
  facet normal 0 0 -1
    outer loop
      vertex 0.728969 -0.684546 -12
      vertex 0.728969 0.684546 -12
      vertex 0.809016 0.587785 -12
    endloop
  endfacet
  facet normal 0 0 -1
    outer loop
      vertex 0.637424 -0.770513 -12
      vertex 0.728969 0.684546 -12
      vertex 0.728969 -0.684546 -12
    endloop
  endfacet
  facet normal 0 0 -1
    outer loop
      vertex 0.637424 -0.770513 -12
      vertex 0.637424 0.770513 -12
      vertex 0.728969 0.684546 -12
    endloop
  endfacet
  facet normal 0 0 -1
    outer loop
      vertex 0.535827 -0.844327 -12
      vertex 0.637424 0.770513 -12
      vertex 0.637424 -0.770513 -12
    endloop
  endfacet
  facet normal 0 0 -1
    outer loop
      vertex 0.535827 -0.844327 -12
      vertex 0.535827 0.844327 -12
      vertex 0.637424 0.770513 -12
    endloop
  endfacet
  facet normal 0 0 -1
    outer loop
      vertex 0.425778 -0.904826 -12
      vertex 0.535827 0.844327 -12
      vertex 0.535827 -0.844327 -12
    endloop
  endfacet
  facet normal 0 0 -1
    outer loop
      vertex 0.425778 -0.904826 -12
      vertex 0.425778 0.904826 -12
      vertex 0.535827 0.844327 -12
    endloop
  endfacet
  facet normal 0 0 -1
    outer loop
      vertex 0.309016 -0.951056 -12
      vertex 0.425778 0.904826 -12
      vertex 0.425778 -0.904826 -12
    endloop
  endfacet
  facet normal 0 0 -1
    outer loop
      vertex 0.309016 -0.951056 -12
      vertex 0.309016 0.951056 -12
      vertex 0.425778 0.904826 -12
    endloop
  endfacet
  facet normal 0 0 -1
    outer loop
      vertex 0.187381 -0.982286 -12
      vertex 0.309016 0.951056 -12
      vertex 0.309016 -0.951056 -12
    endloop
  endfacet
  facet normal 0 0 -1
    outer loop
      vertex 0.187381 -0.982286 -12
      vertex 0.187381 0.982286 -12
      vertex 0.309016 0.951056 -12
    endloop
  endfacet
  facet normal 0 0 -1
    outer loop
      vertex 0.0627899 -0.998026 -12
      vertex 0.187381 0.982286 -12
      vertex 0.187381 -0.982286 -12
    endloop
  endfacet
  facet normal 0 0 -1
    outer loop
      vertex 0.0627899 -0.998026 -12
      vertex 0.0627899 0.998026 -12
      vertex 0.187381 0.982286 -12
    endloop
  endfacet
  facet normal 0 0 -1
    outer loop
      vertex -0.0627899 -0.998026 -12
      vertex 0.0627899 0.998026 -12
      vertex 0.0627899 -0.998026 -12
    endloop
  endfacet
  facet normal 0 0 -1
    outer loop
      vertex -0.0627899 -0.998026 -12
      vertex -0.0627899 0.998026 -12
      vertex 0.0627899 0.998026 -12
    endloop
  endfacet
  facet normal 0 0 -1
    outer loop
      vertex -0.187381 -0.982286 -12
      vertex -0.0627899 0.998026 -12
      vertex -0.0627899 -0.998026 -12
    endloop
  endfacet
  facet normal 0 0 -1
    outer loop
      vertex -0.187381 -0.982286 -12
      vertex -0.187381 0.982286 -12
      vertex -0.0627899 0.998026 -12
    endloop
  endfacet
  facet normal 0 0 -1
    outer loop
      vertex -0.309016 -0.951056 -12
      vertex -0.187381 0.982286 -12
      vertex -0.187381 -0.982286 -12
    endloop
  endfacet
  facet normal 0 0 -1
    outer loop
      vertex -0.309016 -0.951056 -12
      vertex -0.309016 0.951056 -12
      vertex -0.187381 0.982286 -12
    endloop
  endfacet
  facet normal 0 0 -1
    outer loop
      vertex -0.425778 -0.904826 -12
      vertex -0.309016 0.951056 -12
      vertex -0.309016 -0.951056 -12
    endloop
  endfacet
  facet normal 0 0 -1
    outer loop
      vertex -0.425778 -0.904826 -12
      vertex -0.425778 0.904826 -12
      vertex -0.309016 0.951056 -12
    endloop
  endfacet
  facet normal 0 0 -1
    outer loop
      vertex -0.535827 -0.844327 -12
      vertex -0.425778 0.904826 -12
      vertex -0.425778 -0.904826 -12
    endloop
  endfacet
  facet normal 0 0 -1
    outer loop
      vertex -0.535827 -0.844327 -12
      vertex -0.535827 0.844327 -12
      vertex -0.425778 0.904826 -12
    endloop
  endfacet
  facet normal 0 0 -1
    outer loop
      vertex -0.637424 -0.770513 -12
      vertex -0.535827 0.844327 -12
      vertex -0.535827 -0.844327 -12
    endloop
  endfacet
  facet normal 0 0 -1
    outer loop
      vertex -0.637424 -0.770513 -12
      vertex -0.637424 0.770513 -12
      vertex -0.535827 0.844327 -12
    endloop
  endfacet
  facet normal 0 0 -1
    outer loop
      vertex -0.728969 -0.684546 -12
      vertex -0.637424 0.770513 -12
      vertex -0.637424 -0.770513 -12
    endloop
  endfacet
  facet normal 0 0 -1
    outer loop
      vertex -0.728969 -0.684546 -12
      vertex -0.728969 0.684546 -12
      vertex -0.637424 0.770513 -12
    endloop
  endfacet
  facet normal 0 0 -1
    outer loop
      vertex -0.809016 -0.587785 -12
      vertex -0.728969 0.684546 -12
      vertex -0.728969 -0.684546 -12
    endloop
  endfacet
  facet normal 0 0 -1
    outer loop
      vertex -0.809016 -0.587785 -12
      vertex -0.809016 0.587785 -12
      vertex -0.728969 0.684546 -12
    endloop
  endfacet
  facet normal 0 0 -1
    outer loop
      vertex -0.876307 -0.481753 -12
      vertex -0.809016 0.587785 -12
      vertex -0.809016 -0.587785 -12
    endloop
  endfacet
  facet normal 0 0 -1
    outer loop
      vertex -0.876307 -0.481753 -12
      vertex -0.876307 0.481753 -12
      vertex -0.809016 0.587785 -12
    endloop
  endfacet
  facet normal 0 0 -1
    outer loop
      vertex -0.929776 -0.368124 -12
      vertex -0.876307 0.481753 -12
      vertex -0.876307 -0.481753 -12
    endloop
  endfacet
  facet normal 0 0 -1
    outer loop
      vertex -0.929776 -0.368124 -12
      vertex -0.929776 0.368124 -12
      vertex -0.876307 0.481753 -12
    endloop
  endfacet
  facet normal 0 0 -1
    outer loop
      vertex -0.968583 -0.24869 -12
      vertex -0.929776 0.368124 -12
      vertex -0.929776 -0.368124 -12
    endloop
  endfacet
  facet normal 0 0 -1
    outer loop
      vertex -0.968583 -0.24869 -12
      vertex -0.968583 0.24869 -12
      vertex -0.929776 0.368124 -12
    endloop
  endfacet
  facet normal 0 0 -1
    outer loop
      vertex -0.992114 -0.125333 -12
      vertex -0.968583 0.24869 -12
      vertex -0.968583 -0.24869 -12
    endloop
  endfacet
  facet normal 0 0 -1
    outer loop
      vertex -0.992114 -0.125333 -12
      vertex -0.992114 0.125333 -12
      vertex -0.968583 0.24869 -12
    endloop
  endfacet
  facet normal 0 -0 -1
    outer loop
      vertex -0.992114 0.125333 -12
      vertex -0.992114 -0.125333 -12
      vertex -1 0 -12
    endloop
  endfacet
  facet normal 0.998028 0.0627774 4.85635e-20
    outer loop
      vertex 2.75 0 2.5
      vertex 2.72832 0.344666 0
      vertex 2.72832 0.344666 2.5
    endloop
  endfacet
  facet normal 0.998028 0.0627774 4.85635e-20
    outer loop
      vertex 2.72832 0.344666 0
      vertex 2.75 0 2.5
      vertex 2.75 0 0
    endloop
  endfacet
  facet normal -0.998028 0.0627774 -4.85635e-20
    outer loop
      vertex -2.75 0 0
      vertex -2.72832 0.344666 2.5
      vertex -2.72832 0.344666 0
    endloop
  endfacet
  facet normal -0.998028 0.0627774 -4.85635e-20
    outer loop
      vertex -2.72832 0.344666 2.5
      vertex -2.75 0 0
      vertex -2.75 0 2.5
    endloop
  endfacet
  facet normal 0 1 -0
    outer loop
      vertex 0.172673 2.74457 0
      vertex -0.172673 2.74457 2.5
      vertex 0.172673 2.74457 2.5
    endloop
  endfacet
  facet normal 0 1 0
    outer loop
      vertex -0.172673 2.74457 2.5
      vertex 0.172673 2.74457 0
      vertex -0.172673 2.74457 0
    endloop
  endfacet
  facet normal 0 -1 0
    outer loop
      vertex -0.172673 -2.74457 0
      vertex 0.172673 -2.74457 2.5
      vertex -0.172673 -2.74457 2.5
    endloop
  endfacet
  facet normal 0 -1 -0
    outer loop
      vertex 0.172673 -2.74457 2.5
      vertex -0.172673 -2.74457 0
      vertex 0.172673 -2.74457 0
    endloop
  endfacet
  facet normal 0.684563 0.728954 -0
    outer loop
      vertex 2.00466 1.8825 0
      vertex 1.75292 2.11891 2.5
      vertex 2.00466 1.8825 2.5
    endloop
  endfacet
  facet normal 0.684563 0.728954 0
    outer loop
      vertex 1.75292 2.11891 2.5
      vertex 2.00466 1.8825 0
      vertex 1.75292 2.11891 0
    endloop
  endfacet
  facet normal -0.684563 0.728954 0
    outer loop
      vertex -1.75292 2.11891 0
      vertex -2.00466 1.8825 2.5
      vertex -1.75292 2.11891 2.5
    endloop
  endfacet
  facet normal -0.684563 0.728954 0
    outer loop
      vertex -2.00466 1.8825 2.5
      vertex -1.75292 2.11891 0
      vertex -2.00466 1.8825 0
    endloop
  endfacet
  facet normal -0.368149 0.929767 0
    outer loop
      vertex -0.849796 2.61541 0
      vertex -1.17089 2.48827 2.5
      vertex -0.849796 2.61541 2.5
    endloop
  endfacet
  facet normal -0.368149 0.929767 0
    outer loop
      vertex -1.17089 2.48827 2.5
      vertex -0.849796 2.61541 0
      vertex -1.17089 2.48827 0
    endloop
  endfacet
  facet normal 0.904829 0.425775 3.63e-18
    outer loop
      vertex 2.55688 1.01234 2.5
      vertex 2.40984 1.32482 0
      vertex 2.40984 1.32482 2.5
    endloop
  endfacet
  facet normal 0.904829 0.425775 3.63e-18
    outer loop
      vertex 2.40984 1.32482 0
      vertex 2.55688 1.01234 2.5
      vertex 2.55688 1.01234 0
    endloop
  endfacet
  facet normal 0.368149 0.929767 -0
    outer loop
      vertex 1.17089 2.48827 0
      vertex 0.849796 2.61541 2.5
      vertex 1.17089 2.48827 2.5
    endloop
  endfacet
  facet normal 0.368149 0.929767 0
    outer loop
      vertex 0.849796 2.61541 2.5
      vertex 1.17089 2.48827 0
      vertex 0.849796 2.61541 0
    endloop
  endfacet
  facet normal 0.587774 0.809025 -0
    outer loop
      vertex 1.75292 2.11891 0
      vertex 1.47352 2.3219 2.5
      vertex 1.75292 2.11891 2.5
    endloop
  endfacet
  facet normal 0.587774 0.809025 0
    outer loop
      vertex 1.47352 2.3219 2.5
      vertex 1.75292 2.11891 0
      vertex 1.47352 2.3219 0
    endloop
  endfacet
  facet normal -0.844339 0.535809 -1.45592e-18
    outer loop
      vertex -2.40984 1.32482 0
      vertex -2.2248 1.61641 2.5
      vertex -2.2248 1.61641 0
    endloop
  endfacet
  facet normal -0.844339 0.535809 -1.45592e-18
    outer loop
      vertex -2.2248 1.61641 2.5
      vertex -2.40984 1.32482 0
      vertex -2.40984 1.32482 2.5
    endloop
  endfacet
  facet normal -0.770497 0.637443 9.92849e-19
    outer loop
      vertex -2.2248 1.61641 0
      vertex -2.00466 1.8825 2.5
      vertex -2.00466 1.8825 0
    endloop
  endfacet
  facet normal -0.770497 0.637443 9.92849e-19
    outer loop
      vertex -2.00466 1.8825 2.5
      vertex -2.2248 1.61641 0
      vertex -2.2248 1.61641 2.5
    endloop
  endfacet
  facet normal 0 0 1
    outer loop
      vertex 2.72832 0.344666 2.5
      vertex 2.72832 -0.344666 2.5
      vertex 2.75 0 2.5
    endloop
  endfacet
  facet normal 0 0 1
    outer loop
      vertex 2.6636 0.683897 2.5
      vertex 2.72832 -0.344666 2.5
      vertex 2.72832 0.344666 2.5
    endloop
  endfacet
  facet normal 0 0 1
    outer loop
      vertex 2.6636 0.683897 2.5
      vertex 2.6636 -0.683897 2.5
      vertex 2.72832 -0.344666 2.5
    endloop
  endfacet
  facet normal 0 0 1
    outer loop
      vertex 2.55688 1.01234 2.5
      vertex 2.6636 -0.683897 2.5
      vertex 2.6636 0.683897 2.5
    endloop
  endfacet
  facet normal 0 0 1
    outer loop
      vertex 2.55688 1.01234 2.5
      vertex 2.55688 -1.01234 2.5
      vertex 2.6636 -0.683897 2.5
    endloop
  endfacet
  facet normal 0 0 1
    outer loop
      vertex 2.40984 1.32482 2.5
      vertex 2.55688 -1.01234 2.5
      vertex 2.55688 1.01234 2.5
    endloop
  endfacet
  facet normal 0 0 1
    outer loop
      vertex 2.40984 1.32482 2.5
      vertex 2.40984 -1.32482 2.5
      vertex 2.55688 -1.01234 2.5
    endloop
  endfacet
  facet normal 0 0 1
    outer loop
      vertex 2.2248 1.61641 2.5
      vertex 2.40984 -1.32482 2.5
      vertex 2.40984 1.32482 2.5
    endloop
  endfacet
  facet normal 0 0 1
    outer loop
      vertex 2.2248 1.61641 2.5
      vertex 2.2248 -1.61641 2.5
      vertex 2.40984 -1.32482 2.5
    endloop
  endfacet
  facet normal 0 0 1
    outer loop
      vertex 2.00466 1.8825 2.5
      vertex 2.2248 -1.61641 2.5
      vertex 2.2248 1.61641 2.5
    endloop
  endfacet
  facet normal 0 0 1
    outer loop
      vertex 2.00466 1.8825 2.5
      vertex 2.00466 -1.8825 2.5
      vertex 2.2248 -1.61641 2.5
    endloop
  endfacet
  facet normal 0 0 1
    outer loop
      vertex 1.75292 2.11891 2.5
      vertex 2.00466 -1.8825 2.5
      vertex 2.00466 1.8825 2.5
    endloop
  endfacet
  facet normal 0 0 1
    outer loop
      vertex 1.75292 2.11891 2.5
      vertex 1.75292 -2.11891 2.5
      vertex 2.00466 -1.8825 2.5
    endloop
  endfacet
  facet normal 0 0 1
    outer loop
      vertex 1.47352 2.3219 2.5
      vertex 1.75292 -2.11891 2.5
      vertex 1.75292 2.11891 2.5
    endloop
  endfacet
  facet normal 0 0 1
    outer loop
      vertex 1.47352 2.3219 2.5
      vertex 1.47352 -2.3219 2.5
      vertex 1.75292 -2.11891 2.5
    endloop
  endfacet
  facet normal 0 0 1
    outer loop
      vertex 1.17089 2.48827 2.5
      vertex 1.47352 -2.3219 2.5
      vertex 1.47352 2.3219 2.5
    endloop
  endfacet
  facet normal 0 0 1
    outer loop
      vertex 1.17089 2.48827 2.5
      vertex 1.17089 -2.48827 2.5
      vertex 1.47352 -2.3219 2.5
    endloop
  endfacet
  facet normal 0 0 1
    outer loop
      vertex 0.849796 2.61541 2.5
      vertex 1.17089 -2.48827 2.5
      vertex 1.17089 2.48827 2.5
    endloop
  endfacet
  facet normal 0 0 1
    outer loop
      vertex 0.849796 2.61541 2.5
      vertex 0.849796 -2.61541 2.5
      vertex 1.17089 -2.48827 2.5
    endloop
  endfacet
  facet normal 0 0 1
    outer loop
      vertex 0.515298 2.70129 2.5
      vertex 0.849796 -2.61541 2.5
      vertex 0.849796 2.61541 2.5
    endloop
  endfacet
  facet normal 0 0 1
    outer loop
      vertex 0.515298 2.70129 2.5
      vertex 0.515298 -2.70129 2.5
      vertex 0.849796 -2.61541 2.5
    endloop
  endfacet
  facet normal 0 0 1
    outer loop
      vertex 0.172673 2.74457 2.5
      vertex 0.515298 -2.70129 2.5
      vertex 0.515298 2.70129 2.5
    endloop
  endfacet
  facet normal 0 0 1
    outer loop
      vertex 0.172673 2.74457 2.5
      vertex 0.172673 -2.74457 2.5
      vertex 0.515298 -2.70129 2.5
    endloop
  endfacet
  facet normal -0 0 1
    outer loop
      vertex -0.172673 2.74457 2.5
      vertex 0.172673 -2.74457 2.5
      vertex 0.172673 2.74457 2.5
    endloop
  endfacet
  facet normal 0 0 1
    outer loop
      vertex -0.172673 2.74457 2.5
      vertex -0.172673 -2.74457 2.5
      vertex 0.172673 -2.74457 2.5
    endloop
  endfacet
  facet normal -0 0 1
    outer loop
      vertex -0.515298 2.70129 2.5
      vertex -0.172673 -2.74457 2.5
      vertex -0.172673 2.74457 2.5
    endloop
  endfacet
  facet normal 0 0 1
    outer loop
      vertex -0.515298 2.70129 2.5
      vertex -0.515298 -2.70129 2.5
      vertex -0.172673 -2.74457 2.5
    endloop
  endfacet
  facet normal -0 0 1
    outer loop
      vertex -0.849796 2.61541 2.5
      vertex -0.515298 -2.70129 2.5
      vertex -0.515298 2.70129 2.5
    endloop
  endfacet
  facet normal 0 0 1
    outer loop
      vertex -0.849796 2.61541 2.5
      vertex -0.849796 -2.61541 2.5
      vertex -0.515298 -2.70129 2.5
    endloop
  endfacet
  facet normal -0 0 1
    outer loop
      vertex -1.17089 2.48827 2.5
      vertex -0.849796 -2.61541 2.5
      vertex -0.849796 2.61541 2.5
    endloop
  endfacet
  facet normal 0 0 1
    outer loop
      vertex -1.17089 2.48827 2.5
      vertex -1.17089 -2.48827 2.5
      vertex -0.849796 -2.61541 2.5
    endloop
  endfacet
  facet normal -0 0 1
    outer loop
      vertex -1.47352 2.3219 2.5
      vertex -1.17089 -2.48827 2.5
      vertex -1.17089 2.48827 2.5
    endloop
  endfacet
  facet normal 0 0 1
    outer loop
      vertex -1.47352 2.3219 2.5
      vertex -1.47352 -2.3219 2.5
      vertex -1.17089 -2.48827 2.5
    endloop
  endfacet
  facet normal -0 0 1
    outer loop
      vertex -1.75292 2.11891 2.5
      vertex -1.47352 -2.3219 2.5
      vertex -1.47352 2.3219 2.5
    endloop
  endfacet
  facet normal 0 0 1
    outer loop
      vertex -1.75292 2.11891 2.5
      vertex -1.75292 -2.11891 2.5
      vertex -1.47352 -2.3219 2.5
    endloop
  endfacet
  facet normal -0 0 1
    outer loop
      vertex -2.00466 1.8825 2.5
      vertex -1.75292 -2.11891 2.5
      vertex -1.75292 2.11891 2.5
    endloop
  endfacet
  facet normal 0 0 1
    outer loop
      vertex -2.00466 1.8825 2.5
      vertex -2.00466 -1.8825 2.5
      vertex -1.75292 -2.11891 2.5
    endloop
  endfacet
  facet normal -0 0 1
    outer loop
      vertex -2.2248 1.61641 2.5
      vertex -2.00466 -1.8825 2.5
      vertex -2.00466 1.8825 2.5
    endloop
  endfacet
  facet normal 0 0 1
    outer loop
      vertex -2.2248 1.61641 2.5
      vertex -2.2248 -1.61641 2.5
      vertex -2.00466 -1.8825 2.5
    endloop
  endfacet
  facet normal -0 0 1
    outer loop
      vertex -2.40984 1.32482 2.5
      vertex -2.2248 -1.61641 2.5
      vertex -2.2248 1.61641 2.5
    endloop
  endfacet
  facet normal 0 0 1
    outer loop
      vertex -2.40984 1.32482 2.5
      vertex -2.40984 -1.32482 2.5
      vertex -2.2248 -1.61641 2.5
    endloop
  endfacet
  facet normal -0 0 1
    outer loop
      vertex -2.55688 1.01234 2.5
      vertex -2.40984 -1.32482 2.5
      vertex -2.40984 1.32482 2.5
    endloop
  endfacet
  facet normal 0 0 1
    outer loop
      vertex -2.55688 1.01234 2.5
      vertex -2.55688 -1.01234 2.5
      vertex -2.40984 -1.32482 2.5
    endloop
  endfacet
  facet normal -0 0 1
    outer loop
      vertex -2.6636 0.683897 2.5
      vertex -2.55688 -1.01234 2.5
      vertex -2.55688 1.01234 2.5
    endloop
  endfacet
  facet normal 0 0 1
    outer loop
      vertex -2.6636 0.683897 2.5
      vertex -2.6636 -0.683897 2.5
      vertex -2.55688 -1.01234 2.5
    endloop
  endfacet
  facet normal -0 0 1
    outer loop
      vertex -2.72832 0.344666 2.5
      vertex -2.6636 -0.683897 2.5
      vertex -2.6636 0.683897 2.5
    endloop
  endfacet
  facet normal 0 0 1
    outer loop
      vertex -2.72832 0.344666 2.5
      vertex -2.72832 -0.344666 2.5
      vertex -2.6636 -0.683897 2.5
    endloop
  endfacet
  facet normal 0 -0 1
    outer loop
      vertex -2.72832 -0.344666 2.5
      vertex -2.72832 0.344666 2.5
      vertex -2.75 0 2.5
    endloop
  endfacet
  facet normal -0.481744 0.876312 1.43555e-19
    outer loop
      vertex -1.25 2.44478 0
      vertex -1.17089 2.48827 2.5
      vertex -1.17089 2.48827 0
    endloop
  endfacet
  facet normal -0.481749 0.876309 1.76055e-07
    outer loop
      vertex -1.17089 2.48827 2.5
      vertex -1.25 2.44478 0
      vertex -1.47352 2.3219 2.5
    endloop
  endfacet
  facet normal -0.48175 0.876309 0
    outer loop
      vertex -1.47352 2.3219 2.5
      vertex -1.25 2.44478 0
      vertex -1.47352 2.3219 0
    endloop
  endfacet
  facet normal -0.248678 0.968586 0
    outer loop
      vertex -0.515298 2.70129 0
      vertex -0.849796 2.61541 2.5
      vertex -0.515298 2.70129 2.5
    endloop
  endfacet
  facet normal -0.248678 0.968586 0
    outer loop
      vertex -0.849796 2.61541 2.5
      vertex -0.515298 2.70129 0
      vertex -0.849796 2.61541 0
    endloop
  endfacet
  facet normal 0.125323 -0.992116 0
    outer loop
      vertex 0.172673 -2.74457 0
      vertex 0.515298 -2.70129 2.5
      vertex 0.172673 -2.74457 2.5
    endloop
  endfacet
  facet normal 0.125323 -0.992116 0
    outer loop
      vertex 0.515298 -2.70129 2.5
      vertex 0.172673 -2.74457 0
      vertex 0.515298 -2.70129 0
    endloop
  endfacet
  facet normal 0.951054 0.309023 3.42987e-18
    outer loop
      vertex 2.6636 0.683897 2.5
      vertex 2.55688 1.01234 0
      vertex 2.55688 1.01234 2.5
    endloop
  endfacet
  facet normal 0.951054 0.309023 3.42987e-18
    outer loop
      vertex 2.55688 1.01234 0
      vertex 2.6636 0.683897 2.5
      vertex 2.6636 0.683897 0
    endloop
  endfacet
  facet normal 0.982283 0.187404 1.8817e-18
    outer loop
      vertex 2.72832 0.344666 2.5
      vertex 2.6636 0.683897 0
      vertex 2.6636 0.683897 2.5
    endloop
  endfacet
  facet normal 0.982283 0.187404 1.8817e-18
    outer loop
      vertex 2.6636 0.683897 0
      vertex 2.72832 0.344666 2.5
      vertex 2.72832 0.344666 0
    endloop
  endfacet
  facet normal 0.770497 0.637443 -9.92849e-19
    outer loop
      vertex 2.2248 1.61641 2.5
      vertex 2.00466 1.8825 0
      vertex 2.00466 1.8825 2.5
    endloop
  endfacet
  facet normal 0.770497 0.637443 -9.92849e-19
    outer loop
      vertex 2.00466 1.8825 0
      vertex 2.2248 1.61641 2.5
      vertex 2.2248 1.61641 0
    endloop
  endfacet
  facet normal 0.844339 0.535809 1.45592e-18
    outer loop
      vertex 2.40984 1.32482 2.5
      vertex 2.2248 1.61641 0
      vertex 2.2248 1.61641 2.5
    endloop
  endfacet
  facet normal 0.844339 0.535809 1.45592e-18
    outer loop
      vertex 2.2248 1.61641 0
      vertex 2.40984 1.32482 2.5
      vertex 2.40984 1.32482 0
    endloop
  endfacet
  facet normal 0.248678 0.968586 -0
    outer loop
      vertex 0.849796 2.61541 0
      vertex 0.515298 2.70129 2.5
      vertex 0.849796 2.61541 2.5
    endloop
  endfacet
  facet normal 0.248678 0.968586 0
    outer loop
      vertex 0.515298 2.70129 2.5
      vertex 0.849796 2.61541 0
      vertex 0.515298 2.70129 0
    endloop
  endfacet
  facet normal 0.125323 0.992116 -0
    outer loop
      vertex 0.515298 2.70129 0
      vertex 0.172673 2.74457 2.5
      vertex 0.515298 2.70129 2.5
    endloop
  endfacet
  facet normal 0.125323 0.992116 0
    outer loop
      vertex 0.172673 2.74457 2.5
      vertex 0.515298 2.70129 0
      vertex 0.172673 2.74457 0
    endloop
  endfacet
  facet normal 0.48175 0.876309 -4.94133e-19
    outer loop
      vertex 1.25 2.44478 0
      vertex 1.47352 2.3219 2.5
      vertex 1.47352 2.3219 0
    endloop
  endfacet
  facet normal 0.481749 0.876309 1.76055e-07
    outer loop
      vertex 1.47352 2.3219 2.5
      vertex 1.25 2.44478 0
      vertex 1.17089 2.48827 2.5
    endloop
  endfacet
  facet normal 0.481744 0.876312 0
    outer loop
      vertex 1.17089 2.48827 2.5
      vertex 1.25 2.44478 0
      vertex 1.17089 2.48827 0
    endloop
  endfacet
  facet normal -0.904829 0.425775 -3.63e-18
    outer loop
      vertex -2.55688 1.01234 0
      vertex -2.40984 1.32482 2.5
      vertex -2.40984 1.32482 0
    endloop
  endfacet
  facet normal -0.904829 0.425775 -3.63e-18
    outer loop
      vertex -2.40984 1.32482 2.5
      vertex -2.55688 1.01234 0
      vertex -2.55688 1.01234 2.5
    endloop
  endfacet
  facet normal -0.982283 0.187404 -1.8817e-18
    outer loop
      vertex -2.72832 0.344666 0
      vertex -2.6636 0.683897 2.5
      vertex -2.6636 0.683897 0
    endloop
  endfacet
  facet normal -0.982283 0.187404 -1.8817e-18
    outer loop
      vertex -2.6636 0.683897 2.5
      vertex -2.72832 0.344666 0
      vertex -2.72832 0.344666 2.5
    endloop
  endfacet
  facet normal -0.587774 0.809025 0
    outer loop
      vertex -1.47352 2.3219 0
      vertex -1.75292 2.11891 2.5
      vertex -1.47352 2.3219 2.5
    endloop
  endfacet
  facet normal -0.587774 0.809025 0
    outer loop
      vertex -1.75292 2.11891 2.5
      vertex -1.47352 2.3219 0
      vertex -1.75292 2.11891 0
    endloop
  endfacet
  facet normal -0.125323 0.992116 0
    outer loop
      vertex -0.172673 2.74457 0
      vertex -0.515298 2.70129 2.5
      vertex -0.172673 2.74457 2.5
    endloop
  endfacet
  facet normal -0.125323 0.992116 0
    outer loop
      vertex -0.515298 2.70129 2.5
      vertex -0.172673 2.74457 0
      vertex -0.515298 2.70129 0
    endloop
  endfacet
  facet normal 0.998028 -0.0627774 -4.85635e-20
    outer loop
      vertex 2.72832 -0.344666 2.5
      vertex 2.75 0 0
      vertex 2.75 0 2.5
    endloop
  endfacet
  facet normal 0.998028 -0.0627774 -4.85635e-20
    outer loop
      vertex 2.75 0 0
      vertex 2.72832 -0.344666 2.5
      vertex 2.72832 -0.344666 0
    endloop
  endfacet
  facet normal 0.770497 -0.637443 9.92849e-19
    outer loop
      vertex 2.00466 -1.8825 2.5
      vertex 2.2248 -1.61641 0
      vertex 2.2248 -1.61641 2.5
    endloop
  endfacet
  facet normal 0.770497 -0.637443 9.92849e-19
    outer loop
      vertex 2.2248 -1.61641 0
      vertex 2.00466 -1.8825 2.5
      vertex 2.00466 -1.8825 0
    endloop
  endfacet
  facet normal -0.684563 -0.728954 0
    outer loop
      vertex -2.00466 -1.8825 0
      vertex -1.75292 -2.11891 2.5
      vertex -2.00466 -1.8825 2.5
    endloop
  endfacet
  facet normal -0.684563 -0.728954 -0
    outer loop
      vertex -1.75292 -2.11891 2.5
      vertex -2.00466 -1.8825 0
      vertex -1.75292 -2.11891 0
    endloop
  endfacet
  facet normal -0.998028 -0.0627774 4.85635e-20
    outer loop
      vertex -2.72832 -0.344666 0
      vertex -2.75 0 2.5
      vertex -2.75 0 0
    endloop
  endfacet
  facet normal -0.998028 -0.0627774 4.85635e-20
    outer loop
      vertex -2.75 0 2.5
      vertex -2.72832 -0.344666 0
      vertex -2.72832 -0.344666 2.5
    endloop
  endfacet
  facet normal 0.481744 -0.876312 1.43555e-19
    outer loop
      vertex 1.25 -2.44478 0
      vertex 1.17089 -2.48827 2.5
      vertex 1.17089 -2.48827 0
    endloop
  endfacet
  facet normal 0.481749 -0.876309 1.76055e-07
    outer loop
      vertex 1.17089 -2.48827 2.5
      vertex 1.25 -2.44478 0
      vertex 1.47352 -2.3219 2.5
    endloop
  endfacet
  facet normal 0.48175 -0.876309 0
    outer loop
      vertex 1.47352 -2.3219 2.5
      vertex 1.25 -2.44478 0
      vertex 1.47352 -2.3219 0
    endloop
  endfacet
  facet normal 0.368149 -0.929767 0
    outer loop
      vertex 0.849796 -2.61541 0
      vertex 1.17089 -2.48827 2.5
      vertex 0.849796 -2.61541 2.5
    endloop
  endfacet
  facet normal 0.368149 -0.929767 0
    outer loop
      vertex 1.17089 -2.48827 2.5
      vertex 0.849796 -2.61541 0
      vertex 1.17089 -2.48827 0
    endloop
  endfacet
  facet normal -0.951054 0.309023 -3.42987e-18
    outer loop
      vertex -2.6636 0.683897 0
      vertex -2.55688 1.01234 2.5
      vertex -2.55688 1.01234 0
    endloop
  endfacet
  facet normal -0.951054 0.309023 -3.42987e-18
    outer loop
      vertex -2.55688 1.01234 2.5
      vertex -2.6636 0.683897 0
      vertex -2.6636 0.683897 2.5
    endloop
  endfacet
  facet normal 0.951054 -0.309023 -3.42987e-18
    outer loop
      vertex 2.55688 -1.01234 2.5
      vertex 2.6636 -0.683897 0
      vertex 2.6636 -0.683897 2.5
    endloop
  endfacet
  facet normal 0.951054 -0.309023 -3.42987e-18
    outer loop
      vertex 2.6636 -0.683897 0
      vertex 2.55688 -1.01234 2.5
      vertex 2.55688 -1.01234 0
    endloop
  endfacet
  facet normal 0.904829 -0.425775 -3.63e-18
    outer loop
      vertex 2.40984 -1.32482 2.5
      vertex 2.55688 -1.01234 0
      vertex 2.55688 -1.01234 2.5
    endloop
  endfacet
  facet normal 0.904829 -0.425775 -3.63e-18
    outer loop
      vertex 2.55688 -1.01234 0
      vertex 2.40984 -1.32482 2.5
      vertex 2.40984 -1.32482 0
    endloop
  endfacet
  facet normal 0.844339 -0.535809 -1.45592e-18
    outer loop
      vertex 2.2248 -1.61641 2.5
      vertex 2.40984 -1.32482 0
      vertex 2.40984 -1.32482 2.5
    endloop
  endfacet
  facet normal 0.844339 -0.535809 -1.45592e-18
    outer loop
      vertex 2.40984 -1.32482 0
      vertex 2.2248 -1.61641 2.5
      vertex 2.2248 -1.61641 0
    endloop
  endfacet
  facet normal -0.770497 -0.637443 -9.92849e-19
    outer loop
      vertex -2.00466 -1.8825 0
      vertex -2.2248 -1.61641 2.5
      vertex -2.2248 -1.61641 0
    endloop
  endfacet
  facet normal -0.770497 -0.637443 -9.92849e-19
    outer loop
      vertex -2.2248 -1.61641 2.5
      vertex -2.00466 -1.8825 0
      vertex -2.00466 -1.8825 2.5
    endloop
  endfacet
  facet normal -0.904829 -0.425775 3.63e-18
    outer loop
      vertex -2.40984 -1.32482 0
      vertex -2.55688 -1.01234 2.5
      vertex -2.55688 -1.01234 0
    endloop
  endfacet
  facet normal -0.904829 -0.425775 3.63e-18
    outer loop
      vertex -2.55688 -1.01234 2.5
      vertex -2.40984 -1.32482 0
      vertex -2.40984 -1.32482 2.5
    endloop
  endfacet
  facet normal -0.982283 -0.187404 1.8817e-18
    outer loop
      vertex -2.6636 -0.683897 0
      vertex -2.72832 -0.344666 2.5
      vertex -2.72832 -0.344666 0
    endloop
  endfacet
  facet normal -0.982283 -0.187404 1.8817e-18
    outer loop
      vertex -2.72832 -0.344666 2.5
      vertex -2.6636 -0.683897 0
      vertex -2.6636 -0.683897 2.5
    endloop
  endfacet
  facet normal -0.951054 -0.309023 3.42987e-18
    outer loop
      vertex -2.55688 -1.01234 0
      vertex -2.6636 -0.683897 2.5
      vertex -2.6636 -0.683897 0
    endloop
  endfacet
  facet normal -0.951054 -0.309023 3.42987e-18
    outer loop
      vertex -2.6636 -0.683897 2.5
      vertex -2.55688 -1.01234 0
      vertex -2.55688 -1.01234 2.5
    endloop
  endfacet
  facet normal 0.587774 -0.809025 0
    outer loop
      vertex 1.47352 -2.3219 0
      vertex 1.75292 -2.11891 2.5
      vertex 1.47352 -2.3219 2.5
    endloop
  endfacet
  facet normal 0.587774 -0.809025 0
    outer loop
      vertex 1.75292 -2.11891 2.5
      vertex 1.47352 -2.3219 0
      vertex 1.75292 -2.11891 0
    endloop
  endfacet
  facet normal 0.248678 -0.968586 0
    outer loop
      vertex 0.515298 -2.70129 0
      vertex 0.849796 -2.61541 2.5
      vertex 0.515298 -2.70129 2.5
    endloop
  endfacet
  facet normal 0.248678 -0.968586 0
    outer loop
      vertex 0.849796 -2.61541 2.5
      vertex 0.515298 -2.70129 0
      vertex 0.849796 -2.61541 0
    endloop
  endfacet
  facet normal 0.982283 -0.187404 -1.8817e-18
    outer loop
      vertex 2.6636 -0.683897 2.5
      vertex 2.72832 -0.344666 0
      vertex 2.72832 -0.344666 2.5
    endloop
  endfacet
  facet normal 0.982283 -0.187404 -1.8817e-18
    outer loop
      vertex 2.72832 -0.344666 0
      vertex 2.6636 -0.683897 2.5
      vertex 2.6636 -0.683897 0
    endloop
  endfacet
  facet normal -0.248678 -0.968586 0
    outer loop
      vertex -0.849796 -2.61541 0
      vertex -0.515298 -2.70129 2.5
      vertex -0.849796 -2.61541 2.5
    endloop
  endfacet
  facet normal -0.248678 -0.968586 -0
    outer loop
      vertex -0.515298 -2.70129 2.5
      vertex -0.849796 -2.61541 0
      vertex -0.515298 -2.70129 0
    endloop
  endfacet
  facet normal -0.844339 -0.535809 1.45592e-18
    outer loop
      vertex -2.2248 -1.61641 0
      vertex -2.40984 -1.32482 2.5
      vertex -2.40984 -1.32482 0
    endloop
  endfacet
  facet normal -0.844339 -0.535809 1.45592e-18
    outer loop
      vertex -2.40984 -1.32482 2.5
      vertex -2.2248 -1.61641 0
      vertex -2.2248 -1.61641 2.5
    endloop
  endfacet
  facet normal 0.684563 -0.728954 0
    outer loop
      vertex 1.75292 -2.11891 0
      vertex 2.00466 -1.8825 2.5
      vertex 1.75292 -2.11891 2.5
    endloop
  endfacet
  facet normal 0.684563 -0.728954 0
    outer loop
      vertex 2.00466 -1.8825 2.5
      vertex 1.75292 -2.11891 0
      vertex 2.00466 -1.8825 0
    endloop
  endfacet
  facet normal -0.48175 -0.876309 -4.94133e-19
    outer loop
      vertex -1.25 -2.44478 0
      vertex -1.47352 -2.3219 2.5
      vertex -1.47352 -2.3219 0
    endloop
  endfacet
  facet normal -0.481749 -0.876309 1.76055e-07
    outer loop
      vertex -1.47352 -2.3219 2.5
      vertex -1.25 -2.44478 0
      vertex -1.17089 -2.48827 2.5
    endloop
  endfacet
  facet normal -0.481744 -0.876312 -0
    outer loop
      vertex -1.17089 -2.48827 2.5
      vertex -1.25 -2.44478 0
      vertex -1.17089 -2.48827 0
    endloop
  endfacet
  facet normal -0.587774 -0.809025 0
    outer loop
      vertex -1.75292 -2.11891 0
      vertex -1.47352 -2.3219 2.5
      vertex -1.75292 -2.11891 2.5
    endloop
  endfacet
  facet normal -0.587774 -0.809025 -0
    outer loop
      vertex -1.47352 -2.3219 2.5
      vertex -1.75292 -2.11891 0
      vertex -1.47352 -2.3219 0
    endloop
  endfacet
  facet normal -0.125323 -0.992116 0
    outer loop
      vertex -0.515298 -2.70129 0
      vertex -0.172673 -2.74457 2.5
      vertex -0.515298 -2.70129 2.5
    endloop
  endfacet
  facet normal -0.125323 -0.992116 -0
    outer loop
      vertex -0.172673 -2.74457 2.5
      vertex -0.515298 -2.70129 0
      vertex -0.172673 -2.74457 0
    endloop
  endfacet
  facet normal -0.368149 -0.929767 0
    outer loop
      vertex -1.17089 -2.48827 0
      vertex -0.849796 -2.61541 2.5
      vertex -1.17089 -2.48827 2.5
    endloop
  endfacet
  facet normal -0.368149 -0.929767 -0
    outer loop
      vertex -0.849796 -2.61541 2.5
      vertex -1.17089 -2.48827 0
      vertex -0.849796 -2.61541 0
    endloop
  endfacet
  facet normal -0.951055 0.309021 -1.12416e-19
    outer loop
      vertex -0.968583 0.24869 -12
      vertex -0.929776 0.368124 -0.599999
      vertex -0.929776 0.368124 -12
    endloop
  endfacet
  facet normal -0.951055 0.309021 -1.12416e-19
    outer loop
      vertex -0.929776 0.368124 -0.599999
      vertex -0.968583 0.24869 -12
      vertex -0.968583 0.24869 -0.599999
    endloop
  endfacet
  facet normal 0.844324 0.535833 -4.85156e-20
    outer loop
      vertex 0.876307 0.481753 -0.599999
      vertex 0.809016 0.587785 -12
      vertex 0.809016 0.587785 -0.599999
    endloop
  endfacet
  facet normal 0.844324 0.535833 -4.85156e-20
    outer loop
      vertex 0.809016 0.587785 -12
      vertex 0.876307 0.481753 -0.599999
      vertex 0.876307 0.481753 -12
    endloop
  endfacet
  facet normal 0.368129 0.929775 -0
    outer loop
      vertex 0.425778 0.904826 -12
      vertex 0.309016 0.951056 -0.599999
      vertex 0.425778 0.904826 -0.599999
    endloop
  endfacet
  facet normal 0.368129 0.929775 0
    outer loop
      vertex 0.309016 0.951056 -0.599999
      vertex 0.425778 0.904826 -12
      vertex 0.309016 0.951056 -12
    endloop
  endfacet
  facet normal -0.368129 0.929775 0
    outer loop
      vertex -0.309016 0.951056 -12
      vertex -0.425778 0.904826 -0.599999
      vertex -0.309016 0.951056 -0.599999
    endloop
  endfacet
  facet normal -0.368129 0.929775 0
    outer loop
      vertex -0.425778 0.904826 -0.599999
      vertex -0.309016 0.951056 -12
      vertex -0.425778 0.904826 -12
    endloop
  endfacet
  facet normal -0.904829 0.425774 -2.60922e-19
    outer loop
      vertex -0.929776 0.368124 -12
      vertex -0.876307 0.481753 -0.599999
      vertex -0.876307 0.481753 -12
    endloop
  endfacet
  facet normal -0.904829 0.425774 -2.60922e-19
    outer loop
      vertex -0.876307 0.481753 -0.599999
      vertex -0.929776 0.368124 -12
      vertex -0.929776 0.368124 -0.599999
    endloop
  endfacet
  facet normal 0.982288 -0.187377 6.52303e-20
    outer loop
      vertex 0.968583 -0.24869 -0.599999
      vertex 0.992114 -0.125333 -12
      vertex 0.992114 -0.125333 -0.599999
    endloop
  endfacet
  facet normal 0.982288 -0.187377 6.52303e-20
    outer loop
      vertex 0.992114 -0.125333 -12
      vertex 0.968583 -0.24869 -0.599999
      vertex 0.968583 -0.24869 -12
    endloop
  endfacet
  facet normal 0.982288 0.187377 -6.52303e-20
    outer loop
      vertex 0.992114 0.125333 -0.599999
      vertex 0.968583 0.24869 -12
      vertex 0.968583 0.24869 -0.599999
    endloop
  endfacet
  facet normal 0.982288 0.187377 -6.52303e-20
    outer loop
      vertex 0.968583 0.24869 -12
      vertex 0.992114 0.125333 -0.599999
      vertex 0.992114 0.125333 -12
    endloop
  endfacet
  facet normal 0.684549 0.728967 -0
    outer loop
      vertex 0.728969 0.684546 -12
      vertex 0.637424 0.770513 -0.599999
      vertex 0.728969 0.684546 -0.599999
    endloop
  endfacet
  facet normal 0.684549 0.728967 0
    outer loop
      vertex 0.637424 0.770513 -0.599999
      vertex 0.728969 0.684546 -12
      vertex 0.637424 0.770513 -12
    endloop
  endfacet
  facet normal 0 1 -0
    outer loop
      vertex 0.0627899 0.998026 -12
      vertex -0.0627899 0.998026 -0.599999
      vertex 0.0627899 0.998026 -0.599999
    endloop
  endfacet
  facet normal 0 1 0
    outer loop
      vertex -0.0627899 0.998026 -0.599999
      vertex 0.0627899 0.998026 -12
      vertex -0.0627899 0.998026 -12
    endloop
  endfacet
  facet normal 0.587782 0.809019 -0
    outer loop
      vertex 0.637424 0.770513 -12
      vertex 0.535827 0.844327 -0.599999
      vertex 0.637424 0.770513 -0.599999
    endloop
  endfacet
  facet normal 0.587782 0.809019 0
    outer loop
      vertex 0.535827 0.844327 -0.599999
      vertex 0.637424 0.770513 -12
      vertex 0.535827 0.844327 -12
    endloop
  endfacet
  facet normal -0.982288 0.187377 6.52303e-20
    outer loop
      vertex -0.992114 0.125333 -12
      vertex -0.968583 0.24869 -0.599999
      vertex -0.968583 0.24869 -12
    endloop
  endfacet
  facet normal -0.982288 0.187377 6.52303e-20
    outer loop
      vertex -0.968583 0.24869 -0.599999
      vertex -0.992114 0.125333 -12
      vertex -0.992114 0.125333 -0.599999
    endloop
  endfacet
  facet normal -0.770516 0.637421 -2.26904e-19
    outer loop
      vertex -0.809016 0.587785 -12
      vertex -0.728969 0.684546 -0.599999
      vertex -0.728969 0.684546 -12
    endloop
  endfacet
  facet normal -0.770516 0.637421 -2.26904e-19
    outer loop
      vertex -0.728969 0.684546 -0.599999
      vertex -0.809016 0.587785 -12
      vertex -0.809016 0.587785 -0.599999
    endloop
  endfacet
  facet normal -0.481748 0.87631 0
    outer loop
      vertex -0.425778 0.904826 -12
      vertex -0.535827 0.844327 -0.599999
      vertex -0.425778 0.904826 -0.599999
    endloop
  endfacet
  facet normal -0.481748 0.87631 0
    outer loop
      vertex -0.535827 0.844327 -0.599999
      vertex -0.425778 0.904826 -12
      vertex -0.535827 0.844327 -12
    endloop
  endfacet
  facet normal -0.248686 0.968584 0
    outer loop
      vertex -0.187381 0.982286 -12
      vertex -0.309016 0.951056 -0.599999
      vertex -0.187381 0.982286 -0.599999
    endloop
  endfacet
  facet normal -0.248686 0.968584 0
    outer loop
      vertex -0.309016 0.951056 -0.599999
      vertex -0.187381 0.982286 -12
      vertex -0.309016 0.951056 -12
    endloop
  endfacet
  facet normal 0.998026 0.0627962 -9.02281e-21
    outer loop
      vertex 1 0 -0.599999
      vertex 0.992114 0.125333 -12
      vertex 0.992114 0.125333 -0.599999
    endloop
  endfacet
  facet normal 0.998026 0.0627962 -9.02281e-21
    outer loop
      vertex 0.992114 0.125333 -12
      vertex 1 0 -0.599999
      vertex 1 0 -12
    endloop
  endfacet
  facet normal -0.684549 -0.728967 0
    outer loop
      vertex -0.728969 -0.684546 -12
      vertex -0.637424 -0.770513 -0.599999
      vertex -0.728969 -0.684546 -0.599999
    endloop
  endfacet
  facet normal -0.684549 -0.728967 -0
    outer loop
      vertex -0.637424 -0.770513 -0.599999
      vertex -0.728969 -0.684546 -12
      vertex -0.637424 -0.770513 -12
    endloop
  endfacet
  facet normal -0.904829 -0.425774 2.60922e-19
    outer loop
      vertex -0.876307 -0.481753 -12
      vertex -0.929776 -0.368124 -0.599999
      vertex -0.929776 -0.368124 -12
    endloop
  endfacet
  facet normal -0.904829 -0.425774 2.60922e-19
    outer loop
      vertex -0.929776 -0.368124 -0.599999
      vertex -0.876307 -0.481753 -12
      vertex -0.876307 -0.481753 -0.599999
    endloop
  endfacet
  facet normal 0.481748 -0.87631 0
    outer loop
      vertex 0.425778 -0.904826 -12
      vertex 0.535827 -0.844327 -0.599999
      vertex 0.425778 -0.904826 -0.599999
    endloop
  endfacet
  facet normal 0.481748 -0.87631 0
    outer loop
      vertex 0.535827 -0.844327 -0.599999
      vertex 0.425778 -0.904826 -12
      vertex 0.535827 -0.844327 -12
    endloop
  endfacet
  facet normal 0.770516 0.637421 2.26904e-19
    outer loop
      vertex 0.809016 0.587785 -0.599999
      vertex 0.728969 0.684546 -12
      vertex 0.728969 0.684546 -0.599999
    endloop
  endfacet
  facet normal 0.770516 0.637421 2.26904e-19
    outer loop
      vertex 0.728969 0.684546 -12
      vertex 0.809016 0.587785 -0.599999
      vertex 0.809016 0.587785 -12
    endloop
  endfacet
  facet normal 0.248686 0.968584 -0
    outer loop
      vertex 0.309016 0.951056 -12
      vertex 0.187381 0.982286 -0.599999
      vertex 0.309016 0.951056 -0.599999
    endloop
  endfacet
  facet normal 0.248686 0.968584 0
    outer loop
      vertex 0.187381 0.982286 -0.599999
      vertex 0.309016 0.951056 -12
      vertex 0.187381 0.982286 -12
    endloop
  endfacet
  facet normal 0.125337 0.992114 -0
    outer loop
      vertex 0.187381 0.982286 -12
      vertex 0.0627899 0.998026 -0.599999
      vertex 0.187381 0.982286 -0.599999
    endloop
  endfacet
  facet normal 0.125337 0.992114 0
    outer loop
      vertex 0.0627899 0.998026 -0.599999
      vertex 0.187381 0.982286 -12
      vertex 0.0627899 0.998026 -12
    endloop
  endfacet
  facet normal 0.481748 0.87631 -0
    outer loop
      vertex 0.535827 0.844327 -12
      vertex 0.425778 0.904826 -0.599999
      vertex 0.535827 0.844327 -0.599999
    endloop
  endfacet
  facet normal 0.481748 0.87631 0
    outer loop
      vertex 0.425778 0.904826 -0.599999
      vertex 0.535827 0.844327 -12
      vertex 0.425778 0.904826 -12
    endloop
  endfacet
  facet normal -0.998026 0.0627962 9.02281e-21
    outer loop
      vertex -1 0 -12
      vertex -0.992114 0.125333 -0.599999
      vertex -0.992114 0.125333 -12
    endloop
  endfacet
  facet normal -0.998026 0.0627962 9.02281e-21
    outer loop
      vertex -0.992114 0.125333 -0.599999
      vertex -1 0 -12
      vertex -1 0 -0.599999
    endloop
  endfacet
  facet normal -0.844324 0.535833 4.85156e-20
    outer loop
      vertex -0.876307 0.481753 -12
      vertex -0.809016 0.587785 -0.599999
      vertex -0.809016 0.587785 -12
    endloop
  endfacet
  facet normal -0.844324 0.535833 4.85156e-20
    outer loop
      vertex -0.809016 0.587785 -0.599999
      vertex -0.876307 0.481753 -12
      vertex -0.876307 0.481753 -0.599999
    endloop
  endfacet
  facet normal -0.125337 0.992114 0
    outer loop
      vertex -0.0627899 0.998026 -12
      vertex -0.187381 0.982286 -0.599999
      vertex -0.0627899 0.998026 -0.599999
    endloop
  endfacet
  facet normal -0.125337 0.992114 0
    outer loop
      vertex -0.187381 0.982286 -0.599999
      vertex -0.0627899 0.998026 -12
      vertex -0.187381 0.982286 -12
    endloop
  endfacet
  facet normal -0.587782 0.809019 0
    outer loop
      vertex -0.535827 0.844327 -12
      vertex -0.637424 0.770513 -0.599999
      vertex -0.535827 0.844327 -0.599999
    endloop
  endfacet
  facet normal -0.587782 0.809019 0
    outer loop
      vertex -0.637424 0.770513 -0.599999
      vertex -0.535827 0.844327 -12
      vertex -0.637424 0.770513 -12
    endloop
  endfacet
  facet normal -0.684549 0.728967 0
    outer loop
      vertex -0.637424 0.770513 -12
      vertex -0.728969 0.684546 -0.599999
      vertex -0.637424 0.770513 -0.599999
    endloop
  endfacet
  facet normal -0.684549 0.728967 0
    outer loop
      vertex -0.728969 0.684546 -0.599999
      vertex -0.637424 0.770513 -12
      vertex -0.728969 0.684546 -12
    endloop
  endfacet
  facet normal 0.998026 -0.0627962 9.02281e-21
    outer loop
      vertex 0.992114 -0.125333 -0.599999
      vertex 1 0 -12
      vertex 1 0 -0.599999
    endloop
  endfacet
  facet normal 0.998026 -0.0627962 9.02281e-21
    outer loop
      vertex 1 0 -12
      vertex 0.992114 -0.125333 -0.599999
      vertex 0.992114 -0.125333 -12
    endloop
  endfacet
  facet normal 0.770516 -0.637421 -2.26904e-19
    outer loop
      vertex 0.728969 -0.684546 -0.599999
      vertex 0.809016 -0.587785 -12
      vertex 0.809016 -0.587785 -0.599999
    endloop
  endfacet
  facet normal 0.770516 -0.637421 -2.26904e-19
    outer loop
      vertex 0.809016 -0.587785 -12
      vertex 0.728969 -0.684546 -0.599999
      vertex 0.728969 -0.684546 -12
    endloop
  endfacet
  facet normal -0.844324 -0.535833 -4.85156e-20
    outer loop
      vertex -0.809016 -0.587785 -12
      vertex -0.876307 -0.481753 -0.599999
      vertex -0.876307 -0.481753 -12
    endloop
  endfacet
  facet normal -0.844324 -0.535833 -4.85156e-20
    outer loop
      vertex -0.876307 -0.481753 -0.599999
      vertex -0.809016 -0.587785 -12
      vertex -0.809016 -0.587785 -0.599999
    endloop
  endfacet
  facet normal 0.125337 -0.992114 0
    outer loop
      vertex 0.0627899 -0.998026 -12
      vertex 0.187381 -0.982286 -0.599999
      vertex 0.0627899 -0.998026 -0.599999
    endloop
  endfacet
  facet normal 0.125337 -0.992114 0
    outer loop
      vertex 0.187381 -0.982286 -0.599999
      vertex 0.0627899 -0.998026 -12
      vertex 0.187381 -0.982286 -12
    endloop
  endfacet
  facet normal 0.587782 -0.809019 0
    outer loop
      vertex 0.535827 -0.844327 -12
      vertex 0.637424 -0.770513 -0.599999
      vertex 0.535827 -0.844327 -0.599999
    endloop
  endfacet
  facet normal 0.587782 -0.809019 0
    outer loop
      vertex 0.637424 -0.770513 -0.599999
      vertex 0.535827 -0.844327 -12
      vertex 0.637424 -0.770513 -12
    endloop
  endfacet
  facet normal 0.904829 0.425774 2.60922e-19
    outer loop
      vertex 0.929776 0.368124 -0.599999
      vertex 0.876307 0.481753 -12
      vertex 0.876307 0.481753 -0.599999
    endloop
  endfacet
  facet normal 0.904829 0.425774 2.60922e-19
    outer loop
      vertex 0.876307 0.481753 -12
      vertex 0.929776 0.368124 -0.599999
      vertex 0.929776 0.368124 -12
    endloop
  endfacet
  facet normal 0.951055 0.309021 1.12416e-19
    outer loop
      vertex 0.968583 0.24869 -0.599999
      vertex 0.929776 0.368124 -12
      vertex 0.929776 0.368124 -0.599999
    endloop
  endfacet
  facet normal 0.951055 0.309021 1.12416e-19
    outer loop
      vertex 0.929776 0.368124 -12
      vertex 0.968583 0.24869 -0.599999
      vertex 0.968583 0.24869 -12
    endloop
  endfacet
  facet normal 0.904829 -0.425774 -2.60922e-19
    outer loop
      vertex 0.876307 -0.481753 -0.599999
      vertex 0.929776 -0.368124 -12
      vertex 0.929776 -0.368124 -0.599999
    endloop
  endfacet
  facet normal 0.904829 -0.425774 -2.60922e-19
    outer loop
      vertex 0.929776 -0.368124 -12
      vertex 0.876307 -0.481753 -0.599999
      vertex 0.876307 -0.481753 -12
    endloop
  endfacet
  facet normal 0.951055 -0.309021 -1.12416e-19
    outer loop
      vertex 0.929776 -0.368124 -0.599999
      vertex 0.968583 -0.24869 -12
      vertex 0.968583 -0.24869 -0.599999
    endloop
  endfacet
  facet normal 0.951055 -0.309021 -1.12416e-19
    outer loop
      vertex 0.968583 -0.24869 -12
      vertex 0.929776 -0.368124 -0.599999
      vertex 0.929776 -0.368124 -12
    endloop
  endfacet
  facet normal 0.844324 -0.535833 4.85156e-20
    outer loop
      vertex 0.809016 -0.587785 -0.599999
      vertex 0.876307 -0.481753 -12
      vertex 0.876307 -0.481753 -0.599999
    endloop
  endfacet
  facet normal 0.844324 -0.535833 4.85156e-20
    outer loop
      vertex 0.876307 -0.481753 -12
      vertex 0.809016 -0.587785 -0.599999
      vertex 0.809016 -0.587785 -12
    endloop
  endfacet
  facet normal -0.481748 -0.87631 0
    outer loop
      vertex -0.535827 -0.844327 -12
      vertex -0.425778 -0.904826 -0.599999
      vertex -0.535827 -0.844327 -0.599999
    endloop
  endfacet
  facet normal -0.481748 -0.87631 -0
    outer loop
      vertex -0.425778 -0.904826 -0.599999
      vertex -0.535827 -0.844327 -12
      vertex -0.425778 -0.904826 -12
    endloop
  endfacet
  facet normal 0 -1 0
    outer loop
      vertex -0.0627899 -0.998026 -12
      vertex 0.0627899 -0.998026 -0.599999
      vertex -0.0627899 -0.998026 -0.599999
    endloop
  endfacet
  facet normal 0 -1 -0
    outer loop
      vertex 0.0627899 -0.998026 -0.599999
      vertex -0.0627899 -0.998026 -12
      vertex 0.0627899 -0.998026 -12
    endloop
  endfacet
  facet normal -0.998026 -0.0627962 -9.02281e-21
    outer loop
      vertex -0.992114 -0.125333 -12
      vertex -1 0 -0.599999
      vertex -1 0 -12
    endloop
  endfacet
  facet normal -0.998026 -0.0627962 -9.02281e-21
    outer loop
      vertex -1 0 -0.599999
      vertex -0.992114 -0.125333 -12
      vertex -0.992114 -0.125333 -0.599999
    endloop
  endfacet
  facet normal -0.951055 -0.309021 1.12416e-19
    outer loop
      vertex -0.929776 -0.368124 -12
      vertex -0.968583 -0.24869 -0.599999
      vertex -0.968583 -0.24869 -12
    endloop
  endfacet
  facet normal -0.951055 -0.309021 1.12416e-19
    outer loop
      vertex -0.968583 -0.24869 -0.599999
      vertex -0.929776 -0.368124 -12
      vertex -0.929776 -0.368124 -0.599999
    endloop
  endfacet
  facet normal -0.770516 -0.637421 2.26904e-19
    outer loop
      vertex -0.728969 -0.684546 -12
      vertex -0.809016 -0.587785 -0.599999
      vertex -0.809016 -0.587785 -12
    endloop
  endfacet
  facet normal -0.770516 -0.637421 2.26904e-19
    outer loop
      vertex -0.809016 -0.587785 -0.599999
      vertex -0.728969 -0.684546 -12
      vertex -0.728969 -0.684546 -0.599999
    endloop
  endfacet
  facet normal 0.368129 -0.929775 0
    outer loop
      vertex 0.309016 -0.951056 -12
      vertex 0.425778 -0.904826 -0.599999
      vertex 0.309016 -0.951056 -0.599999
    endloop
  endfacet
  facet normal 0.368129 -0.929775 0
    outer loop
      vertex 0.425778 -0.904826 -0.599999
      vertex 0.309016 -0.951056 -12
      vertex 0.425778 -0.904826 -12
    endloop
  endfacet
  facet normal 0.248686 -0.968584 0
    outer loop
      vertex 0.187381 -0.982286 -12
      vertex 0.309016 -0.951056 -0.599999
      vertex 0.187381 -0.982286 -0.599999
    endloop
  endfacet
  facet normal 0.248686 -0.968584 0
    outer loop
      vertex 0.309016 -0.951056 -0.599999
      vertex 0.187381 -0.982286 -12
      vertex 0.309016 -0.951056 -12
    endloop
  endfacet
  facet normal -0.125337 -0.992114 0
    outer loop
      vertex -0.187381 -0.982286 -12
      vertex -0.0627899 -0.998026 -0.599999
      vertex -0.187381 -0.982286 -0.599999
    endloop
  endfacet
  facet normal -0.125337 -0.992114 -0
    outer loop
      vertex -0.0627899 -0.998026 -0.599999
      vertex -0.187381 -0.982286 -12
      vertex -0.0627899 -0.998026 -12
    endloop
  endfacet
  facet normal -0.248686 -0.968584 0
    outer loop
      vertex -0.309016 -0.951056 -12
      vertex -0.187381 -0.982286 -0.599999
      vertex -0.309016 -0.951056 -0.599999
    endloop
  endfacet
  facet normal -0.248686 -0.968584 -0
    outer loop
      vertex -0.187381 -0.982286 -0.599999
      vertex -0.309016 -0.951056 -12
      vertex -0.187381 -0.982286 -12
    endloop
  endfacet
  facet normal -0.587782 -0.809019 0
    outer loop
      vertex -0.637424 -0.770513 -12
      vertex -0.535827 -0.844327 -0.599999
      vertex -0.637424 -0.770513 -0.599999
    endloop
  endfacet
  facet normal -0.587782 -0.809019 -0
    outer loop
      vertex -0.535827 -0.844327 -0.599999
      vertex -0.637424 -0.770513 -12
      vertex -0.535827 -0.844327 -12
    endloop
  endfacet
  facet normal -0.982288 -0.187377 -6.52303e-20
    outer loop
      vertex -0.968583 -0.24869 -12
      vertex -0.992114 -0.125333 -0.599999
      vertex -0.992114 -0.125333 -12
    endloop
  endfacet
  facet normal -0.982288 -0.187377 -6.52303e-20
    outer loop
      vertex -0.992114 -0.125333 -0.599999
      vertex -0.968583 -0.24869 -12
      vertex -0.968583 -0.24869 -0.599999
    endloop
  endfacet
  facet normal 0.684549 -0.728967 0
    outer loop
      vertex 0.637424 -0.770513 -12
      vertex 0.728969 -0.684546 -0.599999
      vertex 0.637424 -0.770513 -0.599999
    endloop
  endfacet
  facet normal 0.684549 -0.728967 0
    outer loop
      vertex 0.728969 -0.684546 -0.599999
      vertex 0.637424 -0.770513 -12
      vertex 0.728969 -0.684546 -12
    endloop
  endfacet
  facet normal -0.368129 -0.929775 0
    outer loop
      vertex -0.425778 -0.904826 -12
      vertex -0.309016 -0.951056 -0.599999
      vertex -0.425778 -0.904826 -0.599999
    endloop
  endfacet
  facet normal -0.368129 -0.929775 -0
    outer loop
      vertex -0.309016 -0.951056 -0.599999
      vertex -0.425778 -0.904826 -12
      vertex -0.309016 -0.951056 -12
    endloop
  endfacet
  facet normal -1 0 0
    outer loop
      vertex -1.25 1.25 -0.599999
      vertex -1.25 -1.25 -0.599999
      vertex -1.25 1.25 -0.299999
    endloop
  endfacet
  facet normal -1 0 0
    outer loop
      vertex -1.25 2.75 -0.299999
      vertex -1.25 2.44478 0
      vertex -1.25 2.75 0
    endloop
  endfacet
  facet normal -1 0 0
    outer loop
      vertex -1.25 1.25 -0.299999
      vertex -1.25 2.44478 0
      vertex -1.25 2.75 -0.299999
    endloop
  endfacet
  facet normal -1 0 0
    outer loop
      vertex -1.25 -1.25 -0.299999
      vertex -1.25 1.25 -0.299999
      vertex -1.25 -1.25 -0.599999
    endloop
  endfacet
  facet normal -1 0 0
    outer loop
      vertex -1.25 1.25 -0.299999
      vertex -1.25 -1.25 -0.299999
      vertex -1.25 2.44478 0
    endloop
  endfacet
  facet normal -1 0 0
    outer loop
      vertex -1.25 -1.25 -0.299999
      vertex -1.25 -2.44478 0
      vertex -1.25 2.44478 0
    endloop
  endfacet
  facet normal -1 0 0
    outer loop
      vertex -1.25 -2.75 -0.299999
      vertex -1.25 -2.44478 0
      vertex -1.25 -1.25 -0.299999
    endloop
  endfacet
  facet normal -1 -0 0
    outer loop
      vertex -1.25 -2.44478 0
      vertex -1.25 -2.75 -0.299999
      vertex -1.25 -2.75 0
    endloop
  endfacet
  facet normal 1 -0 0
    outer loop
      vertex 1.25 2.44478 0
      vertex 1.25 2.75 -0.299999
      vertex 1.25 2.75 0
    endloop
  endfacet
  facet normal 1 0 0
    outer loop
      vertex 1.25 2.44478 0
      vertex 1.25 1.25 -0.299999
      vertex 1.25 2.75 -0.299999
    endloop
  endfacet
  facet normal 1 0 0
    outer loop
      vertex 1.25 1.25 -0.299999
      vertex 1.25 -1.25 -0.299999
      vertex 1.25 1.25 -0.599999
    endloop
  endfacet
  facet normal 1 0 0
    outer loop
      vertex 1.25 2.44478 0
      vertex 1.25 -1.25 -0.299999
      vertex 1.25 1.25 -0.299999
    endloop
  endfacet
  facet normal 1 -0 0
    outer loop
      vertex 1.25 -2.44478 0
      vertex 1.25 -1.25 -0.299999
      vertex 1.25 2.44478 0
    endloop
  endfacet
  facet normal 1 0 0
    outer loop
      vertex 1.25 -2.75 -0.299999
      vertex 1.25 -2.44478 0
      vertex 1.25 -2.75 0
    endloop
  endfacet
  facet normal 1 0 0
    outer loop
      vertex 1.25 -2.44478 0
      vertex 1.25 -2.75 -0.299999
      vertex 1.25 -1.25 -0.299999
    endloop
  endfacet
  facet normal 1 0 0
    outer loop
      vertex 1.25 1.25 -0.599999
      vertex 1.25 -1.25 -0.299999
      vertex 1.25 -1.25 -0.599999
    endloop
  endfacet
  facet normal 0 1 -0
    outer loop
      vertex 1.25 2.75 -0.299999
      vertex -1.25 2.75 0
      vertex 1.25 2.75 0
    endloop
  endfacet
  facet normal 0 1 0
    outer loop
      vertex -1.25 2.75 0
      vertex 1.25 2.75 -0.299999
      vertex -1.25 2.75 -0.299999
    endloop
  endfacet
  facet normal 0 0 -1
    outer loop
      vertex -1.25 -2.75 -0.299999
      vertex 1.25 -1.25 -0.299999
      vertex 1.25 -2.75 -0.299999
    endloop
  endfacet
  facet normal -0 0 -1
    outer loop
      vertex 1.25 -1.25 -0.299999
      vertex -1.25 -2.75 -0.299999
      vertex -1.25 -1.25 -0.299999
    endloop
  endfacet
  facet normal 0 0 -1
    outer loop
      vertex -1.25 1.25 -0.299999
      vertex 1.25 2.75 -0.299999
      vertex 1.25 1.25 -0.299999
    endloop
  endfacet
  facet normal -0 0 -1
    outer loop
      vertex 1.25 2.75 -0.299999
      vertex -1.25 1.25 -0.299999
      vertex -1.25 2.75 -0.299999
    endloop
  endfacet
  facet normal 0 -1 0
    outer loop
      vertex -1.25 -2.75 -0.299999
      vertex 1.25 -2.75 0
      vertex -1.25 -2.75 0
    endloop
  endfacet
  facet normal 0 -1 -0
    outer loop
      vertex 1.25 -2.75 0
      vertex -1.25 -2.75 -0.299999
      vertex 1.25 -2.75 -0.299999
    endloop
  endfacet
  facet normal 0 0 -1
    outer loop
      vertex 1.25 -1.25 -0.599999
      vertex 1 0 -0.599999
      vertex 1.25 1.25 -0.599999
    endloop
  endfacet
  facet normal 0 0 -1
    outer loop
      vertex 1.25 -1.25 -0.599999
      vertex 0.992114 -0.125333 -0.599999
      vertex 1 0 -0.599999
    endloop
  endfacet
  facet normal 0 0 -1
    outer loop
      vertex 1.25 -1.25 -0.599999
      vertex 0.968583 -0.24869 -0.599999
      vertex 0.992114 -0.125333 -0.599999
    endloop
  endfacet
  facet normal 0 0 -1
    outer loop
      vertex 1.25 -1.25 -0.599999
      vertex 0.929776 -0.368124 -0.599999
      vertex 0.968583 -0.24869 -0.599999
    endloop
  endfacet
  facet normal 0 0 -1
    outer loop
      vertex 1.25 -1.25 -0.599999
      vertex 0.876307 -0.481753 -0.599999
      vertex 0.929776 -0.368124 -0.599999
    endloop
  endfacet
  facet normal 0 0 -1
    outer loop
      vertex 1.25 -1.25 -0.599999
      vertex 0.809016 -0.587785 -0.599999
      vertex 0.876307 -0.481753 -0.599999
    endloop
  endfacet
  facet normal 0 0 -1
    outer loop
      vertex 1.25 -1.25 -0.599999
      vertex 0.728969 -0.684546 -0.599999
      vertex 0.809016 -0.587785 -0.599999
    endloop
  endfacet
  facet normal 0 0 -1
    outer loop
      vertex 1.25 -1.25 -0.599999
      vertex 0.637424 -0.770513 -0.599999
      vertex 0.728969 -0.684546 -0.599999
    endloop
  endfacet
  facet normal 0 0 -1
    outer loop
      vertex 1.25 -1.25 -0.599999
      vertex 0.535827 -0.844327 -0.599999
      vertex 0.637424 -0.770513 -0.599999
    endloop
  endfacet
  facet normal 0 0 -1
    outer loop
      vertex 1.25 -1.25 -0.599999
      vertex 0.425778 -0.904826 -0.599999
      vertex 0.535827 -0.844327 -0.599999
    endloop
  endfacet
  facet normal 0 0 -1
    outer loop
      vertex 1.25 -1.25 -0.599999
      vertex 0.309016 -0.951056 -0.599999
      vertex 0.425778 -0.904826 -0.599999
    endloop
  endfacet
  facet normal 0 0 -1
    outer loop
      vertex 1.25 -1.25 -0.599999
      vertex 0.187381 -0.982286 -0.599999
      vertex 0.309016 -0.951056 -0.599999
    endloop
  endfacet
  facet normal 0 0 -1
    outer loop
      vertex 1.25 -1.25 -0.599999
      vertex 0.0627899 -0.998026 -0.599999
      vertex 0.187381 -0.982286 -0.599999
    endloop
  endfacet
  facet normal 0 0 -1
    outer loop
      vertex 1.25 -1.25 -0.599999
      vertex -0.0627899 -0.998026 -0.599999
      vertex 0.0627899 -0.998026 -0.599999
    endloop
  endfacet
  facet normal 0 0 -1
    outer loop
      vertex -1.25 -1.25 -0.599999
      vertex -0.0627899 -0.998026 -0.599999
      vertex 1.25 -1.25 -0.599999
    endloop
  endfacet
  facet normal -0 0 -1
    outer loop
      vertex -0.992114 -0.125333 -0.599999
      vertex -1.25 -1.25 -0.599999
      vertex -1 0 -0.599999
    endloop
  endfacet
  facet normal -0 0 -1
    outer loop
      vertex -0.968583 -0.24869 -0.599999
      vertex -1.25 -1.25 -0.599999
      vertex -0.992114 -0.125333 -0.599999
    endloop
  endfacet
  facet normal -0 0 -1
    outer loop
      vertex -0.929776 -0.368124 -0.599999
      vertex -1.25 -1.25 -0.599999
      vertex -0.968583 -0.24869 -0.599999
    endloop
  endfacet
  facet normal -0 0 -1
    outer loop
      vertex -0.876307 -0.481753 -0.599999
      vertex -1.25 -1.25 -0.599999
      vertex -0.929776 -0.368124 -0.599999
    endloop
  endfacet
  facet normal -0 0 -1
    outer loop
      vertex -0.809016 -0.587785 -0.599999
      vertex -1.25 -1.25 -0.599999
      vertex -0.876307 -0.481753 -0.599999
    endloop
  endfacet
  facet normal -0 0 -1
    outer loop
      vertex -0.728969 -0.684546 -0.599999
      vertex -1.25 -1.25 -0.599999
      vertex -0.809016 -0.587785 -0.599999
    endloop
  endfacet
  facet normal -0 0 -1
    outer loop
      vertex -0.637424 -0.770513 -0.599999
      vertex -1.25 -1.25 -0.599999
      vertex -0.728969 -0.684546 -0.599999
    endloop
  endfacet
  facet normal -0 0 -1
    outer loop
      vertex -0.535827 -0.844327 -0.599999
      vertex -1.25 -1.25 -0.599999
      vertex -0.637424 -0.770513 -0.599999
    endloop
  endfacet
  facet normal -0 0 -1
    outer loop
      vertex -0.425778 -0.904826 -0.599999
      vertex -1.25 -1.25 -0.599999
      vertex -0.535827 -0.844327 -0.599999
    endloop
  endfacet
  facet normal -0 0 -1
    outer loop
      vertex -0.309016 -0.951056 -0.599999
      vertex -1.25 -1.25 -0.599999
      vertex -0.425778 -0.904826 -0.599999
    endloop
  endfacet
  facet normal -0 0 -1
    outer loop
      vertex -0.187381 -0.982286 -0.599999
      vertex -1.25 -1.25 -0.599999
      vertex -0.309016 -0.951056 -0.599999
    endloop
  endfacet
  facet normal -0 0 -1
    outer loop
      vertex -0.0627899 -0.998026 -0.599999
      vertex -1.25 -1.25 -0.599999
      vertex -0.187381 -0.982286 -0.599999
    endloop
  endfacet
  facet normal 0 0 -1
    outer loop
      vertex 0.992114 0.125333 -0.599999
      vertex 1.25 1.25 -0.599999
      vertex 1 0 -0.599999
    endloop
  endfacet
  facet normal 0 0 -1
    outer loop
      vertex 0.968583 0.24869 -0.599999
      vertex 1.25 1.25 -0.599999
      vertex 0.992114 0.125333 -0.599999
    endloop
  endfacet
  facet normal 0 0 -1
    outer loop
      vertex 0.929776 0.368124 -0.599999
      vertex 1.25 1.25 -0.599999
      vertex 0.968583 0.24869 -0.599999
    endloop
  endfacet
  facet normal 0 0 -1
    outer loop
      vertex 0.876307 0.481753 -0.599999
      vertex 1.25 1.25 -0.599999
      vertex 0.929776 0.368124 -0.599999
    endloop
  endfacet
  facet normal 0 0 -1
    outer loop
      vertex 0.809016 0.587785 -0.599999
      vertex 1.25 1.25 -0.599999
      vertex 0.876307 0.481753 -0.599999
    endloop
  endfacet
  facet normal 0 0 -1
    outer loop
      vertex 0.728969 0.684546 -0.599999
      vertex 1.25 1.25 -0.599999
      vertex 0.809016 0.587785 -0.599999
    endloop
  endfacet
  facet normal 0 0 -1
    outer loop
      vertex 0.637424 0.770513 -0.599999
      vertex 1.25 1.25 -0.599999
      vertex 0.728969 0.684546 -0.599999
    endloop
  endfacet
  facet normal 0 0 -1
    outer loop
      vertex 0.535827 0.844327 -0.599999
      vertex 1.25 1.25 -0.599999
      vertex 0.637424 0.770513 -0.599999
    endloop
  endfacet
  facet normal 0 0 -1
    outer loop
      vertex 0.425778 0.904826 -0.599999
      vertex 1.25 1.25 -0.599999
      vertex 0.535827 0.844327 -0.599999
    endloop
  endfacet
  facet normal 0 0 -1
    outer loop
      vertex 0.309016 0.951056 -0.599999
      vertex 1.25 1.25 -0.599999
      vertex 0.425778 0.904826 -0.599999
    endloop
  endfacet
  facet normal 0 0 -1
    outer loop
      vertex 0.187381 0.982286 -0.599999
      vertex 1.25 1.25 -0.599999
      vertex 0.309016 0.951056 -0.599999
    endloop
  endfacet
  facet normal 0 0 -1
    outer loop
      vertex 0.0627899 0.998026 -0.599999
      vertex 1.25 1.25 -0.599999
      vertex 0.187381 0.982286 -0.599999
    endloop
  endfacet
  facet normal 0 0 -1
    outer loop
      vertex -0.0627899 0.998026 -0.599999
      vertex 1.25 1.25 -0.599999
      vertex 0.0627899 0.998026 -0.599999
    endloop
  endfacet
  facet normal 0 0 -1
    outer loop
      vertex -1.25 1.25 -0.599999
      vertex -0.0627899 0.998026 -0.599999
      vertex -0.187381 0.982286 -0.599999
    endloop
  endfacet
  facet normal 0 0 -1
    outer loop
      vertex -1.25 1.25 -0.599999
      vertex -1 0 -0.599999
      vertex -1.25 -1.25 -0.599999
    endloop
  endfacet
  facet normal 0 0 -1
    outer loop
      vertex -0.0627899 0.998026 -0.599999
      vertex -1.25 1.25 -0.599999
      vertex 1.25 1.25 -0.599999
    endloop
  endfacet
  facet normal 0 0 -1
    outer loop
      vertex -0.309016 0.951056 -0.599999
      vertex -1.25 1.25 -0.599999
      vertex -0.187381 0.982286 -0.599999
    endloop
  endfacet
  facet normal 0 0 -1
    outer loop
      vertex -0.425778 0.904826 -0.599999
      vertex -1.25 1.25 -0.599999
      vertex -0.309016 0.951056 -0.599999
    endloop
  endfacet
  facet normal 0 0 -1
    outer loop
      vertex -0.535827 0.844327 -0.599999
      vertex -1.25 1.25 -0.599999
      vertex -0.425778 0.904826 -0.599999
    endloop
  endfacet
  facet normal 0 0 -1
    outer loop
      vertex -0.637424 0.770513 -0.599999
      vertex -1.25 1.25 -0.599999
      vertex -0.535827 0.844327 -0.599999
    endloop
  endfacet
  facet normal 0 0 -1
    outer loop
      vertex -0.728969 0.684546 -0.599999
      vertex -1.25 1.25 -0.599999
      vertex -0.637424 0.770513 -0.599999
    endloop
  endfacet
  facet normal 0 0 -1
    outer loop
      vertex -0.809016 0.587785 -0.599999
      vertex -1.25 1.25 -0.599999
      vertex -0.728969 0.684546 -0.599999
    endloop
  endfacet
  facet normal 0 0 -1
    outer loop
      vertex -0.876307 0.481753 -0.599999
      vertex -1.25 1.25 -0.599999
      vertex -0.809016 0.587785 -0.599999
    endloop
  endfacet
  facet normal 0 0 -1
    outer loop
      vertex -0.929776 0.368124 -0.599999
      vertex -1.25 1.25 -0.599999
      vertex -0.876307 0.481753 -0.599999
    endloop
  endfacet
  facet normal 0 0 -1
    outer loop
      vertex -0.968583 0.24869 -0.599999
      vertex -1.25 1.25 -0.599999
      vertex -0.929776 0.368124 -0.599999
    endloop
  endfacet
  facet normal 0 0 -1
    outer loop
      vertex -0.992114 0.125333 -0.599999
      vertex -1.25 1.25 -0.599999
      vertex -0.968583 0.24869 -0.599999
    endloop
  endfacet
  facet normal 0 0 -1
    outer loop
      vertex -1 0 -0.599999
      vertex -1.25 1.25 -0.599999
      vertex -0.992114 0.125333 -0.599999
    endloop
  endfacet
  facet normal 0 -1 0
    outer loop
      vertex -1.25 -1.25 -0.599999
      vertex 1.25 -1.25 -0.299999
      vertex -1.25 -1.25 -0.299999
    endloop
  endfacet
  facet normal 0 -1 -0
    outer loop
      vertex 1.25 -1.25 -0.299999
      vertex -1.25 -1.25 -0.599999
      vertex 1.25 -1.25 -0.599999
    endloop
  endfacet
  facet normal 0 1 -0
    outer loop
      vertex 1.25 1.25 -0.599999
      vertex -1.25 1.25 -0.299999
      vertex 1.25 1.25 -0.299999
    endloop
  endfacet
  facet normal 0 1 0
    outer loop
      vertex -1.25 1.25 -0.299999
      vertex 1.25 1.25 -0.599999
      vertex -1.25 1.25 -0.599999
    endloop
  endfacet
endsolid OpenSCAD_Model
