solid OpenSCAD_Model
  facet normal 0.904828 0.425777 -7.79628e-18
    outer loop
      vertex 12.273 4.85924 5
      vertex 11.5672 6.35915 0
      vertex 11.5672 6.35915 5
    endloop
  endfacet
  facet normal 0.904828 0.425777 -7.79628e-18
    outer loop
      vertex 11.5672 6.35915 0
      vertex 12.273 4.85924 5
      vertex 12.273 4.85924 0
    endloop
  endfacet
  facet normal 0.844335 0.535816 9.16986e-18
    outer loop
      vertex 11.5672 6.35915 5
      vertex 10.679 7.75877 0
      vertex 10.679 7.75877 5
    endloop
  endfacet
  facet normal 0.844335 0.535816 9.16986e-18
    outer loop
      vertex 10.679 7.75877 0
      vertex 11.5672 6.35915 5
      vertex 11.5672 6.35915 0
    endloop
  endfacet
  facet normal 0.368108 0.929783 -0
    outer loop
      vertex 5.62029 11.9437 0
      vertex 4.07902 12.5539 5
      vertex 5.62029 11.9437 5
    endloop
  endfacet
  facet normal 0.368108 0.929783 0
    outer loop
      vertex 4.07902 12.5539 5
      vertex 5.62029 11.9437 0
      vertex 4.07902 12.5539 0
    endloop
  endfacet
  facet normal -0.368108 0.929783 0
    outer loop
      vertex -4.07902 12.5539 0
      vertex -5.62029 11.9437 5
      vertex -4.07902 12.5539 5
    endloop
  endfacet
  facet normal -0.368108 0.929783 0
    outer loop
      vertex -5.62029 11.9437 5
      vertex -4.07902 12.5539 0
      vertex -5.62029 11.9437 0
    endloop
  endfacet
  facet normal -0.904828 0.425777 7.79628e-18
    outer loop
      vertex -12.273 4.85924 0
      vertex -11.5672 6.35915 5
      vertex -11.5672 6.35915 0
    endloop
  endfacet
  facet normal -0.904828 0.425777 7.79628e-18
    outer loop
      vertex -11.5672 6.35915 5
      vertex -12.273 4.85924 0
      vertex -12.273 4.85924 5
    endloop
  endfacet
  facet normal 0.982289 -0.187372 2.13875e-18
    outer loop
      vertex 12.7853 -3.28271 5
      vertex 13.0959 -1.6544 0
      vertex 13.0959 -1.6544 5
    endloop
  endfacet
  facet normal 0.982289 -0.187372 2.13875e-18
    outer loop
      vertex 13.0959 -1.6544 0
      vertex 12.7853 -3.28271 5
      vertex 12.7853 -3.28271 0
    endloop
  endfacet
  facet normal 0.125357 0.992112 -0
    outer loop
      vertex 2.47343 12.9662 0
      vertex 0.828835 13.174 5
      vertex 2.47343 12.9662 5
    endloop
  endfacet
  facet normal 0.125357 0.992112 0
    outer loop
      vertex 0.828835 13.174 5
      vertex 2.47343 12.9662 0
      vertex 0.828835 13.174 0
    endloop
  endfacet
  facet normal 0.481761 0.876303 -0
    outer loop
      vertex 7.07291 11.1451 0
      vertex 5.62029 11.9437 5
      vertex 7.07291 11.1451 5
    endloop
  endfacet
  facet normal 0.481761 0.876303 0
    outer loop
      vertex 5.62029 11.9437 5
      vertex 7.07291 11.1451 0
      vertex 5.62029 11.9437 0
    endloop
  endfacet
  facet normal -0.998026 0.0627989 -8.06118e-19
    outer loop
      vertex -13.2 0 0
      vertex -13.0959 1.6544 5
      vertex -13.0959 1.6544 0
    endloop
  endfacet
  facet normal -0.998026 0.0627989 -8.06118e-19
    outer loop
      vertex -13.0959 1.6544 5
      vertex -13.2 0 0
      vertex -13.2 0 5
    endloop
  endfacet
  facet normal -0.77052 0.637416 1.15115e-17
    outer loop
      vertex -10.679 7.75877 0
      vertex -9.62239 9.03602 5
      vertex -9.62239 9.03602 0
    endloop
  endfacet
  facet normal -0.77052 0.637416 1.15115e-17
    outer loop
      vertex -9.62239 9.03602 5
      vertex -10.679 7.75877 0
      vertex -10.679 7.75877 5
    endloop
  endfacet
  facet normal -0.481761 0.876303 0
    outer loop
      vertex -5.62029 11.9437 0
      vertex -7.07291 11.1451 5
      vertex -5.62029 11.9437 5
    endloop
  endfacet
  facet normal -0.481761 0.876303 0
    outer loop
      vertex -7.07291 11.1451 5
      vertex -5.62029 11.9437 0
      vertex -7.07291 11.1451 0
    endloop
  endfacet
  facet normal -0.125357 0.992112 0
    outer loop
      vertex -0.828835 13.174 0
      vertex -2.47343 12.9662 5
      vertex -0.828835 13.174 5
    endloop
  endfacet
  facet normal -0.125357 0.992112 0
    outer loop
      vertex -2.47343 12.9662 5
      vertex -0.828835 13.174 0
      vertex -2.47343 12.9662 0
    endloop
  endfacet
  facet normal 0.998026 -0.0627989 -8.06118e-19
    outer loop
      vertex 13.0959 -1.6544 5
      vertex 13.2 0 0
      vertex 13.2 0 5
    endloop
  endfacet
  facet normal 0.998026 -0.0627989 -8.06118e-19
    outer loop
      vertex 13.2 0 0
      vertex 13.0959 -1.6544 5
      vertex 13.0959 -1.6544 0
    endloop
  endfacet
  facet normal 0.951047 -0.309047 -4.89882e-18
    outer loop
      vertex 12.273 -4.85924 5
      vertex 12.7853 -3.28271 0
      vertex 12.7853 -3.28271 5
    endloop
  endfacet
  facet normal 0.951047 -0.309047 -4.89882e-18
    outer loop
      vertex 12.7853 -3.28271 0
      vertex 12.273 -4.85924 5
      vertex 12.273 -4.85924 0
    endloop
  endfacet
  facet normal 0.982289 0.187372 -2.13875e-18
    outer loop
      vertex 13.0959 1.6544 5
      vertex 12.7853 3.28271 0
      vertex 12.7853 3.28271 5
    endloop
  endfacet
  facet normal 0.982289 0.187372 -2.13875e-18
    outer loop
      vertex 12.7853 3.28271 0
      vertex 13.0959 1.6544 5
      vertex 13.0959 1.6544 0
    endloop
  endfacet
  facet normal 0.951047 0.309047 4.89882e-18
    outer loop
      vertex 12.7853 3.28271 5
      vertex 12.273 4.85924 0
      vertex 12.273 4.85924 5
    endloop
  endfacet
  facet normal 0.951047 0.309047 4.89882e-18
    outer loop
      vertex 12.273 4.85924 0
      vertex 12.7853 3.28271 5
      vertex 12.7853 3.28271 0
    endloop
  endfacet
  facet normal 0.684556 0.728961 -0
    outer loop
      vertex 9.62239 9.03602 0
      vertex 8.414 10.1708 5
      vertex 9.62239 9.03602 5
    endloop
  endfacet
  facet normal 0.684556 0.728961 0
    outer loop
      vertex 8.414 10.1708 5
      vertex 9.62239 9.03602 0
      vertex 8.414 10.1708 0
    endloop
  endfacet
  facet normal 0 1 -0
    outer loop
      vertex 0.828835 13.174 0
      vertex -0.828835 13.174 5
      vertex 0.828835 13.174 5
    endloop
  endfacet
  facet normal 0 1 0
    outer loop
      vertex -0.828835 13.174 5
      vertex 0.828835 13.174 0
      vertex -0.828835 13.174 0
    endloop
  endfacet
  facet normal 0.248721 0.968575 -0
    outer loop
      vertex 4.07902 12.5539 0
      vertex 2.47343 12.9662 5
      vertex 4.07902 12.5539 5
    endloop
  endfacet
  facet normal 0.248721 0.968575 0
    outer loop
      vertex 2.47343 12.9662 5
      vertex 4.07902 12.5539 0
      vertex 2.47343 12.9662 0
    endloop
  endfacet
  facet normal 0.587762 0.809034 -0
    outer loop
      vertex 8.414 10.1708 0
      vertex 7.07291 11.1451 5
      vertex 8.414 10.1708 5
    endloop
  endfacet
  facet normal 0.587762 0.809034 0
    outer loop
      vertex 7.07291 11.1451 5
      vertex 8.414 10.1708 0
      vertex 7.07291 11.1451 0
    endloop
  endfacet
  facet normal 0 0 1
    outer loop
      vertex 8.5 0 5
      vertex 13.2 0 5
      vertex 13.0959 1.6544 5
    endloop
  endfacet
  facet normal 0 0 1
    outer loop
      vertex 8.43297 1.06533 5
      vertex 13.0959 1.6544 5
      vertex 12.7853 3.28271 5
    endloop
  endfacet
  facet normal 0 0 1
    outer loop
      vertex 13.2 0 5
      vertex 8.5 0 5
      vertex 13.0959 -1.6544 5
    endloop
  endfacet
  facet normal 0 0 1
    outer loop
      vertex 8.23296 2.11386 5
      vertex 12.7853 3.28271 5
      vertex 12.273 4.85924 5
    endloop
  endfacet
  facet normal -0 0 1
    outer loop
      vertex 8.43297 -1.06533 5
      vertex 13.0959 -1.6544 5
      vertex 8.5 0 5
    endloop
  endfacet
  facet normal 0 0 1
    outer loop
      vertex 7.9031 3.12906 5
      vertex 12.273 4.85924 5
      vertex 11.5672 6.35915 5
    endloop
  endfacet
  facet normal 0 0 1
    outer loop
      vertex 13.0959 -1.6544 5
      vertex 8.43297 -1.06533 5
      vertex 12.7853 -3.28271 5
    endloop
  endfacet
  facet normal 0 0 1
    outer loop
      vertex 7.44861 4.09491 5
      vertex 11.5672 6.35915 5
      vertex 10.679 7.75877 5
    endloop
  endfacet
  facet normal -0 0 1
    outer loop
      vertex 8.23296 -2.11386 5
      vertex 12.7853 -3.28271 5
      vertex 8.43297 -1.06533 5
    endloop
  endfacet
  facet normal 0 0 1
    outer loop
      vertex 6.87664 4.99617 5
      vertex 10.679 7.75877 5
      vertex 9.62239 9.03602 5
    endloop
  endfacet
  facet normal 0 0 1
    outer loop
      vertex 12.7853 -3.28271 5
      vertex 8.23296 -2.11386 5
      vertex 12.273 -4.85924 5
    endloop
  endfacet
  facet normal -0 0 1
    outer loop
      vertex 7.9031 -3.12906 5
      vertex 12.273 -4.85924 5
      vertex 8.23296 -2.11386 5
    endloop
  endfacet
  facet normal 0 0 1
    outer loop
      vertex 13.0959 1.6544 5
      vertex 8.43297 1.06533 5
      vertex 8.5 0 5
    endloop
  endfacet
  facet normal 0 0 1
    outer loop
      vertex 6.19623 5.81865 5
      vertex 9.62239 9.03602 5
      vertex 8.414 10.1708 5
    endloop
  endfacet
  facet normal 0 0 1
    outer loop
      vertex 12.7853 3.28271 5
      vertex 8.23296 2.11386 5
      vertex 8.43297 1.06533 5
    endloop
  endfacet
  facet normal 0 0 1
    outer loop
      vertex 12.273 4.85924 5
      vertex 7.9031 3.12906 5
      vertex 8.23296 2.11386 5
    endloop
  endfacet
  facet normal 0 0 1
    outer loop
      vertex 11.5672 6.35915 5
      vertex 7.44861 4.09491 5
      vertex 7.9031 3.12906 5
    endloop
  endfacet
  facet normal 0 0 1
    outer loop
      vertex 5.4181 6.54936 5
      vertex 8.414 10.1708 5
      vertex 7.07291 11.1451 5
    endloop
  endfacet
  facet normal 0 0 1
    outer loop
      vertex 10.679 7.75877 5
      vertex 6.87664 4.99617 5
      vertex 7.44861 4.09491 5
    endloop
  endfacet
  facet normal 0 0 1
    outer loop
      vertex 9.62239 9.03602 5
      vertex 6.19623 5.81865 5
      vertex 6.87664 4.99617 5
    endloop
  endfacet
  facet normal 0 0 1
    outer loop
      vertex 4.55453 7.17679 5
      vertex 7.07291 11.1451 5
      vertex 5.62029 11.9437 5
    endloop
  endfacet
  facet normal 0 0 1
    outer loop
      vertex 8.414 10.1708 5
      vertex 5.4181 6.54936 5
      vertex 6.19623 5.81865 5
    endloop
  endfacet
  facet normal 0 0 1
    outer loop
      vertex 7.07291 11.1451 5
      vertex 4.55453 7.17679 5
      vertex 5.4181 6.54936 5
    endloop
  endfacet
  facet normal 0 0 1
    outer loop
      vertex 3.61912 7.69103 5
      vertex 5.62029 11.9437 5
      vertex 4.07902 12.5539 5
    endloop
  endfacet
  facet normal 0 0 1
    outer loop
      vertex 5.62029 11.9437 5
      vertex 3.61912 7.69103 5
      vertex 4.55453 7.17679 5
    endloop
  endfacet
  facet normal 0 0 1
    outer loop
      vertex 4.07902 12.5539 5
      vertex 2.62664 8.08398 5
      vertex 3.61912 7.69103 5
    endloop
  endfacet
  facet normal 0 0 1
    outer loop
      vertex 2.47343 12.9662 5
      vertex 2.62664 8.08398 5
      vertex 4.07902 12.5539 5
    endloop
  endfacet
  facet normal 0 0 1
    outer loop
      vertex 2.47343 12.9662 5
      vertex 1.59274 8.34944 5
      vertex 2.62664 8.08398 5
    endloop
  endfacet
  facet normal 0 0 1
    outer loop
      vertex 0.828835 13.174 5
      vertex 1.59274 8.34944 5
      vertex 2.47343 12.9662 5
    endloop
  endfacet
  facet normal 0 0 1
    outer loop
      vertex 0.828835 13.174 5
      vertex 0.533719 8.48323 5
      vertex 1.59274 8.34944 5
    endloop
  endfacet
  facet normal 0 0 1
    outer loop
      vertex 0.828835 13.174 5
      vertex -0.533719 8.48323 5
      vertex 0.533719 8.48323 5
    endloop
  endfacet
  facet normal -0 0 1
    outer loop
      vertex -0.828835 13.174 5
      vertex -0.533719 8.48323 5
      vertex 0.828835 13.174 5
    endloop
  endfacet
  facet normal 0 0 1
    outer loop
      vertex -0.828835 13.174 5
      vertex -1.59274 8.34944 5
      vertex -0.533719 8.48323 5
    endloop
  endfacet
  facet normal -0 0 1
    outer loop
      vertex -2.47343 12.9662 5
      vertex -1.59274 8.34944 5
      vertex -0.828835 13.174 5
    endloop
  endfacet
  facet normal 0 0 1
    outer loop
      vertex -2.47343 12.9662 5
      vertex -2.62664 8.08398 5
      vertex -1.59274 8.34944 5
    endloop
  endfacet
  facet normal -0 0 1
    outer loop
      vertex -4.07902 12.5539 5
      vertex -2.62664 8.08398 5
      vertex -2.47343 12.9662 5
    endloop
  endfacet
  facet normal 0 0 1
    outer loop
      vertex -2.62664 8.08398 5
      vertex -4.07902 12.5539 5
      vertex -3.61912 7.69103 5
    endloop
  endfacet
  facet normal -0 0 1
    outer loop
      vertex -5.62029 11.9437 5
      vertex -3.61912 7.69103 5
      vertex -4.07902 12.5539 5
    endloop
  endfacet
  facet normal 0 0 1
    outer loop
      vertex -3.61912 7.69103 5
      vertex -5.62029 11.9437 5
      vertex -4.55453 7.17679 5
    endloop
  endfacet
  facet normal -0 0 1
    outer loop
      vertex -7.07291 11.1451 5
      vertex -4.55453 7.17679 5
      vertex -5.62029 11.9437 5
    endloop
  endfacet
  facet normal 0 0 1
    outer loop
      vertex -4.55453 7.17679 5
      vertex -7.07291 11.1451 5
      vertex -5.4181 6.54936 5
    endloop
  endfacet
  facet normal -0 0 1
    outer loop
      vertex -8.414 10.1708 5
      vertex -5.4181 6.54936 5
      vertex -7.07291 11.1451 5
    endloop
  endfacet
  facet normal 0 0 1
    outer loop
      vertex -5.4181 6.54936 5
      vertex -8.414 10.1708 5
      vertex -6.19623 5.81865 5
    endloop
  endfacet
  facet normal -0 0 1
    outer loop
      vertex -9.62239 9.03602 5
      vertex -6.19623 5.81865 5
      vertex -8.414 10.1708 5
    endloop
  endfacet
  facet normal 0 0 1
    outer loop
      vertex -6.19623 5.81865 5
      vertex -9.62239 9.03602 5
      vertex -6.87664 4.99617 5
    endloop
  endfacet
  facet normal -0 0 1
    outer loop
      vertex -10.679 7.75877 5
      vertex -6.87664 4.99617 5
      vertex -9.62239 9.03602 5
    endloop
  endfacet
  facet normal 0 0 1
    outer loop
      vertex -6.87664 4.99617 5
      vertex -10.679 7.75877 5
      vertex -7.44861 4.09491 5
    endloop
  endfacet
  facet normal -0 0 1
    outer loop
      vertex -11.5672 6.35915 5
      vertex -7.44861 4.09491 5
      vertex -10.679 7.75877 5
    endloop
  endfacet
  facet normal 0 0 1
    outer loop
      vertex -7.44861 4.09491 5
      vertex -11.5672 6.35915 5
      vertex -7.9031 3.12906 5
    endloop
  endfacet
  facet normal -0 0 1
    outer loop
      vertex -12.273 4.85924 5
      vertex -7.9031 3.12906 5
      vertex -11.5672 6.35915 5
    endloop
  endfacet
  facet normal 0 0 1
    outer loop
      vertex 12.273 -4.85924 5
      vertex 7.9031 -3.12906 5
      vertex 11.5672 -6.35915 5
    endloop
  endfacet
  facet normal -0 0 1
    outer loop
      vertex 7.44861 -4.09491 5
      vertex 11.5672 -6.35915 5
      vertex 7.9031 -3.12906 5
    endloop
  endfacet
  facet normal 0 0 1
    outer loop
      vertex 11.5672 -6.35915 5
      vertex 7.44861 -4.09491 5
      vertex 10.679 -7.75877 5
    endloop
  endfacet
  facet normal -0 0 1
    outer loop
      vertex 6.87664 -4.99617 5
      vertex 10.679 -7.75877 5
      vertex 7.44861 -4.09491 5
    endloop
  endfacet
  facet normal 0 0 1
    outer loop
      vertex 10.679 -7.75877 5
      vertex 6.87664 -4.99617 5
      vertex 9.62239 -9.03602 5
    endloop
  endfacet
  facet normal -0 0 1
    outer loop
      vertex 6.19623 -5.81865 5
      vertex 9.62239 -9.03602 5
      vertex 6.87664 -4.99617 5
    endloop
  endfacet
  facet normal 0 0 1
    outer loop
      vertex 9.62239 -9.03602 5
      vertex 6.19623 -5.81865 5
      vertex 8.414 -10.1708 5
    endloop
  endfacet
  facet normal -0 0 1
    outer loop
      vertex 5.4181 -6.54936 5
      vertex 8.414 -10.1708 5
      vertex 6.19623 -5.81865 5
    endloop
  endfacet
  facet normal 0 0 1
    outer loop
      vertex 8.414 -10.1708 5
      vertex 5.4181 -6.54936 5
      vertex 7.07291 -11.1451 5
    endloop
  endfacet
  facet normal -0 0 1
    outer loop
      vertex 4.55453 -7.17679 5
      vertex 7.07291 -11.1451 5
      vertex 5.4181 -6.54936 5
    endloop
  endfacet
  facet normal 0 0 1
    outer loop
      vertex 7.07291 -11.1451 5
      vertex 4.55453 -7.17679 5
      vertex 5.62029 -11.9437 5
    endloop
  endfacet
  facet normal -0 0 1
    outer loop
      vertex 3.61912 -7.69103 5
      vertex 5.62029 -11.9437 5
      vertex 4.55453 -7.17679 5
    endloop
  endfacet
  facet normal 0 0 1
    outer loop
      vertex 5.62029 -11.9437 5
      vertex 3.61912 -7.69103 5
      vertex 4.07902 -12.5539 5
    endloop
  endfacet
  facet normal -0 0 1
    outer loop
      vertex 2.62664 -8.08398 5
      vertex 4.07902 -12.5539 5
      vertex 3.61912 -7.69103 5
    endloop
  endfacet
  facet normal 0 0 1
    outer loop
      vertex 2.62664 -8.08398 5
      vertex 2.47343 -12.9662 5
      vertex 4.07902 -12.5539 5
    endloop
  endfacet
  facet normal -0 0 1
    outer loop
      vertex 1.59274 -8.34944 5
      vertex 2.47343 -12.9662 5
      vertex 2.62664 -8.08398 5
    endloop
  endfacet
  facet normal 0 0 1
    outer loop
      vertex 1.59274 -8.34944 5
      vertex 0.828835 -13.174 5
      vertex 2.47343 -12.9662 5
    endloop
  endfacet
  facet normal -0 0 1
    outer loop
      vertex 0.533719 -8.48323 5
      vertex 0.828835 -13.174 5
      vertex 1.59274 -8.34944 5
    endloop
  endfacet
  facet normal -0 0 1
    outer loop
      vertex -0.533719 -8.48323 5
      vertex 0.828835 -13.174 5
      vertex 0.533719 -8.48323 5
    endloop
  endfacet
  facet normal 0 0 1
    outer loop
      vertex -0.533719 -8.48323 5
      vertex -0.828835 -13.174 5
      vertex 0.828835 -13.174 5
    endloop
  endfacet
  facet normal 0 0 1
    outer loop
      vertex -1.59274 -8.34944 5
      vertex -0.828835 -13.174 5
      vertex -0.533719 -8.48323 5
    endloop
  endfacet
  facet normal 0 0 1
    outer loop
      vertex -1.59274 -8.34944 5
      vertex -2.47343 -12.9662 5
      vertex -0.828835 -13.174 5
    endloop
  endfacet
  facet normal 0 0 1
    outer loop
      vertex -2.62664 -8.08398 5
      vertex -2.47343 -12.9662 5
      vertex -1.59274 -8.34944 5
    endloop
  endfacet
  facet normal 0 0 1
    outer loop
      vertex -4.07902 -12.5539 5
      vertex -2.62664 -8.08398 5
      vertex -3.61912 -7.69103 5
    endloop
  endfacet
  facet normal 0 0 1
    outer loop
      vertex -2.62664 -8.08398 5
      vertex -4.07902 -12.5539 5
      vertex -2.47343 -12.9662 5
    endloop
  endfacet
  facet normal 0 0 1
    outer loop
      vertex -5.62029 -11.9437 5
      vertex -3.61912 -7.69103 5
      vertex -4.55453 -7.17679 5
    endloop
  endfacet
  facet normal 0 0 1
    outer loop
      vertex -7.07291 -11.1451 5
      vertex -4.55453 -7.17679 5
      vertex -5.4181 -6.54936 5
    endloop
  endfacet
  facet normal 0 0 1
    outer loop
      vertex -3.61912 -7.69103 5
      vertex -5.62029 -11.9437 5
      vertex -4.07902 -12.5539 5
    endloop
  endfacet
  facet normal 0 0 1
    outer loop
      vertex -8.414 -10.1708 5
      vertex -5.4181 -6.54936 5
      vertex -6.19623 -5.81865 5
    endloop
  endfacet
  facet normal 0 0 1
    outer loop
      vertex -9.62239 -9.03602 5
      vertex -6.19623 -5.81865 5
      vertex -6.87664 -4.99617 5
    endloop
  endfacet
  facet normal 0 0 1
    outer loop
      vertex -4.55453 -7.17679 5
      vertex -7.07291 -11.1451 5
      vertex -5.62029 -11.9437 5
    endloop
  endfacet
  facet normal 0 0 1
    outer loop
      vertex -10.679 -7.75877 5
      vertex -6.87664 -4.99617 5
      vertex -7.44861 -4.09491 5
    endloop
  endfacet
  facet normal 0 0 1
    outer loop
      vertex -11.5672 -6.35915 5
      vertex -7.44861 -4.09491 5
      vertex -7.9031 -3.12906 5
    endloop
  endfacet
  facet normal 0 0 1
    outer loop
      vertex -12.273 -4.85924 5
      vertex -7.9031 -3.12906 5
      vertex -8.23296 -2.11386 5
    endloop
  endfacet
  facet normal 0 0 1
    outer loop
      vertex -5.4181 -6.54936 5
      vertex -8.414 -10.1708 5
      vertex -7.07291 -11.1451 5
    endloop
  endfacet
  facet normal 0 0 1
    outer loop
      vertex -12.7853 -3.28271 5
      vertex -8.23296 -2.11386 5
      vertex -8.43297 -1.06533 5
    endloop
  endfacet
  facet normal 0 0 1
    outer loop
      vertex -13.0959 -1.6544 5
      vertex -8.43297 -1.06533 5
      vertex -8.5 0 5
    endloop
  endfacet
  facet normal 0 0 1
    outer loop
      vertex -7.9031 3.12906 5
      vertex -12.273 4.85924 5
      vertex -8.23296 2.11386 5
    endloop
  endfacet
  facet normal 0 0 1
    outer loop
      vertex -6.19623 -5.81865 5
      vertex -9.62239 -9.03602 5
      vertex -8.414 -10.1708 5
    endloop
  endfacet
  facet normal -0 0 1
    outer loop
      vertex -12.7853 3.28271 5
      vertex -8.23296 2.11386 5
      vertex -12.273 4.85924 5
    endloop
  endfacet
  facet normal 0 0 1
    outer loop
      vertex -6.87664 -4.99617 5
      vertex -10.679 -7.75877 5
      vertex -9.62239 -9.03602 5
    endloop
  endfacet
  facet normal 0 0 1
    outer loop
      vertex -8.23296 2.11386 5
      vertex -12.7853 3.28271 5
      vertex -8.43297 1.06533 5
    endloop
  endfacet
  facet normal 0 0 1
    outer loop
      vertex -7.44861 -4.09491 5
      vertex -11.5672 -6.35915 5
      vertex -10.679 -7.75877 5
    endloop
  endfacet
  facet normal -0 0 1
    outer loop
      vertex -13.0959 1.6544 5
      vertex -8.43297 1.06533 5
      vertex -12.7853 3.28271 5
    endloop
  endfacet
  facet normal 0 0 1
    outer loop
      vertex -7.9031 -3.12906 5
      vertex -12.273 -4.85924 5
      vertex -11.5672 -6.35915 5
    endloop
  endfacet
  facet normal 0 0 1
    outer loop
      vertex -8.43297 1.06533 5
      vertex -13.0959 1.6544 5
      vertex -8.5 0 5
    endloop
  endfacet
  facet normal 0 0 1
    outer loop
      vertex -8.23296 -2.11386 5
      vertex -12.7853 -3.28271 5
      vertex -12.273 -4.85924 5
    endloop
  endfacet
  facet normal 0 0 1
    outer loop
      vertex -13.2 0 5
      vertex -8.5 0 5
      vertex -13.0959 1.6544 5
    endloop
  endfacet
  facet normal 0 0 1
    outer loop
      vertex -8.43297 -1.06533 5
      vertex -13.0959 -1.6544 5
      vertex -12.7853 -3.28271 5
    endloop
  endfacet
  facet normal 0 0 1
    outer loop
      vertex -8.5 0 5
      vertex -13.2 0 5
      vertex -13.0959 -1.6544 5
    endloop
  endfacet
  facet normal -0.951047 0.309047 -4.89882e-18
    outer loop
      vertex -12.7853 3.28271 0
      vertex -12.273 4.85924 5
      vertex -12.273 4.85924 0
    endloop
  endfacet
  facet normal -0.951047 0.309047 -4.89882e-18
    outer loop
      vertex -12.273 4.85924 5
      vertex -12.7853 3.28271 0
      vertex -12.7853 3.28271 5
    endloop
  endfacet
  facet normal -0.982289 0.187372 2.13875e-18
    outer loop
      vertex -13.0959 1.6544 0
      vertex -12.7853 3.28271 5
      vertex -12.7853 3.28271 0
    endloop
  endfacet
  facet normal -0.982289 0.187372 2.13875e-18
    outer loop
      vertex -12.7853 3.28271 5
      vertex -13.0959 1.6544 0
      vertex -13.0959 1.6544 5
    endloop
  endfacet
  facet normal -0.844335 0.535816 -9.16986e-18
    outer loop
      vertex -11.5672 6.35915 0
      vertex -10.679 7.75877 5
      vertex -10.679 7.75877 0
    endloop
  endfacet
  facet normal -0.844335 0.535816 -9.16986e-18
    outer loop
      vertex -10.679 7.75877 5
      vertex -11.5672 6.35915 0
      vertex -11.5672 6.35915 5
    endloop
  endfacet
  facet normal -0.248721 0.968575 0
    outer loop
      vertex -2.47343 12.9662 0
      vertex -4.07902 12.5539 5
      vertex -2.47343 12.9662 5
    endloop
  endfacet
  facet normal -0.248721 0.968575 0
    outer loop
      vertex -4.07902 12.5539 5
      vertex -2.47343 12.9662 0
      vertex -4.07902 12.5539 0
    endloop
  endfacet
  facet normal -0.587762 0.809034 0
    outer loop
      vertex -7.07291 11.1451 0
      vertex -8.414 10.1708 5
      vertex -7.07291 11.1451 5
    endloop
  endfacet
  facet normal -0.587762 0.809034 0
    outer loop
      vertex -8.414 10.1708 5
      vertex -7.07291 11.1451 0
      vertex -8.414 10.1708 0
    endloop
  endfacet
  facet normal -0.684556 0.728961 0
    outer loop
      vertex -8.414 10.1708 0
      vertex -9.62239 9.03602 5
      vertex -8.414 10.1708 5
    endloop
  endfacet
  facet normal -0.684556 0.728961 0
    outer loop
      vertex -9.62239 9.03602 5
      vertex -8.414 10.1708 0
      vertex -9.62239 9.03602 0
    endloop
  endfacet
  facet normal 0.998026 0.0627989 8.06118e-19
    outer loop
      vertex 13.2 0 5
      vertex 13.0959 1.6544 0
      vertex 13.0959 1.6544 5
    endloop
  endfacet
  facet normal 0.998026 0.0627989 8.06118e-19
    outer loop
      vertex 13.0959 1.6544 0
      vertex 13.2 0 5
      vertex 13.2 0 0
    endloop
  endfacet
  facet normal -0.998026 -0.0627989 8.06118e-19
    outer loop
      vertex -13.0959 -1.6544 0
      vertex -13.2 0 5
      vertex -13.2 0 0
    endloop
  endfacet
  facet normal -0.998026 -0.0627989 8.06118e-19
    outer loop
      vertex -13.2 0 5
      vertex -13.0959 -1.6544 0
      vertex -13.0959 -1.6544 5
    endloop
  endfacet
  facet normal -0.904828 -0.425777 -7.79628e-18
    outer loop
      vertex -11.5672 -6.35915 0
      vertex -12.273 -4.85924 5
      vertex -12.273 -4.85924 0
    endloop
  endfacet
  facet normal -0.904828 -0.425777 -7.79628e-18
    outer loop
      vertex -12.273 -4.85924 5
      vertex -11.5672 -6.35915 0
      vertex -11.5672 -6.35915 5
    endloop
  endfacet
  facet normal 0.125357 -0.992112 0
    outer loop
      vertex 0.828835 -13.174 0
      vertex 2.47343 -12.9662 5
      vertex 0.828835 -13.174 5
    endloop
  endfacet
  facet normal 0.125357 -0.992112 0
    outer loop
      vertex 2.47343 -12.9662 5
      vertex 0.828835 -13.174 0
      vertex 2.47343 -12.9662 0
    endloop
  endfacet
  facet normal 0.368108 -0.929783 0
    outer loop
      vertex 4.07902 -12.5539 0
      vertex 5.62029 -11.9437 5
      vertex 4.07902 -12.5539 5
    endloop
  endfacet
  facet normal 0.368108 -0.929783 0
    outer loop
      vertex 5.62029 -11.9437 5
      vertex 4.07902 -12.5539 0
      vertex 5.62029 -11.9437 0
    endloop
  endfacet
  facet normal 0.77052 0.637416 -1.15115e-17
    outer loop
      vertex 10.679 7.75877 5
      vertex 9.62239 9.03602 0
      vertex 9.62239 9.03602 5
    endloop
  endfacet
  facet normal 0.77052 0.637416 -1.15115e-17
    outer loop
      vertex 9.62239 9.03602 0
      vertex 10.679 7.75877 5
      vertex 10.679 7.75877 0
    endloop
  endfacet
  facet normal 0.684556 -0.728961 0
    outer loop
      vertex 8.414 -10.1708 0
      vertex 9.62239 -9.03602 5
      vertex 8.414 -10.1708 5
    endloop
  endfacet
  facet normal 0.684556 -0.728961 0
    outer loop
      vertex 9.62239 -9.03602 5
      vertex 8.414 -10.1708 0
      vertex 9.62239 -9.03602 0
    endloop
  endfacet
  facet normal 0.844335 -0.535816 -9.16986e-18
    outer loop
      vertex 10.679 -7.75877 5
      vertex 11.5672 -6.35915 0
      vertex 11.5672 -6.35915 5
    endloop
  endfacet
  facet normal 0.844335 -0.535816 -9.16986e-18
    outer loop
      vertex 11.5672 -6.35915 0
      vertex 10.679 -7.75877 5
      vertex 10.679 -7.75877 0
    endloop
  endfacet
  facet normal 0.904828 -0.425777 7.79628e-18
    outer loop
      vertex 11.5672 -6.35915 5
      vertex 12.273 -4.85924 0
      vertex 12.273 -4.85924 5
    endloop
  endfacet
  facet normal 0.904828 -0.425777 7.79628e-18
    outer loop
      vertex 12.273 -4.85924 0
      vertex 11.5672 -6.35915 5
      vertex 11.5672 -6.35915 0
    endloop
  endfacet
  facet normal 0 0 -1
    outer loop
      vertex 8.5 0 0
      vertex 13.2 0 0
      vertex 13.0959 -1.6544 0
    endloop
  endfacet
  facet normal 0 0 -1
    outer loop
      vertex 8.43297 -1.06533 0
      vertex 13.0959 -1.6544 0
      vertex 12.7853 -3.28271 0
    endloop
  endfacet
  facet normal 0 0 -1
    outer loop
      vertex 13.2 0 0
      vertex 8.5 0 0
      vertex 13.0959 1.6544 0
    endloop
  endfacet
  facet normal 0 0 -1
    outer loop
      vertex 8.23296 -2.11386 0
      vertex 12.7853 -3.28271 0
      vertex 12.273 -4.85924 0
    endloop
  endfacet
  facet normal 0 0 -1
    outer loop
      vertex 8.43297 1.06533 0
      vertex 13.0959 1.6544 0
      vertex 8.5 0 0
    endloop
  endfacet
  facet normal 0 0 -1
    outer loop
      vertex 7.9031 -3.12906 0
      vertex 12.273 -4.85924 0
      vertex 11.5672 -6.35915 0
    endloop
  endfacet
  facet normal -0 0 -1
    outer loop
      vertex 13.0959 1.6544 0
      vertex 8.43297 1.06533 0
      vertex 12.7853 3.28271 0
    endloop
  endfacet
  facet normal 0 0 -1
    outer loop
      vertex 7.44861 -4.09491 0
      vertex 11.5672 -6.35915 0
      vertex 10.679 -7.75877 0
    endloop
  endfacet
  facet normal 0 0 -1
    outer loop
      vertex 8.23296 2.11386 0
      vertex 12.7853 3.28271 0
      vertex 8.43297 1.06533 0
    endloop
  endfacet
  facet normal 0 0 -1
    outer loop
      vertex 6.87664 -4.99617 0
      vertex 10.679 -7.75877 0
      vertex 9.62239 -9.03602 0
    endloop
  endfacet
  facet normal -0 0 -1
    outer loop
      vertex 12.7853 3.28271 0
      vertex 8.23296 2.11386 0
      vertex 12.273 4.85924 0
    endloop
  endfacet
  facet normal 0 0 -1
    outer loop
      vertex 7.9031 3.12906 0
      vertex 12.273 4.85924 0
      vertex 8.23296 2.11386 0
    endloop
  endfacet
  facet normal 0 0 -1
    outer loop
      vertex 13.0959 -1.6544 0
      vertex 8.43297 -1.06533 0
      vertex 8.5 0 0
    endloop
  endfacet
  facet normal 0 0 -1
    outer loop
      vertex 6.19623 -5.81865 0
      vertex 9.62239 -9.03602 0
      vertex 8.414 -10.1708 0
    endloop
  endfacet
  facet normal 0 0 -1
    outer loop
      vertex 12.7853 -3.28271 0
      vertex 8.23296 -2.11386 0
      vertex 8.43297 -1.06533 0
    endloop
  endfacet
  facet normal 0 0 -1
    outer loop
      vertex 12.273 -4.85924 0
      vertex 7.9031 -3.12906 0
      vertex 8.23296 -2.11386 0
    endloop
  endfacet
  facet normal 0 0 -1
    outer loop
      vertex 11.5672 -6.35915 0
      vertex 7.44861 -4.09491 0
      vertex 7.9031 -3.12906 0
    endloop
  endfacet
  facet normal 0 0 -1
    outer loop
      vertex 5.4181 -6.54936 0
      vertex 8.414 -10.1708 0
      vertex 7.07291 -11.1451 0
    endloop
  endfacet
  facet normal 0 0 -1
    outer loop
      vertex 10.679 -7.75877 0
      vertex 6.87664 -4.99617 0
      vertex 7.44861 -4.09491 0
    endloop
  endfacet
  facet normal 0 0 -1
    outer loop
      vertex 9.62239 -9.03602 0
      vertex 6.19623 -5.81865 0
      vertex 6.87664 -4.99617 0
    endloop
  endfacet
  facet normal 0 0 -1
    outer loop
      vertex 4.55453 -7.17679 0
      vertex 7.07291 -11.1451 0
      vertex 5.62029 -11.9437 0
    endloop
  endfacet
  facet normal 0 0 -1
    outer loop
      vertex 8.414 -10.1708 0
      vertex 5.4181 -6.54936 0
      vertex 6.19623 -5.81865 0
    endloop
  endfacet
  facet normal 0 0 -1
    outer loop
      vertex 7.07291 -11.1451 0
      vertex 4.55453 -7.17679 0
      vertex 5.4181 -6.54936 0
    endloop
  endfacet
  facet normal 0 0 -1
    outer loop
      vertex 3.61912 -7.69103 0
      vertex 5.62029 -11.9437 0
      vertex 4.07902 -12.5539 0
    endloop
  endfacet
  facet normal 0 0 -1
    outer loop
      vertex 5.62029 -11.9437 0
      vertex 3.61912 -7.69103 0
      vertex 4.55453 -7.17679 0
    endloop
  endfacet
  facet normal 0 0 -1
    outer loop
      vertex 4.07902 -12.5539 0
      vertex 2.62664 -8.08398 0
      vertex 3.61912 -7.69103 0
    endloop
  endfacet
  facet normal 0 0 -1
    outer loop
      vertex 2.47343 -12.9662 0
      vertex 2.62664 -8.08398 0
      vertex 4.07902 -12.5539 0
    endloop
  endfacet
  facet normal 0 0 -1
    outer loop
      vertex 2.47343 -12.9662 0
      vertex 1.59274 -8.34944 0
      vertex 2.62664 -8.08398 0
    endloop
  endfacet
  facet normal 0 0 -1
    outer loop
      vertex 0.828835 -13.174 0
      vertex 1.59274 -8.34944 0
      vertex 2.47343 -12.9662 0
    endloop
  endfacet
  facet normal 0 0 -1
    outer loop
      vertex 0.828835 -13.174 0
      vertex 0.533719 -8.48323 0
      vertex 1.59274 -8.34944 0
    endloop
  endfacet
  facet normal 0 0 -1
    outer loop
      vertex 0.828835 -13.174 0
      vertex -0.533719 -8.48323 0
      vertex 0.533719 -8.48323 0
    endloop
  endfacet
  facet normal 0 0 -1
    outer loop
      vertex -0.828835 -13.174 0
      vertex -0.533719 -8.48323 0
      vertex 0.828835 -13.174 0
    endloop
  endfacet
  facet normal 0 0 -1
    outer loop
      vertex -0.828835 -13.174 0
      vertex -1.59274 -8.34944 0
      vertex -0.533719 -8.48323 0
    endloop
  endfacet
  facet normal 0 0 -1
    outer loop
      vertex -2.47343 -12.9662 0
      vertex -1.59274 -8.34944 0
      vertex -0.828835 -13.174 0
    endloop
  endfacet
  facet normal 0 0 -1
    outer loop
      vertex -2.47343 -12.9662 0
      vertex -2.62664 -8.08398 0
      vertex -1.59274 -8.34944 0
    endloop
  endfacet
  facet normal 0 0 -1
    outer loop
      vertex -4.07902 -12.5539 0
      vertex -2.62664 -8.08398 0
      vertex -2.47343 -12.9662 0
    endloop
  endfacet
  facet normal -0 0 -1
    outer loop
      vertex -2.62664 -8.08398 0
      vertex -4.07902 -12.5539 0
      vertex -3.61912 -7.69103 0
    endloop
  endfacet
  facet normal 0 0 -1
    outer loop
      vertex -5.62029 -11.9437 0
      vertex -3.61912 -7.69103 0
      vertex -4.07902 -12.5539 0
    endloop
  endfacet
  facet normal -0 0 -1
    outer loop
      vertex -3.61912 -7.69103 0
      vertex -5.62029 -11.9437 0
      vertex -4.55453 -7.17679 0
    endloop
  endfacet
  facet normal 0 0 -1
    outer loop
      vertex -7.07291 -11.1451 0
      vertex -4.55453 -7.17679 0
      vertex -5.62029 -11.9437 0
    endloop
  endfacet
  facet normal -0 0 -1
    outer loop
      vertex -4.55453 -7.17679 0
      vertex -7.07291 -11.1451 0
      vertex -5.4181 -6.54936 0
    endloop
  endfacet
  facet normal 0 0 -1
    outer loop
      vertex -8.414 -10.1708 0
      vertex -5.4181 -6.54936 0
      vertex -7.07291 -11.1451 0
    endloop
  endfacet
  facet normal -0 0 -1
    outer loop
      vertex -5.4181 -6.54936 0
      vertex -8.414 -10.1708 0
      vertex -6.19623 -5.81865 0
    endloop
  endfacet
  facet normal 0 0 -1
    outer loop
      vertex -9.62239 -9.03602 0
      vertex -6.19623 -5.81865 0
      vertex -8.414 -10.1708 0
    endloop
  endfacet
  facet normal -0 0 -1
    outer loop
      vertex -6.19623 -5.81865 0
      vertex -9.62239 -9.03602 0
      vertex -6.87664 -4.99617 0
    endloop
  endfacet
  facet normal 0 0 -1
    outer loop
      vertex -10.679 -7.75877 0
      vertex -6.87664 -4.99617 0
      vertex -9.62239 -9.03602 0
    endloop
  endfacet
  facet normal -0 0 -1
    outer loop
      vertex -6.87664 -4.99617 0
      vertex -10.679 -7.75877 0
      vertex -7.44861 -4.09491 0
    endloop
  endfacet
  facet normal 0 0 -1
    outer loop
      vertex -11.5672 -6.35915 0
      vertex -7.44861 -4.09491 0
      vertex -10.679 -7.75877 0
    endloop
  endfacet
  facet normal -0 0 -1
    outer loop
      vertex -7.44861 -4.09491 0
      vertex -11.5672 -6.35915 0
      vertex -7.9031 -3.12906 0
    endloop
  endfacet
  facet normal 0 0 -1
    outer loop
      vertex -12.273 -4.85924 0
      vertex -7.9031 -3.12906 0
      vertex -11.5672 -6.35915 0
    endloop
  endfacet
  facet normal -0 0 -1
    outer loop
      vertex 12.273 4.85924 0
      vertex 7.9031 3.12906 0
      vertex 11.5672 6.35915 0
    endloop
  endfacet
  facet normal 0 0 -1
    outer loop
      vertex 7.44861 4.09491 0
      vertex 11.5672 6.35915 0
      vertex 7.9031 3.12906 0
    endloop
  endfacet
  facet normal -0 0 -1
    outer loop
      vertex 11.5672 6.35915 0
      vertex 7.44861 4.09491 0
      vertex 10.679 7.75877 0
    endloop
  endfacet
  facet normal 0 0 -1
    outer loop
      vertex 6.87664 4.99617 0
      vertex 10.679 7.75877 0
      vertex 7.44861 4.09491 0
    endloop
  endfacet
  facet normal -0 0 -1
    outer loop
      vertex 10.679 7.75877 0
      vertex 6.87664 4.99617 0
      vertex 9.62239 9.03602 0
    endloop
  endfacet
  facet normal 0 0 -1
    outer loop
      vertex 6.19623 5.81865 0
      vertex 9.62239 9.03602 0
      vertex 6.87664 4.99617 0
    endloop
  endfacet
  facet normal -0 0 -1
    outer loop
      vertex 9.62239 9.03602 0
      vertex 6.19623 5.81865 0
      vertex 8.414 10.1708 0
    endloop
  endfacet
  facet normal 0 0 -1
    outer loop
      vertex 5.4181 6.54936 0
      vertex 8.414 10.1708 0
      vertex 6.19623 5.81865 0
    endloop
  endfacet
  facet normal -0 0 -1
    outer loop
      vertex 8.414 10.1708 0
      vertex 5.4181 6.54936 0
      vertex 7.07291 11.1451 0
    endloop
  endfacet
  facet normal 0 0 -1
    outer loop
      vertex 4.55453 7.17679 0
      vertex 7.07291 11.1451 0
      vertex 5.4181 6.54936 0
    endloop
  endfacet
  facet normal -0 0 -1
    outer loop
      vertex 7.07291 11.1451 0
      vertex 4.55453 7.17679 0
      vertex 5.62029 11.9437 0
    endloop
  endfacet
  facet normal 0 0 -1
    outer loop
      vertex 3.61912 7.69103 0
      vertex 5.62029 11.9437 0
      vertex 4.55453 7.17679 0
    endloop
  endfacet
  facet normal -0 0 -1
    outer loop
      vertex 5.62029 11.9437 0
      vertex 3.61912 7.69103 0
      vertex 4.07902 12.5539 0
    endloop
  endfacet
  facet normal 0 0 -1
    outer loop
      vertex 2.62664 8.08398 0
      vertex 4.07902 12.5539 0
      vertex 3.61912 7.69103 0
    endloop
  endfacet
  facet normal 0 0 -1
    outer loop
      vertex 2.62664 8.08398 0
      vertex 2.47343 12.9662 0
      vertex 4.07902 12.5539 0
    endloop
  endfacet
  facet normal 0 0 -1
    outer loop
      vertex 1.59274 8.34944 0
      vertex 2.47343 12.9662 0
      vertex 2.62664 8.08398 0
    endloop
  endfacet
  facet normal 0 0 -1
    outer loop
      vertex 1.59274 8.34944 0
      vertex 0.828835 13.174 0
      vertex 2.47343 12.9662 0
    endloop
  endfacet
  facet normal 0 0 -1
    outer loop
      vertex 0.533719 8.48323 0
      vertex 0.828835 13.174 0
      vertex 1.59274 8.34944 0
    endloop
  endfacet
  facet normal 0 0 -1
    outer loop
      vertex -0.533719 8.48323 0
      vertex 0.828835 13.174 0
      vertex 0.533719 8.48323 0
    endloop
  endfacet
  facet normal 0 0 -1
    outer loop
      vertex -0.533719 8.48323 0
      vertex -0.828835 13.174 0
      vertex 0.828835 13.174 0
    endloop
  endfacet
  facet normal 0 0 -1
    outer loop
      vertex -1.59274 8.34944 0
      vertex -0.828835 13.174 0
      vertex -0.533719 8.48323 0
    endloop
  endfacet
  facet normal 0 0 -1
    outer loop
      vertex -1.59274 8.34944 0
      vertex -2.47343 12.9662 0
      vertex -0.828835 13.174 0
    endloop
  endfacet
  facet normal 0 0 -1
    outer loop
      vertex -2.62664 8.08398 0
      vertex -2.47343 12.9662 0
      vertex -1.59274 8.34944 0
    endloop
  endfacet
  facet normal 0 0 -1
    outer loop
      vertex -4.07902 12.5539 0
      vertex -2.62664 8.08398 0
      vertex -3.61912 7.69103 0
    endloop
  endfacet
  facet normal 0 0 -1
    outer loop
      vertex -2.62664 8.08398 0
      vertex -4.07902 12.5539 0
      vertex -2.47343 12.9662 0
    endloop
  endfacet
  facet normal 0 0 -1
    outer loop
      vertex -5.62029 11.9437 0
      vertex -3.61912 7.69103 0
      vertex -4.55453 7.17679 0
    endloop
  endfacet
  facet normal 0 0 -1
    outer loop
      vertex -7.07291 11.1451 0
      vertex -4.55453 7.17679 0
      vertex -5.4181 6.54936 0
    endloop
  endfacet
  facet normal 0 0 -1
    outer loop
      vertex -3.61912 7.69103 0
      vertex -5.62029 11.9437 0
      vertex -4.07902 12.5539 0
    endloop
  endfacet
  facet normal 0 0 -1
    outer loop
      vertex -8.414 10.1708 0
      vertex -5.4181 6.54936 0
      vertex -6.19623 5.81865 0
    endloop
  endfacet
  facet normal 0 0 -1
    outer loop
      vertex -9.62239 9.03602 0
      vertex -6.19623 5.81865 0
      vertex -6.87664 4.99617 0
    endloop
  endfacet
  facet normal 0 0 -1
    outer loop
      vertex -4.55453 7.17679 0
      vertex -7.07291 11.1451 0
      vertex -5.62029 11.9437 0
    endloop
  endfacet
  facet normal 0 0 -1
    outer loop
      vertex -10.679 7.75877 0
      vertex -6.87664 4.99617 0
      vertex -7.44861 4.09491 0
    endloop
  endfacet
  facet normal 0 0 -1
    outer loop
      vertex -11.5672 6.35915 0
      vertex -7.44861 4.09491 0
      vertex -7.9031 3.12906 0
    endloop
  endfacet
  facet normal 0 0 -1
    outer loop
      vertex -12.273 4.85924 0
      vertex -7.9031 3.12906 0
      vertex -8.23296 2.11386 0
    endloop
  endfacet
  facet normal 0 0 -1
    outer loop
      vertex -5.4181 6.54936 0
      vertex -8.414 10.1708 0
      vertex -7.07291 11.1451 0
    endloop
  endfacet
  facet normal 0 0 -1
    outer loop
      vertex -12.7853 3.28271 0
      vertex -8.23296 2.11386 0
      vertex -8.43297 1.06533 0
    endloop
  endfacet
  facet normal 0 0 -1
    outer loop
      vertex -13.0959 1.6544 0
      vertex -8.43297 1.06533 0
      vertex -8.5 0 0
    endloop
  endfacet
  facet normal -0 0 -1
    outer loop
      vertex -7.9031 -3.12906 0
      vertex -12.273 -4.85924 0
      vertex -8.23296 -2.11386 0
    endloop
  endfacet
  facet normal 0 0 -1
    outer loop
      vertex -6.19623 5.81865 0
      vertex -9.62239 9.03602 0
      vertex -8.414 10.1708 0
    endloop
  endfacet
  facet normal 0 0 -1
    outer loop
      vertex -12.7853 -3.28271 0
      vertex -8.23296 -2.11386 0
      vertex -12.273 -4.85924 0
    endloop
  endfacet
  facet normal 0 0 -1
    outer loop
      vertex -6.87664 4.99617 0
      vertex -10.679 7.75877 0
      vertex -9.62239 9.03602 0
    endloop
  endfacet
  facet normal -0 0 -1
    outer loop
      vertex -8.23296 -2.11386 0
      vertex -12.7853 -3.28271 0
      vertex -8.43297 -1.06533 0
    endloop
  endfacet
  facet normal 0 0 -1
    outer loop
      vertex -7.44861 4.09491 0
      vertex -11.5672 6.35915 0
      vertex -10.679 7.75877 0
    endloop
  endfacet
  facet normal 0 0 -1
    outer loop
      vertex -13.0959 -1.6544 0
      vertex -8.43297 -1.06533 0
      vertex -12.7853 -3.28271 0
    endloop
  endfacet
  facet normal 0 0 -1
    outer loop
      vertex -7.9031 3.12906 0
      vertex -12.273 4.85924 0
      vertex -11.5672 6.35915 0
    endloop
  endfacet
  facet normal -0 0 -1
    outer loop
      vertex -8.43297 -1.06533 0
      vertex -13.0959 -1.6544 0
      vertex -8.5 0 0
    endloop
  endfacet
  facet normal 0 0 -1
    outer loop
      vertex -8.23296 2.11386 0
      vertex -12.7853 3.28271 0
      vertex -12.273 4.85924 0
    endloop
  endfacet
  facet normal 0 0 -1
    outer loop
      vertex -13.2 0 0
      vertex -8.5 0 0
      vertex -13.0959 -1.6544 0
    endloop
  endfacet
  facet normal 0 0 -1
    outer loop
      vertex -8.43297 1.06533 0
      vertex -13.0959 1.6544 0
      vertex -12.7853 3.28271 0
    endloop
  endfacet
  facet normal 0 0 -1
    outer loop
      vertex -8.5 0 0
      vertex -13.2 0 0
      vertex -13.0959 1.6544 0
    endloop
  endfacet
  facet normal -0.951047 -0.309047 4.89882e-18
    outer loop
      vertex -12.273 -4.85924 0
      vertex -12.7853 -3.28271 5
      vertex -12.7853 -3.28271 0
    endloop
  endfacet
  facet normal -0.951047 -0.309047 4.89882e-18
    outer loop
      vertex -12.7853 -3.28271 5
      vertex -12.273 -4.85924 0
      vertex -12.273 -4.85924 5
    endloop
  endfacet
  facet normal -0.982289 -0.187372 -2.13875e-18
    outer loop
      vertex -12.7853 -3.28271 0
      vertex -13.0959 -1.6544 5
      vertex -13.0959 -1.6544 0
    endloop
  endfacet
  facet normal -0.982289 -0.187372 -2.13875e-18
    outer loop
      vertex -13.0959 -1.6544 5
      vertex -12.7853 -3.28271 0
      vertex -12.7853 -3.28271 5
    endloop
  endfacet
  facet normal 0.248721 -0.968575 0
    outer loop
      vertex 2.47343 -12.9662 0
      vertex 4.07902 -12.5539 5
      vertex 2.47343 -12.9662 5
    endloop
  endfacet
  facet normal 0.248721 -0.968575 0
    outer loop
      vertex 4.07902 -12.5539 5
      vertex 2.47343 -12.9662 0
      vertex 4.07902 -12.5539 0
    endloop
  endfacet
  facet normal -0.368108 -0.929783 0
    outer loop
      vertex -5.62029 -11.9437 0
      vertex -4.07902 -12.5539 5
      vertex -5.62029 -11.9437 5
    endloop
  endfacet
  facet normal -0.368108 -0.929783 -0
    outer loop
      vertex -4.07902 -12.5539 5
      vertex -5.62029 -11.9437 0
      vertex -4.07902 -12.5539 0
    endloop
  endfacet
  facet normal 0 -1 0
    outer loop
      vertex -0.828835 -13.174 0
      vertex 0.828835 -13.174 5
      vertex -0.828835 -13.174 5
    endloop
  endfacet
  facet normal 0 -1 -0
    outer loop
      vertex 0.828835 -13.174 5
      vertex -0.828835 -13.174 0
      vertex 0.828835 -13.174 0
    endloop
  endfacet
  facet normal -0.125357 -0.992112 0
    outer loop
      vertex -2.47343 -12.9662 0
      vertex -0.828835 -13.174 5
      vertex -2.47343 -12.9662 5
    endloop
  endfacet
  facet normal -0.125357 -0.992112 -0
    outer loop
      vertex -0.828835 -13.174 5
      vertex -2.47343 -12.9662 0
      vertex -0.828835 -13.174 0
    endloop
  endfacet
  facet normal -0.248721 -0.968575 0
    outer loop
      vertex -4.07902 -12.5539 0
      vertex -2.47343 -12.9662 5
      vertex -4.07902 -12.5539 5
    endloop
  endfacet
  facet normal -0.248721 -0.968575 -0
    outer loop
      vertex -2.47343 -12.9662 5
      vertex -4.07902 -12.5539 0
      vertex -2.47343 -12.9662 0
    endloop
  endfacet
  facet normal -0.77052 -0.637416 -1.15115e-17
    outer loop
      vertex -9.62239 -9.03602 0
      vertex -10.679 -7.75877 5
      vertex -10.679 -7.75877 0
    endloop
  endfacet
  facet normal -0.77052 -0.637416 -1.15115e-17
    outer loop
      vertex -10.679 -7.75877 5
      vertex -9.62239 -9.03602 0
      vertex -9.62239 -9.03602 5
    endloop
  endfacet
  facet normal -0.684556 -0.728961 0
    outer loop
      vertex -9.62239 -9.03602 0
      vertex -8.414 -10.1708 5
      vertex -9.62239 -9.03602 5
    endloop
  endfacet
  facet normal -0.684556 -0.728961 -0
    outer loop
      vertex -8.414 -10.1708 5
      vertex -9.62239 -9.03602 0
      vertex -8.414 -10.1708 0
    endloop
  endfacet
  facet normal 0.77052 -0.637416 1.15115e-17
    outer loop
      vertex 9.62239 -9.03602 5
      vertex 10.679 -7.75877 0
      vertex 10.679 -7.75877 5
    endloop
  endfacet
  facet normal 0.77052 -0.637416 1.15115e-17
    outer loop
      vertex 10.679 -7.75877 0
      vertex 9.62239 -9.03602 5
      vertex 9.62239 -9.03602 0
    endloop
  endfacet
  facet normal 0.587762 -0.809034 0
    outer loop
      vertex 7.07291 -11.1451 0
      vertex 8.414 -10.1708 5
      vertex 7.07291 -11.1451 5
    endloop
  endfacet
  facet normal 0.587762 -0.809034 0
    outer loop
      vertex 8.414 -10.1708 5
      vertex 7.07291 -11.1451 0
      vertex 8.414 -10.1708 0
    endloop
  endfacet
  facet normal 0.481761 -0.876303 0
    outer loop
      vertex 5.62029 -11.9437 0
      vertex 7.07291 -11.1451 5
      vertex 5.62029 -11.9437 5
    endloop
  endfacet
  facet normal 0.481761 -0.876303 0
    outer loop
      vertex 7.07291 -11.1451 5
      vertex 5.62029 -11.9437 0
      vertex 7.07291 -11.1451 0
    endloop
  endfacet
  facet normal -0.481761 -0.876303 0
    outer loop
      vertex -7.07291 -11.1451 0
      vertex -5.62029 -11.9437 5
      vertex -7.07291 -11.1451 5
    endloop
  endfacet
  facet normal -0.481761 -0.876303 -0
    outer loop
      vertex -5.62029 -11.9437 5
      vertex -7.07291 -11.1451 0
      vertex -5.62029 -11.9437 0
    endloop
  endfacet
  facet normal -0.587762 -0.809034 0
    outer loop
      vertex -8.414 -10.1708 0
      vertex -7.07291 -11.1451 5
      vertex -8.414 -10.1708 5
    endloop
  endfacet
  facet normal -0.587762 -0.809034 -0
    outer loop
      vertex -7.07291 -11.1451 5
      vertex -8.414 -10.1708 0
      vertex -7.07291 -11.1451 0
    endloop
  endfacet
  facet normal -0.844335 -0.535816 9.16986e-18
    outer loop
      vertex -10.679 -7.75877 0
      vertex -11.5672 -6.35915 5
      vertex -11.5672 -6.35915 0
    endloop
  endfacet
  facet normal -0.844335 -0.535816 9.16986e-18
    outer loop
      vertex -11.5672 -6.35915 5
      vertex -10.679 -7.75877 0
      vertex -10.679 -7.75877 5
    endloop
  endfacet
  facet normal -0.998026 -0.0627953 8.76047e-20
    outer loop
      vertex 8.5 0 0
      vertex 8.43297 1.06533 5
      vertex 8.43297 1.06533 0
    endloop
  endfacet
  facet normal -0.998026 -0.0627953 8.76047e-20
    outer loop
      vertex 8.43297 1.06533 5
      vertex 8.5 0 0
      vertex 8.5 0 5
    endloop
  endfacet
  facet normal 0.998026 -0.0627953 -8.76047e-20
    outer loop
      vertex -8.5 0 5
      vertex -8.43297 1.06533 0
      vertex -8.43297 1.06533 5
    endloop
  endfacet
  facet normal 0.998026 -0.0627953 -8.76047e-20
    outer loop
      vertex -8.43297 1.06533 0
      vertex -8.5 0 5
      vertex -8.5 0 0
    endloop
  endfacet
  facet normal 0 -1 0
    outer loop
      vertex -0.533719 8.48323 0
      vertex 0.533719 8.48323 5
      vertex -0.533719 8.48323 5
    endloop
  endfacet
  facet normal 0 -1 -0
    outer loop
      vertex 0.533719 8.48323 5
      vertex -0.533719 8.48323 0
      vertex 0.533719 8.48323 0
    endloop
  endfacet
  facet normal 0 1 -0
    outer loop
      vertex 0.533719 -8.48323 0
      vertex -0.533719 -8.48323 5
      vertex 0.533719 -8.48323 5
    endloop
  endfacet
  facet normal 0 1 0
    outer loop
      vertex -0.533719 -8.48323 5
      vertex 0.533719 -8.48323 0
      vertex -0.533719 -8.48323 0
    endloop
  endfacet
  facet normal -0.684546 -0.72897 0
    outer loop
      vertex 5.4181 6.54936 0
      vertex 6.19623 5.81865 5
      vertex 5.4181 6.54936 5
    endloop
  endfacet
  facet normal -0.684546 -0.72897 -0
    outer loop
      vertex 6.19623 5.81865 5
      vertex 5.4181 6.54936 0
      vertex 6.19623 5.81865 0
    endloop
  endfacet
  facet normal 0.684546 -0.72897 0
    outer loop
      vertex -6.19623 5.81865 0
      vertex -5.4181 6.54936 5
      vertex -6.19623 5.81865 5
    endloop
  endfacet
  facet normal 0.684546 -0.72897 0
    outer loop
      vertex -5.4181 6.54936 5
      vertex -6.19623 5.81865 0
      vertex -5.4181 6.54936 0
    endloop
  endfacet
  facet normal 0.368124 -0.929777 0
    outer loop
      vertex -3.61912 7.69103 0
      vertex -2.62664 8.08398 5
      vertex -3.61912 7.69103 5
    endloop
  endfacet
  facet normal 0.368124 -0.929777 0
    outer loop
      vertex -2.62664 8.08398 5
      vertex -3.61912 7.69103 0
      vertex -2.62664 8.08398 0
    endloop
  endfacet
  facet normal -0.904829 -0.425776 2.23963e-18
    outer loop
      vertex 7.9031 3.12906 0
      vertex 7.44861 4.09491 5
      vertex 7.44861 4.09491 0
    endloop
  endfacet
  facet normal -0.904829 -0.425776 2.23963e-18
    outer loop
      vertex 7.44861 4.09491 5
      vertex 7.9031 3.12906 0
      vertex 7.9031 3.12906 5
    endloop
  endfacet
  facet normal -0.368124 -0.929777 0
    outer loop
      vertex 2.62664 8.08398 0
      vertex 3.61912 7.69103 5
      vertex 2.62664 8.08398 5
    endloop
  endfacet
  facet normal -0.368124 -0.929777 -0
    outer loop
      vertex 3.61912 7.69103 5
      vertex 2.62664 8.08398 0
      vertex 3.61912 7.69103 0
    endloop
  endfacet
  facet normal -0.24869 -0.968583 0
    outer loop
      vertex 1.59274 8.34944 0
      vertex 2.62664 8.08398 5
      vertex 1.59274 8.34944 5
    endloop
  endfacet
  facet normal -0.24869 -0.968583 -0
    outer loop
      vertex 2.62664 8.08398 5
      vertex 1.59274 8.34944 0
      vertex 2.62664 8.08398 0
    endloop
  endfacet
  facet normal -0.481749 -0.876309 0
    outer loop
      vertex 3.61912 7.69103 0
      vertex 4.55453 7.17679 5
      vertex 3.61912 7.69103 5
    endloop
  endfacet
  facet normal -0.481749 -0.876309 -0
    outer loop
      vertex 4.55453 7.17679 5
      vertex 3.61912 7.69103 0
      vertex 4.55453 7.17679 0
    endloop
  endfacet
  facet normal 0.904829 -0.425776 -2.23963e-18
    outer loop
      vertex -7.9031 3.12906 5
      vertex -7.44861 4.09491 0
      vertex -7.44861 4.09491 5
    endloop
  endfacet
  facet normal 0.904829 -0.425776 -2.23963e-18
    outer loop
      vertex -7.44861 4.09491 0
      vertex -7.9031 3.12906 5
      vertex -7.9031 3.12906 0
    endloop
  endfacet
  facet normal 0.125337 -0.992114 0
    outer loop
      vertex -1.59274 8.34944 0
      vertex -0.533719 8.48323 5
      vertex -1.59274 8.34944 5
    endloop
  endfacet
  facet normal 0.125337 -0.992114 0
    outer loop
      vertex -0.533719 8.48323 5
      vertex -1.59274 8.34944 0
      vertex -0.533719 8.48323 0
    endloop
  endfacet
  facet normal -0.982289 0.187374 1.04618e-18
    outer loop
      vertex 8.23296 -2.11386 0
      vertex 8.43297 -1.06533 5
      vertex 8.43297 -1.06533 0
    endloop
  endfacet
  facet normal -0.982289 0.187374 1.04618e-18
    outer loop
      vertex 8.43297 -1.06533 5
      vertex 8.23296 -2.11386 0
      vertex 8.23296 -2.11386 5
    endloop
  endfacet
  facet normal -0.125337 0.992114 0
    outer loop
      vertex 1.59274 -8.34944 0
      vertex 0.533719 -8.48323 5
      vertex 1.59274 -8.34944 5
    endloop
  endfacet
  facet normal -0.125337 0.992114 0
    outer loop
      vertex 0.533719 -8.48323 5
      vertex 1.59274 -8.34944 0
      vertex 0.533719 -8.48323 0
    endloop
  endfacet
  facet normal -0.951056 -0.309018 7.66852e-19
    outer loop
      vertex 8.23296 2.11386 0
      vertex 7.9031 3.12906 5
      vertex 7.9031 3.12906 0
    endloop
  endfacet
  facet normal -0.951056 -0.309018 7.66852e-19
    outer loop
      vertex 7.9031 3.12906 5
      vertex 8.23296 2.11386 0
      vertex 8.23296 2.11386 5
    endloop
  endfacet
  facet normal -0.982289 -0.187374 -1.04618e-18
    outer loop
      vertex 8.43297 1.06533 0
      vertex 8.23296 2.11386 5
      vertex 8.23296 2.11386 0
    endloop
  endfacet
  facet normal -0.982289 -0.187374 -1.04618e-18
    outer loop
      vertex 8.23296 2.11386 5
      vertex 8.43297 1.06533 0
      vertex 8.43297 1.06533 5
    endloop
  endfacet
  facet normal -0.770515 -0.637421 -5.73872e-18
    outer loop
      vertex 6.87664 4.99617 0
      vertex 6.19623 5.81865 5
      vertex 6.19623 5.81865 0
    endloop
  endfacet
  facet normal -0.770515 -0.637421 -5.73872e-18
    outer loop
      vertex 6.19623 5.81865 5
      vertex 6.87664 4.99617 0
      vertex 6.87664 4.99617 5
    endloop
  endfacet
  facet normal -0.844322 -0.535835 9.9133e-18
    outer loop
      vertex 7.44861 4.09491 0
      vertex 6.87664 4.99617 5
      vertex 6.87664 4.99617 0
    endloop
  endfacet
  facet normal -0.844322 -0.535835 9.9133e-18
    outer loop
      vertex 6.87664 4.99617 5
      vertex 7.44861 4.09491 0
      vertex 7.44861 4.09491 5
    endloop
  endfacet
  facet normal -0.125337 -0.992114 0
    outer loop
      vertex 0.533719 8.48323 0
      vertex 1.59274 8.34944 5
      vertex 0.533719 8.48323 5
    endloop
  endfacet
  facet normal -0.125337 -0.992114 -0
    outer loop
      vertex 1.59274 8.34944 5
      vertex 0.533719 8.48323 0
      vertex 1.59274 8.34944 0
    endloop
  endfacet
  facet normal -0.587791 -0.809013 0
    outer loop
      vertex 4.55453 7.17679 0
      vertex 5.4181 6.54936 5
      vertex 4.55453 7.17679 5
    endloop
  endfacet
  facet normal -0.587791 -0.809013 -0
    outer loop
      vertex 5.4181 6.54936 5
      vertex 4.55453 7.17679 0
      vertex 5.4181 6.54936 0
    endloop
  endfacet
  facet normal 0.844322 -0.535835 -9.9133e-18
    outer loop
      vertex -7.44861 4.09491 5
      vertex -6.87664 4.99617 0
      vertex -6.87664 4.99617 5
    endloop
  endfacet
  facet normal 0.844322 -0.535835 -9.9133e-18
    outer loop
      vertex -6.87664 4.99617 0
      vertex -7.44861 4.09491 5
      vertex -7.44861 4.09491 0
    endloop
  endfacet
  facet normal 0.770515 -0.637421 5.73872e-18
    outer loop
      vertex -6.87664 4.99617 5
      vertex -6.19623 5.81865 0
      vertex -6.19623 5.81865 5
    endloop
  endfacet
  facet normal 0.770515 -0.637421 5.73872e-18
    outer loop
      vertex -6.19623 5.81865 0
      vertex -6.87664 4.99617 5
      vertex -6.87664 4.99617 0
    endloop
  endfacet
  facet normal 0.951056 -0.309018 -7.66852e-19
    outer loop
      vertex -8.23296 2.11386 5
      vertex -7.9031 3.12906 0
      vertex -7.9031 3.12906 5
    endloop
  endfacet
  facet normal 0.951056 -0.309018 -7.66852e-19
    outer loop
      vertex -7.9031 3.12906 0
      vertex -8.23296 2.11386 5
      vertex -8.23296 2.11386 0
    endloop
  endfacet
  facet normal 0.982289 -0.187374 1.04618e-18
    outer loop
      vertex -8.43297 1.06533 5
      vertex -8.23296 2.11386 0
      vertex -8.23296 2.11386 5
    endloop
  endfacet
  facet normal 0.982289 -0.187374 1.04618e-18
    outer loop
      vertex -8.23296 2.11386 0
      vertex -8.43297 1.06533 5
      vertex -8.43297 1.06533 0
    endloop
  endfacet
  facet normal 0.481749 -0.876309 0
    outer loop
      vertex -4.55453 7.17679 0
      vertex -3.61912 7.69103 5
      vertex -4.55453 7.17679 5
    endloop
  endfacet
  facet normal 0.481749 -0.876309 0
    outer loop
      vertex -3.61912 7.69103 5
      vertex -4.55453 7.17679 0
      vertex -3.61912 7.69103 0
    endloop
  endfacet
  facet normal 0.587791 -0.809013 0
    outer loop
      vertex -5.4181 6.54936 0
      vertex -4.55453 7.17679 5
      vertex -5.4181 6.54936 5
    endloop
  endfacet
  facet normal 0.587791 -0.809013 0
    outer loop
      vertex -4.55453 7.17679 5
      vertex -5.4181 6.54936 0
      vertex -4.55453 7.17679 0
    endloop
  endfacet
  facet normal 0.24869 -0.968583 0
    outer loop
      vertex -2.62664 8.08398 0
      vertex -1.59274 8.34944 5
      vertex -2.62664 8.08398 5
    endloop
  endfacet
  facet normal 0.24869 -0.968583 0
    outer loop
      vertex -1.59274 8.34944 5
      vertex -2.62664 8.08398 0
      vertex -1.59274 8.34944 0
    endloop
  endfacet
  facet normal -0.998026 0.0627953 -8.76047e-20
    outer loop
      vertex 8.43297 -1.06533 0
      vertex 8.5 0 5
      vertex 8.5 0 0
    endloop
  endfacet
  facet normal -0.998026 0.0627953 -8.76047e-20
    outer loop
      vertex 8.5 0 5
      vertex 8.43297 -1.06533 0
      vertex 8.43297 -1.06533 5
    endloop
  endfacet
  facet normal -0.904829 0.425776 -2.23963e-18
    outer loop
      vertex 7.44861 -4.09491 0
      vertex 7.9031 -3.12906 5
      vertex 7.9031 -3.12906 0
    endloop
  endfacet
  facet normal -0.904829 0.425776 -2.23963e-18
    outer loop
      vertex 7.9031 -3.12906 5
      vertex 7.44861 -4.09491 0
      vertex 7.44861 -4.09491 5
    endloop
  endfacet
  facet normal 0.684546 0.72897 -0
    outer loop
      vertex -5.4181 -6.54936 0
      vertex -6.19623 -5.81865 5
      vertex -5.4181 -6.54936 5
    endloop
  endfacet
  facet normal 0.684546 0.72897 0
    outer loop
      vertex -6.19623 -5.81865 5
      vertex -5.4181 -6.54936 0
      vertex -6.19623 -5.81865 0
    endloop
  endfacet
  facet normal 0.904829 0.425776 2.23963e-18
    outer loop
      vertex -7.44861 -4.09491 5
      vertex -7.9031 -3.12906 0
      vertex -7.9031 -3.12906 5
    endloop
  endfacet
  facet normal 0.904829 0.425776 2.23963e-18
    outer loop
      vertex -7.9031 -3.12906 0
      vertex -7.44861 -4.09491 5
      vertex -7.44861 -4.09491 0
    endloop
  endfacet
  facet normal 0.844322 0.535835 9.9133e-18
    outer loop
      vertex -6.87664 -4.99617 5
      vertex -7.44861 -4.09491 0
      vertex -7.44861 -4.09491 5
    endloop
  endfacet
  facet normal 0.844322 0.535835 9.9133e-18
    outer loop
      vertex -7.44861 -4.09491 0
      vertex -6.87664 -4.99617 5
      vertex -6.87664 -4.99617 0
    endloop
  endfacet
  facet normal 0.998026 0.0627953 8.76047e-20
    outer loop
      vertex -8.43297 -1.06533 5
      vertex -8.5 0 0
      vertex -8.5 0 5
    endloop
  endfacet
  facet normal 0.998026 0.0627953 8.76047e-20
    outer loop
      vertex -8.5 0 0
      vertex -8.43297 -1.06533 5
      vertex -8.43297 -1.06533 0
    endloop
  endfacet
  facet normal -0.481749 0.876309 0
    outer loop
      vertex 4.55453 -7.17679 0
      vertex 3.61912 -7.69103 5
      vertex 4.55453 -7.17679 5
    endloop
  endfacet
  facet normal -0.481749 0.876309 0
    outer loop
      vertex 3.61912 -7.69103 5
      vertex 4.55453 -7.17679 0
      vertex 3.61912 -7.69103 0
    endloop
  endfacet
  facet normal -0.951056 0.309018 -7.66852e-19
    outer loop
      vertex 7.9031 -3.12906 0
      vertex 8.23296 -2.11386 5
      vertex 8.23296 -2.11386 0
    endloop
  endfacet
  facet normal -0.951056 0.309018 -7.66852e-19
    outer loop
      vertex 8.23296 -2.11386 5
      vertex 7.9031 -3.12906 0
      vertex 7.9031 -3.12906 5
    endloop
  endfacet
  facet normal -0.770515 0.637421 5.73872e-18
    outer loop
      vertex 6.19623 -5.81865 0
      vertex 6.87664 -4.99617 5
      vertex 6.87664 -4.99617 0
    endloop
  endfacet
  facet normal -0.770515 0.637421 5.73872e-18
    outer loop
      vertex 6.87664 -4.99617 5
      vertex 6.19623 -5.81865 0
      vertex 6.19623 -5.81865 5
    endloop
  endfacet
  facet normal 0.368124 0.929777 -0
    outer loop
      vertex -2.62664 -8.08398 0
      vertex -3.61912 -7.69103 5
      vertex -2.62664 -8.08398 5
    endloop
  endfacet
  facet normal 0.368124 0.929777 0
    outer loop
      vertex -3.61912 -7.69103 5
      vertex -2.62664 -8.08398 0
      vertex -3.61912 -7.69103 0
    endloop
  endfacet
  facet normal 0.481749 0.876309 -0
    outer loop
      vertex -3.61912 -7.69103 0
      vertex -4.55453 -7.17679 5
      vertex -3.61912 -7.69103 5
    endloop
  endfacet
  facet normal 0.481749 0.876309 0
    outer loop
      vertex -4.55453 -7.17679 5
      vertex -3.61912 -7.69103 0
      vertex -4.55453 -7.17679 0
    endloop
  endfacet
  facet normal 0.770515 0.637421 -5.73872e-18
    outer loop
      vertex -6.19623 -5.81865 5
      vertex -6.87664 -4.99617 0
      vertex -6.87664 -4.99617 5
    endloop
  endfacet
  facet normal 0.770515 0.637421 -5.73872e-18
    outer loop
      vertex -6.87664 -4.99617 0
      vertex -6.19623 -5.81865 5
      vertex -6.19623 -5.81865 0
    endloop
  endfacet
  facet normal 0.982289 0.187374 -1.04618e-18
    outer loop
      vertex -8.23296 -2.11386 5
      vertex -8.43297 -1.06533 0
      vertex -8.43297 -1.06533 5
    endloop
  endfacet
  facet normal 0.982289 0.187374 -1.04618e-18
    outer loop
      vertex -8.43297 -1.06533 0
      vertex -8.23296 -2.11386 5
      vertex -8.23296 -2.11386 0
    endloop
  endfacet
  facet normal 0.951056 0.309018 7.66852e-19
    outer loop
      vertex -7.9031 -3.12906 5
      vertex -8.23296 -2.11386 0
      vertex -8.23296 -2.11386 5
    endloop
  endfacet
  facet normal 0.951056 0.309018 7.66852e-19
    outer loop
      vertex -8.23296 -2.11386 0
      vertex -7.9031 -3.12906 5
      vertex -7.9031 -3.12906 0
    endloop
  endfacet
  facet normal -0.684546 0.72897 0
    outer loop
      vertex 6.19623 -5.81865 0
      vertex 5.4181 -6.54936 5
      vertex 6.19623 -5.81865 5
    endloop
  endfacet
  facet normal -0.684546 0.72897 0
    outer loop
      vertex 5.4181 -6.54936 5
      vertex 6.19623 -5.81865 0
      vertex 5.4181 -6.54936 0
    endloop
  endfacet
  facet normal -0.368124 0.929777 0
    outer loop
      vertex 3.61912 -7.69103 0
      vertex 2.62664 -8.08398 5
      vertex 3.61912 -7.69103 5
    endloop
  endfacet
  facet normal -0.368124 0.929777 0
    outer loop
      vertex 2.62664 -8.08398 5
      vertex 3.61912 -7.69103 0
      vertex 2.62664 -8.08398 0
    endloop
  endfacet
  facet normal -0.24869 0.968583 0
    outer loop
      vertex 2.62664 -8.08398 0
      vertex 1.59274 -8.34944 5
      vertex 2.62664 -8.08398 5
    endloop
  endfacet
  facet normal -0.24869 0.968583 0
    outer loop
      vertex 1.59274 -8.34944 5
      vertex 2.62664 -8.08398 0
      vertex 1.59274 -8.34944 0
    endloop
  endfacet
  facet normal -0.844322 0.535835 -9.9133e-18
    outer loop
      vertex 6.87664 -4.99617 0
      vertex 7.44861 -4.09491 5
      vertex 7.44861 -4.09491 0
    endloop
  endfacet
  facet normal -0.844322 0.535835 -9.9133e-18
    outer loop
      vertex 7.44861 -4.09491 5
      vertex 6.87664 -4.99617 0
      vertex 6.87664 -4.99617 5
    endloop
  endfacet
  facet normal 0.125337 0.992114 -0
    outer loop
      vertex -0.533719 -8.48323 0
      vertex -1.59274 -8.34944 5
      vertex -0.533719 -8.48323 5
    endloop
  endfacet
  facet normal 0.125337 0.992114 0
    outer loop
      vertex -1.59274 -8.34944 5
      vertex -0.533719 -8.48323 0
      vertex -1.59274 -8.34944 0
    endloop
  endfacet
  facet normal 0.587791 0.809013 -0
    outer loop
      vertex -4.55453 -7.17679 0
      vertex -5.4181 -6.54936 5
      vertex -4.55453 -7.17679 5
    endloop
  endfacet
  facet normal 0.587791 0.809013 0
    outer loop
      vertex -5.4181 -6.54936 5
      vertex -4.55453 -7.17679 0
      vertex -5.4181 -6.54936 0
    endloop
  endfacet
  facet normal -0.587791 0.809013 0
    outer loop
      vertex 5.4181 -6.54936 0
      vertex 4.55453 -7.17679 5
      vertex 5.4181 -6.54936 5
    endloop
  endfacet
  facet normal -0.587791 0.809013 0
    outer loop
      vertex 4.55453 -7.17679 5
      vertex 5.4181 -6.54936 0
      vertex 4.55453 -7.17679 0
    endloop
  endfacet
  facet normal 0.24869 0.968583 -0
    outer loop
      vertex -1.59274 -8.34944 0
      vertex -2.62664 -8.08398 5
      vertex -1.59274 -8.34944 5
    endloop
  endfacet
  facet normal 0.24869 0.968583 0
    outer loop
      vertex -2.62664 -8.08398 5
      vertex -1.59274 -8.34944 0
      vertex -2.62664 -8.08398 0
    endloop
  endfacet
endsolid OpenSCAD_Model
