solid OpenSCAD_Model
  facet normal 0.998026 0.0627961 7.43739e-19
    outer loop
      vertex 5 0 1.5
      vertex 4.96057 0.626666 -1.5
      vertex 4.96057 0.626666 1.5
    endloop
  endfacet
  facet normal 0.998026 0.0627961 7.43739e-19
    outer loop
      vertex 4.96057 0.626666 -1.5
      vertex 5 0 1.5
      vertex 5 0 -1.5
    endloop
  endfacet
  facet normal -0.998026 0.0627961 -7.43739e-19
    outer loop
      vertex -5 0 -1.5
      vertex -4.96057 0.626666 1.5
      vertex -4.96057 0.626666 -1.5
    endloop
  endfacet
  facet normal -0.998026 0.0627961 -7.43739e-19
    outer loop
      vertex -4.96057 0.626666 1.5
      vertex -5 0 -1.5
      vertex -5 0 1.5
    endloop
  endfacet
  facet normal 0 1 -0
    outer loop
      vertex 0.313952 4.99013 -1.5
      vertex -0.313952 4.99013 1.5
      vertex 0.313952 4.99013 1.5
    endloop
  endfacet
  facet normal 0 1 0
    outer loop
      vertex -0.313952 4.99013 1.5
      vertex 0.313952 4.99013 -1.5
      vertex -0.313952 4.99013 -1.5
    endloop
  endfacet
  facet normal 0 -1 0
    outer loop
      vertex -0.313952 -4.99013 -1.5
      vertex 0.313952 -4.99013 1.5
      vertex -0.313952 -4.99013 1.5
    endloop
  endfacet
  facet normal 0 -1 -0
    outer loop
      vertex 0.313952 -4.99013 1.5
      vertex -0.313952 -4.99013 -1.5
      vertex 0.313952 -4.99013 -1.5
    endloop
  endfacet
  facet normal 0.684549 -0.728967 0
    outer loop
      vertex 3.18712 -3.85257 -1.5
      vertex 3.64484 -3.42274 1.5
      vertex 3.18712 -3.85257 1.5
    endloop
  endfacet
  facet normal 0.684549 -0.728967 0
    outer loop
      vertex 3.64484 -3.42274 1.5
      vertex 3.18712 -3.85257 -1.5
      vertex 3.64484 -3.42274 -1.5
    endloop
  endfacet
  facet normal 0.684549 0.728967 -0
    outer loop
      vertex 3.64484 3.42274 -1.5
      vertex 3.18712 3.85257 1.5
      vertex 3.64484 3.42274 1.5
    endloop
  endfacet
  facet normal 0.684549 0.728967 0
    outer loop
      vertex 3.18712 3.85257 1.5
      vertex 3.64484 3.42274 -1.5
      vertex 3.18712 3.85257 -1.5
    endloop
  endfacet
  facet normal -0.684549 0.728967 0
    outer loop
      vertex -3.18712 3.85257 -1.5
      vertex -3.64484 3.42274 1.5
      vertex -3.18712 3.85257 1.5
    endloop
  endfacet
  facet normal -0.684549 0.728967 0
    outer loop
      vertex -3.64484 3.42274 1.5
      vertex -3.18712 3.85257 -1.5
      vertex -3.64484 3.42274 -1.5
    endloop
  endfacet
  facet normal -0.368124 0.929777 0
    outer loop
      vertex -1.54508 4.75528 -1.5
      vertex -2.1289 4.52413 1.5
      vertex -1.54508 4.75528 1.5
    endloop
  endfacet
  facet normal -0.368124 0.929777 0
    outer loop
      vertex -2.1289 4.52413 1.5
      vertex -1.54508 4.75528 -1.5
      vertex -2.1289 4.52413 -1.5
    endloop
  endfacet
  facet normal 0.904828 0.425778 -4.82033e-18
    outer loop
      vertex 4.64888 1.84062 1.5
      vertex 4.38153 2.40877 -1.5
      vertex 4.38153 2.40877 1.5
    endloop
  endfacet
  facet normal 0.904828 0.425778 -4.82033e-18
    outer loop
      vertex 4.38153 2.40877 -1.5
      vertex 4.64888 1.84062 1.5
      vertex 4.64888 1.84062 -1.5
    endloop
  endfacet
  facet normal 0.98229 0.187369 1.12595e-18
    outer loop
      vertex 4.96057 0.626666 1.5
      vertex 4.84292 1.24345 -1.5
      vertex 4.84292 1.24345 1.5
    endloop
  endfacet
  facet normal 0.98229 0.187369 1.12595e-18
    outer loop
      vertex 4.84292 1.24345 -1.5
      vertex 4.96057 0.626666 1.5
      vertex 4.96057 0.626666 -1.5
    endloop
  endfacet
  facet normal 0.368124 0.929777 -0
    outer loop
      vertex 2.1289 4.52413 -1.5
      vertex 1.54508 4.75528 1.5
      vertex 2.1289 4.52413 1.5
    endloop
  endfacet
  facet normal 0.368124 0.929777 0
    outer loop
      vertex 1.54508 4.75528 1.5
      vertex 2.1289 4.52413 -1.5
      vertex 1.54508 4.75528 -1.5
    endloop
  endfacet
  facet normal 0.248701 0.96858 -0
    outer loop
      vertex 1.54508 4.75528 -1.5
      vertex 0.936906 4.91144 1.5
      vertex 1.54508 4.75528 1.5
    endloop
  endfacet
  facet normal 0.248701 0.96858 0
    outer loop
      vertex 0.936906 4.91144 1.5
      vertex 1.54508 4.75528 -1.5
      vertex 0.936906 4.91144 -1.5
    endloop
  endfacet
  facet normal 0.481752 0.876308 -0
    outer loop
      vertex 2.67913 4.22164 -1.5
      vertex 2.1289 4.52413 1.5
      vertex 2.67913 4.22164 1.5
    endloop
  endfacet
  facet normal 0.481752 0.876308 0
    outer loop
      vertex 2.1289 4.52413 1.5
      vertex 2.67913 4.22164 -1.5
      vertex 2.1289 4.52413 -1.5
    endloop
  endfacet
  facet normal -0.844328 0.535827 -5.89952e-18
    outer loop
      vertex -4.38153 2.40877 -1.5
      vertex -4.04508 2.93893 1.5
      vertex -4.04508 2.93893 -1.5
    endloop
  endfacet
  facet normal -0.844328 0.535827 -5.89952e-18
    outer loop
      vertex -4.04508 2.93893 1.5
      vertex -4.38153 2.40877 -1.5
      vertex -4.38153 2.40877 1.5
    endloop
  endfacet
  facet normal -0.770515 0.637422 4.6405e-18
    outer loop
      vertex -4.04508 2.93893 -1.5
      vertex -3.64484 3.42274 1.5
      vertex -3.64484 3.42274 -1.5
    endloop
  endfacet
  facet normal -0.770515 0.637422 4.6405e-18
    outer loop
      vertex -3.64484 3.42274 1.5
      vertex -4.04508 2.93893 -1.5
      vertex -4.04508 2.93893 1.5
    endloop
  endfacet
  facet normal -0.951053 0.309028 3.17641e-18
    outer loop
      vertex -4.84292 1.24345 -1.5
      vertex -4.64888 1.84062 1.5
      vertex -4.64888 1.84062 -1.5
    endloop
  endfacet
  facet normal -0.951053 0.309028 3.17641e-18
    outer loop
      vertex -4.64888 1.84062 1.5
      vertex -4.84292 1.24345 -1.5
      vertex -4.84292 1.24345 1.5
    endloop
  endfacet
  facet normal -0.587779 0.809022 0
    outer loop
      vertex -2.67913 4.22164 -1.5
      vertex -3.18712 3.85257 1.5
      vertex -2.67913 4.22164 1.5
    endloop
  endfacet
  facet normal -0.587779 0.809022 0
    outer loop
      vertex -3.18712 3.85257 1.5
      vertex -2.67913 4.22164 -1.5
      vertex -3.18712 3.85257 -1.5
    endloop
  endfacet
  facet normal -0.248701 0.96858 0
    outer loop
      vertex -0.936906 4.91144 -1.5
      vertex -1.54508 4.75528 1.5
      vertex -0.936906 4.91144 1.5
    endloop
  endfacet
  facet normal -0.248701 0.96858 0
    outer loop
      vertex -1.54508 4.75528 1.5
      vertex -0.936906 4.91144 -1.5
      vertex -1.54508 4.75528 -1.5
    endloop
  endfacet
  facet normal 0.125322 -0.992116 0
    outer loop
      vertex 0.313952 -4.99013 -1.5
      vertex 0.936906 -4.91144 1.5
      vertex 0.313952 -4.99013 1.5
    endloop
  endfacet
  facet normal 0.125322 -0.992116 0
    outer loop
      vertex 0.936906 -4.91144 1.5
      vertex 0.313952 -4.99013 -1.5
      vertex 0.936906 -4.91144 -1.5
    endloop
  endfacet
  facet normal 0.951053 0.309028 -3.17641e-18
    outer loop
      vertex 4.84292 1.24345 1.5
      vertex 4.64888 1.84062 -1.5
      vertex 4.64888 1.84062 1.5
    endloop
  endfacet
  facet normal 0.951053 0.309028 -3.17641e-18
    outer loop
      vertex 4.64888 1.84062 -1.5
      vertex 4.84292 1.24345 1.5
      vertex 4.84292 1.24345 -1.5
    endloop
  endfacet
  facet normal 0.770515 0.637422 -4.6405e-18
    outer loop
      vertex 4.04508 2.93893 1.5
      vertex 3.64484 3.42274 -1.5
      vertex 3.64484 3.42274 1.5
    endloop
  endfacet
  facet normal 0.770515 0.637422 -4.6405e-18
    outer loop
      vertex 3.64484 3.42274 -1.5
      vertex 4.04508 2.93893 1.5
      vertex 4.04508 2.93893 -1.5
    endloop
  endfacet
  facet normal 0.844328 0.535827 5.89952e-18
    outer loop
      vertex 4.38153 2.40877 1.5
      vertex 4.04508 2.93893 -1.5
      vertex 4.04508 2.93893 1.5
    endloop
  endfacet
  facet normal 0.844328 0.535827 5.89952e-18
    outer loop
      vertex 4.04508 2.93893 -1.5
      vertex 4.38153 2.40877 1.5
      vertex 4.38153 2.40877 -1.5
    endloop
  endfacet
  facet normal 0.125322 0.992116 -0
    outer loop
      vertex 0.936906 4.91144 -1.5
      vertex 0.313952 4.99013 1.5
      vertex 0.936906 4.91144 1.5
    endloop
  endfacet
  facet normal 0.125322 0.992116 0
    outer loop
      vertex 0.313952 4.99013 1.5
      vertex 0.936906 4.91144 -1.5
      vertex 0.313952 4.99013 -1.5
    endloop
  endfacet
  facet normal 0.587779 0.809022 -0
    outer loop
      vertex 3.18712 3.85257 -1.5
      vertex 2.67913 4.22164 1.5
      vertex 3.18712 3.85257 1.5
    endloop
  endfacet
  facet normal 0.587779 0.809022 0
    outer loop
      vertex 2.67913 4.22164 1.5
      vertex 3.18712 3.85257 -1.5
      vertex 2.67913 4.22164 -1.5
    endloop
  endfacet
  facet normal -0.904828 0.425778 4.82033e-18
    outer loop
      vertex -4.64888 1.84062 -1.5
      vertex -4.38153 2.40877 1.5
      vertex -4.38153 2.40877 -1.5
    endloop
  endfacet
  facet normal -0.904828 0.425778 4.82033e-18
    outer loop
      vertex -4.38153 2.40877 1.5
      vertex -4.64888 1.84062 -1.5
      vertex -4.64888 1.84062 1.5
    endloop
  endfacet
  facet normal -0.98229 0.187369 -1.12595e-18
    outer loop
      vertex -4.96057 0.626666 -1.5
      vertex -4.84292 1.24345 1.5
      vertex -4.84292 1.24345 -1.5
    endloop
  endfacet
  facet normal -0.98229 0.187369 -1.12595e-18
    outer loop
      vertex -4.84292 1.24345 1.5
      vertex -4.96057 0.626666 -1.5
      vertex -4.96057 0.626666 1.5
    endloop
  endfacet
  facet normal 0 0 1
    outer loop
      vertex -4.96057 -0.626666 1.5
      vertex -1.75 -0.413301 1.5
      vertex -1.78581 -0.225599 1.5
    endloop
  endfacet
  facet normal 0 0 1
    outer loop
      vertex 1.8 0 1.5
      vertex 5 0 1.5
      vertex 4.96057 0.626666 1.5
    endloop
  endfacet
  facet normal 0 0 1
    outer loop
      vertex 1.75 0.413301 1.5
      vertex 4.96057 0.626666 1.5
      vertex 4.84292 1.24345 1.5
    endloop
  endfacet
  facet normal 0 0 1
    outer loop
      vertex 5 0 1.5
      vertex 1.8 0 1.5
      vertex 4.96057 -0.626666 1.5
    endloop
  endfacet
  facet normal 0 0 1
    outer loop
      vertex 1.75 0.413301 1.5
      vertex 4.84292 1.24345 1.5
      vertex 4.64888 1.84062 1.5
    endloop
  endfacet
  facet normal -0 0 1
    outer loop
      vertex 1.78581 -0.225599 1.5
      vertex 4.96057 -0.626666 1.5
      vertex 1.8 0 1.5
    endloop
  endfacet
  facet normal 0 0 1
    outer loop
      vertex 1.75 1.75 1.5
      vertex 4.64888 1.84062 1.5
      vertex 4.38153 2.40877 1.5
    endloop
  endfacet
  facet normal -0 0 1
    outer loop
      vertex 1.75 -0.413301 1.5
      vertex 4.96057 -0.626666 1.5
      vertex 1.78581 -0.225599 1.5
    endloop
  endfacet
  facet normal 0 0 1
    outer loop
      vertex 1.75 1.75 1.5
      vertex 4.38153 2.40877 1.5
      vertex 4.04508 2.93893 1.5
    endloop
  endfacet
  facet normal 0 0 1
    outer loop
      vertex 4.96057 -0.626666 1.5
      vertex 1.75 -0.413301 1.5
      vertex 4.84292 -1.24345 1.5
    endloop
  endfacet
  facet normal 0 0 1
    outer loop
      vertex 1.75 1.75 1.5
      vertex 4.04508 2.93893 1.5
      vertex 3.64484 3.42274 1.5
    endloop
  endfacet
  facet normal 0 0 1
    outer loop
      vertex 4.84292 -1.24345 1.5
      vertex 1.75 -0.413301 1.5
      vertex 4.64888 -1.84062 1.5
    endloop
  endfacet
  facet normal 0 0 1
    outer loop
      vertex 1.75 1.75 1.5
      vertex 3.64484 3.42274 1.5
      vertex 3.18712 3.85257 1.5
    endloop
  endfacet
  facet normal -0 0 1
    outer loop
      vertex 1.75 -1.75 1.5
      vertex 4.64888 -1.84062 1.5
      vertex 1.75 -0.413301 1.5
    endloop
  endfacet
  facet normal 0 0 1
    outer loop
      vertex 1.75 1.75 1.5
      vertex 3.18712 3.85257 1.5
      vertex 2.67913 4.22164 1.5
    endloop
  endfacet
  facet normal 0 0 1
    outer loop
      vertex 4.64888 -1.84062 1.5
      vertex 1.75 -1.75 1.5
      vertex 4.38153 -2.40877 1.5
    endloop
  endfacet
  facet normal 0 0 1
    outer loop
      vertex 1.75 1.75 1.5
      vertex 2.67913 4.22164 1.5
      vertex 2.1289 4.52413 1.5
    endloop
  endfacet
  facet normal 0 0 1
    outer loop
      vertex 4.38153 -2.40877 1.5
      vertex 1.75 -1.75 1.5
      vertex 4.04508 -2.93893 1.5
    endloop
  endfacet
  facet normal 0 0 1
    outer loop
      vertex 4.04508 -2.93893 1.5
      vertex 1.75 -1.75 1.5
      vertex 3.64484 -3.42274 1.5
    endloop
  endfacet
  facet normal 0 0 1
    outer loop
      vertex 4.96057 0.626666 1.5
      vertex 1.78581 0.225599 1.5
      vertex 1.8 0 1.5
    endloop
  endfacet
  facet normal 0 0 1
    outer loop
      vertex 4.64888 1.84062 1.5
      vertex 1.75 1.75 1.5
      vertex 1.75 0.413301 1.5
    endloop
  endfacet
  facet normal 0 0 1
    outer loop
      vertex 1.54508 4.75528 1.5
      vertex 1.75 1.75 1.5
      vertex 2.1289 4.52413 1.5
    endloop
  endfacet
  facet normal 0 0 1
    outer loop
      vertex 0.407847 1.75 1.5
      vertex 1.54508 4.75528 1.5
      vertex 0.936906 4.91144 1.5
    endloop
  endfacet
  facet normal 0 0 1
    outer loop
      vertex 1.54508 4.75528 1.5
      vertex 0.407847 1.75 1.5
      vertex 1.75 1.75 1.5
    endloop
  endfacet
  facet normal 0 0 1
    outer loop
      vertex 0.936906 4.91144 1.5
      vertex 0.337286 1.76812 1.5
      vertex 0.407847 1.75 1.5
    endloop
  endfacet
  facet normal 0 0 1
    outer loop
      vertex 0.313952 4.99013 1.5
      vertex 0.337286 1.76812 1.5
      vertex 0.936906 4.91144 1.5
    endloop
  endfacet
  facet normal 0 0 1
    outer loop
      vertex 0.313952 4.99013 1.5
      vertex 0.113023 1.79645 1.5
      vertex 0.337286 1.76812 1.5
    endloop
  endfacet
  facet normal 0 0 1
    outer loop
      vertex 0.313952 4.99013 1.5
      vertex -0.113023 1.79645 1.5
      vertex 0.113023 1.79645 1.5
    endloop
  endfacet
  facet normal -0 0 1
    outer loop
      vertex -0.313952 4.99013 1.5
      vertex -0.113023 1.79645 1.5
      vertex 0.313952 4.99013 1.5
    endloop
  endfacet
  facet normal 0 0 1
    outer loop
      vertex -0.313952 4.99013 1.5
      vertex -0.337286 1.76812 1.5
      vertex -0.113023 1.79645 1.5
    endloop
  endfacet
  facet normal -0 0 1
    outer loop
      vertex -0.936906 4.91144 1.5
      vertex -0.337286 1.76812 1.5
      vertex -0.313952 4.99013 1.5
    endloop
  endfacet
  facet normal 0 0 1
    outer loop
      vertex -0.337286 1.76812 1.5
      vertex -0.936906 4.91144 1.5
      vertex -0.407847 1.75 1.5
    endloop
  endfacet
  facet normal -0 0 1
    outer loop
      vertex -1.54508 4.75528 1.5
      vertex -0.407847 1.75 1.5
      vertex -0.936906 4.91144 1.5
    endloop
  endfacet
  facet normal 0 0 1
    outer loop
      vertex -1.54508 4.75528 1.5
      vertex -1.75 1.75 1.5
      vertex -0.407847 1.75 1.5
    endloop
  endfacet
  facet normal 0 0 1
    outer loop
      vertex -4.64888 1.84062 1.5
      vertex -1.75 0.413301 1.5
      vertex -1.75 1.75 1.5
    endloop
  endfacet
  facet normal -0 0 1
    outer loop
      vertex -4.96057 0.626666 1.5
      vertex -1.75 0.413301 1.5
      vertex -4.84292 1.24345 1.5
    endloop
  endfacet
  facet normal -0 0 1
    outer loop
      vertex -2.67913 4.22164 1.5
      vertex -1.75 1.75 1.5
      vertex -2.1289 4.52413 1.5
    endloop
  endfacet
  facet normal -0 0 1
    outer loop
      vertex -2.1289 4.52413 1.5
      vertex -1.75 1.75 1.5
      vertex -1.54508 4.75528 1.5
    endloop
  endfacet
  facet normal 0 0 1
    outer loop
      vertex 3.18712 -3.85257 1.5
      vertex 1.75 -1.75 1.5
      vertex 2.67913 -4.22164 1.5
    endloop
  endfacet
  facet normal 0 0 1
    outer loop
      vertex 3.64484 -3.42274 1.5
      vertex 1.75 -1.75 1.5
      vertex 3.18712 -3.85257 1.5
    endloop
  endfacet
  facet normal 0 0 1
    outer loop
      vertex 2.67913 -4.22164 1.5
      vertex 1.75 -1.75 1.5
      vertex 2.1289 -4.52413 1.5
    endloop
  endfacet
  facet normal 0 0 1
    outer loop
      vertex 1.75 -1.75 1.5
      vertex 1.54508 -4.75528 1.5
      vertex 2.1289 -4.52413 1.5
    endloop
  endfacet
  facet normal -0 0 1
    outer loop
      vertex 0.407847 -1.75 1.5
      vertex 1.54508 -4.75528 1.5
      vertex 1.75 -1.75 1.5
    endloop
  endfacet
  facet normal 0 0 1
    outer loop
      vertex 1.54508 -4.75528 1.5
      vertex 0.407847 -1.75 1.5
      vertex 0.936906 -4.91144 1.5
    endloop
  endfacet
  facet normal -0 0 1
    outer loop
      vertex 0.337286 -1.76812 1.5
      vertex 0.936906 -4.91144 1.5
      vertex 0.407847 -1.75 1.5
    endloop
  endfacet
  facet normal 0 0 1
    outer loop
      vertex 0.337286 -1.76812 1.5
      vertex 0.313952 -4.99013 1.5
      vertex 0.936906 -4.91144 1.5
    endloop
  endfacet
  facet normal -0 0 1
    outer loop
      vertex 0.113023 -1.79645 1.5
      vertex 0.313952 -4.99013 1.5
      vertex 0.337286 -1.76812 1.5
    endloop
  endfacet
  facet normal -0 0 1
    outer loop
      vertex -0.113023 -1.79645 1.5
      vertex 0.313952 -4.99013 1.5
      vertex 0.113023 -1.79645 1.5
    endloop
  endfacet
  facet normal 0 0 1
    outer loop
      vertex -0.113023 -1.79645 1.5
      vertex -0.313952 -4.99013 1.5
      vertex 0.313952 -4.99013 1.5
    endloop
  endfacet
  facet normal 0 0 1
    outer loop
      vertex -0.337286 -1.76812 1.5
      vertex -0.313952 -4.99013 1.5
      vertex -0.113023 -1.79645 1.5
    endloop
  endfacet
  facet normal 0 0 1
    outer loop
      vertex -0.936906 -4.91144 1.5
      vertex -0.337286 -1.76812 1.5
      vertex -0.407847 -1.75 1.5
    endloop
  endfacet
  facet normal 0 0 1
    outer loop
      vertex -0.337286 -1.76812 1.5
      vertex -0.936906 -4.91144 1.5
      vertex -0.313952 -4.99013 1.5
    endloop
  endfacet
  facet normal 0 0 1
    outer loop
      vertex -0.407847 -1.75 1.5
      vertex -1.54508 -4.75528 1.5
      vertex -0.936906 -4.91144 1.5
    endloop
  endfacet
  facet normal -0 0 1
    outer loop
      vertex -1.75 -1.75 1.5
      vertex -1.54508 -4.75528 1.5
      vertex -0.407847 -1.75 1.5
    endloop
  endfacet
  facet normal 0 0 1
    outer loop
      vertex -4.96057 -0.626666 1.5
      vertex -1.78581 -0.225599 1.5
      vertex -1.8 0 1.5
    endloop
  endfacet
  facet normal -0 0 1
    outer loop
      vertex -3.18712 3.85257 1.5
      vertex -1.75 1.75 1.5
      vertex -2.67913 4.22164 1.5
    endloop
  endfacet
  facet normal 0 0 1
    outer loop
      vertex -1.75 -1.75 1.5
      vertex -2.1289 -4.52413 1.5
      vertex -1.54508 -4.75528 1.5
    endloop
  endfacet
  facet normal -0 0 1
    outer loop
      vertex -3.64484 3.42274 1.5
      vertex -1.75 1.75 1.5
      vertex -3.18712 3.85257 1.5
    endloop
  endfacet
  facet normal -0 0 1
    outer loop
      vertex -4.04508 2.93893 1.5
      vertex -1.75 1.75 1.5
      vertex -3.64484 3.42274 1.5
    endloop
  endfacet
  facet normal 0 0 1
    outer loop
      vertex -1.75 -1.75 1.5
      vertex -2.67913 -4.22164 1.5
      vertex -2.1289 -4.52413 1.5
    endloop
  endfacet
  facet normal -0 0 1
    outer loop
      vertex -4.38153 2.40877 1.5
      vertex -1.75 1.75 1.5
      vertex -4.04508 2.93893 1.5
    endloop
  endfacet
  facet normal 0 0 1
    outer loop
      vertex -1.75 -1.75 1.5
      vertex -3.18712 -3.85257 1.5
      vertex -2.67913 -4.22164 1.5
    endloop
  endfacet
  facet normal -0 0 1
    outer loop
      vertex -4.64888 1.84062 1.5
      vertex -1.75 1.75 1.5
      vertex -4.38153 2.40877 1.5
    endloop
  endfacet
  facet normal 0 0 1
    outer loop
      vertex -1.75 -1.75 1.5
      vertex -3.64484 -3.42274 1.5
      vertex -3.18712 -3.85257 1.5
    endloop
  endfacet
  facet normal 0 0 1
    outer loop
      vertex -1.75 0.413301 1.5
      vertex -4.64888 1.84062 1.5
      vertex -4.84292 1.24345 1.5
    endloop
  endfacet
  facet normal 0 0 1
    outer loop
      vertex -1.75 -1.75 1.5
      vertex -4.04508 -2.93893 1.5
      vertex -3.64484 -3.42274 1.5
    endloop
  endfacet
  facet normal 0 0 1
    outer loop
      vertex -1.75 0.413301 1.5
      vertex -4.96057 0.626666 1.5
      vertex -1.78581 0.225599 1.5
    endloop
  endfacet
  facet normal 0 0 1
    outer loop
      vertex -1.75 -1.75 1.5
      vertex -4.38153 -2.40877 1.5
      vertex -4.04508 -2.93893 1.5
    endloop
  endfacet
  facet normal 0 0 1
    outer loop
      vertex -1.78581 0.225599 1.5
      vertex -4.96057 0.626666 1.5
      vertex -1.8 0 1.5
    endloop
  endfacet
  facet normal 0 0 1
    outer loop
      vertex -1.75 -1.75 1.5
      vertex -4.64888 -1.84062 1.5
      vertex -4.38153 -2.40877 1.5
    endloop
  endfacet
  facet normal 0 0 1
    outer loop
      vertex -5 0 1.5
      vertex -1.8 0 1.5
      vertex -4.96057 0.626666 1.5
    endloop
  endfacet
  facet normal 0 0 1
    outer loop
      vertex -1.75 -0.413301 1.5
      vertex -4.64888 -1.84062 1.5
      vertex -1.75 -1.75 1.5
    endloop
  endfacet
  facet normal 0 -0 1
    outer loop
      vertex -4.96057 -0.626666 1.5
      vertex -1.8 0 1.5
      vertex -5 0 1.5
    endloop
  endfacet
  facet normal 0 -0 1
    outer loop
      vertex -4.64888 -1.84062 1.5
      vertex -1.75 -0.413301 1.5
      vertex -4.84292 -1.24345 1.5
    endloop
  endfacet
  facet normal 0 0 1
    outer loop
      vertex -1.75 -0.413301 1.5
      vertex -4.96057 -0.626666 1.5
      vertex -4.84292 -1.24345 1.5
    endloop
  endfacet
  facet normal 0 0 1
    outer loop
      vertex 4.96057 0.626666 1.5
      vertex 1.75 0.413301 1.5
      vertex 1.78581 0.225599 1.5
    endloop
  endfacet
  facet normal -0.125322 0.992116 0
    outer loop
      vertex -0.313952 4.99013 -1.5
      vertex -0.936906 4.91144 1.5
      vertex -0.313952 4.99013 1.5
    endloop
  endfacet
  facet normal -0.125322 0.992116 0
    outer loop
      vertex -0.936906 4.91144 1.5
      vertex -0.313952 4.99013 -1.5
      vertex -0.936906 4.91144 -1.5
    endloop
  endfacet
  facet normal 0.98229 -0.187369 -1.12595e-18
    outer loop
      vertex 4.84292 -1.24345 1.5
      vertex 4.96057 -0.626666 -1.5
      vertex 4.96057 -0.626666 1.5
    endloop
  endfacet
  facet normal 0.98229 -0.187369 -1.12595e-18
    outer loop
      vertex 4.96057 -0.626666 -1.5
      vertex 4.84292 -1.24345 1.5
      vertex 4.84292 -1.24345 -1.5
    endloop
  endfacet
  facet normal -0.368124 -0.929777 0
    outer loop
      vertex -2.1289 -4.52413 -1.5
      vertex -1.54508 -4.75528 1.5
      vertex -2.1289 -4.52413 1.5
    endloop
  endfacet
  facet normal -0.368124 -0.929777 -0
    outer loop
      vertex -1.54508 -4.75528 1.5
      vertex -2.1289 -4.52413 -1.5
      vertex -1.54508 -4.75528 -1.5
    endloop
  endfacet
  facet normal 0 0 -1
    outer loop
      vertex -3.18712 3.85257 -1.5
      vertex -1.75 3.25 -1.5
      vertex -1.75 2.96524 -1.5
    endloop
  endfacet
  facet normal 0 0 -1
    outer loop
      vertex -1.75 3.25 -1.5
      vertex -2.67913 4.22164 -1.5
      vertex -2.1289 4.52413 -1.5
    endloop
  endfacet
  facet normal 0 0 -1
    outer loop
      vertex -1.75 3.25 -1.5
      vertex -3.18712 3.85257 -1.5
      vertex -2.67913 4.22164 -1.5
    endloop
  endfacet
  facet normal 0 0 -1
    outer loop
      vertex -4.38153 2.40877 -1.5
      vertex -1.75 2.96524 -1.5
      vertex -3.46199 0 -1.5
    endloop
  endfacet
  facet normal 0 0 -1
    outer loop
      vertex -1.75 2.96524 -1.5
      vertex -3.64484 3.42274 -1.5
      vertex -3.18712 3.85257 -1.5
    endloop
  endfacet
  facet normal 0 0 -1
    outer loop
      vertex -4.38153 -2.40877 -1.5
      vertex -1.75 -2.96524 -1.5
      vertex -4.04508 -2.93893 -1.5
    endloop
  endfacet
  facet normal 0 0 -1
    outer loop
      vertex -1.75 -2.96524 -1.5
      vertex -4.38153 -2.40877 -1.5
      vertex -3.46199 0 -1.5
    endloop
  endfacet
  facet normal -0 0 -1
    outer loop
      vertex -1.75 2.96524 -1.5
      vertex -4.04508 2.93893 -1.5
      vertex -3.64484 3.42274 -1.5
    endloop
  endfacet
  facet normal 0 0 -1
    outer loop
      vertex -4.64888 -1.84062 -1.5
      vertex -3.46199 0 -1.5
      vertex -4.38153 -2.40877 -1.5
    endloop
  endfacet
  facet normal 0 0 -1
    outer loop
      vertex -1.75 2.96524 -1.5
      vertex -4.38153 2.40877 -1.5
      vertex -4.04508 2.93893 -1.5
    endloop
  endfacet
  facet normal 0 0 -1
    outer loop
      vertex -4.84292 -1.24345 -1.5
      vertex -3.46199 0 -1.5
      vertex -4.64888 -1.84062 -1.5
    endloop
  endfacet
  facet normal 0 0 -1
    outer loop
      vertex -3.46199 0 -1.5
      vertex -4.64888 1.84062 -1.5
      vertex -4.38153 2.40877 -1.5
    endloop
  endfacet
  facet normal 0 0 -1
    outer loop
      vertex -4.96057 -0.626666 -1.5
      vertex -3.46199 0 -1.5
      vertex -4.84292 -1.24345 -1.5
    endloop
  endfacet
  facet normal 0 0 -1
    outer loop
      vertex -3.46199 0 -1.5
      vertex -4.84292 1.24345 -1.5
      vertex -4.64888 1.84062 -1.5
    endloop
  endfacet
  facet normal 0 0 -1
    outer loop
      vertex -5 0 -1.5
      vertex -3.46199 0 -1.5
      vertex -4.96057 -0.626666 -1.5
    endloop
  endfacet
  facet normal 0 0 -1
    outer loop
      vertex -3.46199 0 -1.5
      vertex -4.96057 0.626666 -1.5
      vertex -4.84292 1.24345 -1.5
    endloop
  endfacet
  facet normal 0 0 -1
    outer loop
      vertex -3.46199 0 -1.5
      vertex -5 0 -1.5
      vertex -4.96057 0.626666 -1.5
    endloop
  endfacet
  facet normal 0 0 -1
    outer loop
      vertex 1.54508 -4.75528 -1.5
      vertex 1.75 -3.25 -1.5
      vertex 2.1289 -4.52413 -1.5
    endloop
  endfacet
  facet normal 0 0 -1
    outer loop
      vertex 0.936906 -4.91144 -1.5
      vertex 1.75 -3.25 -1.5
      vertex 1.54508 -4.75528 -1.5
    endloop
  endfacet
  facet normal 0 0 -1
    outer loop
      vertex 0.313952 -4.99013 -1.5
      vertex 1.75 -3.25 -1.5
      vertex 0.936906 -4.91144 -1.5
    endloop
  endfacet
  facet normal 0 0 -1
    outer loop
      vertex -0.313952 -4.99013 -1.5
      vertex 1.75 -3.25 -1.5
      vertex 0.313952 -4.99013 -1.5
    endloop
  endfacet
  facet normal 0 0 -1
    outer loop
      vertex -1.75 -3.25 -1.5
      vertex -0.313952 -4.99013 -1.5
      vertex -0.936906 -4.91144 -1.5
    endloop
  endfacet
  facet normal 0 0 -1
    outer loop
      vertex -1.75 -3.25 -1.5
      vertex -0.936906 -4.91144 -1.5
      vertex -1.54508 -4.75528 -1.5
    endloop
  endfacet
  facet normal 0 0 -1
    outer loop
      vertex -0.313952 -4.99013 -1.5
      vertex -1.75 -3.25 -1.5
      vertex 1.75 -3.25 -1.5
    endloop
  endfacet
  facet normal 0 0 -1
    outer loop
      vertex -2.1289 -4.52413 -1.5
      vertex -1.75 -3.25 -1.5
      vertex -1.54508 -4.75528 -1.5
    endloop
  endfacet
  facet normal 0 0 -1
    outer loop
      vertex -2.67913 -4.22164 -1.5
      vertex -1.75 -3.25 -1.5
      vertex -2.1289 -4.52413 -1.5
    endloop
  endfacet
  facet normal 0 0 -1
    outer loop
      vertex -3.18712 -3.85257 -1.5
      vertex -1.75 -3.25 -1.5
      vertex -2.67913 -4.22164 -1.5
    endloop
  endfacet
  facet normal -0 0 -1
    outer loop
      vertex -1.75 -3.25 -1.5
      vertex -3.18712 -3.85257 -1.5
      vertex -1.75 -2.96524 -1.5
    endloop
  endfacet
  facet normal 0 0 -1
    outer loop
      vertex -3.64484 -3.42274 -1.5
      vertex -1.75 -2.96524 -1.5
      vertex -3.18712 -3.85257 -1.5
    endloop
  endfacet
  facet normal 0 0 -1
    outer loop
      vertex -4.04508 -2.93893 -1.5
      vertex -1.75 -2.96524 -1.5
      vertex -3.64484 -3.42274 -1.5
    endloop
  endfacet
  facet normal 0 0 -1
    outer loop
      vertex 3.46199 0 -1.5
      vertex 5 0 -1.5
      vertex 4.96057 -0.626666 -1.5
    endloop
  endfacet
  facet normal 0 0 -1
    outer loop
      vertex 3.46199 0 -1.5
      vertex 4.96057 -0.626666 -1.5
      vertex 4.84292 -1.24345 -1.5
    endloop
  endfacet
  facet normal 0 0 -1
    outer loop
      vertex 5 0 -1.5
      vertex 3.46199 0 -1.5
      vertex 4.96057 0.626666 -1.5
    endloop
  endfacet
  facet normal 0 0 -1
    outer loop
      vertex 3.46199 0 -1.5
      vertex 4.84292 -1.24345 -1.5
      vertex 4.64888 -1.84062 -1.5
    endloop
  endfacet
  facet normal -0 0 -1
    outer loop
      vertex 4.96057 0.626666 -1.5
      vertex 3.46199 0 -1.5
      vertex 4.84292 1.24345 -1.5
    endloop
  endfacet
  facet normal 0 0 -1
    outer loop
      vertex 3.46199 0 -1.5
      vertex 4.64888 -1.84062 -1.5
      vertex 4.38153 -2.40877 -1.5
    endloop
  endfacet
  facet normal -0 0 -1
    outer loop
      vertex 4.84292 1.24345 -1.5
      vertex 3.46199 0 -1.5
      vertex 4.64888 1.84062 -1.5
    endloop
  endfacet
  facet normal 0 0 -1
    outer loop
      vertex 1.75 -2.96524 -1.5
      vertex 4.38153 -2.40877 -1.5
      vertex 4.04508 -2.93893 -1.5
    endloop
  endfacet
  facet normal -0 0 -1
    outer loop
      vertex 4.64888 1.84062 -1.5
      vertex 3.46199 0 -1.5
      vertex 4.38153 2.40877 -1.5
    endloop
  endfacet
  facet normal 0 0 -1
    outer loop
      vertex 1.75 -2.96524 -1.5
      vertex 4.04508 -2.93893 -1.5
      vertex 3.64484 -3.42274 -1.5
    endloop
  endfacet
  facet normal 0 0 -1
    outer loop
      vertex 1.75 2.96524 -1.5
      vertex 4.38153 2.40877 -1.5
      vertex 3.46199 0 -1.5
    endloop
  endfacet
  facet normal 0 0 -1
    outer loop
      vertex 4.38153 2.40877 -1.5
      vertex 1.75 2.96524 -1.5
      vertex 4.04508 2.93893 -1.5
    endloop
  endfacet
  facet normal 0 0 -1
    outer loop
      vertex 1.75 -2.96524 -1.5
      vertex 3.64484 -3.42274 -1.5
      vertex 3.18712 -3.85257 -1.5
    endloop
  endfacet
  facet normal 0 0 -1
    outer loop
      vertex 1.75 -3.25 -1.5
      vertex 3.18712 -3.85257 -1.5
      vertex 2.67913 -4.22164 -1.5
    endloop
  endfacet
  facet normal 0 0 -1
    outer loop
      vertex 1.75 -3.25 -1.5
      vertex 2.67913 -4.22164 -1.5
      vertex 2.1289 -4.52413 -1.5
    endloop
  endfacet
  facet normal 0 0 -1
    outer loop
      vertex 3.18712 -3.85257 -1.5
      vertex 1.75 -3.25 -1.5
      vertex 1.75 -2.96524 -1.5
    endloop
  endfacet
  facet normal -0 0 -1
    outer loop
      vertex 4.38153 -2.40877 -1.5
      vertex 1.75 -2.96524 -1.5
      vertex 3.46199 0 -1.5
    endloop
  endfacet
  facet normal 0 0 -1
    outer loop
      vertex 4.04508 2.93893 -1.5
      vertex 1.75 2.96524 -1.5
      vertex 3.64484 3.42274 -1.5
    endloop
  endfacet
  facet normal -0 0 -1
    outer loop
      vertex 3.64484 3.42274 -1.5
      vertex 1.75 2.96524 -1.5
      vertex 3.18712 3.85257 -1.5
    endloop
  endfacet
  facet normal 0 0 -1
    outer loop
      vertex 1.75 3.25 -1.5
      vertex 3.18712 3.85257 -1.5
      vertex 1.75 2.96524 -1.5
    endloop
  endfacet
  facet normal -0 0 -1
    outer loop
      vertex 3.18712 3.85257 -1.5
      vertex 1.75 3.25 -1.5
      vertex 2.67913 4.22164 -1.5
    endloop
  endfacet
  facet normal -0 0 -1
    outer loop
      vertex 2.67913 4.22164 -1.5
      vertex 1.75 3.25 -1.5
      vertex 2.1289 4.52413 -1.5
    endloop
  endfacet
  facet normal 0 0 -1
    outer loop
      vertex 1.75 3.25 -1.5
      vertex 1.54508 4.75528 -1.5
      vertex 2.1289 4.52413 -1.5
    endloop
  endfacet
  facet normal 0 0 -1
    outer loop
      vertex 1.75 3.25 -1.5
      vertex 0.936906 4.91144 -1.5
      vertex 1.54508 4.75528 -1.5
    endloop
  endfacet
  facet normal 0 0 -1
    outer loop
      vertex 1.75 3.25 -1.5
      vertex 0.313952 4.99013 -1.5
      vertex 0.936906 4.91144 -1.5
    endloop
  endfacet
  facet normal 0 0 -1
    outer loop
      vertex 1.75 3.25 -1.5
      vertex -0.313952 4.99013 -1.5
      vertex 0.313952 4.99013 -1.5
    endloop
  endfacet
  facet normal 0 0 -1
    outer loop
      vertex -1.75 3.25 -1.5
      vertex -0.313952 4.99013 -1.5
      vertex 1.75 3.25 -1.5
    endloop
  endfacet
  facet normal 0 0 -1
    outer loop
      vertex -0.313952 4.99013 -1.5
      vertex -1.75 3.25 -1.5
      vertex -0.936906 4.91144 -1.5
    endloop
  endfacet
  facet normal 0 0 -1
    outer loop
      vertex -0.936906 4.91144 -1.5
      vertex -1.75 3.25 -1.5
      vertex -1.54508 4.75528 -1.5
    endloop
  endfacet
  facet normal 0 0 -1
    outer loop
      vertex -1.54508 4.75528 -1.5
      vertex -1.75 3.25 -1.5
      vertex -2.1289 4.52413 -1.5
    endloop
  endfacet
  facet normal 0 0 -1
    outer loop
      vertex 1.75 -3.25 -1.5
      vertex 1.73099 -2.99817 -1.5
      vertex 1.75 -2.96524 -1.5
    endloop
  endfacet
  facet normal 0 0 -1
    outer loop
      vertex 1.75 -3.25 -1.5
      vertex -1.73099 -2.99817 -1.5
      vertex 1.73099 -2.99817 -1.5
    endloop
  endfacet
  facet normal 0 0 -1
    outer loop
      vertex -1.75 -3.25 -1.5
      vertex -1.73099 -2.99817 -1.5
      vertex 1.75 -3.25 -1.5
    endloop
  endfacet
  facet normal -0 0 -1
    outer loop
      vertex -1.73099 -2.99817 -1.5
      vertex -1.75 -3.25 -1.5
      vertex -1.75 -2.96524 -1.5
    endloop
  endfacet
  facet normal 0 0 -1
    outer loop
      vertex 1.73099 2.99817 -1.5
      vertex 1.75 3.25 -1.5
      vertex 1.75 2.96524 -1.5
    endloop
  endfacet
  facet normal 0 0 -1
    outer loop
      vertex -1.73099 2.99817 -1.5
      vertex 1.75 3.25 -1.5
      vertex 1.73099 2.99817 -1.5
    endloop
  endfacet
  facet normal 0 0 -1
    outer loop
      vertex -1.73099 2.99817 -1.5
      vertex -1.75 3.25 -1.5
      vertex 1.75 3.25 -1.5
    endloop
  endfacet
  facet normal 0 0 -1
    outer loop
      vertex -1.75 3.25 -1.5
      vertex -1.73099 2.99817 -1.5
      vertex -1.75 2.96524 -1.5
    endloop
  endfacet
  facet normal 0.587779 -0.809022 0
    outer loop
      vertex 2.67913 -4.22164 -1.5
      vertex 3.18712 -3.85257 1.5
      vertex 2.67913 -4.22164 1.5
    endloop
  endfacet
  facet normal 0.587779 -0.809022 0
    outer loop
      vertex 3.18712 -3.85257 1.5
      vertex 2.67913 -4.22164 -1.5
      vertex 3.18712 -3.85257 -1.5
    endloop
  endfacet
  facet normal 0.368124 -0.929777 0
    outer loop
      vertex 1.54508 -4.75528 -1.5
      vertex 2.1289 -4.52413 1.5
      vertex 1.54508 -4.75528 1.5
    endloop
  endfacet
  facet normal 0.368124 -0.929777 0
    outer loop
      vertex 2.1289 -4.52413 1.5
      vertex 1.54508 -4.75528 -1.5
      vertex 2.1289 -4.52413 -1.5
    endloop
  endfacet
  facet normal -0.481752 0.876308 0
    outer loop
      vertex -2.1289 4.52413 -1.5
      vertex -2.67913 4.22164 1.5
      vertex -2.1289 4.52413 1.5
    endloop
  endfacet
  facet normal -0.481752 0.876308 0
    outer loop
      vertex -2.67913 4.22164 1.5
      vertex -2.1289 4.52413 -1.5
      vertex -2.67913 4.22164 -1.5
    endloop
  endfacet
  facet normal 0.904828 -0.425778 4.82033e-18
    outer loop
      vertex 4.38153 -2.40877 1.5
      vertex 4.64888 -1.84062 -1.5
      vertex 4.64888 -1.84062 1.5
    endloop
  endfacet
  facet normal 0.904828 -0.425778 4.82033e-18
    outer loop
      vertex 4.64888 -1.84062 -1.5
      vertex 4.38153 -2.40877 1.5
      vertex 4.38153 -2.40877 -1.5
    endloop
  endfacet
  facet normal 0.998026 -0.0627961 -7.43739e-19
    outer loop
      vertex 4.96057 -0.626666 1.5
      vertex 5 0 -1.5
      vertex 5 0 1.5
    endloop
  endfacet
  facet normal 0.998026 -0.0627961 -7.43739e-19
    outer loop
      vertex 5 0 -1.5
      vertex 4.96057 -0.626666 1.5
      vertex 4.96057 -0.626666 -1.5
    endloop
  endfacet
  facet normal -0.248701 -0.96858 0
    outer loop
      vertex -1.54508 -4.75528 -1.5
      vertex -0.936906 -4.91144 1.5
      vertex -1.54508 -4.75528 1.5
    endloop
  endfacet
  facet normal -0.248701 -0.96858 -0
    outer loop
      vertex -0.936906 -4.91144 1.5
      vertex -1.54508 -4.75528 -1.5
      vertex -0.936906 -4.91144 -1.5
    endloop
  endfacet
  facet normal -0.770515 -0.637422 -4.6405e-18
    outer loop
      vertex -3.64484 -3.42274 -1.5
      vertex -4.04508 -2.93893 1.5
      vertex -4.04508 -2.93893 -1.5
    endloop
  endfacet
  facet normal -0.770515 -0.637422 -4.6405e-18
    outer loop
      vertex -4.04508 -2.93893 1.5
      vertex -3.64484 -3.42274 -1.5
      vertex -3.64484 -3.42274 1.5
    endloop
  endfacet
  facet normal -0.951053 -0.309028 -3.17641e-18
    outer loop
      vertex -4.64888 -1.84062 -1.5
      vertex -4.84292 -1.24345 1.5
      vertex -4.84292 -1.24345 -1.5
    endloop
  endfacet
  facet normal -0.951053 -0.309028 -3.17641e-18
    outer loop
      vertex -4.84292 -1.24345 1.5
      vertex -4.64888 -1.84062 -1.5
      vertex -4.64888 -1.84062 1.5
    endloop
  endfacet
  facet normal 0.481752 -0.876308 0
    outer loop
      vertex 2.1289 -4.52413 -1.5
      vertex 2.67913 -4.22164 1.5
      vertex 2.1289 -4.52413 1.5
    endloop
  endfacet
  facet normal 0.481752 -0.876308 0
    outer loop
      vertex 2.67913 -4.22164 1.5
      vertex 2.1289 -4.52413 -1.5
      vertex 2.67913 -4.22164 -1.5
    endloop
  endfacet
  facet normal 0.248701 -0.96858 0
    outer loop
      vertex 0.936906 -4.91144 -1.5
      vertex 1.54508 -4.75528 1.5
      vertex 0.936906 -4.91144 1.5
    endloop
  endfacet
  facet normal 0.248701 -0.96858 0
    outer loop
      vertex 1.54508 -4.75528 1.5
      vertex 0.936906 -4.91144 -1.5
      vertex 1.54508 -4.75528 -1.5
    endloop
  endfacet
  facet normal 0.844328 -0.535827 -5.89952e-18
    outer loop
      vertex 4.04508 -2.93893 1.5
      vertex 4.38153 -2.40877 -1.5
      vertex 4.38153 -2.40877 1.5
    endloop
  endfacet
  facet normal 0.844328 -0.535827 -5.89952e-18
    outer loop
      vertex 4.38153 -2.40877 -1.5
      vertex 4.04508 -2.93893 1.5
      vertex 4.04508 -2.93893 -1.5
    endloop
  endfacet
  facet normal 0.770515 -0.637422 4.6405e-18
    outer loop
      vertex 3.64484 -3.42274 1.5
      vertex 4.04508 -2.93893 -1.5
      vertex 4.04508 -2.93893 1.5
    endloop
  endfacet
  facet normal 0.770515 -0.637422 4.6405e-18
    outer loop
      vertex 4.04508 -2.93893 -1.5
      vertex 3.64484 -3.42274 1.5
      vertex 3.64484 -3.42274 -1.5
    endloop
  endfacet
  facet normal 0.951053 -0.309028 3.17641e-18
    outer loop
      vertex 4.64888 -1.84062 1.5
      vertex 4.84292 -1.24345 -1.5
      vertex 4.84292 -1.24345 1.5
    endloop
  endfacet
  facet normal 0.951053 -0.309028 3.17641e-18
    outer loop
      vertex 4.84292 -1.24345 -1.5
      vertex 4.64888 -1.84062 1.5
      vertex 4.64888 -1.84062 -1.5
    endloop
  endfacet
  facet normal -0.125322 -0.992116 0
    outer loop
      vertex -0.936906 -4.91144 -1.5
      vertex -0.313952 -4.99013 1.5
      vertex -0.936906 -4.91144 1.5
    endloop
  endfacet
  facet normal -0.125322 -0.992116 -0
    outer loop
      vertex -0.313952 -4.99013 1.5
      vertex -0.936906 -4.91144 -1.5
      vertex -0.313952 -4.99013 -1.5
    endloop
  endfacet
  facet normal -0.684549 -0.728967 0
    outer loop
      vertex -3.64484 -3.42274 -1.5
      vertex -3.18712 -3.85257 1.5
      vertex -3.64484 -3.42274 1.5
    endloop
  endfacet
  facet normal -0.684549 -0.728967 -0
    outer loop
      vertex -3.18712 -3.85257 1.5
      vertex -3.64484 -3.42274 -1.5
      vertex -3.18712 -3.85257 -1.5
    endloop
  endfacet
  facet normal -0.844328 -0.535827 5.89952e-18
    outer loop
      vertex -4.04508 -2.93893 -1.5
      vertex -4.38153 -2.40877 1.5
      vertex -4.38153 -2.40877 -1.5
    endloop
  endfacet
  facet normal -0.844328 -0.535827 5.89952e-18
    outer loop
      vertex -4.38153 -2.40877 1.5
      vertex -4.04508 -2.93893 -1.5
      vertex -4.04508 -2.93893 1.5
    endloop
  endfacet
  facet normal -0.904828 -0.425778 -4.82033e-18
    outer loop
      vertex -4.38153 -2.40877 -1.5
      vertex -4.64888 -1.84062 1.5
      vertex -4.64888 -1.84062 -1.5
    endloop
  endfacet
  facet normal -0.904828 -0.425778 -4.82033e-18
    outer loop
      vertex -4.64888 -1.84062 1.5
      vertex -4.38153 -2.40877 -1.5
      vertex -4.38153 -2.40877 1.5
    endloop
  endfacet
  facet normal -0.98229 -0.187369 1.12595e-18
    outer loop
      vertex -4.84292 -1.24345 -1.5
      vertex -4.96057 -0.626666 1.5
      vertex -4.96057 -0.626666 -1.5
    endloop
  endfacet
  facet normal -0.98229 -0.187369 1.12595e-18
    outer loop
      vertex -4.96057 -0.626666 1.5
      vertex -4.84292 -1.24345 -1.5
      vertex -4.84292 -1.24345 1.5
    endloop
  endfacet
  facet normal -0.998026 -0.0627961 7.43739e-19
    outer loop
      vertex -4.96057 -0.626666 -1.5
      vertex -5 0 1.5
      vertex -5 0 -1.5
    endloop
  endfacet
  facet normal -0.998026 -0.0627961 7.43739e-19
    outer loop
      vertex -5 0 1.5
      vertex -4.96057 -0.626666 -1.5
      vertex -4.96057 -0.626666 1.5
    endloop
  endfacet
  facet normal -0.481752 -0.876308 0
    outer loop
      vertex -2.67913 -4.22164 -1.5
      vertex -2.1289 -4.52413 1.5
      vertex -2.67913 -4.22164 1.5
    endloop
  endfacet
  facet normal -0.481752 -0.876308 -0
    outer loop
      vertex -2.1289 -4.52413 1.5
      vertex -2.67913 -4.22164 -1.5
      vertex -2.1289 -4.52413 -1.5
    endloop
  endfacet
  facet normal -0.587779 -0.809022 0
    outer loop
      vertex -3.18712 -3.85257 -1.5
      vertex -2.67913 -4.22164 1.5
      vertex -3.18712 -3.85257 1.5
    endloop
  endfacet
  facet normal -0.587779 -0.809022 -0
    outer loop
      vertex -2.67913 -4.22164 1.5
      vertex -3.18712 -3.85257 -1.5
      vertex -2.67913 -4.22164 -1.5
    endloop
  endfacet
  facet normal 1 0 0
    outer loop
      vertex -1.75 -1.75 1.3
      vertex -1.75 -0.413301 1.5
      vertex -1.75 -1.75 1.5
    endloop
  endfacet
  facet normal 1 0 0
    outer loop
      vertex -1.75 -0.413301 1.5
      vertex -1.75 -1.75 1.3
      vertex -1.75 -0.413301 1
    endloop
  endfacet
  facet normal 1 0 0
    outer loop
      vertex -1.75 -1.75 1.3
      vertex -1.75 -2.96524 1
      vertex -1.75 -0.413301 1
    endloop
  endfacet
  facet normal 1 -0 0
    outer loop
      vertex -1.75 -3.25 1.3
      vertex -1.75 -2.96524 1
      vertex -1.75 -1.75 1.3
    endloop
  endfacet
  facet normal 1 0 0
    outer loop
      vertex -1.75 -2.96524 1
      vertex -1.75 -3.25 1.3
      vertex -1.75 -3.25 1
    endloop
  endfacet
  facet normal 1 0 0
    outer loop
      vertex -1.75 1.75 1.5
      vertex -1.75 0.413301 1.5
      vertex -1.75 1.75 1.3
    endloop
  endfacet
  facet normal 1 0 0
    outer loop
      vertex -1.75 3.25 1.3
      vertex -1.75 2.96524 1
      vertex -1.75 3.25 1
    endloop
  endfacet
  facet normal 1 -0 0
    outer loop
      vertex -1.75 1.75 1.3
      vertex -1.75 2.96524 1
      vertex -1.75 3.25 1.3
    endloop
  endfacet
  facet normal 1 0 0
    outer loop
      vertex -1.75 0.413301 1
      vertex -1.75 1.75 1.3
      vertex -1.75 0.413301 1.5
    endloop
  endfacet
  facet normal 1 0 0
    outer loop
      vertex -1.75 1.75 1.3
      vertex -1.75 0.413301 1
      vertex -1.75 2.96524 1
    endloop
  endfacet
  facet normal 0 0 -1
    outer loop
      vertex 1.75 -3.25 1.3
      vertex 0.407847 -1.75 1.3
      vertex 1.75 -1.75 1.3
    endloop
  endfacet
  facet normal 0 0 -1
    outer loop
      vertex 1.75 -3.25 1.3
      vertex 0.337286 -1.76812 1.3
      vertex 0.407847 -1.75 1.3
    endloop
  endfacet
  facet normal 0 0 -1
    outer loop
      vertex 1.75 -3.25 1.3
      vertex 0.113023 -1.79645 1.3
      vertex 0.337286 -1.76812 1.3
    endloop
  endfacet
  facet normal 0 0 -1
    outer loop
      vertex 1.75 -3.25 1.3
      vertex -0.113023 -1.79645 1.3
      vertex 0.113023 -1.79645 1.3
    endloop
  endfacet
  facet normal 0 0 -1
    outer loop
      vertex -1.75 -3.25 1.3
      vertex -0.113023 -1.79645 1.3
      vertex 1.75 -3.25 1.3
    endloop
  endfacet
  facet normal -0 0 -1
    outer loop
      vertex -0.113023 -1.79645 1.3
      vertex -1.75 -3.25 1.3
      vertex -0.337286 -1.76812 1.3
    endloop
  endfacet
  facet normal -0 0 -1
    outer loop
      vertex -0.337286 -1.76812 1.3
      vertex -1.75 -3.25 1.3
      vertex -0.407847 -1.75 1.3
    endloop
  endfacet
  facet normal -0 0 -1
    outer loop
      vertex -0.407847 -1.75 1.3
      vertex -1.75 -3.25 1.3
      vertex -1.75 -1.75 1.3
    endloop
  endfacet
  facet normal 0 0 -1
    outer loop
      vertex 0.407847 1.75 1.3
      vertex 1.75 3.25 1.3
      vertex 1.75 1.75 1.3
    endloop
  endfacet
  facet normal 0 0 -1
    outer loop
      vertex 0.337286 1.76812 1.3
      vertex 1.75 3.25 1.3
      vertex 0.407847 1.75 1.3
    endloop
  endfacet
  facet normal 0 0 -1
    outer loop
      vertex 0.113023 1.79645 1.3
      vertex 1.75 3.25 1.3
      vertex 0.337286 1.76812 1.3
    endloop
  endfacet
  facet normal 0 0 -1
    outer loop
      vertex -0.113023 1.79645 1.3
      vertex 1.75 3.25 1.3
      vertex 0.113023 1.79645 1.3
    endloop
  endfacet
  facet normal 0 0 -1
    outer loop
      vertex -1.75 3.25 1.3
      vertex -0.113023 1.79645 1.3
      vertex -0.337286 1.76812 1.3
    endloop
  endfacet
  facet normal 0 0 -1
    outer loop
      vertex -1.75 3.25 1.3
      vertex -0.337286 1.76812 1.3
      vertex -0.407847 1.75 1.3
    endloop
  endfacet
  facet normal 0 0 -1
    outer loop
      vertex -1.75 3.25 1.3
      vertex -0.407847 1.75 1.3
      vertex -1.75 1.75 1.3
    endloop
  endfacet
  facet normal 0 0 -1
    outer loop
      vertex -0.113023 1.79645 1.3
      vertex -1.75 3.25 1.3
      vertex 1.75 3.25 1.3
    endloop
  endfacet
  facet normal -1 0 0
    outer loop
      vertex 1.75 2.96524 1
      vertex 1.75 3.25 1.3
      vertex 1.75 3.25 1
    endloop
  endfacet
  facet normal -1 0 0
    outer loop
      vertex 1.75 2.96524 1
      vertex 1.75 1.75 1.3
      vertex 1.75 3.25 1.3
    endloop
  endfacet
  facet normal -1 0 0
    outer loop
      vertex 1.75 0.413301 1
      vertex 1.75 1.75 1.3
      vertex 1.75 2.96524 1
    endloop
  endfacet
  facet normal -1 0 0
    outer loop
      vertex 1.75 0.413301 1.5
      vertex 1.75 1.75 1.3
      vertex 1.75 0.413301 1
    endloop
  endfacet
  facet normal -1 0 0
    outer loop
      vertex 1.75 1.75 1.3
      vertex 1.75 0.413301 1.5
      vertex 1.75 1.75 1.5
    endloop
  endfacet
  facet normal -1 0 0
    outer loop
      vertex 1.75 -0.413301 1
      vertex 1.75 -1.75 1.3
      vertex 1.75 -0.413301 1.5
    endloop
  endfacet
  facet normal -1 0 0
    outer loop
      vertex 1.75 -2.96524 1
      vertex 1.75 -1.75 1.3
      vertex 1.75 -0.413301 1
    endloop
  endfacet
  facet normal -1 0 0
    outer loop
      vertex 1.75 -3.25 1.3
      vertex 1.75 -2.96524 1
      vertex 1.75 -3.25 1
    endloop
  endfacet
  facet normal -1 0 0
    outer loop
      vertex 1.75 -2.96524 1
      vertex 1.75 -3.25 1.3
      vertex 1.75 -1.75 1.3
    endloop
  endfacet
  facet normal -1 -0 0
    outer loop
      vertex 1.75 -0.413301 1.5
      vertex 1.75 -1.75 1.3
      vertex 1.75 -1.75 1.5
    endloop
  endfacet
  facet normal 0 -1 0
    outer loop
      vertex -1.75 3.25 1
      vertex 1.75 3.25 1.3
      vertex -1.75 3.25 1.3
    endloop
  endfacet
  facet normal 0 -1 -0
    outer loop
      vertex 1.75 3.25 1.3
      vertex -1.75 3.25 1
      vertex 1.75 3.25 1
    endloop
  endfacet
  facet normal -0 0 -1
    outer loop
      vertex 3.46199 0 1
      vertex 1.78581 -0.225599 1
      vertex 1.8 0 1
    endloop
  endfacet
  facet normal 0 0 -1
    outer loop
      vertex 1.75 -0.413301 1
      vertex 3.46199 0 1
      vertex 1.75 -2.96524 1
    endloop
  endfacet
  facet normal 0 0 -1
    outer loop
      vertex 3.46199 0 1
      vertex 1.75 -0.413301 1
      vertex 1.78581 -0.225599 1
    endloop
  endfacet
  facet normal 0 0 -1
    outer loop
      vertex 1.78581 0.225599 1
      vertex 3.46199 0 1
      vertex 1.8 0 1
    endloop
  endfacet
  facet normal 0 0 -1
    outer loop
      vertex 1.75 0.413301 1
      vertex 3.46199 0 1
      vertex 1.78581 0.225599 1
    endloop
  endfacet
  facet normal 0 0 -1
    outer loop
      vertex 3.46199 0 1
      vertex 1.75 0.413301 1
      vertex 1.75 2.96524 1
    endloop
  endfacet
  facet normal 0 0 -1
    outer loop
      vertex -3.46199 0 1
      vertex -1.75 -0.413301 1
      vertex -1.75 -2.96524 1
    endloop
  endfacet
  facet normal 0 0 -1
    outer loop
      vertex -1.75 -0.413301 1
      vertex -3.46199 0 1
      vertex -1.78581 -0.225599 1
    endloop
  endfacet
  facet normal 0 0 -1
    outer loop
      vertex -1.78581 -0.225599 1
      vertex -3.46199 0 1
      vertex -1.8 0 1
    endloop
  endfacet
  facet normal 0 0 -1
    outer loop
      vertex -3.46199 0 1
      vertex -1.75 0.413301 1
      vertex -1.78581 0.225599 1
    endloop
  endfacet
  facet normal 0 0 -1
    outer loop
      vertex -3.46199 0 1
      vertex -1.78581 0.225599 1
      vertex -1.8 0 1
    endloop
  endfacet
  facet normal -0 0 -1
    outer loop
      vertex -1.75 0.413301 1
      vertex -3.46199 0 1
      vertex -1.75 2.96524 1
    endloop
  endfacet
  facet normal -0 0 1
    outer loop
      vertex 1.73099 -2.99817 1
      vertex 1.75 -3.25 1
      vertex 1.75 -2.96524 1
    endloop
  endfacet
  facet normal -0 0 1
    outer loop
      vertex -1.73099 -2.99817 1
      vertex 1.75 -3.25 1
      vertex 1.73099 -2.99817 1
    endloop
  endfacet
  facet normal 0 0 1
    outer loop
      vertex -1.73099 -2.99817 1
      vertex -1.75 -3.25 1
      vertex 1.75 -3.25 1
    endloop
  endfacet
  facet normal 0 0 1
    outer loop
      vertex -1.75 -3.25 1
      vertex -1.73099 -2.99817 1
      vertex -1.75 -2.96524 1
    endloop
  endfacet
  facet normal 0 0 1
    outer loop
      vertex 1.75 3.25 1
      vertex 1.73099 2.99817 1
      vertex 1.75 2.96524 1
    endloop
  endfacet
  facet normal 0 0 1
    outer loop
      vertex 1.75 3.25 1
      vertex -1.73099 2.99817 1
      vertex 1.73099 2.99817 1
    endloop
  endfacet
  facet normal -0 0 1
    outer loop
      vertex -1.75 3.25 1
      vertex -1.73099 2.99817 1
      vertex 1.75 3.25 1
    endloop
  endfacet
  facet normal 0 0 1
    outer loop
      vertex -1.73099 2.99817 1
      vertex -1.75 3.25 1
      vertex -1.75 2.96524 1
    endloop
  endfacet
  facet normal 0 1 -0
    outer loop
      vertex 1.75 -3.25 1
      vertex -1.75 -3.25 1.3
      vertex 1.75 -3.25 1.3
    endloop
  endfacet
  facet normal 0 1 0
    outer loop
      vertex -1.75 -3.25 1.3
      vertex 1.75 -3.25 1
      vertex -1.75 -3.25 1
    endloop
  endfacet
  facet normal 0 1 -0
    outer loop
      vertex -0.407847 -1.75 1.3
      vertex -1.75 -1.75 1.5
      vertex -0.407847 -1.75 1.5
    endloop
  endfacet
  facet normal 0 1 0
    outer loop
      vertex -1.75 -1.75 1.5
      vertex -0.407847 -1.75 1.3
      vertex -1.75 -1.75 1.3
    endloop
  endfacet
  facet normal 0 1 -0
    outer loop
      vertex 1.75 -1.75 1.3
      vertex 0.407847 -1.75 1.5
      vertex 1.75 -1.75 1.5
    endloop
  endfacet
  facet normal 0 1 0
    outer loop
      vertex 0.407847 -1.75 1.5
      vertex 1.75 -1.75 1.3
      vertex 0.407847 -1.75 1.3
    endloop
  endfacet
  facet normal 0 -1 0
    outer loop
      vertex 0.407847 1.75 1.3
      vertex 1.75 1.75 1.5
      vertex 0.407847 1.75 1.5
    endloop
  endfacet
  facet normal 0 -1 -0
    outer loop
      vertex 1.75 1.75 1.5
      vertex 0.407847 1.75 1.3
      vertex 1.75 1.75 1.3
    endloop
  endfacet
  facet normal 0 -1 0
    outer loop
      vertex -1.75 1.75 1.3
      vertex -0.407847 1.75 1.5
      vertex -1.75 1.75 1.5
    endloop
  endfacet
  facet normal 0 -1 -0
    outer loop
      vertex -0.407847 1.75 1.5
      vertex -1.75 1.75 1.3
      vertex -0.407847 1.75 1.3
    endloop
  endfacet
  facet normal -0.866024 0.500002 -2.79666e-17
    outer loop
      vertex 1.75 -2.96524 -1.5
      vertex 3.46199 0 1
      vertex 3.46199 0 -1.5
    endloop
  endfacet
  facet normal -0.866024 0.500002 0
    outer loop
      vertex 1.75 -2.96524 -1.5
      vertex 1.75 -2.96524 1
      vertex 3.46199 0 1
    endloop
  endfacet
  facet normal -0.86605 0.499958 -3.3248e-19
    outer loop
      vertex 1.73099 -2.99817 -1.5
      vertex 1.75 -2.96524 1
      vertex 1.75 -2.96524 -1.5
    endloop
  endfacet
  facet normal -0.86605 0.499958 -3.3248e-19
    outer loop
      vertex 1.75 -2.96524 1
      vertex 1.73099 -2.99817 -1.5
      vertex 1.73099 -2.99817 1
    endloop
  endfacet
  facet normal -0.86605 -0.499958 3.3248e-19
    outer loop
      vertex 1.75 2.96524 -1.5
      vertex 1.73099 2.99817 1
      vertex 1.73099 2.99817 -1.5
    endloop
  endfacet
  facet normal -0.86605 -0.499958 0
    outer loop
      vertex 1.75 2.96524 -1.5
      vertex 1.75 2.96524 1
      vertex 1.73099 2.99817 1
    endloop
  endfacet
  facet normal -0.866024 -0.500002 2.79666e-17
    outer loop
      vertex 3.46199 0 -1.5
      vertex 1.75 2.96524 1
      vertex 1.75 2.96524 -1.5
    endloop
  endfacet
  facet normal -0.866024 -0.500002 2.79666e-17
    outer loop
      vertex 1.75 2.96524 1
      vertex 3.46199 0 -1.5
      vertex 3.46199 0 1
    endloop
  endfacet
  facet normal 0.866024 0.500002 2.79666e-17
    outer loop
      vertex -1.75 -2.96524 1
      vertex -3.46199 0 -1.5
      vertex -3.46199 0 1
    endloop
  endfacet
  facet normal 0.866024 0.500002 0
    outer loop
      vertex -1.75 -2.96524 1
      vertex -1.75 -2.96524 -1.5
      vertex -3.46199 0 -1.5
    endloop
  endfacet
  facet normal 0.86605 0.499958 3.3248e-19
    outer loop
      vertex -1.73099 -2.99817 1
      vertex -1.75 -2.96524 -1.5
      vertex -1.75 -2.96524 1
    endloop
  endfacet
  facet normal 0.86605 0.499958 3.3248e-19
    outer loop
      vertex -1.75 -2.96524 -1.5
      vertex -1.73099 -2.99817 1
      vertex -1.73099 -2.99817 -1.5
    endloop
  endfacet
  facet normal 0 1 -0
    outer loop
      vertex 1.73099 -2.99817 -1.5
      vertex -1.73099 -2.99817 1
      vertex 1.73099 -2.99817 1
    endloop
  endfacet
  facet normal 0 1 0
    outer loop
      vertex -1.73099 -2.99817 1
      vertex 1.73099 -2.99817 -1.5
      vertex -1.73099 -2.99817 -1.5
    endloop
  endfacet
  facet normal 0.86605 -0.499958 -3.3248e-19
    outer loop
      vertex -1.75 2.96524 1
      vertex -1.73099 2.99817 -1.5
      vertex -1.73099 2.99817 1
    endloop
  endfacet
  facet normal 0.86605 -0.499958 0
    outer loop
      vertex -1.75 2.96524 1
      vertex -1.75 2.96524 -1.5
      vertex -1.73099 2.99817 -1.5
    endloop
  endfacet
  facet normal 0.866024 -0.500002 -2.79666e-17
    outer loop
      vertex -3.46199 0 1
      vertex -1.75 2.96524 -1.5
      vertex -1.75 2.96524 1
    endloop
  endfacet
  facet normal 0.866024 -0.500002 -2.79666e-17
    outer loop
      vertex -1.75 2.96524 -1.5
      vertex -3.46199 0 1
      vertex -3.46199 0 -1.5
    endloop
  endfacet
  facet normal 0 -1 0
    outer loop
      vertex -1.73099 2.99817 -1.5
      vertex 1.73099 2.99817 1
      vertex -1.73099 2.99817 1
    endloop
  endfacet
  facet normal 0 -1 -0
    outer loop
      vertex 1.73099 2.99817 1
      vertex -1.73099 2.99817 -1.5
      vertex 1.73099 2.99817 -1.5
    endloop
  endfacet
  facet normal -0.998028 -0.0627752 9.74269e-19
    outer loop
      vertex 1.8 0 1
      vertex 1.78581 0.225599 1.5
      vertex 1.78581 0.225599 1
    endloop
  endfacet
  facet normal -0.998028 -0.0627752 9.74269e-19
    outer loop
      vertex 1.78581 0.225599 1.5
      vertex 1.8 0 1
      vertex 1.8 0 1.5
    endloop
  endfacet
  facet normal 0.998028 -0.0627752 -9.74269e-19
    outer loop
      vertex -1.8 0 1.5
      vertex -1.78581 0.225599 1
      vertex -1.78581 0.225599 1.5
    endloop
  endfacet
  facet normal 0.998028 -0.0627752 -9.74269e-19
    outer loop
      vertex -1.78581 0.225599 1
      vertex -1.8 0 1.5
      vertex -1.8 0 1
    endloop
  endfacet
  facet normal 0 -1 0
    outer loop
      vertex -0.113023 1.79645 1.3
      vertex 0.113023 1.79645 1.5
      vertex -0.113023 1.79645 1.5
    endloop
  endfacet
  facet normal 0 -1 -0
    outer loop
      vertex 0.113023 1.79645 1.5
      vertex -0.113023 1.79645 1.3
      vertex 0.113023 1.79645 1.3
    endloop
  endfacet
  facet normal -0.982283 -0.187401 2.99207e-18
    outer loop
      vertex 1.78581 0.225599 1
      vertex 1.75 0.413301 1.5
      vertex 1.75 0.413301 1
    endloop
  endfacet
  facet normal -0.982283 -0.187401 2.99207e-18
    outer loop
      vertex 1.75 0.413301 1.5
      vertex 1.78581 0.225599 1
      vertex 1.78581 0.225599 1.5
    endloop
  endfacet
  facet normal -0.248729 -0.968573 0
    outer loop
      vertex 0.337286 1.76812 1.3
      vertex 0.407847 1.75 1.5
      vertex 0.337286 1.76812 1.5
    endloop
  endfacet
  facet normal -0.248729 -0.968573 -0
    outer loop
      vertex 0.407847 1.75 1.5
      vertex 0.337286 1.76812 1.3
      vertex 0.407847 1.75 1.3
    endloop
  endfacet
  facet normal 0.125329 -0.992115 0
    outer loop
      vertex -0.337286 1.76812 1.3
      vertex -0.113023 1.79645 1.5
      vertex -0.337286 1.76812 1.5
    endloop
  endfacet
  facet normal 0.125329 -0.992115 0
    outer loop
      vertex -0.113023 1.79645 1.5
      vertex -0.337286 1.76812 1.3
      vertex -0.113023 1.79645 1.3
    endloop
  endfacet
  facet normal -0.998028 0.0627752 -9.74269e-19
    outer loop
      vertex 1.78581 -0.225599 1
      vertex 1.8 0 1.5
      vertex 1.8 0 1
    endloop
  endfacet
  facet normal -0.998028 0.0627752 -9.74269e-19
    outer loop
      vertex 1.8 0 1.5
      vertex 1.78581 -0.225599 1
      vertex 1.78581 -0.225599 1.5
    endloop
  endfacet
  facet normal 0.125329 0.992115 -0
    outer loop
      vertex -0.113023 -1.79645 1.3
      vertex -0.337286 -1.76812 1.5
      vertex -0.113023 -1.79645 1.5
    endloop
  endfacet
  facet normal 0.125329 0.992115 0
    outer loop
      vertex -0.337286 -1.76812 1.5
      vertex -0.113023 -1.79645 1.3
      vertex -0.337286 -1.76812 1.3
    endloop
  endfacet
  facet normal -0.125329 0.992115 0
    outer loop
      vertex 0.337286 -1.76812 1.3
      vertex 0.113023 -1.79645 1.5
      vertex 0.337286 -1.76812 1.5
    endloop
  endfacet
  facet normal -0.125329 0.992115 0
    outer loop
      vertex 0.113023 -1.79645 1.5
      vertex 0.337286 -1.76812 1.3
      vertex 0.113023 -1.79645 1.3
    endloop
  endfacet
  facet normal -0.125329 -0.992115 0
    outer loop
      vertex 0.113023 1.79645 1.3
      vertex 0.337286 1.76812 1.5
      vertex 0.113023 1.79645 1.5
    endloop
  endfacet
  facet normal -0.125329 -0.992115 -0
    outer loop
      vertex 0.337286 1.76812 1.5
      vertex 0.113023 1.79645 1.3
      vertex 0.337286 1.76812 1.3
    endloop
  endfacet
  facet normal 0.248729 -0.968573 0
    outer loop
      vertex -0.407847 1.75 1.3
      vertex -0.337286 1.76812 1.5
      vertex -0.407847 1.75 1.5
    endloop
  endfacet
  facet normal 0.248729 -0.968573 0
    outer loop
      vertex -0.337286 1.76812 1.5
      vertex -0.407847 1.75 1.3
      vertex -0.337286 1.76812 1.3
    endloop
  endfacet
  facet normal -0.982283 0.187401 -2.99207e-18
    outer loop
      vertex 1.75 -0.413301 1
      vertex 1.78581 -0.225599 1.5
      vertex 1.78581 -0.225599 1
    endloop
  endfacet
  facet normal -0.982283 0.187401 -2.99207e-18
    outer loop
      vertex 1.78581 -0.225599 1.5
      vertex 1.75 -0.413301 1
      vertex 1.75 -0.413301 1.5
    endloop
  endfacet
  facet normal -0.248729 0.968573 0
    outer loop
      vertex 0.407847 -1.75 1.3
      vertex 0.337286 -1.76812 1.5
      vertex 0.407847 -1.75 1.5
    endloop
  endfacet
  facet normal -0.248729 0.968573 0
    outer loop
      vertex 0.337286 -1.76812 1.5
      vertex 0.407847 -1.75 1.3
      vertex 0.337286 -1.76812 1.3
    endloop
  endfacet
  facet normal 0.982283 -0.187401 -2.99207e-18
    outer loop
      vertex -1.78581 0.225599 1.5
      vertex -1.75 0.413301 1
      vertex -1.75 0.413301 1.5
    endloop
  endfacet
  facet normal 0.982283 -0.187401 -2.99207e-18
    outer loop
      vertex -1.75 0.413301 1
      vertex -1.78581 0.225599 1.5
      vertex -1.78581 0.225599 1
    endloop
  endfacet
  facet normal 0.998028 0.0627752 9.74269e-19
    outer loop
      vertex -1.78581 -0.225599 1.5
      vertex -1.8 0 1
      vertex -1.8 0 1.5
    endloop
  endfacet
  facet normal 0.998028 0.0627752 9.74269e-19
    outer loop
      vertex -1.8 0 1
      vertex -1.78581 -0.225599 1.5
      vertex -1.78581 -0.225599 1
    endloop
  endfacet
  facet normal 0 1 -0
    outer loop
      vertex 0.113023 -1.79645 1.3
      vertex -0.113023 -1.79645 1.5
      vertex 0.113023 -1.79645 1.5
    endloop
  endfacet
  facet normal 0 1 0
    outer loop
      vertex -0.113023 -1.79645 1.5
      vertex 0.113023 -1.79645 1.3
      vertex -0.113023 -1.79645 1.3
    endloop
  endfacet
  facet normal 0.248729 0.968573 -0
    outer loop
      vertex -0.337286 -1.76812 1.3
      vertex -0.407847 -1.75 1.5
      vertex -0.337286 -1.76812 1.5
    endloop
  endfacet
  facet normal 0.248729 0.968573 0
    outer loop
      vertex -0.407847 -1.75 1.5
      vertex -0.337286 -1.76812 1.3
      vertex -0.407847 -1.75 1.3
    endloop
  endfacet
  facet normal 0.982283 0.187401 2.99207e-18
    outer loop
      vertex -1.75 -0.413301 1.5
      vertex -1.78581 -0.225599 1
      vertex -1.78581 -0.225599 1.5
    endloop
  endfacet
  facet normal 0.982283 0.187401 2.99207e-18
    outer loop
      vertex -1.78581 -0.225599 1
      vertex -1.75 -0.413301 1.5
      vertex -1.75 -0.413301 1
    endloop
  endfacet
endsolid OpenSCAD_Model
