solid OpenSCAD_Model
  facet normal -1 0 0
    outer loop
      vertex -7 0 -6
      vertex -7 30.5 6
      vertex -7 30.5 -6
    endloop
  endfacet
  facet normal -1 -0 0
    outer loop
      vertex -7 30.5 6
      vertex -7 0 -6
      vertex -7 0 6
    endloop
  endfacet
  facet normal -0 0 1
    outer loop
      vertex -2 17.75 6
      vertex 2 12.25 6
      vertex 2 17.75 6
    endloop
  endfacet
  facet normal 0 0 1
    outer loop
      vertex 2 12.25 6
      vertex -2 17.75 6
      vertex -2 12.25 6
    endloop
  endfacet
  facet normal -0 0 1
    outer loop
      vertex -2 25.75 6
      vertex 2 19.25 6
      vertex 2 25.75 6
    endloop
  endfacet
  facet normal 0 0 1
    outer loop
      vertex 2 19.25 6
      vertex -2 25.75 6
      vertex -2 19.25 6
    endloop
  endfacet
  facet normal -0 0 1
    outer loop
      vertex -2 32.75 6
      vertex 2 27.25 6
      vertex 2 32.75 6
    endloop
  endfacet
  facet normal 0 0 1
    outer loop
      vertex 2 27.25 6
      vertex -2 32.75 6
      vertex -2 27.25 6
    endloop
  endfacet
  facet normal 0 0 1
    outer loop
      vertex 2.31395 35.4901 6
      vertex -2 34.25 6
      vertex 2 34.25 6
    endloop
  endfacet
  facet normal 0 0 1
    outer loop
      vertex -4.1289 35.0241 6
      vertex -2 32.75 6
      vertex -2 34.25 6
    endloop
  endfacet
  facet normal 0 0 1
    outer loop
      vertex -7 30.5 6
      vertex -2 32.75 6
      vertex -6.96057 31.1267 6
    endloop
  endfacet
  facet normal 0 0 1
    outer loop
      vertex -2 27.25 6
      vertex -7 30.5 6
      vertex -2 25.75 6
    endloop
  endfacet
  facet normal 0 0 1
    outer loop
      vertex -2 25.75 6
      vertex -7 30.5 6
      vertex -2 19.25 6
    endloop
  endfacet
  facet normal 0 0 1
    outer loop
      vertex -2 19.25 6
      vertex -7 30.5 6
      vertex -2 17.75 6
    endloop
  endfacet
  facet normal 0 0 1
    outer loop
      vertex -7 0 6
      vertex -2 17.75 6
      vertex -7 30.5 6
    endloop
  endfacet
  facet normal -0 0 1
    outer loop
      vertex -2.93691 35.4114 6
      vertex -2 34.25 6
      vertex -2.31395 35.4901 6
    endloop
  endfacet
  facet normal -0 0 1
    outer loop
      vertex -2.31395 35.4901 6
      vertex -2 34.25 6
      vertex 2.31395 35.4901 6
    endloop
  endfacet
  facet normal 0 0 1
    outer loop
      vertex 2 32.75 6
      vertex 7 30.5 6
      vertex 6.96057 31.1267 6
    endloop
  endfacet
  facet normal 0 0 1
    outer loop
      vertex 2 32.75 6
      vertex 6.96057 31.1267 6
      vertex 6.84292 31.7435 6
    endloop
  endfacet
  facet normal 0 0 1
    outer loop
      vertex 2 32.75 6
      vertex 6.84292 31.7435 6
      vertex 6.64888 32.3406 6
    endloop
  endfacet
  facet normal -0 0 1
    outer loop
      vertex 2 32.75 6
      vertex 6.64888 32.3406 6
      vertex 6.38153 32.9088 6
    endloop
  endfacet
  facet normal 0 0 1
    outer loop
      vertex 2 32.75 6
      vertex 6.38153 32.9088 6
      vertex 6.04508 33.4389 6
    endloop
  endfacet
  facet normal 0 0 1
    outer loop
      vertex 2 32.75 6
      vertex 6.04508 33.4389 6
      vertex 5.64484 33.9227 6
    endloop
  endfacet
  facet normal 0 0 1
    outer loop
      vertex 2 32.75 6
      vertex 5.64484 33.9227 6
      vertex 5.18712 34.3526 6
    endloop
  endfacet
  facet normal 0 0 1
    outer loop
      vertex 2 32.75 6
      vertex 5.18712 34.3526 6
      vertex 4.67913 34.7216 6
    endloop
  endfacet
  facet normal 0 0 1
    outer loop
      vertex 2 32.75 6
      vertex 4.67913 34.7216 6
      vertex 4.1289 35.0241 6
    endloop
  endfacet
  facet normal 0 0 1
    outer loop
      vertex 2 34.25 6
      vertex 4.1289 35.0241 6
      vertex 3.54508 35.2553 6
    endloop
  endfacet
  facet normal 0 0 1
    outer loop
      vertex 2 34.25 6
      vertex 3.54508 35.2553 6
      vertex 2.93691 35.4114 6
    endloop
  endfacet
  facet normal 0 0 1
    outer loop
      vertex 2 34.25 6
      vertex 2.93691 35.4114 6
      vertex 2.31395 35.4901 6
    endloop
  endfacet
  facet normal 0 0 1
    outer loop
      vertex 4.1289 35.0241 6
      vertex 2 34.25 6
      vertex 2 32.75 6
    endloop
  endfacet
  facet normal 0 0 1
    outer loop
      vertex 7 30.5 6
      vertex 2 32.75 6
      vertex 2 27.25 6
    endloop
  endfacet
  facet normal 0 0 1
    outer loop
      vertex 7 30.5 6
      vertex 2 27.25 6
      vertex 2 25.75 6
    endloop
  endfacet
  facet normal 0 0 1
    outer loop
      vertex 7 30.5 6
      vertex 2 25.75 6
      vertex 2 19.25 6
    endloop
  endfacet
  facet normal 0 0 1
    outer loop
      vertex 7 30.5 6
      vertex 2 19.25 6
      vertex 2 17.75 6
    endloop
  endfacet
  facet normal 0 0 1
    outer loop
      vertex 7 30.5 6
      vertex 2 17.75 6
      vertex 7 0 6
    endloop
  endfacet
  facet normal -0 0 1
    outer loop
      vertex 2 12.25 6
      vertex 7 0 6
      vertex 2 17.75 6
    endloop
  endfacet
  facet normal -0 0 1
    outer loop
      vertex 2 10.75 6
      vertex 7 0 6
      vertex 2 12.25 6
    endloop
  endfacet
  facet normal -0 0 1
    outer loop
      vertex -2 10.75 6
      vertex 7 0 6
      vertex 2 10.75 6
    endloop
  endfacet
  facet normal -0 0 1
    outer loop
      vertex -3.54508 35.2553 6
      vertex -2 34.25 6
      vertex -2.93691 35.4114 6
    endloop
  endfacet
  facet normal -0 0 1
    outer loop
      vertex -4.1289 35.0241 6
      vertex -2 34.25 6
      vertex -3.54508 35.2553 6
    endloop
  endfacet
  facet normal 0 0 1
    outer loop
      vertex -2 32.75 6
      vertex -4.1289 35.0241 6
      vertex -4.67913 34.7216 6
    endloop
  endfacet
  facet normal 0 0 1
    outer loop
      vertex -2 32.75 6
      vertex -4.67913 34.7216 6
      vertex -5.18712 34.3526 6
    endloop
  endfacet
  facet normal 0 0 1
    outer loop
      vertex -2 32.75 6
      vertex -5.18712 34.3526 6
      vertex -5.64484 33.9227 6
    endloop
  endfacet
  facet normal 0 0 1
    outer loop
      vertex -2 32.75 6
      vertex -5.64484 33.9227 6
      vertex -6.04508 33.4389 6
    endloop
  endfacet
  facet normal 0 0 1
    outer loop
      vertex -2 32.75 6
      vertex -6.04508 33.4389 6
      vertex -6.38153 32.9088 6
    endloop
  endfacet
  facet normal 0 0 1
    outer loop
      vertex -2 32.75 6
      vertex -6.38153 32.9088 6
      vertex -6.64888 32.3406 6
    endloop
  endfacet
  facet normal 0 0 1
    outer loop
      vertex -2 32.75 6
      vertex -6.64888 32.3406 6
      vertex -6.84292 31.7435 6
    endloop
  endfacet
  facet normal 0 0 1
    outer loop
      vertex -2 32.75 6
      vertex -6.84292 31.7435 6
      vertex -6.96057 31.1267 6
    endloop
  endfacet
  facet normal 0 0 1
    outer loop
      vertex -2 32.75 6
      vertex -7 30.5 6
      vertex -2 27.25 6
    endloop
  endfacet
  facet normal 0 0 1
    outer loop
      vertex -2 17.75 6
      vertex -7 0 6
      vertex -2 12.25 6
    endloop
  endfacet
  facet normal 0 0 1
    outer loop
      vertex -2 10.75 6
      vertex -7 0 6
      vertex 7 0 6
    endloop
  endfacet
  facet normal 0 0 1
    outer loop
      vertex -2 12.25 6
      vertex -7 0 6
      vertex -2 10.75 6
    endloop
  endfacet
  facet normal 1 -0 0
    outer loop
      vertex 7 0 6
      vertex 7 30.5 -6
      vertex 7 30.5 6
    endloop
  endfacet
  facet normal 1 0 0
    outer loop
      vertex 7 30.5 -6
      vertex 7 0 6
      vertex 7 0 -6
    endloop
  endfacet
  facet normal 0.481764 0.876301 -0
    outer loop
      vertex 4.67913 34.7216 -6
      vertex 4.1289 35.0241 6
      vertex 4.67913 34.7216 6
    endloop
  endfacet
  facet normal 0.481764 0.876301 0
    outer loop
      vertex 4.1289 35.0241 6
      vertex 4.67913 34.7216 -6
      vertex 4.1289 35.0241 -6
    endloop
  endfacet
  facet normal 0 1 -0
    outer loop
      vertex 2.31395 35.4901 -6
      vertex -2.31395 35.4901 6
      vertex 2.31395 35.4901 6
    endloop
  endfacet
  facet normal 0 1 0
    outer loop
      vertex -2.31395 35.4901 6
      vertex 2.31395 35.4901 -6
      vertex -2.31395 35.4901 -6
    endloop
  endfacet
  facet normal -0.368192 0.92975 0
    outer loop
      vertex -3.54508 35.2553 -6
      vertex -4.1289 35.0241 6
      vertex -3.54508 35.2553 6
    endloop
  endfacet
  facet normal -0.368192 0.92975 0
    outer loop
      vertex -4.1289 35.0241 6
      vertex -3.54508 35.2553 -6
      vertex -4.1289 35.0241 -6
    endloop
  endfacet
  facet normal -0.770509 0.63743 -1.16913e-18
    outer loop
      vertex -6.04508 33.4389 -6
      vertex -5.64484 33.9227 6
      vertex -5.64484 33.9227 -6
    endloop
  endfacet
  facet normal -0.770509 0.63743 -1.16913e-18
    outer loop
      vertex -5.64484 33.9227 6
      vertex -6.04508 33.4389 -6
      vertex -6.04508 33.4389 6
    endloop
  endfacet
  facet normal -0.998027 0.0627927 5.30571e-20
    outer loop
      vertex -7 30.5 -6
      vertex -6.96057 31.1267 6
      vertex -6.96057 31.1267 -6
    endloop
  endfacet
  facet normal -0.998027 0.0627927 5.30571e-20
    outer loop
      vertex -6.96057 31.1267 6
      vertex -7 30.5 -6
      vertex -7 30.5 6
    endloop
  endfacet
  facet normal -0.684608 0.728911 0
    outer loop
      vertex -5.18712 34.3526 -6
      vertex -5.64484 33.9227 6
      vertex -5.18712 34.3526 6
    endloop
  endfacet
  facet normal -0.684608 0.728911 0
    outer loop
      vertex -5.64484 33.9227 6
      vertex -5.18712 34.3526 -6
      vertex -5.64484 33.9227 -6
    endloop
  endfacet
  facet normal -0.951042 0.309061 8.83229e-19
    outer loop
      vertex -6.84292 31.7435 -6
      vertex -6.64888 32.3406 6
      vertex -6.64888 32.3406 -6
    endloop
  endfacet
  facet normal -0.951042 0.309061 8.83229e-19
    outer loop
      vertex -6.64888 32.3406 6
      vertex -6.84292 31.7435 -6
      vertex -6.84292 31.7435 6
    endloop
  endfacet
  facet normal 0.951042 0.309061 -8.83229e-19
    outer loop
      vertex 6.84292 31.7435 6
      vertex 6.64888 32.3406 -6
      vertex 6.64888 32.3406 6
    endloop
  endfacet
  facet normal 0.951042 0.309061 -8.83229e-19
    outer loop
      vertex 6.64888 32.3406 -6
      vertex 6.84292 31.7435 6
      vertex 6.84292 31.7435 -6
    endloop
  endfacet
  facet normal 0.125336 0.992114 -0
    outer loop
      vertex 2.93691 35.4114 -6
      vertex 2.31395 35.4901 6
      vertex 2.93691 35.4114 6
    endloop
  endfacet
  facet normal 0.125336 0.992114 0
    outer loop
      vertex 2.31395 35.4901 6
      vertex 2.93691 35.4114 -6
      vertex 2.31395 35.4901 -6
    endloop
  endfacet
  facet normal -0.8443 0.53587 3.92134e-19
    outer loop
      vertex -6.38153 32.9088 -6
      vertex -6.04508 33.4389 6
      vertex -6.04508 33.4389 -6
    endloop
  endfacet
  facet normal -0.8443 0.53587 3.92134e-19
    outer loop
      vertex -6.04508 33.4389 6
      vertex -6.38153 32.9088 -6
      vertex -6.38153 32.9088 6
    endloop
  endfacet
  facet normal -0.904842 0.425747 4.19051e-19
    outer loop
      vertex -6.64888 32.3406 -6
      vertex -6.38153 32.9088 6
      vertex -6.38153 32.9088 -6
    endloop
  endfacet
  facet normal -0.904842 0.425747 4.19051e-19
    outer loop
      vertex -6.38153 32.9088 6
      vertex -6.64888 32.3406 -6
      vertex -6.64888 32.3406 6
    endloop
  endfacet
  facet normal -0.248613 0.968603 0
    outer loop
      vertex -2.93691 35.4114 -6
      vertex -3.54508 35.2553 6
      vertex -2.93691 35.4114 6
    endloop
  endfacet
  facet normal -0.248613 0.968603 0
    outer loop
      vertex -3.54508 35.2553 6
      vertex -2.93691 35.4114 -6
      vertex -3.54508 35.2553 -6
    endloop
  endfacet
  facet normal -0.125336 0.992114 0
    outer loop
      vertex -2.31395 35.4901 -6
      vertex -2.93691 35.4114 6
      vertex -2.31395 35.4901 6
    endloop
  endfacet
  facet normal -0.125336 0.992114 0
    outer loop
      vertex -2.93691 35.4114 6
      vertex -2.31395 35.4901 -6
      vertex -2.93691 35.4114 -6
    endloop
  endfacet
  facet normal -0.98229 0.187365 7.77895e-19
    outer loop
      vertex -6.96057 31.1267 -6
      vertex -6.84292 31.7435 6
      vertex -6.84292 31.7435 -6
    endloop
  endfacet
  facet normal -0.98229 0.187365 7.77895e-19
    outer loop
      vertex -6.84292 31.7435 6
      vertex -6.96057 31.1267 -6
      vertex -6.96057 31.1267 6
    endloop
  endfacet
  facet normal 0 0 -1
    outer loop
      vertex -2 27.25 -6
      vertex 2 32.75 -6
      vertex 2 27.25 -6
    endloop
  endfacet
  facet normal -0 0 -1
    outer loop
      vertex 2 32.75 -6
      vertex -2 27.25 -6
      vertex -2 32.75 -6
    endloop
  endfacet
  facet normal 0 0 -1
    outer loop
      vertex -2 19.25 -6
      vertex 2 25.75 -6
      vertex 2 19.25 -6
    endloop
  endfacet
  facet normal -0 0 -1
    outer loop
      vertex 2 25.75 -6
      vertex -2 19.25 -6
      vertex -2 25.75 -6
    endloop
  endfacet
  facet normal 0 0 -1
    outer loop
      vertex -2 12.25 -6
      vertex 2 17.75 -6
      vertex 2 12.25 -6
    endloop
  endfacet
  facet normal -0 0 -1
    outer loop
      vertex 2 17.75 -6
      vertex -2 12.25 -6
      vertex -2 17.75 -6
    endloop
  endfacet
  facet normal 0 0 -1
    outer loop
      vertex 2 17.75 -6
      vertex 7 30.5 -6
      vertex 7 0 -6
    endloop
  endfacet
  facet normal 0 0 -1
    outer loop
      vertex 2 19.25 -6
      vertex 7 30.5 -6
      vertex 2 17.75 -6
    endloop
  endfacet
  facet normal 0 0 -1
    outer loop
      vertex 2 25.75 -6
      vertex 7 30.5 -6
      vertex 2 19.25 -6
    endloop
  endfacet
  facet normal 0 0 -1
    outer loop
      vertex 2 27.25 -6
      vertex 7 30.5 -6
      vertex 2 25.75 -6
    endloop
  endfacet
  facet normal 0 0 -1
    outer loop
      vertex 2 32.75 -6
      vertex 7 30.5 -6
      vertex 2 27.25 -6
    endloop
  endfacet
  facet normal 0 0 -1
    outer loop
      vertex 7 30.5 -6
      vertex 2 32.75 -6
      vertex 6.96057 31.1267 -6
    endloop
  endfacet
  facet normal 0 0 -1
    outer loop
      vertex 6.84292 31.7435 -6
      vertex 2 32.75 -6
      vertex 6.64888 32.3406 -6
    endloop
  endfacet
  facet normal 0 0 -1
    outer loop
      vertex 6.64888 32.3406 -6
      vertex 2 32.75 -6
      vertex 6.38153 32.9088 -6
    endloop
  endfacet
  facet normal -0 0 -1
    outer loop
      vertex 6.38153 32.9088 -6
      vertex 2 32.75 -6
      vertex 6.04508 33.4389 -6
    endloop
  endfacet
  facet normal -0 0 -1
    outer loop
      vertex 6.04508 33.4389 -6
      vertex 2 32.75 -6
      vertex 5.64484 33.9227 -6
    endloop
  endfacet
  facet normal -0 0 -1
    outer loop
      vertex 5.18712 34.3526 -6
      vertex 2 32.75 -6
      vertex 4.67913 34.7216 -6
    endloop
  endfacet
  facet normal -0 0 -1
    outer loop
      vertex 4.67913 34.7216 -6
      vertex 2 32.75 -6
      vertex 4.1289 35.0241 -6
    endloop
  endfacet
  facet normal 0 0 -1
    outer loop
      vertex 2 12.25 -6
      vertex 7 0 -6
      vertex 2 10.75 -6
    endloop
  endfacet
  facet normal 0 0 -1
    outer loop
      vertex 7 0 -6
      vertex -2 10.75 -6
      vertex 2 10.75 -6
    endloop
  endfacet
  facet normal 0 0 -1
    outer loop
      vertex -7 0 -6
      vertex -2 12.25 -6
      vertex -2 10.75 -6
    endloop
  endfacet
  facet normal -0 0 -1
    outer loop
      vertex -2 12.25 -6
      vertex -7 0 -6
      vertex -2 17.75 -6
    endloop
  endfacet
  facet normal 0 0 -1
    outer loop
      vertex -7 30.5 -6
      vertex -2 17.75 -6
      vertex -7 0 -6
    endloop
  endfacet
  facet normal 0 0 -1
    outer loop
      vertex -2 19.25 -6
      vertex -7 30.5 -6
      vertex -2 25.75 -6
    endloop
  endfacet
  facet normal 0 0 -1
    outer loop
      vertex -2 25.75 -6
      vertex -7 30.5 -6
      vertex -2 27.25 -6
    endloop
  endfacet
  facet normal 0 0 -1
    outer loop
      vertex -2 27.25 -6
      vertex -7 30.5 -6
      vertex -2 32.75 -6
    endloop
  endfacet
  facet normal 0 -0 -1
    outer loop
      vertex -6.96057 31.1267 -6
      vertex -2 32.75 -6
      vertex -7 30.5 -6
    endloop
  endfacet
  facet normal 0 -0 -1
    outer loop
      vertex -6.84292 31.7435 -6
      vertex -2 32.75 -6
      vertex -6.96057 31.1267 -6
    endloop
  endfacet
  facet normal 0 0 -1
    outer loop
      vertex -2 34.25 -6
      vertex -2.93691 35.4114 -6
      vertex -2.31395 35.4901 -6
    endloop
  endfacet
  facet normal 0 0 -1
    outer loop
      vertex -2 34.25 -6
      vertex -3.54508 35.2553 -6
      vertex -2.93691 35.4114 -6
    endloop
  endfacet
  facet normal 0 0 -1
    outer loop
      vertex -2 34.25 -6
      vertex -4.1289 35.0241 -6
      vertex -3.54508 35.2553 -6
    endloop
  endfacet
  facet normal 0 0 -1
    outer loop
      vertex -2 32.75 -6
      vertex -4.1289 35.0241 -6
      vertex -2 34.25 -6
    endloop
  endfacet
  facet normal 0 -0 -1
    outer loop
      vertex -4.1289 35.0241 -6
      vertex -2 32.75 -6
      vertex -4.67913 34.7216 -6
    endloop
  endfacet
  facet normal 0 -0 -1
    outer loop
      vertex -4.67913 34.7216 -6
      vertex -2 32.75 -6
      vertex -5.18712 34.3526 -6
    endloop
  endfacet
  facet normal 0 -0 -1
    outer loop
      vertex -5.18712 34.3526 -6
      vertex -2 32.75 -6
      vertex -5.64484 33.9227 -6
    endloop
  endfacet
  facet normal 0 -0 -1
    outer loop
      vertex -5.64484 33.9227 -6
      vertex -2 32.75 -6
      vertex -6.04508 33.4389 -6
    endloop
  endfacet
  facet normal 0 -0 -1
    outer loop
      vertex -6.04508 33.4389 -6
      vertex -2 32.75 -6
      vertex -6.38153 32.9088 -6
    endloop
  endfacet
  facet normal 0 -0 -1
    outer loop
      vertex -6.38153 32.9088 -6
      vertex -2 32.75 -6
      vertex -6.64888 32.3406 -6
    endloop
  endfacet
  facet normal 0 0 -1
    outer loop
      vertex -7 0 -6
      vertex -2 10.75 -6
      vertex 7 0 -6
    endloop
  endfacet
  facet normal 0 0 -1
    outer loop
      vertex -2 17.75 -6
      vertex -7 30.5 -6
      vertex -2 19.25 -6
    endloop
  endfacet
  facet normal 0 -0 -1
    outer loop
      vertex -6.64888 32.3406 -6
      vertex -2 32.75 -6
      vertex -6.84292 31.7435 -6
    endloop
  endfacet
  facet normal 0 0 -1
    outer loop
      vertex 2 17.75 -6
      vertex 7 0 -6
      vertex 2 12.25 -6
    endloop
  endfacet
  facet normal 0 0 -1
    outer loop
      vertex 6.96057 31.1267 -6
      vertex 2 32.75 -6
      vertex 6.84292 31.7435 -6
    endloop
  endfacet
  facet normal -0 0 -1
    outer loop
      vertex 5.64484 33.9227 -6
      vertex 2 32.75 -6
      vertex 5.18712 34.3526 -6
    endloop
  endfacet
  facet normal 0 0 -1
    outer loop
      vertex 2 34.25 -6
      vertex 4.1289 35.0241 -6
      vertex 2 32.75 -6
    endloop
  endfacet
  facet normal -0 0 -1
    outer loop
      vertex 4.1289 35.0241 -6
      vertex 2 34.25 -6
      vertex 3.54508 35.2553 -6
    endloop
  endfacet
  facet normal -0 0 -1
    outer loop
      vertex 3.54508 35.2553 -6
      vertex 2 34.25 -6
      vertex 2.93691 35.4114 -6
    endloop
  endfacet
  facet normal -0 0 -1
    outer loop
      vertex 2.93691 35.4114 -6
      vertex 2 34.25 -6
      vertex 2.31395 35.4901 -6
    endloop
  endfacet
  facet normal 0 0 -1
    outer loop
      vertex -2 34.25 -6
      vertex 2.31395 35.4901 -6
      vertex 2 34.25 -6
    endloop
  endfacet
  facet normal -0 0 -1
    outer loop
      vertex 2.31395 35.4901 -6
      vertex -2 34.25 -6
      vertex -2.31395 35.4901 -6
    endloop
  endfacet
  facet normal 0.368192 0.92975 -0
    outer loop
      vertex 4.1289 35.0241 -6
      vertex 3.54508 35.2553 6
      vertex 4.1289 35.0241 6
    endloop
  endfacet
  facet normal 0.368192 0.92975 0
    outer loop
      vertex 3.54508 35.2553 6
      vertex 4.1289 35.0241 -6
      vertex 3.54508 35.2553 -6
    endloop
  endfacet
  facet normal 0.8443 0.53587 -3.92134e-19
    outer loop
      vertex 6.38153 32.9088 6
      vertex 6.04508 33.4389 -6
      vertex 6.04508 33.4389 6
    endloop
  endfacet
  facet normal 0.8443 0.53587 -3.92134e-19
    outer loop
      vertex 6.04508 33.4389 -6
      vertex 6.38153 32.9088 6
      vertex 6.38153 32.9088 -6
    endloop
  endfacet
  facet normal 0.98229 0.187365 -7.77895e-19
    outer loop
      vertex 6.96057 31.1267 6
      vertex 6.84292 31.7435 -6
      vertex 6.84292 31.7435 6
    endloop
  endfacet
  facet normal 0.98229 0.187365 -7.77895e-19
    outer loop
      vertex 6.84292 31.7435 -6
      vertex 6.96057 31.1267 6
      vertex 6.96057 31.1267 -6
    endloop
  endfacet
  facet normal 0.998027 0.0627927 -5.30571e-20
    outer loop
      vertex 7 30.5 6
      vertex 6.96057 31.1267 -6
      vertex 6.96057 31.1267 6
    endloop
  endfacet
  facet normal 0.998027 0.0627927 -5.30571e-20
    outer loop
      vertex 6.96057 31.1267 -6
      vertex 7 30.5 6
      vertex 7 30.5 -6
    endloop
  endfacet
  facet normal -0.587706 0.809075 0
    outer loop
      vertex -4.67913 34.7216 -6
      vertex -5.18712 34.3526 6
      vertex -4.67913 34.7216 6
    endloop
  endfacet
  facet normal -0.587706 0.809075 0
    outer loop
      vertex -5.18712 34.3526 6
      vertex -4.67913 34.7216 -6
      vertex -5.18712 34.3526 -6
    endloop
  endfacet
  facet normal -0.481764 0.876301 0
    outer loop
      vertex -4.1289 35.0241 -6
      vertex -4.67913 34.7216 6
      vertex -4.1289 35.0241 6
    endloop
  endfacet
  facet normal -0.481764 0.876301 0
    outer loop
      vertex -4.67913 34.7216 6
      vertex -4.1289 35.0241 -6
      vertex -4.67913 34.7216 -6
    endloop
  endfacet
  facet normal 0.587706 0.809075 -0
    outer loop
      vertex 5.18712 34.3526 -6
      vertex 4.67913 34.7216 6
      vertex 5.18712 34.3526 6
    endloop
  endfacet
  facet normal 0.587706 0.809075 0
    outer loop
      vertex 4.67913 34.7216 6
      vertex 5.18712 34.3526 -6
      vertex 4.67913 34.7216 -6
    endloop
  endfacet
  facet normal 0.248613 0.968603 -0
    outer loop
      vertex 3.54508 35.2553 -6
      vertex 2.93691 35.4114 6
      vertex 3.54508 35.2553 6
    endloop
  endfacet
  facet normal 0.248613 0.968603 0
    outer loop
      vertex 2.93691 35.4114 6
      vertex 3.54508 35.2553 -6
      vertex 2.93691 35.4114 -6
    endloop
  endfacet
  facet normal 0.904842 0.425747 -4.19051e-19
    outer loop
      vertex 6.64888 32.3406 6
      vertex 6.38153 32.9088 -6
      vertex 6.38153 32.9088 6
    endloop
  endfacet
  facet normal 0.904842 0.425747 -4.19051e-19
    outer loop
      vertex 6.38153 32.9088 -6
      vertex 6.64888 32.3406 6
      vertex 6.64888 32.3406 -6
    endloop
  endfacet
  facet normal 0.684608 0.728911 -0
    outer loop
      vertex 5.64484 33.9227 -6
      vertex 5.18712 34.3526 6
      vertex 5.64484 33.9227 6
    endloop
  endfacet
  facet normal 0.684608 0.728911 0
    outer loop
      vertex 5.18712 34.3526 6
      vertex 5.64484 33.9227 -6
      vertex 5.18712 34.3526 -6
    endloop
  endfacet
  facet normal 0.770509 0.63743 1.16913e-18
    outer loop
      vertex 6.04508 33.4389 6
      vertex 5.64484 33.9227 -6
      vertex 5.64484 33.9227 6
    endloop
  endfacet
  facet normal 0.770509 0.63743 1.16913e-18
    outer loop
      vertex 5.64484 33.9227 -6
      vertex 6.04508 33.4389 6
      vertex 6.04508 33.4389 -6
    endloop
  endfacet
  facet normal 0 -1 0
    outer loop
      vertex -7 0 6
      vertex -2.95712 0 5.12189
      vertex 7 0 6
    endloop
  endfacet
  facet normal 0 -1 0
    outer loop
      vertex -7 0 6
      vertex -5.91425 0 0
      vertex -2.95712 0 5.12189
    endloop
  endfacet
  facet normal 0 -1 -0
    outer loop
      vertex -2.95712 0 -5.12189
      vertex -7 0 -6
      vertex 2.95712 0 -5.12189
    endloop
  endfacet
  facet normal 0 -1 -0
    outer loop
      vertex -5.91425 0 0
      vertex -7 0 -6
      vertex -2.95712 0 -5.12189
    endloop
  endfacet
  facet normal 0 -1 0
    outer loop
      vertex -7 0 -6
      vertex -5.91425 0 0
      vertex -7 0 6
    endloop
  endfacet
  facet normal 0 -1 0
    outer loop
      vertex 2.95712 0 5.12189
      vertex 7 0 6
      vertex -2.95712 0 5.12189
    endloop
  endfacet
  facet normal 0 -1 0
    outer loop
      vertex 5.91425 0 0
      vertex 7 0 6
      vertex 2.95712 0 5.12189
    endloop
  endfacet
  facet normal 0 -1 0
    outer loop
      vertex 5.91425 0 0
      vertex 7 0 -6
      vertex 7 0 6
    endloop
  endfacet
  facet normal 0 -1 0
    outer loop
      vertex 2.95712 0 -5.12189
      vertex 7 0 -6
      vertex 5.91425 0 0
    endloop
  endfacet
  facet normal 0 -1 0
    outer loop
      vertex 7 0 -6
      vertex 2.95712 0 -5.12189
      vertex -7 0 -6
    endloop
  endfacet
  facet normal 0 0 -1
    outer loop
      vertex -2.95712 0 5.12189
      vertex 2.95712 9 5.12189
      vertex 2.95712 0 5.12189
    endloop
  endfacet
  facet normal -0 0 -1
    outer loop
      vertex 2.95712 9 5.12189
      vertex -2.95712 0 5.12189
      vertex -2.95712 9 5.12189
    endloop
  endfacet
  facet normal 0.866025 0 -0.500001
    outer loop
      vertex -2.95712 0 5.12189
      vertex -5.91425 9 0
      vertex -2.95712 9 5.12189
    endloop
  endfacet
  facet normal 0.866025 0 -0.500001
    outer loop
      vertex -5.91425 9 0
      vertex -2.95712 0 5.12189
      vertex -5.91425 0 0
    endloop
  endfacet
  facet normal -0.866025 0 -0.500001
    outer loop
      vertex 5.91425 0 0
      vertex 2.95712 9 5.12189
      vertex 5.91425 9 0
    endloop
  endfacet
  facet normal -0.866025 -0 -0.500001
    outer loop
      vertex 2.95712 9 5.12189
      vertex 5.91425 0 0
      vertex 2.95712 0 5.12189
    endloop
  endfacet
  facet normal -0 0 1
    outer loop
      vertex -2.95712 9 -5.12189
      vertex 2.95712 0 -5.12189
      vertex 2.95712 9 -5.12189
    endloop
  endfacet
  facet normal 0 0 1
    outer loop
      vertex 2.95712 0 -5.12189
      vertex -2.95712 9 -5.12189
      vertex -2.95712 0 -5.12189
    endloop
  endfacet
  facet normal 0 -1 0
    outer loop
      vertex -5.91425 9 0
      vertex 2.95712 9 5.12189
      vertex -2.95712 9 5.12189
    endloop
  endfacet
  facet normal 0 -1 0
    outer loop
      vertex -5.91425 9 0
      vertex 5.91425 9 0
      vertex 2.95712 9 5.12189
    endloop
  endfacet
  facet normal 0 -1 0
    outer loop
      vertex -2.95712 9 -5.12189
      vertex 5.91425 9 0
      vertex -5.91425 9 0
    endloop
  endfacet
  facet normal 0 -1 0
    outer loop
      vertex 5.91425 9 0
      vertex -2.95712 9 -5.12189
      vertex 2.95712 9 -5.12189
    endloop
  endfacet
  facet normal -0.866025 0 0.500001
    outer loop
      vertex 2.95712 0 -5.12189
      vertex 5.91425 9 0
      vertex 2.95712 9 -5.12189
    endloop
  endfacet
  facet normal -0.866025 0 0.500001
    outer loop
      vertex 5.91425 9 0
      vertex 2.95712 0 -5.12189
      vertex 5.91425 0 0
    endloop
  endfacet
  facet normal 0.866025 -0 0.500001
    outer loop
      vertex -5.91425 0 0
      vertex -2.95712 9 -5.12189
      vertex -5.91425 9 0
    endloop
  endfacet
  facet normal 0.866025 0 0.500001
    outer loop
      vertex -2.95712 9 -5.12189
      vertex -5.91425 0 0
      vertex -2.95712 0 -5.12189
    endloop
  endfacet
  facet normal 1 -0 0
    outer loop
      vertex -2 10.75 6
      vertex -2 12.25 -6
      vertex -2 12.25 6
    endloop
  endfacet
  facet normal 1 0 0
    outer loop
      vertex -2 12.25 -6
      vertex -2 10.75 6
      vertex -2 10.75 -6
    endloop
  endfacet
  facet normal -1 0 0
    outer loop
      vertex 2 10.75 -6
      vertex 2 12.25 6
      vertex 2 12.25 -6
    endloop
  endfacet
  facet normal -1 -0 0
    outer loop
      vertex 2 12.25 6
      vertex 2 10.75 -6
      vertex 2 10.75 6
    endloop
  endfacet
  facet normal 0 -1 0
    outer loop
      vertex -2 12.25 -6
      vertex 2 12.25 6
      vertex -2 12.25 6
    endloop
  endfacet
  facet normal 0 -1 -0
    outer loop
      vertex 2 12.25 6
      vertex -2 12.25 -6
      vertex 2 12.25 -6
    endloop
  endfacet
  facet normal 0 1 -0
    outer loop
      vertex 2 10.75 -6
      vertex -2 10.75 6
      vertex 2 10.75 6
    endloop
  endfacet
  facet normal 0 1 0
    outer loop
      vertex -2 10.75 6
      vertex 2 10.75 -6
      vertex -2 10.75 -6
    endloop
  endfacet
  facet normal 1 -0 0
    outer loop
      vertex -2 17.75 6
      vertex -2 19.25 -6
      vertex -2 19.25 6
    endloop
  endfacet
  facet normal 1 0 0
    outer loop
      vertex -2 19.25 -6
      vertex -2 17.75 6
      vertex -2 17.75 -6
    endloop
  endfacet
  facet normal -1 0 0
    outer loop
      vertex 2 17.75 -6
      vertex 2 19.25 6
      vertex 2 19.25 -6
    endloop
  endfacet
  facet normal -1 -0 0
    outer loop
      vertex 2 19.25 6
      vertex 2 17.75 -6
      vertex 2 17.75 6
    endloop
  endfacet
  facet normal 0 -1 0
    outer loop
      vertex -2 19.25 -6
      vertex 2 19.25 6
      vertex -2 19.25 6
    endloop
  endfacet
  facet normal 0 -1 -0
    outer loop
      vertex 2 19.25 6
      vertex -2 19.25 -6
      vertex 2 19.25 -6
    endloop
  endfacet
  facet normal 0 1 -0
    outer loop
      vertex 2 17.75 -6
      vertex -2 17.75 6
      vertex 2 17.75 6
    endloop
  endfacet
  facet normal 0 1 0
    outer loop
      vertex -2 17.75 6
      vertex 2 17.75 -6
      vertex -2 17.75 -6
    endloop
  endfacet
  facet normal 1 -0 0
    outer loop
      vertex -2 25.75 6
      vertex -2 27.25 -6
      vertex -2 27.25 6
    endloop
  endfacet
  facet normal 1 0 0
    outer loop
      vertex -2 27.25 -6
      vertex -2 25.75 6
      vertex -2 25.75 -6
    endloop
  endfacet
  facet normal -1 0 0
    outer loop
      vertex 2 25.75 -6
      vertex 2 27.25 6
      vertex 2 27.25 -6
    endloop
  endfacet
  facet normal -1 -0 0
    outer loop
      vertex 2 27.25 6
      vertex 2 25.75 -6
      vertex 2 25.75 6
    endloop
  endfacet
  facet normal 0 -1 0
    outer loop
      vertex -2 27.25 -6
      vertex 2 27.25 6
      vertex -2 27.25 6
    endloop
  endfacet
  facet normal 0 -1 -0
    outer loop
      vertex 2 27.25 6
      vertex -2 27.25 -6
      vertex 2 27.25 -6
    endloop
  endfacet
  facet normal 0 1 -0
    outer loop
      vertex 2 25.75 -6
      vertex -2 25.75 6
      vertex 2 25.75 6
    endloop
  endfacet
  facet normal 0 1 0
    outer loop
      vertex -2 25.75 6
      vertex 2 25.75 -6
      vertex -2 25.75 -6
    endloop
  endfacet
  facet normal 1 -0 0
    outer loop
      vertex -2 32.75 6
      vertex -2 34.25 -6
      vertex -2 34.25 6
    endloop
  endfacet
  facet normal 1 0 0
    outer loop
      vertex -2 34.25 -6
      vertex -2 32.75 6
      vertex -2 32.75 -6
    endloop
  endfacet
  facet normal -1 0 0
    outer loop
      vertex 2 32.75 -6
      vertex 2 34.25 6
      vertex 2 34.25 -6
    endloop
  endfacet
  facet normal -1 -0 0
    outer loop
      vertex 2 34.25 6
      vertex 2 32.75 -6
      vertex 2 32.75 6
    endloop
  endfacet
  facet normal 0 -1 0
    outer loop
      vertex -2 34.25 -6
      vertex 2 34.25 6
      vertex -2 34.25 6
    endloop
  endfacet
  facet normal 0 -1 -0
    outer loop
      vertex 2 34.25 6
      vertex -2 34.25 -6
      vertex 2 34.25 -6
    endloop
  endfacet
  facet normal 0 1 -0
    outer loop
      vertex 2 32.75 -6
      vertex -2 32.75 6
      vertex 2 32.75 6
    endloop
  endfacet
  facet normal 0 1 0
    outer loop
      vertex -2 32.75 6
      vertex 2 32.75 -6
      vertex -2 32.75 -6
    endloop
  endfacet
endsolid OpenSCAD_Model
