solid OpenSCAD_Model
  facet normal 0.844326 0.535829 8.70543e-18
    outer loop
      vertex 6.13415 3.37228 1.5
      vertex 5.66312 4.1145 -1.5
      vertex 5.66312 4.1145 1.5
    endloop
  endfacet
  facet normal 0.844326 0.535829 8.70543e-18
    outer loop
      vertex 5.66312 4.1145 -1.5
      vertex 6.13415 3.37228 1.5
      vertex 6.13415 3.37228 -1.5
    endloop
  endfacet
  facet normal 0.368131 0.929774 -0
    outer loop
      vertex 2.98045 6.33379 -1.5
      vertex 2.16312 6.6574 1.5
      vertex 2.98045 6.33379 1.5
    endloop
  endfacet
  facet normal 0.368131 0.929774 0
    outer loop
      vertex 2.16312 6.6574 1.5
      vertex 2.98045 6.33379 -1.5
      vertex 2.16312 6.6574 -1.5
    endloop
  endfacet
  facet normal -0.368131 0.929774 0
    outer loop
      vertex -2.16312 6.6574 -1.5
      vertex -2.98045 6.33379 1.5
      vertex -2.16312 6.6574 1.5
    endloop
  endfacet
  facet normal -0.368131 0.929774 0
    outer loop
      vertex -2.98045 6.33379 1.5
      vertex -2.16312 6.6574 -1.5
      vertex -2.98045 6.33379 -1.5
    endloop
  endfacet
  facet normal -0.904828 0.425778 -2.78531e-18
    outer loop
      vertex -6.50844 2.57687 -1.5
      vertex -6.13415 3.37228 1.5
      vertex -6.13415 3.37228 -1.5
    endloop
  endfacet
  facet normal -0.904828 0.425778 -2.78531e-18
    outer loop
      vertex -6.13415 3.37228 1.5
      vertex -6.50844 2.57687 -1.5
      vertex -6.50844 2.57687 1.5
    endloop
  endfacet
  facet normal 0.998027 -0.0627939 2.47956e-19
    outer loop
      vertex 6.9448 -0.877332 1.5
      vertex 7 0 -1.5
      vertex 7 0 1.5
    endloop
  endfacet
  facet normal 0.998027 -0.0627939 2.47956e-19
    outer loop
      vertex 7 0 -1.5
      vertex 6.9448 -0.877332 1.5
      vertex 6.9448 -0.877332 -1.5
    endloop
  endfacet
  facet normal 0.982287 0.18738 -4.17798e-18
    outer loop
      vertex 6.9448 0.877332 1.5
      vertex 6.78008 1.74083 -1.5
      vertex 6.78008 1.74083 1.5
    endloop
  endfacet
  facet normal 0.982287 0.18738 -4.17798e-18
    outer loop
      vertex 6.78008 1.74083 -1.5
      vertex 6.9448 0.877332 1.5
      vertex 6.9448 0.877332 -1.5
    endloop
  endfacet
  facet normal 0.684547 0.728969 -0
    outer loop
      vertex 5.10278 4.79183 -1.5
      vertex 4.46197 5.39359 1.5
      vertex 5.10278 4.79183 1.5
    endloop
  endfacet
  facet normal 0.684547 0.728969 0
    outer loop
      vertex 4.46197 5.39359 1.5
      vertex 5.10278 4.79183 -1.5
      vertex 4.46197 5.39359 -1.5
    endloop
  endfacet
  facet normal 0 1 -0
    outer loop
      vertex 0.439533 6.98619 -1.5
      vertex -0.439533 6.98619 1.5
      vertex 0.439533 6.98619 1.5
    endloop
  endfacet
  facet normal 0 1 0
    outer loop
      vertex -0.439533 6.98619 1.5
      vertex 0.439533 6.98619 -1.5
      vertex -0.439533 6.98619 -1.5
    endloop
  endfacet
  facet normal 0.481755 0.876306 -0
    outer loop
      vertex 3.75079 5.91029 -1.5
      vertex 2.98045 6.33379 1.5
      vertex 3.75079 5.91029 1.5
    endloop
  endfacet
  facet normal 0.481755 0.876306 0
    outer loop
      vertex 2.98045 6.33379 1.5
      vertex 3.75079 5.91029 -1.5
      vertex 2.98045 6.33379 -1.5
    endloop
  endfacet
  facet normal -0.982287 0.18738 4.17798e-18
    outer loop
      vertex -6.9448 0.877332 -1.5
      vertex -6.78008 1.74083 1.5
      vertex -6.78008 1.74083 -1.5
    endloop
  endfacet
  facet normal -0.982287 0.18738 4.17798e-18
    outer loop
      vertex -6.78008 1.74083 1.5
      vertex -6.9448 0.877332 -1.5
      vertex -6.9448 0.877332 1.5
    endloop
  endfacet
  facet normal -0.770511 0.637427 -9.78463e-18
    outer loop
      vertex -5.66312 4.1145 -1.5
      vertex -5.10278 4.79183 1.5
      vertex -5.10278 4.79183 -1.5
    endloop
  endfacet
  facet normal -0.770511 0.637427 -9.78463e-18
    outer loop
      vertex -5.10278 4.79183 1.5
      vertex -5.66312 4.1145 -1.5
      vertex -5.66312 4.1145 1.5
    endloop
  endfacet
  facet normal -0.248684 0.968585 0
    outer loop
      vertex -1.31167 6.87601 -1.5
      vertex -2.16312 6.6574 1.5
      vertex -1.31167 6.87601 1.5
    endloop
  endfacet
  facet normal -0.248684 0.968585 0
    outer loop
      vertex -2.16312 6.6574 1.5
      vertex -1.31167 6.87601 -1.5
      vertex -2.16312 6.6574 -1.5
    endloop
  endfacet
  facet normal -0.684547 0.728969 0
    outer loop
      vertex -4.46197 5.39359 -1.5
      vertex -5.10278 4.79183 1.5
      vertex -4.46197 5.39359 1.5
    endloop
  endfacet
  facet normal -0.684547 0.728969 0
    outer loop
      vertex -5.10278 4.79183 1.5
      vertex -4.46197 5.39359 -1.5
      vertex -5.10278 4.79183 -1.5
    endloop
  endfacet
  facet normal 0.904828 -0.425778 -2.78531e-18
    outer loop
      vertex 6.13415 -3.37228 1.5
      vertex 6.50844 -2.57687 -1.5
      vertex 6.50844 -2.57687 1.5
    endloop
  endfacet
  facet normal 0.904828 -0.425778 -2.78531e-18
    outer loop
      vertex 6.50844 -2.57687 -1.5
      vertex 6.13415 -3.37228 1.5
      vertex 6.13415 -3.37228 -1.5
    endloop
  endfacet
  facet normal -0.684547 -0.728969 0
    outer loop
      vertex -5.10278 -4.79183 -1.5
      vertex -4.46197 -5.39359 1.5
      vertex -5.10278 -4.79183 1.5
    endloop
  endfacet
  facet normal -0.684547 -0.728969 -0
    outer loop
      vertex -4.46197 -5.39359 1.5
      vertex -5.10278 -4.79183 -1.5
      vertex -4.46197 -5.39359 -1.5
    endloop
  endfacet
  facet normal -0.904828 -0.425778 2.78531e-18
    outer loop
      vertex -6.13415 -3.37228 -1.5
      vertex -6.50844 -2.57687 1.5
      vertex -6.50844 -2.57687 -1.5
    endloop
  endfacet
  facet normal -0.904828 -0.425778 2.78531e-18
    outer loop
      vertex -6.50844 -2.57687 1.5
      vertex -6.13415 -3.37228 -1.5
      vertex -6.13415 -3.37228 1.5
    endloop
  endfacet
  facet normal 0.481755 -0.876306 0
    outer loop
      vertex 2.98045 -6.33379 -1.5
      vertex 3.75079 -5.91029 1.5
      vertex 2.98045 -6.33379 1.5
    endloop
  endfacet
  facet normal 0.481755 -0.876306 0
    outer loop
      vertex 3.75079 -5.91029 1.5
      vertex 2.98045 -6.33379 -1.5
      vertex 3.75079 -5.91029 -1.5
    endloop
  endfacet
  facet normal 0.770511 0.637427 9.78463e-18
    outer loop
      vertex 5.66312 4.1145 1.5
      vertex 5.10278 4.79183 -1.5
      vertex 5.10278 4.79183 1.5
    endloop
  endfacet
  facet normal 0.770511 0.637427 9.78463e-18
    outer loop
      vertex 5.10278 4.79183 -1.5
      vertex 5.66312 4.1145 1.5
      vertex 5.66312 4.1145 -1.5
    endloop
  endfacet
  facet normal 0.248684 0.968585 -0
    outer loop
      vertex 2.16312 6.6574 -1.5
      vertex 1.31167 6.87601 1.5
      vertex 2.16312 6.6574 1.5
    endloop
  endfacet
  facet normal 0.248684 0.968585 0
    outer loop
      vertex 1.31167 6.87601 1.5
      vertex 2.16312 6.6574 -1.5
      vertex 1.31167 6.87601 -1.5
    endloop
  endfacet
  facet normal 0.125337 0.992114 -0
    outer loop
      vertex 1.31167 6.87601 -1.5
      vertex 0.439533 6.98619 1.5
      vertex 1.31167 6.87601 1.5
    endloop
  endfacet
  facet normal 0.125337 0.992114 0
    outer loop
      vertex 0.439533 6.98619 1.5
      vertex 1.31167 6.87601 -1.5
      vertex 0.439533 6.98619 -1.5
    endloop
  endfacet
  facet normal 0.587783 0.809018 -0
    outer loop
      vertex 4.46197 5.39359 -1.5
      vertex 3.75079 5.91029 1.5
      vertex 4.46197 5.39359 1.5
    endloop
  endfacet
  facet normal 0.587783 0.809018 0
    outer loop
      vertex 3.75079 5.91029 1.5
      vertex 4.46197 5.39359 -1.5
      vertex 3.75079 5.91029 -1.5
    endloop
  endfacet
  facet normal -0.998027 0.0627939 2.47956e-19
    outer loop
      vertex -7 0 -1.5
      vertex -6.9448 0.877332 1.5
      vertex -6.9448 0.877332 -1.5
    endloop
  endfacet
  facet normal -0.998027 0.0627939 2.47956e-19
    outer loop
      vertex -6.9448 0.877332 1.5
      vertex -7 0 -1.5
      vertex -7 0 1.5
    endloop
  endfacet
  facet normal 0 0 1
    outer loop
      vertex -6.78008 -1.74083 1.5
      vertex -1.75 -0.413301 1.5
      vertex -1.78581 -0.225599 1.5
    endloop
  endfacet
  facet normal 0 0 1
    outer loop
      vertex 1.8 0 1.5
      vertex 7 0 1.5
      vertex 6.9448 0.877332 1.5
    endloop
  endfacet
  facet normal 0 0 1
    outer loop
      vertex 1.78581 0.225599 1.5
      vertex 6.9448 0.877332 1.5
      vertex 6.78008 1.74083 1.5
    endloop
  endfacet
  facet normal 0 0 1
    outer loop
      vertex 7 0 1.5
      vertex 1.8 0 1.5
      vertex 6.9448 -0.877332 1.5
    endloop
  endfacet
  facet normal -0 0 1
    outer loop
      vertex 1.75 1.75 1.5
      vertex 6.78008 1.74083 1.5
      vertex 6.50844 2.57687 1.5
    endloop
  endfacet
  facet normal -0 0 1
    outer loop
      vertex 1.78581 -0.225599 1.5
      vertex 6.9448 -0.877332 1.5
      vertex 1.8 0 1.5
    endloop
  endfacet
  facet normal 0 0 1
    outer loop
      vertex 1.75 1.75 1.5
      vertex 6.50844 2.57687 1.5
      vertex 6.13415 3.37228 1.5
    endloop
  endfacet
  facet normal 0 0 1
    outer loop
      vertex 6.9448 -0.877332 1.5
      vertex 1.78581 -0.225599 1.5
      vertex 6.78008 -1.74083 1.5
    endloop
  endfacet
  facet normal 0 0 1
    outer loop
      vertex 1.75 1.75 1.5
      vertex 6.13415 3.37228 1.5
      vertex 5.66312 4.1145 1.5
    endloop
  endfacet
  facet normal -0 0 1
    outer loop
      vertex 1.75 -0.413301 1.5
      vertex 6.78008 -1.74083 1.5
      vertex 1.78581 -0.225599 1.5
    endloop
  endfacet
  facet normal 0 0 1
    outer loop
      vertex 1.75 1.75 1.5
      vertex 5.66312 4.1145 1.5
      vertex 5.10278 4.79183 1.5
    endloop
  endfacet
  facet normal 0 0 1
    outer loop
      vertex 1.75 -1.75 1.5
      vertex 6.78008 -1.74083 1.5
      vertex 1.75 -0.413301 1.5
    endloop
  endfacet
  facet normal 0 0 1
    outer loop
      vertex 1.75 1.75 1.5
      vertex 5.10278 4.79183 1.5
      vertex 4.46197 5.39359 1.5
    endloop
  endfacet
  facet normal 0 0 1
    outer loop
      vertex 6.78008 -1.74083 1.5
      vertex 1.75 -1.75 1.5
      vertex 6.50844 -2.57687 1.5
    endloop
  endfacet
  facet normal 0 0 1
    outer loop
      vertex 1.75 1.75 1.5
      vertex 4.46197 5.39359 1.5
      vertex 3.75079 5.91029 1.5
    endloop
  endfacet
  facet normal 0 0 1
    outer loop
      vertex 6.50844 -2.57687 1.5
      vertex 1.75 -1.75 1.5
      vertex 6.13415 -3.37228 1.5
    endloop
  endfacet
  facet normal 0 0 1
    outer loop
      vertex 1.75 1.75 1.5
      vertex 3.75079 5.91029 1.5
      vertex 2.98045 6.33379 1.5
    endloop
  endfacet
  facet normal 0 0 1
    outer loop
      vertex 6.13415 -3.37228 1.5
      vertex 1.75 -1.75 1.5
      vertex 5.66312 -4.1145 1.5
    endloop
  endfacet
  facet normal 0 0 1
    outer loop
      vertex 1.75 1.75 1.5
      vertex 2.98045 6.33379 1.5
      vertex 2.16312 6.6574 1.5
    endloop
  endfacet
  facet normal 0 0 1
    outer loop
      vertex 5.10278 -4.79183 1.5
      vertex 1.75 -1.75 1.5
      vertex 4.46197 -5.39359 1.5
    endloop
  endfacet
  facet normal 0 0 1
    outer loop
      vertex 4.46197 -5.39359 1.5
      vertex 1.75 -1.75 1.5
      vertex 3.75079 -5.91029 1.5
    endloop
  endfacet
  facet normal 0 0 1
    outer loop
      vertex 6.9448 0.877332 1.5
      vertex 1.78581 0.225599 1.5
      vertex 1.8 0 1.5
    endloop
  endfacet
  facet normal 0 0 1
    outer loop
      vertex 6.78008 1.74083 1.5
      vertex 1.75 1.75 1.5
      vertex 1.75 0.413301 1.5
    endloop
  endfacet
  facet normal 0 0 1
    outer loop
      vertex 1.31167 6.87601 1.5
      vertex 1.75 1.75 1.5
      vertex 2.16312 6.6574 1.5
    endloop
  endfacet
  facet normal 0 0 1
    outer loop
      vertex 0.337286 1.76812 1.5
      vertex 1.31167 6.87601 1.5
      vertex 0.439533 6.98619 1.5
    endloop
  endfacet
  facet normal 0 0 1
    outer loop
      vertex 1.31167 6.87601 1.5
      vertex 0.407847 1.75 1.5
      vertex 1.75 1.75 1.5
    endloop
  endfacet
  facet normal 0 0 1
    outer loop
      vertex 1.31167 6.87601 1.5
      vertex 0.337286 1.76812 1.5
      vertex 0.407847 1.75 1.5
    endloop
  endfacet
  facet normal 0 0 1
    outer loop
      vertex 0.439533 6.98619 1.5
      vertex 0.113023 1.79645 1.5
      vertex 0.337286 1.76812 1.5
    endloop
  endfacet
  facet normal 0 0 1
    outer loop
      vertex 0.439533 6.98619 1.5
      vertex -0.113023 1.79645 1.5
      vertex 0.113023 1.79645 1.5
    endloop
  endfacet
  facet normal -0 0 1
    outer loop
      vertex -0.439533 6.98619 1.5
      vertex -0.113023 1.79645 1.5
      vertex 0.439533 6.98619 1.5
    endloop
  endfacet
  facet normal 0 0 1
    outer loop
      vertex -0.113023 1.79645 1.5
      vertex -0.439533 6.98619 1.5
      vertex -0.337286 1.76812 1.5
    endloop
  endfacet
  facet normal -0 0 1
    outer loop
      vertex -1.31167 6.87601 1.5
      vertex -0.337286 1.76812 1.5
      vertex -0.439533 6.98619 1.5
    endloop
  endfacet
  facet normal 0 0 1
    outer loop
      vertex -0.337286 1.76812 1.5
      vertex -1.31167 6.87601 1.5
      vertex -0.407847 1.75 1.5
    endloop
  endfacet
  facet normal 0 0 1
    outer loop
      vertex -1.31167 6.87601 1.5
      vertex -1.75 1.75 1.5
      vertex -0.407847 1.75 1.5
    endloop
  endfacet
  facet normal -0 0 1
    outer loop
      vertex -6.78008 1.74083 1.5
      vertex -1.75 0.413301 1.5
      vertex -1.75 1.75 1.5
    endloop
  endfacet
  facet normal 0 0 1
    outer loop
      vertex -1.75 0.413301 1.5
      vertex -6.78008 1.74083 1.5
      vertex -1.78581 0.225599 1.5
    endloop
  endfacet
  facet normal -0 0 1
    outer loop
      vertex -2.98045 6.33379 1.5
      vertex -1.75 1.75 1.5
      vertex -2.16312 6.6574 1.5
    endloop
  endfacet
  facet normal -0 0 1
    outer loop
      vertex -2.16312 6.6574 1.5
      vertex -1.75 1.75 1.5
      vertex -1.31167 6.87601 1.5
    endloop
  endfacet
  facet normal 0 0 1
    outer loop
      vertex 3.75079 -5.91029 1.5
      vertex 1.75 -1.75 1.5
      vertex 2.98045 -6.33379 1.5
    endloop
  endfacet
  facet normal 0 0 1
    outer loop
      vertex 5.66312 -4.1145 1.5
      vertex 1.75 -1.75 1.5
      vertex 5.10278 -4.79183 1.5
    endloop
  endfacet
  facet normal 0 0 1
    outer loop
      vertex 2.98045 -6.33379 1.5
      vertex 1.75 -1.75 1.5
      vertex 2.16312 -6.6574 1.5
    endloop
  endfacet
  facet normal 0 0 1
    outer loop
      vertex 1.75 -1.75 1.5
      vertex 1.31167 -6.87601 1.5
      vertex 2.16312 -6.6574 1.5
    endloop
  endfacet
  facet normal -0 0 1
    outer loop
      vertex 0.407847 -1.75 1.5
      vertex 1.31167 -6.87601 1.5
      vertex 1.75 -1.75 1.5
    endloop
  endfacet
  facet normal -0 0 1
    outer loop
      vertex 0.337286 -1.76812 1.5
      vertex 1.31167 -6.87601 1.5
      vertex 0.407847 -1.75 1.5
    endloop
  endfacet
  facet normal 0 0 1
    outer loop
      vertex 1.31167 -6.87601 1.5
      vertex 0.337286 -1.76812 1.5
      vertex 0.439533 -6.98619 1.5
    endloop
  endfacet
  facet normal -0 0 1
    outer loop
      vertex 0.113023 -1.79645 1.5
      vertex 0.439533 -6.98619 1.5
      vertex 0.337286 -1.76812 1.5
    endloop
  endfacet
  facet normal -0 0 1
    outer loop
      vertex -0.113023 -1.79645 1.5
      vertex 0.439533 -6.98619 1.5
      vertex 0.113023 -1.79645 1.5
    endloop
  endfacet
  facet normal 0 0 1
    outer loop
      vertex -0.439533 -6.98619 1.5
      vertex -0.113023 -1.79645 1.5
      vertex -0.337286 -1.76812 1.5
    endloop
  endfacet
  facet normal 0 0 1
    outer loop
      vertex -1.31167 -6.87601 1.5
      vertex -0.337286 -1.76812 1.5
      vertex -0.407847 -1.75 1.5
    endloop
  endfacet
  facet normal 0 0 1
    outer loop
      vertex -0.113023 -1.79645 1.5
      vertex -0.439533 -6.98619 1.5
      vertex 0.439533 -6.98619 1.5
    endloop
  endfacet
  facet normal 0 0 1
    outer loop
      vertex -0.337286 -1.76812 1.5
      vertex -1.31167 -6.87601 1.5
      vertex -0.439533 -6.98619 1.5
    endloop
  endfacet
  facet normal -0 0 1
    outer loop
      vertex -1.75 -1.75 1.5
      vertex -1.31167 -6.87601 1.5
      vertex -0.407847 -1.75 1.5
    endloop
  endfacet
  facet normal 0 0 1
    outer loop
      vertex -6.9448 -0.877332 1.5
      vertex -1.78581 -0.225599 1.5
      vertex -1.8 0 1.5
    endloop
  endfacet
  facet normal -0 0 1
    outer loop
      vertex -3.75079 5.91029 1.5
      vertex -1.75 1.75 1.5
      vertex -2.98045 6.33379 1.5
    endloop
  endfacet
  facet normal 0 0 1
    outer loop
      vertex -1.75 -1.75 1.5
      vertex -2.16312 -6.6574 1.5
      vertex -1.31167 -6.87601 1.5
    endloop
  endfacet
  facet normal -0 0 1
    outer loop
      vertex -4.46197 5.39359 1.5
      vertex -1.75 1.75 1.5
      vertex -3.75079 5.91029 1.5
    endloop
  endfacet
  facet normal -0 0 1
    outer loop
      vertex -5.10278 4.79183 1.5
      vertex -1.75 1.75 1.5
      vertex -4.46197 5.39359 1.5
    endloop
  endfacet
  facet normal 0 0 1
    outer loop
      vertex -1.75 -1.75 1.5
      vertex -2.98045 -6.33379 1.5
      vertex -2.16312 -6.6574 1.5
    endloop
  endfacet
  facet normal -0 0 1
    outer loop
      vertex -5.66312 4.1145 1.5
      vertex -1.75 1.75 1.5
      vertex -5.10278 4.79183 1.5
    endloop
  endfacet
  facet normal 0 0 1
    outer loop
      vertex -1.75 -1.75 1.5
      vertex -3.75079 -5.91029 1.5
      vertex -2.98045 -6.33379 1.5
    endloop
  endfacet
  facet normal -0 0 1
    outer loop
      vertex -6.13415 3.37228 1.5
      vertex -1.75 1.75 1.5
      vertex -5.66312 4.1145 1.5
    endloop
  endfacet
  facet normal 0 0 1
    outer loop
      vertex -1.75 -1.75 1.5
      vertex -4.46197 -5.39359 1.5
      vertex -3.75079 -5.91029 1.5
    endloop
  endfacet
  facet normal -0 0 1
    outer loop
      vertex -6.50844 2.57687 1.5
      vertex -1.75 1.75 1.5
      vertex -6.13415 3.37228 1.5
    endloop
  endfacet
  facet normal 0 0 1
    outer loop
      vertex -1.75 -1.75 1.5
      vertex -5.10278 -4.79183 1.5
      vertex -4.46197 -5.39359 1.5
    endloop
  endfacet
  facet normal 0 0 1
    outer loop
      vertex -6.78008 1.74083 1.5
      vertex -1.75 1.75 1.5
      vertex -6.50844 2.57687 1.5
    endloop
  endfacet
  facet normal 0 0 1
    outer loop
      vertex -1.75 -1.75 1.5
      vertex -5.66312 -4.1145 1.5
      vertex -5.10278 -4.79183 1.5
    endloop
  endfacet
  facet normal -0 0 1
    outer loop
      vertex -6.9448 0.877332 1.5
      vertex -1.78581 0.225599 1.5
      vertex -6.78008 1.74083 1.5
    endloop
  endfacet
  facet normal 0 0 1
    outer loop
      vertex -1.75 -1.75 1.5
      vertex -6.13415 -3.37228 1.5
      vertex -5.66312 -4.1145 1.5
    endloop
  endfacet
  facet normal 0 0 1
    outer loop
      vertex -1.78581 0.225599 1.5
      vertex -6.9448 0.877332 1.5
      vertex -1.8 0 1.5
    endloop
  endfacet
  facet normal 0 0 1
    outer loop
      vertex -1.75 -1.75 1.5
      vertex -6.50844 -2.57687 1.5
      vertex -6.13415 -3.37228 1.5
    endloop
  endfacet
  facet normal 0 0 1
    outer loop
      vertex -7 0 1.5
      vertex -1.8 0 1.5
      vertex -6.9448 0.877332 1.5
    endloop
  endfacet
  facet normal 0 0 1
    outer loop
      vertex -1.75 -1.75 1.5
      vertex -6.78008 -1.74083 1.5
      vertex -6.50844 -2.57687 1.5
    endloop
  endfacet
  facet normal 0 -0 1
    outer loop
      vertex -6.9448 -0.877332 1.5
      vertex -1.8 0 1.5
      vertex -7 0 1.5
    endloop
  endfacet
  facet normal 0 0 1
    outer loop
      vertex -1.75 -0.413301 1.5
      vertex -6.78008 -1.74083 1.5
      vertex -1.75 -1.75 1.5
    endloop
  endfacet
  facet normal 0 0 1
    outer loop
      vertex -1.78581 -0.225599 1.5
      vertex -6.9448 -0.877332 1.5
      vertex -6.78008 -1.74083 1.5
    endloop
  endfacet
  facet normal 0 0 1
    outer loop
      vertex 6.78008 1.74083 1.5
      vertex 1.75 0.413301 1.5
      vertex 1.78581 0.225599 1.5
    endloop
  endfacet
  facet normal -0.951058 0.309011 -1.89629e-18
    outer loop
      vertex -6.78008 1.74083 -1.5
      vertex -6.50844 2.57687 1.5
      vertex -6.50844 2.57687 -1.5
    endloop
  endfacet
  facet normal -0.951058 0.309011 -1.89629e-18
    outer loop
      vertex -6.50844 2.57687 1.5
      vertex -6.78008 1.74083 -1.5
      vertex -6.78008 1.74083 1.5
    endloop
  endfacet
  facet normal -0.844326 0.535829 -8.70543e-18
    outer loop
      vertex -6.13415 3.37228 -1.5
      vertex -5.66312 4.1145 1.5
      vertex -5.66312 4.1145 -1.5
    endloop
  endfacet
  facet normal -0.844326 0.535829 -8.70543e-18
    outer loop
      vertex -5.66312 4.1145 1.5
      vertex -6.13415 3.37228 -1.5
      vertex -6.13415 3.37228 1.5
    endloop
  endfacet
  facet normal -0.125337 0.992114 0
    outer loop
      vertex -0.439533 6.98619 -1.5
      vertex -1.31167 6.87601 1.5
      vertex -0.439533 6.98619 1.5
    endloop
  endfacet
  facet normal -0.125337 0.992114 0
    outer loop
      vertex -1.31167 6.87601 1.5
      vertex -0.439533 6.98619 -1.5
      vertex -1.31167 6.87601 -1.5
    endloop
  endfacet
  facet normal -0.587783 0.809018 0
    outer loop
      vertex -3.75079 5.91029 -1.5
      vertex -4.46197 5.39359 1.5
      vertex -3.75079 5.91029 1.5
    endloop
  endfacet
  facet normal -0.587783 0.809018 0
    outer loop
      vertex -4.46197 5.39359 1.5
      vertex -3.75079 5.91029 -1.5
      vertex -4.46197 5.39359 -1.5
    endloop
  endfacet
  facet normal -0.481755 0.876306 0
    outer loop
      vertex -2.98045 6.33379 -1.5
      vertex -3.75079 5.91029 1.5
      vertex -2.98045 6.33379 1.5
    endloop
  endfacet
  facet normal -0.481755 0.876306 0
    outer loop
      vertex -3.75079 5.91029 1.5
      vertex -2.98045 6.33379 -1.5
      vertex -3.75079 5.91029 -1.5
    endloop
  endfacet
  facet normal 0.998027 0.0627939 -2.47956e-19
    outer loop
      vertex 7 0 1.5
      vertex 6.9448 0.877332 -1.5
      vertex 6.9448 0.877332 1.5
    endloop
  endfacet
  facet normal 0.998027 0.0627939 -2.47956e-19
    outer loop
      vertex 6.9448 0.877332 -1.5
      vertex 7 0 1.5
      vertex 7 0 -1.5
    endloop
  endfacet
  facet normal 0 -1 0
    outer loop
      vertex -0.439533 -6.98619 -1.5
      vertex 0.439533 -6.98619 1.5
      vertex -0.439533 -6.98619 1.5
    endloop
  endfacet
  facet normal 0 -1 -0
    outer loop
      vertex 0.439533 -6.98619 1.5
      vertex -0.439533 -6.98619 -1.5
      vertex 0.439533 -6.98619 -1.5
    endloop
  endfacet
  facet normal -0.951058 -0.309011 1.89629e-18
    outer loop
      vertex -6.50844 -2.57687 -1.5
      vertex -6.78008 -1.74083 1.5
      vertex -6.78008 -1.74083 -1.5
    endloop
  endfacet
  facet normal -0.951058 -0.309011 1.89629e-18
    outer loop
      vertex -6.78008 -1.74083 1.5
      vertex -6.50844 -2.57687 -1.5
      vertex -6.50844 -2.57687 1.5
    endloop
  endfacet
  facet normal -0.844326 -0.535829 8.70543e-18
    outer loop
      vertex -5.66312 -4.1145 -1.5
      vertex -6.13415 -3.37228 1.5
      vertex -6.13415 -3.37228 -1.5
    endloop
  endfacet
  facet normal -0.844326 -0.535829 8.70543e-18
    outer loop
      vertex -6.13415 -3.37228 1.5
      vertex -5.66312 -4.1145 -1.5
      vertex -5.66312 -4.1145 1.5
    endloop
  endfacet
  facet normal 0.125337 -0.992114 0
    outer loop
      vertex 0.439533 -6.98619 -1.5
      vertex 1.31167 -6.87601 1.5
      vertex 0.439533 -6.98619 1.5
    endloop
  endfacet
  facet normal 0.125337 -0.992114 0
    outer loop
      vertex 1.31167 -6.87601 1.5
      vertex 0.439533 -6.98619 -1.5
      vertex 1.31167 -6.87601 -1.5
    endloop
  endfacet
  facet normal 0.904828 0.425778 2.78531e-18
    outer loop
      vertex 6.50844 2.57687 1.5
      vertex 6.13415 3.37228 -1.5
      vertex 6.13415 3.37228 1.5
    endloop
  endfacet
  facet normal 0.904828 0.425778 2.78531e-18
    outer loop
      vertex 6.13415 3.37228 -1.5
      vertex 6.50844 2.57687 1.5
      vertex 6.50844 2.57687 -1.5
    endloop
  endfacet
  facet normal 0.951058 0.309011 1.89629e-18
    outer loop
      vertex 6.78008 1.74083 1.5
      vertex 6.50844 2.57687 -1.5
      vertex 6.50844 2.57687 1.5
    endloop
  endfacet
  facet normal 0.951058 0.309011 1.89629e-18
    outer loop
      vertex 6.50844 2.57687 -1.5
      vertex 6.78008 1.74083 1.5
      vertex 6.78008 1.74083 -1.5
    endloop
  endfacet
  facet normal 0.982287 -0.18738 4.17798e-18
    outer loop
      vertex 6.78008 -1.74083 1.5
      vertex 6.9448 -0.877332 -1.5
      vertex 6.9448 -0.877332 1.5
    endloop
  endfacet
  facet normal 0.982287 -0.18738 4.17798e-18
    outer loop
      vertex 6.9448 -0.877332 -1.5
      vertex 6.78008 -1.74083 1.5
      vertex 6.78008 -1.74083 -1.5
    endloop
  endfacet
  facet normal -0.248684 -0.968585 0
    outer loop
      vertex -2.16312 -6.6574 -1.5
      vertex -1.31167 -6.87601 1.5
      vertex -2.16312 -6.6574 1.5
    endloop
  endfacet
  facet normal -0.248684 -0.968585 -0
    outer loop
      vertex -1.31167 -6.87601 1.5
      vertex -2.16312 -6.6574 -1.5
      vertex -1.31167 -6.87601 -1.5
    endloop
  endfacet
  facet normal 0 0 -1
    outer loop
      vertex -5.66312 4.1145 -1.5
      vertex -1.75 3.25 -1.5
      vertex -1.75 2.96524 -1.5
    endloop
  endfacet
  facet normal 0 0 -1
    outer loop
      vertex -1.75 3.25 -1.5
      vertex -2.98045 6.33379 -1.5
      vertex -2.16312 6.6574 -1.5
    endloop
  endfacet
  facet normal 0 0 -1
    outer loop
      vertex -6.13415 3.37228 -1.5
      vertex -1.75 2.96524 -1.5
      vertex -3.46199 0 -1.5
    endloop
  endfacet
  facet normal 0 0 -1
    outer loop
      vertex -1.75 3.25 -1.5
      vertex -3.75079 5.91029 -1.5
      vertex -2.98045 6.33379 -1.5
    endloop
  endfacet
  facet normal 0 0 -1
    outer loop
      vertex -5.66312 -4.1145 -1.5
      vertex -1.75 -3.25 -1.5
      vertex -5.10278 -4.79183 -1.5
    endloop
  endfacet
  facet normal -0 0 -1
    outer loop
      vertex -1.75 -3.25 -1.5
      vertex -5.66312 -4.1145 -1.5
      vertex -1.75 -2.96524 -1.5
    endloop
  endfacet
  facet normal 0 0 -1
    outer loop
      vertex -1.75 3.25 -1.5
      vertex -4.46197 5.39359 -1.5
      vertex -3.75079 5.91029 -1.5
    endloop
  endfacet
  facet normal 0 0 -1
    outer loop
      vertex -6.13415 -3.37228 -1.5
      vertex -1.75 -2.96524 -1.5
      vertex -5.66312 -4.1145 -1.5
    endloop
  endfacet
  facet normal 0 0 -1
    outer loop
      vertex -1.75 3.25 -1.5
      vertex -5.10278 4.79183 -1.5
      vertex -4.46197 5.39359 -1.5
    endloop
  endfacet
  facet normal -0 0 -1
    outer loop
      vertex -1.75 -2.96524 -1.5
      vertex -6.13415 -3.37228 -1.5
      vertex -3.46199 0 -1.5
    endloop
  endfacet
  facet normal 0 0 -1
    outer loop
      vertex -1.75 3.25 -1.5
      vertex -5.66312 4.1145 -1.5
      vertex -5.10278 4.79183 -1.5
    endloop
  endfacet
  facet normal 0 0 -1
    outer loop
      vertex -6.50844 -2.57687 -1.5
      vertex -3.46199 0 -1.5
      vertex -6.13415 -3.37228 -1.5
    endloop
  endfacet
  facet normal 0 0 -1
    outer loop
      vertex -1.75 2.96524 -1.5
      vertex -6.13415 3.37228 -1.5
      vertex -5.66312 4.1145 -1.5
    endloop
  endfacet
  facet normal 0 0 -1
    outer loop
      vertex -6.78008 -1.74083 -1.5
      vertex -3.46199 0 -1.5
      vertex -6.50844 -2.57687 -1.5
    endloop
  endfacet
  facet normal 0 0 -1
    outer loop
      vertex -3.46199 0 -1.5
      vertex -6.50844 2.57687 -1.5
      vertex -6.13415 3.37228 -1.5
    endloop
  endfacet
  facet normal 0 0 -1
    outer loop
      vertex -6.9448 -0.877332 -1.5
      vertex -3.46199 0 -1.5
      vertex -6.78008 -1.74083 -1.5
    endloop
  endfacet
  facet normal 0 0 -1
    outer loop
      vertex -3.46199 0 -1.5
      vertex -6.78008 1.74083 -1.5
      vertex -6.50844 2.57687 -1.5
    endloop
  endfacet
  facet normal 0 0 -1
    outer loop
      vertex -7 0 -1.5
      vertex -3.46199 0 -1.5
      vertex -6.9448 -0.877332 -1.5
    endloop
  endfacet
  facet normal 0 0 -1
    outer loop
      vertex -3.46199 0 -1.5
      vertex -6.9448 0.877332 -1.5
      vertex -6.78008 1.74083 -1.5
    endloop
  endfacet
  facet normal 0 0 -1
    outer loop
      vertex -3.46199 0 -1.5
      vertex -7 0 -1.5
      vertex -6.9448 0.877332 -1.5
    endloop
  endfacet
  facet normal 0 0 -1
    outer loop
      vertex 1.31167 -6.87601 -1.5
      vertex 1.75 -3.25 -1.5
      vertex 2.16312 -6.6574 -1.5
    endloop
  endfacet
  facet normal 0 0 -1
    outer loop
      vertex 0.439533 -6.98619 -1.5
      vertex 1.75 -3.25 -1.5
      vertex 1.31167 -6.87601 -1.5
    endloop
  endfacet
  facet normal 0 0 -1
    outer loop
      vertex -0.439533 -6.98619 -1.5
      vertex 1.75 -3.25 -1.5
      vertex 0.439533 -6.98619 -1.5
    endloop
  endfacet
  facet normal 0 0 -1
    outer loop
      vertex -1.75 -3.25 -1.5
      vertex -0.439533 -6.98619 -1.5
      vertex -1.31167 -6.87601 -1.5
    endloop
  endfacet
  facet normal 0 0 -1
    outer loop
      vertex -0.439533 -6.98619 -1.5
      vertex -1.75 -3.25 -1.5
      vertex 1.75 -3.25 -1.5
    endloop
  endfacet
  facet normal 0 0 -1
    outer loop
      vertex -2.16312 -6.6574 -1.5
      vertex -1.75 -3.25 -1.5
      vertex -1.31167 -6.87601 -1.5
    endloop
  endfacet
  facet normal 0 0 -1
    outer loop
      vertex -2.98045 -6.33379 -1.5
      vertex -1.75 -3.25 -1.5
      vertex -2.16312 -6.6574 -1.5
    endloop
  endfacet
  facet normal 0 0 -1
    outer loop
      vertex -3.75079 -5.91029 -1.5
      vertex -1.75 -3.25 -1.5
      vertex -2.98045 -6.33379 -1.5
    endloop
  endfacet
  facet normal 0 0 -1
    outer loop
      vertex -4.46197 -5.39359 -1.5
      vertex -1.75 -3.25 -1.5
      vertex -3.75079 -5.91029 -1.5
    endloop
  endfacet
  facet normal 0 0 -1
    outer loop
      vertex -5.10278 -4.79183 -1.5
      vertex -1.75 -3.25 -1.5
      vertex -4.46197 -5.39359 -1.5
    endloop
  endfacet
  facet normal 0 0 -1
    outer loop
      vertex 3.46199 0 -1.5
      vertex 7 0 -1.5
      vertex 6.9448 -0.877332 -1.5
    endloop
  endfacet
  facet normal 0 0 -1
    outer loop
      vertex 3.46199 0 -1.5
      vertex 6.9448 -0.877332 -1.5
      vertex 6.78008 -1.74083 -1.5
    endloop
  endfacet
  facet normal 0 0 -1
    outer loop
      vertex 7 0 -1.5
      vertex 3.46199 0 -1.5
      vertex 6.9448 0.877332 -1.5
    endloop
  endfacet
  facet normal 0 0 -1
    outer loop
      vertex 3.46199 0 -1.5
      vertex 6.78008 -1.74083 -1.5
      vertex 6.50844 -2.57687 -1.5
    endloop
  endfacet
  facet normal -0 0 -1
    outer loop
      vertex 6.9448 0.877332 -1.5
      vertex 3.46199 0 -1.5
      vertex 6.78008 1.74083 -1.5
    endloop
  endfacet
  facet normal 0 0 -1
    outer loop
      vertex 3.46199 0 -1.5
      vertex 6.50844 -2.57687 -1.5
      vertex 6.13415 -3.37228 -1.5
    endloop
  endfacet
  facet normal -0 0 -1
    outer loop
      vertex 6.78008 1.74083 -1.5
      vertex 3.46199 0 -1.5
      vertex 6.50844 2.57687 -1.5
    endloop
  endfacet
  facet normal 0 0 -1
    outer loop
      vertex 1.75 -2.96524 -1.5
      vertex 6.13415 -3.37228 -1.5
      vertex 5.66312 -4.1145 -1.5
    endloop
  endfacet
  facet normal -0 0 -1
    outer loop
      vertex 6.50844 2.57687 -1.5
      vertex 3.46199 0 -1.5
      vertex 6.13415 3.37228 -1.5
    endloop
  endfacet
  facet normal 0 0 -1
    outer loop
      vertex 1.75 -3.25 -1.5
      vertex 5.66312 -4.1145 -1.5
      vertex 5.10278 -4.79183 -1.5
    endloop
  endfacet
  facet normal 0 0 -1
    outer loop
      vertex 1.75 2.96524 -1.5
      vertex 6.13415 3.37228 -1.5
      vertex 3.46199 0 -1.5
    endloop
  endfacet
  facet normal 0 0 -1
    outer loop
      vertex 1.75 -3.25 -1.5
      vertex 5.10278 -4.79183 -1.5
      vertex 4.46197 -5.39359 -1.5
    endloop
  endfacet
  facet normal -0 0 -1
    outer loop
      vertex 6.13415 3.37228 -1.5
      vertex 1.75 2.96524 -1.5
      vertex 5.66312 4.1145 -1.5
    endloop
  endfacet
  facet normal 0 0 -1
    outer loop
      vertex 1.75 -3.25 -1.5
      vertex 4.46197 -5.39359 -1.5
      vertex 3.75079 -5.91029 -1.5
    endloop
  endfacet
  facet normal 0 0 -1
    outer loop
      vertex 1.75 3.25 -1.5
      vertex 5.66312 4.1145 -1.5
      vertex 1.75 2.96524 -1.5
    endloop
  endfacet
  facet normal -0 0 -1
    outer loop
      vertex 5.66312 4.1145 -1.5
      vertex 1.75 3.25 -1.5
      vertex 5.10278 4.79183 -1.5
    endloop
  endfacet
  facet normal 0 0 -1
    outer loop
      vertex 1.75 -3.25 -1.5
      vertex 3.75079 -5.91029 -1.5
      vertex 2.98045 -6.33379 -1.5
    endloop
  endfacet
  facet normal 0 0 -1
    outer loop
      vertex 1.75 -3.25 -1.5
      vertex 2.98045 -6.33379 -1.5
      vertex 2.16312 -6.6574 -1.5
    endloop
  endfacet
  facet normal 0 0 -1
    outer loop
      vertex 5.66312 -4.1145 -1.5
      vertex 1.75 -3.25 -1.5
      vertex 1.75 -2.96524 -1.5
    endloop
  endfacet
  facet normal 0 0 -1
    outer loop
      vertex 6.13415 -3.37228 -1.5
      vertex 1.75 -2.96524 -1.5
      vertex 3.46199 0 -1.5
    endloop
  endfacet
  facet normal -0 0 -1
    outer loop
      vertex 5.10278 4.79183 -1.5
      vertex 1.75 3.25 -1.5
      vertex 4.46197 5.39359 -1.5
    endloop
  endfacet
  facet normal -0 0 -1
    outer loop
      vertex 3.75079 5.91029 -1.5
      vertex 1.75 3.25 -1.5
      vertex 2.98045 6.33379 -1.5
    endloop
  endfacet
  facet normal -0 0 -1
    outer loop
      vertex 4.46197 5.39359 -1.5
      vertex 1.75 3.25 -1.5
      vertex 3.75079 5.91029 -1.5
    endloop
  endfacet
  facet normal -0 0 -1
    outer loop
      vertex 2.98045 6.33379 -1.5
      vertex 1.75 3.25 -1.5
      vertex 2.16312 6.6574 -1.5
    endloop
  endfacet
  facet normal 0 0 -1
    outer loop
      vertex 1.75 3.25 -1.5
      vertex 1.31167 6.87601 -1.5
      vertex 2.16312 6.6574 -1.5
    endloop
  endfacet
  facet normal 0 0 -1
    outer loop
      vertex 1.75 3.25 -1.5
      vertex 0.439533 6.98619 -1.5
      vertex 1.31167 6.87601 -1.5
    endloop
  endfacet
  facet normal 0 0 -1
    outer loop
      vertex 1.75 3.25 -1.5
      vertex -0.439533 6.98619 -1.5
      vertex 0.439533 6.98619 -1.5
    endloop
  endfacet
  facet normal 0 0 -1
    outer loop
      vertex -1.75 3.25 -1.5
      vertex -0.439533 6.98619 -1.5
      vertex 1.75 3.25 -1.5
    endloop
  endfacet
  facet normal 0 0 -1
    outer loop
      vertex -0.439533 6.98619 -1.5
      vertex -1.75 3.25 -1.5
      vertex -1.31167 6.87601 -1.5
    endloop
  endfacet
  facet normal 0 0 -1
    outer loop
      vertex -1.31167 6.87601 -1.5
      vertex -1.75 3.25 -1.5
      vertex -2.16312 6.6574 -1.5
    endloop
  endfacet
  facet normal 0 0 -1
    outer loop
      vertex 1.75 -3.25 -1.5
      vertex 1.73099 -2.99817 -1.5
      vertex 1.75 -2.96524 -1.5
    endloop
  endfacet
  facet normal 0 0 -1
    outer loop
      vertex 1.75 -3.25 -1.5
      vertex -1.73099 -2.99817 -1.5
      vertex 1.73099 -2.99817 -1.5
    endloop
  endfacet
  facet normal 0 0 -1
    outer loop
      vertex -1.75 -3.25 -1.5
      vertex -1.73099 -2.99817 -1.5
      vertex 1.75 -3.25 -1.5
    endloop
  endfacet
  facet normal -0 0 -1
    outer loop
      vertex -1.73099 -2.99817 -1.5
      vertex -1.75 -3.25 -1.5
      vertex -1.75 -2.96524 -1.5
    endloop
  endfacet
  facet normal 0 0 -1
    outer loop
      vertex 1.73099 2.99817 -1.5
      vertex 1.75 3.25 -1.5
      vertex 1.75 2.96524 -1.5
    endloop
  endfacet
  facet normal 0 0 -1
    outer loop
      vertex -1.73099 2.99817 -1.5
      vertex 1.75 3.25 -1.5
      vertex 1.73099 2.99817 -1.5
    endloop
  endfacet
  facet normal 0 0 -1
    outer loop
      vertex -1.73099 2.99817 -1.5
      vertex -1.75 3.25 -1.5
      vertex 1.75 3.25 -1.5
    endloop
  endfacet
  facet normal 0 0 -1
    outer loop
      vertex -1.75 3.25 -1.5
      vertex -1.73099 2.99817 -1.5
      vertex -1.75 2.96524 -1.5
    endloop
  endfacet
  facet normal -0.770511 -0.637427 9.78463e-18
    outer loop
      vertex -5.10278 -4.79183 -1.5
      vertex -5.66312 -4.1145 1.5
      vertex -5.66312 -4.1145 -1.5
    endloop
  endfacet
  facet normal -0.770511 -0.637427 9.78463e-18
    outer loop
      vertex -5.66312 -4.1145 1.5
      vertex -5.10278 -4.79183 -1.5
      vertex -5.10278 -4.79183 1.5
    endloop
  endfacet
  facet normal 0.368131 -0.929774 0
    outer loop
      vertex 2.16312 -6.6574 -1.5
      vertex 2.98045 -6.33379 1.5
      vertex 2.16312 -6.6574 1.5
    endloop
  endfacet
  facet normal 0.368131 -0.929774 0
    outer loop
      vertex 2.98045 -6.33379 1.5
      vertex 2.16312 -6.6574 -1.5
      vertex 2.98045 -6.33379 -1.5
    endloop
  endfacet
  facet normal 0.248684 -0.968585 0
    outer loop
      vertex 1.31167 -6.87601 -1.5
      vertex 2.16312 -6.6574 1.5
      vertex 1.31167 -6.87601 1.5
    endloop
  endfacet
  facet normal 0.248684 -0.968585 0
    outer loop
      vertex 2.16312 -6.6574 1.5
      vertex 1.31167 -6.87601 -1.5
      vertex 2.16312 -6.6574 -1.5
    endloop
  endfacet
  facet normal 0.684547 -0.728969 0
    outer loop
      vertex 4.46197 -5.39359 -1.5
      vertex 5.10278 -4.79183 1.5
      vertex 4.46197 -5.39359 1.5
    endloop
  endfacet
  facet normal 0.684547 -0.728969 0
    outer loop
      vertex 5.10278 -4.79183 1.5
      vertex 4.46197 -5.39359 -1.5
      vertex 5.10278 -4.79183 -1.5
    endloop
  endfacet
  facet normal 0.951058 -0.309011 -1.89629e-18
    outer loop
      vertex 6.50844 -2.57687 1.5
      vertex 6.78008 -1.74083 -1.5
      vertex 6.78008 -1.74083 1.5
    endloop
  endfacet
  facet normal 0.951058 -0.309011 -1.89629e-18
    outer loop
      vertex 6.78008 -1.74083 -1.5
      vertex 6.50844 -2.57687 1.5
      vertex 6.50844 -2.57687 -1.5
    endloop
  endfacet
  facet normal 0.844326 -0.535829 -8.70543e-18
    outer loop
      vertex 5.66312 -4.1145 1.5
      vertex 6.13415 -3.37228 -1.5
      vertex 6.13415 -3.37228 1.5
    endloop
  endfacet
  facet normal 0.844326 -0.535829 -8.70543e-18
    outer loop
      vertex 6.13415 -3.37228 -1.5
      vertex 5.66312 -4.1145 1.5
      vertex 5.66312 -4.1145 -1.5
    endloop
  endfacet
  facet normal 0.770511 -0.637427 -9.78463e-18
    outer loop
      vertex 5.10278 -4.79183 1.5
      vertex 5.66312 -4.1145 -1.5
      vertex 5.66312 -4.1145 1.5
    endloop
  endfacet
  facet normal 0.770511 -0.637427 -9.78463e-18
    outer loop
      vertex 5.66312 -4.1145 -1.5
      vertex 5.10278 -4.79183 1.5
      vertex 5.10278 -4.79183 -1.5
    endloop
  endfacet
  facet normal -0.125337 -0.992114 0
    outer loop
      vertex -1.31167 -6.87601 -1.5
      vertex -0.439533 -6.98619 1.5
      vertex -1.31167 -6.87601 1.5
    endloop
  endfacet
  facet normal -0.125337 -0.992114 -0
    outer loop
      vertex -0.439533 -6.98619 1.5
      vertex -1.31167 -6.87601 -1.5
      vertex -0.439533 -6.98619 -1.5
    endloop
  endfacet
  facet normal -0.481755 -0.876306 0
    outer loop
      vertex -3.75079 -5.91029 -1.5
      vertex -2.98045 -6.33379 1.5
      vertex -3.75079 -5.91029 1.5
    endloop
  endfacet
  facet normal -0.481755 -0.876306 -0
    outer loop
      vertex -2.98045 -6.33379 1.5
      vertex -3.75079 -5.91029 -1.5
      vertex -2.98045 -6.33379 -1.5
    endloop
  endfacet
  facet normal -0.982287 -0.18738 -4.17798e-18
    outer loop
      vertex -6.78008 -1.74083 -1.5
      vertex -6.9448 -0.877332 1.5
      vertex -6.9448 -0.877332 -1.5
    endloop
  endfacet
  facet normal -0.982287 -0.18738 -4.17798e-18
    outer loop
      vertex -6.9448 -0.877332 1.5
      vertex -6.78008 -1.74083 -1.5
      vertex -6.78008 -1.74083 1.5
    endloop
  endfacet
  facet normal -0.998027 -0.0627939 -2.47956e-19
    outer loop
      vertex -6.9448 -0.877332 -1.5
      vertex -7 0 1.5
      vertex -7 0 -1.5
    endloop
  endfacet
  facet normal -0.998027 -0.0627939 -2.47956e-19
    outer loop
      vertex -7 0 1.5
      vertex -6.9448 -0.877332 -1.5
      vertex -6.9448 -0.877332 1.5
    endloop
  endfacet
  facet normal 0.587783 -0.809018 0
    outer loop
      vertex 3.75079 -5.91029 -1.5
      vertex 4.46197 -5.39359 1.5
      vertex 3.75079 -5.91029 1.5
    endloop
  endfacet
  facet normal 0.587783 -0.809018 0
    outer loop
      vertex 4.46197 -5.39359 1.5
      vertex 3.75079 -5.91029 -1.5
      vertex 4.46197 -5.39359 -1.5
    endloop
  endfacet
  facet normal -0.587783 -0.809018 0
    outer loop
      vertex -4.46197 -5.39359 -1.5
      vertex -3.75079 -5.91029 1.5
      vertex -4.46197 -5.39359 1.5
    endloop
  endfacet
  facet normal -0.587783 -0.809018 -0
    outer loop
      vertex -3.75079 -5.91029 1.5
      vertex -4.46197 -5.39359 -1.5
      vertex -3.75079 -5.91029 -1.5
    endloop
  endfacet
  facet normal -0.368131 -0.929774 0
    outer loop
      vertex -2.98045 -6.33379 -1.5
      vertex -2.16312 -6.6574 1.5
      vertex -2.98045 -6.33379 1.5
    endloop
  endfacet
  facet normal -0.368131 -0.929774 -0
    outer loop
      vertex -2.16312 -6.6574 1.5
      vertex -2.98045 -6.33379 -1.5
      vertex -2.16312 -6.6574 -1.5
    endloop
  endfacet
  facet normal 1 0 0
    outer loop
      vertex -1.75 -1.75 1.3
      vertex -1.75 -0.413301 1.5
      vertex -1.75 -1.75 1.5
    endloop
  endfacet
  facet normal 1 0 0
    outer loop
      vertex -1.75 -0.413301 1.5
      vertex -1.75 -1.75 1.3
      vertex -1.75 -0.413301 1
    endloop
  endfacet
  facet normal 1 0 0
    outer loop
      vertex -1.75 -1.75 1.3
      vertex -1.75 -2.96524 1
      vertex -1.75 -0.413301 1
    endloop
  endfacet
  facet normal 1 -0 0
    outer loop
      vertex -1.75 -3.25 1.3
      vertex -1.75 -2.96524 1
      vertex -1.75 -1.75 1.3
    endloop
  endfacet
  facet normal 1 0 0
    outer loop
      vertex -1.75 -2.96524 1
      vertex -1.75 -3.25 1.3
      vertex -1.75 -3.25 1
    endloop
  endfacet
  facet normal 1 0 0
    outer loop
      vertex -1.75 1.75 1.5
      vertex -1.75 0.413301 1.5
      vertex -1.75 1.75 1.3
    endloop
  endfacet
  facet normal 1 0 0
    outer loop
      vertex -1.75 3.25 1.3
      vertex -1.75 2.96524 1
      vertex -1.75 3.25 1
    endloop
  endfacet
  facet normal 1 -0 0
    outer loop
      vertex -1.75 1.75 1.3
      vertex -1.75 2.96524 1
      vertex -1.75 3.25 1.3
    endloop
  endfacet
  facet normal 1 0 0
    outer loop
      vertex -1.75 0.413301 1
      vertex -1.75 1.75 1.3
      vertex -1.75 0.413301 1.5
    endloop
  endfacet
  facet normal 1 0 0
    outer loop
      vertex -1.75 1.75 1.3
      vertex -1.75 0.413301 1
      vertex -1.75 2.96524 1
    endloop
  endfacet
  facet normal 0 0 -1
    outer loop
      vertex 1.75 -3.25 1.3
      vertex 0.407847 -1.75 1.3
      vertex 1.75 -1.75 1.3
    endloop
  endfacet
  facet normal 0 0 -1
    outer loop
      vertex 1.75 -3.25 1.3
      vertex 0.337286 -1.76812 1.3
      vertex 0.407847 -1.75 1.3
    endloop
  endfacet
  facet normal 0 0 -1
    outer loop
      vertex 1.75 -3.25 1.3
      vertex 0.113023 -1.79645 1.3
      vertex 0.337286 -1.76812 1.3
    endloop
  endfacet
  facet normal 0 0 -1
    outer loop
      vertex 1.75 -3.25 1.3
      vertex -0.113023 -1.79645 1.3
      vertex 0.113023 -1.79645 1.3
    endloop
  endfacet
  facet normal 0 0 -1
    outer loop
      vertex -1.75 -3.25 1.3
      vertex -0.113023 -1.79645 1.3
      vertex 1.75 -3.25 1.3
    endloop
  endfacet
  facet normal -0 0 -1
    outer loop
      vertex -0.113023 -1.79645 1.3
      vertex -1.75 -3.25 1.3
      vertex -0.337286 -1.76812 1.3
    endloop
  endfacet
  facet normal -0 0 -1
    outer loop
      vertex -0.337286 -1.76812 1.3
      vertex -1.75 -3.25 1.3
      vertex -0.407847 -1.75 1.3
    endloop
  endfacet
  facet normal -0 0 -1
    outer loop
      vertex -0.407847 -1.75 1.3
      vertex -1.75 -3.25 1.3
      vertex -1.75 -1.75 1.3
    endloop
  endfacet
  facet normal 0 0 -1
    outer loop
      vertex 0.407847 1.75 1.3
      vertex 1.75 3.25 1.3
      vertex 1.75 1.75 1.3
    endloop
  endfacet
  facet normal 0 0 -1
    outer loop
      vertex 0.337286 1.76812 1.3
      vertex 1.75 3.25 1.3
      vertex 0.407847 1.75 1.3
    endloop
  endfacet
  facet normal 0 0 -1
    outer loop
      vertex 0.113023 1.79645 1.3
      vertex 1.75 3.25 1.3
      vertex 0.337286 1.76812 1.3
    endloop
  endfacet
  facet normal 0 0 -1
    outer loop
      vertex -0.113023 1.79645 1.3
      vertex 1.75 3.25 1.3
      vertex 0.113023 1.79645 1.3
    endloop
  endfacet
  facet normal 0 0 -1
    outer loop
      vertex -1.75 3.25 1.3
      vertex -0.113023 1.79645 1.3
      vertex -0.337286 1.76812 1.3
    endloop
  endfacet
  facet normal 0 0 -1
    outer loop
      vertex -1.75 3.25 1.3
      vertex -0.337286 1.76812 1.3
      vertex -0.407847 1.75 1.3
    endloop
  endfacet
  facet normal 0 0 -1
    outer loop
      vertex -1.75 3.25 1.3
      vertex -0.407847 1.75 1.3
      vertex -1.75 1.75 1.3
    endloop
  endfacet
  facet normal 0 0 -1
    outer loop
      vertex -0.113023 1.79645 1.3
      vertex -1.75 3.25 1.3
      vertex 1.75 3.25 1.3
    endloop
  endfacet
  facet normal -1 0 0
    outer loop
      vertex 1.75 2.96524 1
      vertex 1.75 3.25 1.3
      vertex 1.75 3.25 1
    endloop
  endfacet
  facet normal -1 0 0
    outer loop
      vertex 1.75 2.96524 1
      vertex 1.75 1.75 1.3
      vertex 1.75 3.25 1.3
    endloop
  endfacet
  facet normal -1 0 0
    outer loop
      vertex 1.75 0.413301 1
      vertex 1.75 1.75 1.3
      vertex 1.75 2.96524 1
    endloop
  endfacet
  facet normal -1 0 0
    outer loop
      vertex 1.75 0.413301 1.5
      vertex 1.75 1.75 1.3
      vertex 1.75 0.413301 1
    endloop
  endfacet
  facet normal -1 0 0
    outer loop
      vertex 1.75 1.75 1.3
      vertex 1.75 0.413301 1.5
      vertex 1.75 1.75 1.5
    endloop
  endfacet
  facet normal -1 0 0
    outer loop
      vertex 1.75 -0.413301 1
      vertex 1.75 -1.75 1.3
      vertex 1.75 -0.413301 1.5
    endloop
  endfacet
  facet normal -1 0 0
    outer loop
      vertex 1.75 -2.96524 1
      vertex 1.75 -1.75 1.3
      vertex 1.75 -0.413301 1
    endloop
  endfacet
  facet normal -1 0 0
    outer loop
      vertex 1.75 -3.25 1.3
      vertex 1.75 -2.96524 1
      vertex 1.75 -3.25 1
    endloop
  endfacet
  facet normal -1 0 0
    outer loop
      vertex 1.75 -2.96524 1
      vertex 1.75 -3.25 1.3
      vertex 1.75 -1.75 1.3
    endloop
  endfacet
  facet normal -1 -0 0
    outer loop
      vertex 1.75 -0.413301 1.5
      vertex 1.75 -1.75 1.3
      vertex 1.75 -1.75 1.5
    endloop
  endfacet
  facet normal 0 -1 0
    outer loop
      vertex -1.75 3.25 1
      vertex 1.75 3.25 1.3
      vertex -1.75 3.25 1.3
    endloop
  endfacet
  facet normal 0 -1 -0
    outer loop
      vertex 1.75 3.25 1.3
      vertex -1.75 3.25 1
      vertex 1.75 3.25 1
    endloop
  endfacet
  facet normal -0 0 1
    outer loop
      vertex 1.73099 -2.99817 1
      vertex 1.75 -3.25 1
      vertex 1.75 -2.96524 1
    endloop
  endfacet
  facet normal -0 0 1
    outer loop
      vertex -1.73099 -2.99817 1
      vertex 1.75 -3.25 1
      vertex 1.73099 -2.99817 1
    endloop
  endfacet
  facet normal 0 0 1
    outer loop
      vertex -1.73099 -2.99817 1
      vertex -1.75 -3.25 1
      vertex 1.75 -3.25 1
    endloop
  endfacet
  facet normal 0 0 1
    outer loop
      vertex -1.75 -3.25 1
      vertex -1.73099 -2.99817 1
      vertex -1.75 -2.96524 1
    endloop
  endfacet
  facet normal 0 0 -1
    outer loop
      vertex -3.46199 0 1
      vertex -1.75 -0.413301 1
      vertex -1.75 -2.96524 1
    endloop
  endfacet
  facet normal 0 0 -1
    outer loop
      vertex -1.75 -0.413301 1
      vertex -3.46199 0 1
      vertex -1.78581 -0.225599 1
    endloop
  endfacet
  facet normal 0 0 -1
    outer loop
      vertex -1.78581 -0.225599 1
      vertex -3.46199 0 1
      vertex -1.8 0 1
    endloop
  endfacet
  facet normal 0 0 -1
    outer loop
      vertex -3.46199 0 1
      vertex -1.75 0.413301 1
      vertex -1.78581 0.225599 1
    endloop
  endfacet
  facet normal 0 0 -1
    outer loop
      vertex -3.46199 0 1
      vertex -1.78581 0.225599 1
      vertex -1.8 0 1
    endloop
  endfacet
  facet normal -0 0 -1
    outer loop
      vertex -1.75 0.413301 1
      vertex -3.46199 0 1
      vertex -1.75 2.96524 1
    endloop
  endfacet
  facet normal 0 0 1
    outer loop
      vertex 1.75 3.25 1
      vertex 1.73099 2.99817 1
      vertex 1.75 2.96524 1
    endloop
  endfacet
  facet normal 0 0 1
    outer loop
      vertex 1.75 3.25 1
      vertex -1.73099 2.99817 1
      vertex 1.73099 2.99817 1
    endloop
  endfacet
  facet normal -0 0 1
    outer loop
      vertex -1.75 3.25 1
      vertex -1.73099 2.99817 1
      vertex 1.75 3.25 1
    endloop
  endfacet
  facet normal 0 0 1
    outer loop
      vertex -1.73099 2.99817 1
      vertex -1.75 3.25 1
      vertex -1.75 2.96524 1
    endloop
  endfacet
  facet normal -0 0 -1
    outer loop
      vertex 3.46199 0 1
      vertex 1.78581 -0.225599 1
      vertex 1.8 0 1
    endloop
  endfacet
  facet normal 0 0 -1
    outer loop
      vertex 1.75 -0.413301 1
      vertex 3.46199 0 1
      vertex 1.75 -2.96524 1
    endloop
  endfacet
  facet normal 0 0 -1
    outer loop
      vertex 3.46199 0 1
      vertex 1.75 -0.413301 1
      vertex 1.78581 -0.225599 1
    endloop
  endfacet
  facet normal 0 0 -1
    outer loop
      vertex 1.78581 0.225599 1
      vertex 3.46199 0 1
      vertex 1.8 0 1
    endloop
  endfacet
  facet normal 0 0 -1
    outer loop
      vertex 1.75 0.413301 1
      vertex 3.46199 0 1
      vertex 1.78581 0.225599 1
    endloop
  endfacet
  facet normal 0 0 -1
    outer loop
      vertex 3.46199 0 1
      vertex 1.75 0.413301 1
      vertex 1.75 2.96524 1
    endloop
  endfacet
  facet normal 0 1 -0
    outer loop
      vertex 1.75 -3.25 1
      vertex -1.75 -3.25 1.3
      vertex 1.75 -3.25 1.3
    endloop
  endfacet
  facet normal 0 1 0
    outer loop
      vertex -1.75 -3.25 1.3
      vertex 1.75 -3.25 1
      vertex -1.75 -3.25 1
    endloop
  endfacet
  facet normal 0 -1 0
    outer loop
      vertex 0.407847 1.75 1.3
      vertex 1.75 1.75 1.5
      vertex 0.407847 1.75 1.5
    endloop
  endfacet
  facet normal 0 -1 -0
    outer loop
      vertex 1.75 1.75 1.5
      vertex 0.407847 1.75 1.3
      vertex 1.75 1.75 1.3
    endloop
  endfacet
  facet normal 0 -1 0
    outer loop
      vertex -1.75 1.75 1.3
      vertex -0.407847 1.75 1.5
      vertex -1.75 1.75 1.5
    endloop
  endfacet
  facet normal 0 -1 -0
    outer loop
      vertex -0.407847 1.75 1.5
      vertex -1.75 1.75 1.3
      vertex -0.407847 1.75 1.3
    endloop
  endfacet
  facet normal 0 1 -0
    outer loop
      vertex -0.407847 -1.75 1.3
      vertex -1.75 -1.75 1.5
      vertex -0.407847 -1.75 1.5
    endloop
  endfacet
  facet normal 0 1 0
    outer loop
      vertex -1.75 -1.75 1.5
      vertex -0.407847 -1.75 1.3
      vertex -1.75 -1.75 1.3
    endloop
  endfacet
  facet normal 0 1 -0
    outer loop
      vertex 1.75 -1.75 1.3
      vertex 0.407847 -1.75 1.5
      vertex 1.75 -1.75 1.5
    endloop
  endfacet
  facet normal 0 1 0
    outer loop
      vertex 0.407847 -1.75 1.5
      vertex 1.75 -1.75 1.3
      vertex 0.407847 -1.75 1.3
    endloop
  endfacet
  facet normal 0 1 -0
    outer loop
      vertex 1.73099 -2.99817 -1.5
      vertex -1.73099 -2.99817 1
      vertex 1.73099 -2.99817 1
    endloop
  endfacet
  facet normal 0 1 0
    outer loop
      vertex -1.73099 -2.99817 1
      vertex 1.73099 -2.99817 -1.5
      vertex -1.73099 -2.99817 -1.5
    endloop
  endfacet
  facet normal -0.866024 0.500002 -2.79666e-17
    outer loop
      vertex 1.75 -2.96524 -1.5
      vertex 3.46199 0 1
      vertex 3.46199 0 -1.5
    endloop
  endfacet
  facet normal -0.866024 0.500002 0
    outer loop
      vertex 1.75 -2.96524 -1.5
      vertex 1.75 -2.96524 1
      vertex 3.46199 0 1
    endloop
  endfacet
  facet normal -0.86605 0.499958 -3.3248e-19
    outer loop
      vertex 1.73099 -2.99817 -1.5
      vertex 1.75 -2.96524 1
      vertex 1.75 -2.96524 -1.5
    endloop
  endfacet
  facet normal -0.86605 0.499958 -3.3248e-19
    outer loop
      vertex 1.75 -2.96524 1
      vertex 1.73099 -2.99817 -1.5
      vertex 1.73099 -2.99817 1
    endloop
  endfacet
  facet normal -0.86605 -0.499958 3.3248e-19
    outer loop
      vertex 1.75 2.96524 -1.5
      vertex 1.73099 2.99817 1
      vertex 1.73099 2.99817 -1.5
    endloop
  endfacet
  facet normal -0.86605 -0.499958 0
    outer loop
      vertex 1.75 2.96524 -1.5
      vertex 1.75 2.96524 1
      vertex 1.73099 2.99817 1
    endloop
  endfacet
  facet normal -0.866024 -0.500002 2.79666e-17
    outer loop
      vertex 3.46199 0 -1.5
      vertex 1.75 2.96524 1
      vertex 1.75 2.96524 -1.5
    endloop
  endfacet
  facet normal -0.866024 -0.500002 2.79666e-17
    outer loop
      vertex 1.75 2.96524 1
      vertex 3.46199 0 -1.5
      vertex 3.46199 0 1
    endloop
  endfacet
  facet normal 0.866024 0.500002 2.79666e-17
    outer loop
      vertex -1.75 -2.96524 1
      vertex -3.46199 0 -1.5
      vertex -3.46199 0 1
    endloop
  endfacet
  facet normal 0.866024 0.500002 0
    outer loop
      vertex -1.75 -2.96524 1
      vertex -1.75 -2.96524 -1.5
      vertex -3.46199 0 -1.5
    endloop
  endfacet
  facet normal 0.86605 0.499958 3.3248e-19
    outer loop
      vertex -1.73099 -2.99817 1
      vertex -1.75 -2.96524 -1.5
      vertex -1.75 -2.96524 1
    endloop
  endfacet
  facet normal 0.86605 0.499958 3.3248e-19
    outer loop
      vertex -1.75 -2.96524 -1.5
      vertex -1.73099 -2.99817 1
      vertex -1.73099 -2.99817 -1.5
    endloop
  endfacet
  facet normal 0.86605 -0.499958 -3.3248e-19
    outer loop
      vertex -1.75 2.96524 1
      vertex -1.73099 2.99817 -1.5
      vertex -1.73099 2.99817 1
    endloop
  endfacet
  facet normal 0.86605 -0.499958 0
    outer loop
      vertex -1.75 2.96524 1
      vertex -1.75 2.96524 -1.5
      vertex -1.73099 2.99817 -1.5
    endloop
  endfacet
  facet normal 0.866024 -0.500002 -2.79666e-17
    outer loop
      vertex -3.46199 0 1
      vertex -1.75 2.96524 -1.5
      vertex -1.75 2.96524 1
    endloop
  endfacet
  facet normal 0.866024 -0.500002 -2.79666e-17
    outer loop
      vertex -1.75 2.96524 -1.5
      vertex -3.46199 0 1
      vertex -3.46199 0 -1.5
    endloop
  endfacet
  facet normal 0 -1 0
    outer loop
      vertex -1.73099 2.99817 -1.5
      vertex 1.73099 2.99817 1
      vertex -1.73099 2.99817 1
    endloop
  endfacet
  facet normal 0 -1 -0
    outer loop
      vertex 1.73099 2.99817 1
      vertex -1.73099 2.99817 -1.5
      vertex 1.73099 2.99817 -1.5
    endloop
  endfacet
  facet normal -0.998028 -0.0627752 9.74269e-19
    outer loop
      vertex 1.8 0 1
      vertex 1.78581 0.225599 1.5
      vertex 1.78581 0.225599 1
    endloop
  endfacet
  facet normal -0.998028 -0.0627752 9.74269e-19
    outer loop
      vertex 1.78581 0.225599 1.5
      vertex 1.8 0 1
      vertex 1.8 0 1.5
    endloop
  endfacet
  facet normal 0.998028 -0.0627752 -9.74269e-19
    outer loop
      vertex -1.8 0 1.5
      vertex -1.78581 0.225599 1
      vertex -1.78581 0.225599 1.5
    endloop
  endfacet
  facet normal 0.998028 -0.0627752 -9.74269e-19
    outer loop
      vertex -1.78581 0.225599 1
      vertex -1.8 0 1.5
      vertex -1.8 0 1
    endloop
  endfacet
  facet normal 0 -1 0
    outer loop
      vertex -0.113023 1.79645 1.3
      vertex 0.113023 1.79645 1.5
      vertex -0.113023 1.79645 1.5
    endloop
  endfacet
  facet normal 0 -1 -0
    outer loop
      vertex 0.113023 1.79645 1.5
      vertex -0.113023 1.79645 1.3
      vertex 0.113023 1.79645 1.3
    endloop
  endfacet
  facet normal 0 1 -0
    outer loop
      vertex 0.113023 -1.79645 1.3
      vertex -0.113023 -1.79645 1.5
      vertex 0.113023 -1.79645 1.5
    endloop
  endfacet
  facet normal 0 1 0
    outer loop
      vertex -0.113023 -1.79645 1.5
      vertex 0.113023 -1.79645 1.3
      vertex -0.113023 -1.79645 1.3
    endloop
  endfacet
  facet normal -0.982283 -0.187401 2.99207e-18
    outer loop
      vertex 1.78581 0.225599 1
      vertex 1.75 0.413301 1.5
      vertex 1.75 0.413301 1
    endloop
  endfacet
  facet normal -0.982283 -0.187401 2.99207e-18
    outer loop
      vertex 1.75 0.413301 1.5
      vertex 1.78581 0.225599 1
      vertex 1.78581 0.225599 1.5
    endloop
  endfacet
  facet normal -0.248729 -0.968573 0
    outer loop
      vertex 0.337286 1.76812 1.3
      vertex 0.407847 1.75 1.5
      vertex 0.337286 1.76812 1.5
    endloop
  endfacet
  facet normal -0.248729 -0.968573 -0
    outer loop
      vertex 0.407847 1.75 1.5
      vertex 0.337286 1.76812 1.3
      vertex 0.407847 1.75 1.3
    endloop
  endfacet
  facet normal 0.248729 -0.968573 0
    outer loop
      vertex -0.407847 1.75 1.3
      vertex -0.337286 1.76812 1.5
      vertex -0.407847 1.75 1.5
    endloop
  endfacet
  facet normal 0.248729 -0.968573 0
    outer loop
      vertex -0.337286 1.76812 1.5
      vertex -0.407847 1.75 1.3
      vertex -0.337286 1.76812 1.3
    endloop
  endfacet
  facet normal -0.125329 0.992115 0
    outer loop
      vertex 0.337286 -1.76812 1.3
      vertex 0.113023 -1.79645 1.5
      vertex 0.337286 -1.76812 1.5
    endloop
  endfacet
  facet normal -0.125329 0.992115 0
    outer loop
      vertex 0.113023 -1.79645 1.5
      vertex 0.337286 -1.76812 1.3
      vertex 0.113023 -1.79645 1.3
    endloop
  endfacet
  facet normal -0.125329 -0.992115 0
    outer loop
      vertex 0.113023 1.79645 1.3
      vertex 0.337286 1.76812 1.5
      vertex 0.113023 1.79645 1.5
    endloop
  endfacet
  facet normal -0.125329 -0.992115 -0
    outer loop
      vertex 0.337286 1.76812 1.5
      vertex 0.113023 1.79645 1.3
      vertex 0.337286 1.76812 1.3
    endloop
  endfacet
  facet normal 0.982283 -0.187401 -2.99207e-18
    outer loop
      vertex -1.78581 0.225599 1.5
      vertex -1.75 0.413301 1
      vertex -1.75 0.413301 1.5
    endloop
  endfacet
  facet normal 0.982283 -0.187401 -2.99207e-18
    outer loop
      vertex -1.75 0.413301 1
      vertex -1.78581 0.225599 1.5
      vertex -1.78581 0.225599 1
    endloop
  endfacet
  facet normal 0.125329 -0.992115 0
    outer loop
      vertex -0.337286 1.76812 1.3
      vertex -0.113023 1.79645 1.5
      vertex -0.337286 1.76812 1.5
    endloop
  endfacet
  facet normal 0.125329 -0.992115 0
    outer loop
      vertex -0.113023 1.79645 1.5
      vertex -0.337286 1.76812 1.3
      vertex -0.113023 1.79645 1.3
    endloop
  endfacet
  facet normal -0.998028 0.0627752 -9.74269e-19
    outer loop
      vertex 1.78581 -0.225599 1
      vertex 1.8 0 1.5
      vertex 1.8 0 1
    endloop
  endfacet
  facet normal -0.998028 0.0627752 -9.74269e-19
    outer loop
      vertex 1.8 0 1.5
      vertex 1.78581 -0.225599 1
      vertex 1.78581 -0.225599 1.5
    endloop
  endfacet
  facet normal -0.982283 0.187401 -2.99207e-18
    outer loop
      vertex 1.75 -0.413301 1
      vertex 1.78581 -0.225599 1.5
      vertex 1.78581 -0.225599 1
    endloop
  endfacet
  facet normal -0.982283 0.187401 -2.99207e-18
    outer loop
      vertex 1.78581 -0.225599 1.5
      vertex 1.75 -0.413301 1
      vertex 1.75 -0.413301 1.5
    endloop
  endfacet
  facet normal 0.248729 0.968573 -0
    outer loop
      vertex -0.337286 -1.76812 1.3
      vertex -0.407847 -1.75 1.5
      vertex -0.337286 -1.76812 1.5
    endloop
  endfacet
  facet normal 0.248729 0.968573 0
    outer loop
      vertex -0.407847 -1.75 1.5
      vertex -0.337286 -1.76812 1.3
      vertex -0.407847 -1.75 1.3
    endloop
  endfacet
  facet normal -0.248729 0.968573 0
    outer loop
      vertex 0.407847 -1.75 1.3
      vertex 0.337286 -1.76812 1.5
      vertex 0.407847 -1.75 1.5
    endloop
  endfacet
  facet normal -0.248729 0.968573 0
    outer loop
      vertex 0.337286 -1.76812 1.5
      vertex 0.407847 -1.75 1.3
      vertex 0.337286 -1.76812 1.3
    endloop
  endfacet
  facet normal 0.125329 0.992115 -0
    outer loop
      vertex -0.113023 -1.79645 1.3
      vertex -0.337286 -1.76812 1.5
      vertex -0.113023 -1.79645 1.5
    endloop
  endfacet
  facet normal 0.125329 0.992115 0
    outer loop
      vertex -0.337286 -1.76812 1.5
      vertex -0.113023 -1.79645 1.3
      vertex -0.337286 -1.76812 1.3
    endloop
  endfacet
  facet normal 0.982283 0.187401 2.99207e-18
    outer loop
      vertex -1.75 -0.413301 1.5
      vertex -1.78581 -0.225599 1
      vertex -1.78581 -0.225599 1.5
    endloop
  endfacet
  facet normal 0.982283 0.187401 2.99207e-18
    outer loop
      vertex -1.78581 -0.225599 1
      vertex -1.75 -0.413301 1.5
      vertex -1.75 -0.413301 1
    endloop
  endfacet
  facet normal 0.998028 0.0627752 9.74269e-19
    outer loop
      vertex -1.78581 -0.225599 1.5
      vertex -1.8 0 1
      vertex -1.8 0 1.5
    endloop
  endfacet
  facet normal 0.998028 0.0627752 9.74269e-19
    outer loop
      vertex -1.8 0 1
      vertex -1.78581 -0.225599 1.5
      vertex -1.78581 -0.225599 1
    endloop
  endfacet
endsolid OpenSCAD_Model
