solid OpenSCAD_Model
  facet normal 0.998027 0.062787 -4.33152e-19
    outer loop
      vertex 87.7 0 18
      vertex 87.0085 10.9917 0
      vertex 87.0085 10.9917 18
    endloop
  endfacet
  facet normal 0.998027 0.062787 -4.33152e-19
    outer loop
      vertex 87.0085 10.9917 0
      vertex 87.7 0 18
      vertex 87.7 0 0
    endloop
  endfacet
  facet normal -0.998027 0.062787 4.33152e-19
    outer loop
      vertex -87.7 0 0
      vertex -87.0085 10.9917 18
      vertex -87.0085 10.9917 0
    endloop
  endfacet
  facet normal -0.998027 0.062787 4.33152e-19
    outer loop
      vertex -87.0085 10.9917 18
      vertex -87.7 0 0
      vertex -87.7 0 18
    endloop
  endfacet
  facet normal 0 1 -0
    outer loop
      vertex 5.50673 87.5269 0
      vertex -5.50673 87.5269 18
      vertex 5.50673 87.5269 18
    endloop
  endfacet
  facet normal 0 1 0
    outer loop
      vertex -5.50673 87.5269 18
      vertex 5.50673 87.5269 0
      vertex -5.50673 87.5269 0
    endloop
  endfacet
  facet normal 0 -1 0
    outer loop
      vertex -5.50673 -87.5269 0
      vertex 5.50673 -87.5269 18
      vertex -5.50673 -87.5269 18
    endloop
  endfacet
  facet normal 0 -1 -0
    outer loop
      vertex 5.50673 -87.5269 18
      vertex -5.50673 -87.5269 0
      vertex 5.50673 -87.5269 0
    endloop
  endfacet
  facet normal 0.684549 0.728967 -0
    outer loop
      vertex 63.9305 60.0348 0
      vertex 55.9021 67.574 18
      vertex 63.9305 60.0348 18
    endloop
  endfacet
  facet normal 0.684549 0.728967 0
    outer loop
      vertex 55.9021 67.574 18
      vertex 63.9305 60.0348 0
      vertex 55.9021 67.574 0
    endloop
  endfacet
  facet normal -0.684549 0.728967 0
    outer loop
      vertex -55.9021 67.574 0
      vertex -63.9305 60.0348 18
      vertex -55.9021 67.574 18
    endloop
  endfacet
  facet normal -0.684549 0.728967 0
    outer loop
      vertex -63.9305 60.0348 18
      vertex -55.9021 67.574 0
      vertex -63.9305 60.0348 0
    endloop
  endfacet
  facet normal -0.368132 0.929773 0
    outer loop
      vertex -27.1008 83.4077 0
      vertex -37.3408 79.3533 18
      vertex -27.1008 83.4077 18
    endloop
  endfacet
  facet normal -0.368132 0.929773 0
    outer loop
      vertex -37.3408 79.3533 18
      vertex -27.1008 83.4077 0
      vertex -37.3408 79.3533 0
    endloop
  endfacet
  facet normal 0.904828 0.425778 1.56634e-17
    outer loop
      vertex 81.5414 32.2845 18
      vertex 76.8521 42.2498 0
      vertex 76.8521 42.2498 18
    endloop
  endfacet
  facet normal 0.904828 0.425778 1.56634e-17
    outer loop
      vertex 76.8521 42.2498 0
      vertex 81.5414 32.2845 18
      vertex 81.5414 32.2845 0
    endloop
  endfacet
  facet normal 0.982286 0.187388 2.73015e-18
    outer loop
      vertex 87.0085 10.9917 18
      vertex 84.9447 21.8101 0
      vertex 84.9447 21.8101 18
    endloop
  endfacet
  facet normal 0.982286 0.187388 2.73015e-18
    outer loop
      vertex 84.9447 21.8101 0
      vertex 87.0085 10.9917 18
      vertex 87.0085 10.9917 0
    endloop
  endfacet
  facet normal 0.844329 0.535825 2.83516e-18
    outer loop
      vertex 76.8521 42.2498 18
      vertex 70.9508 51.5488 0
      vertex 70.9508 51.5488 18
    endloop
  endfacet
  facet normal 0.844329 0.535825 2.83516e-18
    outer loop
      vertex 70.9508 51.5488 0
      vertex 76.8521 42.2498 18
      vertex 76.8521 42.2498 0
    endloop
  endfacet
  facet normal 0.368132 0.929773 -0
    outer loop
      vertex 37.3408 79.3533 0
      vertex 27.1008 83.4077 18
      vertex 37.3408 79.3533 18
    endloop
  endfacet
  facet normal 0.368132 0.929773 0
    outer loop
      vertex 27.1008 83.4077 18
      vertex 37.3408 79.3533 0
      vertex 27.1008 83.4077 0
    endloop
  endfacet
  facet normal 0.248686 0.968584 -0
    outer loop
      vertex 27.1008 83.4077 0
      vertex 16.4333 86.1466 18
      vertex 27.1008 83.4077 18
    endloop
  endfacet
  facet normal 0.248686 0.968584 0
    outer loop
      vertex 16.4333 86.1466 18
      vertex 27.1008 83.4077 0
      vertex 16.4333 86.1466 0
    endloop
  endfacet
  facet normal 0.587787 0.809016 -0
    outer loop
      vertex 55.9021 67.574 0
      vertex 46.992 74.0476 18
      vertex 55.9021 67.574 18
    endloop
  endfacet
  facet normal 0.587787 0.809016 0
    outer loop
      vertex 46.992 74.0476 18
      vertex 55.9021 67.574 0
      vertex 46.992 74.0476 0
    endloop
  endfacet
  facet normal -0.844329 0.535825 -2.83516e-18
    outer loop
      vertex -76.8521 42.2498 0
      vertex -70.9508 51.5488 18
      vertex -70.9508 51.5488 0
    endloop
  endfacet
  facet normal -0.844329 0.535825 -2.83516e-18
    outer loop
      vertex -70.9508 51.5488 18
      vertex -76.8521 42.2498 0
      vertex -76.8521 42.2498 18
    endloop
  endfacet
  facet normal -0.77051 0.637428 3.23769e-18
    outer loop
      vertex -70.9508 51.5488 0
      vertex -63.9305 60.0348 18
      vertex -63.9305 60.0348 0
    endloop
  endfacet
  facet normal -0.77051 0.637428 3.23769e-18
    outer loop
      vertex -63.9305 60.0348 18
      vertex -70.9508 51.5488 0
      vertex -70.9508 51.5488 18
    endloop
  endfacet
  facet normal -0.951058 0.309014 -1.20933e-17
    outer loop
      vertex -84.9447 21.8101 0
      vertex -81.5414 32.2845 18
      vertex -81.5414 32.2845 0
    endloop
  endfacet
  facet normal -0.951058 0.309014 -1.20933e-17
    outer loop
      vertex -81.5414 32.2845 18
      vertex -84.9447 21.8101 0
      vertex -84.9447 21.8101 18
    endloop
  endfacet
  facet normal -0.481747 0.87631 0
    outer loop
      vertex -37.3408 79.3533 0
      vertex -46.992 74.0476 18
      vertex -37.3408 79.3533 18
    endloop
  endfacet
  facet normal -0.481747 0.87631 0
    outer loop
      vertex -46.992 74.0476 18
      vertex -37.3408 79.3533 0
      vertex -46.992 74.0476 0
    endloop
  endfacet
  facet normal -0.125329 0.992115 0
    outer loop
      vertex -5.50673 87.5269 0
      vertex -16.4333 86.1466 18
      vertex -5.50673 87.5269 18
    endloop
  endfacet
  facet normal -0.125329 0.992115 0
    outer loop
      vertex -16.4333 86.1466 18
      vertex -5.50673 87.5269 0
      vertex -16.4333 86.1466 0
    endloop
  endfacet
  facet normal 0.125329 -0.992115 0
    outer loop
      vertex 5.50673 -87.5269 0
      vertex 16.4333 -86.1466 18
      vertex 5.50673 -87.5269 18
    endloop
  endfacet
  facet normal 0.125329 -0.992115 0
    outer loop
      vertex 16.4333 -86.1466 18
      vertex 5.50673 -87.5269 0
      vertex 16.4333 -86.1466 0
    endloop
  endfacet
  facet normal 0.951058 0.309014 1.20933e-17
    outer loop
      vertex 84.9447 21.8101 18
      vertex 81.5414 32.2845 0
      vertex 81.5414 32.2845 18
    endloop
  endfacet
  facet normal 0.951058 0.309014 1.20933e-17
    outer loop
      vertex 81.5414 32.2845 0
      vertex 84.9447 21.8101 18
      vertex 84.9447 21.8101 0
    endloop
  endfacet
  facet normal 0.77051 0.637428 -3.23769e-18
    outer loop
      vertex 70.9508 51.5488 18
      vertex 63.9305 60.0348 0
      vertex 63.9305 60.0348 18
    endloop
  endfacet
  facet normal 0.77051 0.637428 -3.23769e-18
    outer loop
      vertex 63.9305 60.0348 0
      vertex 70.9508 51.5488 18
      vertex 70.9508 51.5488 0
    endloop
  endfacet
  facet normal 0.125329 0.992115 -0
    outer loop
      vertex 16.4333 86.1466 0
      vertex 5.50673 87.5269 18
      vertex 16.4333 86.1466 18
    endloop
  endfacet
  facet normal 0.125329 0.992115 0
    outer loop
      vertex 5.50673 87.5269 18
      vertex 16.4333 86.1466 0
      vertex 5.50673 87.5269 0
    endloop
  endfacet
  facet normal -0.904828 0.425778 -1.56634e-17
    outer loop
      vertex -81.5414 32.2845 0
      vertex -76.8521 42.2498 18
      vertex -76.8521 42.2498 0
    endloop
  endfacet
  facet normal -0.904828 0.425778 -1.56634e-17
    outer loop
      vertex -76.8521 42.2498 18
      vertex -81.5414 32.2845 0
      vertex -81.5414 32.2845 18
    endloop
  endfacet
  facet normal -0.982286 0.187388 -2.73015e-18
    outer loop
      vertex -87.0085 10.9917 0
      vertex -84.9447 21.8101 18
      vertex -84.9447 21.8101 0
    endloop
  endfacet
  facet normal -0.982286 0.187388 -2.73015e-18
    outer loop
      vertex -84.9447 21.8101 18
      vertex -87.0085 10.9917 0
      vertex -87.0085 10.9917 18
    endloop
  endfacet
  facet normal 0 0 1
    outer loop
      vertex 70 0 18
      vertex 87.7 0 18
      vertex 87.0085 10.9917 18
    endloop
  endfacet
  facet normal 0 0 1
    outer loop
      vertex 69.448 8.77333 18
      vertex 87.0085 10.9917 18
      vertex 84.9447 21.8101 18
    endloop
  endfacet
  facet normal 0 0 1
    outer loop
      vertex 87.7 0 18
      vertex 70 0 18
      vertex 87.0085 -10.9917 18
    endloop
  endfacet
  facet normal 0 0 1
    outer loop
      vertex 67.8008 17.4083 18
      vertex 84.9447 21.8101 18
      vertex 81.5414 32.2845 18
    endloop
  endfacet
  facet normal -0 0 1
    outer loop
      vertex 69.448 -8.77333 18
      vertex 87.0085 -10.9917 18
      vertex 70 0 18
    endloop
  endfacet
  facet normal 0 0 1
    outer loop
      vertex 65.0844 25.7687 18
      vertex 81.5414 32.2845 18
      vertex 76.8521 42.2498 18
    endloop
  endfacet
  facet normal 0 0 1
    outer loop
      vertex 87.0085 -10.9917 18
      vertex 69.448 -8.77333 18
      vertex 84.9447 -21.8101 18
    endloop
  endfacet
  facet normal 0 0 1
    outer loop
      vertex 61.3415 33.7228 18
      vertex 76.8521 42.2498 18
      vertex 70.9508 51.5488 18
    endloop
  endfacet
  facet normal -0 0 1
    outer loop
      vertex 67.8008 -17.4083 18
      vertex 84.9447 -21.8101 18
      vertex 69.448 -8.77333 18
    endloop
  endfacet
  facet normal 0 0 1
    outer loop
      vertex 84.9447 -21.8101 18
      vertex 67.8008 -17.4083 18
      vertex 81.5414 -32.2845 18
    endloop
  endfacet
  facet normal 0 0 1
    outer loop
      vertex 87.0085 10.9917 18
      vertex 69.448 8.77333 18
      vertex 70 0 18
    endloop
  endfacet
  facet normal 0 0 1
    outer loop
      vertex 84.9447 21.8101 18
      vertex 67.8008 17.4083 18
      vertex 69.448 8.77333 18
    endloop
  endfacet
  facet normal 0 0 1
    outer loop
      vertex 81.5414 32.2845 18
      vertex 65.0844 25.7687 18
      vertex 67.8008 17.4083 18
    endloop
  endfacet
  facet normal 0 0 1
    outer loop
      vertex 56.6312 41.145 18
      vertex 70.9508 51.5488 18
      vertex 63.9305 60.0348 18
    endloop
  endfacet
  facet normal 0 0 1
    outer loop
      vertex 76.8521 42.2498 18
      vertex 61.3415 33.7228 18
      vertex 65.0844 25.7687 18
    endloop
  endfacet
  facet normal 0 0 1
    outer loop
      vertex 70.9508 51.5488 18
      vertex 56.6312 41.145 18
      vertex 61.3415 33.7228 18
    endloop
  endfacet
  facet normal 0 0 1
    outer loop
      vertex 51.0278 47.9183 18
      vertex 63.9305 60.0348 18
      vertex 55.9021 67.574 18
    endloop
  endfacet
  facet normal 0 0 1
    outer loop
      vertex 63.9305 60.0348 18
      vertex 51.0278 47.9183 18
      vertex 56.6312 41.145 18
    endloop
  endfacet
  facet normal 0 0 1
    outer loop
      vertex 44.6197 53.9359 18
      vertex 55.9021 67.574 18
      vertex 46.992 74.0476 18
    endloop
  endfacet
  facet normal 0 0 1
    outer loop
      vertex 55.9021 67.574 18
      vertex 44.6197 53.9359 18
      vertex 51.0278 47.9183 18
    endloop
  endfacet
  facet normal 0 0 1
    outer loop
      vertex 46.992 74.0476 18
      vertex 37.5079 59.103 18
      vertex 44.6197 53.9359 18
    endloop
  endfacet
  facet normal 0 0 1
    outer loop
      vertex 37.3408 79.3533 18
      vertex 37.5079 59.103 18
      vertex 46.992 74.0476 18
    endloop
  endfacet
  facet normal 0 0 1
    outer loop
      vertex 37.3408 79.3533 18
      vertex 29.8046 63.3379 18
      vertex 37.5079 59.103 18
    endloop
  endfacet
  facet normal 0 0 1
    outer loop
      vertex 27.1008 83.4077 18
      vertex 29.8046 63.3379 18
      vertex 37.3408 79.3533 18
    endloop
  endfacet
  facet normal 0 0 1
    outer loop
      vertex 27.1008 83.4077 18
      vertex 21.6312 66.574 18
      vertex 29.8046 63.3379 18
    endloop
  endfacet
  facet normal 0 0 1
    outer loop
      vertex 16.4333 86.1466 18
      vertex 21.6312 66.574 18
      vertex 27.1008 83.4077 18
    endloop
  endfacet
  facet normal 0 0 1
    outer loop
      vertex 16.4333 86.1466 18
      vertex 13.1167 68.7601 18
      vertex 21.6312 66.574 18
    endloop
  endfacet
  facet normal 0 0 1
    outer loop
      vertex 5.50673 87.5269 18
      vertex 13.1167 68.7601 18
      vertex 16.4333 86.1466 18
    endloop
  endfacet
  facet normal 0 0 1
    outer loop
      vertex 5.50673 87.5269 18
      vertex 4.39534 69.8619 18
      vertex 13.1167 68.7601 18
    endloop
  endfacet
  facet normal 0 0 1
    outer loop
      vertex 5.50673 87.5269 18
      vertex -4.39534 69.8619 18
      vertex 4.39534 69.8619 18
    endloop
  endfacet
  facet normal -0 0 1
    outer loop
      vertex -5.50673 87.5269 18
      vertex -4.39534 69.8619 18
      vertex 5.50673 87.5269 18
    endloop
  endfacet
  facet normal 0 0 1
    outer loop
      vertex -5.50673 87.5269 18
      vertex -13.1167 68.7601 18
      vertex -4.39534 69.8619 18
    endloop
  endfacet
  facet normal -0 0 1
    outer loop
      vertex -16.4333 86.1466 18
      vertex -13.1167 68.7601 18
      vertex -5.50673 87.5269 18
    endloop
  endfacet
  facet normal 0 0 1
    outer loop
      vertex -16.4333 86.1466 18
      vertex -21.6312 66.574 18
      vertex -13.1167 68.7601 18
    endloop
  endfacet
  facet normal -0 0 1
    outer loop
      vertex -27.1008 83.4077 18
      vertex -21.6312 66.574 18
      vertex -16.4333 86.1466 18
    endloop
  endfacet
  facet normal 0 0 1
    outer loop
      vertex -27.1008 83.4077 18
      vertex -29.8046 63.3379 18
      vertex -21.6312 66.574 18
    endloop
  endfacet
  facet normal -0 0 1
    outer loop
      vertex -37.3408 79.3533 18
      vertex -29.8046 63.3379 18
      vertex -27.1008 83.4077 18
    endloop
  endfacet
  facet normal 0 0 1
    outer loop
      vertex -37.3408 79.3533 18
      vertex -37.5079 59.103 18
      vertex -29.8046 63.3379 18
    endloop
  endfacet
  facet normal -0 0 1
    outer loop
      vertex -46.992 74.0476 18
      vertex -37.5079 59.103 18
      vertex -37.3408 79.3533 18
    endloop
  endfacet
  facet normal 0 0 1
    outer loop
      vertex -37.5079 59.103 18
      vertex -46.992 74.0476 18
      vertex -44.6197 53.9359 18
    endloop
  endfacet
  facet normal -0 0 1
    outer loop
      vertex -55.9021 67.574 18
      vertex -44.6197 53.9359 18
      vertex -46.992 74.0476 18
    endloop
  endfacet
  facet normal 0 0 1
    outer loop
      vertex -44.6197 53.9359 18
      vertex -55.9021 67.574 18
      vertex -51.0278 47.9183 18
    endloop
  endfacet
  facet normal -0 0 1
    outer loop
      vertex -63.9305 60.0348 18
      vertex -51.0278 47.9183 18
      vertex -55.9021 67.574 18
    endloop
  endfacet
  facet normal 0 0 1
    outer loop
      vertex -51.0278 47.9183 18
      vertex -63.9305 60.0348 18
      vertex -56.6312 41.145 18
    endloop
  endfacet
  facet normal -0 0 1
    outer loop
      vertex -70.9508 51.5488 18
      vertex -56.6312 41.145 18
      vertex -63.9305 60.0348 18
    endloop
  endfacet
  facet normal 0 0 1
    outer loop
      vertex -56.6312 41.145 18
      vertex -70.9508 51.5488 18
      vertex -61.3415 33.7228 18
    endloop
  endfacet
  facet normal -0 0 1
    outer loop
      vertex -76.8521 42.2498 18
      vertex -61.3415 33.7228 18
      vertex -70.9508 51.5488 18
    endloop
  endfacet
  facet normal 0 0 1
    outer loop
      vertex -61.3415 33.7228 18
      vertex -76.8521 42.2498 18
      vertex -65.0844 25.7687 18
    endloop
  endfacet
  facet normal 0 0 1
    outer loop
      vertex -65.0844 25.7687 18
      vertex -81.5414 32.2845 18
      vertex -67.8008 17.4083 18
    endloop
  endfacet
  facet normal -0 0 1
    outer loop
      vertex -81.5414 32.2845 18
      vertex -65.0844 25.7687 18
      vertex -76.8521 42.2498 18
    endloop
  endfacet
  facet normal -0 0 1
    outer loop
      vertex 65.0844 -25.7687 18
      vertex 81.5414 -32.2845 18
      vertex 67.8008 -17.4083 18
    endloop
  endfacet
  facet normal 0 0 1
    outer loop
      vertex 81.5414 -32.2845 18
      vertex 65.0844 -25.7687 18
      vertex 76.8521 -42.2498 18
    endloop
  endfacet
  facet normal -0 0 1
    outer loop
      vertex 61.3415 -33.7228 18
      vertex 76.8521 -42.2498 18
      vertex 65.0844 -25.7687 18
    endloop
  endfacet
  facet normal 0 0 1
    outer loop
      vertex 76.8521 -42.2498 18
      vertex 61.3415 -33.7228 18
      vertex 70.9508 -51.5488 18
    endloop
  endfacet
  facet normal -0 0 1
    outer loop
      vertex 56.6312 -41.145 18
      vertex 70.9508 -51.5488 18
      vertex 61.3415 -33.7228 18
    endloop
  endfacet
  facet normal 0 0 1
    outer loop
      vertex 70.9508 -51.5488 18
      vertex 56.6312 -41.145 18
      vertex 63.9305 -60.0348 18
    endloop
  endfacet
  facet normal -0 0 1
    outer loop
      vertex 51.0278 -47.9183 18
      vertex 63.9305 -60.0348 18
      vertex 56.6312 -41.145 18
    endloop
  endfacet
  facet normal 0 0 1
    outer loop
      vertex 63.9305 -60.0348 18
      vertex 51.0278 -47.9183 18
      vertex 55.9021 -67.574 18
    endloop
  endfacet
  facet normal -0 0 1
    outer loop
      vertex 44.6197 -53.9359 18
      vertex 55.9021 -67.574 18
      vertex 51.0278 -47.9183 18
    endloop
  endfacet
  facet normal 0 0 1
    outer loop
      vertex 55.9021 -67.574 18
      vertex 44.6197 -53.9359 18
      vertex 46.992 -74.0476 18
    endloop
  endfacet
  facet normal -0 0 1
    outer loop
      vertex 37.5079 -59.103 18
      vertex 46.992 -74.0476 18
      vertex 44.6197 -53.9359 18
    endloop
  endfacet
  facet normal 0 0 1
    outer loop
      vertex 37.5079 -59.103 18
      vertex 37.3408 -79.3533 18
      vertex 46.992 -74.0476 18
    endloop
  endfacet
  facet normal -0 0 1
    outer loop
      vertex 29.8046 -63.3379 18
      vertex 37.3408 -79.3533 18
      vertex 37.5079 -59.103 18
    endloop
  endfacet
  facet normal 0 0 1
    outer loop
      vertex 29.8046 -63.3379 18
      vertex 27.1008 -83.4077 18
      vertex 37.3408 -79.3533 18
    endloop
  endfacet
  facet normal -0 0 1
    outer loop
      vertex 21.6312 -66.574 18
      vertex 27.1008 -83.4077 18
      vertex 29.8046 -63.3379 18
    endloop
  endfacet
  facet normal 0 0 1
    outer loop
      vertex 21.6312 -66.574 18
      vertex 16.4333 -86.1466 18
      vertex 27.1008 -83.4077 18
    endloop
  endfacet
  facet normal -0 0 1
    outer loop
      vertex 13.1167 -68.7601 18
      vertex 16.4333 -86.1466 18
      vertex 21.6312 -66.574 18
    endloop
  endfacet
  facet normal 0 0 1
    outer loop
      vertex 13.1167 -68.7601 18
      vertex 5.50673 -87.5269 18
      vertex 16.4333 -86.1466 18
    endloop
  endfacet
  facet normal -0 0 1
    outer loop
      vertex 4.39534 -69.8619 18
      vertex 5.50673 -87.5269 18
      vertex 13.1167 -68.7601 18
    endloop
  endfacet
  facet normal -0 0 1
    outer loop
      vertex -4.39534 -69.8619 18
      vertex 5.50673 -87.5269 18
      vertex 4.39534 -69.8619 18
    endloop
  endfacet
  facet normal 0 0 1
    outer loop
      vertex -4.39534 -69.8619 18
      vertex -5.50673 -87.5269 18
      vertex 5.50673 -87.5269 18
    endloop
  endfacet
  facet normal 0 0 1
    outer loop
      vertex -13.1167 -68.7601 18
      vertex -5.50673 -87.5269 18
      vertex -4.39534 -69.8619 18
    endloop
  endfacet
  facet normal 0 0 1
    outer loop
      vertex -13.1167 -68.7601 18
      vertex -16.4333 -86.1466 18
      vertex -5.50673 -87.5269 18
    endloop
  endfacet
  facet normal 0 0 1
    outer loop
      vertex -21.6312 -66.574 18
      vertex -16.4333 -86.1466 18
      vertex -13.1167 -68.7601 18
    endloop
  endfacet
  facet normal 0 0 1
    outer loop
      vertex -21.6312 -66.574 18
      vertex -27.1008 -83.4077 18
      vertex -16.4333 -86.1466 18
    endloop
  endfacet
  facet normal 0 0 1
    outer loop
      vertex -29.8046 -63.3379 18
      vertex -27.1008 -83.4077 18
      vertex -21.6312 -66.574 18
    endloop
  endfacet
  facet normal 0 0 1
    outer loop
      vertex -29.8046 -63.3379 18
      vertex -37.3408 -79.3533 18
      vertex -27.1008 -83.4077 18
    endloop
  endfacet
  facet normal 0 0 1
    outer loop
      vertex -37.5079 -59.103 18
      vertex -37.3408 -79.3533 18
      vertex -29.8046 -63.3379 18
    endloop
  endfacet
  facet normal 0 0 1
    outer loop
      vertex -46.992 -74.0476 18
      vertex -37.5079 -59.103 18
      vertex -44.6197 -53.9359 18
    endloop
  endfacet
  facet normal 0 0 1
    outer loop
      vertex -37.5079 -59.103 18
      vertex -46.992 -74.0476 18
      vertex -37.3408 -79.3533 18
    endloop
  endfacet
  facet normal 0 0 1
    outer loop
      vertex -55.9021 -67.574 18
      vertex -44.6197 -53.9359 18
      vertex -51.0278 -47.9183 18
    endloop
  endfacet
  facet normal 0 0 1
    outer loop
      vertex -44.6197 -53.9359 18
      vertex -55.9021 -67.574 18
      vertex -46.992 -74.0476 18
    endloop
  endfacet
  facet normal 0 0 1
    outer loop
      vertex -63.9305 -60.0348 18
      vertex -51.0278 -47.9183 18
      vertex -56.6312 -41.145 18
    endloop
  endfacet
  facet normal 0 0 1
    outer loop
      vertex -70.9508 -51.5488 18
      vertex -56.6312 -41.145 18
      vertex -61.3415 -33.7228 18
    endloop
  endfacet
  facet normal 0 0 1
    outer loop
      vertex -51.0278 -47.9183 18
      vertex -63.9305 -60.0348 18
      vertex -55.9021 -67.574 18
    endloop
  endfacet
  facet normal 0 0 1
    outer loop
      vertex -76.8521 -42.2498 18
      vertex -61.3415 -33.7228 18
      vertex -65.0844 -25.7687 18
    endloop
  endfacet
  facet normal 0 0 1
    outer loop
      vertex -81.5414 -32.2845 18
      vertex -65.0844 -25.7687 18
      vertex -67.8008 -17.4083 18
    endloop
  endfacet
  facet normal 0 0 1
    outer loop
      vertex -84.9447 -21.8101 18
      vertex -67.8008 -17.4083 18
      vertex -69.448 -8.77333 18
    endloop
  endfacet
  facet normal 0 0 1
    outer loop
      vertex -56.6312 -41.145 18
      vertex -70.9508 -51.5488 18
      vertex -63.9305 -60.0348 18
    endloop
  endfacet
  facet normal 0 0 1
    outer loop
      vertex -87.0085 -10.9917 18
      vertex -69.448 -8.77333 18
      vertex -70 0 18
    endloop
  endfacet
  facet normal -0 0 1
    outer loop
      vertex -84.9447 21.8101 18
      vertex -67.8008 17.4083 18
      vertex -81.5414 32.2845 18
    endloop
  endfacet
  facet normal 0 0 1
    outer loop
      vertex -67.8008 17.4083 18
      vertex -84.9447 21.8101 18
      vertex -69.448 8.77333 18
    endloop
  endfacet
  facet normal 0 0 1
    outer loop
      vertex -61.3415 -33.7228 18
      vertex -76.8521 -42.2498 18
      vertex -70.9508 -51.5488 18
    endloop
  endfacet
  facet normal -0 0 1
    outer loop
      vertex -87.0085 10.9917 18
      vertex -69.448 8.77333 18
      vertex -84.9447 21.8101 18
    endloop
  endfacet
  facet normal 0 0 1
    outer loop
      vertex -65.0844 -25.7687 18
      vertex -81.5414 -32.2845 18
      vertex -76.8521 -42.2498 18
    endloop
  endfacet
  facet normal 0 0 1
    outer loop
      vertex -69.448 8.77333 18
      vertex -87.0085 10.9917 18
      vertex -70 0 18
    endloop
  endfacet
  facet normal 0 0 1
    outer loop
      vertex -67.8008 -17.4083 18
      vertex -84.9447 -21.8101 18
      vertex -81.5414 -32.2845 18
    endloop
  endfacet
  facet normal 0 0 1
    outer loop
      vertex -87.7 0 18
      vertex -70 0 18
      vertex -87.0085 10.9917 18
    endloop
  endfacet
  facet normal 0 0 1
    outer loop
      vertex -69.448 -8.77333 18
      vertex -87.0085 -10.9917 18
      vertex -84.9447 -21.8101 18
    endloop
  endfacet
  facet normal 0 0 1
    outer loop
      vertex -70 0 18
      vertex -87.7 0 18
      vertex -87.0085 -10.9917 18
    endloop
  endfacet
  facet normal 0.998027 -0.062787 4.33152e-19
    outer loop
      vertex 87.0085 -10.9917 18
      vertex 87.7 0 0
      vertex 87.7 0 18
    endloop
  endfacet
  facet normal 0.998027 -0.062787 4.33152e-19
    outer loop
      vertex 87.7 0 0
      vertex 87.0085 -10.9917 18
      vertex 87.0085 -10.9917 0
    endloop
  endfacet
  facet normal 0.844329 -0.535825 -2.83516e-18
    outer loop
      vertex 70.9508 -51.5488 18
      vertex 76.8521 -42.2498 0
      vertex 76.8521 -42.2498 18
    endloop
  endfacet
  facet normal 0.844329 -0.535825 -2.83516e-18
    outer loop
      vertex 76.8521 -42.2498 0
      vertex 70.9508 -51.5488 18
      vertex 70.9508 -51.5488 0
    endloop
  endfacet
  facet normal 0.982286 -0.187388 -2.73015e-18
    outer loop
      vertex 84.9447 -21.8101 18
      vertex 87.0085 -10.9917 0
      vertex 87.0085 -10.9917 18
    endloop
  endfacet
  facet normal 0.982286 -0.187388 -2.73015e-18
    outer loop
      vertex 87.0085 -10.9917 0
      vertex 84.9447 -21.8101 18
      vertex 84.9447 -21.8101 0
    endloop
  endfacet
  facet normal -0.368132 -0.929773 0
    outer loop
      vertex -37.3408 -79.3533 0
      vertex -27.1008 -83.4077 18
      vertex -37.3408 -79.3533 18
    endloop
  endfacet
  facet normal -0.368132 -0.929773 -0
    outer loop
      vertex -27.1008 -83.4077 18
      vertex -37.3408 -79.3533 0
      vertex -27.1008 -83.4077 0
    endloop
  endfacet
  facet normal -0.904828 -0.425778 1.56634e-17
    outer loop
      vertex -76.8521 -42.2498 0
      vertex -81.5414 -32.2845 18
      vertex -81.5414 -32.2845 0
    endloop
  endfacet
  facet normal -0.904828 -0.425778 1.56634e-17
    outer loop
      vertex -81.5414 -32.2845 18
      vertex -76.8521 -42.2498 0
      vertex -76.8521 -42.2498 18
    endloop
  endfacet
  facet normal 0 0 -1
    outer loop
      vertex 70 0 0
      vertex 87.7 0 0
      vertex 87.0085 -10.9917 0
    endloop
  endfacet
  facet normal 0 0 -1
    outer loop
      vertex 69.448 -8.77333 0
      vertex 87.0085 -10.9917 0
      vertex 84.9447 -21.8101 0
    endloop
  endfacet
  facet normal 0 0 -1
    outer loop
      vertex 87.7 0 0
      vertex 70 0 0
      vertex 87.0085 10.9917 0
    endloop
  endfacet
  facet normal 0 0 -1
    outer loop
      vertex 67.8008 -17.4083 0
      vertex 84.9447 -21.8101 0
      vertex 81.5414 -32.2845 0
    endloop
  endfacet
  facet normal 0 0 -1
    outer loop
      vertex 69.448 8.77333 0
      vertex 87.0085 10.9917 0
      vertex 70 0 0
    endloop
  endfacet
  facet normal 0 0 -1
    outer loop
      vertex 65.0844 -25.7687 0
      vertex 81.5414 -32.2845 0
      vertex 76.8521 -42.2498 0
    endloop
  endfacet
  facet normal -0 0 -1
    outer loop
      vertex 87.0085 10.9917 0
      vertex 69.448 8.77333 0
      vertex 84.9447 21.8101 0
    endloop
  endfacet
  facet normal 0 0 -1
    outer loop
      vertex 61.3415 -33.7228 0
      vertex 76.8521 -42.2498 0
      vertex 70.9508 -51.5488 0
    endloop
  endfacet
  facet normal 0 0 -1
    outer loop
      vertex 67.8008 17.4083 0
      vertex 84.9447 21.8101 0
      vertex 69.448 8.77333 0
    endloop
  endfacet
  facet normal -0 0 -1
    outer loop
      vertex 84.9447 21.8101 0
      vertex 67.8008 17.4083 0
      vertex 81.5414 32.2845 0
    endloop
  endfacet
  facet normal 0 0 -1
    outer loop
      vertex 87.0085 -10.9917 0
      vertex 69.448 -8.77333 0
      vertex 70 0 0
    endloop
  endfacet
  facet normal 0 0 -1
    outer loop
      vertex 84.9447 -21.8101 0
      vertex 67.8008 -17.4083 0
      vertex 69.448 -8.77333 0
    endloop
  endfacet
  facet normal 0 0 -1
    outer loop
      vertex 81.5414 -32.2845 0
      vertex 65.0844 -25.7687 0
      vertex 67.8008 -17.4083 0
    endloop
  endfacet
  facet normal 0 0 -1
    outer loop
      vertex 56.6312 -41.145 0
      vertex 70.9508 -51.5488 0
      vertex 63.9305 -60.0348 0
    endloop
  endfacet
  facet normal 0 0 -1
    outer loop
      vertex 76.8521 -42.2498 0
      vertex 61.3415 -33.7228 0
      vertex 65.0844 -25.7687 0
    endloop
  endfacet
  facet normal 0 0 -1
    outer loop
      vertex 70.9508 -51.5488 0
      vertex 56.6312 -41.145 0
      vertex 61.3415 -33.7228 0
    endloop
  endfacet
  facet normal 0 0 -1
    outer loop
      vertex 51.0278 -47.9183 0
      vertex 63.9305 -60.0348 0
      vertex 55.9021 -67.574 0
    endloop
  endfacet
  facet normal 0 0 -1
    outer loop
      vertex 63.9305 -60.0348 0
      vertex 51.0278 -47.9183 0
      vertex 56.6312 -41.145 0
    endloop
  endfacet
  facet normal 0 0 -1
    outer loop
      vertex 44.6197 -53.9359 0
      vertex 55.9021 -67.574 0
      vertex 46.992 -74.0476 0
    endloop
  endfacet
  facet normal 0 0 -1
    outer loop
      vertex 55.9021 -67.574 0
      vertex 44.6197 -53.9359 0
      vertex 51.0278 -47.9183 0
    endloop
  endfacet
  facet normal 0 0 -1
    outer loop
      vertex 46.992 -74.0476 0
      vertex 37.5079 -59.103 0
      vertex 44.6197 -53.9359 0
    endloop
  endfacet
  facet normal 0 0 -1
    outer loop
      vertex 37.3408 -79.3533 0
      vertex 37.5079 -59.103 0
      vertex 46.992 -74.0476 0
    endloop
  endfacet
  facet normal 0 0 -1
    outer loop
      vertex 37.3408 -79.3533 0
      vertex 29.8046 -63.3379 0
      vertex 37.5079 -59.103 0
    endloop
  endfacet
  facet normal 0 0 -1
    outer loop
      vertex 27.1008 -83.4077 0
      vertex 29.8046 -63.3379 0
      vertex 37.3408 -79.3533 0
    endloop
  endfacet
  facet normal 0 0 -1
    outer loop
      vertex 27.1008 -83.4077 0
      vertex 21.6312 -66.574 0
      vertex 29.8046 -63.3379 0
    endloop
  endfacet
  facet normal 0 0 -1
    outer loop
      vertex 16.4333 -86.1466 0
      vertex 21.6312 -66.574 0
      vertex 27.1008 -83.4077 0
    endloop
  endfacet
  facet normal 0 0 -1
    outer loop
      vertex 16.4333 -86.1466 0
      vertex 13.1167 -68.7601 0
      vertex 21.6312 -66.574 0
    endloop
  endfacet
  facet normal 0 0 -1
    outer loop
      vertex 5.50673 -87.5269 0
      vertex 13.1167 -68.7601 0
      vertex 16.4333 -86.1466 0
    endloop
  endfacet
  facet normal 0 0 -1
    outer loop
      vertex 5.50673 -87.5269 0
      vertex 4.39534 -69.8619 0
      vertex 13.1167 -68.7601 0
    endloop
  endfacet
  facet normal 0 0 -1
    outer loop
      vertex 5.50673 -87.5269 0
      vertex -4.39534 -69.8619 0
      vertex 4.39534 -69.8619 0
    endloop
  endfacet
  facet normal 0 0 -1
    outer loop
      vertex -5.50673 -87.5269 0
      vertex -4.39534 -69.8619 0
      vertex 5.50673 -87.5269 0
    endloop
  endfacet
  facet normal 0 0 -1
    outer loop
      vertex -5.50673 -87.5269 0
      vertex -13.1167 -68.7601 0
      vertex -4.39534 -69.8619 0
    endloop
  endfacet
  facet normal 0 0 -1
    outer loop
      vertex -16.4333 -86.1466 0
      vertex -13.1167 -68.7601 0
      vertex -5.50673 -87.5269 0
    endloop
  endfacet
  facet normal 0 0 -1
    outer loop
      vertex -16.4333 -86.1466 0
      vertex -21.6312 -66.574 0
      vertex -13.1167 -68.7601 0
    endloop
  endfacet
  facet normal 0 0 -1
    outer loop
      vertex -27.1008 -83.4077 0
      vertex -21.6312 -66.574 0
      vertex -16.4333 -86.1466 0
    endloop
  endfacet
  facet normal 0 0 -1
    outer loop
      vertex -27.1008 -83.4077 0
      vertex -29.8046 -63.3379 0
      vertex -21.6312 -66.574 0
    endloop
  endfacet
  facet normal 0 0 -1
    outer loop
      vertex -37.3408 -79.3533 0
      vertex -29.8046 -63.3379 0
      vertex -27.1008 -83.4077 0
    endloop
  endfacet
  facet normal 0 0 -1
    outer loop
      vertex -37.3408 -79.3533 0
      vertex -37.5079 -59.103 0
      vertex -29.8046 -63.3379 0
    endloop
  endfacet
  facet normal 0 0 -1
    outer loop
      vertex -46.992 -74.0476 0
      vertex -37.5079 -59.103 0
      vertex -37.3408 -79.3533 0
    endloop
  endfacet
  facet normal -0 0 -1
    outer loop
      vertex -37.5079 -59.103 0
      vertex -46.992 -74.0476 0
      vertex -44.6197 -53.9359 0
    endloop
  endfacet
  facet normal 0 0 -1
    outer loop
      vertex -55.9021 -67.574 0
      vertex -44.6197 -53.9359 0
      vertex -46.992 -74.0476 0
    endloop
  endfacet
  facet normal -0 0 -1
    outer loop
      vertex -44.6197 -53.9359 0
      vertex -55.9021 -67.574 0
      vertex -51.0278 -47.9183 0
    endloop
  endfacet
  facet normal 0 0 -1
    outer loop
      vertex -63.9305 -60.0348 0
      vertex -51.0278 -47.9183 0
      vertex -55.9021 -67.574 0
    endloop
  endfacet
  facet normal -0 0 -1
    outer loop
      vertex -51.0278 -47.9183 0
      vertex -63.9305 -60.0348 0
      vertex -56.6312 -41.145 0
    endloop
  endfacet
  facet normal 0 0 -1
    outer loop
      vertex -70.9508 -51.5488 0
      vertex -56.6312 -41.145 0
      vertex -63.9305 -60.0348 0
    endloop
  endfacet
  facet normal -0 0 -1
    outer loop
      vertex -56.6312 -41.145 0
      vertex -70.9508 -51.5488 0
      vertex -61.3415 -33.7228 0
    endloop
  endfacet
  facet normal 0 0 -1
    outer loop
      vertex -76.8521 -42.2498 0
      vertex -61.3415 -33.7228 0
      vertex -70.9508 -51.5488 0
    endloop
  endfacet
  facet normal -0 0 -1
    outer loop
      vertex -61.3415 -33.7228 0
      vertex -76.8521 -42.2498 0
      vertex -65.0844 -25.7687 0
    endloop
  endfacet
  facet normal -0 0 -1
    outer loop
      vertex -65.0844 -25.7687 0
      vertex -81.5414 -32.2845 0
      vertex -67.8008 -17.4083 0
    endloop
  endfacet
  facet normal 0 0 -1
    outer loop
      vertex -81.5414 -32.2845 0
      vertex -65.0844 -25.7687 0
      vertex -76.8521 -42.2498 0
    endloop
  endfacet
  facet normal 0 0 -1
    outer loop
      vertex 65.0844 25.7687 0
      vertex 81.5414 32.2845 0
      vertex 67.8008 17.4083 0
    endloop
  endfacet
  facet normal -0 0 -1
    outer loop
      vertex 81.5414 32.2845 0
      vertex 65.0844 25.7687 0
      vertex 76.8521 42.2498 0
    endloop
  endfacet
  facet normal 0 0 -1
    outer loop
      vertex 61.3415 33.7228 0
      vertex 76.8521 42.2498 0
      vertex 65.0844 25.7687 0
    endloop
  endfacet
  facet normal -0 0 -1
    outer loop
      vertex 76.8521 42.2498 0
      vertex 61.3415 33.7228 0
      vertex 70.9508 51.5488 0
    endloop
  endfacet
  facet normal 0 0 -1
    outer loop
      vertex 56.6312 41.145 0
      vertex 70.9508 51.5488 0
      vertex 61.3415 33.7228 0
    endloop
  endfacet
  facet normal -0 0 -1
    outer loop
      vertex 70.9508 51.5488 0
      vertex 56.6312 41.145 0
      vertex 63.9305 60.0348 0
    endloop
  endfacet
  facet normal 0 0 -1
    outer loop
      vertex 51.0278 47.9183 0
      vertex 63.9305 60.0348 0
      vertex 56.6312 41.145 0
    endloop
  endfacet
  facet normal -0 0 -1
    outer loop
      vertex 63.9305 60.0348 0
      vertex 51.0278 47.9183 0
      vertex 55.9021 67.574 0
    endloop
  endfacet
  facet normal 0 0 -1
    outer loop
      vertex 44.6197 53.9359 0
      vertex 55.9021 67.574 0
      vertex 51.0278 47.9183 0
    endloop
  endfacet
  facet normal -0 0 -1
    outer loop
      vertex 55.9021 67.574 0
      vertex 44.6197 53.9359 0
      vertex 46.992 74.0476 0
    endloop
  endfacet
  facet normal 0 0 -1
    outer loop
      vertex 37.5079 59.103 0
      vertex 46.992 74.0476 0
      vertex 44.6197 53.9359 0
    endloop
  endfacet
  facet normal 0 0 -1
    outer loop
      vertex 37.5079 59.103 0
      vertex 37.3408 79.3533 0
      vertex 46.992 74.0476 0
    endloop
  endfacet
  facet normal 0 0 -1
    outer loop
      vertex 29.8046 63.3379 0
      vertex 37.3408 79.3533 0
      vertex 37.5079 59.103 0
    endloop
  endfacet
  facet normal 0 0 -1
    outer loop
      vertex 29.8046 63.3379 0
      vertex 27.1008 83.4077 0
      vertex 37.3408 79.3533 0
    endloop
  endfacet
  facet normal 0 0 -1
    outer loop
      vertex 21.6312 66.574 0
      vertex 27.1008 83.4077 0
      vertex 29.8046 63.3379 0
    endloop
  endfacet
  facet normal 0 0 -1
    outer loop
      vertex 21.6312 66.574 0
      vertex 16.4333 86.1466 0
      vertex 27.1008 83.4077 0
    endloop
  endfacet
  facet normal 0 0 -1
    outer loop
      vertex 13.1167 68.7601 0
      vertex 16.4333 86.1466 0
      vertex 21.6312 66.574 0
    endloop
  endfacet
  facet normal 0 0 -1
    outer loop
      vertex 13.1167 68.7601 0
      vertex 5.50673 87.5269 0
      vertex 16.4333 86.1466 0
    endloop
  endfacet
  facet normal 0 0 -1
    outer loop
      vertex 4.39534 69.8619 0
      vertex 5.50673 87.5269 0
      vertex 13.1167 68.7601 0
    endloop
  endfacet
  facet normal 0 0 -1
    outer loop
      vertex -4.39534 69.8619 0
      vertex 5.50673 87.5269 0
      vertex 4.39534 69.8619 0
    endloop
  endfacet
  facet normal 0 0 -1
    outer loop
      vertex -4.39534 69.8619 0
      vertex -5.50673 87.5269 0
      vertex 5.50673 87.5269 0
    endloop
  endfacet
  facet normal 0 0 -1
    outer loop
      vertex -13.1167 68.7601 0
      vertex -5.50673 87.5269 0
      vertex -4.39534 69.8619 0
    endloop
  endfacet
  facet normal 0 0 -1
    outer loop
      vertex -13.1167 68.7601 0
      vertex -16.4333 86.1466 0
      vertex -5.50673 87.5269 0
    endloop
  endfacet
  facet normal 0 0 -1
    outer loop
      vertex -21.6312 66.574 0
      vertex -16.4333 86.1466 0
      vertex -13.1167 68.7601 0
    endloop
  endfacet
  facet normal 0 0 -1
    outer loop
      vertex -21.6312 66.574 0
      vertex -27.1008 83.4077 0
      vertex -16.4333 86.1466 0
    endloop
  endfacet
  facet normal 0 0 -1
    outer loop
      vertex -29.8046 63.3379 0
      vertex -27.1008 83.4077 0
      vertex -21.6312 66.574 0
    endloop
  endfacet
  facet normal 0 0 -1
    outer loop
      vertex -29.8046 63.3379 0
      vertex -37.3408 79.3533 0
      vertex -27.1008 83.4077 0
    endloop
  endfacet
  facet normal 0 0 -1
    outer loop
      vertex -37.5079 59.103 0
      vertex -37.3408 79.3533 0
      vertex -29.8046 63.3379 0
    endloop
  endfacet
  facet normal 0 0 -1
    outer loop
      vertex -46.992 74.0476 0
      vertex -37.5079 59.103 0
      vertex -44.6197 53.9359 0
    endloop
  endfacet
  facet normal 0 0 -1
    outer loop
      vertex -37.5079 59.103 0
      vertex -46.992 74.0476 0
      vertex -37.3408 79.3533 0
    endloop
  endfacet
  facet normal 0 0 -1
    outer loop
      vertex -55.9021 67.574 0
      vertex -44.6197 53.9359 0
      vertex -51.0278 47.9183 0
    endloop
  endfacet
  facet normal 0 0 -1
    outer loop
      vertex -44.6197 53.9359 0
      vertex -55.9021 67.574 0
      vertex -46.992 74.0476 0
    endloop
  endfacet
  facet normal 0 0 -1
    outer loop
      vertex -63.9305 60.0348 0
      vertex -51.0278 47.9183 0
      vertex -56.6312 41.145 0
    endloop
  endfacet
  facet normal 0 0 -1
    outer loop
      vertex -70.9508 51.5488 0
      vertex -56.6312 41.145 0
      vertex -61.3415 33.7228 0
    endloop
  endfacet
  facet normal 0 0 -1
    outer loop
      vertex -51.0278 47.9183 0
      vertex -63.9305 60.0348 0
      vertex -55.9021 67.574 0
    endloop
  endfacet
  facet normal 0 0 -1
    outer loop
      vertex -76.8521 42.2498 0
      vertex -61.3415 33.7228 0
      vertex -65.0844 25.7687 0
    endloop
  endfacet
  facet normal 0 0 -1
    outer loop
      vertex -81.5414 32.2845 0
      vertex -65.0844 25.7687 0
      vertex -67.8008 17.4083 0
    endloop
  endfacet
  facet normal 0 0 -1
    outer loop
      vertex -84.9447 21.8101 0
      vertex -67.8008 17.4083 0
      vertex -69.448 8.77333 0
    endloop
  endfacet
  facet normal 0 0 -1
    outer loop
      vertex -56.6312 41.145 0
      vertex -70.9508 51.5488 0
      vertex -63.9305 60.0348 0
    endloop
  endfacet
  facet normal 0 0 -1
    outer loop
      vertex -87.0085 10.9917 0
      vertex -69.448 8.77333 0
      vertex -70 0 0
    endloop
  endfacet
  facet normal 0 0 -1
    outer loop
      vertex -84.9447 -21.8101 0
      vertex -67.8008 -17.4083 0
      vertex -81.5414 -32.2845 0
    endloop
  endfacet
  facet normal -0 0 -1
    outer loop
      vertex -67.8008 -17.4083 0
      vertex -84.9447 -21.8101 0
      vertex -69.448 -8.77333 0
    endloop
  endfacet
  facet normal 0 0 -1
    outer loop
      vertex -61.3415 33.7228 0
      vertex -76.8521 42.2498 0
      vertex -70.9508 51.5488 0
    endloop
  endfacet
  facet normal 0 0 -1
    outer loop
      vertex -87.0085 -10.9917 0
      vertex -69.448 -8.77333 0
      vertex -84.9447 -21.8101 0
    endloop
  endfacet
  facet normal 0 0 -1
    outer loop
      vertex -65.0844 25.7687 0
      vertex -81.5414 32.2845 0
      vertex -76.8521 42.2498 0
    endloop
  endfacet
  facet normal -0 0 -1
    outer loop
      vertex -69.448 -8.77333 0
      vertex -87.0085 -10.9917 0
      vertex -70 0 0
    endloop
  endfacet
  facet normal 0 0 -1
    outer loop
      vertex -67.8008 17.4083 0
      vertex -84.9447 21.8101 0
      vertex -81.5414 32.2845 0
    endloop
  endfacet
  facet normal 0 0 -1
    outer loop
      vertex -87.7 0 0
      vertex -70 0 0
      vertex -87.0085 -10.9917 0
    endloop
  endfacet
  facet normal 0 0 -1
    outer loop
      vertex -69.448 8.77333 0
      vertex -87.0085 10.9917 0
      vertex -84.9447 21.8101 0
    endloop
  endfacet
  facet normal 0 0 -1
    outer loop
      vertex -70 0 0
      vertex -87.7 0 0
      vertex -87.0085 10.9917 0
    endloop
  endfacet
  facet normal 0.587787 -0.809016 0
    outer loop
      vertex 46.992 -74.0476 0
      vertex 55.9021 -67.574 18
      vertex 46.992 -74.0476 18
    endloop
  endfacet
  facet normal 0.587787 -0.809016 0
    outer loop
      vertex 55.9021 -67.574 18
      vertex 46.992 -74.0476 0
      vertex 55.9021 -67.574 0
    endloop
  endfacet
  facet normal 0.368132 -0.929773 0
    outer loop
      vertex 27.1008 -83.4077 0
      vertex 37.3408 -79.3533 18
      vertex 27.1008 -83.4077 18
    endloop
  endfacet
  facet normal 0.368132 -0.929773 0
    outer loop
      vertex 37.3408 -79.3533 18
      vertex 27.1008 -83.4077 0
      vertex 37.3408 -79.3533 0
    endloop
  endfacet
  facet normal 0.481747 0.87631 -0
    outer loop
      vertex 46.992 74.0476 0
      vertex 37.3408 79.3533 18
      vertex 46.992 74.0476 18
    endloop
  endfacet
  facet normal 0.481747 0.87631 0
    outer loop
      vertex 37.3408 79.3533 18
      vertex 46.992 74.0476 0
      vertex 37.3408 79.3533 0
    endloop
  endfacet
  facet normal -0.587787 0.809016 0
    outer loop
      vertex -46.992 74.0476 0
      vertex -55.9021 67.574 18
      vertex -46.992 74.0476 18
    endloop
  endfacet
  facet normal -0.587787 0.809016 0
    outer loop
      vertex -55.9021 67.574 18
      vertex -46.992 74.0476 0
      vertex -55.9021 67.574 0
    endloop
  endfacet
  facet normal -0.248686 0.968584 0
    outer loop
      vertex -16.4333 86.1466 0
      vertex -27.1008 83.4077 18
      vertex -16.4333 86.1466 18
    endloop
  endfacet
  facet normal -0.248686 0.968584 0
    outer loop
      vertex -27.1008 83.4077 18
      vertex -16.4333 86.1466 0
      vertex -27.1008 83.4077 0
    endloop
  endfacet
  facet normal 0.951058 -0.309014 -1.20933e-17
    outer loop
      vertex 81.5414 -32.2845 18
      vertex 84.9447 -21.8101 0
      vertex 84.9447 -21.8101 18
    endloop
  endfacet
  facet normal 0.951058 -0.309014 -1.20933e-17
    outer loop
      vertex 84.9447 -21.8101 0
      vertex 81.5414 -32.2845 18
      vertex 81.5414 -32.2845 0
    endloop
  endfacet
  facet normal 0.904828 -0.425778 -1.56634e-17
    outer loop
      vertex 76.8521 -42.2498 18
      vertex 81.5414 -32.2845 0
      vertex 81.5414 -32.2845 18
    endloop
  endfacet
  facet normal 0.904828 -0.425778 -1.56634e-17
    outer loop
      vertex 81.5414 -32.2845 0
      vertex 76.8521 -42.2498 18
      vertex 76.8521 -42.2498 0
    endloop
  endfacet
  facet normal -0.951058 -0.309014 1.20933e-17
    outer loop
      vertex -81.5414 -32.2845 0
      vertex -84.9447 -21.8101 18
      vertex -84.9447 -21.8101 0
    endloop
  endfacet
  facet normal -0.951058 -0.309014 1.20933e-17
    outer loop
      vertex -84.9447 -21.8101 18
      vertex -81.5414 -32.2845 0
      vertex -81.5414 -32.2845 18
    endloop
  endfacet
  facet normal 0.684549 -0.728967 0
    outer loop
      vertex 55.9021 -67.574 0
      vertex 63.9305 -60.0348 18
      vertex 55.9021 -67.574 18
    endloop
  endfacet
  facet normal 0.684549 -0.728967 0
    outer loop
      vertex 63.9305 -60.0348 18
      vertex 55.9021 -67.574 0
      vertex 63.9305 -60.0348 0
    endloop
  endfacet
  facet normal 0.481747 -0.87631 0
    outer loop
      vertex 37.3408 -79.3533 0
      vertex 46.992 -74.0476 18
      vertex 37.3408 -79.3533 18
    endloop
  endfacet
  facet normal 0.481747 -0.87631 0
    outer loop
      vertex 46.992 -74.0476 18
      vertex 37.3408 -79.3533 0
      vertex 46.992 -74.0476 0
    endloop
  endfacet
  facet normal 0.248686 -0.968584 0
    outer loop
      vertex 16.4333 -86.1466 0
      vertex 27.1008 -83.4077 18
      vertex 16.4333 -86.1466 18
    endloop
  endfacet
  facet normal 0.248686 -0.968584 0
    outer loop
      vertex 27.1008 -83.4077 18
      vertex 16.4333 -86.1466 0
      vertex 27.1008 -83.4077 0
    endloop
  endfacet
  facet normal -0.125329 -0.992115 0
    outer loop
      vertex -16.4333 -86.1466 0
      vertex -5.50673 -87.5269 18
      vertex -16.4333 -86.1466 18
    endloop
  endfacet
  facet normal -0.125329 -0.992115 -0
    outer loop
      vertex -5.50673 -87.5269 18
      vertex -16.4333 -86.1466 0
      vertex -5.50673 -87.5269 0
    endloop
  endfacet
  facet normal -0.481747 -0.87631 0
    outer loop
      vertex -46.992 -74.0476 0
      vertex -37.3408 -79.3533 18
      vertex -46.992 -74.0476 18
    endloop
  endfacet
  facet normal -0.481747 -0.87631 -0
    outer loop
      vertex -37.3408 -79.3533 18
      vertex -46.992 -74.0476 0
      vertex -37.3408 -79.3533 0
    endloop
  endfacet
  facet normal -0.248686 -0.968584 0
    outer loop
      vertex -27.1008 -83.4077 0
      vertex -16.4333 -86.1466 18
      vertex -27.1008 -83.4077 18
    endloop
  endfacet
  facet normal -0.248686 -0.968584 -0
    outer loop
      vertex -16.4333 -86.1466 18
      vertex -27.1008 -83.4077 0
      vertex -16.4333 -86.1466 0
    endloop
  endfacet
  facet normal -0.684549 -0.728967 0
    outer loop
      vertex -63.9305 -60.0348 0
      vertex -55.9021 -67.574 18
      vertex -63.9305 -60.0348 18
    endloop
  endfacet
  facet normal -0.684549 -0.728967 -0
    outer loop
      vertex -55.9021 -67.574 18
      vertex -63.9305 -60.0348 0
      vertex -55.9021 -67.574 0
    endloop
  endfacet
  facet normal -0.77051 -0.637428 -3.23769e-18
    outer loop
      vertex -63.9305 -60.0348 0
      vertex -70.9508 -51.5488 18
      vertex -70.9508 -51.5488 0
    endloop
  endfacet
  facet normal -0.77051 -0.637428 -3.23769e-18
    outer loop
      vertex -70.9508 -51.5488 18
      vertex -63.9305 -60.0348 0
      vertex -63.9305 -60.0348 18
    endloop
  endfacet
  facet normal -0.844329 -0.535825 2.83516e-18
    outer loop
      vertex -70.9508 -51.5488 0
      vertex -76.8521 -42.2498 18
      vertex -76.8521 -42.2498 0
    endloop
  endfacet
  facet normal -0.844329 -0.535825 2.83516e-18
    outer loop
      vertex -76.8521 -42.2498 18
      vertex -70.9508 -51.5488 0
      vertex -70.9508 -51.5488 18
    endloop
  endfacet
  facet normal -0.982286 -0.187388 2.73015e-18
    outer loop
      vertex -84.9447 -21.8101 0
      vertex -87.0085 -10.9917 18
      vertex -87.0085 -10.9917 0
    endloop
  endfacet
  facet normal -0.982286 -0.187388 2.73015e-18
    outer loop
      vertex -87.0085 -10.9917 18
      vertex -84.9447 -21.8101 0
      vertex -84.9447 -21.8101 18
    endloop
  endfacet
  facet normal -0.998027 -0.062787 -4.33152e-19
    outer loop
      vertex -87.0085 -10.9917 0
      vertex -87.7 0 18
      vertex -87.7 0 0
    endloop
  endfacet
  facet normal -0.998027 -0.062787 -4.33152e-19
    outer loop
      vertex -87.7 0 18
      vertex -87.0085 -10.9917 0
      vertex -87.0085 -10.9917 18
    endloop
  endfacet
  facet normal 0.77051 -0.637428 3.23769e-18
    outer loop
      vertex 63.9305 -60.0348 18
      vertex 70.9508 -51.5488 0
      vertex 70.9508 -51.5488 18
    endloop
  endfacet
  facet normal 0.77051 -0.637428 3.23769e-18
    outer loop
      vertex 70.9508 -51.5488 0
      vertex 63.9305 -60.0348 18
      vertex 63.9305 -60.0348 0
    endloop
  endfacet
  facet normal -0.587787 -0.809016 0
    outer loop
      vertex -55.9021 -67.574 0
      vertex -46.992 -74.0476 18
      vertex -55.9021 -67.574 18
    endloop
  endfacet
  facet normal -0.587787 -0.809016 -0
    outer loop
      vertex -46.992 -74.0476 18
      vertex -55.9021 -67.574 0
      vertex -46.992 -74.0476 0
    endloop
  endfacet
  facet normal -0.998027 -0.0627938 1.97611e-18
    outer loop
      vertex 70 0 0
      vertex 69.448 8.77333 18
      vertex 69.448 8.77333 0
    endloop
  endfacet
  facet normal -0.998027 -0.0627938 1.97611e-18
    outer loop
      vertex 69.448 8.77333 18
      vertex 70 0 0
      vertex 70 0 18
    endloop
  endfacet
  facet normal 0.998027 -0.0627938 -1.97611e-18
    outer loop
      vertex -70 0 18
      vertex -69.448 8.77333 0
      vertex -69.448 8.77333 18
    endloop
  endfacet
  facet normal 0.998027 -0.0627938 -1.97611e-18
    outer loop
      vertex -69.448 8.77333 0
      vertex -70 0 18
      vertex -70 0 0
    endloop
  endfacet
  facet normal 0 -1 0
    outer loop
      vertex -4.39534 69.8619 0
      vertex 4.39534 69.8619 18
      vertex -4.39534 69.8619 18
    endloop
  endfacet
  facet normal 0 -1 -0
    outer loop
      vertex 4.39534 69.8619 18
      vertex -4.39534 69.8619 0
      vertex 4.39534 69.8619 0
    endloop
  endfacet
  facet normal -0.684547 -0.728969 0
    outer loop
      vertex 44.6197 53.9359 0
      vertex 51.0278 47.9183 18
      vertex 44.6197 53.9359 18
    endloop
  endfacet
  facet normal -0.684547 -0.728969 -0
    outer loop
      vertex 51.0278 47.9183 18
      vertex 44.6197 53.9359 0
      vertex 51.0278 47.9183 0
    endloop
  endfacet
  facet normal 0.684547 -0.728969 0
    outer loop
      vertex -51.0278 47.9183 0
      vertex -44.6197 53.9359 18
      vertex -51.0278 47.9183 18
    endloop
  endfacet
  facet normal 0.684547 -0.728969 0
    outer loop
      vertex -44.6197 53.9359 18
      vertex -51.0278 47.9183 0
      vertex -44.6197 53.9359 0
    endloop
  endfacet
  facet normal 0.368127 -0.929776 0
    outer loop
      vertex -29.8046 63.3379 0
      vertex -21.6312 66.574 18
      vertex -29.8046 63.3379 18
    endloop
  endfacet
  facet normal 0.368127 -0.929776 0
    outer loop
      vertex -21.6312 66.574 18
      vertex -29.8046 63.3379 0
      vertex -21.6312 66.574 0
    endloop
  endfacet
  facet normal -0.904828 -0.425778 1.09631e-20
    outer loop
      vertex 65.0844 25.7687 0
      vertex 61.3415 33.7228 18
      vertex 61.3415 33.7228 0
    endloop
  endfacet
  facet normal -0.904828 -0.425778 1.09631e-20
    outer loop
      vertex 61.3415 33.7228 18
      vertex 65.0844 25.7687 0
      vertex 65.0844 25.7687 18
    endloop
  endfacet
  facet normal -0.844326 -0.535829 -2.21675e-17
    outer loop
      vertex 61.3415 33.7228 0
      vertex 56.6312 41.145 18
      vertex 56.6312 41.145 0
    endloop
  endfacet
  facet normal -0.844326 -0.535829 -2.21675e-17
    outer loop
      vertex 56.6312 41.145 18
      vertex 61.3415 33.7228 0
      vertex 61.3415 33.7228 18
    endloop
  endfacet
  facet normal -0.368127 -0.929776 0
    outer loop
      vertex 21.6312 66.574 0
      vertex 29.8046 63.3379 18
      vertex 21.6312 66.574 18
    endloop
  endfacet
  facet normal -0.368127 -0.929776 -0
    outer loop
      vertex 29.8046 63.3379 18
      vertex 21.6312 66.574 0
      vertex 29.8046 63.3379 0
    endloop
  endfacet
  facet normal -0.587791 -0.809013 0
    outer loop
      vertex 37.5079 59.103 0
      vertex 44.6197 53.9359 18
      vertex 37.5079 59.103 18
    endloop
  endfacet
  facet normal -0.587791 -0.809013 -0
    outer loop
      vertex 44.6197 53.9359 18
      vertex 37.5079 59.103 0
      vertex 44.6197 53.9359 0
    endloop
  endfacet
  facet normal 0.844326 -0.535829 2.21675e-17
    outer loop
      vertex -61.3415 33.7228 18
      vertex -56.6312 41.145 0
      vertex -56.6312 41.145 18
    endloop
  endfacet
  facet normal 0.844326 -0.535829 2.21675e-17
    outer loop
      vertex -56.6312 41.145 0
      vertex -61.3415 33.7228 18
      vertex -61.3415 33.7228 0
    endloop
  endfacet
  facet normal 0.770511 -0.637427 1.52388e-17
    outer loop
      vertex -56.6312 41.145 18
      vertex -51.0278 47.9183 0
      vertex -51.0278 47.9183 18
    endloop
  endfacet
  facet normal 0.770511 -0.637427 1.52388e-17
    outer loop
      vertex -51.0278 47.9183 0
      vertex -56.6312 41.145 18
      vertex -56.6312 41.145 0
    endloop
  endfacet
  facet normal 0.982287 -0.18738 -4.80186e-18
    outer loop
      vertex -69.448 8.77333 18
      vertex -67.8008 17.4083 0
      vertex -67.8008 17.4083 18
    endloop
  endfacet
  facet normal 0.982287 -0.18738 -4.80186e-18
    outer loop
      vertex -67.8008 17.4083 0
      vertex -69.448 8.77333 18
      vertex -69.448 8.77333 0
    endloop
  endfacet
  facet normal 0.587791 -0.809013 0
    outer loop
      vertex -44.6197 53.9359 0
      vertex -37.5079 59.103 18
      vertex -44.6197 53.9359 18
    endloop
  endfacet
  facet normal 0.587791 -0.809013 0
    outer loop
      vertex -37.5079 59.103 18
      vertex -44.6197 53.9359 0
      vertex -37.5079 59.103 0
    endloop
  endfacet
  facet normal 0.125337 -0.992114 0
    outer loop
      vertex -13.1167 68.7601 0
      vertex -4.39534 69.8619 18
      vertex -13.1167 68.7601 18
    endloop
  endfacet
  facet normal 0.125337 -0.992114 0
    outer loop
      vertex -4.39534 69.8619 18
      vertex -13.1167 68.7601 0
      vertex -4.39534 69.8619 0
    endloop
  endfacet
  facet normal -0.998027 0.0627938 -1.97611e-18
    outer loop
      vertex 69.448 -8.77333 0
      vertex 70 0 18
      vertex 70 0 0
    endloop
  endfacet
  facet normal -0.998027 0.0627938 -1.97611e-18
    outer loop
      vertex 70 0 18
      vertex 69.448 -8.77333 0
      vertex 69.448 -8.77333 18
    endloop
  endfacet
  facet normal -0.125337 0.992114 0
    outer loop
      vertex 13.1167 -68.7601 0
      vertex 4.39534 -69.8619 18
      vertex 13.1167 -68.7601 18
    endloop
  endfacet
  facet normal -0.125337 0.992114 0
    outer loop
      vertex 4.39534 -69.8619 18
      vertex 13.1167 -68.7601 0
      vertex 4.39534 -69.8619 0
    endloop
  endfacet
  facet normal -0.951058 -0.309011 4.98826e-18
    outer loop
      vertex 67.8008 17.4083 0
      vertex 65.0844 25.7687 18
      vertex 65.0844 25.7687 0
    endloop
  endfacet
  facet normal -0.951058 -0.309011 4.98826e-18
    outer loop
      vertex 65.0844 25.7687 18
      vertex 67.8008 17.4083 0
      vertex 67.8008 17.4083 18
    endloop
  endfacet
  facet normal -0.982287 -0.18738 4.80186e-18
    outer loop
      vertex 69.448 8.77333 0
      vertex 67.8008 17.4083 18
      vertex 67.8008 17.4083 0
    endloop
  endfacet
  facet normal -0.982287 -0.18738 4.80186e-18
    outer loop
      vertex 67.8008 17.4083 18
      vertex 69.448 8.77333 0
      vertex 69.448 8.77333 18
    endloop
  endfacet
  facet normal -0.770511 -0.637427 -1.52388e-17
    outer loop
      vertex 56.6312 41.145 0
      vertex 51.0278 47.9183 18
      vertex 51.0278 47.9183 0
    endloop
  endfacet
  facet normal -0.770511 -0.637427 -1.52388e-17
    outer loop
      vertex 51.0278 47.9183 18
      vertex 56.6312 41.145 0
      vertex 56.6312 41.145 18
    endloop
  endfacet
  facet normal -0.248684 -0.968585 0
    outer loop
      vertex 13.1167 68.7601 0
      vertex 21.6312 66.574 18
      vertex 13.1167 68.7601 18
    endloop
  endfacet
  facet normal -0.248684 -0.968585 -0
    outer loop
      vertex 21.6312 66.574 18
      vertex 13.1167 68.7601 0
      vertex 21.6312 66.574 0
    endloop
  endfacet
  facet normal -0.125337 -0.992114 0
    outer loop
      vertex 4.39534 69.8619 0
      vertex 13.1167 68.7601 18
      vertex 4.39534 69.8619 18
    endloop
  endfacet
  facet normal -0.125337 -0.992114 -0
    outer loop
      vertex 13.1167 68.7601 18
      vertex 4.39534 69.8619 0
      vertex 13.1167 68.7601 0
    endloop
  endfacet
  facet normal -0.481751 -0.876308 0
    outer loop
      vertex 29.8046 63.3379 0
      vertex 37.5079 59.103 18
      vertex 29.8046 63.3379 18
    endloop
  endfacet
  facet normal -0.481751 -0.876308 -0
    outer loop
      vertex 37.5079 59.103 18
      vertex 29.8046 63.3379 0
      vertex 37.5079 59.103 0
    endloop
  endfacet
  facet normal 0.904828 -0.425778 -1.09631e-20
    outer loop
      vertex -65.0844 25.7687 18
      vertex -61.3415 33.7228 0
      vertex -61.3415 33.7228 18
    endloop
  endfacet
  facet normal 0.904828 -0.425778 -1.09631e-20
    outer loop
      vertex -61.3415 33.7228 0
      vertex -65.0844 25.7687 18
      vertex -65.0844 25.7687 0
    endloop
  endfacet
  facet normal 0.951058 -0.309011 -4.98826e-18
    outer loop
      vertex -67.8008 17.4083 18
      vertex -65.0844 25.7687 0
      vertex -65.0844 25.7687 18
    endloop
  endfacet
  facet normal 0.951058 -0.309011 -4.98826e-18
    outer loop
      vertex -65.0844 25.7687 0
      vertex -67.8008 17.4083 18
      vertex -67.8008 17.4083 0
    endloop
  endfacet
  facet normal 0.481751 -0.876308 0
    outer loop
      vertex -37.5079 59.103 0
      vertex -29.8046 63.3379 18
      vertex -37.5079 59.103 18
    endloop
  endfacet
  facet normal 0.481751 -0.876308 0
    outer loop
      vertex -29.8046 63.3379 18
      vertex -37.5079 59.103 0
      vertex -29.8046 63.3379 0
    endloop
  endfacet
  facet normal 0.248684 -0.968585 0
    outer loop
      vertex -21.6312 66.574 0
      vertex -13.1167 68.7601 18
      vertex -21.6312 66.574 18
    endloop
  endfacet
  facet normal 0.248684 -0.968585 0
    outer loop
      vertex -13.1167 68.7601 18
      vertex -21.6312 66.574 0
      vertex -13.1167 68.7601 0
    endloop
  endfacet
  facet normal -0.951058 0.309011 -4.98826e-18
    outer loop
      vertex 65.0844 -25.7687 0
      vertex 67.8008 -17.4083 18
      vertex 67.8008 -17.4083 0
    endloop
  endfacet
  facet normal -0.951058 0.309011 -4.98826e-18
    outer loop
      vertex 67.8008 -17.4083 18
      vertex 65.0844 -25.7687 0
      vertex 65.0844 -25.7687 18
    endloop
  endfacet
  facet normal 0.481751 0.876308 -0
    outer loop
      vertex -29.8046 -63.3379 0
      vertex -37.5079 -59.103 18
      vertex -29.8046 -63.3379 18
    endloop
  endfacet
  facet normal 0.481751 0.876308 0
    outer loop
      vertex -37.5079 -59.103 18
      vertex -29.8046 -63.3379 0
      vertex -37.5079 -59.103 0
    endloop
  endfacet
  facet normal 0.998027 0.0627938 1.97611e-18
    outer loop
      vertex -69.448 -8.77333 18
      vertex -70 0 0
      vertex -70 0 18
    endloop
  endfacet
  facet normal 0.998027 0.0627938 1.97611e-18
    outer loop
      vertex -70 0 0
      vertex -69.448 -8.77333 18
      vertex -69.448 -8.77333 0
    endloop
  endfacet
  facet normal 0.951058 0.309011 4.98826e-18
    outer loop
      vertex -65.0844 -25.7687 18
      vertex -67.8008 -17.4083 0
      vertex -67.8008 -17.4083 18
    endloop
  endfacet
  facet normal 0.951058 0.309011 4.98826e-18
    outer loop
      vertex -67.8008 -17.4083 0
      vertex -65.0844 -25.7687 18
      vertex -65.0844 -25.7687 0
    endloop
  endfacet
  facet normal -0.368127 0.929776 0
    outer loop
      vertex 29.8046 -63.3379 0
      vertex 21.6312 -66.574 18
      vertex 29.8046 -63.3379 18
    endloop
  endfacet
  facet normal -0.368127 0.929776 0
    outer loop
      vertex 21.6312 -66.574 18
      vertex 29.8046 -63.3379 0
      vertex 21.6312 -66.574 0
    endloop
  endfacet
  facet normal -0.248684 0.968585 0
    outer loop
      vertex 21.6312 -66.574 0
      vertex 13.1167 -68.7601 18
      vertex 21.6312 -66.574 18
    endloop
  endfacet
  facet normal -0.248684 0.968585 0
    outer loop
      vertex 13.1167 -68.7601 18
      vertex 21.6312 -66.574 0
      vertex 13.1167 -68.7601 0
    endloop
  endfacet
  facet normal -0.684547 0.728969 0
    outer loop
      vertex 51.0278 -47.9183 0
      vertex 44.6197 -53.9359 18
      vertex 51.0278 -47.9183 18
    endloop
  endfacet
  facet normal -0.684547 0.728969 0
    outer loop
      vertex 44.6197 -53.9359 18
      vertex 51.0278 -47.9183 0
      vertex 44.6197 -53.9359 0
    endloop
  endfacet
  facet normal -0.844326 0.535829 2.21675e-17
    outer loop
      vertex 56.6312 -41.145 0
      vertex 61.3415 -33.7228 18
      vertex 61.3415 -33.7228 0
    endloop
  endfacet
  facet normal -0.844326 0.535829 2.21675e-17
    outer loop
      vertex 61.3415 -33.7228 18
      vertex 56.6312 -41.145 0
      vertex 56.6312 -41.145 18
    endloop
  endfacet
  facet normal 0.125337 0.992114 -0
    outer loop
      vertex -4.39534 -69.8619 0
      vertex -13.1167 -68.7601 18
      vertex -4.39534 -69.8619 18
    endloop
  endfacet
  facet normal 0.125337 0.992114 0
    outer loop
      vertex -13.1167 -68.7601 18
      vertex -4.39534 -69.8619 0
      vertex -13.1167 -68.7601 0
    endloop
  endfacet
  facet normal 0.684547 0.728969 -0
    outer loop
      vertex -44.6197 -53.9359 0
      vertex -51.0278 -47.9183 18
      vertex -44.6197 -53.9359 18
    endloop
  endfacet
  facet normal 0.684547 0.728969 0
    outer loop
      vertex -51.0278 -47.9183 18
      vertex -44.6197 -53.9359 0
      vertex -51.0278 -47.9183 0
    endloop
  endfacet
  facet normal 0.770511 0.637427 -1.52388e-17
    outer loop
      vertex -51.0278 -47.9183 18
      vertex -56.6312 -41.145 0
      vertex -56.6312 -41.145 18
    endloop
  endfacet
  facet normal 0.770511 0.637427 -1.52388e-17
    outer loop
      vertex -56.6312 -41.145 0
      vertex -51.0278 -47.9183 18
      vertex -51.0278 -47.9183 0
    endloop
  endfacet
  facet normal 0.904828 0.425778 1.09631e-20
    outer loop
      vertex -61.3415 -33.7228 18
      vertex -65.0844 -25.7687 0
      vertex -65.0844 -25.7687 18
    endloop
  endfacet
  facet normal 0.904828 0.425778 1.09631e-20
    outer loop
      vertex -65.0844 -25.7687 0
      vertex -61.3415 -33.7228 18
      vertex -61.3415 -33.7228 0
    endloop
  endfacet
  facet normal 0.982287 0.18738 4.80186e-18
    outer loop
      vertex -67.8008 -17.4083 18
      vertex -69.448 -8.77333 0
      vertex -69.448 -8.77333 18
    endloop
  endfacet
  facet normal 0.982287 0.18738 4.80186e-18
    outer loop
      vertex -69.448 -8.77333 0
      vertex -67.8008 -17.4083 18
      vertex -67.8008 -17.4083 0
    endloop
  endfacet
  facet normal -0.982287 0.18738 -4.80186e-18
    outer loop
      vertex 67.8008 -17.4083 0
      vertex 69.448 -8.77333 18
      vertex 69.448 -8.77333 0
    endloop
  endfacet
  facet normal -0.982287 0.18738 -4.80186e-18
    outer loop
      vertex 69.448 -8.77333 18
      vertex 67.8008 -17.4083 0
      vertex 67.8008 -17.4083 18
    endloop
  endfacet
  facet normal -0.481751 0.876308 0
    outer loop
      vertex 37.5079 -59.103 0
      vertex 29.8046 -63.3379 18
      vertex 37.5079 -59.103 18
    endloop
  endfacet
  facet normal -0.481751 0.876308 0
    outer loop
      vertex 29.8046 -63.3379 18
      vertex 37.5079 -59.103 0
      vertex 29.8046 -63.3379 0
    endloop
  endfacet
  facet normal -0.904828 0.425778 -1.09631e-20
    outer loop
      vertex 61.3415 -33.7228 0
      vertex 65.0844 -25.7687 18
      vertex 65.0844 -25.7687 0
    endloop
  endfacet
  facet normal -0.904828 0.425778 -1.09631e-20
    outer loop
      vertex 65.0844 -25.7687 18
      vertex 61.3415 -33.7228 0
      vertex 61.3415 -33.7228 18
    endloop
  endfacet
  facet normal 0 1 -0
    outer loop
      vertex 4.39534 -69.8619 0
      vertex -4.39534 -69.8619 18
      vertex 4.39534 -69.8619 18
    endloop
  endfacet
  facet normal 0 1 0
    outer loop
      vertex -4.39534 -69.8619 18
      vertex 4.39534 -69.8619 0
      vertex -4.39534 -69.8619 0
    endloop
  endfacet
  facet normal 0.368127 0.929776 -0
    outer loop
      vertex -21.6312 -66.574 0
      vertex -29.8046 -63.3379 18
      vertex -21.6312 -66.574 18
    endloop
  endfacet
  facet normal 0.368127 0.929776 0
    outer loop
      vertex -29.8046 -63.3379 18
      vertex -21.6312 -66.574 0
      vertex -29.8046 -63.3379 0
    endloop
  endfacet
  facet normal 0.587791 0.809013 -0
    outer loop
      vertex -37.5079 -59.103 0
      vertex -44.6197 -53.9359 18
      vertex -37.5079 -59.103 18
    endloop
  endfacet
  facet normal 0.587791 0.809013 0
    outer loop
      vertex -44.6197 -53.9359 18
      vertex -37.5079 -59.103 0
      vertex -44.6197 -53.9359 0
    endloop
  endfacet
  facet normal 0.844326 0.535829 -2.21675e-17
    outer loop
      vertex -56.6312 -41.145 18
      vertex -61.3415 -33.7228 0
      vertex -61.3415 -33.7228 18
    endloop
  endfacet
  facet normal 0.844326 0.535829 -2.21675e-17
    outer loop
      vertex -61.3415 -33.7228 0
      vertex -56.6312 -41.145 18
      vertex -56.6312 -41.145 0
    endloop
  endfacet
  facet normal -0.587791 0.809013 0
    outer loop
      vertex 44.6197 -53.9359 0
      vertex 37.5079 -59.103 18
      vertex 44.6197 -53.9359 18
    endloop
  endfacet
  facet normal -0.587791 0.809013 0
    outer loop
      vertex 37.5079 -59.103 18
      vertex 44.6197 -53.9359 0
      vertex 37.5079 -59.103 0
    endloop
  endfacet
  facet normal -0.770511 0.637427 1.52388e-17
    outer loop
      vertex 51.0278 -47.9183 0
      vertex 56.6312 -41.145 18
      vertex 56.6312 -41.145 0
    endloop
  endfacet
  facet normal -0.770511 0.637427 1.52388e-17
    outer loop
      vertex 56.6312 -41.145 18
      vertex 51.0278 -47.9183 0
      vertex 51.0278 -47.9183 18
    endloop
  endfacet
  facet normal 0.248684 0.968585 -0
    outer loop
      vertex -13.1167 -68.7601 0
      vertex -21.6312 -66.574 18
      vertex -13.1167 -68.7601 18
    endloop
  endfacet
  facet normal 0.248684 0.968585 0
    outer loop
      vertex -21.6312 -66.574 18
      vertex -13.1167 -68.7601 0
      vertex -21.6312 -66.574 0
    endloop
  endfacet
endsolid OpenSCAD_Model
