solid OpenSCAD_Model
  facet normal 0 0 -1
    outer loop
      vertex 10 0 1.8
      vertex 11.35 0 1.8
      vertex 11.2605 -1.42253 1.8
    endloop
  endfacet
  facet normal 0 0 -1
    outer loop
      vertex 9.92115 -1.25333 1.8
      vertex 11.2605 -1.42253 1.8
      vertex 10.9934 -2.82263 1.8
    endloop
  endfacet
  facet normal 0 0 -1
    outer loop
      vertex 11.35 0 1.8
      vertex 10 0 1.8
      vertex 11.2605 1.42253 1.8
    endloop
  endfacet
  facet normal 0 0 -1
    outer loop
      vertex 9.68583 -2.4869 1.8
      vertex 10.9934 -2.82263 1.8
      vertex 10.553 -4.17821 1.8
    endloop
  endfacet
  facet normal 0 0 -1
    outer loop
      vertex 9.92115 1.25333 1.8
      vertex 11.2605 1.42253 1.8
      vertex 10 0 1.8
    endloop
  endfacet
  facet normal -0 0 -1
    outer loop
      vertex 11.2605 1.42253 1.8
      vertex 9.92115 1.25333 1.8
      vertex 10.9934 2.82263 1.8
    endloop
  endfacet
  facet normal 0 0 -1
    outer loop
      vertex 9.29776 -3.68124 1.8
      vertex 10.553 -4.17821 1.8
      vertex 9.94608 -5.4679 1.8
    endloop
  endfacet
  facet normal 0 0 -1
    outer loop
      vertex 11.2605 -1.42253 1.8
      vertex 9.92115 -1.25333 1.8
      vertex 10 0 1.8
    endloop
  endfacet
  facet normal 0 0 -1
    outer loop
      vertex 10.9934 -2.82263 1.8
      vertex 9.68583 -2.4869 1.8
      vertex 9.92115 -1.25333 1.8
    endloop
  endfacet
  facet normal 0 0 -1
    outer loop
      vertex 10.553 -4.17821 1.8
      vertex 9.29776 -3.68124 1.8
      vertex 9.68583 -2.4869 1.8
    endloop
  endfacet
  facet normal 0 0 -1
    outer loop
      vertex 8.76307 -4.81754 1.8
      vertex 9.94608 -5.4679 1.8
      vertex 9.18234 -6.67136 1.8
    endloop
  endfacet
  facet normal 0 0 -1
    outer loop
      vertex 9.94608 -5.4679 1.8
      vertex 8.76307 -4.81754 1.8
      vertex 9.29776 -3.68124 1.8
    endloop
  endfacet
  facet normal 0 0 -1
    outer loop
      vertex 8.09017 -5.87785 1.8
      vertex 9.18234 -6.67136 1.8
      vertex 8.27379 -7.76961 1.8
    endloop
  endfacet
  facet normal 0 0 -1
    outer loop
      vertex 9.18234 -6.67136 1.8
      vertex 8.09017 -5.87785 1.8
      vertex 8.76307 -4.81754 1.8
    endloop
  endfacet
  facet normal 0 0 -1
    outer loop
      vertex 8.27379 -7.76961 1.8
      vertex 7.28969 -6.84547 1.8
      vertex 8.09017 -5.87785 1.8
    endloop
  endfacet
  facet normal 0 0 -1
    outer loop
      vertex 7.23476 -8.74533 1.8
      vertex 7.28969 -6.84547 1.8
      vertex 8.27379 -7.76961 1.8
    endloop
  endfacet
  facet normal 0 0 -1
    outer loop
      vertex 7.23476 -8.74533 1.8
      vertex 6.37424 -7.70513 1.8
      vertex 7.28969 -6.84547 1.8
    endloop
  endfacet
  facet normal 0 0 -1
    outer loop
      vertex 6.08163 -9.58312 1.8
      vertex 6.37424 -7.70513 1.8
      vertex 7.23476 -8.74533 1.8
    endloop
  endfacet
  facet normal 0 0 -1
    outer loop
      vertex 6.08163 -9.58312 1.8
      vertex 5.35827 -8.44328 1.8
      vertex 6.37424 -7.70513 1.8
    endloop
  endfacet
  facet normal 0 0 -1
    outer loop
      vertex 4.83259 -10.2698 1.8
      vertex 5.35827 -8.44328 1.8
      vertex 6.08163 -9.58312 1.8
    endloop
  endfacet
  facet normal 0 0 -1
    outer loop
      vertex 4.83259 -10.2698 1.8
      vertex 4.25779 -9.04827 1.8
      vertex 5.35827 -8.44328 1.8
    endloop
  endfacet
  facet normal 0 0 -1
    outer loop
      vertex 3.50734 -10.7945 1.8
      vertex 4.25779 -9.04827 1.8
      vertex 4.83259 -10.2698 1.8
    endloop
  endfacet
  facet normal 0 0 -1
    outer loop
      vertex 3.50734 -10.7945 1.8
      vertex 3.09017 -9.51056 1.8
      vertex 4.25779 -9.04827 1.8
    endloop
  endfacet
  facet normal 0 0 -1
    outer loop
      vertex 2.12678 -11.149 1.8
      vertex 3.09017 -9.51056 1.8
      vertex 3.50734 -10.7945 1.8
    endloop
  endfacet
  facet normal 0 0 -1
    outer loop
      vertex 2.12678 -11.149 1.8
      vertex 1.87381 -9.82287 1.8
      vertex 3.09017 -9.51056 1.8
    endloop
  endfacet
  facet normal 0 0 -1
    outer loop
      vertex 0.712672 -11.3276 1.8
      vertex 1.87381 -9.82287 1.8
      vertex 2.12678 -11.149 1.8
    endloop
  endfacet
  facet normal 0 0 -1
    outer loop
      vertex 0.712672 -11.3276 1.8
      vertex 0.627905 -9.98027 1.8
      vertex 1.87381 -9.82287 1.8
    endloop
  endfacet
  facet normal 0 0 -1
    outer loop
      vertex 0.712672 -11.3276 1.8
      vertex -0.627905 -9.98027 1.8
      vertex 0.627905 -9.98027 1.8
    endloop
  endfacet
  facet normal 0 0 -1
    outer loop
      vertex -0.712672 -11.3276 1.8
      vertex -0.627905 -9.98027 1.8
      vertex 0.712672 -11.3276 1.8
    endloop
  endfacet
  facet normal 0 0 -1
    outer loop
      vertex -0.712672 -11.3276 1.8
      vertex -1.87381 -9.82287 1.8
      vertex -0.627905 -9.98027 1.8
    endloop
  endfacet
  facet normal 0 0 -1
    outer loop
      vertex -2.12678 -11.149 1.8
      vertex -1.87381 -9.82287 1.8
      vertex -0.712672 -11.3276 1.8
    endloop
  endfacet
  facet normal 0 0 -1
    outer loop
      vertex -2.12678 -11.149 1.8
      vertex -3.09017 -9.51056 1.8
      vertex -1.87381 -9.82287 1.8
    endloop
  endfacet
  facet normal 0 0 -1
    outer loop
      vertex -3.50734 -10.7945 1.8
      vertex -3.09017 -9.51056 1.8
      vertex -2.12678 -11.149 1.8
    endloop
  endfacet
  facet normal 0 0 -1
    outer loop
      vertex -3.50734 -10.7945 1.8
      vertex -4.25779 -9.04827 1.8
      vertex -3.09017 -9.51056 1.8
    endloop
  endfacet
  facet normal 0 0 -1
    outer loop
      vertex -4.83259 -10.2698 1.8
      vertex -4.25779 -9.04827 1.8
      vertex -3.50734 -10.7945 1.8
    endloop
  endfacet
  facet normal 0 0 -1
    outer loop
      vertex -4.83259 -10.2698 1.8
      vertex -5.35827 -8.44328 1.8
      vertex -4.25779 -9.04827 1.8
    endloop
  endfacet
  facet normal 0 0 -1
    outer loop
      vertex -6.08163 -9.58312 1.8
      vertex -5.35827 -8.44328 1.8
      vertex -4.83259 -10.2698 1.8
    endloop
  endfacet
  facet normal 0 0 -1
    outer loop
      vertex -6.08163 -9.58312 1.8
      vertex -6.37424 -7.70513 1.8
      vertex -5.35827 -8.44328 1.8
    endloop
  endfacet
  facet normal 0 0 -1
    outer loop
      vertex -7.23476 -8.74533 1.8
      vertex -6.37424 -7.70513 1.8
      vertex -6.08163 -9.58312 1.8
    endloop
  endfacet
  facet normal 0 0 -1
    outer loop
      vertex -7.23476 -8.74533 1.8
      vertex -7.28969 -6.84547 1.8
      vertex -6.37424 -7.70513 1.8
    endloop
  endfacet
  facet normal 0 0 -1
    outer loop
      vertex -8.27379 -7.76961 1.8
      vertex -7.28969 -6.84547 1.8
      vertex -7.23476 -8.74533 1.8
    endloop
  endfacet
  facet normal -0 0 -1
    outer loop
      vertex -7.28969 -6.84547 1.8
      vertex -8.27379 -7.76961 1.8
      vertex -8.09017 -5.87785 1.8
    endloop
  endfacet
  facet normal 0 0 -1
    outer loop
      vertex -9.18234 -6.67136 1.8
      vertex -8.09017 -5.87785 1.8
      vertex -8.27379 -7.76961 1.8
    endloop
  endfacet
  facet normal -0 0 -1
    outer loop
      vertex -8.09017 -5.87785 1.8
      vertex -9.18234 -6.67136 1.8
      vertex -8.76307 -4.81754 1.8
    endloop
  endfacet
  facet normal 0 0 -1
    outer loop
      vertex -9.94608 -5.4679 1.8
      vertex -8.76307 -4.81754 1.8
      vertex -9.18234 -6.67136 1.8
    endloop
  endfacet
  facet normal -0 0 -1
    outer loop
      vertex -8.76307 -4.81754 1.8
      vertex -9.94608 -5.4679 1.8
      vertex -9.29776 -3.68124 1.8
    endloop
  endfacet
  facet normal 0 0 -1
    outer loop
      vertex -10.553 -4.17821 1.8
      vertex -9.29776 -3.68124 1.8
      vertex -9.94608 -5.4679 1.8
    endloop
  endfacet
  facet normal -0 0 -1
    outer loop
      vertex -9.29776 -3.68124 1.8
      vertex -10.553 -4.17821 1.8
      vertex -9.68583 -2.4869 1.8
    endloop
  endfacet
  facet normal 0 0 -1
    outer loop
      vertex -10.9934 -2.82263 1.8
      vertex -9.68583 -2.4869 1.8
      vertex -10.553 -4.17821 1.8
    endloop
  endfacet
  facet normal -0 0 -1
    outer loop
      vertex -9.68583 -2.4869 1.8
      vertex -10.9934 -2.82263 1.8
      vertex -9.92115 -1.25333 1.8
    endloop
  endfacet
  facet normal 0 0 -1
    outer loop
      vertex 9.68583 2.4869 1.8
      vertex 10.9934 2.82263 1.8
      vertex 9.92115 1.25333 1.8
    endloop
  endfacet
  facet normal -0 0 -1
    outer loop
      vertex 10.9934 2.82263 1.8
      vertex 9.68583 2.4869 1.8
      vertex 10.553 4.17821 1.8
    endloop
  endfacet
  facet normal 0 0 -1
    outer loop
      vertex 9.29776 3.68124 1.8
      vertex 10.553 4.17821 1.8
      vertex 9.68583 2.4869 1.8
    endloop
  endfacet
  facet normal -0 0 -1
    outer loop
      vertex 10.553 4.17821 1.8
      vertex 9.29776 3.68124 1.8
      vertex 9.94608 5.4679 1.8
    endloop
  endfacet
  facet normal 0 0 -1
    outer loop
      vertex 8.76307 4.81754 1.8
      vertex 9.94608 5.4679 1.8
      vertex 9.29776 3.68124 1.8
    endloop
  endfacet
  facet normal -0 0 -1
    outer loop
      vertex 9.94608 5.4679 1.8
      vertex 8.76307 4.81754 1.8
      vertex 9.18234 6.67136 1.8
    endloop
  endfacet
  facet normal 0 0 -1
    outer loop
      vertex 8.09017 5.87785 1.8
      vertex 9.18234 6.67136 1.8
      vertex 8.76307 4.81754 1.8
    endloop
  endfacet
  facet normal -0 0 -1
    outer loop
      vertex 9.18234 6.67136 1.8
      vertex 8.09017 5.87785 1.8
      vertex 8.27379 7.76961 1.8
    endloop
  endfacet
  facet normal 0 0 -1
    outer loop
      vertex 7.28969 6.84547 1.8
      vertex 8.27379 7.76961 1.8
      vertex 8.09017 5.87785 1.8
    endloop
  endfacet
  facet normal 0 0 -1
    outer loop
      vertex 7.28969 6.84547 1.8
      vertex 7.23476 8.74533 1.8
      vertex 8.27379 7.76961 1.8
    endloop
  endfacet
  facet normal 0 0 -1
    outer loop
      vertex 6.37424 7.70513 1.8
      vertex 7.23476 8.74533 1.8
      vertex 7.28969 6.84547 1.8
    endloop
  endfacet
  facet normal 0 0 -1
    outer loop
      vertex 6.37424 7.70513 1.8
      vertex 6.08163 9.58312 1.8
      vertex 7.23476 8.74533 1.8
    endloop
  endfacet
  facet normal 0 0 -1
    outer loop
      vertex 5.35827 8.44328 1.8
      vertex 6.08163 9.58312 1.8
      vertex 6.37424 7.70513 1.8
    endloop
  endfacet
  facet normal 0 0 -1
    outer loop
      vertex 5.35827 8.44328 1.8
      vertex 4.83259 10.2698 1.8
      vertex 6.08163 9.58312 1.8
    endloop
  endfacet
  facet normal 0 0 -1
    outer loop
      vertex 4.25779 9.04827 1.8
      vertex 4.83259 10.2698 1.8
      vertex 5.35827 8.44328 1.8
    endloop
  endfacet
  facet normal 0 0 -1
    outer loop
      vertex 4.25779 9.04827 1.8
      vertex 3.50734 10.7945 1.8
      vertex 4.83259 10.2698 1.8
    endloop
  endfacet
  facet normal 0 0 -1
    outer loop
      vertex 3.09017 9.51056 1.8
      vertex 3.50734 10.7945 1.8
      vertex 4.25779 9.04827 1.8
    endloop
  endfacet
  facet normal 0 0 -1
    outer loop
      vertex 3.09017 9.51056 1.8
      vertex 2.12678 11.149 1.8
      vertex 3.50734 10.7945 1.8
    endloop
  endfacet
  facet normal 0 0 -1
    outer loop
      vertex 1.87381 9.82287 1.8
      vertex 2.12678 11.149 1.8
      vertex 3.09017 9.51056 1.8
    endloop
  endfacet
  facet normal 0 0 -1
    outer loop
      vertex 1.87381 9.82287 1.8
      vertex 0.712672 11.3276 1.8
      vertex 2.12678 11.149 1.8
    endloop
  endfacet
  facet normal 0 0 -1
    outer loop
      vertex 0.627905 9.98027 1.8
      vertex 0.712672 11.3276 1.8
      vertex 1.87381 9.82287 1.8
    endloop
  endfacet
  facet normal 0 0 -1
    outer loop
      vertex -0.627905 9.98027 1.8
      vertex 0.712672 11.3276 1.8
      vertex 0.627905 9.98027 1.8
    endloop
  endfacet
  facet normal 0 0 -1
    outer loop
      vertex -0.627905 9.98027 1.8
      vertex -0.712672 11.3276 1.8
      vertex 0.712672 11.3276 1.8
    endloop
  endfacet
  facet normal 0 0 -1
    outer loop
      vertex -1.87381 9.82287 1.8
      vertex -0.712672 11.3276 1.8
      vertex -0.627905 9.98027 1.8
    endloop
  endfacet
  facet normal 0 0 -1
    outer loop
      vertex -1.87381 9.82287 1.8
      vertex -2.12678 11.149 1.8
      vertex -0.712672 11.3276 1.8
    endloop
  endfacet
  facet normal 0 0 -1
    outer loop
      vertex -3.09017 9.51056 1.8
      vertex -2.12678 11.149 1.8
      vertex -1.87381 9.82287 1.8
    endloop
  endfacet
  facet normal 0 0 -1
    outer loop
      vertex -3.09017 9.51056 1.8
      vertex -3.50734 10.7945 1.8
      vertex -2.12678 11.149 1.8
    endloop
  endfacet
  facet normal 0 0 -1
    outer loop
      vertex -4.25779 9.04827 1.8
      vertex -3.50734 10.7945 1.8
      vertex -3.09017 9.51056 1.8
    endloop
  endfacet
  facet normal 0 0 -1
    outer loop
      vertex -4.25779 9.04827 1.8
      vertex -4.83259 10.2698 1.8
      vertex -3.50734 10.7945 1.8
    endloop
  endfacet
  facet normal 0 0 -1
    outer loop
      vertex -5.35827 8.44328 1.8
      vertex -4.83259 10.2698 1.8
      vertex -4.25779 9.04827 1.8
    endloop
  endfacet
  facet normal 0 0 -1
    outer loop
      vertex -5.35827 8.44328 1.8
      vertex -6.08163 9.58312 1.8
      vertex -4.83259 10.2698 1.8
    endloop
  endfacet
  facet normal 0 0 -1
    outer loop
      vertex -6.37424 7.70513 1.8
      vertex -6.08163 9.58312 1.8
      vertex -5.35827 8.44328 1.8
    endloop
  endfacet
  facet normal 0 0 -1
    outer loop
      vertex -6.37424 7.70513 1.8
      vertex -7.23476 8.74533 1.8
      vertex -6.08163 9.58312 1.8
    endloop
  endfacet
  facet normal 0 0 -1
    outer loop
      vertex -7.28969 6.84547 1.8
      vertex -7.23476 8.74533 1.8
      vertex -6.37424 7.70513 1.8
    endloop
  endfacet
  facet normal 0 0 -1
    outer loop
      vertex -8.27379 7.76961 1.8
      vertex -7.28969 6.84547 1.8
      vertex -8.09017 5.87785 1.8
    endloop
  endfacet
  facet normal 0 0 -1
    outer loop
      vertex -7.28969 6.84547 1.8
      vertex -8.27379 7.76961 1.8
      vertex -7.23476 8.74533 1.8
    endloop
  endfacet
  facet normal 0 0 -1
    outer loop
      vertex -9.18234 6.67136 1.8
      vertex -8.09017 5.87785 1.8
      vertex -8.76307 4.81754 1.8
    endloop
  endfacet
  facet normal 0 0 -1
    outer loop
      vertex -8.09017 5.87785 1.8
      vertex -9.18234 6.67136 1.8
      vertex -8.27379 7.76961 1.8
    endloop
  endfacet
  facet normal 0 0 -1
    outer loop
      vertex -9.94608 5.4679 1.8
      vertex -8.76307 4.81754 1.8
      vertex -9.29776 3.68124 1.8
    endloop
  endfacet
  facet normal 0 0 -1
    outer loop
      vertex -10.553 4.17821 1.8
      vertex -9.29776 3.68124 1.8
      vertex -9.68583 2.4869 1.8
    endloop
  endfacet
  facet normal 0 0 -1
    outer loop
      vertex -10.9934 2.82263 1.8
      vertex -9.68583 2.4869 1.8
      vertex -9.92115 1.25333 1.8
    endloop
  endfacet
  facet normal 0 0 -1
    outer loop
      vertex -8.76307 4.81754 1.8
      vertex -9.94608 5.4679 1.8
      vertex -9.18234 6.67136 1.8
    endloop
  endfacet
  facet normal 0 0 -1
    outer loop
      vertex -11.2605 1.42253 1.8
      vertex -9.92115 1.25333 1.8
      vertex -10 0 1.8
    endloop
  endfacet
  facet normal 0 0 -1
    outer loop
      vertex -11.2605 -1.42253 1.8
      vertex -9.92115 -1.25333 1.8
      vertex -10.9934 -2.82263 1.8
    endloop
  endfacet
  facet normal 0 0 -1
    outer loop
      vertex -9.29776 3.68124 1.8
      vertex -10.553 4.17821 1.8
      vertex -9.94608 5.4679 1.8
    endloop
  endfacet
  facet normal -0 0 -1
    outer loop
      vertex -9.92115 -1.25333 1.8
      vertex -11.2605 -1.42253 1.8
      vertex -10 0 1.8
    endloop
  endfacet
  facet normal 0 0 -1
    outer loop
      vertex -9.68583 2.4869 1.8
      vertex -10.9934 2.82263 1.8
      vertex -10.553 4.17821 1.8
    endloop
  endfacet
  facet normal 0 0 -1
    outer loop
      vertex -11.35 0 1.8
      vertex -10 0 1.8
      vertex -11.2605 -1.42253 1.8
    endloop
  endfacet
  facet normal 0 0 -1
    outer loop
      vertex -9.92115 1.25333 1.8
      vertex -11.2605 1.42253 1.8
      vertex -10.9934 2.82263 1.8
    endloop
  endfacet
  facet normal 0 0 -1
    outer loop
      vertex -10 0 1.8
      vertex -11.35 0 1.8
      vertex -11.2605 1.42253 1.8
    endloop
  endfacet
  facet normal 0.904831 0.425771 0
    outer loop
      vertex 9.29776 3.68124 1.8
      vertex 8.76307 4.81754 0
      vertex 8.76307 4.81754 1.8
    endloop
  endfacet
  facet normal 0.904831 0.425771 0
    outer loop
      vertex 8.76307 4.81754 0
      vertex 9.29776 3.68124 1.8
      vertex 9.29776 3.68124 0
    endloop
  endfacet
  facet normal 0.844325 0.535831 0
    outer loop
      vertex 8.76307 4.81754 1.8
      vertex 8.09017 5.87785 0
      vertex 8.09017 5.87785 1.8
    endloop
  endfacet
  facet normal 0.844325 0.535831 0
    outer loop
      vertex 8.09017 5.87785 0
      vertex 8.76307 4.81754 1.8
      vertex 8.76307 4.81754 0
    endloop
  endfacet
  facet normal 0.248691 0.968583 -0
    outer loop
      vertex 3.09017 9.51056 0
      vertex 1.87381 9.82287 1.8
      vertex 3.09017 9.51056 1.8
    endloop
  endfacet
  facet normal 0.248691 0.968583 0
    outer loop
      vertex 1.87381 9.82287 1.8
      vertex 3.09017 9.51056 0
      vertex 1.87381 9.82287 0
    endloop
  endfacet
  facet normal 0.368122 0.929777 -0
    outer loop
      vertex 4.25779 9.04827 0
      vertex 3.09017 9.51056 1.8
      vertex 4.25779 9.04827 1.8
    endloop
  endfacet
  facet normal 0.368122 0.929777 0
    outer loop
      vertex 3.09017 9.51056 1.8
      vertex 4.25779 9.04827 0
      vertex 3.09017 9.51056 0
    endloop
  endfacet
  facet normal -0.368122 0.929777 0
    outer loop
      vertex -3.09017 9.51056 0
      vertex -4.25779 9.04827 1.8
      vertex -3.09017 9.51056 1.8
    endloop
  endfacet
  facet normal -0.368122 0.929777 0
    outer loop
      vertex -4.25779 9.04827 1.8
      vertex -3.09017 9.51056 0
      vertex -4.25779 9.04827 0
    endloop
  endfacet
  facet normal -0.904831 0.425771 0
    outer loop
      vertex -9.29776 3.68124 0
      vertex -8.76307 4.81754 1.8
      vertex -8.76307 4.81754 0
    endloop
  endfacet
  facet normal -0.904831 0.425771 0
    outer loop
      vertex -8.76307 4.81754 1.8
      vertex -9.29776 3.68124 0
      vertex -9.29776 3.68124 1.8
    endloop
  endfacet
  facet normal 0.982287 -0.187384 0
    outer loop
      vertex 9.68583 -2.4869 1.8
      vertex 9.92115 -1.25333 0
      vertex 9.92115 -1.25333 1.8
    endloop
  endfacet
  facet normal 0.982287 -0.187384 0
    outer loop
      vertex 9.92115 -1.25333 0
      vertex 9.68583 -2.4869 1.8
      vertex 9.68583 -2.4869 0
    endloop
  endfacet
  facet normal 0.125338 0.992114 -0
    outer loop
      vertex 1.87381 9.82287 0
      vertex 0.627905 9.98027 1.8
      vertex 1.87381 9.82287 1.8
    endloop
  endfacet
  facet normal 0.125338 0.992114 0
    outer loop
      vertex 0.627905 9.98027 1.8
      vertex 1.87381 9.82287 0
      vertex 0.627905 9.98027 0
    endloop
  endfacet
  facet normal 0.481751 0.876308 -0
    outer loop
      vertex 5.35827 8.44328 0
      vertex 4.25779 9.04827 1.8
      vertex 5.35827 8.44328 1.8
    endloop
  endfacet
  facet normal 0.481751 0.876308 0
    outer loop
      vertex 4.25779 9.04827 1.8
      vertex 5.35827 8.44328 0
      vertex 4.25779 9.04827 0
    endloop
  endfacet
  facet normal -0.982287 0.187384 0
    outer loop
      vertex -9.92115 1.25333 0
      vertex -9.68583 2.4869 1.8
      vertex -9.68583 2.4869 0
    endloop
  endfacet
  facet normal -0.982287 0.187384 0
    outer loop
      vertex -9.68583 2.4869 1.8
      vertex -9.92115 1.25333 0
      vertex -9.92115 1.25333 1.8
    endloop
  endfacet
  facet normal -0.770515 0.637422 0
    outer loop
      vertex -8.09017 5.87785 0
      vertex -7.28969 6.84547 1.8
      vertex -7.28969 6.84547 0
    endloop
  endfacet
  facet normal -0.770515 0.637422 0
    outer loop
      vertex -7.28969 6.84547 1.8
      vertex -8.09017 5.87785 0
      vertex -8.09017 5.87785 1.8
    endloop
  endfacet
  facet normal -0.481751 0.876308 0
    outer loop
      vertex -4.25779 9.04827 0
      vertex -5.35827 8.44328 1.8
      vertex -4.25779 9.04827 1.8
    endloop
  endfacet
  facet normal -0.481751 0.876308 0
    outer loop
      vertex -5.35827 8.44328 1.8
      vertex -4.25779 9.04827 0
      vertex -5.35827 8.44328 0
    endloop
  endfacet
  facet normal -0.125338 0.992114 0
    outer loop
      vertex -0.627905 9.98027 0
      vertex -1.87381 9.82287 1.8
      vertex -0.627905 9.98027 1.8
    endloop
  endfacet
  facet normal -0.125338 0.992114 0
    outer loop
      vertex -1.87381 9.82287 1.8
      vertex -0.627905 9.98027 0
      vertex -1.87381 9.82287 0
    endloop
  endfacet
  facet normal 0.998027 0.0627883 0
    outer loop
      vertex 10 0 1.8
      vertex 9.92115 1.25333 0
      vertex 9.92115 1.25333 1.8
    endloop
  endfacet
  facet normal 0.998027 0.0627883 0
    outer loop
      vertex 9.92115 1.25333 0
      vertex 10 0 1.8
      vertex 10 0 0
    endloop
  endfacet
  facet normal 0.481751 -0.876308 0
    outer loop
      vertex 4.25779 -9.04827 0
      vertex 5.35827 -8.44328 1.8
      vertex 4.25779 -9.04827 1.8
    endloop
  endfacet
  facet normal 0.481751 -0.876308 0
    outer loop
      vertex 5.35827 -8.44328 1.8
      vertex 4.25779 -9.04827 0
      vertex 5.35827 -8.44328 0
    endloop
  endfacet
  facet normal 0.951055 -0.309021 0
    outer loop
      vertex 9.29776 -3.68124 1.8
      vertex 9.68583 -2.4869 0
      vertex 9.68583 -2.4869 1.8
    endloop
  endfacet
  facet normal 0.951055 -0.309021 0
    outer loop
      vertex 9.68583 -2.4869 0
      vertex 9.29776 -3.68124 1.8
      vertex 9.29776 -3.68124 0
    endloop
  endfacet
  facet normal -0.684545 -0.728971 0
    outer loop
      vertex -7.28969 -6.84547 0
      vertex -6.37424 -7.70513 1.8
      vertex -7.28969 -6.84547 1.8
    endloop
  endfacet
  facet normal -0.684545 -0.728971 -0
    outer loop
      vertex -6.37424 -7.70513 1.8
      vertex -7.28969 -6.84547 0
      vertex -6.37424 -7.70513 0
    endloop
  endfacet
  facet normal -0.904831 -0.425771 0
    outer loop
      vertex -8.76307 -4.81754 0
      vertex -9.29776 -3.68124 1.8
      vertex -9.29776 -3.68124 0
    endloop
  endfacet
  facet normal -0.904831 -0.425771 0
    outer loop
      vertex -9.29776 -3.68124 1.8
      vertex -8.76307 -4.81754 0
      vertex -8.76307 -4.81754 1.8
    endloop
  endfacet
  facet normal 0.982287 0.187384 0
    outer loop
      vertex 9.92115 1.25333 1.8
      vertex 9.68583 2.4869 0
      vertex 9.68583 2.4869 1.8
    endloop
  endfacet
  facet normal 0.982287 0.187384 0
    outer loop
      vertex 9.68583 2.4869 0
      vertex 9.92115 1.25333 1.8
      vertex 9.92115 1.25333 0
    endloop
  endfacet
  facet normal 0.951055 0.309021 0
    outer loop
      vertex 9.68583 2.4869 1.8
      vertex 9.29776 3.68124 0
      vertex 9.29776 3.68124 1.8
    endloop
  endfacet
  facet normal 0.951055 0.309021 0
    outer loop
      vertex 9.29776 3.68124 0
      vertex 9.68583 2.4869 1.8
      vertex 9.68583 2.4869 0
    endloop
  endfacet
  facet normal 0.684545 0.728971 -0
    outer loop
      vertex 7.28969 6.84547 0
      vertex 6.37424 7.70513 1.8
      vertex 7.28969 6.84547 1.8
    endloop
  endfacet
  facet normal 0.684545 0.728971 0
    outer loop
      vertex 6.37424 7.70513 1.8
      vertex 7.28969 6.84547 0
      vertex 6.37424 7.70513 0
    endloop
  endfacet
  facet normal 0 1 -0
    outer loop
      vertex 0.627905 9.98027 0
      vertex -0.627905 9.98027 1.8
      vertex 0.627905 9.98027 1.8
    endloop
  endfacet
  facet normal 0 1 0
    outer loop
      vertex -0.627905 9.98027 1.8
      vertex 0.627905 9.98027 0
      vertex -0.627905 9.98027 0
    endloop
  endfacet
  facet normal 0.587788 0.809015 -0
    outer loop
      vertex 6.37424 7.70513 0
      vertex 5.35827 8.44328 1.8
      vertex 6.37424 7.70513 1.8
    endloop
  endfacet
  facet normal 0.587788 0.809015 0
    outer loop
      vertex 5.35827 8.44328 1.8
      vertex 6.37424 7.70513 0
      vertex 5.35827 8.44328 0
    endloop
  endfacet
  facet normal -0.998027 0.0627883 0
    outer loop
      vertex -10 0 0
      vertex -9.92115 1.25333 1.8
      vertex -9.92115 1.25333 0
    endloop
  endfacet
  facet normal -0.998027 0.0627883 0
    outer loop
      vertex -9.92115 1.25333 1.8
      vertex -10 0 0
      vertex -10 0 1.8
    endloop
  endfacet
  facet normal -0.951055 0.309021 0
    outer loop
      vertex -9.68583 2.4869 0
      vertex -9.29776 3.68124 1.8
      vertex -9.29776 3.68124 0
    endloop
  endfacet
  facet normal -0.951055 0.309021 0
    outer loop
      vertex -9.29776 3.68124 1.8
      vertex -9.68583 2.4869 0
      vertex -9.68583 2.4869 1.8
    endloop
  endfacet
  facet normal -0.844325 0.535831 0
    outer loop
      vertex -8.76307 4.81754 0
      vertex -8.09017 5.87785 1.8
      vertex -8.09017 5.87785 0
    endloop
  endfacet
  facet normal -0.844325 0.535831 0
    outer loop
      vertex -8.09017 5.87785 1.8
      vertex -8.76307 4.81754 0
      vertex -8.76307 4.81754 1.8
    endloop
  endfacet
  facet normal -0.248691 0.968583 0
    outer loop
      vertex -1.87381 9.82287 0
      vertex -3.09017 9.51056 1.8
      vertex -1.87381 9.82287 1.8
    endloop
  endfacet
  facet normal -0.248691 0.968583 0
    outer loop
      vertex -3.09017 9.51056 1.8
      vertex -1.87381 9.82287 0
      vertex -3.09017 9.51056 0
    endloop
  endfacet
  facet normal -0.587788 0.809015 0
    outer loop
      vertex -5.35827 8.44328 0
      vertex -6.37424 7.70513 1.8
      vertex -5.35827 8.44328 1.8
    endloop
  endfacet
  facet normal -0.587788 0.809015 0
    outer loop
      vertex -6.37424 7.70513 1.8
      vertex -5.35827 8.44328 0
      vertex -6.37424 7.70513 0
    endloop
  endfacet
  facet normal -0.684545 0.728971 0
    outer loop
      vertex -6.37424 7.70513 0
      vertex -7.28969 6.84547 1.8
      vertex -6.37424 7.70513 1.8
    endloop
  endfacet
  facet normal -0.684545 0.728971 0
    outer loop
      vertex -7.28969 6.84547 1.8
      vertex -6.37424 7.70513 0
      vertex -7.28969 6.84547 0
    endloop
  endfacet
  facet normal 0.998027 -0.0627883 0
    outer loop
      vertex 9.92115 -1.25333 1.8
      vertex 10 0 0
      vertex 10 0 1.8
    endloop
  endfacet
  facet normal 0.998027 -0.0627883 0
    outer loop
      vertex 10 0 0
      vertex 9.92115 -1.25333 1.8
      vertex 9.92115 -1.25333 0
    endloop
  endfacet
  facet normal 0 -1 0
    outer loop
      vertex -0.627905 -9.98027 0
      vertex 0.627905 -9.98027 1.8
      vertex -0.627905 -9.98027 1.8
    endloop
  endfacet
  facet normal 0 -1 -0
    outer loop
      vertex 0.627905 -9.98027 1.8
      vertex -0.627905 -9.98027 0
      vertex 0.627905 -9.98027 0
    endloop
  endfacet
  facet normal -0.951055 -0.309021 0
    outer loop
      vertex -9.29776 -3.68124 0
      vertex -9.68583 -2.4869 1.8
      vertex -9.68583 -2.4869 0
    endloop
  endfacet
  facet normal -0.951055 -0.309021 0
    outer loop
      vertex -9.68583 -2.4869 1.8
      vertex -9.29776 -3.68124 0
      vertex -9.29776 -3.68124 1.8
    endloop
  endfacet
  facet normal -0.770515 -0.637422 0
    outer loop
      vertex -7.28969 -6.84547 0
      vertex -8.09017 -5.87785 1.8
      vertex -8.09017 -5.87785 0
    endloop
  endfacet
  facet normal -0.770515 -0.637422 0
    outer loop
      vertex -8.09017 -5.87785 1.8
      vertex -7.28969 -6.84547 0
      vertex -7.28969 -6.84547 1.8
    endloop
  endfacet
  facet normal 0.125338 -0.992114 0
    outer loop
      vertex 0.627905 -9.98027 0
      vertex 1.87381 -9.82287 1.8
      vertex 0.627905 -9.98027 1.8
    endloop
  endfacet
  facet normal 0.125338 -0.992114 0
    outer loop
      vertex 1.87381 -9.82287 1.8
      vertex 0.627905 -9.98027 0
      vertex 1.87381 -9.82287 0
    endloop
  endfacet
  facet normal 0.368122 -0.929777 0
    outer loop
      vertex 3.09017 -9.51056 0
      vertex 4.25779 -9.04827 1.8
      vertex 3.09017 -9.51056 1.8
    endloop
  endfacet
  facet normal 0.368122 -0.929777 0
    outer loop
      vertex 4.25779 -9.04827 1.8
      vertex 3.09017 -9.51056 0
      vertex 4.25779 -9.04827 0
    endloop
  endfacet
  facet normal 0.770515 0.637422 0
    outer loop
      vertex 8.09017 5.87785 1.8
      vertex 7.28969 6.84547 0
      vertex 7.28969 6.84547 1.8
    endloop
  endfacet
  facet normal 0.770515 0.637422 0
    outer loop
      vertex 7.28969 6.84547 0
      vertex 8.09017 5.87785 1.8
      vertex 8.09017 5.87785 0
    endloop
  endfacet
  facet normal 0.770515 -0.637422 0
    outer loop
      vertex 7.28969 -6.84547 1.8
      vertex 8.09017 -5.87785 0
      vertex 8.09017 -5.87785 1.8
    endloop
  endfacet
  facet normal 0.770515 -0.637422 0
    outer loop
      vertex 8.09017 -5.87785 0
      vertex 7.28969 -6.84547 1.8
      vertex 7.28969 -6.84547 0
    endloop
  endfacet
  facet normal 0.844325 -0.535831 0
    outer loop
      vertex 8.09017 -5.87785 1.8
      vertex 8.76307 -4.81754 0
      vertex 8.76307 -4.81754 1.8
    endloop
  endfacet
  facet normal 0.844325 -0.535831 0
    outer loop
      vertex 8.76307 -4.81754 0
      vertex 8.09017 -5.87785 1.8
      vertex 8.09017 -5.87785 0
    endloop
  endfacet
  facet normal 0.904831 -0.425771 0
    outer loop
      vertex 8.76307 -4.81754 1.8
      vertex 9.29776 -3.68124 0
      vertex 9.29776 -3.68124 1.8
    endloop
  endfacet
  facet normal 0.904831 -0.425771 0
    outer loop
      vertex 9.29776 -3.68124 0
      vertex 8.76307 -4.81754 1.8
      vertex 8.76307 -4.81754 0
    endloop
  endfacet
  facet normal -0.481751 -0.876308 0
    outer loop
      vertex -5.35827 -8.44328 0
      vertex -4.25779 -9.04827 1.8
      vertex -5.35827 -8.44328 1.8
    endloop
  endfacet
  facet normal -0.481751 -0.876308 -0
    outer loop
      vertex -4.25779 -9.04827 1.8
      vertex -5.35827 -8.44328 0
      vertex -4.25779 -9.04827 0
    endloop
  endfacet
  facet normal -0.248691 -0.968583 0
    outer loop
      vertex -3.09017 -9.51056 0
      vertex -1.87381 -9.82287 1.8
      vertex -3.09017 -9.51056 1.8
    endloop
  endfacet
  facet normal -0.248691 -0.968583 -0
    outer loop
      vertex -1.87381 -9.82287 1.8
      vertex -3.09017 -9.51056 0
      vertex -1.87381 -9.82287 0
    endloop
  endfacet
  facet normal 0.248691 -0.968583 0
    outer loop
      vertex 1.87381 -9.82287 0
      vertex 3.09017 -9.51056 1.8
      vertex 1.87381 -9.82287 1.8
    endloop
  endfacet
  facet normal 0.248691 -0.968583 0
    outer loop
      vertex 3.09017 -9.51056 1.8
      vertex 1.87381 -9.82287 0
      vertex 3.09017 -9.51056 0
    endloop
  endfacet
  facet normal 0.684545 -0.728971 0
    outer loop
      vertex 6.37424 -7.70513 0
      vertex 7.28969 -6.84547 1.8
      vertex 6.37424 -7.70513 1.8
    endloop
  endfacet
  facet normal 0.684545 -0.728971 0
    outer loop
      vertex 7.28969 -6.84547 1.8
      vertex 6.37424 -7.70513 0
      vertex 7.28969 -6.84547 0
    endloop
  endfacet
  facet normal 0.587788 -0.809015 0
    outer loop
      vertex 5.35827 -8.44328 0
      vertex 6.37424 -7.70513 1.8
      vertex 5.35827 -8.44328 1.8
    endloop
  endfacet
  facet normal 0.587788 -0.809015 0
    outer loop
      vertex 6.37424 -7.70513 1.8
      vertex 5.35827 -8.44328 0
      vertex 6.37424 -7.70513 0
    endloop
  endfacet
  facet normal -0.125338 -0.992114 0
    outer loop
      vertex -1.87381 -9.82287 0
      vertex -0.627905 -9.98027 1.8
      vertex -1.87381 -9.82287 1.8
    endloop
  endfacet
  facet normal -0.125338 -0.992114 -0
    outer loop
      vertex -0.627905 -9.98027 1.8
      vertex -1.87381 -9.82287 0
      vertex -0.627905 -9.98027 0
    endloop
  endfacet
  facet normal -0.982287 -0.187384 0
    outer loop
      vertex -9.68583 -2.4869 0
      vertex -9.92115 -1.25333 1.8
      vertex -9.92115 -1.25333 0
    endloop
  endfacet
  facet normal -0.982287 -0.187384 0
    outer loop
      vertex -9.92115 -1.25333 1.8
      vertex -9.68583 -2.4869 0
      vertex -9.68583 -2.4869 1.8
    endloop
  endfacet
  facet normal -0.998027 -0.0627883 0
    outer loop
      vertex -9.92115 -1.25333 0
      vertex -10 0 1.8
      vertex -10 0 0
    endloop
  endfacet
  facet normal -0.998027 -0.0627883 0
    outer loop
      vertex -10 0 1.8
      vertex -9.92115 -1.25333 0
      vertex -9.92115 -1.25333 1.8
    endloop
  endfacet
  facet normal -0.844325 -0.535831 0
    outer loop
      vertex -8.09017 -5.87785 0
      vertex -8.76307 -4.81754 1.8
      vertex -8.76307 -4.81754 0
    endloop
  endfacet
  facet normal -0.844325 -0.535831 0
    outer loop
      vertex -8.76307 -4.81754 1.8
      vertex -8.09017 -5.87785 0
      vertex -8.09017 -5.87785 1.8
    endloop
  endfacet
  facet normal -0.587788 -0.809015 0
    outer loop
      vertex -6.37424 -7.70513 0
      vertex -5.35827 -8.44328 1.8
      vertex -6.37424 -7.70513 1.8
    endloop
  endfacet
  facet normal -0.587788 -0.809015 -0
    outer loop
      vertex -5.35827 -8.44328 1.8
      vertex -6.37424 -7.70513 0
      vertex -5.35827 -8.44328 0
    endloop
  endfacet
  facet normal -0.368122 -0.929777 0
    outer loop
      vertex -4.25779 -9.04827 0
      vertex -3.09017 -9.51056 1.8
      vertex -4.25779 -9.04827 1.8
    endloop
  endfacet
  facet normal -0.368122 -0.929777 -0
    outer loop
      vertex -3.09017 -9.51056 1.8
      vertex -4.25779 -9.04827 0
      vertex -3.09017 -9.51056 0
    endloop
  endfacet
  facet normal 0.998027 0.0627919 0
    outer loop
      vertex 11.35 0 6
      vertex 11.2605 1.42253 1.8
      vertex 11.2605 1.42253 6
    endloop
  endfacet
  facet normal 0.998027 0.0627919 0
    outer loop
      vertex 11.2605 1.42253 1.8
      vertex 11.35 0 6
      vertex 11.35 0 1.8
    endloop
  endfacet
  facet normal -0.998027 0.0627919 0
    outer loop
      vertex -11.35 0 1.8
      vertex -11.2605 1.42253 6
      vertex -11.2605 1.42253 1.8
    endloop
  endfacet
  facet normal -0.998027 0.0627919 0
    outer loop
      vertex -11.2605 1.42253 6
      vertex -11.35 0 1.8
      vertex -11.35 0 6
    endloop
  endfacet
  facet normal 0 1 -0
    outer loop
      vertex 0.712672 11.3276 1.8
      vertex -0.712672 11.3276 6
      vertex 0.712672 11.3276 6
    endloop
  endfacet
  facet normal 0 1 0
    outer loop
      vertex -0.712672 11.3276 6
      vertex 0.712672 11.3276 1.8
      vertex -0.712672 11.3276 1.8
    endloop
  endfacet
  facet normal 0.684549 0.728967 -0
    outer loop
      vertex 8.27379 7.76961 1.8
      vertex 7.23476 8.74533 6
      vertex 8.27379 7.76961 6
    endloop
  endfacet
  facet normal 0.684549 0.728967 0
    outer loop
      vertex 7.23476 8.74533 6
      vertex 8.27379 7.76961 1.8
      vertex 7.23476 8.74533 1.8
    endloop
  endfacet
  facet normal -0.684549 0.728967 0
    outer loop
      vertex -7.23476 8.74533 1.8
      vertex -8.27379 7.76961 6
      vertex -7.23476 8.74533 6
    endloop
  endfacet
  facet normal -0.684549 0.728967 0
    outer loop
      vertex -8.27379 7.76961 6
      vertex -7.23476 8.74533 1.8
      vertex -8.27379 7.76961 1.8
    endloop
  endfacet
  facet normal -0.368122 0.929777 0
    outer loop
      vertex -3.50734 10.7945 1.8
      vertex -4.83259 10.2698 6
      vertex -3.50734 10.7945 6
    endloop
  endfacet
  facet normal -0.368122 0.929777 0
    outer loop
      vertex -4.83259 10.2698 6
      vertex -3.50734 10.7945 1.8
      vertex -4.83259 10.2698 1.8
    endloop
  endfacet
  facet normal 0.904817 0.425801 0
    outer loop
      vertex 10.553 4.17821 6
      vertex 9.94608 5.4679 1.8
      vertex 9.94608 5.4679 6
    endloop
  endfacet
  facet normal 0.904817 0.425801 0
    outer loop
      vertex 9.94608 5.4679 1.8
      vertex 10.553 4.17821 6
      vertex 10.553 4.17821 1.8
    endloop
  endfacet
  facet normal 0.982285 0.187393 0
    outer loop
      vertex 11.2605 1.42253 6
      vertex 10.9934 2.82263 1.8
      vertex 10.9934 2.82263 6
    endloop
  endfacet
  facet normal 0.982285 0.187393 0
    outer loop
      vertex 10.9934 2.82263 1.8
      vertex 11.2605 1.42253 6
      vertex 11.2605 1.42253 1.8
    endloop
  endfacet
  facet normal 0.844328 0.535827 0
    outer loop
      vertex 9.94608 5.4679 6
      vertex 9.18234 6.67136 1.8
      vertex 9.18234 6.67136 6
    endloop
  endfacet
  facet normal 0.844328 0.535827 0
    outer loop
      vertex 9.18234 6.67136 1.8
      vertex 9.94608 5.4679 6
      vertex 9.94608 5.4679 1.8
    endloop
  endfacet
  facet normal 0.368122 0.929777 -0
    outer loop
      vertex 4.83259 10.2698 1.8
      vertex 3.50734 10.7945 6
      vertex 4.83259 10.2698 6
    endloop
  endfacet
  facet normal 0.368122 0.929777 0
    outer loop
      vertex 3.50734 10.7945 6
      vertex 4.83259 10.2698 1.8
      vertex 3.50734 10.7945 1.8
    endloop
  endfacet
  facet normal 0.248711 0.968578 -0
    outer loop
      vertex 3.50734 10.7945 1.8
      vertex 2.12678 11.149 6
      vertex 3.50734 10.7945 6
    endloop
  endfacet
  facet normal 0.248711 0.968578 0
    outer loop
      vertex 2.12678 11.149 6
      vertex 3.50734 10.7945 1.8
      vertex 2.12678 11.149 1.8
    endloop
  endfacet
  facet normal 0.587782 0.80902 -0
    outer loop
      vertex 7.23476 8.74533 1.8
      vertex 6.08163 9.58312 6
      vertex 7.23476 8.74533 6
    endloop
  endfacet
  facet normal 0.587782 0.80902 0
    outer loop
      vertex 6.08163 9.58312 6
      vertex 7.23476 8.74533 1.8
      vertex 6.08163 9.58312 1.8
    endloop
  endfacet
  facet normal -0.904817 0.425801 0
    outer loop
      vertex -10.553 4.17821 1.8
      vertex -9.94608 5.4679 6
      vertex -9.94608 5.4679 1.8
    endloop
  endfacet
  facet normal -0.904817 0.425801 0
    outer loop
      vertex -9.94608 5.4679 6
      vertex -10.553 4.17821 1.8
      vertex -10.553 4.17821 6
    endloop
  endfacet
  facet normal -0.844328 0.535827 0
    outer loop
      vertex -9.94608 5.4679 1.8
      vertex -9.18234 6.67136 6
      vertex -9.18234 6.67136 1.8
    endloop
  endfacet
  facet normal -0.844328 0.535827 0
    outer loop
      vertex -9.18234 6.67136 6
      vertex -9.94608 5.4679 1.8
      vertex -9.94608 5.4679 6
    endloop
  endfacet
  facet normal -0.951068 0.308982 0
    outer loop
      vertex -10.9934 2.82263 1.8
      vertex -10.553 4.17821 6
      vertex -10.553 4.17821 1.8
    endloop
  endfacet
  facet normal -0.951068 0.308982 0
    outer loop
      vertex -10.553 4.17821 6
      vertex -10.9934 2.82263 1.8
      vertex -10.9934 2.82263 6
    endloop
  endfacet
  facet normal -0.587782 0.80902 0
    outer loop
      vertex -6.08163 9.58312 1.8
      vertex -7.23476 8.74533 6
      vertex -6.08163 9.58312 6
    endloop
  endfacet
  facet normal -0.587782 0.80902 0
    outer loop
      vertex -7.23476 8.74533 6
      vertex -6.08163 9.58312 1.8
      vertex -7.23476 8.74533 1.8
    endloop
  endfacet
  facet normal -0.125303 0.992118 0
    outer loop
      vertex -0.712672 11.3276 1.8
      vertex -2.12678 11.149 6
      vertex -0.712672 11.3276 6
    endloop
  endfacet
  facet normal -0.125303 0.992118 0
    outer loop
      vertex -2.12678 11.149 6
      vertex -0.712672 11.3276 1.8
      vertex -2.12678 11.149 1.8
    endloop
  endfacet
  facet normal 0.998027 -0.0627919 0
    outer loop
      vertex 11.2605 -1.42253 6
      vertex 11.35 0 1.8
      vertex 11.35 0 6
    endloop
  endfacet
  facet normal 0.998027 -0.0627919 0
    outer loop
      vertex 11.35 0 1.8
      vertex 11.2605 -1.42253 6
      vertex 11.2605 -1.42253 1.8
    endloop
  endfacet
  facet normal -0.248711 -0.968578 0
    outer loop
      vertex -3.50734 -10.7945 1.8
      vertex -2.12678 -11.149 6
      vertex -3.50734 -10.7945 6
    endloop
  endfacet
  facet normal -0.248711 -0.968578 -0
    outer loop
      vertex -2.12678 -11.149 6
      vertex -3.50734 -10.7945 1.8
      vertex -2.12678 -11.149 1.8
    endloop
  endfacet
  facet normal -0.904817 -0.425801 0
    outer loop
      vertex -9.94608 -5.4679 1.8
      vertex -10.553 -4.17821 6
      vertex -10.553 -4.17821 1.8
    endloop
  endfacet
  facet normal -0.904817 -0.425801 0
    outer loop
      vertex -10.553 -4.17821 6
      vertex -9.94608 -5.4679 1.8
      vertex -9.94608 -5.4679 6
    endloop
  endfacet
  facet normal 0.125303 -0.992118 0
    outer loop
      vertex 0.712672 -11.3276 1.8
      vertex 2.12678 -11.149 6
      vertex 0.712672 -11.3276 6
    endloop
  endfacet
  facet normal 0.125303 -0.992118 0
    outer loop
      vertex 2.12678 -11.149 6
      vertex 0.712672 -11.3276 1.8
      vertex 2.12678 -11.149 1.8
    endloop
  endfacet
  facet normal 0.951068 0.308982 0
    outer loop
      vertex 10.9934 2.82263 6
      vertex 10.553 4.17821 1.8
      vertex 10.553 4.17821 6
    endloop
  endfacet
  facet normal 0.951068 0.308982 0
    outer loop
      vertex 10.553 4.17821 1.8
      vertex 10.9934 2.82263 6
      vertex 10.9934 2.82263 1.8
    endloop
  endfacet
  facet normal 0.770514 0.637423 0
    outer loop
      vertex 9.18234 6.67136 6
      vertex 8.27379 7.76961 1.8
      vertex 8.27379 7.76961 6
    endloop
  endfacet
  facet normal 0.770514 0.637423 0
    outer loop
      vertex 8.27379 7.76961 1.8
      vertex 9.18234 6.67136 6
      vertex 9.18234 6.67136 1.8
    endloop
  endfacet
  facet normal 0.125303 0.992118 -0
    outer loop
      vertex 2.12678 11.149 1.8
      vertex 0.712672 11.3276 6
      vertex 2.12678 11.149 6
    endloop
  endfacet
  facet normal 0.125303 0.992118 0
    outer loop
      vertex 0.712672 11.3276 6
      vertex 2.12678 11.149 1.8
      vertex 0.712672 11.3276 1.8
    endloop
  endfacet
  facet normal 0.481761 0.876302 -0
    outer loop
      vertex 6.08163 9.58312 1.8
      vertex 4.83259 10.2698 6
      vertex 6.08163 9.58312 6
    endloop
  endfacet
  facet normal 0.481761 0.876302 0
    outer loop
      vertex 4.83259 10.2698 6
      vertex 6.08163 9.58312 1.8
      vertex 4.83259 10.2698 1.8
    endloop
  endfacet
  facet normal 0.844328 -0.535827 0
    outer loop
      vertex 9.18234 -6.67136 6
      vertex 9.94608 -5.4679 1.8
      vertex 9.94608 -5.4679 6
    endloop
  endfacet
  facet normal 0.844328 -0.535827 0
    outer loop
      vertex 9.94608 -5.4679 1.8
      vertex 9.18234 -6.67136 6
      vertex 9.18234 -6.67136 1.8
    endloop
  endfacet
  facet normal 0.951068 -0.308982 0
    outer loop
      vertex 10.553 -4.17821 6
      vertex 10.9934 -2.82263 1.8
      vertex 10.9934 -2.82263 6
    endloop
  endfacet
  facet normal 0.951068 -0.308982 0
    outer loop
      vertex 10.9934 -2.82263 1.8
      vertex 10.553 -4.17821 6
      vertex 10.553 -4.17821 1.8
    endloop
  endfacet
  facet normal 0.982285 -0.187393 0
    outer loop
      vertex 10.9934 -2.82263 6
      vertex 11.2605 -1.42253 1.8
      vertex 11.2605 -1.42253 6
    endloop
  endfacet
  facet normal 0.982285 -0.187393 0
    outer loop
      vertex 11.2605 -1.42253 1.8
      vertex 10.9934 -2.82263 6
      vertex 10.9934 -2.82263 1.8
    endloop
  endfacet
  facet normal -0.125303 -0.992118 0
    outer loop
      vertex -2.12678 -11.149 1.8
      vertex -0.712672 -11.3276 6
      vertex -2.12678 -11.149 6
    endloop
  endfacet
  facet normal -0.125303 -0.992118 -0
    outer loop
      vertex -0.712672 -11.3276 6
      vertex -2.12678 -11.149 1.8
      vertex -0.712672 -11.3276 1.8
    endloop
  endfacet
  facet normal -0.844328 -0.535827 0
    outer loop
      vertex -9.18234 -6.67136 1.8
      vertex -9.94608 -5.4679 6
      vertex -9.94608 -5.4679 1.8
    endloop
  endfacet
  facet normal -0.844328 -0.535827 0
    outer loop
      vertex -9.94608 -5.4679 6
      vertex -9.18234 -6.67136 1.8
      vertex -9.18234 -6.67136 6
    endloop
  endfacet
  facet normal -0.951068 -0.308982 0
    outer loop
      vertex -10.553 -4.17821 1.8
      vertex -10.9934 -2.82263 6
      vertex -10.9934 -2.82263 1.8
    endloop
  endfacet
  facet normal -0.951068 -0.308982 0
    outer loop
      vertex -10.9934 -2.82263 6
      vertex -10.553 -4.17821 1.8
      vertex -10.553 -4.17821 6
    endloop
  endfacet
  facet normal 0.368122 -0.929777 0
    outer loop
      vertex 3.50734 -10.7945 1.8
      vertex 4.83259 -10.2698 6
      vertex 3.50734 -10.7945 6
    endloop
  endfacet
  facet normal 0.368122 -0.929777 0
    outer loop
      vertex 4.83259 -10.2698 6
      vertex 3.50734 -10.7945 1.8
      vertex 4.83259 -10.2698 1.8
    endloop
  endfacet
  facet normal 0.248711 -0.968578 0
    outer loop
      vertex 2.12678 -11.149 1.8
      vertex 3.50734 -10.7945 6
      vertex 2.12678 -11.149 6
    endloop
  endfacet
  facet normal 0.248711 -0.968578 0
    outer loop
      vertex 3.50734 -10.7945 6
      vertex 2.12678 -11.149 1.8
      vertex 3.50734 -10.7945 1.8
    endloop
  endfacet
  facet normal -0.770514 0.637423 0
    outer loop
      vertex -9.18234 6.67136 1.8
      vertex -8.27379 7.76961 6
      vertex -8.27379 7.76961 1.8
    endloop
  endfacet
  facet normal -0.770514 0.637423 0
    outer loop
      vertex -8.27379 7.76961 6
      vertex -9.18234 6.67136 1.8
      vertex -9.18234 6.67136 6
    endloop
  endfacet
  facet normal -0.982285 0.187393 0
    outer loop
      vertex -11.2605 1.42253 1.8
      vertex -10.9934 2.82263 6
      vertex -10.9934 2.82263 1.8
    endloop
  endfacet
  facet normal -0.982285 0.187393 0
    outer loop
      vertex -10.9934 2.82263 6
      vertex -11.2605 1.42253 1.8
      vertex -11.2605 1.42253 6
    endloop
  endfacet
  facet normal -0.481761 0.876302 0
    outer loop
      vertex -4.83259 10.2698 1.8
      vertex -6.08163 9.58312 6
      vertex -4.83259 10.2698 6
    endloop
  endfacet
  facet normal -0.481761 0.876302 0
    outer loop
      vertex -6.08163 9.58312 6
      vertex -4.83259 10.2698 1.8
      vertex -6.08163 9.58312 1.8
    endloop
  endfacet
  facet normal -0.248711 0.968578 0
    outer loop
      vertex -2.12678 11.149 1.8
      vertex -3.50734 10.7945 6
      vertex -2.12678 11.149 6
    endloop
  endfacet
  facet normal -0.248711 0.968578 0
    outer loop
      vertex -3.50734 10.7945 6
      vertex -2.12678 11.149 1.8
      vertex -3.50734 10.7945 1.8
    endloop
  endfacet
  facet normal 0.481761 -0.876302 0
    outer loop
      vertex 4.83259 -10.2698 1.8
      vertex 6.08163 -9.58312 6
      vertex 4.83259 -10.2698 6
    endloop
  endfacet
  facet normal 0.481761 -0.876302 0
    outer loop
      vertex 6.08163 -9.58312 6
      vertex 4.83259 -10.2698 1.8
      vertex 6.08163 -9.58312 1.8
    endloop
  endfacet
  facet normal 0.684549 -0.728967 0
    outer loop
      vertex 7.23476 -8.74533 1.8
      vertex 8.27379 -7.76961 6
      vertex 7.23476 -8.74533 6
    endloop
  endfacet
  facet normal 0.684549 -0.728967 0
    outer loop
      vertex 8.27379 -7.76961 6
      vertex 7.23476 -8.74533 1.8
      vertex 8.27379 -7.76961 1.8
    endloop
  endfacet
  facet normal 0.904817 -0.425801 0
    outer loop
      vertex 9.94608 -5.4679 6
      vertex 10.553 -4.17821 1.8
      vertex 10.553 -4.17821 6
    endloop
  endfacet
  facet normal 0.904817 -0.425801 0
    outer loop
      vertex 10.553 -4.17821 1.8
      vertex 9.94608 -5.4679 6
      vertex 9.94608 -5.4679 1.8
    endloop
  endfacet
  facet normal -0.368122 -0.929777 0
    outer loop
      vertex -4.83259 -10.2698 1.8
      vertex -3.50734 -10.7945 6
      vertex -4.83259 -10.2698 6
    endloop
  endfacet
  facet normal -0.368122 -0.929777 -0
    outer loop
      vertex -3.50734 -10.7945 6
      vertex -4.83259 -10.2698 1.8
      vertex -3.50734 -10.7945 1.8
    endloop
  endfacet
  facet normal -0.770514 -0.637423 0
    outer loop
      vertex -8.27379 -7.76961 1.8
      vertex -9.18234 -6.67136 6
      vertex -9.18234 -6.67136 1.8
    endloop
  endfacet
  facet normal -0.770514 -0.637423 0
    outer loop
      vertex -9.18234 -6.67136 6
      vertex -8.27379 -7.76961 1.8
      vertex -8.27379 -7.76961 6
    endloop
  endfacet
  facet normal -0.998027 -0.0627919 0
    outer loop
      vertex -11.2605 -1.42253 1.8
      vertex -11.35 0 6
      vertex -11.35 0 1.8
    endloop
  endfacet
  facet normal -0.998027 -0.0627919 0
    outer loop
      vertex -11.35 0 6
      vertex -11.2605 -1.42253 1.8
      vertex -11.2605 -1.42253 6
    endloop
  endfacet
  facet normal -0.982285 -0.187393 0
    outer loop
      vertex -10.9934 -2.82263 1.8
      vertex -11.2605 -1.42253 6
      vertex -11.2605 -1.42253 1.8
    endloop
  endfacet
  facet normal -0.982285 -0.187393 0
    outer loop
      vertex -11.2605 -1.42253 6
      vertex -10.9934 -2.82263 1.8
      vertex -10.9934 -2.82263 6
    endloop
  endfacet
  facet normal 0.770514 -0.637423 0
    outer loop
      vertex 8.27379 -7.76961 6
      vertex 9.18234 -6.67136 1.8
      vertex 9.18234 -6.67136 6
    endloop
  endfacet
  facet normal 0.770514 -0.637423 0
    outer loop
      vertex 9.18234 -6.67136 1.8
      vertex 8.27379 -7.76961 6
      vertex 8.27379 -7.76961 1.8
    endloop
  endfacet
  facet normal 0.587782 -0.80902 0
    outer loop
      vertex 6.08163 -9.58312 1.8
      vertex 7.23476 -8.74533 6
      vertex 6.08163 -9.58312 6
    endloop
  endfacet
  facet normal 0.587782 -0.80902 0
    outer loop
      vertex 7.23476 -8.74533 6
      vertex 6.08163 -9.58312 1.8
      vertex 7.23476 -8.74533 1.8
    endloop
  endfacet
  facet normal 0 -1 0
    outer loop
      vertex -0.712672 -11.3276 1.8
      vertex 0.712672 -11.3276 6
      vertex -0.712672 -11.3276 6
    endloop
  endfacet
  facet normal 0 -1 -0
    outer loop
      vertex 0.712672 -11.3276 6
      vertex -0.712672 -11.3276 1.8
      vertex 0.712672 -11.3276 1.8
    endloop
  endfacet
  facet normal -0.587782 -0.80902 0
    outer loop
      vertex -7.23476 -8.74533 1.8
      vertex -6.08163 -9.58312 6
      vertex -7.23476 -8.74533 6
    endloop
  endfacet
  facet normal -0.587782 -0.80902 -0
    outer loop
      vertex -6.08163 -9.58312 6
      vertex -7.23476 -8.74533 1.8
      vertex -6.08163 -9.58312 1.8
    endloop
  endfacet
  facet normal -0.684549 -0.728967 0
    outer loop
      vertex -8.27379 -7.76961 1.8
      vertex -7.23476 -8.74533 6
      vertex -8.27379 -7.76961 6
    endloop
  endfacet
  facet normal -0.684549 -0.728967 -0
    outer loop
      vertex -7.23476 -8.74533 6
      vertex -8.27379 -7.76961 1.8
      vertex -7.23476 -8.74533 1.8
    endloop
  endfacet
  facet normal -0.481761 -0.876302 0
    outer loop
      vertex -6.08163 -9.58312 1.8
      vertex -4.83259 -10.2698 6
      vertex -6.08163 -9.58312 6
    endloop
  endfacet
  facet normal -0.481761 -0.876302 -0
    outer loop
      vertex -4.83259 -10.2698 6
      vertex -6.08163 -9.58312 1.8
      vertex -4.83259 -10.2698 1.8
    endloop
  endfacet
  facet normal -0.844329 -0.535826 0
    outer loop
      vertex 0.832491 0.457665 0
      vertex 0.768566 0.558395 6
      vertex 0.768566 0.558395 0
    endloop
  endfacet
  facet normal -0.844329 -0.535826 0
    outer loop
      vertex 0.768566 0.558395 6
      vertex 0.832491 0.457665 0
      vertex 0.832491 0.457665 6
    endloop
  endfacet
  facet normal -0.368125 -0.929776 0
    outer loop
      vertex 0.293566 0.903503 0
      vertex 0.40449 0.859585 6
      vertex 0.293566 0.903503 6
    endloop
  endfacet
  facet normal -0.368125 -0.929776 -0
    outer loop
      vertex 0.40449 0.859585 6
      vertex 0.293566 0.903503 0
      vertex 0.40449 0.859585 0
    endloop
  endfacet
  facet normal 0.368125 -0.929776 0
    outer loop
      vertex -0.40449 0.859585 0
      vertex -0.293566 0.903503 6
      vertex -0.40449 0.859585 6
    endloop
  endfacet
  facet normal 0.368125 -0.929776 0
    outer loop
      vertex -0.293566 0.903503 6
      vertex -0.40449 0.859585 0
      vertex -0.293566 0.903503 0
    endloop
  endfacet
  facet normal 0.904827 -0.425779 0
    outer loop
      vertex -0.883287 0.349718 6
      vertex -0.832491 0.457665 0
      vertex -0.832491 0.457665 6
    endloop
  endfacet
  facet normal 0.904827 -0.425779 0
    outer loop
      vertex -0.832491 0.457665 0
      vertex -0.883287 0.349718 6
      vertex -0.883287 0.349718 0
    endloop
  endfacet
  facet normal -0.998027 0.0627905 0
    outer loop
      vertex 0.942509 -0.119066 0
      vertex 0.95 0 6
      vertex 0.95 0 0
    endloop
  endfacet
  facet normal -0.998027 0.0627905 0
    outer loop
      vertex 0.95 0 6
      vertex 0.942509 -0.119066 0
      vertex 0.942509 -0.119066 6
    endloop
  endfacet
  facet normal -0.904827 -0.425779 0
    outer loop
      vertex 0.883287 0.349718 0
      vertex 0.832491 0.457665 6
      vertex 0.832491 0.457665 0
    endloop
  endfacet
  facet normal -0.904827 -0.425779 0
    outer loop
      vertex 0.832491 0.457665 6
      vertex 0.883287 0.349718 0
      vertex 0.883287 0.349718 6
    endloop
  endfacet
  facet normal 0 -1 0
    outer loop
      vertex -0.0596504 0.948125 0
      vertex 0.0596504 0.948125 6
      vertex -0.0596504 0.948125 6
    endloop
  endfacet
  facet normal 0 -1 -0
    outer loop
      vertex 0.0596504 0.948125 6
      vertex -0.0596504 0.948125 0
      vertex 0.0596504 0.948125 0
    endloop
  endfacet
  facet normal -0.587783 -0.809019 0
    outer loop
      vertex 0.509035 0.802111 0
      vertex 0.605553 0.731987 6
      vertex 0.509035 0.802111 6
    endloop
  endfacet
  facet normal -0.587783 -0.809019 -0
    outer loop
      vertex 0.605553 0.731987 6
      vertex 0.509035 0.802111 0
      vertex 0.605553 0.731987 0
    endloop
  endfacet
  facet normal 0.998027 -0.0627905 0
    outer loop
      vertex -0.95 0 6
      vertex -0.942509 0.119066 0
      vertex -0.942509 0.119066 6
    endloop
  endfacet
  facet normal 0.998027 -0.0627905 0
    outer loop
      vertex -0.942509 0.119066 0
      vertex -0.95 0 6
      vertex -0.95 0 0
    endloop
  endfacet
  facet normal 0.770514 -0.637423 0
    outer loop
      vertex -0.768566 0.558395 6
      vertex -0.69252 0.650319 0
      vertex -0.69252 0.650319 6
    endloop
  endfacet
  facet normal 0.770514 -0.637423 0
    outer loop
      vertex -0.69252 0.650319 0
      vertex -0.768566 0.558395 6
      vertex -0.768566 0.558395 0
    endloop
  endfacet
  facet normal 0.68455 -0.728966 0
    outer loop
      vertex -0.69252 0.650319 0
      vertex -0.605553 0.731987 6
      vertex -0.69252 0.650319 6
    endloop
  endfacet
  facet normal 0.68455 -0.728966 0
    outer loop
      vertex -0.605553 0.731987 6
      vertex -0.69252 0.650319 0
      vertex -0.605553 0.731987 0
    endloop
  endfacet
  facet normal -0.481753 0.876307 0
    outer loop
      vertex 0.509035 -0.802111 0
      vertex 0.40449 -0.859585 6
      vertex 0.509035 -0.802111 6
    endloop
  endfacet
  facet normal -0.481753 0.876307 0
    outer loop
      vertex 0.40449 -0.859585 6
      vertex 0.509035 -0.802111 0
      vertex 0.40449 -0.859585 0
    endloop
  endfacet
  facet normal -0.904827 0.425779 0
    outer loop
      vertex 0.832491 -0.457665 0
      vertex 0.883287 -0.349718 6
      vertex 0.883287 -0.349718 0
    endloop
  endfacet
  facet normal -0.904827 0.425779 0
    outer loop
      vertex 0.883287 -0.349718 6
      vertex 0.832491 -0.457665 0
      vertex 0.832491 -0.457665 6
    endloop
  endfacet
  facet normal 0.68455 0.728966 -0
    outer loop
      vertex -0.605553 -0.731987 0
      vertex -0.69252 -0.650319 6
      vertex -0.605553 -0.731987 6
    endloop
  endfacet
  facet normal 0.68455 0.728966 0
    outer loop
      vertex -0.69252 -0.650319 6
      vertex -0.605553 -0.731987 0
      vertex -0.69252 -0.650319 0
    endloop
  endfacet
  facet normal 0.904827 0.425779 0
    outer loop
      vertex -0.832491 -0.457665 6
      vertex -0.883287 -0.349718 0
      vertex -0.883287 -0.349718 6
    endloop
  endfacet
  facet normal 0.904827 0.425779 0
    outer loop
      vertex -0.883287 -0.349718 0
      vertex -0.832491 -0.457665 6
      vertex -0.832491 -0.457665 0
    endloop
  endfacet
  facet normal -0.982287 -0.187381 0
    outer loop
      vertex 0.942509 0.119066 0
      vertex 0.920154 0.236255 6
      vertex 0.920154 0.236255 0
    endloop
  endfacet
  facet normal -0.982287 -0.187381 0
    outer loop
      vertex 0.920154 0.236255 6
      vertex 0.942509 0.119066 0
      vertex 0.942509 0.119066 6
    endloop
  endfacet
  facet normal -0.951055 -0.309022 0
    outer loop
      vertex 0.920154 0.236255 0
      vertex 0.883287 0.349718 6
      vertex 0.883287 0.349718 0
    endloop
  endfacet
  facet normal -0.951055 -0.309022 0
    outer loop
      vertex 0.883287 0.349718 6
      vertex 0.920154 0.236255 0
      vertex 0.920154 0.236255 6
    endloop
  endfacet
  facet normal -0.770514 -0.637423 0
    outer loop
      vertex 0.768566 0.558395 0
      vertex 0.69252 0.650319 6
      vertex 0.69252 0.650319 0
    endloop
  endfacet
  facet normal -0.770514 -0.637423 0
    outer loop
      vertex 0.69252 0.650319 6
      vertex 0.768566 0.558395 0
      vertex 0.768566 0.558395 6
    endloop
  endfacet
  facet normal -0.68455 -0.728966 0
    outer loop
      vertex 0.605553 0.731987 0
      vertex 0.69252 0.650319 6
      vertex 0.605553 0.731987 6
    endloop
  endfacet
  facet normal -0.68455 -0.728966 -0
    outer loop
      vertex 0.69252 0.650319 6
      vertex 0.605553 0.731987 0
      vertex 0.69252 0.650319 0
    endloop
  endfacet
  facet normal -0.248688 -0.968584 0
    outer loop
      vertex 0.178012 0.933172 0
      vertex 0.293566 0.903503 6
      vertex 0.178012 0.933172 6
    endloop
  endfacet
  facet normal -0.248688 -0.968584 -0
    outer loop
      vertex 0.293566 0.903503 6
      vertex 0.178012 0.933172 0
      vertex 0.293566 0.903503 0
    endloop
  endfacet
  facet normal 0.951055 -0.309022 0
    outer loop
      vertex -0.920154 0.236255 6
      vertex -0.883287 0.349718 0
      vertex -0.883287 0.349718 6
    endloop
  endfacet
  facet normal 0.951055 -0.309022 0
    outer loop
      vertex -0.883287 0.349718 0
      vertex -0.920154 0.236255 6
      vertex -0.920154 0.236255 0
    endloop
  endfacet
  facet normal 0.125337 -0.992114 0
    outer loop
      vertex -0.178012 0.933172 0
      vertex -0.0596504 0.948125 6
      vertex -0.178012 0.933172 6
    endloop
  endfacet
  facet normal 0.125337 -0.992114 0
    outer loop
      vertex -0.0596504 0.948125 6
      vertex -0.178012 0.933172 0
      vertex -0.0596504 0.948125 0
    endloop
  endfacet
  facet normal 0.481753 -0.876307 0
    outer loop
      vertex -0.509035 0.802111 0
      vertex -0.40449 0.859585 6
      vertex -0.509035 0.802111 6
    endloop
  endfacet
  facet normal 0.481753 -0.876307 0
    outer loop
      vertex -0.40449 0.859585 6
      vertex -0.509035 0.802111 0
      vertex -0.40449 0.859585 0
    endloop
  endfacet
  facet normal -0.998027 -0.0627905 0
    outer loop
      vertex 0.95 0 0
      vertex 0.942509 0.119066 6
      vertex 0.942509 0.119066 0
    endloop
  endfacet
  facet normal -0.998027 -0.0627905 0
    outer loop
      vertex 0.942509 0.119066 6
      vertex 0.95 0 0
      vertex 0.95 0 6
    endloop
  endfacet
  facet normal -0.951055 0.309022 0
    outer loop
      vertex 0.883287 -0.349718 0
      vertex 0.920154 -0.236255 6
      vertex 0.920154 -0.236255 0
    endloop
  endfacet
  facet normal -0.951055 0.309022 0
    outer loop
      vertex 0.920154 -0.236255 6
      vertex 0.883287 -0.349718 0
      vertex 0.883287 -0.349718 6
    endloop
  endfacet
  facet normal -0.770514 0.637423 0
    outer loop
      vertex 0.69252 -0.650319 0
      vertex 0.768566 -0.558395 6
      vertex 0.768566 -0.558395 0
    endloop
  endfacet
  facet normal -0.770514 0.637423 0
    outer loop
      vertex 0.768566 -0.558395 6
      vertex 0.69252 -0.650319 0
      vertex 0.69252 -0.650319 6
    endloop
  endfacet
  facet normal 0.587783 0.809019 -0
    outer loop
      vertex -0.509035 -0.802111 0
      vertex -0.605553 -0.731987 6
      vertex -0.509035 -0.802111 6
    endloop
  endfacet
  facet normal 0.587783 0.809019 0
    outer loop
      vertex -0.605553 -0.731987 6
      vertex -0.509035 -0.802111 0
      vertex -0.605553 -0.731987 0
    endloop
  endfacet
  facet normal 0.998027 0.0627905 0
    outer loop
      vertex -0.942509 -0.119066 6
      vertex -0.95 0 0
      vertex -0.95 0 6
    endloop
  endfacet
  facet normal 0.998027 0.0627905 0
    outer loop
      vertex -0.95 0 0
      vertex -0.942509 -0.119066 6
      vertex -0.942509 -0.119066 0
    endloop
  endfacet
  facet normal 0.770514 0.637423 0
    outer loop
      vertex -0.69252 -0.650319 6
      vertex -0.768566 -0.558395 0
      vertex -0.768566 -0.558395 6
    endloop
  endfacet
  facet normal 0.770514 0.637423 0
    outer loop
      vertex -0.768566 -0.558395 0
      vertex -0.69252 -0.650319 6
      vertex -0.69252 -0.650319 0
    endloop
  endfacet
  facet normal 0 1 -0
    outer loop
      vertex 0.0596504 -0.948125 0
      vertex -0.0596504 -0.948125 6
      vertex 0.0596504 -0.948125 6
    endloop
  endfacet
  facet normal 0 1 0
    outer loop
      vertex -0.0596504 -0.948125 6
      vertex 0.0596504 -0.948125 0
      vertex -0.0596504 -0.948125 0
    endloop
  endfacet
  facet normal -0.125337 0.992114 0
    outer loop
      vertex 0.178012 -0.933172 0
      vertex 0.0596504 -0.948125 6
      vertex 0.178012 -0.933172 6
    endloop
  endfacet
  facet normal -0.125337 0.992114 0
    outer loop
      vertex 0.0596504 -0.948125 6
      vertex 0.178012 -0.933172 0
      vertex 0.0596504 -0.948125 0
    endloop
  endfacet
  facet normal -0.368125 0.929776 0
    outer loop
      vertex 0.40449 -0.859585 0
      vertex 0.293566 -0.903503 6
      vertex 0.40449 -0.859585 6
    endloop
  endfacet
  facet normal -0.368125 0.929776 0
    outer loop
      vertex 0.293566 -0.903503 6
      vertex 0.40449 -0.859585 0
      vertex 0.293566 -0.903503 0
    endloop
  endfacet
  facet normal -0.125337 -0.992114 0
    outer loop
      vertex 0.0596504 0.948125 0
      vertex 0.178012 0.933172 6
      vertex 0.0596504 0.948125 6
    endloop
  endfacet
  facet normal -0.125337 -0.992114 -0
    outer loop
      vertex 0.178012 0.933172 6
      vertex 0.0596504 0.948125 0
      vertex 0.178012 0.933172 0
    endloop
  endfacet
  facet normal -0.481753 -0.876307 0
    outer loop
      vertex 0.40449 0.859585 0
      vertex 0.509035 0.802111 6
      vertex 0.40449 0.859585 6
    endloop
  endfacet
  facet normal -0.481753 -0.876307 -0
    outer loop
      vertex 0.509035 0.802111 6
      vertex 0.40449 0.859585 0
      vertex 0.509035 0.802111 0
    endloop
  endfacet
  facet normal 0.982287 -0.187381 0
    outer loop
      vertex -0.942509 0.119066 6
      vertex -0.920154 0.236255 0
      vertex -0.920154 0.236255 6
    endloop
  endfacet
  facet normal 0.982287 -0.187381 0
    outer loop
      vertex -0.920154 0.236255 0
      vertex -0.942509 0.119066 6
      vertex -0.942509 0.119066 0
    endloop
  endfacet
  facet normal 0.844329 -0.535826 0
    outer loop
      vertex -0.832491 0.457665 6
      vertex -0.768566 0.558395 0
      vertex -0.768566 0.558395 6
    endloop
  endfacet
  facet normal 0.844329 -0.535826 0
    outer loop
      vertex -0.768566 0.558395 0
      vertex -0.832491 0.457665 6
      vertex -0.832491 0.457665 0
    endloop
  endfacet
  facet normal 0.248688 -0.968584 0
    outer loop
      vertex -0.293566 0.903503 0
      vertex -0.178012 0.933172 6
      vertex -0.293566 0.903503 6
    endloop
  endfacet
  facet normal 0.248688 -0.968584 0
    outer loop
      vertex -0.178012 0.933172 6
      vertex -0.293566 0.903503 0
      vertex -0.178012 0.933172 0
    endloop
  endfacet
  facet normal 0.587783 -0.809019 0
    outer loop
      vertex -0.605553 0.731987 0
      vertex -0.509035 0.802111 6
      vertex -0.605553 0.731987 6
    endloop
  endfacet
  facet normal 0.587783 -0.809019 0
    outer loop
      vertex -0.509035 0.802111 6
      vertex -0.605553 0.731987 0
      vertex -0.509035 0.802111 0
    endloop
  endfacet
  facet normal -0.982287 0.187381 0
    outer loop
      vertex 0.920154 -0.236255 0
      vertex 0.942509 -0.119066 6
      vertex 0.942509 -0.119066 0
    endloop
  endfacet
  facet normal -0.982287 0.187381 0
    outer loop
      vertex 0.942509 -0.119066 6
      vertex 0.920154 -0.236255 0
      vertex 0.920154 -0.236255 6
    endloop
  endfacet
  facet normal -0.844329 0.535826 0
    outer loop
      vertex 0.768566 -0.558395 0
      vertex 0.832491 -0.457665 6
      vertex 0.832491 -0.457665 0
    endloop
  endfacet
  facet normal -0.844329 0.535826 0
    outer loop
      vertex 0.832491 -0.457665 6
      vertex 0.768566 -0.558395 0
      vertex 0.768566 -0.558395 6
    endloop
  endfacet
  facet normal -0.68455 0.728966 0
    outer loop
      vertex 0.69252 -0.650319 0
      vertex 0.605553 -0.731987 6
      vertex 0.69252 -0.650319 6
    endloop
  endfacet
  facet normal -0.68455 0.728966 0
    outer loop
      vertex 0.605553 -0.731987 6
      vertex 0.69252 -0.650319 0
      vertex 0.605553 -0.731987 0
    endloop
  endfacet
  facet normal 0.481753 0.876307 -0
    outer loop
      vertex -0.40449 -0.859585 0
      vertex -0.509035 -0.802111 6
      vertex -0.40449 -0.859585 6
    endloop
  endfacet
  facet normal 0.481753 0.876307 0
    outer loop
      vertex -0.509035 -0.802111 6
      vertex -0.40449 -0.859585 0
      vertex -0.509035 -0.802111 0
    endloop
  endfacet
  facet normal 0.248688 0.968584 -0
    outer loop
      vertex -0.178012 -0.933172 0
      vertex -0.293566 -0.903503 6
      vertex -0.178012 -0.933172 6
    endloop
  endfacet
  facet normal 0.248688 0.968584 0
    outer loop
      vertex -0.293566 -0.903503 6
      vertex -0.178012 -0.933172 0
      vertex -0.293566 -0.903503 0
    endloop
  endfacet
  facet normal 0.951055 0.309022 0
    outer loop
      vertex -0.883287 -0.349718 6
      vertex -0.920154 -0.236255 0
      vertex -0.920154 -0.236255 6
    endloop
  endfacet
  facet normal 0.951055 0.309022 0
    outer loop
      vertex -0.920154 -0.236255 0
      vertex -0.883287 -0.349718 6
      vertex -0.883287 -0.349718 0
    endloop
  endfacet
  facet normal -0.248688 0.968584 0
    outer loop
      vertex 0.293566 -0.903503 0
      vertex 0.178012 -0.933172 6
      vertex 0.293566 -0.903503 6
    endloop
  endfacet
  facet normal -0.248688 0.968584 0
    outer loop
      vertex 0.178012 -0.933172 6
      vertex 0.293566 -0.903503 0
      vertex 0.178012 -0.933172 0
    endloop
  endfacet
  facet normal -0.587783 0.809019 0
    outer loop
      vertex 0.605553 -0.731987 0
      vertex 0.509035 -0.802111 6
      vertex 0.605553 -0.731987 6
    endloop
  endfacet
  facet normal -0.587783 0.809019 0
    outer loop
      vertex 0.509035 -0.802111 6
      vertex 0.605553 -0.731987 0
      vertex 0.509035 -0.802111 0
    endloop
  endfacet
  facet normal 0.125337 0.992114 -0
    outer loop
      vertex -0.0596504 -0.948125 0
      vertex -0.178012 -0.933172 6
      vertex -0.0596504 -0.948125 6
    endloop
  endfacet
  facet normal 0.125337 0.992114 0
    outer loop
      vertex -0.178012 -0.933172 6
      vertex -0.0596504 -0.948125 0
      vertex -0.178012 -0.933172 0
    endloop
  endfacet
  facet normal 0.368125 0.929776 -0
    outer loop
      vertex -0.293566 -0.903503 0
      vertex -0.40449 -0.859585 6
      vertex -0.293566 -0.903503 6
    endloop
  endfacet
  facet normal 0.368125 0.929776 0
    outer loop
      vertex -0.40449 -0.859585 6
      vertex -0.293566 -0.903503 0
      vertex -0.40449 -0.859585 0
    endloop
  endfacet
  facet normal 0.982287 0.187381 0
    outer loop
      vertex -0.920154 -0.236255 6
      vertex -0.942509 -0.119066 0
      vertex -0.942509 -0.119066 6
    endloop
  endfacet
  facet normal 0.982287 0.187381 0
    outer loop
      vertex -0.942509 -0.119066 0
      vertex -0.920154 -0.236255 6
      vertex -0.920154 -0.236255 0
    endloop
  endfacet
  facet normal 0.844329 0.535826 0
    outer loop
      vertex -0.768566 -0.558395 6
      vertex -0.832491 -0.457665 0
      vertex -0.832491 -0.457665 6
    endloop
  endfacet
  facet normal 0.844329 0.535826 0
    outer loop
      vertex -0.832491 -0.457665 0
      vertex -0.768566 -0.558395 6
      vertex -0.768566 -0.558395 0
    endloop
  endfacet
  facet normal 0 0 -1
    outer loop
      vertex 0.95 0 0
      vertex 10 0 0
      vertex 9.92115 -1.25333 0
    endloop
  endfacet
  facet normal 0 0 -1
    outer loop
      vertex 0.942509 -0.119066 0
      vertex 9.92115 -1.25333 0
      vertex 9.68583 -2.4869 0
    endloop
  endfacet
  facet normal 0 0 -1
    outer loop
      vertex 10 0 0
      vertex 0.95 0 0
      vertex 9.92115 1.25333 0
    endloop
  endfacet
  facet normal 0 0 -1
    outer loop
      vertex 0.920154 -0.236255 0
      vertex 9.68583 -2.4869 0
      vertex 9.29776 -3.68124 0
    endloop
  endfacet
  facet normal 0 0 -1
    outer loop
      vertex 0.942509 0.119066 0
      vertex 9.92115 1.25333 0
      vertex 0.95 0 0
    endloop
  endfacet
  facet normal 0 0 -1
    outer loop
      vertex 0.883287 -0.349718 0
      vertex 9.29776 -3.68124 0
      vertex 8.76307 -4.81754 0
    endloop
  endfacet
  facet normal -0 0 -1
    outer loop
      vertex 9.92115 1.25333 0
      vertex 0.942509 0.119066 0
      vertex 9.68583 2.4869 0
    endloop
  endfacet
  facet normal 0 0 -1
    outer loop
      vertex 0.832491 -0.457665 0
      vertex 8.76307 -4.81754 0
      vertex 8.09017 -5.87785 0
    endloop
  endfacet
  facet normal 0 0 -1
    outer loop
      vertex 0.920154 0.236255 0
      vertex 9.68583 2.4869 0
      vertex 0.942509 0.119066 0
    endloop
  endfacet
  facet normal 0 0 -1
    outer loop
      vertex 0.768566 -0.558395 0
      vertex 8.09017 -5.87785 0
      vertex 7.28969 -6.84547 0
    endloop
  endfacet
  facet normal -0 0 -1
    outer loop
      vertex 9.68583 2.4869 0
      vertex 0.920154 0.236255 0
      vertex 9.29776 3.68124 0
    endloop
  endfacet
  facet normal 0 0 -1
    outer loop
      vertex 0.69252 -0.650319 0
      vertex 7.28969 -6.84547 0
      vertex 6.37424 -7.70513 0
    endloop
  endfacet
  facet normal 0 0 -1
    outer loop
      vertex 0.883287 0.349718 0
      vertex 9.29776 3.68124 0
      vertex 0.920154 0.236255 0
    endloop
  endfacet
  facet normal 0 0 -1
    outer loop
      vertex 0.605553 -0.731987 0
      vertex 6.37424 -7.70513 0
      vertex 5.35827 -8.44328 0
    endloop
  endfacet
  facet normal -0 0 -1
    outer loop
      vertex 9.29776 3.68124 0
      vertex 0.883287 0.349718 0
      vertex 8.76307 4.81754 0
    endloop
  endfacet
  facet normal 0 0 -1
    outer loop
      vertex 0.509035 -0.802111 0
      vertex 5.35827 -8.44328 0
      vertex 4.25779 -9.04827 0
    endloop
  endfacet
  facet normal 0 0 -1
    outer loop
      vertex 0.832491 0.457665 0
      vertex 8.76307 4.81754 0
      vertex 0.883287 0.349718 0
    endloop
  endfacet
  facet normal 0 0 -1
    outer loop
      vertex 0.40449 -0.859585 0
      vertex 4.25779 -9.04827 0
      vertex 3.09017 -9.51056 0
    endloop
  endfacet
  facet normal -0 0 -1
    outer loop
      vertex 8.76307 4.81754 0
      vertex 0.832491 0.457665 0
      vertex 8.09017 5.87785 0
    endloop
  endfacet
  facet normal 0 0 -1
    outer loop
      vertex 0.293566 -0.903503 0
      vertex 3.09017 -9.51056 0
      vertex 1.87381 -9.82287 0
    endloop
  endfacet
  facet normal 0 0 -1
    outer loop
      vertex 0.768566 0.558395 0
      vertex 8.09017 5.87785 0
      vertex 0.832491 0.457665 0
    endloop
  endfacet
  facet normal -0 0 -1
    outer loop
      vertex 8.09017 5.87785 0
      vertex 0.768566 0.558395 0
      vertex 7.28969 6.84547 0
    endloop
  endfacet
  facet normal 0 0 -1
    outer loop
      vertex 9.92115 -1.25333 0
      vertex 0.942509 -0.119066 0
      vertex 0.95 0 0
    endloop
  endfacet
  facet normal 0 0 -1
    outer loop
      vertex 9.68583 -2.4869 0
      vertex 0.920154 -0.236255 0
      vertex 0.942509 -0.119066 0
    endloop
  endfacet
  facet normal 0 0 -1
    outer loop
      vertex 9.29776 -3.68124 0
      vertex 0.883287 -0.349718 0
      vertex 0.920154 -0.236255 0
    endloop
  endfacet
  facet normal 0 0 -1
    outer loop
      vertex 8.76307 -4.81754 0
      vertex 0.832491 -0.457665 0
      vertex 0.883287 -0.349718 0
    endloop
  endfacet
  facet normal 0 0 -1
    outer loop
      vertex 8.09017 -5.87785 0
      vertex 0.768566 -0.558395 0
      vertex 0.832491 -0.457665 0
    endloop
  endfacet
  facet normal 0 0 -1
    outer loop
      vertex 7.28969 -6.84547 0
      vertex 0.69252 -0.650319 0
      vertex 0.768566 -0.558395 0
    endloop
  endfacet
  facet normal 0 0 -1
    outer loop
      vertex 0.178012 -0.933172 0
      vertex 1.87381 -9.82287 0
      vertex 0.627905 -9.98027 0
    endloop
  endfacet
  facet normal 0 0 -1
    outer loop
      vertex 6.37424 -7.70513 0
      vertex 0.605553 -0.731987 0
      vertex 0.69252 -0.650319 0
    endloop
  endfacet
  facet normal 0 0 -1
    outer loop
      vertex 5.35827 -8.44328 0
      vertex 0.509035 -0.802111 0
      vertex 0.605553 -0.731987 0
    endloop
  endfacet
  facet normal 0 0 -1
    outer loop
      vertex 4.25779 -9.04827 0
      vertex 0.40449 -0.859585 0
      vertex 0.509035 -0.802111 0
    endloop
  endfacet
  facet normal 0 0 -1
    outer loop
      vertex 3.09017 -9.51056 0
      vertex 0.293566 -0.903503 0
      vertex 0.40449 -0.859585 0
    endloop
  endfacet
  facet normal 0 0 -1
    outer loop
      vertex 1.87381 -9.82287 0
      vertex 0.178012 -0.933172 0
      vertex 0.293566 -0.903503 0
    endloop
  endfacet
  facet normal 0 0 -1
    outer loop
      vertex 0.627905 -9.98027 0
      vertex 0.0596504 -0.948125 0
      vertex 0.178012 -0.933172 0
    endloop
  endfacet
  facet normal 0 0 -1
    outer loop
      vertex 0.627905 -9.98027 0
      vertex -0.0596504 -0.948125 0
      vertex 0.0596504 -0.948125 0
    endloop
  endfacet
  facet normal 0 0 -1
    outer loop
      vertex -0.627905 -9.98027 0
      vertex -0.0596504 -0.948125 0
      vertex 0.627905 -9.98027 0
    endloop
  endfacet
  facet normal -0 0 -1
    outer loop
      vertex -0.0596504 -0.948125 0
      vertex -0.627905 -9.98027 0
      vertex -0.178012 -0.933172 0
    endloop
  endfacet
  facet normal 0 0 -1
    outer loop
      vertex -1.87381 -9.82287 0
      vertex -0.178012 -0.933172 0
      vertex -0.627905 -9.98027 0
    endloop
  endfacet
  facet normal -0 0 -1
    outer loop
      vertex -0.178012 -0.933172 0
      vertex -1.87381 -9.82287 0
      vertex -0.293566 -0.903503 0
    endloop
  endfacet
  facet normal 0 0 -1
    outer loop
      vertex -3.09017 -9.51056 0
      vertex -0.293566 -0.903503 0
      vertex -1.87381 -9.82287 0
    endloop
  endfacet
  facet normal -0 0 -1
    outer loop
      vertex -0.293566 -0.903503 0
      vertex -3.09017 -9.51056 0
      vertex -0.40449 -0.859585 0
    endloop
  endfacet
  facet normal 0 0 -1
    outer loop
      vertex -4.25779 -9.04827 0
      vertex -0.40449 -0.859585 0
      vertex -3.09017 -9.51056 0
    endloop
  endfacet
  facet normal -0 0 -1
    outer loop
      vertex -0.40449 -0.859585 0
      vertex -4.25779 -9.04827 0
      vertex -0.509035 -0.802111 0
    endloop
  endfacet
  facet normal 0 0 -1
    outer loop
      vertex -5.35827 -8.44328 0
      vertex -0.509035 -0.802111 0
      vertex -4.25779 -9.04827 0
    endloop
  endfacet
  facet normal -0 0 -1
    outer loop
      vertex -0.509035 -0.802111 0
      vertex -5.35827 -8.44328 0
      vertex -0.605553 -0.731987 0
    endloop
  endfacet
  facet normal 0 0 -1
    outer loop
      vertex -6.37424 -7.70513 0
      vertex -0.605553 -0.731987 0
      vertex -5.35827 -8.44328 0
    endloop
  endfacet
  facet normal -0 0 -1
    outer loop
      vertex -0.605553 -0.731987 0
      vertex -6.37424 -7.70513 0
      vertex -0.69252 -0.650319 0
    endloop
  endfacet
  facet normal 0 0 -1
    outer loop
      vertex -7.28969 -6.84547 0
      vertex -0.69252 -0.650319 0
      vertex -6.37424 -7.70513 0
    endloop
  endfacet
  facet normal -0 0 -1
    outer loop
      vertex -0.69252 -0.650319 0
      vertex -7.28969 -6.84547 0
      vertex -0.768566 -0.558395 0
    endloop
  endfacet
  facet normal 0 0 -1
    outer loop
      vertex 0.69252 0.650319 0
      vertex 7.28969 6.84547 0
      vertex 0.768566 0.558395 0
    endloop
  endfacet
  facet normal -0 0 -1
    outer loop
      vertex 7.28969 6.84547 0
      vertex 0.69252 0.650319 0
      vertex 6.37424 7.70513 0
    endloop
  endfacet
  facet normal 0 0 -1
    outer loop
      vertex 0.605553 0.731987 0
      vertex 6.37424 7.70513 0
      vertex 0.69252 0.650319 0
    endloop
  endfacet
  facet normal -0 0 -1
    outer loop
      vertex 6.37424 7.70513 0
      vertex 0.605553 0.731987 0
      vertex 5.35827 8.44328 0
    endloop
  endfacet
  facet normal 0 0 -1
    outer loop
      vertex 0.509035 0.802111 0
      vertex 5.35827 8.44328 0
      vertex 0.605553 0.731987 0
    endloop
  endfacet
  facet normal -0 0 -1
    outer loop
      vertex 5.35827 8.44328 0
      vertex 0.509035 0.802111 0
      vertex 4.25779 9.04827 0
    endloop
  endfacet
  facet normal 0 0 -1
    outer loop
      vertex 0.40449 0.859585 0
      vertex 4.25779 9.04827 0
      vertex 0.509035 0.802111 0
    endloop
  endfacet
  facet normal -0 0 -1
    outer loop
      vertex 4.25779 9.04827 0
      vertex 0.40449 0.859585 0
      vertex 3.09017 9.51056 0
    endloop
  endfacet
  facet normal 0 0 -1
    outer loop
      vertex 0.293566 0.903503 0
      vertex 3.09017 9.51056 0
      vertex 0.40449 0.859585 0
    endloop
  endfacet
  facet normal -0 0 -1
    outer loop
      vertex 3.09017 9.51056 0
      vertex 0.293566 0.903503 0
      vertex 1.87381 9.82287 0
    endloop
  endfacet
  facet normal 0 0 -1
    outer loop
      vertex 0.178012 0.933172 0
      vertex 1.87381 9.82287 0
      vertex 0.293566 0.903503 0
    endloop
  endfacet
  facet normal -0 0 -1
    outer loop
      vertex 1.87381 9.82287 0
      vertex 0.178012 0.933172 0
      vertex 0.627905 9.98027 0
    endloop
  endfacet
  facet normal 0 0 -1
    outer loop
      vertex 0.0596504 0.948125 0
      vertex 0.627905 9.98027 0
      vertex 0.178012 0.933172 0
    endloop
  endfacet
  facet normal 0 0 -1
    outer loop
      vertex -0.0596504 0.948125 0
      vertex 0.627905 9.98027 0
      vertex 0.0596504 0.948125 0
    endloop
  endfacet
  facet normal 0 0 -1
    outer loop
      vertex -0.627905 9.98027 0
      vertex -0.0596504 0.948125 0
      vertex -0.178012 0.933172 0
    endloop
  endfacet
  facet normal 0 0 -1
    outer loop
      vertex -1.87381 9.82287 0
      vertex -0.178012 0.933172 0
      vertex -0.293566 0.903503 0
    endloop
  endfacet
  facet normal 0 0 -1
    outer loop
      vertex -3.09017 9.51056 0
      vertex -0.293566 0.903503 0
      vertex -0.40449 0.859585 0
    endloop
  endfacet
  facet normal 0 0 -1
    outer loop
      vertex -4.25779 9.04827 0
      vertex -0.40449 0.859585 0
      vertex -0.509035 0.802111 0
    endloop
  endfacet
  facet normal 0 0 -1
    outer loop
      vertex -5.35827 8.44328 0
      vertex -0.509035 0.802111 0
      vertex -0.605553 0.731987 0
    endloop
  endfacet
  facet normal 0 0 -1
    outer loop
      vertex -0.0596504 0.948125 0
      vertex -0.627905 9.98027 0
      vertex 0.627905 9.98027 0
    endloop
  endfacet
  facet normal 0 0 -1
    outer loop
      vertex -6.37424 7.70513 0
      vertex -0.605553 0.731987 0
      vertex -0.69252 0.650319 0
    endloop
  endfacet
  facet normal 0 0 -1
    outer loop
      vertex -7.28969 6.84547 0
      vertex -0.69252 0.650319 0
      vertex -0.768566 0.558395 0
    endloop
  endfacet
  facet normal 0 0 -1
    outer loop
      vertex -8.09017 5.87785 0
      vertex -0.768566 0.558395 0
      vertex -0.832491 0.457665 0
    endloop
  endfacet
  facet normal 0 0 -1
    outer loop
      vertex -8.76307 4.81754 0
      vertex -0.832491 0.457665 0
      vertex -0.883287 0.349718 0
    endloop
  endfacet
  facet normal 0 0 -1
    outer loop
      vertex -9.29776 3.68124 0
      vertex -0.883287 0.349718 0
      vertex -0.920154 0.236255 0
    endloop
  endfacet
  facet normal 0 0 -1
    outer loop
      vertex -9.68583 2.4869 0
      vertex -0.920154 0.236255 0
      vertex -0.942509 0.119066 0
    endloop
  endfacet
  facet normal 0 0 -1
    outer loop
      vertex -9.92115 1.25333 0
      vertex -0.942509 0.119066 0
      vertex -0.95 0 0
    endloop
  endfacet
  facet normal 0 0 -1
    outer loop
      vertex -8.09017 -5.87785 0
      vertex -0.768566 -0.558395 0
      vertex -7.28969 -6.84547 0
    endloop
  endfacet
  facet normal 0 0 -1
    outer loop
      vertex -0.178012 0.933172 0
      vertex -1.87381 9.82287 0
      vertex -0.627905 9.98027 0
    endloop
  endfacet
  facet normal -0 0 -1
    outer loop
      vertex -0.768566 -0.558395 0
      vertex -8.09017 -5.87785 0
      vertex -0.832491 -0.457665 0
    endloop
  endfacet
  facet normal 0 0 -1
    outer loop
      vertex -0.293566 0.903503 0
      vertex -3.09017 9.51056 0
      vertex -1.87381 9.82287 0
    endloop
  endfacet
  facet normal 0 0 -1
    outer loop
      vertex -8.76307 -4.81754 0
      vertex -0.832491 -0.457665 0
      vertex -8.09017 -5.87785 0
    endloop
  endfacet
  facet normal 0 0 -1
    outer loop
      vertex -0.40449 0.859585 0
      vertex -4.25779 9.04827 0
      vertex -3.09017 9.51056 0
    endloop
  endfacet
  facet normal -0 0 -1
    outer loop
      vertex -0.832491 -0.457665 0
      vertex -8.76307 -4.81754 0
      vertex -0.883287 -0.349718 0
    endloop
  endfacet
  facet normal 0 0 -1
    outer loop
      vertex -0.509035 0.802111 0
      vertex -5.35827 8.44328 0
      vertex -4.25779 9.04827 0
    endloop
  endfacet
  facet normal 0 0 -1
    outer loop
      vertex -9.29776 -3.68124 0
      vertex -0.883287 -0.349718 0
      vertex -8.76307 -4.81754 0
    endloop
  endfacet
  facet normal 0 0 -1
    outer loop
      vertex -0.605553 0.731987 0
      vertex -6.37424 7.70513 0
      vertex -5.35827 8.44328 0
    endloop
  endfacet
  facet normal -0 0 -1
    outer loop
      vertex -0.883287 -0.349718 0
      vertex -9.29776 -3.68124 0
      vertex -0.920154 -0.236255 0
    endloop
  endfacet
  facet normal 0 0 -1
    outer loop
      vertex -0.69252 0.650319 0
      vertex -7.28969 6.84547 0
      vertex -6.37424 7.70513 0
    endloop
  endfacet
  facet normal 0 0 -1
    outer loop
      vertex -9.68583 -2.4869 0
      vertex -0.920154 -0.236255 0
      vertex -9.29776 -3.68124 0
    endloop
  endfacet
  facet normal 0 0 -1
    outer loop
      vertex -0.768566 0.558395 0
      vertex -8.09017 5.87785 0
      vertex -7.28969 6.84547 0
    endloop
  endfacet
  facet normal -0 0 -1
    outer loop
      vertex -0.920154 -0.236255 0
      vertex -9.68583 -2.4869 0
      vertex -0.942509 -0.119066 0
    endloop
  endfacet
  facet normal 0 0 -1
    outer loop
      vertex -0.832491 0.457665 0
      vertex -8.76307 4.81754 0
      vertex -8.09017 5.87785 0
    endloop
  endfacet
  facet normal 0 0 -1
    outer loop
      vertex -9.92115 -1.25333 0
      vertex -0.942509 -0.119066 0
      vertex -9.68583 -2.4869 0
    endloop
  endfacet
  facet normal 0 0 -1
    outer loop
      vertex -0.883287 0.349718 0
      vertex -9.29776 3.68124 0
      vertex -8.76307 4.81754 0
    endloop
  endfacet
  facet normal -0 0 -1
    outer loop
      vertex -0.942509 -0.119066 0
      vertex -9.92115 -1.25333 0
      vertex -0.95 0 0
    endloop
  endfacet
  facet normal 0 0 -1
    outer loop
      vertex -0.920154 0.236255 0
      vertex -9.68583 2.4869 0
      vertex -9.29776 3.68124 0
    endloop
  endfacet
  facet normal 0 0 -1
    outer loop
      vertex -10 0 0
      vertex -0.95 0 0
      vertex -9.92115 -1.25333 0
    endloop
  endfacet
  facet normal 0 0 -1
    outer loop
      vertex -0.942509 0.119066 0
      vertex -9.92115 1.25333 0
      vertex -9.68583 2.4869 0
    endloop
  endfacet
  facet normal 0 0 -1
    outer loop
      vertex -0.95 0 0
      vertex -10 0 0
      vertex -9.92115 1.25333 0
    endloop
  endfacet
  facet normal 0 0 1
    outer loop
      vertex 0.95 0 6
      vertex 11.35 0 6
      vertex 11.2605 1.42253 6
    endloop
  endfacet
  facet normal 0 0 1
    outer loop
      vertex 0.942509 0.119066 6
      vertex 11.2605 1.42253 6
      vertex 10.9934 2.82263 6
    endloop
  endfacet
  facet normal 0 0 1
    outer loop
      vertex 11.35 0 6
      vertex 0.95 0 6
      vertex 11.2605 -1.42253 6
    endloop
  endfacet
  facet normal 0 0 1
    outer loop
      vertex 0.920154 0.236255 6
      vertex 10.9934 2.82263 6
      vertex 10.553 4.17821 6
    endloop
  endfacet
  facet normal -0 0 1
    outer loop
      vertex 0.942509 -0.119066 6
      vertex 11.2605 -1.42253 6
      vertex 0.95 0 6
    endloop
  endfacet
  facet normal 0 0 1
    outer loop
      vertex 0.883287 0.349718 6
      vertex 10.553 4.17821 6
      vertex 9.94608 5.4679 6
    endloop
  endfacet
  facet normal 0 0 1
    outer loop
      vertex 11.2605 -1.42253 6
      vertex 0.942509 -0.119066 6
      vertex 10.9934 -2.82263 6
    endloop
  endfacet
  facet normal 0 0 1
    outer loop
      vertex 0.832491 0.457665 6
      vertex 9.94608 5.4679 6
      vertex 9.18234 6.67136 6
    endloop
  endfacet
  facet normal -0 0 1
    outer loop
      vertex 0.920154 -0.236255 6
      vertex 10.9934 -2.82263 6
      vertex 0.942509 -0.119066 6
    endloop
  endfacet
  facet normal 0 0 1
    outer loop
      vertex 0.768566 0.558395 6
      vertex 9.18234 6.67136 6
      vertex 8.27379 7.76961 6
    endloop
  endfacet
  facet normal 0 0 1
    outer loop
      vertex 10.9934 -2.82263 6
      vertex 0.920154 -0.236255 6
      vertex 10.553 -4.17821 6
    endloop
  endfacet
  facet normal 0 0 1
    outer loop
      vertex 0.69252 0.650319 6
      vertex 8.27379 7.76961 6
      vertex 7.23476 8.74533 6
    endloop
  endfacet
  facet normal -0 0 1
    outer loop
      vertex 0.883287 -0.349718 6
      vertex 10.553 -4.17821 6
      vertex 0.920154 -0.236255 6
    endloop
  endfacet
  facet normal 0 0 1
    outer loop
      vertex 0.605553 0.731987 6
      vertex 7.23476 8.74533 6
      vertex 6.08163 9.58312 6
    endloop
  endfacet
  facet normal 0 0 1
    outer loop
      vertex 10.553 -4.17821 6
      vertex 0.883287 -0.349718 6
      vertex 9.94608 -5.4679 6
    endloop
  endfacet
  facet normal 0 0 1
    outer loop
      vertex 0.509035 0.802111 6
      vertex 6.08163 9.58312 6
      vertex 4.83259 10.2698 6
    endloop
  endfacet
  facet normal -0 0 1
    outer loop
      vertex 0.832491 -0.457665 6
      vertex 9.94608 -5.4679 6
      vertex 0.883287 -0.349718 6
    endloop
  endfacet
  facet normal 0 0 1
    outer loop
      vertex 0.40449 0.859585 6
      vertex 4.83259 10.2698 6
      vertex 3.50734 10.7945 6
    endloop
  endfacet
  facet normal 0 0 1
    outer loop
      vertex 9.94608 -5.4679 6
      vertex 0.832491 -0.457665 6
      vertex 9.18234 -6.67136 6
    endloop
  endfacet
  facet normal 0 0 1
    outer loop
      vertex 0.293566 0.903503 6
      vertex 3.50734 10.7945 6
      vertex 2.12678 11.149 6
    endloop
  endfacet
  facet normal -0 0 1
    outer loop
      vertex 0.768566 -0.558395 6
      vertex 9.18234 -6.67136 6
      vertex 0.832491 -0.457665 6
    endloop
  endfacet
  facet normal 0 0 1
    outer loop
      vertex 9.18234 -6.67136 6
      vertex 0.768566 -0.558395 6
      vertex 8.27379 -7.76961 6
    endloop
  endfacet
  facet normal 0 0 1
    outer loop
      vertex 11.2605 1.42253 6
      vertex 0.942509 0.119066 6
      vertex 0.95 0 6
    endloop
  endfacet
  facet normal 0 0 1
    outer loop
      vertex 10.9934 2.82263 6
      vertex 0.920154 0.236255 6
      vertex 0.942509 0.119066 6
    endloop
  endfacet
  facet normal 0 0 1
    outer loop
      vertex 10.553 4.17821 6
      vertex 0.883287 0.349718 6
      vertex 0.920154 0.236255 6
    endloop
  endfacet
  facet normal 0 0 1
    outer loop
      vertex 9.94608 5.4679 6
      vertex 0.832491 0.457665 6
      vertex 0.883287 0.349718 6
    endloop
  endfacet
  facet normal 0 0 1
    outer loop
      vertex 9.18234 6.67136 6
      vertex 0.768566 0.558395 6
      vertex 0.832491 0.457665 6
    endloop
  endfacet
  facet normal 0 0 1
    outer loop
      vertex 0.178012 0.933172 6
      vertex 2.12678 11.149 6
      vertex 0.712672 11.3276 6
    endloop
  endfacet
  facet normal 0 0 1
    outer loop
      vertex 8.27379 7.76961 6
      vertex 0.69252 0.650319 6
      vertex 0.768566 0.558395 6
    endloop
  endfacet
  facet normal 0 0 1
    outer loop
      vertex 7.23476 8.74533 6
      vertex 0.605553 0.731987 6
      vertex 0.69252 0.650319 6
    endloop
  endfacet
  facet normal 0 0 1
    outer loop
      vertex 6.08163 9.58312 6
      vertex 0.509035 0.802111 6
      vertex 0.605553 0.731987 6
    endloop
  endfacet
  facet normal 0 0 1
    outer loop
      vertex 4.83259 10.2698 6
      vertex 0.40449 0.859585 6
      vertex 0.509035 0.802111 6
    endloop
  endfacet
  facet normal 0 0 1
    outer loop
      vertex 3.50734 10.7945 6
      vertex 0.293566 0.903503 6
      vertex 0.40449 0.859585 6
    endloop
  endfacet
  facet normal 0 0 1
    outer loop
      vertex 2.12678 11.149 6
      vertex 0.178012 0.933172 6
      vertex 0.293566 0.903503 6
    endloop
  endfacet
  facet normal 0 0 1
    outer loop
      vertex 0.712672 11.3276 6
      vertex 0.0596504 0.948125 6
      vertex 0.178012 0.933172 6
    endloop
  endfacet
  facet normal 0 0 1
    outer loop
      vertex 0.712672 11.3276 6
      vertex -0.0596504 0.948125 6
      vertex 0.0596504 0.948125 6
    endloop
  endfacet
  facet normal -0 0 1
    outer loop
      vertex -0.712672 11.3276 6
      vertex -0.0596504 0.948125 6
      vertex 0.712672 11.3276 6
    endloop
  endfacet
  facet normal 0 0 1
    outer loop
      vertex -0.0596504 0.948125 6
      vertex -0.712672 11.3276 6
      vertex -0.178012 0.933172 6
    endloop
  endfacet
  facet normal -0 0 1
    outer loop
      vertex -2.12678 11.149 6
      vertex -0.178012 0.933172 6
      vertex -0.712672 11.3276 6
    endloop
  endfacet
  facet normal 0 0 1
    outer loop
      vertex -0.178012 0.933172 6
      vertex -2.12678 11.149 6
      vertex -0.293566 0.903503 6
    endloop
  endfacet
  facet normal -0 0 1
    outer loop
      vertex -3.50734 10.7945 6
      vertex -0.293566 0.903503 6
      vertex -2.12678 11.149 6
    endloop
  endfacet
  facet normal 0 0 1
    outer loop
      vertex -0.293566 0.903503 6
      vertex -3.50734 10.7945 6
      vertex -0.40449 0.859585 6
    endloop
  endfacet
  facet normal -0 0 1
    outer loop
      vertex -4.83259 10.2698 6
      vertex -0.40449 0.859585 6
      vertex -3.50734 10.7945 6
    endloop
  endfacet
  facet normal 0 0 1
    outer loop
      vertex -0.40449 0.859585 6
      vertex -4.83259 10.2698 6
      vertex -0.509035 0.802111 6
    endloop
  endfacet
  facet normal -0 0 1
    outer loop
      vertex -6.08163 9.58312 6
      vertex -0.509035 0.802111 6
      vertex -4.83259 10.2698 6
    endloop
  endfacet
  facet normal 0 0 1
    outer loop
      vertex -0.509035 0.802111 6
      vertex -6.08163 9.58312 6
      vertex -0.605553 0.731987 6
    endloop
  endfacet
  facet normal -0 0 1
    outer loop
      vertex -7.23476 8.74533 6
      vertex -0.605553 0.731987 6
      vertex -6.08163 9.58312 6
    endloop
  endfacet
  facet normal 0 0 1
    outer loop
      vertex -0.605553 0.731987 6
      vertex -7.23476 8.74533 6
      vertex -0.69252 0.650319 6
    endloop
  endfacet
  facet normal -0 0 1
    outer loop
      vertex -8.27379 7.76961 6
      vertex -0.69252 0.650319 6
      vertex -7.23476 8.74533 6
    endloop
  endfacet
  facet normal 0 0 1
    outer loop
      vertex -0.69252 0.650319 6
      vertex -8.27379 7.76961 6
      vertex -0.768566 0.558395 6
    endloop
  endfacet
  facet normal -0 0 1
    outer loop
      vertex 0.69252 -0.650319 6
      vertex 8.27379 -7.76961 6
      vertex 0.768566 -0.558395 6
    endloop
  endfacet
  facet normal 0 0 1
    outer loop
      vertex 8.27379 -7.76961 6
      vertex 0.69252 -0.650319 6
      vertex 7.23476 -8.74533 6
    endloop
  endfacet
  facet normal -0 0 1
    outer loop
      vertex 0.605553 -0.731987 6
      vertex 7.23476 -8.74533 6
      vertex 0.69252 -0.650319 6
    endloop
  endfacet
  facet normal 0 0 1
    outer loop
      vertex 7.23476 -8.74533 6
      vertex 0.605553 -0.731987 6
      vertex 6.08163 -9.58312 6
    endloop
  endfacet
  facet normal -0 0 1
    outer loop
      vertex 0.509035 -0.802111 6
      vertex 6.08163 -9.58312 6
      vertex 0.605553 -0.731987 6
    endloop
  endfacet
  facet normal 0 0 1
    outer loop
      vertex 6.08163 -9.58312 6
      vertex 0.509035 -0.802111 6
      vertex 4.83259 -10.2698 6
    endloop
  endfacet
  facet normal -0 0 1
    outer loop
      vertex 0.40449 -0.859585 6
      vertex 4.83259 -10.2698 6
      vertex 0.509035 -0.802111 6
    endloop
  endfacet
  facet normal 0 0 1
    outer loop
      vertex 4.83259 -10.2698 6
      vertex 0.40449 -0.859585 6
      vertex 3.50734 -10.7945 6
    endloop
  endfacet
  facet normal -0 0 1
    outer loop
      vertex 0.293566 -0.903503 6
      vertex 3.50734 -10.7945 6
      vertex 0.40449 -0.859585 6
    endloop
  endfacet
  facet normal 0 0 1
    outer loop
      vertex 3.50734 -10.7945 6
      vertex 0.293566 -0.903503 6
      vertex 2.12678 -11.149 6
    endloop
  endfacet
  facet normal -0 0 1
    outer loop
      vertex 0.178012 -0.933172 6
      vertex 2.12678 -11.149 6
      vertex 0.293566 -0.903503 6
    endloop
  endfacet
  facet normal 0 0 1
    outer loop
      vertex 2.12678 -11.149 6
      vertex 0.178012 -0.933172 6
      vertex 0.712672 -11.3276 6
    endloop
  endfacet
  facet normal -0 0 1
    outer loop
      vertex 0.0596504 -0.948125 6
      vertex 0.712672 -11.3276 6
      vertex 0.178012 -0.933172 6
    endloop
  endfacet
  facet normal -0 0 1
    outer loop
      vertex -0.0596504 -0.948125 6
      vertex 0.712672 -11.3276 6
      vertex 0.0596504 -0.948125 6
    endloop
  endfacet
  facet normal 0 0 1
    outer loop
      vertex -0.712672 -11.3276 6
      vertex -0.0596504 -0.948125 6
      vertex -0.178012 -0.933172 6
    endloop
  endfacet
  facet normal 0 0 1
    outer loop
      vertex -2.12678 -11.149 6
      vertex -0.178012 -0.933172 6
      vertex -0.293566 -0.903503 6
    endloop
  endfacet
  facet normal 0 0 1
    outer loop
      vertex -3.50734 -10.7945 6
      vertex -0.293566 -0.903503 6
      vertex -0.40449 -0.859585 6
    endloop
  endfacet
  facet normal 0 0 1
    outer loop
      vertex -4.83259 -10.2698 6
      vertex -0.40449 -0.859585 6
      vertex -0.509035 -0.802111 6
    endloop
  endfacet
  facet normal 0 0 1
    outer loop
      vertex -6.08163 -9.58312 6
      vertex -0.509035 -0.802111 6
      vertex -0.605553 -0.731987 6
    endloop
  endfacet
  facet normal 0 0 1
    outer loop
      vertex -7.23476 -8.74533 6
      vertex -0.605553 -0.731987 6
      vertex -0.69252 -0.650319 6
    endloop
  endfacet
  facet normal 0 0 1
    outer loop
      vertex -0.0596504 -0.948125 6
      vertex -0.712672 -11.3276 6
      vertex 0.712672 -11.3276 6
    endloop
  endfacet
  facet normal 0 0 1
    outer loop
      vertex -8.27379 -7.76961 6
      vertex -0.69252 -0.650319 6
      vertex -0.768566 -0.558395 6
    endloop
  endfacet
  facet normal 0 0 1
    outer loop
      vertex -9.18234 -6.67136 6
      vertex -0.768566 -0.558395 6
      vertex -0.832491 -0.457665 6
    endloop
  endfacet
  facet normal 0 0 1
    outer loop
      vertex -9.94608 -5.4679 6
      vertex -0.832491 -0.457665 6
      vertex -0.883287 -0.349718 6
    endloop
  endfacet
  facet normal 0 0 1
    outer loop
      vertex -10.553 -4.17821 6
      vertex -0.883287 -0.349718 6
      vertex -0.920154 -0.236255 6
    endloop
  endfacet
  facet normal 0 0 1
    outer loop
      vertex -10.9934 -2.82263 6
      vertex -0.920154 -0.236255 6
      vertex -0.942509 -0.119066 6
    endloop
  endfacet
  facet normal 0 0 1
    outer loop
      vertex -11.2605 -1.42253 6
      vertex -0.942509 -0.119066 6
      vertex -0.95 0 6
    endloop
  endfacet
  facet normal -0 0 1
    outer loop
      vertex -9.18234 6.67136 6
      vertex -0.768566 0.558395 6
      vertex -8.27379 7.76961 6
    endloop
  endfacet
  facet normal 0 0 1
    outer loop
      vertex -0.178012 -0.933172 6
      vertex -2.12678 -11.149 6
      vertex -0.712672 -11.3276 6
    endloop
  endfacet
  facet normal 0 0 1
    outer loop
      vertex -0.768566 0.558395 6
      vertex -9.18234 6.67136 6
      vertex -0.832491 0.457665 6
    endloop
  endfacet
  facet normal 0 0 1
    outer loop
      vertex -0.293566 -0.903503 6
      vertex -3.50734 -10.7945 6
      vertex -2.12678 -11.149 6
    endloop
  endfacet
  facet normal -0 0 1
    outer loop
      vertex -9.94608 5.4679 6
      vertex -0.832491 0.457665 6
      vertex -9.18234 6.67136 6
    endloop
  endfacet
  facet normal 0 0 1
    outer loop
      vertex -0.40449 -0.859585 6
      vertex -4.83259 -10.2698 6
      vertex -3.50734 -10.7945 6
    endloop
  endfacet
  facet normal 0 0 1
    outer loop
      vertex -0.832491 0.457665 6
      vertex -9.94608 5.4679 6
      vertex -0.883287 0.349718 6
    endloop
  endfacet
  facet normal 0 0 1
    outer loop
      vertex -0.509035 -0.802111 6
      vertex -6.08163 -9.58312 6
      vertex -4.83259 -10.2698 6
    endloop
  endfacet
  facet normal -0 0 1
    outer loop
      vertex -10.553 4.17821 6
      vertex -0.883287 0.349718 6
      vertex -9.94608 5.4679 6
    endloop
  endfacet
  facet normal 0 0 1
    outer loop
      vertex -0.605553 -0.731987 6
      vertex -7.23476 -8.74533 6
      vertex -6.08163 -9.58312 6
    endloop
  endfacet
  facet normal 0 0 1
    outer loop
      vertex -0.883287 0.349718 6
      vertex -10.553 4.17821 6
      vertex -0.920154 0.236255 6
    endloop
  endfacet
  facet normal 0 0 1
    outer loop
      vertex -0.69252 -0.650319 6
      vertex -8.27379 -7.76961 6
      vertex -7.23476 -8.74533 6
    endloop
  endfacet
  facet normal -0 0 1
    outer loop
      vertex -10.9934 2.82263 6
      vertex -0.920154 0.236255 6
      vertex -10.553 4.17821 6
    endloop
  endfacet
  facet normal 0 0 1
    outer loop
      vertex -0.768566 -0.558395 6
      vertex -9.18234 -6.67136 6
      vertex -8.27379 -7.76961 6
    endloop
  endfacet
  facet normal 0 0 1
    outer loop
      vertex -0.920154 0.236255 6
      vertex -10.9934 2.82263 6
      vertex -0.942509 0.119066 6
    endloop
  endfacet
  facet normal 0 0 1
    outer loop
      vertex -0.832491 -0.457665 6
      vertex -9.94608 -5.4679 6
      vertex -9.18234 -6.67136 6
    endloop
  endfacet
  facet normal -0 0 1
    outer loop
      vertex -11.2605 1.42253 6
      vertex -0.942509 0.119066 6
      vertex -10.9934 2.82263 6
    endloop
  endfacet
  facet normal 0 0 1
    outer loop
      vertex -0.883287 -0.349718 6
      vertex -10.553 -4.17821 6
      vertex -9.94608 -5.4679 6
    endloop
  endfacet
  facet normal 0 0 1
    outer loop
      vertex -0.942509 0.119066 6
      vertex -11.2605 1.42253 6
      vertex -0.95 0 6
    endloop
  endfacet
  facet normal 0 0 1
    outer loop
      vertex -0.920154 -0.236255 6
      vertex -10.9934 -2.82263 6
      vertex -10.553 -4.17821 6
    endloop
  endfacet
  facet normal 0 0 1
    outer loop
      vertex -11.35 0 6
      vertex -0.95 0 6
      vertex -11.2605 1.42253 6
    endloop
  endfacet
  facet normal 0 0 1
    outer loop
      vertex -0.942509 -0.119066 6
      vertex -11.2605 -1.42253 6
      vertex -10.9934 -2.82263 6
    endloop
  endfacet
  facet normal 0 0 1
    outer loop
      vertex -0.95 0 6
      vertex -11.35 0 6
      vertex -11.2605 -1.42253 6
    endloop
  endfacet
endsolid OpenSCAD_Model
