solid OpenSCAD_Model
  facet normal 0.998026 0.0628025 0
    outer loop
      vertex 21.2 0 7
      vertex 21.0328 2.65706 0
      vertex 21.0328 2.65706 7
    endloop
  endfacet
  facet normal 0.998026 0.0628025 0
    outer loop
      vertex 21.0328 2.65706 0
      vertex 21.2 0 7
      vertex 21.2 0 0
    endloop
  endfacet
  facet normal -0.998026 0.0628025 0
    outer loop
      vertex -21.2 0 0
      vertex -21.0328 2.65706 7
      vertex -21.0328 2.65706 0
    endloop
  endfacet
  facet normal -0.998026 0.0628025 0
    outer loop
      vertex -21.0328 2.65706 7
      vertex -21.2 0 0
      vertex -21.2 0 7
    endloop
  endfacet
  facet normal 0 1 -0
    outer loop
      vertex 1.33116 21.1582 0
      vertex -1.33116 21.1582 7
      vertex 1.33116 21.1582 7
    endloop
  endfacet
  facet normal 0 1 0
    outer loop
      vertex -1.33116 21.1582 7
      vertex 1.33116 21.1582 0
      vertex -1.33116 21.1582 0
    endloop
  endfacet
  facet normal 0 -1 0
    outer loop
      vertex -1.33116 -21.1582 0
      vertex 1.33116 -21.1582 7
      vertex -1.33116 -21.1582 7
    endloop
  endfacet
  facet normal 0 -1 -0
    outer loop
      vertex 1.33116 -21.1582 7
      vertex -1.33116 -21.1582 0
      vertex 1.33116 -21.1582 0
    endloop
  endfacet
  facet normal 0.684559 0.728957 -0
    outer loop
      vertex 15.4541 14.5124 0
      vertex 13.5134 16.3349 7
      vertex 15.4541 14.5124 7
    endloop
  endfacet
  facet normal 0.684559 0.728957 0
    outer loop
      vertex 13.5134 16.3349 7
      vertex 15.4541 14.5124 0
      vertex 13.5134 16.3349 0
    endloop
  endfacet
  facet normal -0.684559 0.728957 0
    outer loop
      vertex -13.5134 16.3349 0
      vertex -15.4541 14.5124 7
      vertex -13.5134 16.3349 7
    endloop
  endfacet
  facet normal -0.684559 0.728957 0
    outer loop
      vertex -15.4541 14.5124 7
      vertex -13.5134 16.3349 0
      vertex -15.4541 14.5124 0
    endloop
  endfacet
  facet normal -0.368136 0.929772 0
    outer loop
      vertex -6.55116 20.1624 0
      vertex -9.02652 19.1823 7
      vertex -6.55116 20.1624 7
    endloop
  endfacet
  facet normal -0.368136 0.929772 0
    outer loop
      vertex -9.02652 19.1823 7
      vertex -6.55116 20.1624 0
      vertex -9.02652 19.1823 0
    endloop
  endfacet
  facet normal 0.844327 -0.535828 0
    outer loop
      vertex 17.1512 -12.461 7
      vertex 18.5777 -10.2132 0
      vertex 18.5777 -10.2132 7
    endloop
  endfacet
  facet normal 0.844327 -0.535828 0
    outer loop
      vertex 18.5777 -10.2132 0
      vertex 17.1512 -12.461 7
      vertex 17.1512 -12.461 0
    endloop
  endfacet
  facet normal 0.904823 0.425788 0
    outer loop
      vertex 19.7113 7.80424 7
      vertex 18.5777 10.2132 0
      vertex 18.5777 10.2132 7
    endloop
  endfacet
  facet normal 0.904823 0.425788 0
    outer loop
      vertex 18.5777 10.2132 0
      vertex 19.7113 7.80424 7
      vertex 19.7113 7.80424 0
    endloop
  endfacet
  facet normal 0.982292 0.187356 0
    outer loop
      vertex 21.0328 2.65706 7
      vertex 20.534 5.27223 0
      vertex 20.534 5.27223 7
    endloop
  endfacet
  facet normal 0.982292 0.187356 0
    outer loop
      vertex 20.534 5.27223 0
      vertex 21.0328 2.65706 7
      vertex 21.0328 2.65706 0
    endloop
  endfacet
  facet normal 0.844327 0.535828 0
    outer loop
      vertex 18.5777 10.2132 7
      vertex 17.1512 12.461 0
      vertex 17.1512 12.461 7
    endloop
  endfacet
  facet normal 0.844327 0.535828 0
    outer loop
      vertex 17.1512 12.461 0
      vertex 18.5777 10.2132 7
      vertex 18.5777 10.2132 0
    endloop
  endfacet
  facet normal 0.368136 0.929772 -0
    outer loop
      vertex 9.02652 19.1823 0
      vertex 6.55116 20.1624 7
      vertex 9.02652 19.1823 7
    endloop
  endfacet
  facet normal 0.368136 0.929772 0
    outer loop
      vertex 6.55116 20.1624 7
      vertex 9.02652 19.1823 0
      vertex 6.55116 20.1624 0
    endloop
  endfacet
  facet normal 0.248693 0.968582 -0
    outer loop
      vertex 6.55116 20.1624 0
      vertex 3.97248 20.8245 7
      vertex 6.55116 20.1624 7
    endloop
  endfacet
  facet normal 0.248693 0.968582 0
    outer loop
      vertex 3.97248 20.8245 7
      vertex 6.55116 20.1624 0
      vertex 3.97248 20.8245 0
    endloop
  endfacet
  facet normal 0.587785 0.809017 -0
    outer loop
      vertex 13.5134 16.3349 0
      vertex 11.3595 17.8998 7
      vertex 13.5134 16.3349 7
    endloop
  endfacet
  facet normal 0.587785 0.809017 0
    outer loop
      vertex 11.3595 17.8998 7
      vertex 13.5134 16.3349 0
      vertex 11.3595 17.8998 0
    endloop
  endfacet
  facet normal -0.904823 0.425788 0
    outer loop
      vertex -19.7113 7.80424 0
      vertex -18.5777 10.2132 7
      vertex -18.5777 10.2132 0
    endloop
  endfacet
  facet normal -0.904823 0.425788 0
    outer loop
      vertex -18.5777 10.2132 7
      vertex -19.7113 7.80424 0
      vertex -19.7113 7.80424 7
    endloop
  endfacet
  facet normal -0.770507 0.637432 0
    outer loop
      vertex -17.1512 12.461 0
      vertex -15.4541 14.5124 7
      vertex -15.4541 14.5124 0
    endloop
  endfacet
  facet normal -0.770507 0.637432 0
    outer loop
      vertex -15.4541 14.5124 7
      vertex -17.1512 12.461 0
      vertex -17.1512 12.461 7
    endloop
  endfacet
  facet normal 0 0 1
    outer loop
      vertex 15 0 7
      vertex 21.2 0 7
      vertex 21.0328 2.65706 7
    endloop
  endfacet
  facet normal 0 0 1
    outer loop
      vertex 14.8817 1.88 7
      vertex 21.0328 2.65706 7
      vertex 20.534 5.27223 7
    endloop
  endfacet
  facet normal 0 0 1
    outer loop
      vertex 21.2 0 7
      vertex 15 0 7
      vertex 21.0328 -2.65706 7
    endloop
  endfacet
  facet normal 0 0 1
    outer loop
      vertex 14.5287 3.73035 7
      vertex 20.534 5.27223 7
      vertex 19.7113 7.80424 7
    endloop
  endfacet
  facet normal -0 0 1
    outer loop
      vertex 14.8817 -1.88 7
      vertex 21.0328 -2.65706 7
      vertex 15 0 7
    endloop
  endfacet
  facet normal 0 0 1
    outer loop
      vertex 13.9466 5.52187 7
      vertex 19.7113 7.80424 7
      vertex 18.5777 10.2132 7
    endloop
  endfacet
  facet normal 0 0 1
    outer loop
      vertex 21.0328 -2.65706 7
      vertex 14.8817 -1.88 7
      vertex 20.534 -5.27223 7
    endloop
  endfacet
  facet normal 0 0 1
    outer loop
      vertex 13.1446 7.22631 7
      vertex 18.5777 10.2132 7
      vertex 17.1512 12.461 7
    endloop
  endfacet
  facet normal -0 0 1
    outer loop
      vertex 14.5287 -3.73035 7
      vertex 20.534 -5.27223 7
      vertex 14.8817 -1.88 7
    endloop
  endfacet
  facet normal 0 0 1
    outer loop
      vertex 12.1353 8.81678 7
      vertex 17.1512 12.461 7
      vertex 15.4541 14.5124 7
    endloop
  endfacet
  facet normal 0 0 1
    outer loop
      vertex 20.534 -5.27223 7
      vertex 14.5287 -3.73035 7
      vertex 19.7113 -7.80424 7
    endloop
  endfacet
  facet normal -0 0 1
    outer loop
      vertex 13.9466 -5.52187 7
      vertex 19.7113 -7.80424 7
      vertex 14.5287 -3.73035 7
    endloop
  endfacet
  facet normal 0 0 1
    outer loop
      vertex 21.0328 2.65706 7
      vertex 14.8817 1.88 7
      vertex 15 0 7
    endloop
  endfacet
  facet normal 0 0 1
    outer loop
      vertex 20.534 5.27223 7
      vertex 14.5287 3.73035 7
      vertex 14.8817 1.88 7
    endloop
  endfacet
  facet normal 0 0 1
    outer loop
      vertex 19.7113 7.80424 7
      vertex 13.9466 5.52187 7
      vertex 14.5287 3.73035 7
    endloop
  endfacet
  facet normal 0 0 1
    outer loop
      vertex 10.9345 10.2682 7
      vertex 15.4541 14.5124 7
      vertex 13.5134 16.3349 7
    endloop
  endfacet
  facet normal 0 0 1
    outer loop
      vertex 18.5777 10.2132 7
      vertex 13.1446 7.22631 7
      vertex 13.9466 5.52187 7
    endloop
  endfacet
  facet normal 0 0 1
    outer loop
      vertex 17.1512 12.461 7
      vertex 12.1353 8.81678 7
      vertex 13.1446 7.22631 7
    endloop
  endfacet
  facet normal 0 0 1
    outer loop
      vertex 9.56136 11.5577 7
      vertex 13.5134 16.3349 7
      vertex 11.3595 17.8998 7
    endloop
  endfacet
  facet normal 0 0 1
    outer loop
      vertex 15.4541 14.5124 7
      vertex 10.9345 10.2682 7
      vertex 12.1353 8.81678 7
    endloop
  endfacet
  facet normal 0 0 1
    outer loop
      vertex 13.5134 16.3349 7
      vertex 9.56136 11.5577 7
      vertex 10.9345 10.2682 7
    endloop
  endfacet
  facet normal 0 0 1
    outer loop
      vertex 8.0374 12.6649 7
      vertex 11.3595 17.8998 7
      vertex 9.02652 19.1823 7
    endloop
  endfacet
  facet normal 0 0 1
    outer loop
      vertex 11.3595 17.8998 7
      vertex 8.0374 12.6649 7
      vertex 9.56136 11.5577 7
    endloop
  endfacet
  facet normal 0 0 1
    outer loop
      vertex 6.38669 13.5724 7
      vertex 9.02652 19.1823 7
      vertex 6.55116 20.1624 7
    endloop
  endfacet
  facet normal 0 0 1
    outer loop
      vertex 9.02652 19.1823 7
      vertex 6.38669 13.5724 7
      vertex 8.0374 12.6649 7
    endloop
  endfacet
  facet normal 0 0 1
    outer loop
      vertex 6.55116 20.1624 7
      vertex 4.63525 14.2658 7
      vertex 6.38669 13.5724 7
    endloop
  endfacet
  facet normal 0 0 1
    outer loop
      vertex 3.97248 20.8245 7
      vertex 4.63525 14.2658 7
      vertex 6.55116 20.1624 7
    endloop
  endfacet
  facet normal 0 0 1
    outer loop
      vertex 3.97248 20.8245 7
      vertex 2.81072 14.7343 7
      vertex 4.63525 14.2658 7
    endloop
  endfacet
  facet normal 0 0 1
    outer loop
      vertex 1.33116 21.1582 7
      vertex 2.81072 14.7343 7
      vertex 3.97248 20.8245 7
    endloop
  endfacet
  facet normal 0 0 1
    outer loop
      vertex 1.33116 21.1582 7
      vertex 0.941857 14.9704 7
      vertex 2.81072 14.7343 7
    endloop
  endfacet
  facet normal 0 0 1
    outer loop
      vertex 1.33116 21.1582 7
      vertex -0.941857 14.9704 7
      vertex 0.941857 14.9704 7
    endloop
  endfacet
  facet normal -0 0 1
    outer loop
      vertex -1.33116 21.1582 7
      vertex -0.941857 14.9704 7
      vertex 1.33116 21.1582 7
    endloop
  endfacet
  facet normal 0 0 1
    outer loop
      vertex -1.33116 21.1582 7
      vertex -2.81072 14.7343 7
      vertex -0.941857 14.9704 7
    endloop
  endfacet
  facet normal -0 0 1
    outer loop
      vertex -3.97248 20.8245 7
      vertex -2.81072 14.7343 7
      vertex -1.33116 21.1582 7
    endloop
  endfacet
  facet normal 0 0 1
    outer loop
      vertex -3.97248 20.8245 7
      vertex -4.63525 14.2658 7
      vertex -2.81072 14.7343 7
    endloop
  endfacet
  facet normal -0 0 1
    outer loop
      vertex -6.55116 20.1624 7
      vertex -4.63525 14.2658 7
      vertex -3.97248 20.8245 7
    endloop
  endfacet
  facet normal 0 0 1
    outer loop
      vertex -4.63525 14.2658 7
      vertex -6.55116 20.1624 7
      vertex -6.38669 13.5724 7
    endloop
  endfacet
  facet normal -0 0 1
    outer loop
      vertex -9.02652 19.1823 7
      vertex -6.38669 13.5724 7
      vertex -6.55116 20.1624 7
    endloop
  endfacet
  facet normal 0 0 1
    outer loop
      vertex -6.38669 13.5724 7
      vertex -9.02652 19.1823 7
      vertex -8.0374 12.6649 7
    endloop
  endfacet
  facet normal -0 0 1
    outer loop
      vertex -11.3595 17.8998 7
      vertex -8.0374 12.6649 7
      vertex -9.02652 19.1823 7
    endloop
  endfacet
  facet normal 0 0 1
    outer loop
      vertex -8.0374 12.6649 7
      vertex -11.3595 17.8998 7
      vertex -9.56136 11.5577 7
    endloop
  endfacet
  facet normal -0 0 1
    outer loop
      vertex -13.5134 16.3349 7
      vertex -9.56136 11.5577 7
      vertex -11.3595 17.8998 7
    endloop
  endfacet
  facet normal 0 0 1
    outer loop
      vertex -9.56136 11.5577 7
      vertex -13.5134 16.3349 7
      vertex -10.9345 10.2682 7
    endloop
  endfacet
  facet normal -0 0 1
    outer loop
      vertex -15.4541 14.5124 7
      vertex -10.9345 10.2682 7
      vertex -13.5134 16.3349 7
    endloop
  endfacet
  facet normal 0 0 1
    outer loop
      vertex -10.9345 10.2682 7
      vertex -15.4541 14.5124 7
      vertex -12.1353 8.81678 7
    endloop
  endfacet
  facet normal -0 0 1
    outer loop
      vertex -17.1512 12.461 7
      vertex -12.1353 8.81678 7
      vertex -15.4541 14.5124 7
    endloop
  endfacet
  facet normal 0 0 1
    outer loop
      vertex -12.1353 8.81678 7
      vertex -17.1512 12.461 7
      vertex -13.1446 7.22631 7
    endloop
  endfacet
  facet normal -0 0 1
    outer loop
      vertex -18.5777 10.2132 7
      vertex -13.1446 7.22631 7
      vertex -17.1512 12.461 7
    endloop
  endfacet
  facet normal -0 0 1
    outer loop
      vertex -19.7113 7.80424 7
      vertex -13.9466 5.52187 7
      vertex -18.5777 10.2132 7
    endloop
  endfacet
  facet normal 0 0 1
    outer loop
      vertex -13.1446 7.22631 7
      vertex -18.5777 10.2132 7
      vertex -13.9466 5.52187 7
    endloop
  endfacet
  facet normal 0 0 1
    outer loop
      vertex 19.7113 -7.80424 7
      vertex 13.9466 -5.52187 7
      vertex 18.5777 -10.2132 7
    endloop
  endfacet
  facet normal -0 0 1
    outer loop
      vertex 13.1446 -7.22631 7
      vertex 18.5777 -10.2132 7
      vertex 13.9466 -5.52187 7
    endloop
  endfacet
  facet normal 0 0 1
    outer loop
      vertex 18.5777 -10.2132 7
      vertex 13.1446 -7.22631 7
      vertex 17.1512 -12.461 7
    endloop
  endfacet
  facet normal -0 0 1
    outer loop
      vertex 12.1353 -8.81678 7
      vertex 17.1512 -12.461 7
      vertex 13.1446 -7.22631 7
    endloop
  endfacet
  facet normal 0 0 1
    outer loop
      vertex 17.1512 -12.461 7
      vertex 12.1353 -8.81678 7
      vertex 15.4541 -14.5124 7
    endloop
  endfacet
  facet normal -0 0 1
    outer loop
      vertex 10.9345 -10.2682 7
      vertex 15.4541 -14.5124 7
      vertex 12.1353 -8.81678 7
    endloop
  endfacet
  facet normal 0 0 1
    outer loop
      vertex 15.4541 -14.5124 7
      vertex 10.9345 -10.2682 7
      vertex 13.5134 -16.3349 7
    endloop
  endfacet
  facet normal -0 0 1
    outer loop
      vertex 9.56136 -11.5577 7
      vertex 13.5134 -16.3349 7
      vertex 10.9345 -10.2682 7
    endloop
  endfacet
  facet normal 0 0 1
    outer loop
      vertex 13.5134 -16.3349 7
      vertex 9.56136 -11.5577 7
      vertex 11.3595 -17.8998 7
    endloop
  endfacet
  facet normal -0 0 1
    outer loop
      vertex 8.0374 -12.6649 7
      vertex 11.3595 -17.8998 7
      vertex 9.56136 -11.5577 7
    endloop
  endfacet
  facet normal 0 0 1
    outer loop
      vertex 11.3595 -17.8998 7
      vertex 8.0374 -12.6649 7
      vertex 9.02652 -19.1823 7
    endloop
  endfacet
  facet normal -0 0 1
    outer loop
      vertex 6.38669 -13.5724 7
      vertex 9.02652 -19.1823 7
      vertex 8.0374 -12.6649 7
    endloop
  endfacet
  facet normal 0 0 1
    outer loop
      vertex 9.02652 -19.1823 7
      vertex 6.38669 -13.5724 7
      vertex 6.55116 -20.1624 7
    endloop
  endfacet
  facet normal -0 0 1
    outer loop
      vertex 4.63525 -14.2658 7
      vertex 6.55116 -20.1624 7
      vertex 6.38669 -13.5724 7
    endloop
  endfacet
  facet normal 0 0 1
    outer loop
      vertex 4.63525 -14.2658 7
      vertex 3.97248 -20.8245 7
      vertex 6.55116 -20.1624 7
    endloop
  endfacet
  facet normal -0 0 1
    outer loop
      vertex 2.81072 -14.7343 7
      vertex 3.97248 -20.8245 7
      vertex 4.63525 -14.2658 7
    endloop
  endfacet
  facet normal 0 0 1
    outer loop
      vertex 2.81072 -14.7343 7
      vertex 1.33116 -21.1582 7
      vertex 3.97248 -20.8245 7
    endloop
  endfacet
  facet normal -0 0 1
    outer loop
      vertex 0.941857 -14.9704 7
      vertex 1.33116 -21.1582 7
      vertex 2.81072 -14.7343 7
    endloop
  endfacet
  facet normal -0 0 1
    outer loop
      vertex -0.941857 -14.9704 7
      vertex 1.33116 -21.1582 7
      vertex 0.941857 -14.9704 7
    endloop
  endfacet
  facet normal 0 0 1
    outer loop
      vertex -0.941857 -14.9704 7
      vertex -1.33116 -21.1582 7
      vertex 1.33116 -21.1582 7
    endloop
  endfacet
  facet normal 0 0 1
    outer loop
      vertex -2.81072 -14.7343 7
      vertex -1.33116 -21.1582 7
      vertex -0.941857 -14.9704 7
    endloop
  endfacet
  facet normal 0 0 1
    outer loop
      vertex -2.81072 -14.7343 7
      vertex -3.97248 -20.8245 7
      vertex -1.33116 -21.1582 7
    endloop
  endfacet
  facet normal 0 0 1
    outer loop
      vertex -4.63525 -14.2658 7
      vertex -3.97248 -20.8245 7
      vertex -2.81072 -14.7343 7
    endloop
  endfacet
  facet normal 0 0 1
    outer loop
      vertex -6.55116 -20.1624 7
      vertex -4.63525 -14.2658 7
      vertex -6.38669 -13.5724 7
    endloop
  endfacet
  facet normal 0 0 1
    outer loop
      vertex -4.63525 -14.2658 7
      vertex -6.55116 -20.1624 7
      vertex -3.97248 -20.8245 7
    endloop
  endfacet
  facet normal 0 0 1
    outer loop
      vertex -9.02652 -19.1823 7
      vertex -6.38669 -13.5724 7
      vertex -8.0374 -12.6649 7
    endloop
  endfacet
  facet normal 0 0 1
    outer loop
      vertex -6.38669 -13.5724 7
      vertex -9.02652 -19.1823 7
      vertex -6.55116 -20.1624 7
    endloop
  endfacet
  facet normal 0 0 1
    outer loop
      vertex -11.3595 -17.8998 7
      vertex -8.0374 -12.6649 7
      vertex -9.56136 -11.5577 7
    endloop
  endfacet
  facet normal 0 0 1
    outer loop
      vertex -13.5134 -16.3349 7
      vertex -9.56136 -11.5577 7
      vertex -10.9345 -10.2682 7
    endloop
  endfacet
  facet normal 0 0 1
    outer loop
      vertex -8.0374 -12.6649 7
      vertex -11.3595 -17.8998 7
      vertex -9.02652 -19.1823 7
    endloop
  endfacet
  facet normal 0 0 1
    outer loop
      vertex -15.4541 -14.5124 7
      vertex -10.9345 -10.2682 7
      vertex -12.1353 -8.81678 7
    endloop
  endfacet
  facet normal 0 0 1
    outer loop
      vertex -17.1512 -12.461 7
      vertex -12.1353 -8.81678 7
      vertex -13.1446 -7.22631 7
    endloop
  endfacet
  facet normal 0 0 1
    outer loop
      vertex -9.56136 -11.5577 7
      vertex -13.5134 -16.3349 7
      vertex -11.3595 -17.8998 7
    endloop
  endfacet
  facet normal 0 0 1
    outer loop
      vertex -18.5777 -10.2132 7
      vertex -13.1446 -7.22631 7
      vertex -13.9466 -5.52187 7
    endloop
  endfacet
  facet normal 0 0 1
    outer loop
      vertex -19.7113 -7.80424 7
      vertex -13.9466 -5.52187 7
      vertex -14.5287 -3.73035 7
    endloop
  endfacet
  facet normal 0 0 1
    outer loop
      vertex -20.534 -5.27223 7
      vertex -14.5287 -3.73035 7
      vertex -14.8817 -1.88 7
    endloop
  endfacet
  facet normal 0 0 1
    outer loop
      vertex -10.9345 -10.2682 7
      vertex -15.4541 -14.5124 7
      vertex -13.5134 -16.3349 7
    endloop
  endfacet
  facet normal 0 0 1
    outer loop
      vertex -21.0328 -2.65706 7
      vertex -14.8817 -1.88 7
      vertex -15 0 7
    endloop
  endfacet
  facet normal 0 0 1
    outer loop
      vertex -13.9466 5.52187 7
      vertex -19.7113 7.80424 7
      vertex -14.5287 3.73035 7
    endloop
  endfacet
  facet normal -0 0 1
    outer loop
      vertex -20.534 5.27223 7
      vertex -14.5287 3.73035 7
      vertex -19.7113 7.80424 7
    endloop
  endfacet
  facet normal 0 0 1
    outer loop
      vertex -12.1353 -8.81678 7
      vertex -17.1512 -12.461 7
      vertex -15.4541 -14.5124 7
    endloop
  endfacet
  facet normal 0 0 1
    outer loop
      vertex -14.5287 3.73035 7
      vertex -20.534 5.27223 7
      vertex -14.8817 1.88 7
    endloop
  endfacet
  facet normal 0 0 1
    outer loop
      vertex -13.1446 -7.22631 7
      vertex -18.5777 -10.2132 7
      vertex -17.1512 -12.461 7
    endloop
  endfacet
  facet normal -0 0 1
    outer loop
      vertex -21.0328 2.65706 7
      vertex -14.8817 1.88 7
      vertex -20.534 5.27223 7
    endloop
  endfacet
  facet normal 0 0 1
    outer loop
      vertex -13.9466 -5.52187 7
      vertex -19.7113 -7.80424 7
      vertex -18.5777 -10.2132 7
    endloop
  endfacet
  facet normal 0 0 1
    outer loop
      vertex -14.8817 1.88 7
      vertex -21.0328 2.65706 7
      vertex -15 0 7
    endloop
  endfacet
  facet normal 0 0 1
    outer loop
      vertex -14.5287 -3.73035 7
      vertex -20.534 -5.27223 7
      vertex -19.7113 -7.80424 7
    endloop
  endfacet
  facet normal 0 0 1
    outer loop
      vertex -21.2 0 7
      vertex -15 0 7
      vertex -21.0328 2.65706 7
    endloop
  endfacet
  facet normal 0 0 1
    outer loop
      vertex -14.8817 -1.88 7
      vertex -21.0328 -2.65706 7
      vertex -20.534 -5.27223 7
    endloop
  endfacet
  facet normal 0 0 1
    outer loop
      vertex -15 0 7
      vertex -21.2 0 7
      vertex -21.0328 -2.65706 7
    endloop
  endfacet
  facet normal -0.481734 0.876317 0
    outer loop
      vertex -9.02652 19.1823 0
      vertex -11.3595 17.8998 7
      vertex -9.02652 19.1823 7
    endloop
  endfacet
  facet normal -0.481734 0.876317 0
    outer loop
      vertex -11.3595 17.8998 7
      vertex -9.02652 19.1823 0
      vertex -11.3595 17.8998 0
    endloop
  endfacet
  facet normal -0.125342 0.992114 0
    outer loop
      vertex -1.33116 21.1582 0
      vertex -3.97248 20.8245 7
      vertex -1.33116 21.1582 7
    endloop
  endfacet
  facet normal -0.125342 0.992114 0
    outer loop
      vertex -3.97248 20.8245 7
      vertex -1.33116 21.1582 0
      vertex -3.97248 20.8245 0
    endloop
  endfacet
  facet normal 0.982292 -0.187356 0
    outer loop
      vertex 20.534 -5.27223 7
      vertex 21.0328 -2.65706 0
      vertex 21.0328 -2.65706 7
    endloop
  endfacet
  facet normal 0.982292 -0.187356 0
    outer loop
      vertex 21.0328 -2.65706 0
      vertex 20.534 -5.27223 7
      vertex 20.534 -5.27223 0
    endloop
  endfacet
  facet normal 0.125342 -0.992114 0
    outer loop
      vertex 1.33116 -21.1582 0
      vertex 3.97248 -20.8245 7
      vertex 1.33116 -21.1582 7
    endloop
  endfacet
  facet normal 0.125342 -0.992114 0
    outer loop
      vertex 3.97248 -20.8245 7
      vertex 1.33116 -21.1582 0
      vertex 3.97248 -20.8245 0
    endloop
  endfacet
  facet normal 0.368136 -0.929772 0
    outer loop
      vertex 6.55116 -20.1624 0
      vertex 9.02652 -19.1823 7
      vertex 6.55116 -20.1624 7
    endloop
  endfacet
  facet normal 0.368136 -0.929772 0
    outer loop
      vertex 9.02652 -19.1823 7
      vertex 6.55116 -20.1624 0
      vertex 9.02652 -19.1823 0
    endloop
  endfacet
  facet normal 0.951057 0.309017 0
    outer loop
      vertex 20.534 5.27223 7
      vertex 19.7113 7.80424 0
      vertex 19.7113 7.80424 7
    endloop
  endfacet
  facet normal 0.951057 0.309017 0
    outer loop
      vertex 19.7113 7.80424 0
      vertex 20.534 5.27223 7
      vertex 20.534 5.27223 0
    endloop
  endfacet
  facet normal 0.770507 0.637432 0
    outer loop
      vertex 17.1512 12.461 7
      vertex 15.4541 14.5124 0
      vertex 15.4541 14.5124 7
    endloop
  endfacet
  facet normal 0.770507 0.637432 0
    outer loop
      vertex 15.4541 14.5124 0
      vertex 17.1512 12.461 7
      vertex 17.1512 12.461 0
    endloop
  endfacet
  facet normal 0.125342 0.992114 -0
    outer loop
      vertex 3.97248 20.8245 0
      vertex 1.33116 21.1582 7
      vertex 3.97248 20.8245 7
    endloop
  endfacet
  facet normal 0.125342 0.992114 0
    outer loop
      vertex 1.33116 21.1582 7
      vertex 3.97248 20.8245 0
      vertex 1.33116 21.1582 0
    endloop
  endfacet
  facet normal 0.481734 0.876317 -0
    outer loop
      vertex 11.3595 17.8998 0
      vertex 9.02652 19.1823 7
      vertex 11.3595 17.8998 7
    endloop
  endfacet
  facet normal 0.481734 0.876317 0
    outer loop
      vertex 9.02652 19.1823 7
      vertex 11.3595 17.8998 0
      vertex 9.02652 19.1823 0
    endloop
  endfacet
  facet normal -0.844327 0.535828 0
    outer loop
      vertex -18.5777 10.2132 0
      vertex -17.1512 12.461 7
      vertex -17.1512 12.461 0
    endloop
  endfacet
  facet normal -0.844327 0.535828 0
    outer loop
      vertex -17.1512 12.461 7
      vertex -18.5777 10.2132 0
      vertex -18.5777 10.2132 7
    endloop
  endfacet
  facet normal -0.951057 0.309017 0
    outer loop
      vertex -20.534 5.27223 0
      vertex -19.7113 7.80424 7
      vertex -19.7113 7.80424 0
    endloop
  endfacet
  facet normal -0.951057 0.309017 0
    outer loop
      vertex -19.7113 7.80424 7
      vertex -20.534 5.27223 0
      vertex -20.534 5.27223 7
    endloop
  endfacet
  facet normal -0.982292 0.187356 0
    outer loop
      vertex -21.0328 2.65706 0
      vertex -20.534 5.27223 7
      vertex -20.534 5.27223 0
    endloop
  endfacet
  facet normal -0.982292 0.187356 0
    outer loop
      vertex -20.534 5.27223 7
      vertex -21.0328 2.65706 0
      vertex -21.0328 2.65706 7
    endloop
  endfacet
  facet normal -0.587785 0.809017 0
    outer loop
      vertex -11.3595 17.8998 0
      vertex -13.5134 16.3349 7
      vertex -11.3595 17.8998 7
    endloop
  endfacet
  facet normal -0.587785 0.809017 0
    outer loop
      vertex -13.5134 16.3349 7
      vertex -11.3595 17.8998 0
      vertex -13.5134 16.3349 0
    endloop
  endfacet
  facet normal -0.248693 0.968582 0
    outer loop
      vertex -3.97248 20.8245 0
      vertex -6.55116 20.1624 7
      vertex -3.97248 20.8245 7
    endloop
  endfacet
  facet normal -0.248693 0.968582 0
    outer loop
      vertex -6.55116 20.1624 7
      vertex -3.97248 20.8245 0
      vertex -6.55116 20.1624 0
    endloop
  endfacet
  facet normal 0.998026 -0.0628025 0
    outer loop
      vertex 21.0328 -2.65706 7
      vertex 21.2 0 0
      vertex 21.2 0 7
    endloop
  endfacet
  facet normal 0.998026 -0.0628025 0
    outer loop
      vertex 21.2 0 0
      vertex 21.0328 -2.65706 7
      vertex 21.0328 -2.65706 0
    endloop
  endfacet
  facet normal 0.770507 -0.637432 0
    outer loop
      vertex 15.4541 -14.5124 7
      vertex 17.1512 -12.461 0
      vertex 17.1512 -12.461 7
    endloop
  endfacet
  facet normal 0.770507 -0.637432 0
    outer loop
      vertex 17.1512 -12.461 0
      vertex 15.4541 -14.5124 7
      vertex 15.4541 -14.5124 0
    endloop
  endfacet
  facet normal 0.951057 -0.309017 0
    outer loop
      vertex 19.7113 -7.80424 7
      vertex 20.534 -5.27223 0
      vertex 20.534 -5.27223 7
    endloop
  endfacet
  facet normal 0.951057 -0.309017 0
    outer loop
      vertex 20.534 -5.27223 0
      vertex 19.7113 -7.80424 7
      vertex 19.7113 -7.80424 0
    endloop
  endfacet
  facet normal 0.481734 -0.876317 0
    outer loop
      vertex 9.02652 -19.1823 0
      vertex 11.3595 -17.8998 7
      vertex 9.02652 -19.1823 7
    endloop
  endfacet
  facet normal 0.481734 -0.876317 0
    outer loop
      vertex 11.3595 -17.8998 7
      vertex 9.02652 -19.1823 0
      vertex 11.3595 -17.8998 0
    endloop
  endfacet
  facet normal 0.904823 -0.425788 0
    outer loop
      vertex 18.5777 -10.2132 7
      vertex 19.7113 -7.80424 0
      vertex 19.7113 -7.80424 7
    endloop
  endfacet
  facet normal 0.904823 -0.425788 0
    outer loop
      vertex 19.7113 -7.80424 0
      vertex 18.5777 -10.2132 7
      vertex 18.5777 -10.2132 0
    endloop
  endfacet
  facet normal 0 0 -1
    outer loop
      vertex 15 0 0
      vertex 21.2 0 0
      vertex 21.0328 -2.65706 0
    endloop
  endfacet
  facet normal 0 0 -1
    outer loop
      vertex 14.8817 -1.88 0
      vertex 21.0328 -2.65706 0
      vertex 20.534 -5.27223 0
    endloop
  endfacet
  facet normal 0 0 -1
    outer loop
      vertex 21.2 0 0
      vertex 15 0 0
      vertex 21.0328 2.65706 0
    endloop
  endfacet
  facet normal 0 0 -1
    outer loop
      vertex 14.5287 -3.73035 0
      vertex 20.534 -5.27223 0
      vertex 19.7113 -7.80424 0
    endloop
  endfacet
  facet normal 0 0 -1
    outer loop
      vertex 14.8817 1.88 0
      vertex 21.0328 2.65706 0
      vertex 15 0 0
    endloop
  endfacet
  facet normal 0 0 -1
    outer loop
      vertex 13.9466 -5.52187 0
      vertex 19.7113 -7.80424 0
      vertex 18.5777 -10.2132 0
    endloop
  endfacet
  facet normal -0 0 -1
    outer loop
      vertex 21.0328 2.65706 0
      vertex 14.8817 1.88 0
      vertex 20.534 5.27223 0
    endloop
  endfacet
  facet normal 0 0 -1
    outer loop
      vertex 13.1446 -7.22631 0
      vertex 18.5777 -10.2132 0
      vertex 17.1512 -12.461 0
    endloop
  endfacet
  facet normal 0 0 -1
    outer loop
      vertex 14.5287 3.73035 0
      vertex 20.534 5.27223 0
      vertex 14.8817 1.88 0
    endloop
  endfacet
  facet normal 0 0 -1
    outer loop
      vertex 12.1353 -8.81678 0
      vertex 17.1512 -12.461 0
      vertex 15.4541 -14.5124 0
    endloop
  endfacet
  facet normal -0 0 -1
    outer loop
      vertex 20.534 5.27223 0
      vertex 14.5287 3.73035 0
      vertex 19.7113 7.80424 0
    endloop
  endfacet
  facet normal 0 0 -1
    outer loop
      vertex 13.9466 5.52187 0
      vertex 19.7113 7.80424 0
      vertex 14.5287 3.73035 0
    endloop
  endfacet
  facet normal 0 0 -1
    outer loop
      vertex 21.0328 -2.65706 0
      vertex 14.8817 -1.88 0
      vertex 15 0 0
    endloop
  endfacet
  facet normal 0 0 -1
    outer loop
      vertex 20.534 -5.27223 0
      vertex 14.5287 -3.73035 0
      vertex 14.8817 -1.88 0
    endloop
  endfacet
  facet normal 0 0 -1
    outer loop
      vertex 19.7113 -7.80424 0
      vertex 13.9466 -5.52187 0
      vertex 14.5287 -3.73035 0
    endloop
  endfacet
  facet normal 0 0 -1
    outer loop
      vertex 10.9345 -10.2682 0
      vertex 15.4541 -14.5124 0
      vertex 13.5134 -16.3349 0
    endloop
  endfacet
  facet normal 0 0 -1
    outer loop
      vertex 18.5777 -10.2132 0
      vertex 13.1446 -7.22631 0
      vertex 13.9466 -5.52187 0
    endloop
  endfacet
  facet normal 0 0 -1
    outer loop
      vertex 17.1512 -12.461 0
      vertex 12.1353 -8.81678 0
      vertex 13.1446 -7.22631 0
    endloop
  endfacet
  facet normal 0 0 -1
    outer loop
      vertex 9.56136 -11.5577 0
      vertex 13.5134 -16.3349 0
      vertex 11.3595 -17.8998 0
    endloop
  endfacet
  facet normal 0 0 -1
    outer loop
      vertex 15.4541 -14.5124 0
      vertex 10.9345 -10.2682 0
      vertex 12.1353 -8.81678 0
    endloop
  endfacet
  facet normal 0 0 -1
    outer loop
      vertex 13.5134 -16.3349 0
      vertex 9.56136 -11.5577 0
      vertex 10.9345 -10.2682 0
    endloop
  endfacet
  facet normal 0 0 -1
    outer loop
      vertex 8.0374 -12.6649 0
      vertex 11.3595 -17.8998 0
      vertex 9.02652 -19.1823 0
    endloop
  endfacet
  facet normal 0 0 -1
    outer loop
      vertex 11.3595 -17.8998 0
      vertex 8.0374 -12.6649 0
      vertex 9.56136 -11.5577 0
    endloop
  endfacet
  facet normal 0 0 -1
    outer loop
      vertex 6.38669 -13.5724 0
      vertex 9.02652 -19.1823 0
      vertex 6.55116 -20.1624 0
    endloop
  endfacet
  facet normal 0 0 -1
    outer loop
      vertex 9.02652 -19.1823 0
      vertex 6.38669 -13.5724 0
      vertex 8.0374 -12.6649 0
    endloop
  endfacet
  facet normal 0 0 -1
    outer loop
      vertex 6.55116 -20.1624 0
      vertex 4.63525 -14.2658 0
      vertex 6.38669 -13.5724 0
    endloop
  endfacet
  facet normal 0 0 -1
    outer loop
      vertex 3.97248 -20.8245 0
      vertex 4.63525 -14.2658 0
      vertex 6.55116 -20.1624 0
    endloop
  endfacet
  facet normal 0 0 -1
    outer loop
      vertex 3.97248 -20.8245 0
      vertex 2.81072 -14.7343 0
      vertex 4.63525 -14.2658 0
    endloop
  endfacet
  facet normal 0 0 -1
    outer loop
      vertex 1.33116 -21.1582 0
      vertex 2.81072 -14.7343 0
      vertex 3.97248 -20.8245 0
    endloop
  endfacet
  facet normal 0 0 -1
    outer loop
      vertex 1.33116 -21.1582 0
      vertex 0.941857 -14.9704 0
      vertex 2.81072 -14.7343 0
    endloop
  endfacet
  facet normal 0 0 -1
    outer loop
      vertex 1.33116 -21.1582 0
      vertex -0.941857 -14.9704 0
      vertex 0.941857 -14.9704 0
    endloop
  endfacet
  facet normal 0 0 -1
    outer loop
      vertex -1.33116 -21.1582 0
      vertex -0.941857 -14.9704 0
      vertex 1.33116 -21.1582 0
    endloop
  endfacet
  facet normal 0 0 -1
    outer loop
      vertex -1.33116 -21.1582 0
      vertex -2.81072 -14.7343 0
      vertex -0.941857 -14.9704 0
    endloop
  endfacet
  facet normal 0 0 -1
    outer loop
      vertex -3.97248 -20.8245 0
      vertex -2.81072 -14.7343 0
      vertex -1.33116 -21.1582 0
    endloop
  endfacet
  facet normal 0 0 -1
    outer loop
      vertex -3.97248 -20.8245 0
      vertex -4.63525 -14.2658 0
      vertex -2.81072 -14.7343 0
    endloop
  endfacet
  facet normal 0 0 -1
    outer loop
      vertex -6.55116 -20.1624 0
      vertex -4.63525 -14.2658 0
      vertex -3.97248 -20.8245 0
    endloop
  endfacet
  facet normal -0 0 -1
    outer loop
      vertex -4.63525 -14.2658 0
      vertex -6.55116 -20.1624 0
      vertex -6.38669 -13.5724 0
    endloop
  endfacet
  facet normal 0 0 -1
    outer loop
      vertex -9.02652 -19.1823 0
      vertex -6.38669 -13.5724 0
      vertex -6.55116 -20.1624 0
    endloop
  endfacet
  facet normal -0 0 -1
    outer loop
      vertex -6.38669 -13.5724 0
      vertex -9.02652 -19.1823 0
      vertex -8.0374 -12.6649 0
    endloop
  endfacet
  facet normal 0 0 -1
    outer loop
      vertex -11.3595 -17.8998 0
      vertex -8.0374 -12.6649 0
      vertex -9.02652 -19.1823 0
    endloop
  endfacet
  facet normal -0 0 -1
    outer loop
      vertex -8.0374 -12.6649 0
      vertex -11.3595 -17.8998 0
      vertex -9.56136 -11.5577 0
    endloop
  endfacet
  facet normal 0 0 -1
    outer loop
      vertex -13.5134 -16.3349 0
      vertex -9.56136 -11.5577 0
      vertex -11.3595 -17.8998 0
    endloop
  endfacet
  facet normal -0 0 -1
    outer loop
      vertex -9.56136 -11.5577 0
      vertex -13.5134 -16.3349 0
      vertex -10.9345 -10.2682 0
    endloop
  endfacet
  facet normal 0 0 -1
    outer loop
      vertex -15.4541 -14.5124 0
      vertex -10.9345 -10.2682 0
      vertex -13.5134 -16.3349 0
    endloop
  endfacet
  facet normal -0 0 -1
    outer loop
      vertex -10.9345 -10.2682 0
      vertex -15.4541 -14.5124 0
      vertex -12.1353 -8.81678 0
    endloop
  endfacet
  facet normal 0 0 -1
    outer loop
      vertex -17.1512 -12.461 0
      vertex -12.1353 -8.81678 0
      vertex -15.4541 -14.5124 0
    endloop
  endfacet
  facet normal -0 0 -1
    outer loop
      vertex -12.1353 -8.81678 0
      vertex -17.1512 -12.461 0
      vertex -13.1446 -7.22631 0
    endloop
  endfacet
  facet normal 0 0 -1
    outer loop
      vertex -18.5777 -10.2132 0
      vertex -13.1446 -7.22631 0
      vertex -17.1512 -12.461 0
    endloop
  endfacet
  facet normal 0 0 -1
    outer loop
      vertex -19.7113 -7.80424 0
      vertex -13.9466 -5.52187 0
      vertex -18.5777 -10.2132 0
    endloop
  endfacet
  facet normal -0 0 -1
    outer loop
      vertex -13.1446 -7.22631 0
      vertex -18.5777 -10.2132 0
      vertex -13.9466 -5.52187 0
    endloop
  endfacet
  facet normal -0 0 -1
    outer loop
      vertex 19.7113 7.80424 0
      vertex 13.9466 5.52187 0
      vertex 18.5777 10.2132 0
    endloop
  endfacet
  facet normal 0 0 -1
    outer loop
      vertex 13.1446 7.22631 0
      vertex 18.5777 10.2132 0
      vertex 13.9466 5.52187 0
    endloop
  endfacet
  facet normal -0 0 -1
    outer loop
      vertex 18.5777 10.2132 0
      vertex 13.1446 7.22631 0
      vertex 17.1512 12.461 0
    endloop
  endfacet
  facet normal 0 0 -1
    outer loop
      vertex 12.1353 8.81678 0
      vertex 17.1512 12.461 0
      vertex 13.1446 7.22631 0
    endloop
  endfacet
  facet normal -0 0 -1
    outer loop
      vertex 17.1512 12.461 0
      vertex 12.1353 8.81678 0
      vertex 15.4541 14.5124 0
    endloop
  endfacet
  facet normal 0 0 -1
    outer loop
      vertex 10.9345 10.2682 0
      vertex 15.4541 14.5124 0
      vertex 12.1353 8.81678 0
    endloop
  endfacet
  facet normal -0 0 -1
    outer loop
      vertex 15.4541 14.5124 0
      vertex 10.9345 10.2682 0
      vertex 13.5134 16.3349 0
    endloop
  endfacet
  facet normal 0 0 -1
    outer loop
      vertex 9.56136 11.5577 0
      vertex 13.5134 16.3349 0
      vertex 10.9345 10.2682 0
    endloop
  endfacet
  facet normal -0 0 -1
    outer loop
      vertex 13.5134 16.3349 0
      vertex 9.56136 11.5577 0
      vertex 11.3595 17.8998 0
    endloop
  endfacet
  facet normal 0 0 -1
    outer loop
      vertex 8.0374 12.6649 0
      vertex 11.3595 17.8998 0
      vertex 9.56136 11.5577 0
    endloop
  endfacet
  facet normal -0 0 -1
    outer loop
      vertex 11.3595 17.8998 0
      vertex 8.0374 12.6649 0
      vertex 9.02652 19.1823 0
    endloop
  endfacet
  facet normal 0 0 -1
    outer loop
      vertex 6.38669 13.5724 0
      vertex 9.02652 19.1823 0
      vertex 8.0374 12.6649 0
    endloop
  endfacet
  facet normal -0 0 -1
    outer loop
      vertex 9.02652 19.1823 0
      vertex 6.38669 13.5724 0
      vertex 6.55116 20.1624 0
    endloop
  endfacet
  facet normal 0 0 -1
    outer loop
      vertex 4.63525 14.2658 0
      vertex 6.55116 20.1624 0
      vertex 6.38669 13.5724 0
    endloop
  endfacet
  facet normal 0 0 -1
    outer loop
      vertex 4.63525 14.2658 0
      vertex 3.97248 20.8245 0
      vertex 6.55116 20.1624 0
    endloop
  endfacet
  facet normal 0 0 -1
    outer loop
      vertex 2.81072 14.7343 0
      vertex 3.97248 20.8245 0
      vertex 4.63525 14.2658 0
    endloop
  endfacet
  facet normal 0 0 -1
    outer loop
      vertex 2.81072 14.7343 0
      vertex 1.33116 21.1582 0
      vertex 3.97248 20.8245 0
    endloop
  endfacet
  facet normal 0 0 -1
    outer loop
      vertex 0.941857 14.9704 0
      vertex 1.33116 21.1582 0
      vertex 2.81072 14.7343 0
    endloop
  endfacet
  facet normal 0 0 -1
    outer loop
      vertex -0.941857 14.9704 0
      vertex 1.33116 21.1582 0
      vertex 0.941857 14.9704 0
    endloop
  endfacet
  facet normal 0 0 -1
    outer loop
      vertex -0.941857 14.9704 0
      vertex -1.33116 21.1582 0
      vertex 1.33116 21.1582 0
    endloop
  endfacet
  facet normal 0 0 -1
    outer loop
      vertex -2.81072 14.7343 0
      vertex -1.33116 21.1582 0
      vertex -0.941857 14.9704 0
    endloop
  endfacet
  facet normal 0 0 -1
    outer loop
      vertex -2.81072 14.7343 0
      vertex -3.97248 20.8245 0
      vertex -1.33116 21.1582 0
    endloop
  endfacet
  facet normal 0 0 -1
    outer loop
      vertex -4.63525 14.2658 0
      vertex -3.97248 20.8245 0
      vertex -2.81072 14.7343 0
    endloop
  endfacet
  facet normal 0 0 -1
    outer loop
      vertex -6.55116 20.1624 0
      vertex -4.63525 14.2658 0
      vertex -6.38669 13.5724 0
    endloop
  endfacet
  facet normal 0 0 -1
    outer loop
      vertex -4.63525 14.2658 0
      vertex -6.55116 20.1624 0
      vertex -3.97248 20.8245 0
    endloop
  endfacet
  facet normal 0 0 -1
    outer loop
      vertex -9.02652 19.1823 0
      vertex -6.38669 13.5724 0
      vertex -8.0374 12.6649 0
    endloop
  endfacet
  facet normal 0 0 -1
    outer loop
      vertex -6.38669 13.5724 0
      vertex -9.02652 19.1823 0
      vertex -6.55116 20.1624 0
    endloop
  endfacet
  facet normal 0 0 -1
    outer loop
      vertex -11.3595 17.8998 0
      vertex -8.0374 12.6649 0
      vertex -9.56136 11.5577 0
    endloop
  endfacet
  facet normal 0 0 -1
    outer loop
      vertex -13.5134 16.3349 0
      vertex -9.56136 11.5577 0
      vertex -10.9345 10.2682 0
    endloop
  endfacet
  facet normal 0 0 -1
    outer loop
      vertex -8.0374 12.6649 0
      vertex -11.3595 17.8998 0
      vertex -9.02652 19.1823 0
    endloop
  endfacet
  facet normal 0 0 -1
    outer loop
      vertex -15.4541 14.5124 0
      vertex -10.9345 10.2682 0
      vertex -12.1353 8.81678 0
    endloop
  endfacet
  facet normal 0 0 -1
    outer loop
      vertex -17.1512 12.461 0
      vertex -12.1353 8.81678 0
      vertex -13.1446 7.22631 0
    endloop
  endfacet
  facet normal 0 0 -1
    outer loop
      vertex -9.56136 11.5577 0
      vertex -13.5134 16.3349 0
      vertex -11.3595 17.8998 0
    endloop
  endfacet
  facet normal 0 0 -1
    outer loop
      vertex -18.5777 10.2132 0
      vertex -13.1446 7.22631 0
      vertex -13.9466 5.52187 0
    endloop
  endfacet
  facet normal 0 0 -1
    outer loop
      vertex -19.7113 7.80424 0
      vertex -13.9466 5.52187 0
      vertex -14.5287 3.73035 0
    endloop
  endfacet
  facet normal 0 0 -1
    outer loop
      vertex -20.534 5.27223 0
      vertex -14.5287 3.73035 0
      vertex -14.8817 1.88 0
    endloop
  endfacet
  facet normal 0 0 -1
    outer loop
      vertex -10.9345 10.2682 0
      vertex -15.4541 14.5124 0
      vertex -13.5134 16.3349 0
    endloop
  endfacet
  facet normal 0 0 -1
    outer loop
      vertex -21.0328 2.65706 0
      vertex -14.8817 1.88 0
      vertex -15 0 0
    endloop
  endfacet
  facet normal -0 0 -1
    outer loop
      vertex -13.9466 -5.52187 0
      vertex -19.7113 -7.80424 0
      vertex -14.5287 -3.73035 0
    endloop
  endfacet
  facet normal 0 0 -1
    outer loop
      vertex -20.534 -5.27223 0
      vertex -14.5287 -3.73035 0
      vertex -19.7113 -7.80424 0
    endloop
  endfacet
  facet normal 0 0 -1
    outer loop
      vertex -12.1353 8.81678 0
      vertex -17.1512 12.461 0
      vertex -15.4541 14.5124 0
    endloop
  endfacet
  facet normal -0 0 -1
    outer loop
      vertex -14.5287 -3.73035 0
      vertex -20.534 -5.27223 0
      vertex -14.8817 -1.88 0
    endloop
  endfacet
  facet normal 0 0 -1
    outer loop
      vertex -13.1446 7.22631 0
      vertex -18.5777 10.2132 0
      vertex -17.1512 12.461 0
    endloop
  endfacet
  facet normal 0 0 -1
    outer loop
      vertex -21.0328 -2.65706 0
      vertex -14.8817 -1.88 0
      vertex -20.534 -5.27223 0
    endloop
  endfacet
  facet normal 0 0 -1
    outer loop
      vertex -13.9466 5.52187 0
      vertex -19.7113 7.80424 0
      vertex -18.5777 10.2132 0
    endloop
  endfacet
  facet normal -0 0 -1
    outer loop
      vertex -14.8817 -1.88 0
      vertex -21.0328 -2.65706 0
      vertex -15 0 0
    endloop
  endfacet
  facet normal 0 0 -1
    outer loop
      vertex -14.5287 3.73035 0
      vertex -20.534 5.27223 0
      vertex -19.7113 7.80424 0
    endloop
  endfacet
  facet normal 0 0 -1
    outer loop
      vertex -21.2 0 0
      vertex -15 0 0
      vertex -21.0328 -2.65706 0
    endloop
  endfacet
  facet normal 0 0 -1
    outer loop
      vertex -14.8817 1.88 0
      vertex -21.0328 2.65706 0
      vertex -20.534 5.27223 0
    endloop
  endfacet
  facet normal 0 0 -1
    outer loop
      vertex -15 0 0
      vertex -21.2 0 0
      vertex -21.0328 2.65706 0
    endloop
  endfacet
  facet normal 0.248693 -0.968582 0
    outer loop
      vertex 3.97248 -20.8245 0
      vertex 6.55116 -20.1624 7
      vertex 3.97248 -20.8245 7
    endloop
  endfacet
  facet normal 0.248693 -0.968582 0
    outer loop
      vertex 6.55116 -20.1624 7
      vertex 3.97248 -20.8245 0
      vertex 6.55116 -20.1624 0
    endloop
  endfacet
  facet normal -0.125342 -0.992114 0
    outer loop
      vertex -3.97248 -20.8245 0
      vertex -1.33116 -21.1582 7
      vertex -3.97248 -20.8245 7
    endloop
  endfacet
  facet normal -0.125342 -0.992114 -0
    outer loop
      vertex -1.33116 -21.1582 7
      vertex -3.97248 -20.8245 0
      vertex -1.33116 -21.1582 0
    endloop
  endfacet
  facet normal -0.368136 -0.929772 0
    outer loop
      vertex -9.02652 -19.1823 0
      vertex -6.55116 -20.1624 7
      vertex -9.02652 -19.1823 7
    endloop
  endfacet
  facet normal -0.368136 -0.929772 -0
    outer loop
      vertex -6.55116 -20.1624 7
      vertex -9.02652 -19.1823 0
      vertex -6.55116 -20.1624 0
    endloop
  endfacet
  facet normal -0.248693 -0.968582 0
    outer loop
      vertex -6.55116 -20.1624 0
      vertex -3.97248 -20.8245 7
      vertex -6.55116 -20.1624 7
    endloop
  endfacet
  facet normal -0.248693 -0.968582 -0
    outer loop
      vertex -3.97248 -20.8245 7
      vertex -6.55116 -20.1624 0
      vertex -3.97248 -20.8245 0
    endloop
  endfacet
  facet normal -0.770507 -0.637432 0
    outer loop
      vertex -15.4541 -14.5124 0
      vertex -17.1512 -12.461 7
      vertex -17.1512 -12.461 0
    endloop
  endfacet
  facet normal -0.770507 -0.637432 0
    outer loop
      vertex -17.1512 -12.461 7
      vertex -15.4541 -14.5124 0
      vertex -15.4541 -14.5124 7
    endloop
  endfacet
  facet normal -0.684559 -0.728957 0
    outer loop
      vertex -15.4541 -14.5124 0
      vertex -13.5134 -16.3349 7
      vertex -15.4541 -14.5124 7
    endloop
  endfacet
  facet normal -0.684559 -0.728957 -0
    outer loop
      vertex -13.5134 -16.3349 7
      vertex -15.4541 -14.5124 0
      vertex -13.5134 -16.3349 0
    endloop
  endfacet
  facet normal -0.904823 -0.425788 0
    outer loop
      vertex -18.5777 -10.2132 0
      vertex -19.7113 -7.80424 7
      vertex -19.7113 -7.80424 0
    endloop
  endfacet
  facet normal -0.904823 -0.425788 0
    outer loop
      vertex -19.7113 -7.80424 7
      vertex -18.5777 -10.2132 0
      vertex -18.5777 -10.2132 7
    endloop
  endfacet
  facet normal -0.951057 -0.309017 0
    outer loop
      vertex -19.7113 -7.80424 0
      vertex -20.534 -5.27223 7
      vertex -20.534 -5.27223 0
    endloop
  endfacet
  facet normal -0.951057 -0.309017 0
    outer loop
      vertex -20.534 -5.27223 7
      vertex -19.7113 -7.80424 0
      vertex -19.7113 -7.80424 7
    endloop
  endfacet
  facet normal -0.982292 -0.187356 0
    outer loop
      vertex -20.534 -5.27223 0
      vertex -21.0328 -2.65706 7
      vertex -21.0328 -2.65706 0
    endloop
  endfacet
  facet normal -0.982292 -0.187356 0
    outer loop
      vertex -21.0328 -2.65706 7
      vertex -20.534 -5.27223 0
      vertex -20.534 -5.27223 7
    endloop
  endfacet
  facet normal -0.998026 -0.0628025 0
    outer loop
      vertex -21.0328 -2.65706 0
      vertex -21.2 0 7
      vertex -21.2 0 0
    endloop
  endfacet
  facet normal -0.998026 -0.0628025 0
    outer loop
      vertex -21.2 0 7
      vertex -21.0328 -2.65706 0
      vertex -21.0328 -2.65706 7
    endloop
  endfacet
  facet normal 0.684559 -0.728957 0
    outer loop
      vertex 13.5134 -16.3349 0
      vertex 15.4541 -14.5124 7
      vertex 13.5134 -16.3349 7
    endloop
  endfacet
  facet normal 0.684559 -0.728957 0
    outer loop
      vertex 15.4541 -14.5124 7
      vertex 13.5134 -16.3349 0
      vertex 15.4541 -14.5124 0
    endloop
  endfacet
  facet normal 0.587785 -0.809017 0
    outer loop
      vertex 11.3595 -17.8998 0
      vertex 13.5134 -16.3349 7
      vertex 11.3595 -17.8998 7
    endloop
  endfacet
  facet normal 0.587785 -0.809017 0
    outer loop
      vertex 13.5134 -16.3349 7
      vertex 11.3595 -17.8998 0
      vertex 13.5134 -16.3349 0
    endloop
  endfacet
  facet normal -0.481734 -0.876317 0
    outer loop
      vertex -11.3595 -17.8998 0
      vertex -9.02652 -19.1823 7
      vertex -11.3595 -17.8998 7
    endloop
  endfacet
  facet normal -0.481734 -0.876317 -0
    outer loop
      vertex -9.02652 -19.1823 7
      vertex -11.3595 -17.8998 0
      vertex -9.02652 -19.1823 0
    endloop
  endfacet
  facet normal -0.587785 -0.809017 0
    outer loop
      vertex -13.5134 -16.3349 0
      vertex -11.3595 -17.8998 7
      vertex -13.5134 -16.3349 7
    endloop
  endfacet
  facet normal -0.587785 -0.809017 -0
    outer loop
      vertex -11.3595 -17.8998 7
      vertex -13.5134 -16.3349 0
      vertex -11.3595 -17.8998 0
    endloop
  endfacet
  facet normal -0.844327 -0.535828 0
    outer loop
      vertex -17.1512 -12.461 0
      vertex -18.5777 -10.2132 7
      vertex -18.5777 -10.2132 0
    endloop
  endfacet
  facet normal -0.844327 -0.535828 0
    outer loop
      vertex -18.5777 -10.2132 7
      vertex -17.1512 -12.461 0
      vertex -17.1512 -12.461 7
    endloop
  endfacet
  facet normal -0.904837 -0.425758 0
    outer loop
      vertex 13.9466 5.52187 0
      vertex 13.1446 7.22631 7
      vertex 13.1446 7.22631 0
    endloop
  endfacet
  facet normal -0.904837 -0.425758 0
    outer loop
      vertex 13.1446 7.22631 7
      vertex 13.9466 5.52187 0
      vertex 13.9466 5.52187 7
    endloop
  endfacet
  facet normal 0.951057 -0.309017 0
    outer loop
      vertex -14.5287 3.73035 7
      vertex -13.9466 5.52187 0
      vertex -13.9466 5.52187 7
    endloop
  endfacet
  facet normal 0.951057 -0.309017 0
    outer loop
      vertex -13.9466 5.52187 0
      vertex -14.5287 3.73035 7
      vertex -14.5287 3.73035 0
    endloop
  endfacet
  facet normal -0.844338 -0.535811 0
    outer loop
      vertex 13.1446 7.22631 0
      vertex 12.1353 8.81678 7
      vertex 12.1353 8.81678 0
    endloop
  endfacet
  facet normal -0.844338 -0.535811 0
    outer loop
      vertex 12.1353 8.81678 7
      vertex 13.1446 7.22631 0
      vertex 13.1446 7.22631 7
    endloop
  endfacet
  facet normal -0.368104 -0.929785 0
    outer loop
      vertex 4.63525 14.2658 0
      vertex 6.38669 13.5724 7
      vertex 4.63525 14.2658 7
    endloop
  endfacet
  facet normal -0.368104 -0.929785 -0
    outer loop
      vertex 6.38669 13.5724 7
      vertex 4.63525 14.2658 0
      vertex 6.38669 13.5724 0
    endloop
  endfacet
  facet normal 0.368104 -0.929785 0
    outer loop
      vertex -6.38669 13.5724 0
      vertex -4.63525 14.2658 7
      vertex -6.38669 13.5724 7
    endloop
  endfacet
  facet normal 0.368104 -0.929785 0
    outer loop
      vertex -4.63525 14.2658 7
      vertex -6.38669 13.5724 0
      vertex -4.63525 14.2658 0
    endloop
  endfacet
  facet normal 0.904837 -0.425758 0
    outer loop
      vertex -13.9466 5.52187 7
      vertex -13.1446 7.22631 0
      vertex -13.1446 7.22631 7
    endloop
  endfacet
  facet normal 0.904837 -0.425758 0
    outer loop
      vertex -13.1446 7.22631 0
      vertex -13.9466 5.52187 7
      vertex -13.9466 5.52187 0
    endloop
  endfacet
  facet normal -0.982285 0.187395 0
    outer loop
      vertex 14.5287 -3.73035 0
      vertex 14.8817 -1.88 7
      vertex 14.8817 -1.88 0
    endloop
  endfacet
  facet normal -0.982285 0.187395 0
    outer loop
      vertex 14.8817 -1.88 7
      vertex 14.5287 -3.73035 0
      vertex 14.5287 -3.73035 7
    endloop
  endfacet
  facet normal 0 -1 0
    outer loop
      vertex -0.941857 14.9704 0
      vertex 0.941857 14.9704 7
      vertex -0.941857 14.9704 7
    endloop
  endfacet
  facet normal 0 -1 -0
    outer loop
      vertex 0.941857 14.9704 7
      vertex -0.941857 14.9704 0
      vertex 0.941857 14.9704 0
    endloop
  endfacet
  facet normal -0.48176 -0.876303 0
    outer loop
      vertex 6.38669 13.5724 0
      vertex 8.0374 12.6649 7
      vertex 6.38669 13.5724 7
    endloop
  endfacet
  facet normal -0.48176 -0.876303 -0
    outer loop
      vertex 8.0374 12.6649 7
      vertex 6.38669 13.5724 0
      vertex 8.0374 12.6649 0
    endloop
  endfacet
  facet normal 0.770492 -0.63745 0
    outer loop
      vertex -12.1353 8.81678 7
      vertex -10.9345 10.2682 0
      vertex -10.9345 10.2682 7
    endloop
  endfacet
  facet normal 0.770492 -0.63745 0
    outer loop
      vertex -10.9345 10.2682 0
      vertex -12.1353 8.81678 7
      vertex -12.1353 8.81678 0
    endloop
  endfacet
  facet normal 0.24871 -0.968578 0
    outer loop
      vertex -4.63525 14.2658 0
      vertex -2.81072 14.7343 7
      vertex -4.63525 14.2658 7
    endloop
  endfacet
  facet normal 0.24871 -0.968578 0
    outer loop
      vertex -2.81072 14.7343 7
      vertex -4.63525 14.2658 0
      vertex -2.81072 14.7343 0
    endloop
  endfacet
  facet normal 0.684557 -0.728959 0
    outer loop
      vertex -10.9345 10.2682 0
      vertex -9.56136 11.5577 7
      vertex -10.9345 10.2682 7
    endloop
  endfacet
  facet normal 0.684557 -0.728959 0
    outer loop
      vertex -9.56136 11.5577 7
      vertex -10.9345 10.2682 0
      vertex -9.56136 11.5577 0
    endloop
  endfacet
  facet normal -0.998026 -0.0628013 0
    outer loop
      vertex 15 0 0
      vertex 14.8817 1.88 7
      vertex 14.8817 1.88 0
    endloop
  endfacet
  facet normal -0.998026 -0.0628013 0
    outer loop
      vertex 14.8817 1.88 7
      vertex 15 0 0
      vertex 15 0 7
    endloop
  endfacet
  facet normal -0.951057 0.309017 0
    outer loop
      vertex 13.9466 -5.52187 0
      vertex 14.5287 -3.73035 7
      vertex 14.5287 -3.73035 0
    endloop
  endfacet
  facet normal -0.951057 0.309017 0
    outer loop
      vertex 14.5287 -3.73035 7
      vertex 13.9466 -5.52187 0
      vertex 13.9466 -5.52187 7
    endloop
  endfacet
  facet normal -0.982285 -0.187395 0
    outer loop
      vertex 14.8817 1.88 0
      vertex 14.5287 3.73035 7
      vertex 14.5287 3.73035 0
    endloop
  endfacet
  facet normal -0.982285 -0.187395 0
    outer loop
      vertex 14.5287 3.73035 7
      vertex 14.8817 1.88 0
      vertex 14.8817 1.88 7
    endloop
  endfacet
  facet normal -0.951057 -0.309017 0
    outer loop
      vertex 14.5287 3.73035 0
      vertex 13.9466 5.52187 7
      vertex 13.9466 5.52187 0
    endloop
  endfacet
  facet normal -0.951057 -0.309017 0
    outer loop
      vertex 13.9466 5.52187 7
      vertex 14.5287 3.73035 0
      vertex 14.5287 3.73035 7
    endloop
  endfacet
  facet normal -0.684557 -0.728959 0
    outer loop
      vertex 9.56136 11.5577 0
      vertex 10.9345 10.2682 7
      vertex 9.56136 11.5577 7
    endloop
  endfacet
  facet normal -0.684557 -0.728959 -0
    outer loop
      vertex 10.9345 10.2682 7
      vertex 9.56136 11.5577 0
      vertex 10.9345 10.2682 0
    endloop
  endfacet
  facet normal -0.770492 -0.63745 0
    outer loop
      vertex 12.1353 8.81678 0
      vertex 10.9345 10.2682 7
      vertex 10.9345 10.2682 0
    endloop
  endfacet
  facet normal -0.770492 -0.63745 0
    outer loop
      vertex 10.9345 10.2682 7
      vertex 12.1353 8.81678 0
      vertex 12.1353 8.81678 7
    endloop
  endfacet
  facet normal -0.24871 -0.968578 0
    outer loop
      vertex 2.81072 14.7343 0
      vertex 4.63525 14.2658 7
      vertex 2.81072 14.7343 7
    endloop
  endfacet
  facet normal -0.24871 -0.968578 -0
    outer loop
      vertex 4.63525 14.2658 7
      vertex 2.81072 14.7343 0
      vertex 4.63525 14.2658 0
    endloop
  endfacet
  facet normal -0.125337 -0.992114 0
    outer loop
      vertex 0.941857 14.9704 0
      vertex 2.81072 14.7343 7
      vertex 0.941857 14.9704 7
    endloop
  endfacet
  facet normal -0.125337 -0.992114 -0
    outer loop
      vertex 2.81072 14.7343 7
      vertex 0.941857 14.9704 0
      vertex 2.81072 14.7343 0
    endloop
  endfacet
  facet normal -0.587778 -0.809022 0
    outer loop
      vertex 8.0374 12.6649 0
      vertex 9.56136 11.5577 7
      vertex 8.0374 12.6649 7
    endloop
  endfacet
  facet normal -0.587778 -0.809022 -0
    outer loop
      vertex 9.56136 11.5577 7
      vertex 8.0374 12.6649 0
      vertex 9.56136 11.5577 0
    endloop
  endfacet
  facet normal 0.998026 -0.0628013 0
    outer loop
      vertex -15 0 7
      vertex -14.8817 1.88 0
      vertex -14.8817 1.88 7
    endloop
  endfacet
  facet normal 0.998026 -0.0628013 0
    outer loop
      vertex -14.8817 1.88 0
      vertex -15 0 7
      vertex -15 0 0
    endloop
  endfacet
  facet normal 0.844338 -0.535811 0
    outer loop
      vertex -13.1446 7.22631 7
      vertex -12.1353 8.81678 0
      vertex -12.1353 8.81678 7
    endloop
  endfacet
  facet normal 0.844338 -0.535811 0
    outer loop
      vertex -12.1353 8.81678 0
      vertex -13.1446 7.22631 7
      vertex -13.1446 7.22631 0
    endloop
  endfacet
  facet normal 0.125337 -0.992114 0
    outer loop
      vertex -2.81072 14.7343 0
      vertex -0.941857 14.9704 7
      vertex -2.81072 14.7343 7
    endloop
  endfacet
  facet normal 0.125337 -0.992114 0
    outer loop
      vertex -0.941857 14.9704 7
      vertex -2.81072 14.7343 0
      vertex -0.941857 14.9704 0
    endloop
  endfacet
  facet normal 0.587778 -0.809022 0
    outer loop
      vertex -9.56136 11.5577 0
      vertex -8.0374 12.6649 7
      vertex -9.56136 11.5577 7
    endloop
  endfacet
  facet normal 0.587778 -0.809022 0
    outer loop
      vertex -8.0374 12.6649 7
      vertex -9.56136 11.5577 0
      vertex -8.0374 12.6649 0
    endloop
  endfacet
  facet normal 0.48176 -0.876303 0
    outer loop
      vertex -8.0374 12.6649 0
      vertex -6.38669 13.5724 7
      vertex -8.0374 12.6649 7
    endloop
  endfacet
  facet normal 0.48176 -0.876303 0
    outer loop
      vertex -6.38669 13.5724 7
      vertex -8.0374 12.6649 0
      vertex -6.38669 13.5724 0
    endloop
  endfacet
  facet normal -0.998026 0.0628013 0
    outer loop
      vertex 14.8817 -1.88 0
      vertex 15 0 7
      vertex 15 0 0
    endloop
  endfacet
  facet normal -0.998026 0.0628013 0
    outer loop
      vertex 15 0 7
      vertex 14.8817 -1.88 0
      vertex 14.8817 -1.88 7
    endloop
  endfacet
  facet normal -0.125337 0.992114 0
    outer loop
      vertex 2.81072 -14.7343 0
      vertex 0.941857 -14.9704 7
      vertex 2.81072 -14.7343 7
    endloop
  endfacet
  facet normal -0.125337 0.992114 0
    outer loop
      vertex 0.941857 -14.9704 7
      vertex 2.81072 -14.7343 0
      vertex 0.941857 -14.9704 0
    endloop
  endfacet
  facet normal 0.982285 -0.187395 0
    outer loop
      vertex -14.8817 1.88 7
      vertex -14.5287 3.73035 0
      vertex -14.5287 3.73035 7
    endloop
  endfacet
  facet normal 0.982285 -0.187395 0
    outer loop
      vertex -14.5287 3.73035 0
      vertex -14.8817 1.88 7
      vertex -14.8817 1.88 0
    endloop
  endfacet
  facet normal -0.904837 0.425758 0
    outer loop
      vertex 13.1446 -7.22631 0
      vertex 13.9466 -5.52187 7
      vertex 13.9466 -5.52187 0
    endloop
  endfacet
  facet normal -0.904837 0.425758 0
    outer loop
      vertex 13.9466 -5.52187 7
      vertex 13.1446 -7.22631 0
      vertex 13.1446 -7.22631 7
    endloop
  endfacet
  facet normal 0 1 -0
    outer loop
      vertex 0.941857 -14.9704 0
      vertex -0.941857 -14.9704 7
      vertex 0.941857 -14.9704 7
    endloop
  endfacet
  facet normal 0 1 0
    outer loop
      vertex -0.941857 -14.9704 7
      vertex 0.941857 -14.9704 0
      vertex -0.941857 -14.9704 0
    endloop
  endfacet
  facet normal 0.998026 0.0628013 0
    outer loop
      vertex -14.8817 -1.88 7
      vertex -15 0 0
      vertex -15 0 7
    endloop
  endfacet
  facet normal 0.998026 0.0628013 0
    outer loop
      vertex -15 0 0
      vertex -14.8817 -1.88 7
      vertex -14.8817 -1.88 0
    endloop
  endfacet
  facet normal 0.982285 0.187395 0
    outer loop
      vertex -14.5287 -3.73035 7
      vertex -14.8817 -1.88 0
      vertex -14.8817 -1.88 7
    endloop
  endfacet
  facet normal 0.982285 0.187395 0
    outer loop
      vertex -14.8817 -1.88 0
      vertex -14.5287 -3.73035 7
      vertex -14.5287 -3.73035 0
    endloop
  endfacet
  facet normal 0.844338 0.535811 0
    outer loop
      vertex -12.1353 -8.81678 7
      vertex -13.1446 -7.22631 0
      vertex -13.1446 -7.22631 7
    endloop
  endfacet
  facet normal 0.844338 0.535811 0
    outer loop
      vertex -13.1446 -7.22631 0
      vertex -12.1353 -8.81678 7
      vertex -12.1353 -8.81678 0
    endloop
  endfacet
  facet normal 0.904837 0.425758 0
    outer loop
      vertex -13.1446 -7.22631 7
      vertex -13.9466 -5.52187 0
      vertex -13.9466 -5.52187 7
    endloop
  endfacet
  facet normal 0.904837 0.425758 0
    outer loop
      vertex -13.9466 -5.52187 0
      vertex -13.1446 -7.22631 7
      vertex -13.1446 -7.22631 0
    endloop
  endfacet
  facet normal -0.368104 0.929785 0
    outer loop
      vertex 6.38669 -13.5724 0
      vertex 4.63525 -14.2658 7
      vertex 6.38669 -13.5724 7
    endloop
  endfacet
  facet normal -0.368104 0.929785 0
    outer loop
      vertex 4.63525 -14.2658 7
      vertex 6.38669 -13.5724 0
      vertex 4.63525 -14.2658 0
    endloop
  endfacet
  facet normal -0.24871 0.968578 0
    outer loop
      vertex 4.63525 -14.2658 0
      vertex 2.81072 -14.7343 7
      vertex 4.63525 -14.2658 7
    endloop
  endfacet
  facet normal -0.24871 0.968578 0
    outer loop
      vertex 2.81072 -14.7343 7
      vertex 4.63525 -14.2658 0
      vertex 2.81072 -14.7343 0
    endloop
  endfacet
  facet normal -0.684557 0.728959 0
    outer loop
      vertex 10.9345 -10.2682 0
      vertex 9.56136 -11.5577 7
      vertex 10.9345 -10.2682 7
    endloop
  endfacet
  facet normal -0.684557 0.728959 0
    outer loop
      vertex 9.56136 -11.5577 7
      vertex 10.9345 -10.2682 0
      vertex 9.56136 -11.5577 0
    endloop
  endfacet
  facet normal -0.844338 0.535811 0
    outer loop
      vertex 12.1353 -8.81678 0
      vertex 13.1446 -7.22631 7
      vertex 13.1446 -7.22631 0
    endloop
  endfacet
  facet normal -0.844338 0.535811 0
    outer loop
      vertex 13.1446 -7.22631 7
      vertex 12.1353 -8.81678 0
      vertex 12.1353 -8.81678 7
    endloop
  endfacet
  facet normal 0.368104 0.929785 -0
    outer loop
      vertex -4.63525 -14.2658 0
      vertex -6.38669 -13.5724 7
      vertex -4.63525 -14.2658 7
    endloop
  endfacet
  facet normal 0.368104 0.929785 0
    outer loop
      vertex -6.38669 -13.5724 7
      vertex -4.63525 -14.2658 0
      vertex -6.38669 -13.5724 0
    endloop
  endfacet
  facet normal 0.24871 0.968578 -0
    outer loop
      vertex -2.81072 -14.7343 0
      vertex -4.63525 -14.2658 7
      vertex -2.81072 -14.7343 7
    endloop
  endfacet
  facet normal 0.24871 0.968578 0
    outer loop
      vertex -4.63525 -14.2658 7
      vertex -2.81072 -14.7343 0
      vertex -4.63525 -14.2658 0
    endloop
  endfacet
  facet normal 0.770492 0.63745 0
    outer loop
      vertex -10.9345 -10.2682 7
      vertex -12.1353 -8.81678 0
      vertex -12.1353 -8.81678 7
    endloop
  endfacet
  facet normal 0.770492 0.63745 0
    outer loop
      vertex -12.1353 -8.81678 0
      vertex -10.9345 -10.2682 7
      vertex -10.9345 -10.2682 0
    endloop
  endfacet
  facet normal 0.684557 0.728959 -0
    outer loop
      vertex -9.56136 -11.5577 0
      vertex -10.9345 -10.2682 7
      vertex -9.56136 -11.5577 7
    endloop
  endfacet
  facet normal 0.684557 0.728959 0
    outer loop
      vertex -10.9345 -10.2682 7
      vertex -9.56136 -11.5577 0
      vertex -10.9345 -10.2682 0
    endloop
  endfacet
  facet normal -0.770492 0.63745 0
    outer loop
      vertex 10.9345 -10.2682 0
      vertex 12.1353 -8.81678 7
      vertex 12.1353 -8.81678 0
    endloop
  endfacet
  facet normal -0.770492 0.63745 0
    outer loop
      vertex 12.1353 -8.81678 7
      vertex 10.9345 -10.2682 0
      vertex 10.9345 -10.2682 7
    endloop
  endfacet
  facet normal -0.587778 0.809022 0
    outer loop
      vertex 9.56136 -11.5577 0
      vertex 8.0374 -12.6649 7
      vertex 9.56136 -11.5577 7
    endloop
  endfacet
  facet normal -0.587778 0.809022 0
    outer loop
      vertex 8.0374 -12.6649 7
      vertex 9.56136 -11.5577 0
      vertex 8.0374 -12.6649 0
    endloop
  endfacet
  facet normal -0.48176 0.876303 0
    outer loop
      vertex 8.0374 -12.6649 0
      vertex 6.38669 -13.5724 7
      vertex 8.0374 -12.6649 7
    endloop
  endfacet
  facet normal -0.48176 0.876303 0
    outer loop
      vertex 6.38669 -13.5724 7
      vertex 8.0374 -12.6649 0
      vertex 6.38669 -13.5724 0
    endloop
  endfacet
  facet normal 0.125337 0.992114 -0
    outer loop
      vertex -0.941857 -14.9704 0
      vertex -2.81072 -14.7343 7
      vertex -0.941857 -14.9704 7
    endloop
  endfacet
  facet normal 0.125337 0.992114 0
    outer loop
      vertex -2.81072 -14.7343 7
      vertex -0.941857 -14.9704 0
      vertex -2.81072 -14.7343 0
    endloop
  endfacet
  facet normal 0.951057 0.309017 0
    outer loop
      vertex -13.9466 -5.52187 7
      vertex -14.5287 -3.73035 0
      vertex -14.5287 -3.73035 7
    endloop
  endfacet
  facet normal 0.951057 0.309017 0
    outer loop
      vertex -14.5287 -3.73035 0
      vertex -13.9466 -5.52187 7
      vertex -13.9466 -5.52187 0
    endloop
  endfacet
  facet normal 0.48176 0.876303 -0
    outer loop
      vertex -6.38669 -13.5724 0
      vertex -8.0374 -12.6649 7
      vertex -6.38669 -13.5724 7
    endloop
  endfacet
  facet normal 0.48176 0.876303 0
    outer loop
      vertex -8.0374 -12.6649 7
      vertex -6.38669 -13.5724 0
      vertex -8.0374 -12.6649 0
    endloop
  endfacet
  facet normal 0.587778 0.809022 -0
    outer loop
      vertex -8.0374 -12.6649 0
      vertex -9.56136 -11.5577 7
      vertex -8.0374 -12.6649 7
    endloop
  endfacet
  facet normal 0.587778 0.809022 0
    outer loop
      vertex -9.56136 -11.5577 7
      vertex -8.0374 -12.6649 0
      vertex -9.56136 -11.5577 0
    endloop
  endfacet
endsolid OpenSCAD_Model
