solid OpenSCAD_Model
  facet normal 0.998027 0.0627851 5.0731e-19
    outer loop
      vertex 70.2 0 16
      vertex 69.6465 8.79839 0
      vertex 69.6465 8.79839 16
    endloop
  endfacet
  facet normal 0.998027 0.0627851 5.0731e-19
    outer loop
      vertex 69.6465 8.79839 0
      vertex 70.2 0 16
      vertex 70.2 0 0
    endloop
  endfacet
  facet normal -0.998027 0.0627851 -5.0731e-19
    outer loop
      vertex -70.2 0 0
      vertex -69.6465 8.79839 16
      vertex -69.6465 8.79839 0
    endloop
  endfacet
  facet normal -0.998027 0.0627851 -5.0731e-19
    outer loop
      vertex -69.6465 8.79839 16
      vertex -70.2 0 0
      vertex -70.2 0 16
    endloop
  endfacet
  facet normal 0 1 -0
    outer loop
      vertex 4.40789 70.0615 0
      vertex -4.40789 70.0615 16
      vertex 4.40789 70.0615 16
    endloop
  endfacet
  facet normal 0 1 0
    outer loop
      vertex -4.40789 70.0615 16
      vertex 4.40789 70.0615 0
      vertex -4.40789 70.0615 0
    endloop
  endfacet
  facet normal 0 -1 0
    outer loop
      vertex -4.40789 -70.0615 0
      vertex 4.40789 -70.0615 16
      vertex -4.40789 -70.0615 16
    endloop
  endfacet
  facet normal 0 -1 -0
    outer loop
      vertex 4.40789 -70.0615 16
      vertex -4.40789 -70.0615 0
      vertex 4.40789 -70.0615 0
    endloop
  endfacet
  facet normal 0.684548 0.728968 -0
    outer loop
      vertex 51.1736 48.0552 0
      vertex 44.7472 54.09 16
      vertex 51.1736 48.0552 16
    endloop
  endfacet
  facet normal 0.684548 0.728968 0
    outer loop
      vertex 44.7472 54.09 16
      vertex 51.1736 48.0552 0
      vertex 44.7472 54.09 0
    endloop
  endfacet
  facet normal -0.684548 0.728968 0
    outer loop
      vertex -44.7472 54.09 0
      vertex -51.1736 48.0552 16
      vertex -44.7472 54.09 16
    endloop
  endfacet
  facet normal -0.684548 0.728968 0
    outer loop
      vertex -51.1736 48.0552 16
      vertex -44.7472 54.09 0
      vertex -51.1736 48.0552 0
    endloop
  endfacet
  facet normal -0.368124 0.929777 0
    outer loop
      vertex -21.693 66.7642 0
      vertex -29.8897 63.5189 16
      vertex -21.693 66.7642 16
    endloop
  endfacet
  facet normal -0.368124 0.929777 0
    outer loop
      vertex -29.8897 63.5189 16
      vertex -21.693 66.7642 0
      vertex -29.8897 63.5189 0
    endloop
  endfacet
  facet normal 0.904827 0.42578 2.13991e-18
    outer loop
      vertex 65.2703 25.8423 16
      vertex 61.5167 33.8191 0
      vertex 61.5167 33.8191 16
    endloop
  endfacet
  facet normal 0.904827 0.42578 2.13991e-18
    outer loop
      vertex 61.5167 33.8191 0
      vertex 65.2703 25.8423 16
      vertex 65.2703 25.8423 0
    endloop
  endfacet
  facet normal 0.982285 0.187391 -1.04537e-19
    outer loop
      vertex 69.6465 8.79839 16
      vertex 67.9945 17.458 0
      vertex 67.9945 17.458 16
    endloop
  endfacet
  facet normal 0.982285 0.187391 -1.04537e-19
    outer loop
      vertex 67.9945 17.458 0
      vertex 69.6465 8.79839 16
      vertex 69.6465 8.79839 0
    endloop
  endfacet
  facet normal 0.844329 0.535825 1.01831e-17
    outer loop
      vertex 61.5167 33.8191 16
      vertex 56.793 41.2625 0
      vertex 56.793 41.2625 16
    endloop
  endfacet
  facet normal 0.844329 0.535825 1.01831e-17
    outer loop
      vertex 56.793 41.2625 0
      vertex 61.5167 33.8191 16
      vertex 61.5167 33.8191 0
    endloop
  endfacet
  facet normal 0.368124 0.929777 -0
    outer loop
      vertex 29.8897 63.5189 0
      vertex 21.693 66.7642 16
      vertex 29.8897 63.5189 16
    endloop
  endfacet
  facet normal 0.368124 0.929777 0
    outer loop
      vertex 21.693 66.7642 16
      vertex 29.8897 63.5189 0
      vertex 21.693 66.7642 0
    endloop
  endfacet
  facet normal 0.248691 0.968583 -0
    outer loop
      vertex 21.693 66.7642 0
      vertex 13.1542 68.9566 16
      vertex 21.693 66.7642 16
    endloop
  endfacet
  facet normal 0.248691 0.968583 0
    outer loop
      vertex 13.1542 68.9566 16
      vertex 21.693 66.7642 0
      vertex 13.1542 68.9566 0
    endloop
  endfacet
  facet normal 0.587782 0.80902 -0
    outer loop
      vertex 44.7472 54.09 0
      vertex 37.615 59.2718 16
      vertex 44.7472 54.09 16
    endloop
  endfacet
  facet normal 0.587782 0.80902 0
    outer loop
      vertex 37.615 59.2718 16
      vertex 44.7472 54.09 0
      vertex 37.615 59.2718 0
    endloop
  endfacet
  facet normal -0.844329 0.535825 -1.01831e-17
    outer loop
      vertex -61.5167 33.8191 0
      vertex -56.793 41.2625 16
      vertex -56.793 41.2625 0
    endloop
  endfacet
  facet normal -0.844329 0.535825 -1.01831e-17
    outer loop
      vertex -56.793 41.2625 16
      vertex -61.5167 33.8191 0
      vertex -61.5167 33.8191 16
    endloop
  endfacet
  facet normal -0.770514 0.637423 -2.36621e-17
    outer loop
      vertex -56.793 41.2625 0
      vertex -51.1736 48.0552 16
      vertex -51.1736 48.0552 0
    endloop
  endfacet
  facet normal -0.770514 0.637423 -2.36621e-17
    outer loop
      vertex -51.1736 48.0552 16
      vertex -56.793 41.2625 0
      vertex -56.793 41.2625 16
    endloop
  endfacet
  facet normal 0 0 1
    outer loop
      vertex 55 0 16
      vertex 70.2 0 16
      vertex 69.6465 8.79839 16
    endloop
  endfacet
  facet normal 0 0 1
    outer loop
      vertex 54.5663 6.89333 16
      vertex 69.6465 8.79839 16
      vertex 67.9945 17.458 16
    endloop
  endfacet
  facet normal 0 0 1
    outer loop
      vertex 70.2 0 16
      vertex 55 0 16
      vertex 69.6465 -8.79839 16
    endloop
  endfacet
  facet normal 0 0 1
    outer loop
      vertex 53.2721 13.6779 16
      vertex 67.9945 17.458 16
      vertex 65.2703 25.8423 16
    endloop
  endfacet
  facet normal -0 0 1
    outer loop
      vertex 54.5663 -6.89333 16
      vertex 69.6465 -8.79839 16
      vertex 55 0 16
    endloop
  endfacet
  facet normal 0 0 1
    outer loop
      vertex 51.1377 20.2468 16
      vertex 65.2703 25.8423 16
      vertex 61.5167 33.8191 16
    endloop
  endfacet
  facet normal 0 0 1
    outer loop
      vertex 69.6465 -8.79839 16
      vertex 54.5663 -6.89333 16
      vertex 67.9945 -17.458 16
    endloop
  endfacet
  facet normal 0 0 1
    outer loop
      vertex 48.1969 26.4965 16
      vertex 61.5167 33.8191 16
      vertex 56.793 41.2625 16
    endloop
  endfacet
  facet normal -0 0 1
    outer loop
      vertex 53.2721 -13.6779 16
      vertex 67.9945 -17.458 16
      vertex 54.5663 -6.89333 16
    endloop
  endfacet
  facet normal 0 0 1
    outer loop
      vertex 67.9945 -17.458 16
      vertex 53.2721 -13.6779 16
      vertex 65.2703 -25.8423 16
    endloop
  endfacet
  facet normal 0 0 1
    outer loop
      vertex 69.6465 8.79839 16
      vertex 54.5663 6.89333 16
      vertex 55 0 16
    endloop
  endfacet
  facet normal 0 0 1
    outer loop
      vertex 67.9945 17.458 16
      vertex 53.2721 13.6779 16
      vertex 54.5663 6.89333 16
    endloop
  endfacet
  facet normal 0 0 1
    outer loop
      vertex 44.4959 32.3282 16
      vertex 56.793 41.2625 16
      vertex 51.1736 48.0552 16
    endloop
  endfacet
  facet normal 0 0 1
    outer loop
      vertex 65.2703 25.8423 16
      vertex 51.1377 20.2468 16
      vertex 53.2721 13.6779 16
    endloop
  endfacet
  facet normal 0 0 1
    outer loop
      vertex 61.5167 33.8191 16
      vertex 48.1969 26.4965 16
      vertex 51.1377 20.2468 16
    endloop
  endfacet
  facet normal 0 0 1
    outer loop
      vertex 40.0933 37.6501 16
      vertex 51.1736 48.0552 16
      vertex 44.7472 54.09 16
    endloop
  endfacet
  facet normal 0 0 1
    outer loop
      vertex 56.793 41.2625 16
      vertex 44.4959 32.3282 16
      vertex 48.1969 26.4965 16
    endloop
  endfacet
  facet normal 0 0 1
    outer loop
      vertex 51.1736 48.0552 16
      vertex 40.0933 37.6501 16
      vertex 44.4959 32.3282 16
    endloop
  endfacet
  facet normal 0 0 1
    outer loop
      vertex 35.0583 42.3782 16
      vertex 44.7472 54.09 16
      vertex 37.615 59.2718 16
    endloop
  endfacet
  facet normal 0 0 1
    outer loop
      vertex 44.7472 54.09 16
      vertex 35.0583 42.3782 16
      vertex 40.0933 37.6501 16
    endloop
  endfacet
  facet normal 0 0 1
    outer loop
      vertex 29.4705 46.438 16
      vertex 37.615 59.2718 16
      vertex 29.8897 63.5189 16
    endloop
  endfacet
  facet normal 0 0 1
    outer loop
      vertex 37.615 59.2718 16
      vertex 29.4705 46.438 16
      vertex 35.0583 42.3782 16
    endloop
  endfacet
  facet normal 0 0 1
    outer loop
      vertex 29.8897 63.5189 16
      vertex 23.4179 49.7655 16
      vertex 29.4705 46.438 16
    endloop
  endfacet
  facet normal 0 0 1
    outer loop
      vertex 21.693 66.7642 16
      vertex 23.4179 49.7655 16
      vertex 29.8897 63.5189 16
    endloop
  endfacet
  facet normal 0 0 1
    outer loop
      vertex 21.693 66.7642 16
      vertex 16.9959 52.3081 16
      vertex 23.4179 49.7655 16
    endloop
  endfacet
  facet normal 0 0 1
    outer loop
      vertex 13.1542 68.9566 16
      vertex 16.9959 52.3081 16
      vertex 21.693 66.7642 16
    endloop
  endfacet
  facet normal 0 0 1
    outer loop
      vertex 13.1542 68.9566 16
      vertex 10.306 54.0258 16
      vertex 16.9959 52.3081 16
    endloop
  endfacet
  facet normal 0 0 1
    outer loop
      vertex 4.40789 70.0615 16
      vertex 10.306 54.0258 16
      vertex 13.1542 68.9566 16
    endloop
  endfacet
  facet normal 0 0 1
    outer loop
      vertex 4.40789 70.0615 16
      vertex 3.45348 54.8915 16
      vertex 10.306 54.0258 16
    endloop
  endfacet
  facet normal 0 0 1
    outer loop
      vertex 4.40789 70.0615 16
      vertex -3.45348 54.8915 16
      vertex 3.45348 54.8915 16
    endloop
  endfacet
  facet normal -0 0 1
    outer loop
      vertex -4.40789 70.0615 16
      vertex -3.45348 54.8915 16
      vertex 4.40789 70.0615 16
    endloop
  endfacet
  facet normal 0 0 1
    outer loop
      vertex -4.40789 70.0615 16
      vertex -10.306 54.0258 16
      vertex -3.45348 54.8915 16
    endloop
  endfacet
  facet normal -0 0 1
    outer loop
      vertex -13.1542 68.9566 16
      vertex -10.306 54.0258 16
      vertex -4.40789 70.0615 16
    endloop
  endfacet
  facet normal 0 0 1
    outer loop
      vertex -13.1542 68.9566 16
      vertex -16.9959 52.3081 16
      vertex -10.306 54.0258 16
    endloop
  endfacet
  facet normal -0 0 1
    outer loop
      vertex -21.693 66.7642 16
      vertex -16.9959 52.3081 16
      vertex -13.1542 68.9566 16
    endloop
  endfacet
  facet normal 0 0 1
    outer loop
      vertex -21.693 66.7642 16
      vertex -23.4179 49.7655 16
      vertex -16.9959 52.3081 16
    endloop
  endfacet
  facet normal -0 0 1
    outer loop
      vertex -29.8897 63.5189 16
      vertex -23.4179 49.7655 16
      vertex -21.693 66.7642 16
    endloop
  endfacet
  facet normal 0 0 1
    outer loop
      vertex -23.4179 49.7655 16
      vertex -29.8897 63.5189 16
      vertex -29.4705 46.438 16
    endloop
  endfacet
  facet normal -0 0 1
    outer loop
      vertex -37.615 59.2718 16
      vertex -29.4705 46.438 16
      vertex -29.8897 63.5189 16
    endloop
  endfacet
  facet normal 0 0 1
    outer loop
      vertex -29.4705 46.438 16
      vertex -37.615 59.2718 16
      vertex -35.0583 42.3782 16
    endloop
  endfacet
  facet normal -0 0 1
    outer loop
      vertex -44.7472 54.09 16
      vertex -35.0583 42.3782 16
      vertex -37.615 59.2718 16
    endloop
  endfacet
  facet normal 0 0 1
    outer loop
      vertex -35.0583 42.3782 16
      vertex -44.7472 54.09 16
      vertex -40.0933 37.6501 16
    endloop
  endfacet
  facet normal -0 0 1
    outer loop
      vertex -51.1736 48.0552 16
      vertex -40.0933 37.6501 16
      vertex -44.7472 54.09 16
    endloop
  endfacet
  facet normal 0 0 1
    outer loop
      vertex -40.0933 37.6501 16
      vertex -51.1736 48.0552 16
      vertex -44.4959 32.3282 16
    endloop
  endfacet
  facet normal -0 0 1
    outer loop
      vertex -56.793 41.2625 16
      vertex -44.4959 32.3282 16
      vertex -51.1736 48.0552 16
    endloop
  endfacet
  facet normal 0 0 1
    outer loop
      vertex -44.4959 32.3282 16
      vertex -56.793 41.2625 16
      vertex -48.1969 26.4965 16
    endloop
  endfacet
  facet normal -0 0 1
    outer loop
      vertex -61.5167 33.8191 16
      vertex -48.1969 26.4965 16
      vertex -56.793 41.2625 16
    endloop
  endfacet
  facet normal 0 0 1
    outer loop
      vertex -48.1969 26.4965 16
      vertex -61.5167 33.8191 16
      vertex -51.1377 20.2468 16
    endloop
  endfacet
  facet normal 0 0 1
    outer loop
      vertex -51.1377 20.2468 16
      vertex -65.2703 25.8423 16
      vertex -53.2721 13.6779 16
    endloop
  endfacet
  facet normal -0 0 1
    outer loop
      vertex -65.2703 25.8423 16
      vertex -51.1377 20.2468 16
      vertex -61.5167 33.8191 16
    endloop
  endfacet
  facet normal -0 0 1
    outer loop
      vertex 51.1377 -20.2468 16
      vertex 65.2703 -25.8423 16
      vertex 53.2721 -13.6779 16
    endloop
  endfacet
  facet normal 0 0 1
    outer loop
      vertex 65.2703 -25.8423 16
      vertex 51.1377 -20.2468 16
      vertex 61.5167 -33.8191 16
    endloop
  endfacet
  facet normal -0 0 1
    outer loop
      vertex 48.1969 -26.4965 16
      vertex 61.5167 -33.8191 16
      vertex 51.1377 -20.2468 16
    endloop
  endfacet
  facet normal 0 0 1
    outer loop
      vertex 61.5167 -33.8191 16
      vertex 48.1969 -26.4965 16
      vertex 56.793 -41.2625 16
    endloop
  endfacet
  facet normal -0 0 1
    outer loop
      vertex 44.4959 -32.3282 16
      vertex 56.793 -41.2625 16
      vertex 48.1969 -26.4965 16
    endloop
  endfacet
  facet normal 0 0 1
    outer loop
      vertex 56.793 -41.2625 16
      vertex 44.4959 -32.3282 16
      vertex 51.1736 -48.0552 16
    endloop
  endfacet
  facet normal -0 0 1
    outer loop
      vertex 40.0933 -37.6501 16
      vertex 51.1736 -48.0552 16
      vertex 44.4959 -32.3282 16
    endloop
  endfacet
  facet normal 0 0 1
    outer loop
      vertex 51.1736 -48.0552 16
      vertex 40.0933 -37.6501 16
      vertex 44.7472 -54.09 16
    endloop
  endfacet
  facet normal -0 0 1
    outer loop
      vertex 35.0583 -42.3782 16
      vertex 44.7472 -54.09 16
      vertex 40.0933 -37.6501 16
    endloop
  endfacet
  facet normal 0 0 1
    outer loop
      vertex 44.7472 -54.09 16
      vertex 35.0583 -42.3782 16
      vertex 37.615 -59.2718 16
    endloop
  endfacet
  facet normal -0 0 1
    outer loop
      vertex 29.4705 -46.438 16
      vertex 37.615 -59.2718 16
      vertex 35.0583 -42.3782 16
    endloop
  endfacet
  facet normal 0 0 1
    outer loop
      vertex 37.615 -59.2718 16
      vertex 29.4705 -46.438 16
      vertex 29.8897 -63.5189 16
    endloop
  endfacet
  facet normal -0 0 1
    outer loop
      vertex 23.4179 -49.7655 16
      vertex 29.8897 -63.5189 16
      vertex 29.4705 -46.438 16
    endloop
  endfacet
  facet normal 0 0 1
    outer loop
      vertex 23.4179 -49.7655 16
      vertex 21.693 -66.7642 16
      vertex 29.8897 -63.5189 16
    endloop
  endfacet
  facet normal -0 0 1
    outer loop
      vertex 16.9959 -52.3081 16
      vertex 21.693 -66.7642 16
      vertex 23.4179 -49.7655 16
    endloop
  endfacet
  facet normal 0 0 1
    outer loop
      vertex 16.9959 -52.3081 16
      vertex 13.1542 -68.9566 16
      vertex 21.693 -66.7642 16
    endloop
  endfacet
  facet normal -0 0 1
    outer loop
      vertex 10.306 -54.0258 16
      vertex 13.1542 -68.9566 16
      vertex 16.9959 -52.3081 16
    endloop
  endfacet
  facet normal 0 0 1
    outer loop
      vertex 10.306 -54.0258 16
      vertex 4.40789 -70.0615 16
      vertex 13.1542 -68.9566 16
    endloop
  endfacet
  facet normal -0 0 1
    outer loop
      vertex 3.45348 -54.8915 16
      vertex 4.40789 -70.0615 16
      vertex 10.306 -54.0258 16
    endloop
  endfacet
  facet normal -0 0 1
    outer loop
      vertex -3.45348 -54.8915 16
      vertex 4.40789 -70.0615 16
      vertex 3.45348 -54.8915 16
    endloop
  endfacet
  facet normal 0 0 1
    outer loop
      vertex -3.45348 -54.8915 16
      vertex -4.40789 -70.0615 16
      vertex 4.40789 -70.0615 16
    endloop
  endfacet
  facet normal 0 0 1
    outer loop
      vertex -10.306 -54.0258 16
      vertex -4.40789 -70.0615 16
      vertex -3.45348 -54.8915 16
    endloop
  endfacet
  facet normal 0 0 1
    outer loop
      vertex -10.306 -54.0258 16
      vertex -13.1542 -68.9566 16
      vertex -4.40789 -70.0615 16
    endloop
  endfacet
  facet normal 0 0 1
    outer loop
      vertex -16.9959 -52.3081 16
      vertex -13.1542 -68.9566 16
      vertex -10.306 -54.0258 16
    endloop
  endfacet
  facet normal 0 0 1
    outer loop
      vertex -16.9959 -52.3081 16
      vertex -21.693 -66.7642 16
      vertex -13.1542 -68.9566 16
    endloop
  endfacet
  facet normal 0 0 1
    outer loop
      vertex -23.4179 -49.7655 16
      vertex -21.693 -66.7642 16
      vertex -16.9959 -52.3081 16
    endloop
  endfacet
  facet normal 0 0 1
    outer loop
      vertex -29.8897 -63.5189 16
      vertex -23.4179 -49.7655 16
      vertex -29.4705 -46.438 16
    endloop
  endfacet
  facet normal 0 0 1
    outer loop
      vertex -23.4179 -49.7655 16
      vertex -29.8897 -63.5189 16
      vertex -21.693 -66.7642 16
    endloop
  endfacet
  facet normal 0 0 1
    outer loop
      vertex -37.615 -59.2718 16
      vertex -29.4705 -46.438 16
      vertex -35.0583 -42.3782 16
    endloop
  endfacet
  facet normal 0 0 1
    outer loop
      vertex -29.4705 -46.438 16
      vertex -37.615 -59.2718 16
      vertex -29.8897 -63.5189 16
    endloop
  endfacet
  facet normal 0 0 1
    outer loop
      vertex -44.7472 -54.09 16
      vertex -35.0583 -42.3782 16
      vertex -40.0933 -37.6501 16
    endloop
  endfacet
  facet normal 0 0 1
    outer loop
      vertex -51.1736 -48.0552 16
      vertex -40.0933 -37.6501 16
      vertex -44.4959 -32.3282 16
    endloop
  endfacet
  facet normal 0 0 1
    outer loop
      vertex -35.0583 -42.3782 16
      vertex -44.7472 -54.09 16
      vertex -37.615 -59.2718 16
    endloop
  endfacet
  facet normal 0 0 1
    outer loop
      vertex -56.793 -41.2625 16
      vertex -44.4959 -32.3282 16
      vertex -48.1969 -26.4965 16
    endloop
  endfacet
  facet normal 0 0 1
    outer loop
      vertex -61.5167 -33.8191 16
      vertex -48.1969 -26.4965 16
      vertex -51.1377 -20.2468 16
    endloop
  endfacet
  facet normal 0 0 1
    outer loop
      vertex -40.0933 -37.6501 16
      vertex -51.1736 -48.0552 16
      vertex -44.7472 -54.09 16
    endloop
  endfacet
  facet normal 0 0 1
    outer loop
      vertex -65.2703 -25.8423 16
      vertex -51.1377 -20.2468 16
      vertex -53.2721 -13.6779 16
    endloop
  endfacet
  facet normal 0 0 1
    outer loop
      vertex -67.9945 -17.458 16
      vertex -53.2721 -13.6779 16
      vertex -54.5663 -6.89333 16
    endloop
  endfacet
  facet normal 0 0 1
    outer loop
      vertex -44.4959 -32.3282 16
      vertex -56.793 -41.2625 16
      vertex -51.1736 -48.0552 16
    endloop
  endfacet
  facet normal 0 0 1
    outer loop
      vertex -69.6465 -8.79839 16
      vertex -54.5663 -6.89333 16
      vertex -55 0 16
    endloop
  endfacet
  facet normal -0 0 1
    outer loop
      vertex -67.9945 17.458 16
      vertex -53.2721 13.6779 16
      vertex -65.2703 25.8423 16
    endloop
  endfacet
  facet normal 0 0 1
    outer loop
      vertex -53.2721 13.6779 16
      vertex -67.9945 17.458 16
      vertex -54.5663 6.89333 16
    endloop
  endfacet
  facet normal 0 0 1
    outer loop
      vertex -48.1969 -26.4965 16
      vertex -61.5167 -33.8191 16
      vertex -56.793 -41.2625 16
    endloop
  endfacet
  facet normal -0 0 1
    outer loop
      vertex -69.6465 8.79839 16
      vertex -54.5663 6.89333 16
      vertex -67.9945 17.458 16
    endloop
  endfacet
  facet normal 0 0 1
    outer loop
      vertex -51.1377 -20.2468 16
      vertex -65.2703 -25.8423 16
      vertex -61.5167 -33.8191 16
    endloop
  endfacet
  facet normal 0 0 1
    outer loop
      vertex -54.5663 6.89333 16
      vertex -69.6465 8.79839 16
      vertex -55 0 16
    endloop
  endfacet
  facet normal 0 0 1
    outer loop
      vertex -53.2721 -13.6779 16
      vertex -67.9945 -17.458 16
      vertex -65.2703 -25.8423 16
    endloop
  endfacet
  facet normal 0 0 1
    outer loop
      vertex -70.2 0 16
      vertex -55 0 16
      vertex -69.6465 8.79839 16
    endloop
  endfacet
  facet normal 0 0 1
    outer loop
      vertex -54.5663 -6.89333 16
      vertex -69.6465 -8.79839 16
      vertex -67.9945 -17.458 16
    endloop
  endfacet
  facet normal 0 0 1
    outer loop
      vertex -55 0 16
      vertex -70.2 0 16
      vertex -69.6465 -8.79839 16
    endloop
  endfacet
  facet normal -0.481761 0.876303 0
    outer loop
      vertex -29.8897 63.5189 0
      vertex -37.615 59.2718 16
      vertex -29.8897 63.5189 16
    endloop
  endfacet
  facet normal -0.481761 0.876303 0
    outer loop
      vertex -37.615 59.2718 16
      vertex -29.8897 63.5189 0
      vertex -37.615 59.2718 0
    endloop
  endfacet
  facet normal -0.125331 0.992115 0
    outer loop
      vertex -4.40789 70.0615 0
      vertex -13.1542 68.9566 16
      vertex -4.40789 70.0615 16
    endloop
  endfacet
  facet normal -0.125331 0.992115 0
    outer loop
      vertex -13.1542 68.9566 16
      vertex -4.40789 70.0615 0
      vertex -13.1542 68.9566 0
    endloop
  endfacet
  facet normal 0 0 -1
    outer loop
      vertex 55 0 0
      vertex 70.2 0 0
      vertex 69.6465 -8.79839 0
    endloop
  endfacet
  facet normal 0 0 -1
    outer loop
      vertex 54.5663 -6.89333 0
      vertex 69.6465 -8.79839 0
      vertex 67.9945 -17.458 0
    endloop
  endfacet
  facet normal 0 0 -1
    outer loop
      vertex 70.2 0 0
      vertex 55 0 0
      vertex 69.6465 8.79839 0
    endloop
  endfacet
  facet normal 0 0 -1
    outer loop
      vertex 53.2721 -13.6779 0
      vertex 67.9945 -17.458 0
      vertex 65.2703 -25.8423 0
    endloop
  endfacet
  facet normal 0 0 -1
    outer loop
      vertex 54.5663 6.89333 0
      vertex 69.6465 8.79839 0
      vertex 55 0 0
    endloop
  endfacet
  facet normal 0 0 -1
    outer loop
      vertex 51.1377 -20.2468 0
      vertex 65.2703 -25.8423 0
      vertex 61.5167 -33.8191 0
    endloop
  endfacet
  facet normal -0 0 -1
    outer loop
      vertex 69.6465 8.79839 0
      vertex 54.5663 6.89333 0
      vertex 67.9945 17.458 0
    endloop
  endfacet
  facet normal 0 0 -1
    outer loop
      vertex 48.1969 -26.4965 0
      vertex 61.5167 -33.8191 0
      vertex 56.793 -41.2625 0
    endloop
  endfacet
  facet normal 0 0 -1
    outer loop
      vertex 53.2721 13.6779 0
      vertex 67.9945 17.458 0
      vertex 54.5663 6.89333 0
    endloop
  endfacet
  facet normal -0 0 -1
    outer loop
      vertex 67.9945 17.458 0
      vertex 53.2721 13.6779 0
      vertex 65.2703 25.8423 0
    endloop
  endfacet
  facet normal 0 0 -1
    outer loop
      vertex 69.6465 -8.79839 0
      vertex 54.5663 -6.89333 0
      vertex 55 0 0
    endloop
  endfacet
  facet normal 0 0 -1
    outer loop
      vertex 67.9945 -17.458 0
      vertex 53.2721 -13.6779 0
      vertex 54.5663 -6.89333 0
    endloop
  endfacet
  facet normal 0 0 -1
    outer loop
      vertex 44.4959 -32.3282 0
      vertex 56.793 -41.2625 0
      vertex 51.1736 -48.0552 0
    endloop
  endfacet
  facet normal 0 0 -1
    outer loop
      vertex 65.2703 -25.8423 0
      vertex 51.1377 -20.2468 0
      vertex 53.2721 -13.6779 0
    endloop
  endfacet
  facet normal 0 0 -1
    outer loop
      vertex 61.5167 -33.8191 0
      vertex 48.1969 -26.4965 0
      vertex 51.1377 -20.2468 0
    endloop
  endfacet
  facet normal 0 0 -1
    outer loop
      vertex 40.0933 -37.6501 0
      vertex 51.1736 -48.0552 0
      vertex 44.7472 -54.09 0
    endloop
  endfacet
  facet normal 0 0 -1
    outer loop
      vertex 56.793 -41.2625 0
      vertex 44.4959 -32.3282 0
      vertex 48.1969 -26.4965 0
    endloop
  endfacet
  facet normal 0 0 -1
    outer loop
      vertex 51.1736 -48.0552 0
      vertex 40.0933 -37.6501 0
      vertex 44.4959 -32.3282 0
    endloop
  endfacet
  facet normal 0 0 -1
    outer loop
      vertex 35.0583 -42.3782 0
      vertex 44.7472 -54.09 0
      vertex 37.615 -59.2718 0
    endloop
  endfacet
  facet normal 0 0 -1
    outer loop
      vertex 44.7472 -54.09 0
      vertex 35.0583 -42.3782 0
      vertex 40.0933 -37.6501 0
    endloop
  endfacet
  facet normal 0 0 -1
    outer loop
      vertex 29.4705 -46.438 0
      vertex 37.615 -59.2718 0
      vertex 29.8897 -63.5189 0
    endloop
  endfacet
  facet normal 0 0 -1
    outer loop
      vertex 37.615 -59.2718 0
      vertex 29.4705 -46.438 0
      vertex 35.0583 -42.3782 0
    endloop
  endfacet
  facet normal 0 0 -1
    outer loop
      vertex 29.8897 -63.5189 0
      vertex 23.4179 -49.7655 0
      vertex 29.4705 -46.438 0
    endloop
  endfacet
  facet normal 0 0 -1
    outer loop
      vertex 21.693 -66.7642 0
      vertex 23.4179 -49.7655 0
      vertex 29.8897 -63.5189 0
    endloop
  endfacet
  facet normal 0 0 -1
    outer loop
      vertex 21.693 -66.7642 0
      vertex 16.9959 -52.3081 0
      vertex 23.4179 -49.7655 0
    endloop
  endfacet
  facet normal 0 0 -1
    outer loop
      vertex 13.1542 -68.9566 0
      vertex 16.9959 -52.3081 0
      vertex 21.693 -66.7642 0
    endloop
  endfacet
  facet normal 0 0 -1
    outer loop
      vertex 13.1542 -68.9566 0
      vertex 10.306 -54.0258 0
      vertex 16.9959 -52.3081 0
    endloop
  endfacet
  facet normal 0 0 -1
    outer loop
      vertex 4.40789 -70.0615 0
      vertex 10.306 -54.0258 0
      vertex 13.1542 -68.9566 0
    endloop
  endfacet
  facet normal 0 0 -1
    outer loop
      vertex 4.40789 -70.0615 0
      vertex 3.45348 -54.8915 0
      vertex 10.306 -54.0258 0
    endloop
  endfacet
  facet normal 0 0 -1
    outer loop
      vertex 4.40789 -70.0615 0
      vertex -3.45348 -54.8915 0
      vertex 3.45348 -54.8915 0
    endloop
  endfacet
  facet normal 0 0 -1
    outer loop
      vertex -4.40789 -70.0615 0
      vertex -3.45348 -54.8915 0
      vertex 4.40789 -70.0615 0
    endloop
  endfacet
  facet normal 0 0 -1
    outer loop
      vertex -4.40789 -70.0615 0
      vertex -10.306 -54.0258 0
      vertex -3.45348 -54.8915 0
    endloop
  endfacet
  facet normal 0 0 -1
    outer loop
      vertex -13.1542 -68.9566 0
      vertex -10.306 -54.0258 0
      vertex -4.40789 -70.0615 0
    endloop
  endfacet
  facet normal 0 0 -1
    outer loop
      vertex -13.1542 -68.9566 0
      vertex -16.9959 -52.3081 0
      vertex -10.306 -54.0258 0
    endloop
  endfacet
  facet normal 0 0 -1
    outer loop
      vertex -21.693 -66.7642 0
      vertex -16.9959 -52.3081 0
      vertex -13.1542 -68.9566 0
    endloop
  endfacet
  facet normal 0 0 -1
    outer loop
      vertex -21.693 -66.7642 0
      vertex -23.4179 -49.7655 0
      vertex -16.9959 -52.3081 0
    endloop
  endfacet
  facet normal 0 0 -1
    outer loop
      vertex -29.8897 -63.5189 0
      vertex -23.4179 -49.7655 0
      vertex -21.693 -66.7642 0
    endloop
  endfacet
  facet normal -0 0 -1
    outer loop
      vertex -23.4179 -49.7655 0
      vertex -29.8897 -63.5189 0
      vertex -29.4705 -46.438 0
    endloop
  endfacet
  facet normal 0 0 -1
    outer loop
      vertex -37.615 -59.2718 0
      vertex -29.4705 -46.438 0
      vertex -29.8897 -63.5189 0
    endloop
  endfacet
  facet normal -0 0 -1
    outer loop
      vertex -29.4705 -46.438 0
      vertex -37.615 -59.2718 0
      vertex -35.0583 -42.3782 0
    endloop
  endfacet
  facet normal 0 0 -1
    outer loop
      vertex -44.7472 -54.09 0
      vertex -35.0583 -42.3782 0
      vertex -37.615 -59.2718 0
    endloop
  endfacet
  facet normal -0 0 -1
    outer loop
      vertex -35.0583 -42.3782 0
      vertex -44.7472 -54.09 0
      vertex -40.0933 -37.6501 0
    endloop
  endfacet
  facet normal 0 0 -1
    outer loop
      vertex -51.1736 -48.0552 0
      vertex -40.0933 -37.6501 0
      vertex -44.7472 -54.09 0
    endloop
  endfacet
  facet normal -0 0 -1
    outer loop
      vertex -40.0933 -37.6501 0
      vertex -51.1736 -48.0552 0
      vertex -44.4959 -32.3282 0
    endloop
  endfacet
  facet normal 0 0 -1
    outer loop
      vertex -56.793 -41.2625 0
      vertex -44.4959 -32.3282 0
      vertex -51.1736 -48.0552 0
    endloop
  endfacet
  facet normal -0 0 -1
    outer loop
      vertex -44.4959 -32.3282 0
      vertex -56.793 -41.2625 0
      vertex -48.1969 -26.4965 0
    endloop
  endfacet
  facet normal 0 0 -1
    outer loop
      vertex -61.5167 -33.8191 0
      vertex -48.1969 -26.4965 0
      vertex -56.793 -41.2625 0
    endloop
  endfacet
  facet normal -0 0 -1
    outer loop
      vertex -48.1969 -26.4965 0
      vertex -61.5167 -33.8191 0
      vertex -51.1377 -20.2468 0
    endloop
  endfacet
  facet normal -0 0 -1
    outer loop
      vertex -51.1377 -20.2468 0
      vertex -65.2703 -25.8423 0
      vertex -53.2721 -13.6779 0
    endloop
  endfacet
  facet normal 0 0 -1
    outer loop
      vertex -65.2703 -25.8423 0
      vertex -51.1377 -20.2468 0
      vertex -61.5167 -33.8191 0
    endloop
  endfacet
  facet normal 0 0 -1
    outer loop
      vertex 51.1377 20.2468 0
      vertex 65.2703 25.8423 0
      vertex 53.2721 13.6779 0
    endloop
  endfacet
  facet normal -0 0 -1
    outer loop
      vertex 65.2703 25.8423 0
      vertex 51.1377 20.2468 0
      vertex 61.5167 33.8191 0
    endloop
  endfacet
  facet normal 0 0 -1
    outer loop
      vertex 48.1969 26.4965 0
      vertex 61.5167 33.8191 0
      vertex 51.1377 20.2468 0
    endloop
  endfacet
  facet normal -0 0 -1
    outer loop
      vertex 61.5167 33.8191 0
      vertex 48.1969 26.4965 0
      vertex 56.793 41.2625 0
    endloop
  endfacet
  facet normal 0 0 -1
    outer loop
      vertex 44.4959 32.3282 0
      vertex 56.793 41.2625 0
      vertex 48.1969 26.4965 0
    endloop
  endfacet
  facet normal -0 0 -1
    outer loop
      vertex 56.793 41.2625 0
      vertex 44.4959 32.3282 0
      vertex 51.1736 48.0552 0
    endloop
  endfacet
  facet normal 0 0 -1
    outer loop
      vertex 40.0933 37.6501 0
      vertex 51.1736 48.0552 0
      vertex 44.4959 32.3282 0
    endloop
  endfacet
  facet normal -0 0 -1
    outer loop
      vertex 51.1736 48.0552 0
      vertex 40.0933 37.6501 0
      vertex 44.7472 54.09 0
    endloop
  endfacet
  facet normal 0 0 -1
    outer loop
      vertex 35.0583 42.3782 0
      vertex 44.7472 54.09 0
      vertex 40.0933 37.6501 0
    endloop
  endfacet
  facet normal -0 0 -1
    outer loop
      vertex 44.7472 54.09 0
      vertex 35.0583 42.3782 0
      vertex 37.615 59.2718 0
    endloop
  endfacet
  facet normal 0 0 -1
    outer loop
      vertex 29.4705 46.438 0
      vertex 37.615 59.2718 0
      vertex 35.0583 42.3782 0
    endloop
  endfacet
  facet normal -0 0 -1
    outer loop
      vertex 37.615 59.2718 0
      vertex 29.4705 46.438 0
      vertex 29.8897 63.5189 0
    endloop
  endfacet
  facet normal 0 0 -1
    outer loop
      vertex 23.4179 49.7655 0
      vertex 29.8897 63.5189 0
      vertex 29.4705 46.438 0
    endloop
  endfacet
  facet normal 0 0 -1
    outer loop
      vertex 23.4179 49.7655 0
      vertex 21.693 66.7642 0
      vertex 29.8897 63.5189 0
    endloop
  endfacet
  facet normal 0 0 -1
    outer loop
      vertex 16.9959 52.3081 0
      vertex 21.693 66.7642 0
      vertex 23.4179 49.7655 0
    endloop
  endfacet
  facet normal 0 0 -1
    outer loop
      vertex 16.9959 52.3081 0
      vertex 13.1542 68.9566 0
      vertex 21.693 66.7642 0
    endloop
  endfacet
  facet normal 0 0 -1
    outer loop
      vertex 10.306 54.0258 0
      vertex 13.1542 68.9566 0
      vertex 16.9959 52.3081 0
    endloop
  endfacet
  facet normal 0 0 -1
    outer loop
      vertex 10.306 54.0258 0
      vertex 4.40789 70.0615 0
      vertex 13.1542 68.9566 0
    endloop
  endfacet
  facet normal 0 0 -1
    outer loop
      vertex 3.45348 54.8915 0
      vertex 4.40789 70.0615 0
      vertex 10.306 54.0258 0
    endloop
  endfacet
  facet normal 0 0 -1
    outer loop
      vertex -3.45348 54.8915 0
      vertex 4.40789 70.0615 0
      vertex 3.45348 54.8915 0
    endloop
  endfacet
  facet normal 0 0 -1
    outer loop
      vertex -3.45348 54.8915 0
      vertex -4.40789 70.0615 0
      vertex 4.40789 70.0615 0
    endloop
  endfacet
  facet normal 0 0 -1
    outer loop
      vertex -10.306 54.0258 0
      vertex -4.40789 70.0615 0
      vertex -3.45348 54.8915 0
    endloop
  endfacet
  facet normal 0 0 -1
    outer loop
      vertex -10.306 54.0258 0
      vertex -13.1542 68.9566 0
      vertex -4.40789 70.0615 0
    endloop
  endfacet
  facet normal 0 0 -1
    outer loop
      vertex -16.9959 52.3081 0
      vertex -13.1542 68.9566 0
      vertex -10.306 54.0258 0
    endloop
  endfacet
  facet normal 0 0 -1
    outer loop
      vertex -16.9959 52.3081 0
      vertex -21.693 66.7642 0
      vertex -13.1542 68.9566 0
    endloop
  endfacet
  facet normal 0 0 -1
    outer loop
      vertex -23.4179 49.7655 0
      vertex -21.693 66.7642 0
      vertex -16.9959 52.3081 0
    endloop
  endfacet
  facet normal 0 0 -1
    outer loop
      vertex -29.8897 63.5189 0
      vertex -23.4179 49.7655 0
      vertex -29.4705 46.438 0
    endloop
  endfacet
  facet normal 0 0 -1
    outer loop
      vertex -23.4179 49.7655 0
      vertex -29.8897 63.5189 0
      vertex -21.693 66.7642 0
    endloop
  endfacet
  facet normal 0 0 -1
    outer loop
      vertex -37.615 59.2718 0
      vertex -29.4705 46.438 0
      vertex -35.0583 42.3782 0
    endloop
  endfacet
  facet normal 0 0 -1
    outer loop
      vertex -29.4705 46.438 0
      vertex -37.615 59.2718 0
      vertex -29.8897 63.5189 0
    endloop
  endfacet
  facet normal 0 0 -1
    outer loop
      vertex -44.7472 54.09 0
      vertex -35.0583 42.3782 0
      vertex -40.0933 37.6501 0
    endloop
  endfacet
  facet normal 0 0 -1
    outer loop
      vertex -51.1736 48.0552 0
      vertex -40.0933 37.6501 0
      vertex -44.4959 32.3282 0
    endloop
  endfacet
  facet normal 0 0 -1
    outer loop
      vertex -35.0583 42.3782 0
      vertex -44.7472 54.09 0
      vertex -37.615 59.2718 0
    endloop
  endfacet
  facet normal 0 0 -1
    outer loop
      vertex -56.793 41.2625 0
      vertex -44.4959 32.3282 0
      vertex -48.1969 26.4965 0
    endloop
  endfacet
  facet normal 0 0 -1
    outer loop
      vertex -61.5167 33.8191 0
      vertex -48.1969 26.4965 0
      vertex -51.1377 20.2468 0
    endloop
  endfacet
  facet normal 0 0 -1
    outer loop
      vertex -40.0933 37.6501 0
      vertex -51.1736 48.0552 0
      vertex -44.7472 54.09 0
    endloop
  endfacet
  facet normal 0 0 -1
    outer loop
      vertex -65.2703 25.8423 0
      vertex -51.1377 20.2468 0
      vertex -53.2721 13.6779 0
    endloop
  endfacet
  facet normal 0 0 -1
    outer loop
      vertex -67.9945 17.458 0
      vertex -53.2721 13.6779 0
      vertex -54.5663 6.89333 0
    endloop
  endfacet
  facet normal 0 0 -1
    outer loop
      vertex -44.4959 32.3282 0
      vertex -56.793 41.2625 0
      vertex -51.1736 48.0552 0
    endloop
  endfacet
  facet normal 0 0 -1
    outer loop
      vertex -69.6465 8.79839 0
      vertex -54.5663 6.89333 0
      vertex -55 0 0
    endloop
  endfacet
  facet normal 0 0 -1
    outer loop
      vertex -67.9945 -17.458 0
      vertex -53.2721 -13.6779 0
      vertex -65.2703 -25.8423 0
    endloop
  endfacet
  facet normal -0 0 -1
    outer loop
      vertex -53.2721 -13.6779 0
      vertex -67.9945 -17.458 0
      vertex -54.5663 -6.89333 0
    endloop
  endfacet
  facet normal 0 0 -1
    outer loop
      vertex -48.1969 26.4965 0
      vertex -61.5167 33.8191 0
      vertex -56.793 41.2625 0
    endloop
  endfacet
  facet normal 0 0 -1
    outer loop
      vertex -69.6465 -8.79839 0
      vertex -54.5663 -6.89333 0
      vertex -67.9945 -17.458 0
    endloop
  endfacet
  facet normal 0 0 -1
    outer loop
      vertex -51.1377 20.2468 0
      vertex -65.2703 25.8423 0
      vertex -61.5167 33.8191 0
    endloop
  endfacet
  facet normal -0 0 -1
    outer loop
      vertex -54.5663 -6.89333 0
      vertex -69.6465 -8.79839 0
      vertex -55 0 0
    endloop
  endfacet
  facet normal 0 0 -1
    outer loop
      vertex -53.2721 13.6779 0
      vertex -67.9945 17.458 0
      vertex -65.2703 25.8423 0
    endloop
  endfacet
  facet normal 0 0 -1
    outer loop
      vertex -70.2 0 0
      vertex -55 0 0
      vertex -69.6465 -8.79839 0
    endloop
  endfacet
  facet normal 0 0 -1
    outer loop
      vertex -54.5663 6.89333 0
      vertex -69.6465 8.79839 0
      vertex -67.9945 17.458 0
    endloop
  endfacet
  facet normal 0 0 -1
    outer loop
      vertex -55 0 0
      vertex -70.2 0 0
      vertex -69.6465 8.79839 0
    endloop
  endfacet
  facet normal 0.125331 -0.992115 0
    outer loop
      vertex 4.40789 -70.0615 0
      vertex 13.1542 -68.9566 16
      vertex 4.40789 -70.0615 16
    endloop
  endfacet
  facet normal 0.125331 -0.992115 0
    outer loop
      vertex 13.1542 -68.9566 16
      vertex 4.40789 -70.0615 0
      vertex 13.1542 -68.9566 0
    endloop
  endfacet
  facet normal 0.951057 0.309015 -1.22861e-17
    outer loop
      vertex 67.9945 17.458 16
      vertex 65.2703 25.8423 0
      vertex 65.2703 25.8423 16
    endloop
  endfacet
  facet normal 0.951057 0.309015 -1.22861e-17
    outer loop
      vertex 65.2703 25.8423 0
      vertex 67.9945 17.458 16
      vertex 67.9945 17.458 0
    endloop
  endfacet
  facet normal 0.770514 0.637423 2.36621e-17
    outer loop
      vertex 56.793 41.2625 16
      vertex 51.1736 48.0552 0
      vertex 51.1736 48.0552 16
    endloop
  endfacet
  facet normal 0.770514 0.637423 2.36621e-17
    outer loop
      vertex 51.1736 48.0552 0
      vertex 56.793 41.2625 16
      vertex 56.793 41.2625 0
    endloop
  endfacet
  facet normal 0.125331 0.992115 -0
    outer loop
      vertex 13.1542 68.9566 0
      vertex 4.40789 70.0615 16
      vertex 13.1542 68.9566 16
    endloop
  endfacet
  facet normal 0.125331 0.992115 0
    outer loop
      vertex 4.40789 70.0615 16
      vertex 13.1542 68.9566 0
      vertex 4.40789 70.0615 0
    endloop
  endfacet
  facet normal -0.904827 0.42578 -2.13991e-18
    outer loop
      vertex -65.2703 25.8423 0
      vertex -61.5167 33.8191 16
      vertex -61.5167 33.8191 0
    endloop
  endfacet
  facet normal -0.904827 0.42578 -2.13991e-18
    outer loop
      vertex -61.5167 33.8191 16
      vertex -65.2703 25.8423 0
      vertex -65.2703 25.8423 16
    endloop
  endfacet
  facet normal -0.982285 0.187391 1.04537e-19
    outer loop
      vertex -69.6465 8.79839 0
      vertex -67.9945 17.458 16
      vertex -67.9945 17.458 0
    endloop
  endfacet
  facet normal -0.982285 0.187391 1.04537e-19
    outer loop
      vertex -67.9945 17.458 16
      vertex -69.6465 8.79839 0
      vertex -69.6465 8.79839 16
    endloop
  endfacet
  facet normal 0.998027 -0.0627851 -5.0731e-19
    outer loop
      vertex 69.6465 -8.79839 16
      vertex 70.2 0 0
      vertex 70.2 0 16
    endloop
  endfacet
  facet normal 0.998027 -0.0627851 -5.0731e-19
    outer loop
      vertex 70.2 0 0
      vertex 69.6465 -8.79839 16
      vertex 69.6465 -8.79839 0
    endloop
  endfacet
  facet normal 0.951057 -0.309015 1.22861e-17
    outer loop
      vertex 65.2703 -25.8423 16
      vertex 67.9945 -17.458 0
      vertex 67.9945 -17.458 16
    endloop
  endfacet
  facet normal 0.951057 -0.309015 1.22861e-17
    outer loop
      vertex 67.9945 -17.458 0
      vertex 65.2703 -25.8423 16
      vertex 65.2703 -25.8423 0
    endloop
  endfacet
  facet normal 0.982285 -0.187391 1.04537e-19
    outer loop
      vertex 67.9945 -17.458 16
      vertex 69.6465 -8.79839 0
      vertex 69.6465 -8.79839 16
    endloop
  endfacet
  facet normal 0.982285 -0.187391 1.04537e-19
    outer loop
      vertex 69.6465 -8.79839 0
      vertex 67.9945 -17.458 16
      vertex 67.9945 -17.458 0
    endloop
  endfacet
  facet normal -0.481761 -0.876303 0
    outer loop
      vertex -37.615 -59.2718 0
      vertex -29.8897 -63.5189 16
      vertex -37.615 -59.2718 16
    endloop
  endfacet
  facet normal -0.481761 -0.876303 -0
    outer loop
      vertex -29.8897 -63.5189 16
      vertex -37.615 -59.2718 0
      vertex -29.8897 -63.5189 0
    endloop
  endfacet
  facet normal 0.481761 -0.876303 0
    outer loop
      vertex 29.8897 -63.5189 0
      vertex 37.615 -59.2718 16
      vertex 29.8897 -63.5189 16
    endloop
  endfacet
  facet normal 0.481761 -0.876303 0
    outer loop
      vertex 37.615 -59.2718 16
      vertex 29.8897 -63.5189 0
      vertex 37.615 -59.2718 0
    endloop
  endfacet
  facet normal 0.481761 0.876303 -0
    outer loop
      vertex 37.615 59.2718 0
      vertex 29.8897 63.5189 16
      vertex 37.615 59.2718 16
    endloop
  endfacet
  facet normal 0.481761 0.876303 0
    outer loop
      vertex 29.8897 63.5189 16
      vertex 37.615 59.2718 0
      vertex 29.8897 63.5189 0
    endloop
  endfacet
  facet normal -0.951057 0.309015 1.22861e-17
    outer loop
      vertex -67.9945 17.458 0
      vertex -65.2703 25.8423 16
      vertex -65.2703 25.8423 0
    endloop
  endfacet
  facet normal -0.951057 0.309015 1.22861e-17
    outer loop
      vertex -65.2703 25.8423 16
      vertex -67.9945 17.458 0
      vertex -67.9945 17.458 16
    endloop
  endfacet
  facet normal -0.587782 0.80902 0
    outer loop
      vertex -37.615 59.2718 0
      vertex -44.7472 54.09 16
      vertex -37.615 59.2718 16
    endloop
  endfacet
  facet normal -0.587782 0.80902 0
    outer loop
      vertex -44.7472 54.09 16
      vertex -37.615 59.2718 0
      vertex -44.7472 54.09 0
    endloop
  endfacet
  facet normal -0.248691 0.968583 0
    outer loop
      vertex -13.1542 68.9566 0
      vertex -21.693 66.7642 16
      vertex -13.1542 68.9566 16
    endloop
  endfacet
  facet normal -0.248691 0.968583 0
    outer loop
      vertex -21.693 66.7642 16
      vertex -13.1542 68.9566 0
      vertex -21.693 66.7642 0
    endloop
  endfacet
  facet normal -0.587782 -0.80902 0
    outer loop
      vertex -44.7472 -54.09 0
      vertex -37.615 -59.2718 16
      vertex -44.7472 -54.09 16
    endloop
  endfacet
  facet normal -0.587782 -0.80902 -0
    outer loop
      vertex -37.615 -59.2718 16
      vertex -44.7472 -54.09 0
      vertex -37.615 -59.2718 0
    endloop
  endfacet
  facet normal -0.770514 -0.637423 2.36621e-17
    outer loop
      vertex -51.1736 -48.0552 0
      vertex -56.793 -41.2625 16
      vertex -56.793 -41.2625 0
    endloop
  endfacet
  facet normal -0.770514 -0.637423 2.36621e-17
    outer loop
      vertex -56.793 -41.2625 16
      vertex -51.1736 -48.0552 0
      vertex -51.1736 -48.0552 16
    endloop
  endfacet
  facet normal -0.904827 -0.42578 2.13991e-18
    outer loop
      vertex -61.5167 -33.8191 0
      vertex -65.2703 -25.8423 16
      vertex -65.2703 -25.8423 0
    endloop
  endfacet
  facet normal -0.904827 -0.42578 2.13991e-18
    outer loop
      vertex -65.2703 -25.8423 16
      vertex -61.5167 -33.8191 0
      vertex -61.5167 -33.8191 16
    endloop
  endfacet
  facet normal -0.998027 -0.0627851 5.0731e-19
    outer loop
      vertex -69.6465 -8.79839 0
      vertex -70.2 0 16
      vertex -70.2 0 0
    endloop
  endfacet
  facet normal -0.998027 -0.0627851 5.0731e-19
    outer loop
      vertex -70.2 0 16
      vertex -69.6465 -8.79839 0
      vertex -69.6465 -8.79839 16
    endloop
  endfacet
  facet normal -0.982285 -0.187391 -1.04537e-19
    outer loop
      vertex -67.9945 -17.458 0
      vertex -69.6465 -8.79839 16
      vertex -69.6465 -8.79839 0
    endloop
  endfacet
  facet normal -0.982285 -0.187391 -1.04537e-19
    outer loop
      vertex -69.6465 -8.79839 16
      vertex -67.9945 -17.458 0
      vertex -67.9945 -17.458 16
    endloop
  endfacet
  facet normal -0.951057 -0.309015 -1.22861e-17
    outer loop
      vertex -65.2703 -25.8423 0
      vertex -67.9945 -17.458 16
      vertex -67.9945 -17.458 0
    endloop
  endfacet
  facet normal -0.951057 -0.309015 -1.22861e-17
    outer loop
      vertex -67.9945 -17.458 16
      vertex -65.2703 -25.8423 0
      vertex -65.2703 -25.8423 16
    endloop
  endfacet
  facet normal 0.770514 -0.637423 -2.36621e-17
    outer loop
      vertex 51.1736 -48.0552 16
      vertex 56.793 -41.2625 0
      vertex 56.793 -41.2625 16
    endloop
  endfacet
  facet normal 0.770514 -0.637423 -2.36621e-17
    outer loop
      vertex 56.793 -41.2625 0
      vertex 51.1736 -48.0552 16
      vertex 51.1736 -48.0552 0
    endloop
  endfacet
  facet normal 0.587782 -0.80902 0
    outer loop
      vertex 37.615 -59.2718 0
      vertex 44.7472 -54.09 16
      vertex 37.615 -59.2718 16
    endloop
  endfacet
  facet normal 0.587782 -0.80902 0
    outer loop
      vertex 44.7472 -54.09 16
      vertex 37.615 -59.2718 0
      vertex 44.7472 -54.09 0
    endloop
  endfacet
  facet normal 0.904827 -0.42578 -2.13991e-18
    outer loop
      vertex 61.5167 -33.8191 16
      vertex 65.2703 -25.8423 0
      vertex 65.2703 -25.8423 16
    endloop
  endfacet
  facet normal 0.904827 -0.42578 -2.13991e-18
    outer loop
      vertex 65.2703 -25.8423 0
      vertex 61.5167 -33.8191 16
      vertex 61.5167 -33.8191 0
    endloop
  endfacet
  facet normal 0.844329 -0.535825 -1.01831e-17
    outer loop
      vertex 56.793 -41.2625 16
      vertex 61.5167 -33.8191 0
      vertex 61.5167 -33.8191 16
    endloop
  endfacet
  facet normal 0.844329 -0.535825 -1.01831e-17
    outer loop
      vertex 61.5167 -33.8191 0
      vertex 56.793 -41.2625 16
      vertex 56.793 -41.2625 0
    endloop
  endfacet
  facet normal -0.125331 -0.992115 0
    outer loop
      vertex -13.1542 -68.9566 0
      vertex -4.40789 -70.0615 16
      vertex -13.1542 -68.9566 16
    endloop
  endfacet
  facet normal -0.125331 -0.992115 -0
    outer loop
      vertex -4.40789 -70.0615 16
      vertex -13.1542 -68.9566 0
      vertex -4.40789 -70.0615 0
    endloop
  endfacet
  facet normal -0.684548 -0.728968 0
    outer loop
      vertex -51.1736 -48.0552 0
      vertex -44.7472 -54.09 16
      vertex -51.1736 -48.0552 16
    endloop
  endfacet
  facet normal -0.684548 -0.728968 -0
    outer loop
      vertex -44.7472 -54.09 16
      vertex -51.1736 -48.0552 0
      vertex -44.7472 -54.09 0
    endloop
  endfacet
  facet normal -0.844329 -0.535825 1.01831e-17
    outer loop
      vertex -56.793 -41.2625 0
      vertex -61.5167 -33.8191 16
      vertex -61.5167 -33.8191 0
    endloop
  endfacet
  facet normal -0.844329 -0.535825 1.01831e-17
    outer loop
      vertex -61.5167 -33.8191 16
      vertex -56.793 -41.2625 0
      vertex -56.793 -41.2625 16
    endloop
  endfacet
  facet normal 0.684548 -0.728968 0
    outer loop
      vertex 44.7472 -54.09 0
      vertex 51.1736 -48.0552 16
      vertex 44.7472 -54.09 16
    endloop
  endfacet
  facet normal 0.684548 -0.728968 0
    outer loop
      vertex 51.1736 -48.0552 16
      vertex 44.7472 -54.09 0
      vertex 51.1736 -48.0552 0
    endloop
  endfacet
  facet normal 0.248691 -0.968583 0
    outer loop
      vertex 13.1542 -68.9566 0
      vertex 21.693 -66.7642 16
      vertex 13.1542 -68.9566 16
    endloop
  endfacet
  facet normal 0.248691 -0.968583 0
    outer loop
      vertex 21.693 -66.7642 16
      vertex 13.1542 -68.9566 0
      vertex 21.693 -66.7642 0
    endloop
  endfacet
  facet normal 0.368124 -0.929777 0
    outer loop
      vertex 21.693 -66.7642 0
      vertex 29.8897 -63.5189 16
      vertex 21.693 -66.7642 16
    endloop
  endfacet
  facet normal 0.368124 -0.929777 0
    outer loop
      vertex 29.8897 -63.5189 16
      vertex 21.693 -66.7642 0
      vertex 29.8897 -63.5189 0
    endloop
  endfacet
  facet normal -0.248691 -0.968583 0
    outer loop
      vertex -21.693 -66.7642 0
      vertex -13.1542 -68.9566 16
      vertex -21.693 -66.7642 16
    endloop
  endfacet
  facet normal -0.248691 -0.968583 -0
    outer loop
      vertex -13.1542 -68.9566 16
      vertex -21.693 -66.7642 0
      vertex -13.1542 -68.9566 0
    endloop
  endfacet
  facet normal -0.368124 -0.929777 0
    outer loop
      vertex -29.8897 -63.5189 0
      vertex -21.693 -66.7642 16
      vertex -29.8897 -63.5189 16
    endloop
  endfacet
  facet normal -0.368124 -0.929777 -0
    outer loop
      vertex -21.693 -66.7642 16
      vertex -29.8897 -63.5189 0
      vertex -21.693 -66.7642 0
    endloop
  endfacet
  facet normal -0.844322 -0.535836 1.51949e-17
    outer loop
      vertex 48.1969 26.4965 0
      vertex 44.4959 32.3282 16
      vertex 44.4959 32.3282 0
    endloop
  endfacet
  facet normal -0.844322 -0.535836 1.51949e-17
    outer loop
      vertex 44.4959 32.3282 16
      vertex 48.1969 26.4965 0
      vertex 48.1969 26.4965 16
    endloop
  endfacet
  facet normal -0.368118 -0.929779 0
    outer loop
      vertex 16.9959 52.3081 0
      vertex 23.4179 49.7655 16
      vertex 16.9959 52.3081 16
    endloop
  endfacet
  facet normal -0.368118 -0.929779 -0
    outer loop
      vertex 23.4179 49.7655 16
      vertex 16.9959 52.3081 0
      vertex 23.4179 49.7655 0
    endloop
  endfacet
  facet normal 0.368118 -0.929779 0
    outer loop
      vertex -23.4179 49.7655 0
      vertex -16.9959 52.3081 16
      vertex -23.4179 49.7655 16
    endloop
  endfacet
  facet normal 0.368118 -0.929779 0
    outer loop
      vertex -16.9959 52.3081 16
      vertex -23.4179 49.7655 0
      vertex -16.9959 52.3081 0
    endloop
  endfacet
  facet normal 0.904832 -0.425769 4.20682e-18
    outer loop
      vertex -51.1377 20.2468 16
      vertex -48.1969 26.4965 0
      vertex -48.1969 26.4965 16
    endloop
  endfacet
  facet normal 0.904832 -0.425769 4.20682e-18
    outer loop
      vertex -48.1969 26.4965 0
      vertex -51.1377 20.2468 16
      vertex -51.1377 20.2468 0
    endloop
  endfacet
  facet normal -0.982288 0.187378 -1.42846e-18
    outer loop
      vertex 53.2721 -13.6779 0
      vertex 54.5663 -6.89333 16
      vertex 54.5663 -6.89333 0
    endloop
  endfacet
  facet normal -0.982288 0.187378 -1.42846e-18
    outer loop
      vertex 54.5663 -6.89333 16
      vertex 53.2721 -13.6779 0
      vertex 53.2721 -13.6779 16
    endloop
  endfacet
  facet normal 0 -1 0
    outer loop
      vertex -3.45348 54.8915 0
      vertex 3.45348 54.8915 16
      vertex -3.45348 54.8915 16
    endloop
  endfacet
  facet normal 0 -1 -0
    outer loop
      vertex 3.45348 54.8915 16
      vertex -3.45348 54.8915 0
      vertex 3.45348 54.8915 0
    endloop
  endfacet
  facet normal -0.48176 -0.876303 0
    outer loop
      vertex 23.4179 49.7655 0
      vertex 29.4705 46.438 16
      vertex 23.4179 49.7655 16
    endloop
  endfacet
  facet normal -0.48176 -0.876303 -0
    outer loop
      vertex 29.4705 46.438 16
      vertex 23.4179 49.7655 0
      vertex 29.4705 46.438 0
    endloop
  endfacet
  facet normal 0.982288 -0.187378 -1.42846e-18
    outer loop
      vertex -54.5663 6.89333 16
      vertex -53.2721 13.6779 0
      vertex -53.2721 13.6779 16
    endloop
  endfacet
  facet normal 0.982288 -0.187378 -1.42846e-18
    outer loop
      vertex -53.2721 13.6779 0
      vertex -54.5663 6.89333 16
      vertex -54.5663 6.89333 0
    endloop
  endfacet
  facet normal 0.770517 -0.637419 -5.85511e-18
    outer loop
      vertex -44.4959 32.3282 16
      vertex -40.0933 37.6501 0
      vertex -40.0933 37.6501 16
    endloop
  endfacet
  facet normal 0.770517 -0.637419 -5.85511e-18
    outer loop
      vertex -40.0933 37.6501 0
      vertex -44.4959 32.3282 16
      vertex -44.4959 32.3282 0
    endloop
  endfacet
  facet normal 0.248693 -0.968582 0
    outer loop
      vertex -16.9959 52.3081 0
      vertex -10.306 54.0258 16
      vertex -16.9959 52.3081 16
    endloop
  endfacet
  facet normal 0.248693 -0.968582 0
    outer loop
      vertex -10.306 54.0258 16
      vertex -16.9959 52.3081 0
      vertex -10.306 54.0258 0
    endloop
  endfacet
  facet normal 0.684541 -0.728974 0
    outer loop
      vertex -40.0933 37.6501 0
      vertex -35.0583 42.3782 16
      vertex -40.0933 37.6501 16
    endloop
  endfacet
  facet normal 0.684541 -0.728974 0
    outer loop
      vertex -35.0583 42.3782 16
      vertex -40.0933 37.6501 0
      vertex -35.0583 42.3782 0
    endloop
  endfacet
  facet normal -0.998027 -0.0627917 -1.94057e-18
    outer loop
      vertex 55 0 0
      vertex 54.5663 6.89333 16
      vertex 54.5663 6.89333 0
    endloop
  endfacet
  facet normal -0.998027 -0.0627917 -1.94057e-18
    outer loop
      vertex 54.5663 6.89333 16
      vertex 55 0 0
      vertex 55 0 16
    endloop
  endfacet
  facet normal -0.48176 0.876303 0
    outer loop
      vertex 29.4705 -46.438 0
      vertex 23.4179 -49.7655 16
      vertex 29.4705 -46.438 16
    endloop
  endfacet
  facet normal -0.48176 0.876303 0
    outer loop
      vertex 23.4179 -49.7655 16
      vertex 29.4705 -46.438 0
      vertex 23.4179 -49.7655 0
    endloop
  endfacet
  facet normal -0.684541 -0.728974 0
    outer loop
      vertex 35.0583 42.3782 0
      vertex 40.0933 37.6501 16
      vertex 35.0583 42.3782 16
    endloop
  endfacet
  facet normal -0.684541 -0.728974 -0
    outer loop
      vertex 40.0933 37.6501 16
      vertex 35.0583 42.3782 0
      vertex 40.0933 37.6501 0
    endloop
  endfacet
  facet normal -0.248693 -0.968582 0
    outer loop
      vertex 10.306 54.0258 0
      vertex 16.9959 52.3081 16
      vertex 10.306 54.0258 16
    endloop
  endfacet
  facet normal -0.248693 -0.968582 -0
    outer loop
      vertex 16.9959 52.3081 16
      vertex 10.306 54.0258 0
      vertex 16.9959 52.3081 0
    endloop
  endfacet
  facet normal -0.125337 -0.992114 0
    outer loop
      vertex 3.45348 54.8915 0
      vertex 10.306 54.0258 16
      vertex 3.45348 54.8915 16
    endloop
  endfacet
  facet normal -0.125337 -0.992114 -0
    outer loop
      vertex 10.306 54.0258 16
      vertex 3.45348 54.8915 0
      vertex 10.306 54.0258 0
    endloop
  endfacet
  facet normal -0.587788 -0.809015 0
    outer loop
      vertex 29.4705 46.438 0
      vertex 35.0583 42.3782 16
      vertex 29.4705 46.438 16
    endloop
  endfacet
  facet normal -0.587788 -0.809015 -0
    outer loop
      vertex 35.0583 42.3782 16
      vertex 29.4705 46.438 0
      vertex 35.0583 42.3782 0
    endloop
  endfacet
  facet normal 0.998027 -0.0627917 1.94057e-18
    outer loop
      vertex -55 0 16
      vertex -54.5663 6.89333 0
      vertex -54.5663 6.89333 16
    endloop
  endfacet
  facet normal 0.998027 -0.0627917 1.94057e-18
    outer loop
      vertex -54.5663 6.89333 0
      vertex -55 0 16
      vertex -55 0 0
    endloop
  endfacet
  facet normal 0.951055 -0.309022 7.29922e-19
    outer loop
      vertex -53.2721 13.6779 16
      vertex -51.1377 20.2468 0
      vertex -51.1377 20.2468 16
    endloop
  endfacet
  facet normal 0.951055 -0.309022 7.29922e-19
    outer loop
      vertex -51.1377 20.2468 0
      vertex -53.2721 13.6779 16
      vertex -53.2721 13.6779 0
    endloop
  endfacet
  facet normal 0.844322 -0.535836 -1.51949e-17
    outer loop
      vertex -48.1969 26.4965 16
      vertex -44.4959 32.3282 0
      vertex -44.4959 32.3282 16
    endloop
  endfacet
  facet normal 0.844322 -0.535836 -1.51949e-17
    outer loop
      vertex -44.4959 32.3282 0
      vertex -48.1969 26.4965 16
      vertex -48.1969 26.4965 0
    endloop
  endfacet
  facet normal 0.125337 -0.992114 0
    outer loop
      vertex -10.306 54.0258 0
      vertex -3.45348 54.8915 16
      vertex -10.306 54.0258 16
    endloop
  endfacet
  facet normal 0.125337 -0.992114 0
    outer loop
      vertex -3.45348 54.8915 16
      vertex -10.306 54.0258 0
      vertex -3.45348 54.8915 0
    endloop
  endfacet
  facet normal 0.587788 -0.809015 0
    outer loop
      vertex -35.0583 42.3782 0
      vertex -29.4705 46.438 16
      vertex -35.0583 42.3782 16
    endloop
  endfacet
  facet normal 0.587788 -0.809015 0
    outer loop
      vertex -29.4705 46.438 16
      vertex -35.0583 42.3782 0
      vertex -29.4705 46.438 0
    endloop
  endfacet
  facet normal 0.48176 -0.876303 0
    outer loop
      vertex -29.4705 46.438 0
      vertex -23.4179 49.7655 16
      vertex -29.4705 46.438 16
    endloop
  endfacet
  facet normal 0.48176 -0.876303 0
    outer loop
      vertex -23.4179 49.7655 16
      vertex -29.4705 46.438 0
      vertex -23.4179 49.7655 0
    endloop
  endfacet
  facet normal -0.770517 0.637419 -5.85511e-18
    outer loop
      vertex 40.0933 -37.6501 0
      vertex 44.4959 -32.3282 16
      vertex 44.4959 -32.3282 0
    endloop
  endfacet
  facet normal -0.770517 0.637419 -5.85511e-18
    outer loop
      vertex 44.4959 -32.3282 16
      vertex 40.0933 -37.6501 0
      vertex 40.0933 -37.6501 16
    endloop
  endfacet
  facet normal 0 1 -0
    outer loop
      vertex 3.45348 -54.8915 0
      vertex -3.45348 -54.8915 16
      vertex 3.45348 -54.8915 16
    endloop
  endfacet
  facet normal 0 1 0
    outer loop
      vertex -3.45348 -54.8915 16
      vertex 3.45348 -54.8915 0
      vertex -3.45348 -54.8915 0
    endloop
  endfacet
  facet normal -0.125337 0.992114 0
    outer loop
      vertex 10.306 -54.0258 0
      vertex 3.45348 -54.8915 16
      vertex 10.306 -54.0258 16
    endloop
  endfacet
  facet normal -0.125337 0.992114 0
    outer loop
      vertex 3.45348 -54.8915 16
      vertex 10.306 -54.0258 0
      vertex 3.45348 -54.8915 0
    endloop
  endfacet
  facet normal -0.904832 -0.425769 -4.20682e-18
    outer loop
      vertex 51.1377 20.2468 0
      vertex 48.1969 26.4965 16
      vertex 48.1969 26.4965 0
    endloop
  endfacet
  facet normal -0.904832 -0.425769 -4.20682e-18
    outer loop
      vertex 48.1969 26.4965 16
      vertex 51.1377 20.2468 0
      vertex 51.1377 20.2468 16
    endloop
  endfacet
  facet normal -0.951055 -0.309022 -7.29922e-19
    outer loop
      vertex 53.2721 13.6779 0
      vertex 51.1377 20.2468 16
      vertex 51.1377 20.2468 0
    endloop
  endfacet
  facet normal -0.951055 -0.309022 -7.29922e-19
    outer loop
      vertex 51.1377 20.2468 16
      vertex 53.2721 13.6779 0
      vertex 53.2721 13.6779 16
    endloop
  endfacet
  facet normal -0.982288 -0.187378 1.42846e-18
    outer loop
      vertex 54.5663 6.89333 0
      vertex 53.2721 13.6779 16
      vertex 53.2721 13.6779 0
    endloop
  endfacet
  facet normal -0.982288 -0.187378 1.42846e-18
    outer loop
      vertex 53.2721 13.6779 16
      vertex 54.5663 6.89333 0
      vertex 54.5663 6.89333 16
    endloop
  endfacet
  facet normal -0.770517 -0.637419 5.85511e-18
    outer loop
      vertex 44.4959 32.3282 0
      vertex 40.0933 37.6501 16
      vertex 40.0933 37.6501 0
    endloop
  endfacet
  facet normal -0.770517 -0.637419 5.85511e-18
    outer loop
      vertex 40.0933 37.6501 16
      vertex 44.4959 32.3282 0
      vertex 44.4959 32.3282 16
    endloop
  endfacet
  facet normal -0.998027 0.0627917 1.94057e-18
    outer loop
      vertex 54.5663 -6.89333 0
      vertex 55 0 16
      vertex 55 0 0
    endloop
  endfacet
  facet normal -0.998027 0.0627917 1.94057e-18
    outer loop
      vertex 55 0 16
      vertex 54.5663 -6.89333 0
      vertex 54.5663 -6.89333 16
    endloop
  endfacet
  facet normal -0.904832 0.425769 4.20682e-18
    outer loop
      vertex 48.1969 -26.4965 0
      vertex 51.1377 -20.2468 16
      vertex 51.1377 -20.2468 0
    endloop
  endfacet
  facet normal -0.904832 0.425769 4.20682e-18
    outer loop
      vertex 51.1377 -20.2468 16
      vertex 48.1969 -26.4965 0
      vertex 48.1969 -26.4965 16
    endloop
  endfacet
  facet normal -0.951055 0.309022 7.29922e-19
    outer loop
      vertex 51.1377 -20.2468 0
      vertex 53.2721 -13.6779 16
      vertex 53.2721 -13.6779 0
    endloop
  endfacet
  facet normal -0.951055 0.309022 7.29922e-19
    outer loop
      vertex 53.2721 -13.6779 16
      vertex 51.1377 -20.2468 0
      vertex 51.1377 -20.2468 16
    endloop
  endfacet
  facet normal -0.684541 0.728974 0
    outer loop
      vertex 40.0933 -37.6501 0
      vertex 35.0583 -42.3782 16
      vertex 40.0933 -37.6501 16
    endloop
  endfacet
  facet normal -0.684541 0.728974 0
    outer loop
      vertex 35.0583 -42.3782 16
      vertex 40.0933 -37.6501 0
      vertex 35.0583 -42.3782 0
    endloop
  endfacet
  facet normal 0.998027 0.0627917 -1.94057e-18
    outer loop
      vertex -54.5663 -6.89333 16
      vertex -55 0 0
      vertex -55 0 16
    endloop
  endfacet
  facet normal 0.998027 0.0627917 -1.94057e-18
    outer loop
      vertex -55 0 0
      vertex -54.5663 -6.89333 16
      vertex -54.5663 -6.89333 0
    endloop
  endfacet
  facet normal 0.844322 0.535836 1.51949e-17
    outer loop
      vertex -44.4959 -32.3282 16
      vertex -48.1969 -26.4965 0
      vertex -48.1969 -26.4965 16
    endloop
  endfacet
  facet normal 0.844322 0.535836 1.51949e-17
    outer loop
      vertex -48.1969 -26.4965 0
      vertex -44.4959 -32.3282 16
      vertex -44.4959 -32.3282 0
    endloop
  endfacet
  facet normal 0.904832 0.425769 -4.20682e-18
    outer loop
      vertex -48.1969 -26.4965 16
      vertex -51.1377 -20.2468 0
      vertex -51.1377 -20.2468 16
    endloop
  endfacet
  facet normal 0.904832 0.425769 -4.20682e-18
    outer loop
      vertex -51.1377 -20.2468 0
      vertex -48.1969 -26.4965 16
      vertex -48.1969 -26.4965 0
    endloop
  endfacet
  facet normal -0.368118 0.929779 0
    outer loop
      vertex 23.4179 -49.7655 0
      vertex 16.9959 -52.3081 16
      vertex 23.4179 -49.7655 16
    endloop
  endfacet
  facet normal -0.368118 0.929779 0
    outer loop
      vertex 16.9959 -52.3081 16
      vertex 23.4179 -49.7655 0
      vertex 16.9959 -52.3081 0
    endloop
  endfacet
  facet normal -0.248693 0.968582 0
    outer loop
      vertex 16.9959 -52.3081 0
      vertex 10.306 -54.0258 16
      vertex 16.9959 -52.3081 16
    endloop
  endfacet
  facet normal -0.248693 0.968582 0
    outer loop
      vertex 10.306 -54.0258 16
      vertex 16.9959 -52.3081 0
      vertex 10.306 -54.0258 0
    endloop
  endfacet
  facet normal -0.587788 0.809015 0
    outer loop
      vertex 35.0583 -42.3782 0
      vertex 29.4705 -46.438 16
      vertex 35.0583 -42.3782 16
    endloop
  endfacet
  facet normal -0.587788 0.809015 0
    outer loop
      vertex 29.4705 -46.438 16
      vertex 35.0583 -42.3782 0
      vertex 29.4705 -46.438 0
    endloop
  endfacet
  facet normal -0.844322 0.535836 -1.51949e-17
    outer loop
      vertex 44.4959 -32.3282 0
      vertex 48.1969 -26.4965 16
      vertex 48.1969 -26.4965 0
    endloop
  endfacet
  facet normal -0.844322 0.535836 -1.51949e-17
    outer loop
      vertex 48.1969 -26.4965 16
      vertex 44.4959 -32.3282 0
      vertex 44.4959 -32.3282 16
    endloop
  endfacet
  facet normal 0.368118 0.929779 -0
    outer loop
      vertex -16.9959 -52.3081 0
      vertex -23.4179 -49.7655 16
      vertex -16.9959 -52.3081 16
    endloop
  endfacet
  facet normal 0.368118 0.929779 0
    outer loop
      vertex -23.4179 -49.7655 16
      vertex -16.9959 -52.3081 0
      vertex -23.4179 -49.7655 0
    endloop
  endfacet
  facet normal 0.248693 0.968582 -0
    outer loop
      vertex -10.306 -54.0258 0
      vertex -16.9959 -52.3081 16
      vertex -10.306 -54.0258 16
    endloop
  endfacet
  facet normal 0.248693 0.968582 0
    outer loop
      vertex -16.9959 -52.3081 16
      vertex -10.306 -54.0258 0
      vertex -16.9959 -52.3081 0
    endloop
  endfacet
  facet normal 0.982288 0.187378 1.42846e-18
    outer loop
      vertex -53.2721 -13.6779 16
      vertex -54.5663 -6.89333 0
      vertex -54.5663 -6.89333 16
    endloop
  endfacet
  facet normal 0.982288 0.187378 1.42846e-18
    outer loop
      vertex -54.5663 -6.89333 0
      vertex -53.2721 -13.6779 16
      vertex -53.2721 -13.6779 0
    endloop
  endfacet
  facet normal 0.770517 0.637419 5.85511e-18
    outer loop
      vertex -40.0933 -37.6501 16
      vertex -44.4959 -32.3282 0
      vertex -44.4959 -32.3282 16
    endloop
  endfacet
  facet normal 0.770517 0.637419 5.85511e-18
    outer loop
      vertex -44.4959 -32.3282 0
      vertex -40.0933 -37.6501 16
      vertex -40.0933 -37.6501 0
    endloop
  endfacet
  facet normal 0.684541 0.728974 -0
    outer loop
      vertex -35.0583 -42.3782 0
      vertex -40.0933 -37.6501 16
      vertex -35.0583 -42.3782 16
    endloop
  endfacet
  facet normal 0.684541 0.728974 0
    outer loop
      vertex -40.0933 -37.6501 16
      vertex -35.0583 -42.3782 0
      vertex -40.0933 -37.6501 0
    endloop
  endfacet
  facet normal 0.125337 0.992114 -0
    outer loop
      vertex -3.45348 -54.8915 0
      vertex -10.306 -54.0258 16
      vertex -3.45348 -54.8915 16
    endloop
  endfacet
  facet normal 0.125337 0.992114 0
    outer loop
      vertex -10.306 -54.0258 16
      vertex -3.45348 -54.8915 0
      vertex -10.306 -54.0258 0
    endloop
  endfacet
  facet normal 0.951055 0.309022 -7.29922e-19
    outer loop
      vertex -51.1377 -20.2468 16
      vertex -53.2721 -13.6779 0
      vertex -53.2721 -13.6779 16
    endloop
  endfacet
  facet normal 0.951055 0.309022 -7.29922e-19
    outer loop
      vertex -53.2721 -13.6779 0
      vertex -51.1377 -20.2468 16
      vertex -51.1377 -20.2468 0
    endloop
  endfacet
  facet normal 0.48176 0.876303 -0
    outer loop
      vertex -23.4179 -49.7655 0
      vertex -29.4705 -46.438 16
      vertex -23.4179 -49.7655 16
    endloop
  endfacet
  facet normal 0.48176 0.876303 0
    outer loop
      vertex -29.4705 -46.438 16
      vertex -23.4179 -49.7655 0
      vertex -29.4705 -46.438 0
    endloop
  endfacet
  facet normal 0.587788 0.809015 -0
    outer loop
      vertex -29.4705 -46.438 0
      vertex -35.0583 -42.3782 16
      vertex -29.4705 -46.438 16
    endloop
  endfacet
  facet normal 0.587788 0.809015 0
    outer loop
      vertex -35.0583 -42.3782 16
      vertex -29.4705 -46.438 0
      vertex -35.0583 -42.3782 0
    endloop
  endfacet
endsolid OpenSCAD_Model
