solid OpenSCAD_Model
  facet normal 0 1 -0
    outer loop
      vertex 1.21169 2.09872 0
      vertex -1.21169 2.09872 1.6
      vertex 1.21169 2.09872 1.6
    endloop
  endfacet
  facet normal 0 1 0
    outer loop
      vertex -1.21169 2.09872 1.6
      vertex 1.21169 2.09872 0
      vertex -1.21169 2.09872 0
    endloop
  endfacet
  facet normal 0 0 1
    outer loop
      vertex 2.42339 0 1.6
      vertex 1.33935 0.169199 1.6
      vertex 1.35 0 1.6
    endloop
  endfacet
  facet normal 0 0 1
    outer loop
      vertex 2.42339 0 1.6
      vertex 1.30759 0.335731 1.6
      vertex 1.33935 0.169199 1.6
    endloop
  endfacet
  facet normal 0 0 1
    outer loop
      vertex 2.42339 0 1.6
      vertex 1.2552 0.496967 1.6
      vertex 1.30759 0.335731 1.6
    endloop
  endfacet
  facet normal -0 0 1
    outer loop
      vertex 1.18301 0.650367 1.6
      vertex 2.42339 0 1.6
      vertex 1.21169 2.09872 1.6
    endloop
  endfacet
  facet normal 0 0 1
    outer loop
      vertex 2.42339 0 1.6
      vertex 1.18301 0.650367 1.6
      vertex 1.2552 0.496967 1.6
    endloop
  endfacet
  facet normal 0 0 1
    outer loop
      vertex 1.21169 2.09872 1.6
      vertex 1.09217 0.793509 1.6
      vertex 1.18301 0.650367 1.6
    endloop
  endfacet
  facet normal 0 0 1
    outer loop
      vertex 1.21169 2.09872 1.6
      vertex 0.984107 0.924138 1.6
      vertex 1.09217 0.793509 1.6
    endloop
  endfacet
  facet normal 0 0 1
    outer loop
      vertex 1.21169 2.09872 1.6
      vertex 0.860522 1.04019 1.6
      vertex 0.984107 0.924138 1.6
    endloop
  endfacet
  facet normal 0 0 1
    outer loop
      vertex 1.21169 2.09872 1.6
      vertex 0.723366 1.13984 1.6
      vertex 0.860522 1.04019 1.6
    endloop
  endfacet
  facet normal 0 0 1
    outer loop
      vertex 1.21169 2.09872 1.6
      vertex 0.574801 1.22152 1.6
      vertex 0.723366 1.13984 1.6
    endloop
  endfacet
  facet normal 0 0 1
    outer loop
      vertex 1.21169 2.09872 1.6
      vertex 0.417172 1.28393 1.6
      vertex 0.574801 1.22152 1.6
    endloop
  endfacet
  facet normal 0 0 1
    outer loop
      vertex 1.21169 2.09872 1.6
      vertex 0.252964 1.32609 1.6
      vertex 0.417172 1.28393 1.6
    endloop
  endfacet
  facet normal 0 0 1
    outer loop
      vertex 1.21169 2.09872 1.6
      vertex 0.0847664 1.34734 1.6
      vertex 0.252964 1.32609 1.6
    endloop
  endfacet
  facet normal 0 0 1
    outer loop
      vertex 1.21169 2.09872 1.6
      vertex -0.0847664 1.34734 1.6
      vertex 0.0847664 1.34734 1.6
    endloop
  endfacet
  facet normal -0 0 1
    outer loop
      vertex -1.21169 2.09872 1.6
      vertex -0.0847664 1.34734 1.6
      vertex 1.21169 2.09872 1.6
    endloop
  endfacet
  facet normal 0 0 1
    outer loop
      vertex -0.0847664 1.34734 1.6
      vertex -1.21169 2.09872 1.6
      vertex -0.252964 1.32609 1.6
    endloop
  endfacet
  facet normal 0 0 1
    outer loop
      vertex -0.252964 1.32609 1.6
      vertex -1.21169 2.09872 1.6
      vertex -0.417172 1.28393 1.6
    endloop
  endfacet
  facet normal 0 0 1
    outer loop
      vertex -0.417172 1.28393 1.6
      vertex -1.21169 2.09872 1.6
      vertex -0.574801 1.22152 1.6
    endloop
  endfacet
  facet normal 0 0 1
    outer loop
      vertex -1.21169 2.09872 1.6
      vertex -0.723366 1.13984 1.6
      vertex -0.574801 1.22152 1.6
    endloop
  endfacet
  facet normal 0 0 1
    outer loop
      vertex -1.21169 2.09872 1.6
      vertex -0.860522 1.04019 1.6
      vertex -0.723366 1.13984 1.6
    endloop
  endfacet
  facet normal 0 0 1
    outer loop
      vertex -1.21169 2.09872 1.6
      vertex -0.984107 0.924138 1.6
      vertex -0.860522 1.04019 1.6
    endloop
  endfacet
  facet normal 0 0 1
    outer loop
      vertex -1.21169 2.09872 1.6
      vertex -1.09217 0.793509 1.6
      vertex -0.984107 0.924138 1.6
    endloop
  endfacet
  facet normal 0 0 1
    outer loop
      vertex -1.21169 2.09872 1.6
      vertex -1.18301 0.650367 1.6
      vertex -1.09217 0.793509 1.6
    endloop
  endfacet
  facet normal 0 0 1
    outer loop
      vertex -2.42339 0 1.6
      vertex -1.18301 0.650367 1.6
      vertex -1.21169 2.09872 1.6
    endloop
  endfacet
  facet normal 0 0 1
    outer loop
      vertex -1.18301 0.650367 1.6
      vertex -2.42339 0 1.6
      vertex -1.2552 0.496967 1.6
    endloop
  endfacet
  facet normal 0 0 1
    outer loop
      vertex -1.2552 0.496967 1.6
      vertex -2.42339 0 1.6
      vertex -1.30759 0.335731 1.6
    endloop
  endfacet
  facet normal 0 0 1
    outer loop
      vertex -1.33935 0.169199 1.6
      vertex -2.42339 0 1.6
      vertex -1.35 0 1.6
    endloop
  endfacet
  facet normal 0 0 1
    outer loop
      vertex -1.30759 0.335731 1.6
      vertex -2.42339 0 1.6
      vertex -1.33935 0.169199 1.6
    endloop
  endfacet
  facet normal 0 0 1
    outer loop
      vertex 1.33935 -0.169199 1.6
      vertex 2.42339 0 1.6
      vertex 1.35 0 1.6
    endloop
  endfacet
  facet normal 0 0 1
    outer loop
      vertex 1.30759 -0.335731 1.6
      vertex 2.42339 0 1.6
      vertex 1.33935 -0.169199 1.6
    endloop
  endfacet
  facet normal 0 0 1
    outer loop
      vertex 1.2552 -0.496967 1.6
      vertex 2.42339 0 1.6
      vertex 1.30759 -0.335731 1.6
    endloop
  endfacet
  facet normal 0 0 1
    outer loop
      vertex 1.18301 -0.650367 1.6
      vertex 2.42339 0 1.6
      vertex 1.2552 -0.496967 1.6
    endloop
  endfacet
  facet normal 0 0 1
    outer loop
      vertex 2.42339 0 1.6
      vertex 1.18301 -0.650367 1.6
      vertex 1.21169 -2.09872 1.6
    endloop
  endfacet
  facet normal -0 0 1
    outer loop
      vertex 1.09217 -0.793509 1.6
      vertex 1.21169 -2.09872 1.6
      vertex 1.18301 -0.650367 1.6
    endloop
  endfacet
  facet normal -0 0 1
    outer loop
      vertex 0.984107 -0.924138 1.6
      vertex 1.21169 -2.09872 1.6
      vertex 1.09217 -0.793509 1.6
    endloop
  endfacet
  facet normal -0 0 1
    outer loop
      vertex 0.860522 -1.04019 1.6
      vertex 1.21169 -2.09872 1.6
      vertex 0.984107 -0.924138 1.6
    endloop
  endfacet
  facet normal -0 0 1
    outer loop
      vertex 0.723366 -1.13984 1.6
      vertex 1.21169 -2.09872 1.6
      vertex 0.860522 -1.04019 1.6
    endloop
  endfacet
  facet normal -0 0 1
    outer loop
      vertex 0.574801 -1.22152 1.6
      vertex 1.21169 -2.09872 1.6
      vertex 0.723366 -1.13984 1.6
    endloop
  endfacet
  facet normal -0 0 1
    outer loop
      vertex 0.417172 -1.28393 1.6
      vertex 1.21169 -2.09872 1.6
      vertex 0.574801 -1.22152 1.6
    endloop
  endfacet
  facet normal -0 0 1
    outer loop
      vertex 0.252964 -1.32609 1.6
      vertex 1.21169 -2.09872 1.6
      vertex 0.417172 -1.28393 1.6
    endloop
  endfacet
  facet normal -0 0 1
    outer loop
      vertex 0.0847664 -1.34734 1.6
      vertex 1.21169 -2.09872 1.6
      vertex 0.252964 -1.32609 1.6
    endloop
  endfacet
  facet normal -0 0 1
    outer loop
      vertex -0.0847664 -1.34734 1.6
      vertex 1.21169 -2.09872 1.6
      vertex 0.0847664 -1.34734 1.6
    endloop
  endfacet
  facet normal 0 0 1
    outer loop
      vertex -1.21169 -2.09872 1.6
      vertex -0.0847664 -1.34734 1.6
      vertex -0.252964 -1.32609 1.6
    endloop
  endfacet
  facet normal 0 0 1
    outer loop
      vertex -1.21169 -2.09872 1.6
      vertex -0.252964 -1.32609 1.6
      vertex -0.417172 -1.28393 1.6
    endloop
  endfacet
  facet normal 0 0 1
    outer loop
      vertex -1.21169 -2.09872 1.6
      vertex -0.417172 -1.28393 1.6
      vertex -0.574801 -1.22152 1.6
    endloop
  endfacet
  facet normal 0 0 1
    outer loop
      vertex -0.0847664 -1.34734 1.6
      vertex -1.21169 -2.09872 1.6
      vertex 1.21169 -2.09872 1.6
    endloop
  endfacet
  facet normal 0 0 1
    outer loop
      vertex -0.723366 -1.13984 1.6
      vertex -1.21169 -2.09872 1.6
      vertex -0.574801 -1.22152 1.6
    endloop
  endfacet
  facet normal 0 0 1
    outer loop
      vertex -0.860522 -1.04019 1.6
      vertex -1.21169 -2.09872 1.6
      vertex -0.723366 -1.13984 1.6
    endloop
  endfacet
  facet normal 0 0 1
    outer loop
      vertex -0.984107 -0.924138 1.6
      vertex -1.21169 -2.09872 1.6
      vertex -0.860522 -1.04019 1.6
    endloop
  endfacet
  facet normal 0 0 1
    outer loop
      vertex -1.09217 -0.793509 1.6
      vertex -1.21169 -2.09872 1.6
      vertex -0.984107 -0.924138 1.6
    endloop
  endfacet
  facet normal 0 0 1
    outer loop
      vertex -1.18301 -0.650367 1.6
      vertex -1.21169 -2.09872 1.6
      vertex -1.09217 -0.793509 1.6
    endloop
  endfacet
  facet normal 0 0 1
    outer loop
      vertex -2.42339 0 1.6
      vertex -1.18301 -0.650367 1.6
      vertex -1.2552 -0.496967 1.6
    endloop
  endfacet
  facet normal 0 0 1
    outer loop
      vertex -2.42339 0 1.6
      vertex -1.2552 -0.496967 1.6
      vertex -1.30759 -0.335731 1.6
    endloop
  endfacet
  facet normal 0 0 1
    outer loop
      vertex -2.42339 0 1.6
      vertex -1.30759 -0.335731 1.6
      vertex -1.33935 -0.169199 1.6
    endloop
  endfacet
  facet normal 0 0 1
    outer loop
      vertex -1.18301 -0.650367 1.6
      vertex -2.42339 0 1.6
      vertex -1.21169 -2.09872 1.6
    endloop
  endfacet
  facet normal -0 0 1
    outer loop
      vertex -2.42339 0 1.6
      vertex -1.33935 -0.169199 1.6
      vertex -1.35 0 1.6
    endloop
  endfacet
  facet normal -0.866025 0.500001 4.65845e-17
    outer loop
      vertex -2.42339 0 0
      vertex -1.21169 2.09872 1.6
      vertex -1.21169 2.09872 0
    endloop
  endfacet
  facet normal -0.866025 0.500001 4.65845e-17
    outer loop
      vertex -1.21169 2.09872 1.6
      vertex -2.42339 0 0
      vertex -2.42339 0 1.6
    endloop
  endfacet
  facet normal 0 -1 0
    outer loop
      vertex -1.21169 -2.09872 0
      vertex 1.21169 -2.09872 1.6
      vertex -1.21169 -2.09872 1.6
    endloop
  endfacet
  facet normal 0 -1 -0
    outer loop
      vertex 1.21169 -2.09872 1.6
      vertex -1.21169 -2.09872 0
      vertex 1.21169 -2.09872 0
    endloop
  endfacet
  facet normal -0 0 -1
    outer loop
      vertex 2.42339 0 0
      vertex 1.33935 -0.169199 0
      vertex 1.35 0 0
    endloop
  endfacet
  facet normal 0 0 -1
    outer loop
      vertex 2.42339 0 0
      vertex 1.30759 -0.335731 0
      vertex 1.33935 -0.169199 0
    endloop
  endfacet
  facet normal 0 0 -1
    outer loop
      vertex 2.42339 0 0
      vertex 1.2552 -0.496967 0
      vertex 1.30759 -0.335731 0
    endloop
  endfacet
  facet normal 0 0 -1
    outer loop
      vertex 1.18301 -0.650367 0
      vertex 2.42339 0 0
      vertex 1.21169 -2.09872 0
    endloop
  endfacet
  facet normal 0 0 -1
    outer loop
      vertex 2.42339 0 0
      vertex 1.18301 -0.650367 0
      vertex 1.2552 -0.496967 0
    endloop
  endfacet
  facet normal 0 0 -1
    outer loop
      vertex 1.21169 -2.09872 0
      vertex 1.09217 -0.793509 0
      vertex 1.18301 -0.650367 0
    endloop
  endfacet
  facet normal 0 0 -1
    outer loop
      vertex 1.21169 -2.09872 0
      vertex 0.984107 -0.924138 0
      vertex 1.09217 -0.793509 0
    endloop
  endfacet
  facet normal 0 0 -1
    outer loop
      vertex 1.21169 -2.09872 0
      vertex 0.860522 -1.04019 0
      vertex 0.984107 -0.924138 0
    endloop
  endfacet
  facet normal 0 0 -1
    outer loop
      vertex 1.21169 -2.09872 0
      vertex 0.723366 -1.13984 0
      vertex 0.860522 -1.04019 0
    endloop
  endfacet
  facet normal 0 0 -1
    outer loop
      vertex 1.21169 -2.09872 0
      vertex 0.574801 -1.22152 0
      vertex 0.723366 -1.13984 0
    endloop
  endfacet
  facet normal 0 0 -1
    outer loop
      vertex 1.21169 -2.09872 0
      vertex 0.417172 -1.28393 0
      vertex 0.574801 -1.22152 0
    endloop
  endfacet
  facet normal 0 0 -1
    outer loop
      vertex 1.21169 -2.09872 0
      vertex 0.252964 -1.32609 0
      vertex 0.417172 -1.28393 0
    endloop
  endfacet
  facet normal 0 0 -1
    outer loop
      vertex 1.21169 -2.09872 0
      vertex 0.0847664 -1.34734 0
      vertex 0.252964 -1.32609 0
    endloop
  endfacet
  facet normal 0 0 -1
    outer loop
      vertex 1.21169 -2.09872 0
      vertex -0.0847664 -1.34734 0
      vertex 0.0847664 -1.34734 0
    endloop
  endfacet
  facet normal 0 0 -1
    outer loop
      vertex -1.21169 -2.09872 0
      vertex -0.0847664 -1.34734 0
      vertex 1.21169 -2.09872 0
    endloop
  endfacet
  facet normal -0 0 -1
    outer loop
      vertex -0.0847664 -1.34734 0
      vertex -1.21169 -2.09872 0
      vertex -0.252964 -1.32609 0
    endloop
  endfacet
  facet normal -0 0 -1
    outer loop
      vertex -0.252964 -1.32609 0
      vertex -1.21169 -2.09872 0
      vertex -0.417172 -1.28393 0
    endloop
  endfacet
  facet normal -0 0 -1
    outer loop
      vertex -0.417172 -1.28393 0
      vertex -1.21169 -2.09872 0
      vertex -0.574801 -1.22152 0
    endloop
  endfacet
  facet normal 0 0 -1
    outer loop
      vertex -1.21169 -2.09872 0
      vertex -0.723366 -1.13984 0
      vertex -0.574801 -1.22152 0
    endloop
  endfacet
  facet normal 0 0 -1
    outer loop
      vertex -1.21169 -2.09872 0
      vertex -0.860522 -1.04019 0
      vertex -0.723366 -1.13984 0
    endloop
  endfacet
  facet normal 0 0 -1
    outer loop
      vertex -1.21169 -2.09872 0
      vertex -0.984107 -0.924138 0
      vertex -0.860522 -1.04019 0
    endloop
  endfacet
  facet normal 0 0 -1
    outer loop
      vertex -1.21169 -2.09872 0
      vertex -1.09217 -0.793509 0
      vertex -0.984107 -0.924138 0
    endloop
  endfacet
  facet normal 0 0 -1
    outer loop
      vertex -1.21169 -2.09872 0
      vertex -1.18301 -0.650367 0
      vertex -1.09217 -0.793509 0
    endloop
  endfacet
  facet normal 0 0 -1
    outer loop
      vertex -2.42339 0 0
      vertex -1.18301 -0.650367 0
      vertex -1.21169 -2.09872 0
    endloop
  endfacet
  facet normal 0 0 -1
    outer loop
      vertex -1.18301 -0.650367 0
      vertex -2.42339 0 0
      vertex -1.2552 -0.496967 0
    endloop
  endfacet
  facet normal 0 0 -1
    outer loop
      vertex -1.2552 -0.496967 0
      vertex -2.42339 0 0
      vertex -1.30759 -0.335731 0
    endloop
  endfacet
  facet normal 0 0 -1
    outer loop
      vertex -1.33935 -0.169199 0
      vertex -2.42339 0 0
      vertex -1.35 0 0
    endloop
  endfacet
  facet normal 0 0 -1
    outer loop
      vertex -1.30759 -0.335731 0
      vertex -2.42339 0 0
      vertex -1.33935 -0.169199 0
    endloop
  endfacet
  facet normal 0 0 -1
    outer loop
      vertex 1.33935 0.169199 0
      vertex 2.42339 0 0
      vertex 1.35 0 0
    endloop
  endfacet
  facet normal 0 0 -1
    outer loop
      vertex 1.30759 0.335731 0
      vertex 2.42339 0 0
      vertex 1.33935 0.169199 0
    endloop
  endfacet
  facet normal 0 0 -1
    outer loop
      vertex 1.2552 0.496967 0
      vertex 2.42339 0 0
      vertex 1.30759 0.335731 0
    endloop
  endfacet
  facet normal 0 0 -1
    outer loop
      vertex 1.18301 0.650367 0
      vertex 2.42339 0 0
      vertex 1.2552 0.496967 0
    endloop
  endfacet
  facet normal 0 0 -1
    outer loop
      vertex 2.42339 0 0
      vertex 1.18301 0.650367 0
      vertex 1.21169 2.09872 0
    endloop
  endfacet
  facet normal 0 0 -1
    outer loop
      vertex 1.09217 0.793509 0
      vertex 1.21169 2.09872 0
      vertex 1.18301 0.650367 0
    endloop
  endfacet
  facet normal 0 0 -1
    outer loop
      vertex 0.984107 0.924138 0
      vertex 1.21169 2.09872 0
      vertex 1.09217 0.793509 0
    endloop
  endfacet
  facet normal 0 0 -1
    outer loop
      vertex 0.860522 1.04019 0
      vertex 1.21169 2.09872 0
      vertex 0.984107 0.924138 0
    endloop
  endfacet
  facet normal 0 0 -1
    outer loop
      vertex 0.723366 1.13984 0
      vertex 1.21169 2.09872 0
      vertex 0.860522 1.04019 0
    endloop
  endfacet
  facet normal 0 0 -1
    outer loop
      vertex 0.574801 1.22152 0
      vertex 1.21169 2.09872 0
      vertex 0.723366 1.13984 0
    endloop
  endfacet
  facet normal 0 0 -1
    outer loop
      vertex 0.417172 1.28393 0
      vertex 1.21169 2.09872 0
      vertex 0.574801 1.22152 0
    endloop
  endfacet
  facet normal 0 0 -1
    outer loop
      vertex 0.252964 1.32609 0
      vertex 1.21169 2.09872 0
      vertex 0.417172 1.28393 0
    endloop
  endfacet
  facet normal 0 0 -1
    outer loop
      vertex 0.0847664 1.34734 0
      vertex 1.21169 2.09872 0
      vertex 0.252964 1.32609 0
    endloop
  endfacet
  facet normal 0 0 -1
    outer loop
      vertex -0.0847664 1.34734 0
      vertex 1.21169 2.09872 0
      vertex 0.0847664 1.34734 0
    endloop
  endfacet
  facet normal 0 0 -1
    outer loop
      vertex -1.21169 2.09872 0
      vertex -0.0847664 1.34734 0
      vertex -0.252964 1.32609 0
    endloop
  endfacet
  facet normal 0 0 -1
    outer loop
      vertex -1.21169 2.09872 0
      vertex -0.252964 1.32609 0
      vertex -0.417172 1.28393 0
    endloop
  endfacet
  facet normal 0 0 -1
    outer loop
      vertex -1.21169 2.09872 0
      vertex -0.417172 1.28393 0
      vertex -0.574801 1.22152 0
    endloop
  endfacet
  facet normal 0 0 -1
    outer loop
      vertex -0.0847664 1.34734 0
      vertex -1.21169 2.09872 0
      vertex 1.21169 2.09872 0
    endloop
  endfacet
  facet normal 0 0 -1
    outer loop
      vertex -0.723366 1.13984 0
      vertex -1.21169 2.09872 0
      vertex -0.574801 1.22152 0
    endloop
  endfacet
  facet normal 0 0 -1
    outer loop
      vertex -0.860522 1.04019 0
      vertex -1.21169 2.09872 0
      vertex -0.723366 1.13984 0
    endloop
  endfacet
  facet normal 0 0 -1
    outer loop
      vertex -0.984107 0.924138 0
      vertex -1.21169 2.09872 0
      vertex -0.860522 1.04019 0
    endloop
  endfacet
  facet normal 0 0 -1
    outer loop
      vertex -1.09217 0.793509 0
      vertex -1.21169 2.09872 0
      vertex -0.984107 0.924138 0
    endloop
  endfacet
  facet normal 0 0 -1
    outer loop
      vertex -1.18301 0.650367 0
      vertex -1.21169 2.09872 0
      vertex -1.09217 0.793509 0
    endloop
  endfacet
  facet normal 0 0 -1
    outer loop
      vertex -2.42339 0 0
      vertex -1.18301 0.650367 0
      vertex -1.2552 0.496967 0
    endloop
  endfacet
  facet normal 0 0 -1
    outer loop
      vertex -2.42339 0 0
      vertex -1.2552 0.496967 0
      vertex -1.30759 0.335731 0
    endloop
  endfacet
  facet normal 0 0 -1
    outer loop
      vertex -2.42339 0 0
      vertex -1.30759 0.335731 0
      vertex -1.33935 0.169199 0
    endloop
  endfacet
  facet normal -0 0 -1
    outer loop
      vertex -1.18301 0.650367 0
      vertex -2.42339 0 0
      vertex -1.21169 2.09872 0
    endloop
  endfacet
  facet normal 0 0 -1
    outer loop
      vertex -2.42339 0 0
      vertex -1.33935 0.169199 0
      vertex -1.35 0 0
    endloop
  endfacet
  facet normal 0.866025 0.500001 -4.65845e-17
    outer loop
      vertex 2.42339 0 1.6
      vertex 1.21169 2.09872 0
      vertex 1.21169 2.09872 1.6
    endloop
  endfacet
  facet normal 0.866025 0.500001 -4.65845e-17
    outer loop
      vertex 1.21169 2.09872 0
      vertex 2.42339 0 1.6
      vertex 2.42339 0 0
    endloop
  endfacet
  facet normal -0.866025 -0.500001 -4.65845e-17
    outer loop
      vertex -1.21169 -2.09872 0
      vertex -2.42339 0 1.6
      vertex -2.42339 0 0
    endloop
  endfacet
  facet normal -0.866025 -0.500001 -4.65845e-17
    outer loop
      vertex -2.42339 0 1.6
      vertex -1.21169 -2.09872 0
      vertex -1.21169 -2.09872 1.6
    endloop
  endfacet
  facet normal 0.866025 -0.500001 4.65845e-17
    outer loop
      vertex 1.21169 -2.09872 1.6
      vertex 2.42339 0 0
      vertex 2.42339 0 1.6
    endloop
  endfacet
  facet normal 0.866025 -0.500001 4.65845e-17
    outer loop
      vertex 2.42339 0 0
      vertex 1.21169 -2.09872 1.6
      vertex 1.21169 -2.09872 0
    endloop
  endfacet
  facet normal -0.998025 -0.0628193 2.63864e-19
    outer loop
      vertex 1.35 0 0
      vertex 1.33935 0.169199 1.6
      vertex 1.33935 0.169199 0
    endloop
  endfacet
  facet normal -0.998025 -0.0628193 2.63864e-19
    outer loop
      vertex 1.33935 0.169199 1.6
      vertex 1.35 0 0
      vertex 1.35 0 1.6
    endloop
  endfacet
  facet normal 0.998025 -0.0628193 -2.63864e-19
    outer loop
      vertex -1.35 0 1.6
      vertex -1.33935 0.169199 0
      vertex -1.33935 0.169199 1.6
    endloop
  endfacet
  facet normal 0.998025 -0.0628193 -2.63864e-19
    outer loop
      vertex -1.33935 0.169199 0
      vertex -1.35 0 1.6
      vertex -1.35 0 0
    endloop
  endfacet
  facet normal 0 -1 0
    outer loop
      vertex -0.0847664 1.34734 0
      vertex 0.0847664 1.34734 1.6
      vertex -0.0847664 1.34734 1.6
    endloop
  endfacet
  facet normal 0 -1 -0
    outer loop
      vertex 0.0847664 1.34734 1.6
      vertex -0.0847664 1.34734 0
      vertex 0.0847664 1.34734 0
    endloop
  endfacet
  facet normal 0 1 -0
    outer loop
      vertex 0.0847664 -1.34734 0
      vertex -0.0847664 -1.34734 1.6
      vertex 0.0847664 -1.34734 1.6
    endloop
  endfacet
  facet normal 0 1 0
    outer loop
      vertex -0.0847664 -1.34734 1.6
      vertex 0.0847664 -1.34734 0
      vertex -0.0847664 -1.34734 0
    endloop
  endfacet
  facet normal -0.684541 -0.728975 0
    outer loop
      vertex 0.860522 1.04019 0
      vertex 0.984107 0.924138 1.6
      vertex 0.860522 1.04019 1.6
    endloop
  endfacet
  facet normal -0.684541 -0.728975 -0
    outer loop
      vertex 0.984107 0.924138 1.6
      vertex 0.860522 1.04019 0
      vertex 0.984107 0.924138 0
    endloop
  endfacet
  facet normal 0.684541 -0.728975 0
    outer loop
      vertex -0.984107 0.924138 0
      vertex -0.860522 1.04019 1.6
      vertex -0.984107 0.924138 1.6
    endloop
  endfacet
  facet normal 0.684541 -0.728975 0
    outer loop
      vertex -0.860522 1.04019 1.6
      vertex -0.984107 0.924138 0
      vertex -0.860522 1.04019 0
    endloop
  endfacet
  facet normal 0.368126 -0.929776 0
    outer loop
      vertex -0.574801 1.22152 0
      vertex -0.417172 1.28393 1.6
      vertex -0.574801 1.22152 1.6
    endloop
  endfacet
  facet normal 0.368126 -0.929776 0
    outer loop
      vertex -0.417172 1.28393 1.6
      vertex -0.574801 1.22152 0
      vertex -0.417172 1.28393 0
    endloop
  endfacet
  facet normal -0.84433 0.535824 7.52562e-19
    outer loop
      vertex 1.09217 -0.793509 0
      vertex 1.18301 -0.650367 1.6
      vertex 1.18301 -0.650367 0
    endloop
  endfacet
  facet normal -0.84433 0.535824 7.52562e-19
    outer loop
      vertex 1.18301 -0.650367 1.6
      vertex 1.09217 -0.793509 0
      vertex 1.09217 -0.793509 1.6
    endloop
  endfacet
  facet normal -0.904815 -0.425806 2.44499e-18
    outer loop
      vertex 1.2552 0.496967 0
      vertex 1.18301 0.650367 1.6
      vertex 1.18301 0.650367 0
    endloop
  endfacet
  facet normal -0.904815 -0.425806 2.44499e-18
    outer loop
      vertex 1.18301 0.650367 1.6
      vertex 1.2552 0.496967 0
      vertex 1.2552 0.496967 1.6
    endloop
  endfacet
  facet normal -0.982296 -0.187338 -1.25375e-18
    outer loop
      vertex 1.33935 0.169199 0
      vertex 1.30759 0.335731 1.6
      vertex 1.30759 0.335731 0
    endloop
  endfacet
  facet normal -0.982296 -0.187338 -1.25375e-18
    outer loop
      vertex 1.30759 0.335731 1.6
      vertex 1.33935 0.169199 0
      vertex 1.33935 0.169199 1.6
    endloop
  endfacet
  facet normal -0.84433 -0.535824 -7.52562e-19
    outer loop
      vertex 1.18301 0.650367 0
      vertex 1.09217 0.793509 1.6
      vertex 1.09217 0.793509 0
    endloop
  endfacet
  facet normal -0.84433 -0.535824 -7.52562e-19
    outer loop
      vertex 1.09217 0.793509 1.6
      vertex 1.18301 0.650367 0
      vertex 1.18301 0.650367 1.6
    endloop
  endfacet
  facet normal -0.368126 -0.929776 0
    outer loop
      vertex 0.417172 1.28393 0
      vertex 0.574801 1.22152 1.6
      vertex 0.417172 1.28393 1.6
    endloop
  endfacet
  facet normal -0.368126 -0.929776 -0
    outer loop
      vertex 0.574801 1.22152 1.6
      vertex 0.417172 1.28393 0
      vertex 0.574801 1.22152 0
    endloop
  endfacet
  facet normal -0.587787 -0.809016 0
    outer loop
      vertex 0.723366 1.13984 0
      vertex 0.860522 1.04019 1.6
      vertex 0.723366 1.13984 1.6
    endloop
  endfacet
  facet normal -0.587787 -0.809016 -0
    outer loop
      vertex 0.860522 1.04019 1.6
      vertex 0.723366 1.13984 0
      vertex 0.860522 1.04019 0
    endloop
  endfacet
  facet normal 0.904815 -0.425806 -2.44499e-18
    outer loop
      vertex -1.2552 0.496967 1.6
      vertex -1.18301 0.650367 0
      vertex -1.18301 0.650367 1.6
    endloop
  endfacet
  facet normal 0.904815 -0.425806 -2.44499e-18
    outer loop
      vertex -1.18301 0.650367 0
      vertex -1.2552 0.496967 1.6
      vertex -1.2552 0.496967 0
    endloop
  endfacet
  facet normal 0.248682 -0.968585 0
    outer loop
      vertex -0.417172 1.28393 0
      vertex -0.252964 1.32609 1.6
      vertex -0.417172 1.28393 1.6
    endloop
  endfacet
  facet normal 0.248682 -0.968585 0
    outer loop
      vertex -0.252964 1.32609 1.6
      vertex -0.417172 1.28393 0
      vertex -0.252964 1.32609 0
    endloop
  endfacet
  facet normal -0.982296 0.187338 1.25375e-18
    outer loop
      vertex 1.30759 -0.335731 0
      vertex 1.33935 -0.169199 1.6
      vertex 1.33935 -0.169199 0
    endloop
  endfacet
  facet normal -0.982296 0.187338 1.25375e-18
    outer loop
      vertex 1.33935 -0.169199 1.6
      vertex 1.30759 -0.335731 0
      vertex 1.30759 -0.335731 1.6
    endloop
  endfacet
  facet normal -0.368126 0.929776 0
    outer loop
      vertex 0.574801 -1.22152 0
      vertex 0.417172 -1.28393 1.6
      vertex 0.574801 -1.22152 1.6
    endloop
  endfacet
  facet normal -0.368126 0.929776 0
    outer loop
      vertex 0.417172 -1.28393 1.6
      vertex 0.574801 -1.22152 0
      vertex 0.417172 -1.28393 0
    endloop
  endfacet
  facet normal -0.481779 0.876292 0
    outer loop
      vertex 0.723366 -1.13984 0
      vertex 0.574801 -1.22152 1.6
      vertex 0.723366 -1.13984 1.6
    endloop
  endfacet
  facet normal -0.481779 0.876292 0
    outer loop
      vertex 0.574801 -1.22152 1.6
      vertex 0.723366 -1.13984 0
      vertex 0.574801 -1.22152 0
    endloop
  endfacet
  facet normal -0.951054 -0.309024 -1.00549e-18
    outer loop
      vertex 1.30759 0.335731 0
      vertex 1.2552 0.496967 1.6
      vertex 1.2552 0.496967 0
    endloop
  endfacet
  facet normal -0.951054 -0.309024 -1.00549e-18
    outer loop
      vertex 1.2552 0.496967 1.6
      vertex 1.30759 0.335731 0
      vertex 1.30759 0.335731 1.6
    endloop
  endfacet
  facet normal -0.770521 -0.637415 4.84013e-19
    outer loop
      vertex 1.09217 0.793509 0
      vertex 0.984107 0.924138 1.6
      vertex 0.984107 0.924138 0
    endloop
  endfacet
  facet normal -0.770521 -0.637415 4.84013e-19
    outer loop
      vertex 0.984107 0.924138 1.6
      vertex 1.09217 0.793509 0
      vertex 1.09217 0.793509 1.6
    endloop
  endfacet
  facet normal -0.248682 -0.968585 0
    outer loop
      vertex 0.252964 1.32609 0
      vertex 0.417172 1.28393 1.6
      vertex 0.252964 1.32609 1.6
    endloop
  endfacet
  facet normal -0.248682 -0.968585 -0
    outer loop
      vertex 0.417172 1.28393 1.6
      vertex 0.252964 1.32609 0
      vertex 0.417172 1.28393 0
    endloop
  endfacet
  facet normal -0.125343 -0.992113 0
    outer loop
      vertex 0.0847664 1.34734 0
      vertex 0.252964 1.32609 1.6
      vertex 0.0847664 1.34734 1.6
    endloop
  endfacet
  facet normal -0.125343 -0.992113 -0
    outer loop
      vertex 0.252964 1.32609 1.6
      vertex 0.0847664 1.34734 0
      vertex 0.252964 1.32609 0
    endloop
  endfacet
  facet normal -0.481779 -0.876292 0
    outer loop
      vertex 0.574801 1.22152 0
      vertex 0.723366 1.13984 1.6
      vertex 0.574801 1.22152 1.6
    endloop
  endfacet
  facet normal -0.481779 -0.876292 -0
    outer loop
      vertex 0.723366 1.13984 1.6
      vertex 0.574801 1.22152 0
      vertex 0.723366 1.13984 0
    endloop
  endfacet
  facet normal 0.84433 -0.535824 7.52562e-19
    outer loop
      vertex -1.18301 0.650367 1.6
      vertex -1.09217 0.793509 0
      vertex -1.09217 0.793509 1.6
    endloop
  endfacet
  facet normal 0.84433 -0.535824 7.52562e-19
    outer loop
      vertex -1.09217 0.793509 0
      vertex -1.18301 0.650367 1.6
      vertex -1.18301 0.650367 0
    endloop
  endfacet
  facet normal 0.770521 -0.637415 -4.84013e-19
    outer loop
      vertex -1.09217 0.793509 1.6
      vertex -0.984107 0.924138 0
      vertex -0.984107 0.924138 1.6
    endloop
  endfacet
  facet normal 0.770521 -0.637415 -4.84013e-19
    outer loop
      vertex -0.984107 0.924138 0
      vertex -1.09217 0.793509 1.6
      vertex -1.09217 0.793509 0
    endloop
  endfacet
  facet normal 0.951054 -0.309024 1.00549e-18
    outer loop
      vertex -1.30759 0.335731 1.6
      vertex -1.2552 0.496967 0
      vertex -1.2552 0.496967 1.6
    endloop
  endfacet
  facet normal 0.951054 -0.309024 1.00549e-18
    outer loop
      vertex -1.2552 0.496967 0
      vertex -1.30759 0.335731 1.6
      vertex -1.30759 0.335731 0
    endloop
  endfacet
  facet normal 0.982296 -0.187338 1.25375e-18
    outer loop
      vertex -1.33935 0.169199 1.6
      vertex -1.30759 0.335731 0
      vertex -1.30759 0.335731 1.6
    endloop
  endfacet
  facet normal 0.982296 -0.187338 1.25375e-18
    outer loop
      vertex -1.30759 0.335731 0
      vertex -1.33935 0.169199 1.6
      vertex -1.33935 0.169199 0
    endloop
  endfacet
  facet normal 0.481779 -0.876292 0
    outer loop
      vertex -0.723366 1.13984 0
      vertex -0.574801 1.22152 1.6
      vertex -0.723366 1.13984 1.6
    endloop
  endfacet
  facet normal 0.481779 -0.876292 0
    outer loop
      vertex -0.574801 1.22152 1.6
      vertex -0.723366 1.13984 0
      vertex -0.574801 1.22152 0
    endloop
  endfacet
  facet normal 0.587787 -0.809016 0
    outer loop
      vertex -0.860522 1.04019 0
      vertex -0.723366 1.13984 1.6
      vertex -0.860522 1.04019 1.6
    endloop
  endfacet
  facet normal 0.587787 -0.809016 0
    outer loop
      vertex -0.723366 1.13984 1.6
      vertex -0.860522 1.04019 0
      vertex -0.723366 1.13984 0
    endloop
  endfacet
  facet normal 0.125343 -0.992113 0
    outer loop
      vertex -0.252964 1.32609 0
      vertex -0.0847664 1.34734 1.6
      vertex -0.252964 1.32609 1.6
    endloop
  endfacet
  facet normal 0.125343 -0.992113 0
    outer loop
      vertex -0.0847664 1.34734 1.6
      vertex -0.252964 1.32609 0
      vertex -0.0847664 1.34734 0
    endloop
  endfacet
  facet normal -0.998025 0.0628193 -2.63864e-19
    outer loop
      vertex 1.33935 -0.169199 0
      vertex 1.35 0 1.6
      vertex 1.35 0 0
    endloop
  endfacet
  facet normal -0.998025 0.0628193 -2.63864e-19
    outer loop
      vertex 1.35 0 1.6
      vertex 1.33935 -0.169199 0
      vertex 1.33935 -0.169199 1.6
    endloop
  endfacet
  facet normal -0.770521 0.637415 -4.84013e-19
    outer loop
      vertex 0.984107 -0.924138 0
      vertex 1.09217 -0.793509 1.6
      vertex 1.09217 -0.793509 0
    endloop
  endfacet
  facet normal -0.770521 0.637415 -4.84013e-19
    outer loop
      vertex 1.09217 -0.793509 1.6
      vertex 0.984107 -0.924138 0
      vertex 0.984107 -0.924138 1.6
    endloop
  endfacet
  facet normal 0.951054 0.309024 -1.00549e-18
    outer loop
      vertex -1.2552 -0.496967 1.6
      vertex -1.30759 -0.335731 0
      vertex -1.30759 -0.335731 1.6
    endloop
  endfacet
  facet normal 0.951054 0.309024 -1.00549e-18
    outer loop
      vertex -1.30759 -0.335731 0
      vertex -1.2552 -0.496967 1.6
      vertex -1.2552 -0.496967 0
    endloop
  endfacet
  facet normal -0.587787 0.809016 0
    outer loop
      vertex 0.860522 -1.04019 0
      vertex 0.723366 -1.13984 1.6
      vertex 0.860522 -1.04019 1.6
    endloop
  endfacet
  facet normal -0.587787 0.809016 0
    outer loop
      vertex 0.723366 -1.13984 1.6
      vertex 0.860522 -1.04019 0
      vertex 0.723366 -1.13984 0
    endloop
  endfacet
  facet normal -0.684541 0.728975 0
    outer loop
      vertex 0.984107 -0.924138 0
      vertex 0.860522 -1.04019 1.6
      vertex 0.984107 -0.924138 1.6
    endloop
  endfacet
  facet normal -0.684541 0.728975 0
    outer loop
      vertex 0.860522 -1.04019 1.6
      vertex 0.984107 -0.924138 0
      vertex 0.860522 -1.04019 0
    endloop
  endfacet
  facet normal -0.904815 0.425806 -2.44499e-18
    outer loop
      vertex 1.18301 -0.650367 0
      vertex 1.2552 -0.496967 1.6
      vertex 1.2552 -0.496967 0
    endloop
  endfacet
  facet normal -0.904815 0.425806 -2.44499e-18
    outer loop
      vertex 1.2552 -0.496967 1.6
      vertex 1.18301 -0.650367 0
      vertex 1.18301 -0.650367 1.6
    endloop
  endfacet
  facet normal 0.84433 0.535824 -7.52562e-19
    outer loop
      vertex -1.09217 -0.793509 1.6
      vertex -1.18301 -0.650367 0
      vertex -1.18301 -0.650367 1.6
    endloop
  endfacet
  facet normal 0.84433 0.535824 -7.52562e-19
    outer loop
      vertex -1.18301 -0.650367 0
      vertex -1.09217 -0.793509 1.6
      vertex -1.09217 -0.793509 0
    endloop
  endfacet
  facet normal -0.951054 0.309024 1.00549e-18
    outer loop
      vertex 1.2552 -0.496967 0
      vertex 1.30759 -0.335731 1.6
      vertex 1.30759 -0.335731 0
    endloop
  endfacet
  facet normal -0.951054 0.309024 1.00549e-18
    outer loop
      vertex 1.30759 -0.335731 1.6
      vertex 1.2552 -0.496967 0
      vertex 1.2552 -0.496967 1.6
    endloop
  endfacet
  facet normal 0.125343 0.992113 -0
    outer loop
      vertex -0.0847664 -1.34734 0
      vertex -0.252964 -1.32609 1.6
      vertex -0.0847664 -1.34734 1.6
    endloop
  endfacet
  facet normal 0.125343 0.992113 0
    outer loop
      vertex -0.252964 -1.32609 1.6
      vertex -0.0847664 -1.34734 0
      vertex -0.252964 -1.32609 0
    endloop
  endfacet
  facet normal 0.368126 0.929776 -0
    outer loop
      vertex -0.417172 -1.28393 0
      vertex -0.574801 -1.22152 1.6
      vertex -0.417172 -1.28393 1.6
    endloop
  endfacet
  facet normal 0.368126 0.929776 0
    outer loop
      vertex -0.574801 -1.22152 1.6
      vertex -0.417172 -1.28393 0
      vertex -0.574801 -1.22152 0
    endloop
  endfacet
  facet normal 0.587787 0.809016 -0
    outer loop
      vertex -0.723366 -1.13984 0
      vertex -0.860522 -1.04019 1.6
      vertex -0.723366 -1.13984 1.6
    endloop
  endfacet
  facet normal 0.587787 0.809016 0
    outer loop
      vertex -0.860522 -1.04019 1.6
      vertex -0.723366 -1.13984 0
      vertex -0.860522 -1.04019 0
    endloop
  endfacet
  facet normal 0.248682 0.968585 -0
    outer loop
      vertex -0.252964 -1.32609 0
      vertex -0.417172 -1.28393 1.6
      vertex -0.252964 -1.32609 1.6
    endloop
  endfacet
  facet normal 0.248682 0.968585 0
    outer loop
      vertex -0.417172 -1.28393 1.6
      vertex -0.252964 -1.32609 0
      vertex -0.417172 -1.28393 0
    endloop
  endfacet
  facet normal 0.684541 0.728975 -0
    outer loop
      vertex -0.860522 -1.04019 0
      vertex -0.984107 -0.924138 1.6
      vertex -0.860522 -1.04019 1.6
    endloop
  endfacet
  facet normal 0.684541 0.728975 0
    outer loop
      vertex -0.984107 -0.924138 1.6
      vertex -0.860522 -1.04019 0
      vertex -0.984107 -0.924138 0
    endloop
  endfacet
  facet normal 0.770521 0.637415 4.84013e-19
    outer loop
      vertex -0.984107 -0.924138 1.6
      vertex -1.09217 -0.793509 0
      vertex -1.09217 -0.793509 1.6
    endloop
  endfacet
  facet normal 0.770521 0.637415 4.84013e-19
    outer loop
      vertex -1.09217 -0.793509 0
      vertex -0.984107 -0.924138 1.6
      vertex -0.984107 -0.924138 0
    endloop
  endfacet
  facet normal 0.904815 0.425806 2.44499e-18
    outer loop
      vertex -1.18301 -0.650367 1.6
      vertex -1.2552 -0.496967 0
      vertex -1.2552 -0.496967 1.6
    endloop
  endfacet
  facet normal 0.904815 0.425806 2.44499e-18
    outer loop
      vertex -1.2552 -0.496967 0
      vertex -1.18301 -0.650367 1.6
      vertex -1.18301 -0.650367 0
    endloop
  endfacet
  facet normal 0.982296 0.187338 -1.25375e-18
    outer loop
      vertex -1.30759 -0.335731 1.6
      vertex -1.33935 -0.169199 0
      vertex -1.33935 -0.169199 1.6
    endloop
  endfacet
  facet normal 0.982296 0.187338 -1.25375e-18
    outer loop
      vertex -1.33935 -0.169199 0
      vertex -1.30759 -0.335731 1.6
      vertex -1.30759 -0.335731 0
    endloop
  endfacet
  facet normal 0.998025 0.0628193 2.63864e-19
    outer loop
      vertex -1.33935 -0.169199 1.6
      vertex -1.35 0 0
      vertex -1.35 0 1.6
    endloop
  endfacet
  facet normal 0.998025 0.0628193 2.63864e-19
    outer loop
      vertex -1.35 0 0
      vertex -1.33935 -0.169199 1.6
      vertex -1.33935 -0.169199 0
    endloop
  endfacet
  facet normal -0.248682 0.968585 0
    outer loop
      vertex 0.417172 -1.28393 0
      vertex 0.252964 -1.32609 1.6
      vertex 0.417172 -1.28393 1.6
    endloop
  endfacet
  facet normal -0.248682 0.968585 0
    outer loop
      vertex 0.252964 -1.32609 1.6
      vertex 0.417172 -1.28393 0
      vertex 0.252964 -1.32609 0
    endloop
  endfacet
  facet normal -0.125343 0.992113 0
    outer loop
      vertex 0.252964 -1.32609 0
      vertex 0.0847664 -1.34734 1.6
      vertex 0.252964 -1.32609 1.6
    endloop
  endfacet
  facet normal -0.125343 0.992113 0
    outer loop
      vertex 0.0847664 -1.34734 1.6
      vertex 0.252964 -1.32609 0
      vertex 0.0847664 -1.34734 0
    endloop
  endfacet
  facet normal 0.481779 0.876292 -0
    outer loop
      vertex -0.574801 -1.22152 0
      vertex -0.723366 -1.13984 1.6
      vertex -0.574801 -1.22152 1.6
    endloop
  endfacet
  facet normal 0.481779 0.876292 0
    outer loop
      vertex -0.723366 -1.13984 1.6
      vertex -0.574801 -1.22152 0
      vertex -0.723366 -1.13984 0
    endloop
  endfacet
endsolid OpenSCAD_Model
