solid OpenSCAD_Model
  facet normal 0 -1 0
    outer loop
      vertex -3.89474 -6.7459 0
      vertex 3.89474 -6.7459 6.5
      vertex -3.89474 -6.7459 6.5
    endloop
  endfacet
  facet normal 0 -1 -0
    outer loop
      vertex 3.89474 -6.7459 6.5
      vertex -3.89474 -6.7459 0
      vertex 3.89474 -6.7459 0
    endloop
  endfacet
  facet normal 0.866025 -0.5 0
    outer loop
      vertex 3.89474 -6.7459 6.5
      vertex 7.78949 0 0
      vertex 7.78949 0 6.5
    endloop
  endfacet
  facet normal 0.866025 -0.5 0
    outer loop
      vertex 7.78949 0 0
      vertex 3.89474 -6.7459 6.5
      vertex 3.89474 -6.7459 0
    endloop
  endfacet
  facet normal -0 0 -1
    outer loop
      vertex 7.78949 0 0
      vertex 4.21649 -0.532666 0
      vertex 4.25 0 0
    endloop
  endfacet
  facet normal 0 0 -1
    outer loop
      vertex 7.78949 0 0
      vertex 4.11648 -1.05693 0
      vertex 4.21649 -0.532666 0
    endloop
  endfacet
  facet normal 0 0 -1
    outer loop
      vertex 7.78949 0 0
      vertex 3.95155 -1.56453 0
      vertex 4.11648 -1.05693 0
    endloop
  endfacet
  facet normal 0 0 -1
    outer loop
      vertex 3.7243 -2.04745 0
      vertex 7.78949 0 0
      vertex 3.89474 -6.7459 0
    endloop
  endfacet
  facet normal 0 0 -1
    outer loop
      vertex 7.78949 0 0
      vertex 3.7243 -2.04745 0
      vertex 3.95155 -1.56453 0
    endloop
  endfacet
  facet normal 0 0 -1
    outer loop
      vertex 3.89474 -6.7459 0
      vertex 3.43832 -2.49809 0
      vertex 3.7243 -2.04745 0
    endloop
  endfacet
  facet normal 0 0 -1
    outer loop
      vertex 3.89474 -6.7459 0
      vertex 3.09812 -2.90932 0
      vertex 3.43832 -2.49809 0
    endloop
  endfacet
  facet normal 0 0 -1
    outer loop
      vertex 3.89474 -6.7459 0
      vertex 2.70905 -3.27468 0
      vertex 3.09812 -2.90932 0
    endloop
  endfacet
  facet normal 0 0 -1
    outer loop
      vertex 3.89474 -6.7459 0
      vertex 2.27726 -3.58839 0
      vertex 2.70905 -3.27468 0
    endloop
  endfacet
  facet normal 0 0 -1
    outer loop
      vertex 3.89474 -6.7459 0
      vertex 1.80956 -3.84551 0
      vertex 2.27726 -3.58839 0
    endloop
  endfacet
  facet normal 0 0 -1
    outer loop
      vertex 3.89474 -6.7459 0
      vertex 1.31332 -4.04199 0
      vertex 1.80956 -3.84551 0
    endloop
  endfacet
  facet normal 0 0 -1
    outer loop
      vertex 3.89474 -6.7459 0
      vertex 0.796371 -4.17472 0
      vertex 1.31332 -4.04199 0
    endloop
  endfacet
  facet normal 0 0 -1
    outer loop
      vertex 3.89474 -6.7459 0
      vertex 0.266859 -4.24161 0
      vertex 0.796371 -4.17472 0
    endloop
  endfacet
  facet normal 0 0 -1
    outer loop
      vertex 3.89474 -6.7459 0
      vertex -0.266859 -4.24161 0
      vertex 0.266859 -4.24161 0
    endloop
  endfacet
  facet normal 0 0 -1
    outer loop
      vertex -3.89474 -6.7459 0
      vertex -0.266859 -4.24161 0
      vertex 3.89474 -6.7459 0
    endloop
  endfacet
  facet normal -0 0 -1
    outer loop
      vertex -0.266859 -4.24161 0
      vertex -3.89474 -6.7459 0
      vertex -0.796371 -4.17472 0
    endloop
  endfacet
  facet normal -0 0 -1
    outer loop
      vertex -0.796371 -4.17472 0
      vertex -3.89474 -6.7459 0
      vertex -1.31332 -4.04199 0
    endloop
  endfacet
  facet normal -0 0 -1
    outer loop
      vertex -1.31332 -4.04199 0
      vertex -3.89474 -6.7459 0
      vertex -1.80956 -3.84551 0
    endloop
  endfacet
  facet normal 0 0 -1
    outer loop
      vertex -3.89474 -6.7459 0
      vertex -2.27726 -3.58839 0
      vertex -1.80956 -3.84551 0
    endloop
  endfacet
  facet normal 0 0 -1
    outer loop
      vertex -3.89474 -6.7459 0
      vertex -2.70905 -3.27468 0
      vertex -2.27726 -3.58839 0
    endloop
  endfacet
  facet normal 0 0 -1
    outer loop
      vertex -3.89474 -6.7459 0
      vertex -3.09812 -2.90932 0
      vertex -2.70905 -3.27468 0
    endloop
  endfacet
  facet normal 0 0 -1
    outer loop
      vertex -3.89474 -6.7459 0
      vertex -3.43832 -2.49809 0
      vertex -3.09812 -2.90932 0
    endloop
  endfacet
  facet normal 0 0 -1
    outer loop
      vertex -3.89474 -6.7459 0
      vertex -3.7243 -2.04745 0
      vertex -3.43832 -2.49809 0
    endloop
  endfacet
  facet normal 0 0 -1
    outer loop
      vertex -7.78949 0 0
      vertex -3.7243 -2.04745 0
      vertex -3.89474 -6.7459 0
    endloop
  endfacet
  facet normal 0 0 -1
    outer loop
      vertex -3.7243 -2.04745 0
      vertex -7.78949 0 0
      vertex -3.95155 -1.56453 0
    endloop
  endfacet
  facet normal 0 0 -1
    outer loop
      vertex -3.95155 -1.56453 0
      vertex -7.78949 0 0
      vertex -4.11648 -1.05693 0
    endloop
  endfacet
  facet normal 0 0 -1
    outer loop
      vertex -4.11648 -1.05693 0
      vertex -7.78949 0 0
      vertex -4.21649 -0.532666 0
    endloop
  endfacet
  facet normal 0 0 -1
    outer loop
      vertex -4.21649 -0.532666 0
      vertex -7.78949 0 0
      vertex -4.25 0 0
    endloop
  endfacet
  facet normal 0 0 -1
    outer loop
      vertex 4.21649 0.532666 0
      vertex 7.78949 0 0
      vertex 4.25 0 0
    endloop
  endfacet
  facet normal 0 0 -1
    outer loop
      vertex 4.11648 1.05693 0
      vertex 7.78949 0 0
      vertex 4.21649 0.532666 0
    endloop
  endfacet
  facet normal 0 0 -1
    outer loop
      vertex 3.95155 1.56453 0
      vertex 7.78949 0 0
      vertex 4.11648 1.05693 0
    endloop
  endfacet
  facet normal 0 0 -1
    outer loop
      vertex 3.7243 2.04745 0
      vertex 7.78949 0 0
      vertex 3.95155 1.56453 0
    endloop
  endfacet
  facet normal 0 0 -1
    outer loop
      vertex 7.78949 0 0
      vertex 3.7243 2.04745 0
      vertex 3.89474 6.7459 0
    endloop
  endfacet
  facet normal 0 0 -1
    outer loop
      vertex 3.43832 2.49809 0
      vertex 3.89474 6.7459 0
      vertex 3.7243 2.04745 0
    endloop
  endfacet
  facet normal 0 0 -1
    outer loop
      vertex 3.09812 2.90932 0
      vertex 3.89474 6.7459 0
      vertex 3.43832 2.49809 0
    endloop
  endfacet
  facet normal 0 0 -1
    outer loop
      vertex 2.70905 3.27468 0
      vertex 3.89474 6.7459 0
      vertex 3.09812 2.90932 0
    endloop
  endfacet
  facet normal 0 0 -1
    outer loop
      vertex 2.27726 3.58839 0
      vertex 3.89474 6.7459 0
      vertex 2.70905 3.27468 0
    endloop
  endfacet
  facet normal 0 0 -1
    outer loop
      vertex 1.80956 3.84551 0
      vertex 3.89474 6.7459 0
      vertex 2.27726 3.58839 0
    endloop
  endfacet
  facet normal 0 0 -1
    outer loop
      vertex 1.31332 4.04199 0
      vertex 3.89474 6.7459 0
      vertex 1.80956 3.84551 0
    endloop
  endfacet
  facet normal 0 0 -1
    outer loop
      vertex 0.796371 4.17472 0
      vertex 3.89474 6.7459 0
      vertex 1.31332 4.04199 0
    endloop
  endfacet
  facet normal 0 0 -1
    outer loop
      vertex 0.266859 4.24161 0
      vertex 3.89474 6.7459 0
      vertex 0.796371 4.17472 0
    endloop
  endfacet
  facet normal 0 0 -1
    outer loop
      vertex -0.266859 4.24161 0
      vertex 3.89474 6.7459 0
      vertex 0.266859 4.24161 0
    endloop
  endfacet
  facet normal 0 0 -1
    outer loop
      vertex -3.89474 6.7459 0
      vertex -0.266859 4.24161 0
      vertex -0.796371 4.17472 0
    endloop
  endfacet
  facet normal 0 0 -1
    outer loop
      vertex -3.89474 6.7459 0
      vertex -0.796371 4.17472 0
      vertex -1.31332 4.04199 0
    endloop
  endfacet
  facet normal 0 0 -1
    outer loop
      vertex -3.89474 6.7459 0
      vertex -1.31332 4.04199 0
      vertex -1.80956 3.84551 0
    endloop
  endfacet
  facet normal 0 0 -1
    outer loop
      vertex -0.266859 4.24161 0
      vertex -3.89474 6.7459 0
      vertex 3.89474 6.7459 0
    endloop
  endfacet
  facet normal 0 0 -1
    outer loop
      vertex -2.27726 3.58839 0
      vertex -3.89474 6.7459 0
      vertex -1.80956 3.84551 0
    endloop
  endfacet
  facet normal 0 0 -1
    outer loop
      vertex -2.70905 3.27468 0
      vertex -3.89474 6.7459 0
      vertex -2.27726 3.58839 0
    endloop
  endfacet
  facet normal 0 0 -1
    outer loop
      vertex -3.09812 2.90932 0
      vertex -3.89474 6.7459 0
      vertex -2.70905 3.27468 0
    endloop
  endfacet
  facet normal 0 0 -1
    outer loop
      vertex -3.43832 2.49809 0
      vertex -3.89474 6.7459 0
      vertex -3.09812 2.90932 0
    endloop
  endfacet
  facet normal 0 0 -1
    outer loop
      vertex -3.7243 2.04745 0
      vertex -3.89474 6.7459 0
      vertex -3.43832 2.49809 0
    endloop
  endfacet
  facet normal 0 0 -1
    outer loop
      vertex -7.78949 0 0
      vertex -3.7243 2.04745 0
      vertex -3.95155 1.56453 0
    endloop
  endfacet
  facet normal 0 0 -1
    outer loop
      vertex -7.78949 0 0
      vertex -3.95155 1.56453 0
      vertex -4.11648 1.05693 0
    endloop
  endfacet
  facet normal 0 0 -1
    outer loop
      vertex -7.78949 0 0
      vertex -4.11648 1.05693 0
      vertex -4.21649 0.532666 0
    endloop
  endfacet
  facet normal 0 0 -1
    outer loop
      vertex -7.78949 0 0
      vertex -4.21649 0.532666 0
      vertex -4.25 0 0
    endloop
  endfacet
  facet normal -0 0 -1
    outer loop
      vertex -3.7243 2.04745 0
      vertex -7.78949 0 0
      vertex -3.89474 6.7459 0
    endloop
  endfacet
  facet normal 0.866025 0.5 0
    outer loop
      vertex 7.78949 0 6.5
      vertex 3.89474 6.7459 0
      vertex 3.89474 6.7459 6.5
    endloop
  endfacet
  facet normal 0.866025 0.5 0
    outer loop
      vertex 3.89474 6.7459 0
      vertex 7.78949 0 6.5
      vertex 7.78949 0 0
    endloop
  endfacet
  facet normal -0.866025 0.5 0
    outer loop
      vertex -7.78949 0 0
      vertex -3.89474 6.7459 6.5
      vertex -3.89474 6.7459 0
    endloop
  endfacet
  facet normal -0.866025 0.5 0
    outer loop
      vertex -3.89474 6.7459 6.5
      vertex -7.78949 0 0
      vertex -7.78949 0 6.5
    endloop
  endfacet
  facet normal 0 0 1
    outer loop
      vertex 7.78949 0 6.5
      vertex 4.21649 0.532666 6.5
      vertex 4.25 0 6.5
    endloop
  endfacet
  facet normal 0 0 1
    outer loop
      vertex 7.78949 0 6.5
      vertex 4.11648 1.05693 6.5
      vertex 4.21649 0.532666 6.5
    endloop
  endfacet
  facet normal 0 0 1
    outer loop
      vertex 7.78949 0 6.5
      vertex 3.95155 1.56453 6.5
      vertex 4.11648 1.05693 6.5
    endloop
  endfacet
  facet normal -0 0 1
    outer loop
      vertex 3.7243 2.04745 6.5
      vertex 7.78949 0 6.5
      vertex 3.89474 6.7459 6.5
    endloop
  endfacet
  facet normal 0 0 1
    outer loop
      vertex 7.78949 0 6.5
      vertex 3.7243 2.04745 6.5
      vertex 3.95155 1.56453 6.5
    endloop
  endfacet
  facet normal 0 0 1
    outer loop
      vertex 3.89474 6.7459 6.5
      vertex 3.43832 2.49809 6.5
      vertex 3.7243 2.04745 6.5
    endloop
  endfacet
  facet normal 0 0 1
    outer loop
      vertex 3.89474 6.7459 6.5
      vertex 3.09812 2.90932 6.5
      vertex 3.43832 2.49809 6.5
    endloop
  endfacet
  facet normal 0 0 1
    outer loop
      vertex 3.89474 6.7459 6.5
      vertex 2.70905 3.27468 6.5
      vertex 3.09812 2.90932 6.5
    endloop
  endfacet
  facet normal 0 0 1
    outer loop
      vertex 3.89474 6.7459 6.5
      vertex 2.27726 3.58839 6.5
      vertex 2.70905 3.27468 6.5
    endloop
  endfacet
  facet normal 0 0 1
    outer loop
      vertex 3.89474 6.7459 6.5
      vertex 1.80956 3.84551 6.5
      vertex 2.27726 3.58839 6.5
    endloop
  endfacet
  facet normal 0 0 1
    outer loop
      vertex 3.89474 6.7459 6.5
      vertex 1.31332 4.04199 6.5
      vertex 1.80956 3.84551 6.5
    endloop
  endfacet
  facet normal 0 0 1
    outer loop
      vertex 3.89474 6.7459 6.5
      vertex 0.796371 4.17472 6.5
      vertex 1.31332 4.04199 6.5
    endloop
  endfacet
  facet normal 0 0 1
    outer loop
      vertex 3.89474 6.7459 6.5
      vertex 0.266859 4.24161 6.5
      vertex 0.796371 4.17472 6.5
    endloop
  endfacet
  facet normal 0 0 1
    outer loop
      vertex 3.89474 6.7459 6.5
      vertex -0.266859 4.24161 6.5
      vertex 0.266859 4.24161 6.5
    endloop
  endfacet
  facet normal -0 0 1
    outer loop
      vertex -3.89474 6.7459 6.5
      vertex -0.266859 4.24161 6.5
      vertex 3.89474 6.7459 6.5
    endloop
  endfacet
  facet normal 0 0 1
    outer loop
      vertex -0.266859 4.24161 6.5
      vertex -3.89474 6.7459 6.5
      vertex -0.796371 4.17472 6.5
    endloop
  endfacet
  facet normal 0 0 1
    outer loop
      vertex -0.796371 4.17472 6.5
      vertex -3.89474 6.7459 6.5
      vertex -1.31332 4.04199 6.5
    endloop
  endfacet
  facet normal 0 0 1
    outer loop
      vertex -1.31332 4.04199 6.5
      vertex -3.89474 6.7459 6.5
      vertex -1.80956 3.84551 6.5
    endloop
  endfacet
  facet normal 0 0 1
    outer loop
      vertex -3.89474 6.7459 6.5
      vertex -2.27726 3.58839 6.5
      vertex -1.80956 3.84551 6.5
    endloop
  endfacet
  facet normal 0 0 1
    outer loop
      vertex -3.89474 6.7459 6.5
      vertex -2.70905 3.27468 6.5
      vertex -2.27726 3.58839 6.5
    endloop
  endfacet
  facet normal 0 0 1
    outer loop
      vertex -3.89474 6.7459 6.5
      vertex -3.09812 2.90932 6.5
      vertex -2.70905 3.27468 6.5
    endloop
  endfacet
  facet normal 0 0 1
    outer loop
      vertex -3.89474 6.7459 6.5
      vertex -3.43832 2.49809 6.5
      vertex -3.09812 2.90932 6.5
    endloop
  endfacet
  facet normal 0 0 1
    outer loop
      vertex -3.89474 6.7459 6.5
      vertex -3.7243 2.04745 6.5
      vertex -3.43832 2.49809 6.5
    endloop
  endfacet
  facet normal 0 0 1
    outer loop
      vertex -7.78949 0 6.5
      vertex -3.7243 2.04745 6.5
      vertex -3.89474 6.7459 6.5
    endloop
  endfacet
  facet normal 0 0 1
    outer loop
      vertex -3.7243 2.04745 6.5
      vertex -7.78949 0 6.5
      vertex -3.95155 1.56453 6.5
    endloop
  endfacet
  facet normal 0 0 1
    outer loop
      vertex -3.95155 1.56453 6.5
      vertex -7.78949 0 6.5
      vertex -4.11648 1.05693 6.5
    endloop
  endfacet
  facet normal 0 0 1
    outer loop
      vertex -4.11648 1.05693 6.5
      vertex -7.78949 0 6.5
      vertex -4.21649 0.532666 6.5
    endloop
  endfacet
  facet normal 0 0 1
    outer loop
      vertex -4.21649 0.532666 6.5
      vertex -7.78949 0 6.5
      vertex -4.25 0 6.5
    endloop
  endfacet
  facet normal 0 0 1
    outer loop
      vertex 4.21649 -0.532666 6.5
      vertex 7.78949 0 6.5
      vertex 4.25 0 6.5
    endloop
  endfacet
  facet normal 0 0 1
    outer loop
      vertex 4.11648 -1.05693 6.5
      vertex 7.78949 0 6.5
      vertex 4.21649 -0.532666 6.5
    endloop
  endfacet
  facet normal 0 0 1
    outer loop
      vertex 3.95155 -1.56453 6.5
      vertex 7.78949 0 6.5
      vertex 4.11648 -1.05693 6.5
    endloop
  endfacet
  facet normal 0 0 1
    outer loop
      vertex 3.7243 -2.04745 6.5
      vertex 7.78949 0 6.5
      vertex 3.95155 -1.56453 6.5
    endloop
  endfacet
  facet normal 0 0 1
    outer loop
      vertex 7.78949 0 6.5
      vertex 3.7243 -2.04745 6.5
      vertex 3.89474 -6.7459 6.5
    endloop
  endfacet
  facet normal -0 0 1
    outer loop
      vertex 3.43832 -2.49809 6.5
      vertex 3.89474 -6.7459 6.5
      vertex 3.7243 -2.04745 6.5
    endloop
  endfacet
  facet normal -0 0 1
    outer loop
      vertex 3.09812 -2.90932 6.5
      vertex 3.89474 -6.7459 6.5
      vertex 3.43832 -2.49809 6.5
    endloop
  endfacet
  facet normal -0 0 1
    outer loop
      vertex 2.70905 -3.27468 6.5
      vertex 3.89474 -6.7459 6.5
      vertex 3.09812 -2.90932 6.5
    endloop
  endfacet
  facet normal -0 0 1
    outer loop
      vertex 2.27726 -3.58839 6.5
      vertex 3.89474 -6.7459 6.5
      vertex 2.70905 -3.27468 6.5
    endloop
  endfacet
  facet normal -0 0 1
    outer loop
      vertex 1.80956 -3.84551 6.5
      vertex 3.89474 -6.7459 6.5
      vertex 2.27726 -3.58839 6.5
    endloop
  endfacet
  facet normal -0 0 1
    outer loop
      vertex 1.31332 -4.04199 6.5
      vertex 3.89474 -6.7459 6.5
      vertex 1.80956 -3.84551 6.5
    endloop
  endfacet
  facet normal -0 0 1
    outer loop
      vertex 0.796371 -4.17472 6.5
      vertex 3.89474 -6.7459 6.5
      vertex 1.31332 -4.04199 6.5
    endloop
  endfacet
  facet normal -0 0 1
    outer loop
      vertex 0.266859 -4.24161 6.5
      vertex 3.89474 -6.7459 6.5
      vertex 0.796371 -4.17472 6.5
    endloop
  endfacet
  facet normal -0 0 1
    outer loop
      vertex -0.266859 -4.24161 6.5
      vertex 3.89474 -6.7459 6.5
      vertex 0.266859 -4.24161 6.5
    endloop
  endfacet
  facet normal 0 0 1
    outer loop
      vertex -3.89474 -6.7459 6.5
      vertex -0.266859 -4.24161 6.5
      vertex -0.796371 -4.17472 6.5
    endloop
  endfacet
  facet normal 0 0 1
    outer loop
      vertex -3.89474 -6.7459 6.5
      vertex -0.796371 -4.17472 6.5
      vertex -1.31332 -4.04199 6.5
    endloop
  endfacet
  facet normal 0 0 1
    outer loop
      vertex -3.89474 -6.7459 6.5
      vertex -1.31332 -4.04199 6.5
      vertex -1.80956 -3.84551 6.5
    endloop
  endfacet
  facet normal 0 0 1
    outer loop
      vertex -0.266859 -4.24161 6.5
      vertex -3.89474 -6.7459 6.5
      vertex 3.89474 -6.7459 6.5
    endloop
  endfacet
  facet normal 0 0 1
    outer loop
      vertex -2.27726 -3.58839 6.5
      vertex -3.89474 -6.7459 6.5
      vertex -1.80956 -3.84551 6.5
    endloop
  endfacet
  facet normal 0 0 1
    outer loop
      vertex -2.70905 -3.27468 6.5
      vertex -3.89474 -6.7459 6.5
      vertex -2.27726 -3.58839 6.5
    endloop
  endfacet
  facet normal 0 0 1
    outer loop
      vertex -3.09812 -2.90932 6.5
      vertex -3.89474 -6.7459 6.5
      vertex -2.70905 -3.27468 6.5
    endloop
  endfacet
  facet normal 0 0 1
    outer loop
      vertex -3.43832 -2.49809 6.5
      vertex -3.89474 -6.7459 6.5
      vertex -3.09812 -2.90932 6.5
    endloop
  endfacet
  facet normal 0 0 1
    outer loop
      vertex -3.7243 -2.04745 6.5
      vertex -3.89474 -6.7459 6.5
      vertex -3.43832 -2.49809 6.5
    endloop
  endfacet
  facet normal 0 0 1
    outer loop
      vertex -7.78949 0 6.5
      vertex -3.7243 -2.04745 6.5
      vertex -3.95155 -1.56453 6.5
    endloop
  endfacet
  facet normal 0 0 1
    outer loop
      vertex -7.78949 0 6.5
      vertex -3.95155 -1.56453 6.5
      vertex -4.11648 -1.05693 6.5
    endloop
  endfacet
  facet normal 0 0 1
    outer loop
      vertex -7.78949 0 6.5
      vertex -4.11648 -1.05693 6.5
      vertex -4.21649 -0.532666 6.5
    endloop
  endfacet
  facet normal -0 0 1
    outer loop
      vertex -7.78949 0 6.5
      vertex -4.21649 -0.532666 6.5
      vertex -4.25 0 6.5
    endloop
  endfacet
  facet normal 0 0 1
    outer loop
      vertex -3.7243 -2.04745 6.5
      vertex -7.78949 0 6.5
      vertex -3.89474 -6.7459 6.5
    endloop
  endfacet
  facet normal -0.866025 -0.5 0
    outer loop
      vertex -3.89474 -6.7459 0
      vertex -7.78949 0 6.5
      vertex -7.78949 0 0
    endloop
  endfacet
  facet normal -0.866025 -0.5 0
    outer loop
      vertex -7.78949 0 6.5
      vertex -3.89474 -6.7459 0
      vertex -3.89474 -6.7459 6.5
    endloop
  endfacet
  facet normal 0 1 -0
    outer loop
      vertex 3.89474 6.7459 0
      vertex -3.89474 6.7459 6.5
      vertex 3.89474 6.7459 6.5
    endloop
  endfacet
  facet normal 0 1 0
    outer loop
      vertex -3.89474 6.7459 6.5
      vertex 3.89474 6.7459 0
      vertex -3.89474 6.7459 0
    endloop
  endfacet
  facet normal -0.998027 -0.0627858 0
    outer loop
      vertex 4.25 0 0
      vertex 4.21649 0.532666 6.5
      vertex 4.21649 0.532666 0
    endloop
  endfacet
  facet normal -0.998027 -0.0627858 0
    outer loop
      vertex 4.21649 0.532666 6.5
      vertex 4.25 0 0
      vertex 4.25 0 6.5
    endloop
  endfacet
  facet normal 0.998027 -0.0627858 0
    outer loop
      vertex -4.25 0 6.5
      vertex -4.21649 0.532666 0
      vertex -4.21649 0.532666 6.5
    endloop
  endfacet
  facet normal 0.998027 -0.0627858 0
    outer loop
      vertex -4.21649 0.532666 0
      vertex -4.25 0 6.5
      vertex -4.25 0 0
    endloop
  endfacet
  facet normal 0 -1 0
    outer loop
      vertex -0.266859 4.24161 0
      vertex 0.266859 4.24161 6.5
      vertex -0.266859 4.24161 6.5
    endloop
  endfacet
  facet normal 0 -1 -0
    outer loop
      vertex 0.266859 4.24161 6.5
      vertex -0.266859 4.24161 0
      vertex 0.266859 4.24161 0
    endloop
  endfacet
  facet normal 0 1 -0
    outer loop
      vertex 0.266859 -4.24161 0
      vertex -0.266859 -4.24161 6.5
      vertex 0.266859 -4.24161 6.5
    endloop
  endfacet
  facet normal 0 1 0
    outer loop
      vertex -0.266859 -4.24161 6.5
      vertex 0.266859 -4.24161 0
      vertex -0.266859 -4.24161 0
    endloop
  endfacet
  facet normal -0.684546 -0.72897 0
    outer loop
      vertex 2.70905 3.27468 0
      vertex 3.09812 2.90932 6.5
      vertex 2.70905 3.27468 6.5
    endloop
  endfacet
  facet normal -0.684546 -0.72897 -0
    outer loop
      vertex 3.09812 2.90932 6.5
      vertex 2.70905 3.27468 0
      vertex 3.09812 2.90932 0
    endloop
  endfacet
  facet normal 0.684546 -0.72897 0
    outer loop
      vertex -3.09812 2.90932 0
      vertex -2.70905 3.27468 6.5
      vertex -3.09812 2.90932 6.5
    endloop
  endfacet
  facet normal 0.684546 -0.72897 0
    outer loop
      vertex -2.70905 3.27468 6.5
      vertex -3.09812 2.90932 0
      vertex -2.70905 3.27468 0
    endloop
  endfacet
  facet normal 0.368132 -0.929773 0
    outer loop
      vertex -1.80956 3.84551 0
      vertex -1.31332 4.04199 6.5
      vertex -1.80956 3.84551 6.5
    endloop
  endfacet
  facet normal 0.368132 -0.929773 0
    outer loop
      vertex -1.31332 4.04199 6.5
      vertex -1.80956 3.84551 0
      vertex -1.31332 4.04199 0
    endloop
  endfacet
  facet normal -0.904823 -0.425787 0
    outer loop
      vertex 3.95155 1.56453 0
      vertex 3.7243 2.04745 6.5
      vertex 3.7243 2.04745 0
    endloop
  endfacet
  facet normal -0.904823 -0.425787 0
    outer loop
      vertex 3.7243 2.04745 6.5
      vertex 3.95155 1.56453 0
      vertex 3.95155 1.56453 6.5
    endloop
  endfacet
  facet normal -0.982287 -0.187384 0
    outer loop
      vertex 4.21649 0.532666 0
      vertex 4.11648 1.05693 6.5
      vertex 4.11648 1.05693 0
    endloop
  endfacet
  facet normal -0.982287 -0.187384 0
    outer loop
      vertex 4.11648 1.05693 6.5
      vertex 4.21649 0.532666 0
      vertex 4.21649 0.532666 6.5
    endloop
  endfacet
  facet normal -0.844332 -0.53582 0
    outer loop
      vertex 3.7243 2.04745 0
      vertex 3.43832 2.49809 6.5
      vertex 3.43832 2.49809 0
    endloop
  endfacet
  facet normal -0.844332 -0.53582 0
    outer loop
      vertex 3.43832 2.49809 6.5
      vertex 3.7243 2.04745 0
      vertex 3.7243 2.04745 6.5
    endloop
  endfacet
  facet normal -0.368132 -0.929773 0
    outer loop
      vertex 1.31332 4.04199 0
      vertex 1.80956 3.84551 6.5
      vertex 1.31332 4.04199 6.5
    endloop
  endfacet
  facet normal -0.368132 -0.929773 -0
    outer loop
      vertex 1.80956 3.84551 6.5
      vertex 1.31332 4.04199 0
      vertex 1.80956 3.84551 0
    endloop
  endfacet
  facet normal -0.24869 -0.968583 0
    outer loop
      vertex 0.796371 4.17472 0
      vertex 1.31332 4.04199 6.5
      vertex 0.796371 4.17472 6.5
    endloop
  endfacet
  facet normal -0.24869 -0.968583 -0
    outer loop
      vertex 1.31332 4.04199 6.5
      vertex 0.796371 4.17472 0
      vertex 1.31332 4.04199 0
    endloop
  endfacet
  facet normal -0.587781 -0.80902 0
    outer loop
      vertex 2.27726 3.58839 0
      vertex 2.70905 3.27468 6.5
      vertex 2.27726 3.58839 6.5
    endloop
  endfacet
  facet normal -0.587781 -0.80902 -0
    outer loop
      vertex 2.70905 3.27468 6.5
      vertex 2.27726 3.58839 0
      vertex 2.70905 3.27468 0
    endloop
  endfacet
  facet normal 0.904823 -0.425787 0
    outer loop
      vertex -3.95155 1.56453 6.5
      vertex -3.7243 2.04745 0
      vertex -3.7243 2.04745 6.5
    endloop
  endfacet
  facet normal 0.904823 -0.425787 0
    outer loop
      vertex -3.7243 2.04745 0
      vertex -3.95155 1.56453 6.5
      vertex -3.95155 1.56453 0
    endloop
  endfacet
  facet normal 0.844332 -0.53582 0
    outer loop
      vertex -3.7243 2.04745 6.5
      vertex -3.43832 2.49809 0
      vertex -3.43832 2.49809 6.5
    endloop
  endfacet
  facet normal 0.844332 -0.53582 0
    outer loop
      vertex -3.43832 2.49809 0
      vertex -3.7243 2.04745 6.5
      vertex -3.7243 2.04745 0
    endloop
  endfacet
  facet normal 0.951056 -0.309018 0
    outer loop
      vertex -4.11648 1.05693 6.5
      vertex -3.95155 1.56453 0
      vertex -3.95155 1.56453 6.5
    endloop
  endfacet
  facet normal 0.951056 -0.309018 0
    outer loop
      vertex -3.95155 1.56453 0
      vertex -4.11648 1.05693 6.5
      vertex -4.11648 1.05693 0
    endloop
  endfacet
  facet normal 0.481753 -0.876307 0
    outer loop
      vertex -2.27726 3.58839 0
      vertex -1.80956 3.84551 6.5
      vertex -2.27726 3.58839 6.5
    endloop
  endfacet
  facet normal 0.481753 -0.876307 0
    outer loop
      vertex -1.80956 3.84551 6.5
      vertex -2.27726 3.58839 0
      vertex -1.80956 3.84551 0
    endloop
  endfacet
  facet normal 0.125328 -0.992115 0
    outer loop
      vertex -0.796371 4.17472 0
      vertex -0.266859 4.24161 6.5
      vertex -0.796371 4.17472 6.5
    endloop
  endfacet
  facet normal 0.125328 -0.992115 0
    outer loop
      vertex -0.266859 4.24161 6.5
      vertex -0.796371 4.17472 0
      vertex -0.266859 4.24161 0
    endloop
  endfacet
  facet normal -0.125328 0.992115 0
    outer loop
      vertex 0.796371 -4.17472 0
      vertex 0.266859 -4.24161 6.5
      vertex 0.796371 -4.17472 6.5
    endloop
  endfacet
  facet normal -0.125328 0.992115 0
    outer loop
      vertex 0.266859 -4.24161 6.5
      vertex 0.796371 -4.17472 0
      vertex 0.266859 -4.24161 0
    endloop
  endfacet
  facet normal -0.951056 -0.309018 0
    outer loop
      vertex 4.11648 1.05693 0
      vertex 3.95155 1.56453 6.5
      vertex 3.95155 1.56453 0
    endloop
  endfacet
  facet normal -0.951056 -0.309018 0
    outer loop
      vertex 3.95155 1.56453 6.5
      vertex 4.11648 1.05693 0
      vertex 4.11648 1.05693 6.5
    endloop
  endfacet
  facet normal -0.770512 -0.637425 0
    outer loop
      vertex 3.43832 2.49809 0
      vertex 3.09812 2.90932 6.5
      vertex 3.09812 2.90932 0
    endloop
  endfacet
  facet normal -0.770512 -0.637425 0
    outer loop
      vertex 3.09812 2.90932 6.5
      vertex 3.43832 2.49809 0
      vertex 3.43832 2.49809 6.5
    endloop
  endfacet
  facet normal -0.125328 -0.992115 0
    outer loop
      vertex 0.266859 4.24161 0
      vertex 0.796371 4.17472 6.5
      vertex 0.266859 4.24161 6.5
    endloop
  endfacet
  facet normal -0.125328 -0.992115 -0
    outer loop
      vertex 0.796371 4.17472 6.5
      vertex 0.266859 4.24161 0
      vertex 0.796371 4.17472 0
    endloop
  endfacet
  facet normal 0.982287 -0.187384 0
    outer loop
      vertex -4.21649 0.532666 6.5
      vertex -4.11648 1.05693 0
      vertex -4.11648 1.05693 6.5
    endloop
  endfacet
  facet normal 0.982287 -0.187384 0
    outer loop
      vertex -4.11648 1.05693 0
      vertex -4.21649 0.532666 6.5
      vertex -4.21649 0.532666 0
    endloop
  endfacet
  facet normal -0.998027 0.0627858 0
    outer loop
      vertex 4.21649 -0.532666 0
      vertex 4.25 0 6.5
      vertex 4.25 0 0
    endloop
  endfacet
  facet normal -0.998027 0.0627858 0
    outer loop
      vertex 4.25 0 6.5
      vertex 4.21649 -0.532666 0
      vertex 4.21649 -0.532666 6.5
    endloop
  endfacet
  facet normal -0.844332 0.53582 0
    outer loop
      vertex 3.43832 -2.49809 0
      vertex 3.7243 -2.04745 6.5
      vertex 3.7243 -2.04745 0
    endloop
  endfacet
  facet normal -0.844332 0.53582 0
    outer loop
      vertex 3.7243 -2.04745 6.5
      vertex 3.43832 -2.49809 0
      vertex 3.43832 -2.49809 6.5
    endloop
  endfacet
  facet normal -0.982287 0.187384 0
    outer loop
      vertex 4.11648 -1.05693 0
      vertex 4.21649 -0.532666 6.5
      vertex 4.21649 -0.532666 0
    endloop
  endfacet
  facet normal -0.982287 0.187384 0
    outer loop
      vertex 4.21649 -0.532666 6.5
      vertex 4.11648 -1.05693 0
      vertex 4.11648 -1.05693 6.5
    endloop
  endfacet
  facet normal 0.368132 0.929773 -0
    outer loop
      vertex -1.31332 -4.04199 0
      vertex -1.80956 -3.84551 6.5
      vertex -1.31332 -4.04199 6.5
    endloop
  endfacet
  facet normal 0.368132 0.929773 0
    outer loop
      vertex -1.80956 -3.84551 6.5
      vertex -1.31332 -4.04199 0
      vertex -1.80956 -3.84551 0
    endloop
  endfacet
  facet normal 0.844332 0.53582 0
    outer loop
      vertex -3.43832 -2.49809 6.5
      vertex -3.7243 -2.04745 0
      vertex -3.7243 -2.04745 6.5
    endloop
  endfacet
  facet normal 0.844332 0.53582 0
    outer loop
      vertex -3.7243 -2.04745 0
      vertex -3.43832 -2.49809 6.5
      vertex -3.43832 -2.49809 0
    endloop
  endfacet
  facet normal 0.904823 0.425787 0
    outer loop
      vertex -3.7243 -2.04745 6.5
      vertex -3.95155 -1.56453 0
      vertex -3.95155 -1.56453 6.5
    endloop
  endfacet
  facet normal 0.904823 0.425787 0
    outer loop
      vertex -3.95155 -1.56453 0
      vertex -3.7243 -2.04745 6.5
      vertex -3.7243 -2.04745 0
    endloop
  endfacet
  facet normal -0.587781 0.80902 0
    outer loop
      vertex 2.70905 -3.27468 0
      vertex 2.27726 -3.58839 6.5
      vertex 2.70905 -3.27468 6.5
    endloop
  endfacet
  facet normal -0.587781 0.80902 0
    outer loop
      vertex 2.27726 -3.58839 6.5
      vertex 2.70905 -3.27468 0
      vertex 2.27726 -3.58839 0
    endloop
  endfacet
  facet normal -0.481753 0.876307 0
    outer loop
      vertex 2.27726 -3.58839 0
      vertex 1.80956 -3.84551 6.5
      vertex 2.27726 -3.58839 6.5
    endloop
  endfacet
  facet normal -0.481753 0.876307 0
    outer loop
      vertex 1.80956 -3.84551 6.5
      vertex 2.27726 -3.58839 0
      vertex 1.80956 -3.84551 0
    endloop
  endfacet
  facet normal -0.481753 -0.876307 0
    outer loop
      vertex 1.80956 3.84551 0
      vertex 2.27726 3.58839 6.5
      vertex 1.80956 3.84551 6.5
    endloop
  endfacet
  facet normal -0.481753 -0.876307 -0
    outer loop
      vertex 2.27726 3.58839 6.5
      vertex 1.80956 3.84551 0
      vertex 2.27726 3.58839 0
    endloop
  endfacet
  facet normal 0.770512 -0.637425 0
    outer loop
      vertex -3.43832 2.49809 6.5
      vertex -3.09812 2.90932 0
      vertex -3.09812 2.90932 6.5
    endloop
  endfacet
  facet normal 0.770512 -0.637425 0
    outer loop
      vertex -3.09812 2.90932 0
      vertex -3.43832 2.49809 6.5
      vertex -3.43832 2.49809 0
    endloop
  endfacet
  facet normal 0.587781 -0.80902 0
    outer loop
      vertex -2.70905 3.27468 0
      vertex -2.27726 3.58839 6.5
      vertex -2.70905 3.27468 6.5
    endloop
  endfacet
  facet normal 0.587781 -0.80902 0
    outer loop
      vertex -2.27726 3.58839 6.5
      vertex -2.70905 3.27468 0
      vertex -2.27726 3.58839 0
    endloop
  endfacet
  facet normal 0.24869 -0.968583 0
    outer loop
      vertex -1.31332 4.04199 0
      vertex -0.796371 4.17472 6.5
      vertex -1.31332 4.04199 6.5
    endloop
  endfacet
  facet normal 0.24869 -0.968583 0
    outer loop
      vertex -0.796371 4.17472 6.5
      vertex -1.31332 4.04199 0
      vertex -0.796371 4.17472 0
    endloop
  endfacet
  facet normal -0.951056 0.309018 0
    outer loop
      vertex 3.95155 -1.56453 0
      vertex 4.11648 -1.05693 6.5
      vertex 4.11648 -1.05693 0
    endloop
  endfacet
  facet normal -0.951056 0.309018 0
    outer loop
      vertex 4.11648 -1.05693 6.5
      vertex 3.95155 -1.56453 0
      vertex 3.95155 -1.56453 6.5
    endloop
  endfacet
  facet normal -0.904823 0.425787 0
    outer loop
      vertex 3.7243 -2.04745 0
      vertex 3.95155 -1.56453 6.5
      vertex 3.95155 -1.56453 0
    endloop
  endfacet
  facet normal -0.904823 0.425787 0
    outer loop
      vertex 3.95155 -1.56453 6.5
      vertex 3.7243 -2.04745 0
      vertex 3.7243 -2.04745 6.5
    endloop
  endfacet
  facet normal 0.770512 0.637425 0
    outer loop
      vertex -3.09812 -2.90932 6.5
      vertex -3.43832 -2.49809 0
      vertex -3.43832 -2.49809 6.5
    endloop
  endfacet
  facet normal 0.770512 0.637425 0
    outer loop
      vertex -3.43832 -2.49809 0
      vertex -3.09812 -2.90932 6.5
      vertex -3.09812 -2.90932 0
    endloop
  endfacet
  facet normal 0.951056 0.309018 0
    outer loop
      vertex -3.95155 -1.56453 6.5
      vertex -4.11648 -1.05693 0
      vertex -4.11648 -1.05693 6.5
    endloop
  endfacet
  facet normal 0.951056 0.309018 0
    outer loop
      vertex -4.11648 -1.05693 0
      vertex -3.95155 -1.56453 6.5
      vertex -3.95155 -1.56453 0
    endloop
  endfacet
  facet normal -0.684546 0.72897 0
    outer loop
      vertex 3.09812 -2.90932 0
      vertex 2.70905 -3.27468 6.5
      vertex 3.09812 -2.90932 6.5
    endloop
  endfacet
  facet normal -0.684546 0.72897 0
    outer loop
      vertex 2.70905 -3.27468 6.5
      vertex 3.09812 -2.90932 0
      vertex 2.70905 -3.27468 0
    endloop
  endfacet
  facet normal 0.481753 0.876307 -0
    outer loop
      vertex -1.80956 -3.84551 0
      vertex -2.27726 -3.58839 6.5
      vertex -1.80956 -3.84551 6.5
    endloop
  endfacet
  facet normal 0.481753 0.876307 0
    outer loop
      vertex -2.27726 -3.58839 6.5
      vertex -1.80956 -3.84551 0
      vertex -2.27726 -3.58839 0
    endloop
  endfacet
  facet normal 0.24869 0.968583 -0
    outer loop
      vertex -0.796371 -4.17472 0
      vertex -1.31332 -4.04199 6.5
      vertex -0.796371 -4.17472 6.5
    endloop
  endfacet
  facet normal 0.24869 0.968583 0
    outer loop
      vertex -1.31332 -4.04199 6.5
      vertex -0.796371 -4.17472 0
      vertex -1.31332 -4.04199 0
    endloop
  endfacet
  facet normal 0.684546 0.72897 -0
    outer loop
      vertex -2.70905 -3.27468 0
      vertex -3.09812 -2.90932 6.5
      vertex -2.70905 -3.27468 6.5
    endloop
  endfacet
  facet normal 0.684546 0.72897 0
    outer loop
      vertex -3.09812 -2.90932 6.5
      vertex -2.70905 -3.27468 0
      vertex -3.09812 -2.90932 0
    endloop
  endfacet
  facet normal 0.982287 0.187384 0
    outer loop
      vertex -4.11648 -1.05693 6.5
      vertex -4.21649 -0.532666 0
      vertex -4.21649 -0.532666 6.5
    endloop
  endfacet
  facet normal 0.982287 0.187384 0
    outer loop
      vertex -4.21649 -0.532666 0
      vertex -4.11648 -1.05693 6.5
      vertex -4.11648 -1.05693 0
    endloop
  endfacet
  facet normal 0.998027 0.0627858 0
    outer loop
      vertex -4.21649 -0.532666 6.5
      vertex -4.25 0 0
      vertex -4.25 0 6.5
    endloop
  endfacet
  facet normal 0.998027 0.0627858 0
    outer loop
      vertex -4.25 0 0
      vertex -4.21649 -0.532666 6.5
      vertex -4.21649 -0.532666 0
    endloop
  endfacet
  facet normal -0.770512 0.637425 0
    outer loop
      vertex 3.09812 -2.90932 0
      vertex 3.43832 -2.49809 6.5
      vertex 3.43832 -2.49809 0
    endloop
  endfacet
  facet normal -0.770512 0.637425 0
    outer loop
      vertex 3.43832 -2.49809 6.5
      vertex 3.09812 -2.90932 0
      vertex 3.09812 -2.90932 6.5
    endloop
  endfacet
  facet normal -0.24869 0.968583 0
    outer loop
      vertex 1.31332 -4.04199 0
      vertex 0.796371 -4.17472 6.5
      vertex 1.31332 -4.04199 6.5
    endloop
  endfacet
  facet normal -0.24869 0.968583 0
    outer loop
      vertex 0.796371 -4.17472 6.5
      vertex 1.31332 -4.04199 0
      vertex 0.796371 -4.17472 0
    endloop
  endfacet
  facet normal -0.368132 0.929773 0
    outer loop
      vertex 1.80956 -3.84551 0
      vertex 1.31332 -4.04199 6.5
      vertex 1.80956 -3.84551 6.5
    endloop
  endfacet
  facet normal -0.368132 0.929773 0
    outer loop
      vertex 1.31332 -4.04199 6.5
      vertex 1.80956 -3.84551 0
      vertex 1.31332 -4.04199 0
    endloop
  endfacet
  facet normal 0.587781 0.80902 -0
    outer loop
      vertex -2.27726 -3.58839 0
      vertex -2.70905 -3.27468 6.5
      vertex -2.27726 -3.58839 6.5
    endloop
  endfacet
  facet normal 0.587781 0.80902 0
    outer loop
      vertex -2.70905 -3.27468 6.5
      vertex -2.27726 -3.58839 0
      vertex -2.70905 -3.27468 0
    endloop
  endfacet
  facet normal 0.125328 0.992115 -0
    outer loop
      vertex -0.266859 -4.24161 0
      vertex -0.796371 -4.17472 6.5
      vertex -0.266859 -4.24161 6.5
    endloop
  endfacet
  facet normal 0.125328 0.992115 0
    outer loop
      vertex -0.796371 -4.17472 6.5
      vertex -0.266859 -4.24161 0
      vertex -0.796371 -4.17472 0
    endloop
  endfacet
endsolid OpenSCAD_Model
