solid OpenSCAD_Model
  facet normal 0.998028 0.0627672 0
    outer loop
      vertex 16.15 0 3.6
      vertex 16.0227 2.02413 0
      vertex 16.0227 2.02413 3.6
    endloop
  endfacet
  facet normal 0.998028 0.0627672 0
    outer loop
      vertex 16.0227 2.02413 0
      vertex 16.15 0 3.6
      vertex 16.15 0 0
    endloop
  endfacet
  facet normal -0.998028 0.0627672 0
    outer loop
      vertex -16.15 0 0
      vertex -16.0227 2.02413 3.6
      vertex -16.0227 2.02413 0
    endloop
  endfacet
  facet normal -0.998028 0.0627672 0
    outer loop
      vertex -16.0227 2.02413 3.6
      vertex -16.15 0 0
      vertex -16.15 0 3.6
    endloop
  endfacet
  facet normal 0 1 -0
    outer loop
      vertex 1.01407 16.1181 0
      vertex -1.01407 16.1181 3.6
      vertex 1.01407 16.1181 3.6
    endloop
  endfacet
  facet normal 0 1 0
    outer loop
      vertex -1.01407 16.1181 3.6
      vertex 1.01407 16.1181 0
      vertex -1.01407 16.1181 0
    endloop
  endfacet
  facet normal 0 -1 0
    outer loop
      vertex -1.01407 -16.1181 0
      vertex 1.01407 -16.1181 3.6
      vertex -1.01407 -16.1181 3.6
    endloop
  endfacet
  facet normal 0 -1 -0
    outer loop
      vertex 1.01407 -16.1181 3.6
      vertex -1.01407 -16.1181 0
      vertex 1.01407 -16.1181 0
    endloop
  endfacet
  facet normal 0.684571 0.728946 -0
    outer loop
      vertex 11.7728 11.0554 0
      vertex 10.2944 12.4438 3.6
      vertex 11.7728 11.0554 3.6
    endloop
  endfacet
  facet normal 0.684571 0.728946 0
    outer loop
      vertex 10.2944 12.4438 3.6
      vertex 11.7728 11.0554 0
      vertex 10.2944 12.4438 0
    endloop
  endfacet
  facet normal -0.684571 0.728946 0
    outer loop
      vertex -10.2944 12.4438 0
      vertex -11.7728 11.0554 3.6
      vertex -10.2944 12.4438 3.6
    endloop
  endfacet
  facet normal -0.684571 0.728946 0
    outer loop
      vertex -11.7728 11.0554 3.6
      vertex -10.2944 12.4438 0
      vertex -11.7728 11.0554 0
    endloop
  endfacet
  facet normal -0.368121 0.929778 0
    outer loop
      vertex -4.99062 15.3596 0
      vertex -6.87634 14.613 3.6
      vertex -4.99062 15.3596 3.6
    endloop
  endfacet
  facet normal -0.368121 0.929778 0
    outer loop
      vertex -6.87634 14.613 3.6
      vertex -4.99062 15.3596 0
      vertex -6.87634 14.613 0
    endloop
  endfacet
  facet normal 0.904834 0.425764 0
    outer loop
      vertex 15.0159 5.94521 3.6
      vertex 14.1524 7.78032 0
      vertex 14.1524 7.78032 3.6
    endloop
  endfacet
  facet normal 0.904834 0.425764 0
    outer loop
      vertex 14.1524 7.78032 0
      vertex 15.0159 5.94521 3.6
      vertex 15.0159 5.94521 0
    endloop
  endfacet
  facet normal 0.844312 0.535852 0
    outer loop
      vertex 14.1524 7.78032 3.6
      vertex 13.0656 9.49273 0
      vertex 13.0656 9.49273 3.6
    endloop
  endfacet
  facet normal 0.844312 0.535852 0
    outer loop
      vertex 13.0656 9.49273 0
      vertex 14.1524 7.78032 3.6
      vertex 14.1524 7.78032 0
    endloop
  endfacet
  facet normal 0.368121 0.929778 -0
    outer loop
      vertex 6.87634 14.613 0
      vertex 4.99062 15.3596 3.6
      vertex 6.87634 14.613 3.6
    endloop
  endfacet
  facet normal 0.368121 0.929778 0
    outer loop
      vertex 4.99062 15.3596 3.6
      vertex 6.87634 14.613 0
      vertex 4.99062 15.3596 0
    endloop
  endfacet
  facet normal 0.587782 0.80902 -0
    outer loop
      vertex 10.2944 12.4438 0
      vertex 8.6536 13.6359 3.6
      vertex 10.2944 12.4438 3.6
    endloop
  endfacet
  facet normal 0.587782 0.80902 0
    outer loop
      vertex 8.6536 13.6359 3.6
      vertex 10.2944 12.4438 0
      vertex 8.6536 13.6359 0
    endloop
  endfacet
  facet normal -0.904834 0.425764 0
    outer loop
      vertex -15.0159 5.94521 0
      vertex -14.1524 7.78032 3.6
      vertex -14.1524 7.78032 0
    endloop
  endfacet
  facet normal -0.904834 0.425764 0
    outer loop
      vertex -14.1524 7.78032 3.6
      vertex -15.0159 5.94521 0
      vertex -15.0159 5.94521 3.6
    endloop
  endfacet
  facet normal -0.770502 0.637438 0
    outer loop
      vertex -13.0656 9.49273 0
      vertex -11.7728 11.0554 3.6
      vertex -11.7728 11.0554 0
    endloop
  endfacet
  facet normal -0.770502 0.637438 0
    outer loop
      vertex -11.7728 11.0554 3.6
      vertex -13.0656 9.49273 0
      vertex -13.0656 9.49273 3.6
    endloop
  endfacet
  facet normal 0 0 1
    outer loop
      vertex 12.5 0 3.6
      vertex 16.15 0 3.6
      vertex 16.0227 2.02413 3.6
    endloop
  endfacet
  facet normal 0 0 1
    outer loop
      vertex 12.4014 1.56666 3.6
      vertex 16.0227 2.02413 3.6
      vertex 15.6426 4.01634 3.6
    endloop
  endfacet
  facet normal 0 0 1
    outer loop
      vertex 16.15 0 3.6
      vertex 12.5 0 3.6
      vertex 16.0227 -2.02413 3.6
    endloop
  endfacet
  facet normal 0 0 1
    outer loop
      vertex 12.1073 3.10862 3.6
      vertex 15.6426 4.01634 3.6
      vertex 15.0159 5.94521 3.6
    endloop
  endfacet
  facet normal -0 0 1
    outer loop
      vertex 12.4014 -1.56666 3.6
      vertex 16.0227 -2.02413 3.6
      vertex 12.5 0 3.6
    endloop
  endfacet
  facet normal 0 0 1
    outer loop
      vertex 11.6222 4.60156 3.6
      vertex 15.0159 5.94521 3.6
      vertex 14.1524 7.78032 3.6
    endloop
  endfacet
  facet normal 0 0 1
    outer loop
      vertex 16.0227 -2.02413 3.6
      vertex 12.4014 -1.56666 3.6
      vertex 15.6426 -4.01634 3.6
    endloop
  endfacet
  facet normal 0 0 1
    outer loop
      vertex 10.9538 6.02192 3.6
      vertex 14.1524 7.78032 3.6
      vertex 13.0656 9.49273 3.6
    endloop
  endfacet
  facet normal -0 0 1
    outer loop
      vertex 12.1073 -3.10862 3.6
      vertex 15.6426 -4.01634 3.6
      vertex 12.4014 -1.56666 3.6
    endloop
  endfacet
  facet normal 0 0 1
    outer loop
      vertex 15.6426 -4.01634 3.6
      vertex 12.1073 -3.10862 3.6
      vertex 15.0159 -5.94521 3.6
    endloop
  endfacet
  facet normal 0 0 1
    outer loop
      vertex 16.0227 2.02413 3.6
      vertex 12.4014 1.56666 3.6
      vertex 12.5 0 3.6
    endloop
  endfacet
  facet normal 0 0 1
    outer loop
      vertex 15.6426 4.01634 3.6
      vertex 12.1073 3.10862 3.6
      vertex 12.4014 1.56666 3.6
    endloop
  endfacet
  facet normal 0 0 1
    outer loop
      vertex 10.1127 7.34731 3.6
      vertex 13.0656 9.49273 3.6
      vertex 11.7728 11.0554 3.6
    endloop
  endfacet
  facet normal 0 0 1
    outer loop
      vertex 15.0159 5.94521 3.6
      vertex 11.6222 4.60156 3.6
      vertex 12.1073 3.10862 3.6
    endloop
  endfacet
  facet normal 0 0 1
    outer loop
      vertex 14.1524 7.78032 3.6
      vertex 10.9538 6.02192 3.6
      vertex 11.6222 4.60156 3.6
    endloop
  endfacet
  facet normal 0 0 1
    outer loop
      vertex 9.11211 8.55684 3.6
      vertex 11.7728 11.0554 3.6
      vertex 10.2944 12.4438 3.6
    endloop
  endfacet
  facet normal 0 0 1
    outer loop
      vertex 13.0656 9.49273 3.6
      vertex 10.1127 7.34731 3.6
      vertex 10.9538 6.02192 3.6
    endloop
  endfacet
  facet normal 0 0 1
    outer loop
      vertex 11.7728 11.0554 3.6
      vertex 9.11211 8.55684 3.6
      vertex 10.1127 7.34731 3.6
    endloop
  endfacet
  facet normal 0 0 1
    outer loop
      vertex 7.9678 9.63142 3.6
      vertex 10.2944 12.4438 3.6
      vertex 8.6536 13.6359 3.6
    endloop
  endfacet
  facet normal 0 0 1
    outer loop
      vertex 10.2944 12.4438 3.6
      vertex 7.9678 9.63142 3.6
      vertex 9.11211 8.55684 3.6
    endloop
  endfacet
  facet normal 0 0 1
    outer loop
      vertex 6.69783 10.5541 3.6
      vertex 8.6536 13.6359 3.6
      vertex 6.87634 14.613 3.6
    endloop
  endfacet
  facet normal 0 0 1
    outer loop
      vertex 8.6536 13.6359 3.6
      vertex 6.69783 10.5541 3.6
      vertex 7.9678 9.63142 3.6
    endloop
  endfacet
  facet normal 0 0 1
    outer loop
      vertex 6.87634 14.613 3.6
      vertex 5.32224 11.3103 3.6
      vertex 6.69783 10.5541 3.6
    endloop
  endfacet
  facet normal 0 0 1
    outer loop
      vertex 4.99062 15.3596 3.6
      vertex 5.32224 11.3103 3.6
      vertex 6.87634 14.613 3.6
    endloop
  endfacet
  facet normal 0 0 1
    outer loop
      vertex 4.99062 15.3596 3.6
      vertex 3.86271 11.8882 3.6
      vertex 5.32224 11.3103 3.6
    endloop
  endfacet
  facet normal 0 0 1
    outer loop
      vertex 3.02621 15.8639 3.6
      vertex 3.86271 11.8882 3.6
      vertex 4.99062 15.3596 3.6
    endloop
  endfacet
  facet normal 0 0 1
    outer loop
      vertex 3.02621 15.8639 3.6
      vertex 2.34227 12.2786 3.6
      vertex 3.86271 11.8882 3.6
    endloop
  endfacet
  facet normal 0 0 1
    outer loop
      vertex 1.01407 16.1181 3.6
      vertex 2.34227 12.2786 3.6
      vertex 3.02621 15.8639 3.6
    endloop
  endfacet
  facet normal 0 0 1
    outer loop
      vertex 1.01407 16.1181 3.6
      vertex 0.784881 12.4753 3.6
      vertex 2.34227 12.2786 3.6
    endloop
  endfacet
  facet normal 0 0 1
    outer loop
      vertex 1.01407 16.1181 3.6
      vertex -0.784881 12.4753 3.6
      vertex 0.784881 12.4753 3.6
    endloop
  endfacet
  facet normal -0 0 1
    outer loop
      vertex -1.01407 16.1181 3.6
      vertex -0.784881 12.4753 3.6
      vertex 1.01407 16.1181 3.6
    endloop
  endfacet
  facet normal 0 0 1
    outer loop
      vertex -1.01407 16.1181 3.6
      vertex -2.34227 12.2786 3.6
      vertex -0.784881 12.4753 3.6
    endloop
  endfacet
  facet normal -0 0 1
    outer loop
      vertex -3.02621 15.8639 3.6
      vertex -2.34227 12.2786 3.6
      vertex -1.01407 16.1181 3.6
    endloop
  endfacet
  facet normal 0 0 1
    outer loop
      vertex -3.02621 15.8639 3.6
      vertex -3.86271 11.8882 3.6
      vertex -2.34227 12.2786 3.6
    endloop
  endfacet
  facet normal -0 0 1
    outer loop
      vertex -4.99062 15.3596 3.6
      vertex -3.86271 11.8882 3.6
      vertex -3.02621 15.8639 3.6
    endloop
  endfacet
  facet normal 0 0 1
    outer loop
      vertex -4.99062 15.3596 3.6
      vertex -5.32224 11.3103 3.6
      vertex -3.86271 11.8882 3.6
    endloop
  endfacet
  facet normal -0 0 1
    outer loop
      vertex -6.87634 14.613 3.6
      vertex -5.32224 11.3103 3.6
      vertex -4.99062 15.3596 3.6
    endloop
  endfacet
  facet normal 0 0 1
    outer loop
      vertex -5.32224 11.3103 3.6
      vertex -6.87634 14.613 3.6
      vertex -6.69783 10.5541 3.6
    endloop
  endfacet
  facet normal -0 0 1
    outer loop
      vertex -8.6536 13.6359 3.6
      vertex -6.69783 10.5541 3.6
      vertex -6.87634 14.613 3.6
    endloop
  endfacet
  facet normal 0 0 1
    outer loop
      vertex -6.69783 10.5541 3.6
      vertex -8.6536 13.6359 3.6
      vertex -7.9678 9.63142 3.6
    endloop
  endfacet
  facet normal -0 0 1
    outer loop
      vertex -10.2944 12.4438 3.6
      vertex -7.9678 9.63142 3.6
      vertex -8.6536 13.6359 3.6
    endloop
  endfacet
  facet normal 0 0 1
    outer loop
      vertex -7.9678 9.63142 3.6
      vertex -10.2944 12.4438 3.6
      vertex -9.11211 8.55684 3.6
    endloop
  endfacet
  facet normal -0 0 1
    outer loop
      vertex -11.7728 11.0554 3.6
      vertex -9.11211 8.55684 3.6
      vertex -10.2944 12.4438 3.6
    endloop
  endfacet
  facet normal 0 0 1
    outer loop
      vertex -9.11211 8.55684 3.6
      vertex -11.7728 11.0554 3.6
      vertex -10.1127 7.34731 3.6
    endloop
  endfacet
  facet normal -0 0 1
    outer loop
      vertex -13.0656 9.49273 3.6
      vertex -10.1127 7.34731 3.6
      vertex -11.7728 11.0554 3.6
    endloop
  endfacet
  facet normal 0 0 1
    outer loop
      vertex -10.1127 7.34731 3.6
      vertex -13.0656 9.49273 3.6
      vertex -10.9538 6.02192 3.6
    endloop
  endfacet
  facet normal -0 0 1
    outer loop
      vertex -14.1524 7.78032 3.6
      vertex -10.9538 6.02192 3.6
      vertex -13.0656 9.49273 3.6
    endloop
  endfacet
  facet normal 0 0 1
    outer loop
      vertex -10.9538 6.02192 3.6
      vertex -14.1524 7.78032 3.6
      vertex -11.6222 4.60156 3.6
    endloop
  endfacet
  facet normal 0 0 1
    outer loop
      vertex -11.6222 4.60156 3.6
      vertex -15.0159 5.94521 3.6
      vertex -12.1073 3.10862 3.6
    endloop
  endfacet
  facet normal -0 0 1
    outer loop
      vertex -15.0159 5.94521 3.6
      vertex -11.6222 4.60156 3.6
      vertex -14.1524 7.78032 3.6
    endloop
  endfacet
  facet normal -0 0 1
    outer loop
      vertex 11.6222 -4.60156 3.6
      vertex 15.0159 -5.94521 3.6
      vertex 12.1073 -3.10862 3.6
    endloop
  endfacet
  facet normal 0 0 1
    outer loop
      vertex 15.0159 -5.94521 3.6
      vertex 11.6222 -4.60156 3.6
      vertex 14.1524 -7.78032 3.6
    endloop
  endfacet
  facet normal -0 0 1
    outer loop
      vertex 10.9538 -6.02192 3.6
      vertex 14.1524 -7.78032 3.6
      vertex 11.6222 -4.60156 3.6
    endloop
  endfacet
  facet normal 0 0 1
    outer loop
      vertex 14.1524 -7.78032 3.6
      vertex 10.9538 -6.02192 3.6
      vertex 13.0656 -9.49273 3.6
    endloop
  endfacet
  facet normal -0 0 1
    outer loop
      vertex 10.1127 -7.34731 3.6
      vertex 13.0656 -9.49273 3.6
      vertex 10.9538 -6.02192 3.6
    endloop
  endfacet
  facet normal 0 0 1
    outer loop
      vertex 13.0656 -9.49273 3.6
      vertex 10.1127 -7.34731 3.6
      vertex 11.7728 -11.0554 3.6
    endloop
  endfacet
  facet normal -0 0 1
    outer loop
      vertex 9.11211 -8.55684 3.6
      vertex 11.7728 -11.0554 3.6
      vertex 10.1127 -7.34731 3.6
    endloop
  endfacet
  facet normal 0 0 1
    outer loop
      vertex 11.7728 -11.0554 3.6
      vertex 9.11211 -8.55684 3.6
      vertex 10.2944 -12.4438 3.6
    endloop
  endfacet
  facet normal -0 0 1
    outer loop
      vertex 7.9678 -9.63142 3.6
      vertex 10.2944 -12.4438 3.6
      vertex 9.11211 -8.55684 3.6
    endloop
  endfacet
  facet normal 0 0 1
    outer loop
      vertex 10.2944 -12.4438 3.6
      vertex 7.9678 -9.63142 3.6
      vertex 8.6536 -13.6359 3.6
    endloop
  endfacet
  facet normal -0 0 1
    outer loop
      vertex 6.69783 -10.5541 3.6
      vertex 8.6536 -13.6359 3.6
      vertex 7.9678 -9.63142 3.6
    endloop
  endfacet
  facet normal 0 0 1
    outer loop
      vertex 8.6536 -13.6359 3.6
      vertex 6.69783 -10.5541 3.6
      vertex 6.87634 -14.613 3.6
    endloop
  endfacet
  facet normal -0 0 1
    outer loop
      vertex 5.32224 -11.3103 3.6
      vertex 6.87634 -14.613 3.6
      vertex 6.69783 -10.5541 3.6
    endloop
  endfacet
  facet normal 0 0 1
    outer loop
      vertex 5.32224 -11.3103 3.6
      vertex 4.99062 -15.3596 3.6
      vertex 6.87634 -14.613 3.6
    endloop
  endfacet
  facet normal -0 0 1
    outer loop
      vertex 3.86271 -11.8882 3.6
      vertex 4.99062 -15.3596 3.6
      vertex 5.32224 -11.3103 3.6
    endloop
  endfacet
  facet normal 0 0 1
    outer loop
      vertex 3.86271 -11.8882 3.6
      vertex 3.02621 -15.8639 3.6
      vertex 4.99062 -15.3596 3.6
    endloop
  endfacet
  facet normal -0 0 1
    outer loop
      vertex 2.34227 -12.2786 3.6
      vertex 3.02621 -15.8639 3.6
      vertex 3.86271 -11.8882 3.6
    endloop
  endfacet
  facet normal 0 0 1
    outer loop
      vertex 2.34227 -12.2786 3.6
      vertex 1.01407 -16.1181 3.6
      vertex 3.02621 -15.8639 3.6
    endloop
  endfacet
  facet normal -0 0 1
    outer loop
      vertex 0.784881 -12.4753 3.6
      vertex 1.01407 -16.1181 3.6
      vertex 2.34227 -12.2786 3.6
    endloop
  endfacet
  facet normal -0 0 1
    outer loop
      vertex -0.784881 -12.4753 3.6
      vertex 1.01407 -16.1181 3.6
      vertex 0.784881 -12.4753 3.6
    endloop
  endfacet
  facet normal 0 0 1
    outer loop
      vertex -0.784881 -12.4753 3.6
      vertex -1.01407 -16.1181 3.6
      vertex 1.01407 -16.1181 3.6
    endloop
  endfacet
  facet normal 0 0 1
    outer loop
      vertex -2.34227 -12.2786 3.6
      vertex -1.01407 -16.1181 3.6
      vertex -0.784881 -12.4753 3.6
    endloop
  endfacet
  facet normal 0 0 1
    outer loop
      vertex -2.34227 -12.2786 3.6
      vertex -3.02621 -15.8639 3.6
      vertex -1.01407 -16.1181 3.6
    endloop
  endfacet
  facet normal 0 0 1
    outer loop
      vertex -3.86271 -11.8882 3.6
      vertex -3.02621 -15.8639 3.6
      vertex -2.34227 -12.2786 3.6
    endloop
  endfacet
  facet normal 0 0 1
    outer loop
      vertex -3.86271 -11.8882 3.6
      vertex -4.99062 -15.3596 3.6
      vertex -3.02621 -15.8639 3.6
    endloop
  endfacet
  facet normal 0 0 1
    outer loop
      vertex -5.32224 -11.3103 3.6
      vertex -4.99062 -15.3596 3.6
      vertex -3.86271 -11.8882 3.6
    endloop
  endfacet
  facet normal 0 0 1
    outer loop
      vertex -6.87634 -14.613 3.6
      vertex -5.32224 -11.3103 3.6
      vertex -6.69783 -10.5541 3.6
    endloop
  endfacet
  facet normal 0 0 1
    outer loop
      vertex -5.32224 -11.3103 3.6
      vertex -6.87634 -14.613 3.6
      vertex -4.99062 -15.3596 3.6
    endloop
  endfacet
  facet normal 0 0 1
    outer loop
      vertex -8.6536 -13.6359 3.6
      vertex -6.69783 -10.5541 3.6
      vertex -7.9678 -9.63142 3.6
    endloop
  endfacet
  facet normal 0 0 1
    outer loop
      vertex -6.69783 -10.5541 3.6
      vertex -8.6536 -13.6359 3.6
      vertex -6.87634 -14.613 3.6
    endloop
  endfacet
  facet normal 0 0 1
    outer loop
      vertex -10.2944 -12.4438 3.6
      vertex -7.9678 -9.63142 3.6
      vertex -9.11211 -8.55684 3.6
    endloop
  endfacet
  facet normal 0 0 1
    outer loop
      vertex -11.7728 -11.0554 3.6
      vertex -9.11211 -8.55684 3.6
      vertex -10.1127 -7.34731 3.6
    endloop
  endfacet
  facet normal 0 0 1
    outer loop
      vertex -7.9678 -9.63142 3.6
      vertex -10.2944 -12.4438 3.6
      vertex -8.6536 -13.6359 3.6
    endloop
  endfacet
  facet normal 0 0 1
    outer loop
      vertex -13.0656 -9.49273 3.6
      vertex -10.1127 -7.34731 3.6
      vertex -10.9538 -6.02192 3.6
    endloop
  endfacet
  facet normal 0 0 1
    outer loop
      vertex -14.1524 -7.78032 3.6
      vertex -10.9538 -6.02192 3.6
      vertex -11.6222 -4.60156 3.6
    endloop
  endfacet
  facet normal 0 0 1
    outer loop
      vertex -9.11211 -8.55684 3.6
      vertex -11.7728 -11.0554 3.6
      vertex -10.2944 -12.4438 3.6
    endloop
  endfacet
  facet normal 0 0 1
    outer loop
      vertex -15.0159 -5.94521 3.6
      vertex -11.6222 -4.60156 3.6
      vertex -12.1073 -3.10862 3.6
    endloop
  endfacet
  facet normal 0 0 1
    outer loop
      vertex -15.6426 -4.01634 3.6
      vertex -12.1073 -3.10862 3.6
      vertex -12.4014 -1.56666 3.6
    endloop
  endfacet
  facet normal 0 0 1
    outer loop
      vertex -10.1127 -7.34731 3.6
      vertex -13.0656 -9.49273 3.6
      vertex -11.7728 -11.0554 3.6
    endloop
  endfacet
  facet normal 0 0 1
    outer loop
      vertex -16.0227 -2.02413 3.6
      vertex -12.4014 -1.56666 3.6
      vertex -12.5 0 3.6
    endloop
  endfacet
  facet normal -0 0 1
    outer loop
      vertex -15.6426 4.01634 3.6
      vertex -12.1073 3.10862 3.6
      vertex -15.0159 5.94521 3.6
    endloop
  endfacet
  facet normal 0 0 1
    outer loop
      vertex -12.1073 3.10862 3.6
      vertex -15.6426 4.01634 3.6
      vertex -12.4014 1.56666 3.6
    endloop
  endfacet
  facet normal 0 0 1
    outer loop
      vertex -10.9538 -6.02192 3.6
      vertex -14.1524 -7.78032 3.6
      vertex -13.0656 -9.49273 3.6
    endloop
  endfacet
  facet normal -0 0 1
    outer loop
      vertex -16.0227 2.02413 3.6
      vertex -12.4014 1.56666 3.6
      vertex -15.6426 4.01634 3.6
    endloop
  endfacet
  facet normal 0 0 1
    outer loop
      vertex -11.6222 -4.60156 3.6
      vertex -15.0159 -5.94521 3.6
      vertex -14.1524 -7.78032 3.6
    endloop
  endfacet
  facet normal 0 0 1
    outer loop
      vertex -12.4014 1.56666 3.6
      vertex -16.0227 2.02413 3.6
      vertex -12.5 0 3.6
    endloop
  endfacet
  facet normal 0 0 1
    outer loop
      vertex -12.1073 -3.10862 3.6
      vertex -15.6426 -4.01634 3.6
      vertex -15.0159 -5.94521 3.6
    endloop
  endfacet
  facet normal 0 0 1
    outer loop
      vertex -16.15 0 3.6
      vertex -12.5 0 3.6
      vertex -16.0227 2.02413 3.6
    endloop
  endfacet
  facet normal 0 0 1
    outer loop
      vertex -12.4014 -1.56666 3.6
      vertex -16.0227 -2.02413 3.6
      vertex -15.6426 -4.01634 3.6
    endloop
  endfacet
  facet normal 0 0 1
    outer loop
      vertex -12.5 0 3.6
      vertex -16.15 0 3.6
      vertex -16.0227 -2.02413 3.6
    endloop
  endfacet
  facet normal -0.248655 0.968592 0
    outer loop
      vertex -3.02621 15.8639 0
      vertex -4.99062 15.3596 3.6
      vertex -3.02621 15.8639 3.6
    endloop
  endfacet
  facet normal -0.248655 0.968592 0
    outer loop
      vertex -4.99062 15.3596 3.6
      vertex -3.02621 15.8639 0
      vertex -4.99062 15.3596 0
    endloop
  endfacet
  facet normal 0.982281 -0.187413 0
    outer loop
      vertex 15.6426 -4.01634 3.6
      vertex 16.0227 -2.02413 0
      vertex 16.0227 -2.02413 3.6
    endloop
  endfacet
  facet normal 0.982281 -0.187413 0
    outer loop
      vertex 16.0227 -2.02413 0
      vertex 15.6426 -4.01634 3.6
      vertex 15.6426 -4.01634 0
    endloop
  endfacet
  facet normal 0 0 -1
    outer loop
      vertex 12.5 0 0
      vertex 16.15 0 0
      vertex 16.0227 -2.02413 0
    endloop
  endfacet
  facet normal 0 0 -1
    outer loop
      vertex 12.4014 -1.56666 0
      vertex 16.0227 -2.02413 0
      vertex 15.6426 -4.01634 0
    endloop
  endfacet
  facet normal 0 0 -1
    outer loop
      vertex 16.15 0 0
      vertex 12.5 0 0
      vertex 16.0227 2.02413 0
    endloop
  endfacet
  facet normal 0 0 -1
    outer loop
      vertex 12.1073 -3.10862 0
      vertex 15.6426 -4.01634 0
      vertex 15.0159 -5.94521 0
    endloop
  endfacet
  facet normal 0 0 -1
    outer loop
      vertex 12.4014 1.56666 0
      vertex 16.0227 2.02413 0
      vertex 12.5 0 0
    endloop
  endfacet
  facet normal 0 0 -1
    outer loop
      vertex 11.6222 -4.60156 0
      vertex 15.0159 -5.94521 0
      vertex 14.1524 -7.78032 0
    endloop
  endfacet
  facet normal -0 0 -1
    outer loop
      vertex 16.0227 2.02413 0
      vertex 12.4014 1.56666 0
      vertex 15.6426 4.01634 0
    endloop
  endfacet
  facet normal 0 0 -1
    outer loop
      vertex 10.9538 -6.02192 0
      vertex 14.1524 -7.78032 0
      vertex 13.0656 -9.49273 0
    endloop
  endfacet
  facet normal 0 0 -1
    outer loop
      vertex 12.1073 3.10862 0
      vertex 15.6426 4.01634 0
      vertex 12.4014 1.56666 0
    endloop
  endfacet
  facet normal -0 0 -1
    outer loop
      vertex 15.6426 4.01634 0
      vertex 12.1073 3.10862 0
      vertex 15.0159 5.94521 0
    endloop
  endfacet
  facet normal 0 0 -1
    outer loop
      vertex 16.0227 -2.02413 0
      vertex 12.4014 -1.56666 0
      vertex 12.5 0 0
    endloop
  endfacet
  facet normal 0 0 -1
    outer loop
      vertex 15.6426 -4.01634 0
      vertex 12.1073 -3.10862 0
      vertex 12.4014 -1.56666 0
    endloop
  endfacet
  facet normal 0 0 -1
    outer loop
      vertex 10.1127 -7.34731 0
      vertex 13.0656 -9.49273 0
      vertex 11.7728 -11.0554 0
    endloop
  endfacet
  facet normal 0 0 -1
    outer loop
      vertex 15.0159 -5.94521 0
      vertex 11.6222 -4.60156 0
      vertex 12.1073 -3.10862 0
    endloop
  endfacet
  facet normal 0 0 -1
    outer loop
      vertex 14.1524 -7.78032 0
      vertex 10.9538 -6.02192 0
      vertex 11.6222 -4.60156 0
    endloop
  endfacet
  facet normal 0 0 -1
    outer loop
      vertex 9.11211 -8.55684 0
      vertex 11.7728 -11.0554 0
      vertex 10.2944 -12.4438 0
    endloop
  endfacet
  facet normal 0 0 -1
    outer loop
      vertex 13.0656 -9.49273 0
      vertex 10.1127 -7.34731 0
      vertex 10.9538 -6.02192 0
    endloop
  endfacet
  facet normal 0 0 -1
    outer loop
      vertex 11.7728 -11.0554 0
      vertex 9.11211 -8.55684 0
      vertex 10.1127 -7.34731 0
    endloop
  endfacet
  facet normal 0 0 -1
    outer loop
      vertex 7.9678 -9.63142 0
      vertex 10.2944 -12.4438 0
      vertex 8.6536 -13.6359 0
    endloop
  endfacet
  facet normal 0 0 -1
    outer loop
      vertex 10.2944 -12.4438 0
      vertex 7.9678 -9.63142 0
      vertex 9.11211 -8.55684 0
    endloop
  endfacet
  facet normal 0 0 -1
    outer loop
      vertex 6.69783 -10.5541 0
      vertex 8.6536 -13.6359 0
      vertex 6.87634 -14.613 0
    endloop
  endfacet
  facet normal 0 0 -1
    outer loop
      vertex 8.6536 -13.6359 0
      vertex 6.69783 -10.5541 0
      vertex 7.9678 -9.63142 0
    endloop
  endfacet
  facet normal 0 0 -1
    outer loop
      vertex 6.87634 -14.613 0
      vertex 5.32224 -11.3103 0
      vertex 6.69783 -10.5541 0
    endloop
  endfacet
  facet normal 0 0 -1
    outer loop
      vertex 4.99062 -15.3596 0
      vertex 5.32224 -11.3103 0
      vertex 6.87634 -14.613 0
    endloop
  endfacet
  facet normal 0 0 -1
    outer loop
      vertex 4.99062 -15.3596 0
      vertex 3.86271 -11.8882 0
      vertex 5.32224 -11.3103 0
    endloop
  endfacet
  facet normal 0 0 -1
    outer loop
      vertex 3.02621 -15.8639 0
      vertex 3.86271 -11.8882 0
      vertex 4.99062 -15.3596 0
    endloop
  endfacet
  facet normal 0 0 -1
    outer loop
      vertex 3.02621 -15.8639 0
      vertex 2.34227 -12.2786 0
      vertex 3.86271 -11.8882 0
    endloop
  endfacet
  facet normal 0 0 -1
    outer loop
      vertex 1.01407 -16.1181 0
      vertex 2.34227 -12.2786 0
      vertex 3.02621 -15.8639 0
    endloop
  endfacet
  facet normal 0 0 -1
    outer loop
      vertex 1.01407 -16.1181 0
      vertex 0.784881 -12.4753 0
      vertex 2.34227 -12.2786 0
    endloop
  endfacet
  facet normal 0 0 -1
    outer loop
      vertex 1.01407 -16.1181 0
      vertex -0.784881 -12.4753 0
      vertex 0.784881 -12.4753 0
    endloop
  endfacet
  facet normal 0 0 -1
    outer loop
      vertex -1.01407 -16.1181 0
      vertex -0.784881 -12.4753 0
      vertex 1.01407 -16.1181 0
    endloop
  endfacet
  facet normal 0 0 -1
    outer loop
      vertex -1.01407 -16.1181 0
      vertex -2.34227 -12.2786 0
      vertex -0.784881 -12.4753 0
    endloop
  endfacet
  facet normal 0 0 -1
    outer loop
      vertex -3.02621 -15.8639 0
      vertex -2.34227 -12.2786 0
      vertex -1.01407 -16.1181 0
    endloop
  endfacet
  facet normal 0 0 -1
    outer loop
      vertex -3.02621 -15.8639 0
      vertex -3.86271 -11.8882 0
      vertex -2.34227 -12.2786 0
    endloop
  endfacet
  facet normal 0 0 -1
    outer loop
      vertex -4.99062 -15.3596 0
      vertex -3.86271 -11.8882 0
      vertex -3.02621 -15.8639 0
    endloop
  endfacet
  facet normal 0 0 -1
    outer loop
      vertex -4.99062 -15.3596 0
      vertex -5.32224 -11.3103 0
      vertex -3.86271 -11.8882 0
    endloop
  endfacet
  facet normal 0 0 -1
    outer loop
      vertex -6.87634 -14.613 0
      vertex -5.32224 -11.3103 0
      vertex -4.99062 -15.3596 0
    endloop
  endfacet
  facet normal -0 0 -1
    outer loop
      vertex -5.32224 -11.3103 0
      vertex -6.87634 -14.613 0
      vertex -6.69783 -10.5541 0
    endloop
  endfacet
  facet normal 0 0 -1
    outer loop
      vertex -8.6536 -13.6359 0
      vertex -6.69783 -10.5541 0
      vertex -6.87634 -14.613 0
    endloop
  endfacet
  facet normal -0 0 -1
    outer loop
      vertex -6.69783 -10.5541 0
      vertex -8.6536 -13.6359 0
      vertex -7.9678 -9.63142 0
    endloop
  endfacet
  facet normal 0 0 -1
    outer loop
      vertex -10.2944 -12.4438 0
      vertex -7.9678 -9.63142 0
      vertex -8.6536 -13.6359 0
    endloop
  endfacet
  facet normal -0 0 -1
    outer loop
      vertex -7.9678 -9.63142 0
      vertex -10.2944 -12.4438 0
      vertex -9.11211 -8.55684 0
    endloop
  endfacet
  facet normal 0 0 -1
    outer loop
      vertex -11.7728 -11.0554 0
      vertex -9.11211 -8.55684 0
      vertex -10.2944 -12.4438 0
    endloop
  endfacet
  facet normal -0 0 -1
    outer loop
      vertex -9.11211 -8.55684 0
      vertex -11.7728 -11.0554 0
      vertex -10.1127 -7.34731 0
    endloop
  endfacet
  facet normal 0 0 -1
    outer loop
      vertex -13.0656 -9.49273 0
      vertex -10.1127 -7.34731 0
      vertex -11.7728 -11.0554 0
    endloop
  endfacet
  facet normal -0 0 -1
    outer loop
      vertex -10.1127 -7.34731 0
      vertex -13.0656 -9.49273 0
      vertex -10.9538 -6.02192 0
    endloop
  endfacet
  facet normal 0 0 -1
    outer loop
      vertex -14.1524 -7.78032 0
      vertex -10.9538 -6.02192 0
      vertex -13.0656 -9.49273 0
    endloop
  endfacet
  facet normal -0 0 -1
    outer loop
      vertex -10.9538 -6.02192 0
      vertex -14.1524 -7.78032 0
      vertex -11.6222 -4.60156 0
    endloop
  endfacet
  facet normal -0 0 -1
    outer loop
      vertex -11.6222 -4.60156 0
      vertex -15.0159 -5.94521 0
      vertex -12.1073 -3.10862 0
    endloop
  endfacet
  facet normal 0 0 -1
    outer loop
      vertex -15.0159 -5.94521 0
      vertex -11.6222 -4.60156 0
      vertex -14.1524 -7.78032 0
    endloop
  endfacet
  facet normal 0 0 -1
    outer loop
      vertex 11.6222 4.60156 0
      vertex 15.0159 5.94521 0
      vertex 12.1073 3.10862 0
    endloop
  endfacet
  facet normal -0 0 -1
    outer loop
      vertex 15.0159 5.94521 0
      vertex 11.6222 4.60156 0
      vertex 14.1524 7.78032 0
    endloop
  endfacet
  facet normal 0 0 -1
    outer loop
      vertex 10.9538 6.02192 0
      vertex 14.1524 7.78032 0
      vertex 11.6222 4.60156 0
    endloop
  endfacet
  facet normal -0 0 -1
    outer loop
      vertex 14.1524 7.78032 0
      vertex 10.9538 6.02192 0
      vertex 13.0656 9.49273 0
    endloop
  endfacet
  facet normal 0 0 -1
    outer loop
      vertex 10.1127 7.34731 0
      vertex 13.0656 9.49273 0
      vertex 10.9538 6.02192 0
    endloop
  endfacet
  facet normal -0 0 -1
    outer loop
      vertex 13.0656 9.49273 0
      vertex 10.1127 7.34731 0
      vertex 11.7728 11.0554 0
    endloop
  endfacet
  facet normal 0 0 -1
    outer loop
      vertex 9.11211 8.55684 0
      vertex 11.7728 11.0554 0
      vertex 10.1127 7.34731 0
    endloop
  endfacet
  facet normal -0 0 -1
    outer loop
      vertex 11.7728 11.0554 0
      vertex 9.11211 8.55684 0
      vertex 10.2944 12.4438 0
    endloop
  endfacet
  facet normal 0 0 -1
    outer loop
      vertex 7.9678 9.63142 0
      vertex 10.2944 12.4438 0
      vertex 9.11211 8.55684 0
    endloop
  endfacet
  facet normal -0 0 -1
    outer loop
      vertex 10.2944 12.4438 0
      vertex 7.9678 9.63142 0
      vertex 8.6536 13.6359 0
    endloop
  endfacet
  facet normal 0 0 -1
    outer loop
      vertex 6.69783 10.5541 0
      vertex 8.6536 13.6359 0
      vertex 7.9678 9.63142 0
    endloop
  endfacet
  facet normal -0 0 -1
    outer loop
      vertex 8.6536 13.6359 0
      vertex 6.69783 10.5541 0
      vertex 6.87634 14.613 0
    endloop
  endfacet
  facet normal 0 0 -1
    outer loop
      vertex 5.32224 11.3103 0
      vertex 6.87634 14.613 0
      vertex 6.69783 10.5541 0
    endloop
  endfacet
  facet normal 0 0 -1
    outer loop
      vertex 5.32224 11.3103 0
      vertex 4.99062 15.3596 0
      vertex 6.87634 14.613 0
    endloop
  endfacet
  facet normal 0 0 -1
    outer loop
      vertex 3.86271 11.8882 0
      vertex 4.99062 15.3596 0
      vertex 5.32224 11.3103 0
    endloop
  endfacet
  facet normal 0 0 -1
    outer loop
      vertex 3.86271 11.8882 0
      vertex 3.02621 15.8639 0
      vertex 4.99062 15.3596 0
    endloop
  endfacet
  facet normal 0 0 -1
    outer loop
      vertex 2.34227 12.2786 0
      vertex 3.02621 15.8639 0
      vertex 3.86271 11.8882 0
    endloop
  endfacet
  facet normal 0 0 -1
    outer loop
      vertex 2.34227 12.2786 0
      vertex 1.01407 16.1181 0
      vertex 3.02621 15.8639 0
    endloop
  endfacet
  facet normal 0 0 -1
    outer loop
      vertex 0.784881 12.4753 0
      vertex 1.01407 16.1181 0
      vertex 2.34227 12.2786 0
    endloop
  endfacet
  facet normal 0 0 -1
    outer loop
      vertex -0.784881 12.4753 0
      vertex 1.01407 16.1181 0
      vertex 0.784881 12.4753 0
    endloop
  endfacet
  facet normal 0 0 -1
    outer loop
      vertex -0.784881 12.4753 0
      vertex -1.01407 16.1181 0
      vertex 1.01407 16.1181 0
    endloop
  endfacet
  facet normal 0 0 -1
    outer loop
      vertex -2.34227 12.2786 0
      vertex -1.01407 16.1181 0
      vertex -0.784881 12.4753 0
    endloop
  endfacet
  facet normal 0 0 -1
    outer loop
      vertex -2.34227 12.2786 0
      vertex -3.02621 15.8639 0
      vertex -1.01407 16.1181 0
    endloop
  endfacet
  facet normal 0 0 -1
    outer loop
      vertex -3.86271 11.8882 0
      vertex -3.02621 15.8639 0
      vertex -2.34227 12.2786 0
    endloop
  endfacet
  facet normal 0 0 -1
    outer loop
      vertex -3.86271 11.8882 0
      vertex -4.99062 15.3596 0
      vertex -3.02621 15.8639 0
    endloop
  endfacet
  facet normal 0 0 -1
    outer loop
      vertex -5.32224 11.3103 0
      vertex -4.99062 15.3596 0
      vertex -3.86271 11.8882 0
    endloop
  endfacet
  facet normal 0 0 -1
    outer loop
      vertex -6.87634 14.613 0
      vertex -5.32224 11.3103 0
      vertex -6.69783 10.5541 0
    endloop
  endfacet
  facet normal 0 0 -1
    outer loop
      vertex -5.32224 11.3103 0
      vertex -6.87634 14.613 0
      vertex -4.99062 15.3596 0
    endloop
  endfacet
  facet normal 0 0 -1
    outer loop
      vertex -8.6536 13.6359 0
      vertex -6.69783 10.5541 0
      vertex -7.9678 9.63142 0
    endloop
  endfacet
  facet normal 0 0 -1
    outer loop
      vertex -6.69783 10.5541 0
      vertex -8.6536 13.6359 0
      vertex -6.87634 14.613 0
    endloop
  endfacet
  facet normal 0 0 -1
    outer loop
      vertex -10.2944 12.4438 0
      vertex -7.9678 9.63142 0
      vertex -9.11211 8.55684 0
    endloop
  endfacet
  facet normal 0 0 -1
    outer loop
      vertex -11.7728 11.0554 0
      vertex -9.11211 8.55684 0
      vertex -10.1127 7.34731 0
    endloop
  endfacet
  facet normal 0 0 -1
    outer loop
      vertex -7.9678 9.63142 0
      vertex -10.2944 12.4438 0
      vertex -8.6536 13.6359 0
    endloop
  endfacet
  facet normal 0 0 -1
    outer loop
      vertex -13.0656 9.49273 0
      vertex -10.1127 7.34731 0
      vertex -10.9538 6.02192 0
    endloop
  endfacet
  facet normal 0 0 -1
    outer loop
      vertex -14.1524 7.78032 0
      vertex -10.9538 6.02192 0
      vertex -11.6222 4.60156 0
    endloop
  endfacet
  facet normal 0 0 -1
    outer loop
      vertex -9.11211 8.55684 0
      vertex -11.7728 11.0554 0
      vertex -10.2944 12.4438 0
    endloop
  endfacet
  facet normal 0 0 -1
    outer loop
      vertex -15.0159 5.94521 0
      vertex -11.6222 4.60156 0
      vertex -12.1073 3.10862 0
    endloop
  endfacet
  facet normal 0 0 -1
    outer loop
      vertex -15.6426 4.01634 0
      vertex -12.1073 3.10862 0
      vertex -12.4014 1.56666 0
    endloop
  endfacet
  facet normal 0 0 -1
    outer loop
      vertex -10.1127 7.34731 0
      vertex -13.0656 9.49273 0
      vertex -11.7728 11.0554 0
    endloop
  endfacet
  facet normal 0 0 -1
    outer loop
      vertex -16.0227 2.02413 0
      vertex -12.4014 1.56666 0
      vertex -12.5 0 0
    endloop
  endfacet
  facet normal 0 0 -1
    outer loop
      vertex -15.6426 -4.01634 0
      vertex -12.1073 -3.10862 0
      vertex -15.0159 -5.94521 0
    endloop
  endfacet
  facet normal -0 0 -1
    outer loop
      vertex -12.1073 -3.10862 0
      vertex -15.6426 -4.01634 0
      vertex -12.4014 -1.56666 0
    endloop
  endfacet
  facet normal 0 0 -1
    outer loop
      vertex -10.9538 6.02192 0
      vertex -14.1524 7.78032 0
      vertex -13.0656 9.49273 0
    endloop
  endfacet
  facet normal 0 0 -1
    outer loop
      vertex -16.0227 -2.02413 0
      vertex -12.4014 -1.56666 0
      vertex -15.6426 -4.01634 0
    endloop
  endfacet
  facet normal 0 0 -1
    outer loop
      vertex -11.6222 4.60156 0
      vertex -15.0159 5.94521 0
      vertex -14.1524 7.78032 0
    endloop
  endfacet
  facet normal -0 0 -1
    outer loop
      vertex -12.4014 -1.56666 0
      vertex -16.0227 -2.02413 0
      vertex -12.5 0 0
    endloop
  endfacet
  facet normal 0 0 -1
    outer loop
      vertex -12.1073 3.10862 0
      vertex -15.6426 4.01634 0
      vertex -15.0159 5.94521 0
    endloop
  endfacet
  facet normal 0 0 -1
    outer loop
      vertex -16.15 0 0
      vertex -12.5 0 0
      vertex -16.0227 -2.02413 0
    endloop
  endfacet
  facet normal 0 0 -1
    outer loop
      vertex -12.4014 1.56666 0
      vertex -16.0227 2.02413 0
      vertex -15.6426 4.01634 0
    endloop
  endfacet
  facet normal 0 0 -1
    outer loop
      vertex -12.5 0 0
      vertex -16.15 0 0
      vertex -16.0227 2.02413 0
    endloop
  endfacet
  facet normal 0.368121 -0.929778 0
    outer loop
      vertex 4.99062 -15.3596 0
      vertex 6.87634 -14.613 3.6
      vertex 4.99062 -15.3596 3.6
    endloop
  endfacet
  facet normal 0.368121 -0.929778 0
    outer loop
      vertex 6.87634 -14.613 3.6
      vertex 4.99062 -15.3596 0
      vertex 6.87634 -14.613 0
    endloop
  endfacet
  facet normal 0.951061 0.309005 0
    outer loop
      vertex 15.6426 4.01634 3.6
      vertex 15.0159 5.94521 0
      vertex 15.0159 5.94521 3.6
    endloop
  endfacet
  facet normal 0.951061 0.309005 0
    outer loop
      vertex 15.0159 5.94521 0
      vertex 15.6426 4.01634 3.6
      vertex 15.6426 4.01634 0
    endloop
  endfacet
  facet normal 0.982281 0.187413 0
    outer loop
      vertex 16.0227 2.02413 3.6
      vertex 15.6426 4.01634 0
      vertex 15.6426 4.01634 3.6
    endloop
  endfacet
  facet normal 0.982281 0.187413 0
    outer loop
      vertex 15.6426 4.01634 0
      vertex 16.0227 2.02413 3.6
      vertex 16.0227 2.02413 0
    endloop
  endfacet
  facet normal 0.770502 0.637438 0
    outer loop
      vertex 13.0656 9.49273 3.6
      vertex 11.7728 11.0554 0
      vertex 11.7728 11.0554 3.6
    endloop
  endfacet
  facet normal 0.770502 0.637438 0
    outer loop
      vertex 11.7728 11.0554 0
      vertex 13.0656 9.49273 3.6
      vertex 13.0656 9.49273 0
    endloop
  endfacet
  facet normal 0.248655 0.968592 -0
    outer loop
      vertex 4.99062 15.3596 0
      vertex 3.02621 15.8639 3.6
      vertex 4.99062 15.3596 3.6
    endloop
  endfacet
  facet normal 0.248655 0.968592 0
    outer loop
      vertex 3.02621 15.8639 3.6
      vertex 4.99062 15.3596 0
      vertex 3.02621 15.8639 0
    endloop
  endfacet
  facet normal 0.125337 0.992114 -0
    outer loop
      vertex 3.02621 15.8639 0
      vertex 1.01407 16.1181 3.6
      vertex 3.02621 15.8639 3.6
    endloop
  endfacet
  facet normal 0.125337 0.992114 0
    outer loop
      vertex 1.01407 16.1181 3.6
      vertex 3.02621 15.8639 0
      vertex 1.01407 16.1181 0
    endloop
  endfacet
  facet normal 0.48177 0.876298 -0
    outer loop
      vertex 8.6536 13.6359 0
      vertex 6.87634 14.613 3.6
      vertex 8.6536 13.6359 3.6
    endloop
  endfacet
  facet normal 0.48177 0.876298 0
    outer loop
      vertex 6.87634 14.613 3.6
      vertex 8.6536 13.6359 0
      vertex 6.87634 14.613 0
    endloop
  endfacet
  facet normal -0.844312 0.535852 0
    outer loop
      vertex -14.1524 7.78032 0
      vertex -13.0656 9.49273 3.6
      vertex -13.0656 9.49273 0
    endloop
  endfacet
  facet normal -0.844312 0.535852 0
    outer loop
      vertex -13.0656 9.49273 3.6
      vertex -14.1524 7.78032 0
      vertex -14.1524 7.78032 3.6
    endloop
  endfacet
  facet normal -0.951061 0.309005 0
    outer loop
      vertex -15.6426 4.01634 0
      vertex -15.0159 5.94521 3.6
      vertex -15.0159 5.94521 0
    endloop
  endfacet
  facet normal -0.951061 0.309005 0
    outer loop
      vertex -15.0159 5.94521 3.6
      vertex -15.6426 4.01634 0
      vertex -15.6426 4.01634 3.6
    endloop
  endfacet
  facet normal -0.982281 0.187413 0
    outer loop
      vertex -16.0227 2.02413 0
      vertex -15.6426 4.01634 3.6
      vertex -15.6426 4.01634 0
    endloop
  endfacet
  facet normal -0.982281 0.187413 0
    outer loop
      vertex -15.6426 4.01634 3.6
      vertex -16.0227 2.02413 0
      vertex -16.0227 2.02413 3.6
    endloop
  endfacet
  facet normal -0.48177 0.876298 0
    outer loop
      vertex -6.87634 14.613 0
      vertex -8.6536 13.6359 3.6
      vertex -6.87634 14.613 3.6
    endloop
  endfacet
  facet normal -0.48177 0.876298 0
    outer loop
      vertex -8.6536 13.6359 3.6
      vertex -6.87634 14.613 0
      vertex -8.6536 13.6359 0
    endloop
  endfacet
  facet normal -0.587782 0.80902 0
    outer loop
      vertex -8.6536 13.6359 0
      vertex -10.2944 12.4438 3.6
      vertex -8.6536 13.6359 3.6
    endloop
  endfacet
  facet normal -0.587782 0.80902 0
    outer loop
      vertex -10.2944 12.4438 3.6
      vertex -8.6536 13.6359 0
      vertex -10.2944 12.4438 0
    endloop
  endfacet
  facet normal -0.125337 0.992114 0
    outer loop
      vertex -1.01407 16.1181 0
      vertex -3.02621 15.8639 3.6
      vertex -1.01407 16.1181 3.6
    endloop
  endfacet
  facet normal -0.125337 0.992114 0
    outer loop
      vertex -3.02621 15.8639 3.6
      vertex -1.01407 16.1181 0
      vertex -3.02621 15.8639 0
    endloop
  endfacet
  facet normal 0.998028 -0.0627672 0
    outer loop
      vertex 16.0227 -2.02413 3.6
      vertex 16.15 0 0
      vertex 16.15 0 3.6
    endloop
  endfacet
  facet normal 0.998028 -0.0627672 0
    outer loop
      vertex 16.15 0 0
      vertex 16.0227 -2.02413 3.6
      vertex 16.0227 -2.02413 0
    endloop
  endfacet
  facet normal 0.951061 -0.309005 0
    outer loop
      vertex 15.0159 -5.94521 3.6
      vertex 15.6426 -4.01634 0
      vertex 15.6426 -4.01634 3.6
    endloop
  endfacet
  facet normal 0.951061 -0.309005 0
    outer loop
      vertex 15.6426 -4.01634 0
      vertex 15.0159 -5.94521 3.6
      vertex 15.0159 -5.94521 0
    endloop
  endfacet
  facet normal -0.904834 -0.425764 0
    outer loop
      vertex -14.1524 -7.78032 0
      vertex -15.0159 -5.94521 3.6
      vertex -15.0159 -5.94521 0
    endloop
  endfacet
  facet normal -0.904834 -0.425764 0
    outer loop
      vertex -15.0159 -5.94521 3.6
      vertex -14.1524 -7.78032 0
      vertex -14.1524 -7.78032 3.6
    endloop
  endfacet
  facet normal 0.587782 -0.80902 0
    outer loop
      vertex 8.6536 -13.6359 0
      vertex 10.2944 -12.4438 3.6
      vertex 8.6536 -13.6359 3.6
    endloop
  endfacet
  facet normal 0.587782 -0.80902 0
    outer loop
      vertex 10.2944 -12.4438 3.6
      vertex 8.6536 -13.6359 0
      vertex 10.2944 -12.4438 0
    endloop
  endfacet
  facet normal -0.982281 -0.187413 0
    outer loop
      vertex -15.6426 -4.01634 0
      vertex -16.0227 -2.02413 3.6
      vertex -16.0227 -2.02413 0
    endloop
  endfacet
  facet normal -0.982281 -0.187413 0
    outer loop
      vertex -16.0227 -2.02413 3.6
      vertex -15.6426 -4.01634 0
      vertex -15.6426 -4.01634 3.6
    endloop
  endfacet
  facet normal -0.998028 -0.0627672 0
    outer loop
      vertex -16.0227 -2.02413 0
      vertex -16.15 0 3.6
      vertex -16.15 0 0
    endloop
  endfacet
  facet normal -0.998028 -0.0627672 0
    outer loop
      vertex -16.15 0 3.6
      vertex -16.0227 -2.02413 0
      vertex -16.0227 -2.02413 3.6
    endloop
  endfacet
  facet normal -0.951061 -0.309005 0
    outer loop
      vertex -15.0159 -5.94521 0
      vertex -15.6426 -4.01634 3.6
      vertex -15.6426 -4.01634 0
    endloop
  endfacet
  facet normal -0.951061 -0.309005 0
    outer loop
      vertex -15.6426 -4.01634 3.6
      vertex -15.0159 -5.94521 0
      vertex -15.0159 -5.94521 3.6
    endloop
  endfacet
  facet normal 0.684571 -0.728946 0
    outer loop
      vertex 10.2944 -12.4438 0
      vertex 11.7728 -11.0554 3.6
      vertex 10.2944 -12.4438 3.6
    endloop
  endfacet
  facet normal 0.684571 -0.728946 0
    outer loop
      vertex 11.7728 -11.0554 3.6
      vertex 10.2944 -12.4438 0
      vertex 11.7728 -11.0554 0
    endloop
  endfacet
  facet normal 0.48177 -0.876298 0
    outer loop
      vertex 6.87634 -14.613 0
      vertex 8.6536 -13.6359 3.6
      vertex 6.87634 -14.613 3.6
    endloop
  endfacet
  facet normal 0.48177 -0.876298 0
    outer loop
      vertex 8.6536 -13.6359 3.6
      vertex 6.87634 -14.613 0
      vertex 8.6536 -13.6359 0
    endloop
  endfacet
  facet normal 0.904834 -0.425764 0
    outer loop
      vertex 14.1524 -7.78032 3.6
      vertex 15.0159 -5.94521 0
      vertex 15.0159 -5.94521 3.6
    endloop
  endfacet
  facet normal 0.904834 -0.425764 0
    outer loop
      vertex 15.0159 -5.94521 0
      vertex 14.1524 -7.78032 3.6
      vertex 14.1524 -7.78032 0
    endloop
  endfacet
  facet normal 0.844312 -0.535852 0
    outer loop
      vertex 13.0656 -9.49273 3.6
      vertex 14.1524 -7.78032 0
      vertex 14.1524 -7.78032 3.6
    endloop
  endfacet
  facet normal 0.844312 -0.535852 0
    outer loop
      vertex 14.1524 -7.78032 0
      vertex 13.0656 -9.49273 3.6
      vertex 13.0656 -9.49273 0
    endloop
  endfacet
  facet normal -0.125337 -0.992114 0
    outer loop
      vertex -3.02621 -15.8639 0
      vertex -1.01407 -16.1181 3.6
      vertex -3.02621 -15.8639 3.6
    endloop
  endfacet
  facet normal -0.125337 -0.992114 -0
    outer loop
      vertex -1.01407 -16.1181 3.6
      vertex -3.02621 -15.8639 0
      vertex -1.01407 -16.1181 0
    endloop
  endfacet
  facet normal -0.368121 -0.929778 0
    outer loop
      vertex -6.87634 -14.613 0
      vertex -4.99062 -15.3596 3.6
      vertex -6.87634 -14.613 3.6
    endloop
  endfacet
  facet normal -0.368121 -0.929778 -0
    outer loop
      vertex -4.99062 -15.3596 3.6
      vertex -6.87634 -14.613 0
      vertex -4.99062 -15.3596 0
    endloop
  endfacet
  facet normal -0.587782 -0.80902 0
    outer loop
      vertex -10.2944 -12.4438 0
      vertex -8.6536 -13.6359 3.6
      vertex -10.2944 -12.4438 3.6
    endloop
  endfacet
  facet normal -0.587782 -0.80902 -0
    outer loop
      vertex -8.6536 -13.6359 3.6
      vertex -10.2944 -12.4438 0
      vertex -8.6536 -13.6359 0
    endloop
  endfacet
  facet normal -0.248655 -0.968592 0
    outer loop
      vertex -4.99062 -15.3596 0
      vertex -3.02621 -15.8639 3.6
      vertex -4.99062 -15.3596 3.6
    endloop
  endfacet
  facet normal -0.248655 -0.968592 -0
    outer loop
      vertex -3.02621 -15.8639 3.6
      vertex -4.99062 -15.3596 0
      vertex -3.02621 -15.8639 0
    endloop
  endfacet
  facet normal -0.770502 -0.637438 0
    outer loop
      vertex -11.7728 -11.0554 0
      vertex -13.0656 -9.49273 3.6
      vertex -13.0656 -9.49273 0
    endloop
  endfacet
  facet normal -0.770502 -0.637438 0
    outer loop
      vertex -13.0656 -9.49273 3.6
      vertex -11.7728 -11.0554 0
      vertex -11.7728 -11.0554 3.6
    endloop
  endfacet
  facet normal -0.684571 -0.728946 0
    outer loop
      vertex -11.7728 -11.0554 0
      vertex -10.2944 -12.4438 3.6
      vertex -11.7728 -11.0554 3.6
    endloop
  endfacet
  facet normal -0.684571 -0.728946 -0
    outer loop
      vertex -10.2944 -12.4438 3.6
      vertex -11.7728 -11.0554 0
      vertex -10.2944 -12.4438 0
    endloop
  endfacet
  facet normal 0.770502 -0.637438 0
    outer loop
      vertex 11.7728 -11.0554 3.6
      vertex 13.0656 -9.49273 0
      vertex 13.0656 -9.49273 3.6
    endloop
  endfacet
  facet normal 0.770502 -0.637438 0
    outer loop
      vertex 13.0656 -9.49273 0
      vertex 11.7728 -11.0554 3.6
      vertex 11.7728 -11.0554 0
    endloop
  endfacet
  facet normal 0.248655 -0.968592 0
    outer loop
      vertex 3.02621 -15.8639 0
      vertex 4.99062 -15.3596 3.6
      vertex 3.02621 -15.8639 3.6
    endloop
  endfacet
  facet normal 0.248655 -0.968592 0
    outer loop
      vertex 4.99062 -15.3596 3.6
      vertex 3.02621 -15.8639 0
      vertex 4.99062 -15.3596 0
    endloop
  endfacet
  facet normal 0.125337 -0.992114 0
    outer loop
      vertex 1.01407 -16.1181 0
      vertex 3.02621 -15.8639 3.6
      vertex 1.01407 -16.1181 3.6
    endloop
  endfacet
  facet normal 0.125337 -0.992114 0
    outer loop
      vertex 3.02621 -15.8639 3.6
      vertex 1.01407 -16.1181 0
      vertex 3.02621 -15.8639 0
    endloop
  endfacet
  facet normal -0.48177 -0.876298 0
    outer loop
      vertex -8.6536 -13.6359 0
      vertex -6.87634 -14.613 3.6
      vertex -8.6536 -13.6359 3.6
    endloop
  endfacet
  facet normal -0.48177 -0.876298 -0
    outer loop
      vertex -6.87634 -14.613 3.6
      vertex -8.6536 -13.6359 0
      vertex -6.87634 -14.613 0
    endloop
  endfacet
  facet normal -0.844312 -0.535852 0
    outer loop
      vertex -13.0656 -9.49273 0
      vertex -14.1524 -7.78032 3.6
      vertex -14.1524 -7.78032 0
    endloop
  endfacet
  facet normal -0.844312 -0.535852 0
    outer loop
      vertex -14.1524 -7.78032 3.6
      vertex -13.0656 -9.49273 0
      vertex -13.0656 -9.49273 3.6
    endloop
  endfacet
  facet normal -0.998025 -0.0628122 0
    outer loop
      vertex 12.5 0 0
      vertex 12.4014 1.56666 3.6
      vertex 12.4014 1.56666 0
    endloop
  endfacet
  facet normal -0.998025 -0.0628122 0
    outer loop
      vertex 12.4014 1.56666 3.6
      vertex 12.5 0 0
      vertex 12.5 0 3.6
    endloop
  endfacet
  facet normal 0.998025 -0.0628122 0
    outer loop
      vertex -12.5 0 3.6
      vertex -12.4014 1.56666 0
      vertex -12.4014 1.56666 3.6
    endloop
  endfacet
  facet normal 0.998025 -0.0628122 0
    outer loop
      vertex -12.4014 1.56666 0
      vertex -12.5 0 3.6
      vertex -12.5 0 0
    endloop
  endfacet
  facet normal 0 -1 0
    outer loop
      vertex -0.784881 12.4753 0
      vertex 0.784881 12.4753 3.6
      vertex -0.784881 12.4753 3.6
    endloop
  endfacet
  facet normal 0 -1 -0
    outer loop
      vertex 0.784881 12.4753 3.6
      vertex -0.784881 12.4753 0
      vertex 0.784881 12.4753 0
    endloop
  endfacet
  facet normal 0 1 -0
    outer loop
      vertex 0.784881 -12.4753 0
      vertex -0.784881 -12.4753 3.6
      vertex 0.784881 -12.4753 3.6
    endloop
  endfacet
  facet normal 0 1 0
    outer loop
      vertex -0.784881 -12.4753 3.6
      vertex 0.784881 -12.4753 0
      vertex -0.784881 -12.4753 0
    endloop
  endfacet
  facet normal -0.684548 -0.728968 0
    outer loop
      vertex 7.9678 9.63142 0
      vertex 9.11211 8.55684 3.6
      vertex 7.9678 9.63142 3.6
    endloop
  endfacet
  facet normal -0.684548 -0.728968 -0
    outer loop
      vertex 9.11211 8.55684 3.6
      vertex 7.9678 9.63142 0
      vertex 9.11211 8.55684 0
    endloop
  endfacet
  facet normal 0.684548 -0.728968 0
    outer loop
      vertex -9.11211 8.55684 0
      vertex -7.9678 9.63142 3.6
      vertex -9.11211 8.55684 3.6
    endloop
  endfacet
  facet normal 0.684548 -0.728968 0
    outer loop
      vertex -7.9678 9.63142 3.6
      vertex -9.11211 8.55684 0
      vertex -7.9678 9.63142 0
    endloop
  endfacet
  facet normal 0.368142 -0.92977 0
    outer loop
      vertex -5.32224 11.3103 0
      vertex -3.86271 11.8882 3.6
      vertex -5.32224 11.3103 3.6
    endloop
  endfacet
  facet normal 0.368142 -0.92977 0
    outer loop
      vertex -3.86271 11.8882 3.6
      vertex -5.32224 11.3103 0
      vertex -3.86271 11.8882 0
    endloop
  endfacet
  facet normal -0.90482 -0.425795 0
    outer loop
      vertex 11.6222 4.60156 0
      vertex 10.9538 6.02192 3.6
      vertex 10.9538 6.02192 0
    endloop
  endfacet
  facet normal -0.90482 -0.425795 0
    outer loop
      vertex 10.9538 6.02192 3.6
      vertex 11.6222 4.60156 0
      vertex 11.6222 4.60156 3.6
    endloop
  endfacet
  facet normal -0.982292 -0.187354 0
    outer loop
      vertex 12.4014 1.56666 0
      vertex 12.1073 3.10862 3.6
      vertex 12.1073 3.10862 0
    endloop
  endfacet
  facet normal -0.982292 -0.187354 0
    outer loop
      vertex 12.1073 3.10862 3.6
      vertex 12.4014 1.56666 0
      vertex 12.4014 1.56666 3.6
    endloop
  endfacet
  facet normal -0.844333 -0.535819 0
    outer loop
      vertex 10.9538 6.02192 0
      vertex 10.1127 7.34731 3.6
      vertex 10.1127 7.34731 0
    endloop
  endfacet
  facet normal -0.844333 -0.535819 0
    outer loop
      vertex 10.1127 7.34731 3.6
      vertex 10.9538 6.02192 0
      vertex 10.9538 6.02192 3.6
    endloop
  endfacet
  facet normal -0.368142 -0.92977 0
    outer loop
      vertex 3.86271 11.8882 0
      vertex 5.32224 11.3103 3.6
      vertex 3.86271 11.8882 3.6
    endloop
  endfacet
  facet normal -0.368142 -0.92977 -0
    outer loop
      vertex 5.32224 11.3103 3.6
      vertex 3.86271 11.8882 0
      vertex 5.32224 11.3103 0
    endloop
  endfacet
  facet normal -0.2487 -0.96858 0
    outer loop
      vertex 2.34227 12.2786 0
      vertex 3.86271 11.8882 3.6
      vertex 2.34227 12.2786 3.6
    endloop
  endfacet
  facet normal -0.2487 -0.96858 -0
    outer loop
      vertex 3.86271 11.8882 3.6
      vertex 2.34227 12.2786 0
      vertex 3.86271 11.8882 0
    endloop
  endfacet
  facet normal -0.481736 -0.876317 0
    outer loop
      vertex 5.32224 11.3103 0
      vertex 6.69783 10.5541 3.6
      vertex 5.32224 11.3103 3.6
    endloop
  endfacet
  facet normal -0.481736 -0.876317 -0
    outer loop
      vertex 6.69783 10.5541 3.6
      vertex 5.32224 11.3103 0
      vertex 6.69783 10.5541 0
    endloop
  endfacet
  facet normal 0.844333 -0.535819 0
    outer loop
      vertex -10.9538 6.02192 3.6
      vertex -10.1127 7.34731 0
      vertex -10.1127 7.34731 3.6
    endloop
  endfacet
  facet normal 0.844333 -0.535819 0
    outer loop
      vertex -10.1127 7.34731 0
      vertex -10.9538 6.02192 3.6
      vertex -10.9538 6.02192 0
    endloop
  endfacet
  facet normal 0.77052 -0.637416 0
    outer loop
      vertex -10.1127 7.34731 3.6
      vertex -9.11211 8.55684 0
      vertex -9.11211 8.55684 3.6
    endloop
  endfacet
  facet normal 0.77052 -0.637416 0
    outer loop
      vertex -9.11211 8.55684 0
      vertex -10.1127 7.34731 3.6
      vertex -10.1127 7.34731 0
    endloop
  endfacet
  facet normal 0.951054 -0.309025 0
    outer loop
      vertex -12.1073 3.10862 3.6
      vertex -11.6222 4.60156 0
      vertex -11.6222 4.60156 3.6
    endloop
  endfacet
  facet normal 0.951054 -0.309025 0
    outer loop
      vertex -11.6222 4.60156 0
      vertex -12.1073 3.10862 3.6
      vertex -12.1073 3.10862 0
    endloop
  endfacet
  facet normal 0.587782 -0.809019 0
    outer loop
      vertex -7.9678 9.63142 0
      vertex -6.69783 10.5541 3.6
      vertex -7.9678 9.63142 3.6
    endloop
  endfacet
  facet normal 0.587782 -0.809019 0
    outer loop
      vertex -6.69783 10.5541 3.6
      vertex -7.9678 9.63142 0
      vertex -6.69783 10.5541 0
    endloop
  endfacet
  facet normal 0.125306 -0.992118 0
    outer loop
      vertex -2.34227 12.2786 0
      vertex -0.784881 12.4753 3.6
      vertex -2.34227 12.2786 3.6
    endloop
  endfacet
  facet normal 0.125306 -0.992118 0
    outer loop
      vertex -0.784881 12.4753 3.6
      vertex -2.34227 12.2786 0
      vertex -0.784881 12.4753 0
    endloop
  endfacet
  facet normal -0.125306 0.992118 0
    outer loop
      vertex 2.34227 -12.2786 0
      vertex 0.784881 -12.4753 3.6
      vertex 2.34227 -12.2786 3.6
    endloop
  endfacet
  facet normal -0.125306 0.992118 0
    outer loop
      vertex 0.784881 -12.4753 3.6
      vertex 2.34227 -12.2786 0
      vertex 0.784881 -12.4753 0
    endloop
  endfacet
  facet normal -0.951054 -0.309025 0
    outer loop
      vertex 12.1073 3.10862 0
      vertex 11.6222 4.60156 3.6
      vertex 11.6222 4.60156 0
    endloop
  endfacet
  facet normal -0.951054 -0.309025 0
    outer loop
      vertex 11.6222 4.60156 3.6
      vertex 12.1073 3.10862 0
      vertex 12.1073 3.10862 3.6
    endloop
  endfacet
  facet normal -0.77052 -0.637416 0
    outer loop
      vertex 10.1127 7.34731 0
      vertex 9.11211 8.55684 3.6
      vertex 9.11211 8.55684 0
    endloop
  endfacet
  facet normal -0.77052 -0.637416 0
    outer loop
      vertex 9.11211 8.55684 3.6
      vertex 10.1127 7.34731 0
      vertex 10.1127 7.34731 3.6
    endloop
  endfacet
  facet normal -0.125306 -0.992118 0
    outer loop
      vertex 0.784881 12.4753 0
      vertex 2.34227 12.2786 3.6
      vertex 0.784881 12.4753 3.6
    endloop
  endfacet
  facet normal -0.125306 -0.992118 -0
    outer loop
      vertex 2.34227 12.2786 3.6
      vertex 0.784881 12.4753 0
      vertex 2.34227 12.2786 0
    endloop
  endfacet
  facet normal -0.587782 -0.809019 0
    outer loop
      vertex 6.69783 10.5541 0
      vertex 7.9678 9.63142 3.6
      vertex 6.69783 10.5541 3.6
    endloop
  endfacet
  facet normal -0.587782 -0.809019 -0
    outer loop
      vertex 7.9678 9.63142 3.6
      vertex 6.69783 10.5541 0
      vertex 7.9678 9.63142 0
    endloop
  endfacet
  facet normal 0.90482 -0.425795 0
    outer loop
      vertex -11.6222 4.60156 3.6
      vertex -10.9538 6.02192 0
      vertex -10.9538 6.02192 3.6
    endloop
  endfacet
  facet normal 0.90482 -0.425795 0
    outer loop
      vertex -10.9538 6.02192 0
      vertex -11.6222 4.60156 3.6
      vertex -11.6222 4.60156 0
    endloop
  endfacet
  facet normal 0.982292 -0.187354 0
    outer loop
      vertex -12.4014 1.56666 3.6
      vertex -12.1073 3.10862 0
      vertex -12.1073 3.10862 3.6
    endloop
  endfacet
  facet normal 0.982292 -0.187354 0
    outer loop
      vertex -12.1073 3.10862 0
      vertex -12.4014 1.56666 3.6
      vertex -12.4014 1.56666 0
    endloop
  endfacet
  facet normal 0.2487 -0.96858 0
    outer loop
      vertex -3.86271 11.8882 0
      vertex -2.34227 12.2786 3.6
      vertex -3.86271 11.8882 3.6
    endloop
  endfacet
  facet normal 0.2487 -0.96858 0
    outer loop
      vertex -2.34227 12.2786 3.6
      vertex -3.86271 11.8882 0
      vertex -2.34227 12.2786 0
    endloop
  endfacet
  facet normal -0.998025 0.0628122 0
    outer loop
      vertex 12.4014 -1.56666 0
      vertex 12.5 0 3.6
      vertex 12.5 0 0
    endloop
  endfacet
  facet normal -0.998025 0.0628122 0
    outer loop
      vertex 12.5 0 3.6
      vertex 12.4014 -1.56666 0
      vertex 12.4014 -1.56666 3.6
    endloop
  endfacet
  facet normal -0.684548 0.728968 0
    outer loop
      vertex 9.11211 -8.55684 0
      vertex 7.9678 -9.63142 3.6
      vertex 9.11211 -8.55684 3.6
    endloop
  endfacet
  facet normal -0.684548 0.728968 0
    outer loop
      vertex 7.9678 -9.63142 3.6
      vertex 9.11211 -8.55684 0
      vertex 7.9678 -9.63142 0
    endloop
  endfacet
  facet normal -0.982292 0.187354 0
    outer loop
      vertex 12.1073 -3.10862 0
      vertex 12.4014 -1.56666 3.6
      vertex 12.4014 -1.56666 0
    endloop
  endfacet
  facet normal -0.982292 0.187354 0
    outer loop
      vertex 12.4014 -1.56666 3.6
      vertex 12.1073 -3.10862 0
      vertex 12.1073 -3.10862 3.6
    endloop
  endfacet
  facet normal -0.368142 0.92977 0
    outer loop
      vertex 5.32224 -11.3103 0
      vertex 3.86271 -11.8882 3.6
      vertex 5.32224 -11.3103 3.6
    endloop
  endfacet
  facet normal -0.368142 0.92977 0
    outer loop
      vertex 3.86271 -11.8882 3.6
      vertex 5.32224 -11.3103 0
      vertex 3.86271 -11.8882 0
    endloop
  endfacet
  facet normal 0.481736 -0.876317 0
    outer loop
      vertex -6.69783 10.5541 0
      vertex -5.32224 11.3103 3.6
      vertex -6.69783 10.5541 3.6
    endloop
  endfacet
  facet normal 0.481736 -0.876317 0
    outer loop
      vertex -5.32224 11.3103 3.6
      vertex -6.69783 10.5541 0
      vertex -5.32224 11.3103 0
    endloop
  endfacet
  facet normal -0.77052 0.637416 0
    outer loop
      vertex 9.11211 -8.55684 0
      vertex 10.1127 -7.34731 3.6
      vertex 10.1127 -7.34731 0
    endloop
  endfacet
  facet normal -0.77052 0.637416 0
    outer loop
      vertex 10.1127 -7.34731 3.6
      vertex 9.11211 -8.55684 0
      vertex 9.11211 -8.55684 3.6
    endloop
  endfacet
  facet normal -0.481736 0.876317 0
    outer loop
      vertex 6.69783 -10.5541 0
      vertex 5.32224 -11.3103 3.6
      vertex 6.69783 -10.5541 3.6
    endloop
  endfacet
  facet normal -0.481736 0.876317 0
    outer loop
      vertex 5.32224 -11.3103 3.6
      vertex 6.69783 -10.5541 0
      vertex 5.32224 -11.3103 0
    endloop
  endfacet
  facet normal -0.90482 0.425795 0
    outer loop
      vertex 10.9538 -6.02192 0
      vertex 11.6222 -4.60156 3.6
      vertex 11.6222 -4.60156 0
    endloop
  endfacet
  facet normal -0.90482 0.425795 0
    outer loop
      vertex 11.6222 -4.60156 3.6
      vertex 10.9538 -6.02192 0
      vertex 10.9538 -6.02192 3.6
    endloop
  endfacet
  facet normal 0.368142 0.92977 -0
    outer loop
      vertex -3.86271 -11.8882 0
      vertex -5.32224 -11.3103 3.6
      vertex -3.86271 -11.8882 3.6
    endloop
  endfacet
  facet normal 0.368142 0.92977 0
    outer loop
      vertex -5.32224 -11.3103 3.6
      vertex -3.86271 -11.8882 0
      vertex -5.32224 -11.3103 0
    endloop
  endfacet
  facet normal 0.77052 0.637416 0
    outer loop
      vertex -9.11211 -8.55684 3.6
      vertex -10.1127 -7.34731 0
      vertex -10.1127 -7.34731 3.6
    endloop
  endfacet
  facet normal 0.77052 0.637416 0
    outer loop
      vertex -10.1127 -7.34731 0
      vertex -9.11211 -8.55684 3.6
      vertex -9.11211 -8.55684 0
    endloop
  endfacet
  facet normal 0.951054 0.309025 0
    outer loop
      vertex -11.6222 -4.60156 3.6
      vertex -12.1073 -3.10862 0
      vertex -12.1073 -3.10862 3.6
    endloop
  endfacet
  facet normal 0.951054 0.309025 0
    outer loop
      vertex -12.1073 -3.10862 0
      vertex -11.6222 -4.60156 3.6
      vertex -11.6222 -4.60156 0
    endloop
  endfacet
  facet normal -0.2487 0.96858 0
    outer loop
      vertex 3.86271 -11.8882 0
      vertex 2.34227 -12.2786 3.6
      vertex 3.86271 -11.8882 3.6
    endloop
  endfacet
  facet normal -0.2487 0.96858 0
    outer loop
      vertex 2.34227 -12.2786 3.6
      vertex 3.86271 -11.8882 0
      vertex 2.34227 -12.2786 0
    endloop
  endfacet
  facet normal -0.844333 0.535819 0
    outer loop
      vertex 10.1127 -7.34731 0
      vertex 10.9538 -6.02192 3.6
      vertex 10.9538 -6.02192 0
    endloop
  endfacet
  facet normal -0.844333 0.535819 0
    outer loop
      vertex 10.9538 -6.02192 3.6
      vertex 10.1127 -7.34731 0
      vertex 10.1127 -7.34731 3.6
    endloop
  endfacet
  facet normal -0.587782 0.809019 0
    outer loop
      vertex 7.9678 -9.63142 0
      vertex 6.69783 -10.5541 3.6
      vertex 7.9678 -9.63142 3.6
    endloop
  endfacet
  facet normal -0.587782 0.809019 0
    outer loop
      vertex 6.69783 -10.5541 3.6
      vertex 7.9678 -9.63142 0
      vertex 6.69783 -10.5541 0
    endloop
  endfacet
  facet normal -0.951054 0.309025 0
    outer loop
      vertex 11.6222 -4.60156 0
      vertex 12.1073 -3.10862 3.6
      vertex 12.1073 -3.10862 0
    endloop
  endfacet
  facet normal -0.951054 0.309025 0
    outer loop
      vertex 12.1073 -3.10862 3.6
      vertex 11.6222 -4.60156 0
      vertex 11.6222 -4.60156 3.6
    endloop
  endfacet
  facet normal 0.587782 0.809019 -0
    outer loop
      vertex -6.69783 -10.5541 0
      vertex -7.9678 -9.63142 3.6
      vertex -6.69783 -10.5541 3.6
    endloop
  endfacet
  facet normal 0.587782 0.809019 0
    outer loop
      vertex -7.9678 -9.63142 3.6
      vertex -6.69783 -10.5541 0
      vertex -7.9678 -9.63142 0
    endloop
  endfacet
  facet normal 0.2487 0.96858 -0
    outer loop
      vertex -2.34227 -12.2786 0
      vertex -3.86271 -11.8882 3.6
      vertex -2.34227 -12.2786 3.6
    endloop
  endfacet
  facet normal 0.2487 0.96858 0
    outer loop
      vertex -3.86271 -11.8882 3.6
      vertex -2.34227 -12.2786 0
      vertex -3.86271 -11.8882 0
    endloop
  endfacet
  facet normal 0.684548 0.728968 -0
    outer loop
      vertex -7.9678 -9.63142 0
      vertex -9.11211 -8.55684 3.6
      vertex -7.9678 -9.63142 3.6
    endloop
  endfacet
  facet normal 0.684548 0.728968 0
    outer loop
      vertex -9.11211 -8.55684 3.6
      vertex -7.9678 -9.63142 0
      vertex -9.11211 -8.55684 0
    endloop
  endfacet
  facet normal 0.90482 0.425795 0
    outer loop
      vertex -10.9538 -6.02192 3.6
      vertex -11.6222 -4.60156 0
      vertex -11.6222 -4.60156 3.6
    endloop
  endfacet
  facet normal 0.90482 0.425795 0
    outer loop
      vertex -11.6222 -4.60156 0
      vertex -10.9538 -6.02192 3.6
      vertex -10.9538 -6.02192 0
    endloop
  endfacet
  facet normal 0.982292 0.187354 0
    outer loop
      vertex -12.1073 -3.10862 3.6
      vertex -12.4014 -1.56666 0
      vertex -12.4014 -1.56666 3.6
    endloop
  endfacet
  facet normal 0.982292 0.187354 0
    outer loop
      vertex -12.4014 -1.56666 0
      vertex -12.1073 -3.10862 3.6
      vertex -12.1073 -3.10862 0
    endloop
  endfacet
  facet normal 0.998025 0.0628122 0
    outer loop
      vertex -12.4014 -1.56666 3.6
      vertex -12.5 0 0
      vertex -12.5 0 3.6
    endloop
  endfacet
  facet normal 0.998025 0.0628122 0
    outer loop
      vertex -12.5 0 0
      vertex -12.4014 -1.56666 3.6
      vertex -12.4014 -1.56666 0
    endloop
  endfacet
  facet normal 0.481736 0.876317 -0
    outer loop
      vertex -5.32224 -11.3103 0
      vertex -6.69783 -10.5541 3.6
      vertex -5.32224 -11.3103 3.6
    endloop
  endfacet
  facet normal 0.481736 0.876317 0
    outer loop
      vertex -6.69783 -10.5541 3.6
      vertex -5.32224 -11.3103 0
      vertex -6.69783 -10.5541 0
    endloop
  endfacet
  facet normal 0.125306 0.992118 -0
    outer loop
      vertex -0.784881 -12.4753 0
      vertex -2.34227 -12.2786 3.6
      vertex -0.784881 -12.4753 3.6
    endloop
  endfacet
  facet normal 0.125306 0.992118 0
    outer loop
      vertex -2.34227 -12.2786 3.6
      vertex -0.784881 -12.4753 0
      vertex -2.34227 -12.2786 0
    endloop
  endfacet
  facet normal 0.844333 0.535819 0
    outer loop
      vertex -10.1127 -7.34731 3.6
      vertex -10.9538 -6.02192 0
      vertex -10.9538 -6.02192 3.6
    endloop
  endfacet
  facet normal 0.844333 0.535819 0
    outer loop
      vertex -10.9538 -6.02192 0
      vertex -10.1127 -7.34731 3.6
      vertex -10.1127 -7.34731 0
    endloop
  endfacet
endsolid OpenSCAD_Model
