solid OpenSCAD_Model
  facet normal 0.998027 0.0627839 0
    outer loop
      vertex 50.2 0 10
      vertex 49.8042 6.29173 0
      vertex 49.8042 6.29173 10
    endloop
  endfacet
  facet normal 0.998027 0.0627839 0
    outer loop
      vertex 49.8042 6.29173 0
      vertex 50.2 0 10
      vertex 50.2 0 0
    endloop
  endfacet
  facet normal -0.998027 0.0627839 0
    outer loop
      vertex -50.2 0 0
      vertex -49.8042 6.29173 10
      vertex -49.8042 6.29173 0
    endloop
  endfacet
  facet normal -0.998027 0.0627839 0
    outer loop
      vertex -49.8042 6.29173 10
      vertex -50.2 0 0
      vertex -50.2 0 10
    endloop
  endfacet
  facet normal 0 1 -0
    outer loop
      vertex 3.15208 50.1009 0
      vertex -3.15208 50.1009 10
      vertex 3.15208 50.1009 10
    endloop
  endfacet
  facet normal 0 1 0
    outer loop
      vertex -3.15208 50.1009 10
      vertex 3.15208 50.1009 0
      vertex -3.15208 50.1009 0
    endloop
  endfacet
  facet normal 0 -1 0
    outer loop
      vertex -3.15208 -50.1009 0
      vertex 3.15208 -50.1009 10
      vertex -3.15208 -50.1009 10
    endloop
  endfacet
  facet normal 0 -1 -0
    outer loop
      vertex 3.15208 -50.1009 10
      vertex -3.15208 -50.1009 0
      vertex 3.15208 -50.1009 0
    endloop
  endfacet
  facet normal 0.68455 0.728966 -0
    outer loop
      vertex 36.5942 34.3643 0
      vertex 31.9987 38.6798 10
      vertex 36.5942 34.3643 10
    endloop
  endfacet
  facet normal 0.68455 0.728966 0
    outer loop
      vertex 31.9987 38.6798 10
      vertex 36.5942 34.3643 0
      vertex 31.9987 38.6798 0
    endloop
  endfacet
  facet normal -0.68455 0.728966 0
    outer loop
      vertex -31.9987 38.6798 0
      vertex -36.5942 34.3643 10
      vertex -31.9987 38.6798 10
    endloop
  endfacet
  facet normal -0.68455 0.728966 0
    outer loop
      vertex -36.5942 34.3643 10
      vertex -31.9987 38.6798 0
      vertex -36.5942 34.3643 0
    endloop
  endfacet
  facet normal -0.368126 0.929776 0
    outer loop
      vertex -15.5127 47.743 0
      vertex -21.3741 45.4223 10
      vertex -15.5127 47.743 10
    endloop
  endfacet
  facet normal -0.368126 0.929776 0
    outer loop
      vertex -21.3741 45.4223 10
      vertex -15.5127 47.743 0
      vertex -21.3741 45.4223 0
    endloop
  endfacet
  facet normal 0.904824 0.425786 0
    outer loop
      vertex 46.6748 18.4799 10
      vertex 43.9906 24.184 0
      vertex 43.9906 24.184 10
    endloop
  endfacet
  facet normal 0.904824 0.425786 0
    outer loop
      vertex 43.9906 24.184 0
      vertex 46.6748 18.4799 10
      vertex 46.6748 18.4799 0
    endloop
  endfacet
  facet normal 0.982287 0.187385 0
    outer loop
      vertex 49.8042 6.29173 10
      vertex 48.6229 12.4842 0
      vertex 48.6229 12.4842 10
    endloop
  endfacet
  facet normal 0.982287 0.187385 0
    outer loop
      vertex 48.6229 12.4842 0
      vertex 49.8042 6.29173 10
      vertex 49.8042 6.29173 0
    endloop
  endfacet
  facet normal 0.368126 0.929776 -0
    outer loop
      vertex 21.3741 45.4223 0
      vertex 15.5127 47.743 10
      vertex 21.3741 45.4223 10
    endloop
  endfacet
  facet normal 0.368126 0.929776 0
    outer loop
      vertex 15.5127 47.743 10
      vertex 21.3741 45.4223 0
      vertex 15.5127 47.743 0
    endloop
  endfacet
  facet normal 0.248691 0.968583 -0
    outer loop
      vertex 15.5127 47.743 0
      vertex 9.40654 49.3108 10
      vertex 15.5127 47.743 10
    endloop
  endfacet
  facet normal 0.248691 0.968583 0
    outer loop
      vertex 9.40654 49.3108 10
      vertex 15.5127 47.743 0
      vertex 9.40654 49.3108 0
    endloop
  endfacet
  facet normal 0.481746 0.876311 -0
    outer loop
      vertex 26.8985 42.3853 0
      vertex 21.3741 45.4223 10
      vertex 26.8985 42.3853 10
    endloop
  endfacet
  facet normal 0.481746 0.876311 0
    outer loop
      vertex 21.3741 45.4223 10
      vertex 26.8985 42.3853 0
      vertex 21.3741 45.4223 0
    endloop
  endfacet
  facet normal -0.904824 0.425786 0
    outer loop
      vertex -46.6748 18.4799 0
      vertex -43.9906 24.184 10
      vertex -43.9906 24.184 0
    endloop
  endfacet
  facet normal -0.904824 0.425786 0
    outer loop
      vertex -43.9906 24.184 10
      vertex -46.6748 18.4799 0
      vertex -46.6748 18.4799 10
    endloop
  endfacet
  facet normal -0.951057 0.309014 0
    outer loop
      vertex -48.6229 12.4842 0
      vertex -46.6748 18.4799 10
      vertex -46.6748 18.4799 0
    endloop
  endfacet
  facet normal -0.951057 0.309014 0
    outer loop
      vertex -46.6748 18.4799 10
      vertex -48.6229 12.4842 0
      vertex -48.6229 12.4842 10
    endloop
  endfacet
  facet normal -0.12533 0.992115 0
    outer loop
      vertex -3.15208 50.1009 0
      vertex -9.40654 49.3108 10
      vertex -3.15208 50.1009 10
    endloop
  endfacet
  facet normal -0.12533 0.992115 0
    outer loop
      vertex -9.40654 49.3108 10
      vertex -3.15208 50.1009 0
      vertex -9.40654 49.3108 0
    endloop
  endfacet
  facet normal 0.12533 -0.992115 0
    outer loop
      vertex 3.15208 -50.1009 0
      vertex 9.40654 -49.3108 10
      vertex 3.15208 -50.1009 10
    endloop
  endfacet
  facet normal 0.12533 -0.992115 0
    outer loop
      vertex 9.40654 -49.3108 10
      vertex 3.15208 -50.1009 0
      vertex 9.40654 -49.3108 0
    endloop
  endfacet
  facet normal 0.368126 -0.929776 0
    outer loop
      vertex 15.5127 -47.743 0
      vertex 21.3741 -45.4223 10
      vertex 15.5127 -47.743 10
    endloop
  endfacet
  facet normal 0.368126 -0.929776 0
    outer loop
      vertex 21.3741 -45.4223 10
      vertex 15.5127 -47.743 0
      vertex 21.3741 -45.4223 0
    endloop
  endfacet
  facet normal 0.951057 0.309014 0
    outer loop
      vertex 48.6229 12.4842 10
      vertex 46.6748 18.4799 0
      vertex 46.6748 18.4799 10
    endloop
  endfacet
  facet normal 0.951057 0.309014 0
    outer loop
      vertex 46.6748 18.4799 0
      vertex 48.6229 12.4842 10
      vertex 48.6229 12.4842 0
    endloop
  endfacet
  facet normal 0.770511 0.637426 0
    outer loop
      vertex 40.6127 29.5068 10
      vertex 36.5942 34.3643 0
      vertex 36.5942 34.3643 10
    endloop
  endfacet
  facet normal 0.770511 0.637426 0
    outer loop
      vertex 36.5942 34.3643 0
      vertex 40.6127 29.5068 10
      vertex 40.6127 29.5068 0
    endloop
  endfacet
  facet normal 0.844332 0.535821 0
    outer loop
      vertex 43.9906 24.184 10
      vertex 40.6127 29.5068 0
      vertex 40.6127 29.5068 10
    endloop
  endfacet
  facet normal 0.844332 0.535821 0
    outer loop
      vertex 40.6127 29.5068 0
      vertex 43.9906 24.184 10
      vertex 43.9906 24.184 0
    endloop
  endfacet
  facet normal 0.12533 0.992115 -0
    outer loop
      vertex 9.40654 49.3108 0
      vertex 3.15208 50.1009 10
      vertex 9.40654 49.3108 10
    endloop
  endfacet
  facet normal 0.12533 0.992115 0
    outer loop
      vertex 3.15208 50.1009 10
      vertex 9.40654 49.3108 0
      vertex 3.15208 50.1009 0
    endloop
  endfacet
  facet normal 0.587784 0.809018 -0
    outer loop
      vertex 31.9987 38.6798 0
      vertex 26.8985 42.3853 10
      vertex 31.9987 38.6798 10
    endloop
  endfacet
  facet normal 0.587784 0.809018 0
    outer loop
      vertex 26.8985 42.3853 10
      vertex 31.9987 38.6798 0
      vertex 26.8985 42.3853 0
    endloop
  endfacet
  facet normal -0.844332 0.535821 0
    outer loop
      vertex -43.9906 24.184 0
      vertex -40.6127 29.5068 10
      vertex -40.6127 29.5068 0
    endloop
  endfacet
  facet normal -0.844332 0.535821 0
    outer loop
      vertex -40.6127 29.5068 10
      vertex -43.9906 24.184 0
      vertex -43.9906 24.184 10
    endloop
  endfacet
  facet normal -0.770511 0.637426 0
    outer loop
      vertex -40.6127 29.5068 0
      vertex -36.5942 34.3643 10
      vertex -36.5942 34.3643 0
    endloop
  endfacet
  facet normal -0.770511 0.637426 0
    outer loop
      vertex -36.5942 34.3643 10
      vertex -40.6127 29.5068 0
      vertex -40.6127 29.5068 10
    endloop
  endfacet
  facet normal -0.982287 0.187385 0
    outer loop
      vertex -49.8042 6.29173 0
      vertex -48.6229 12.4842 10
      vertex -48.6229 12.4842 0
    endloop
  endfacet
  facet normal -0.982287 0.187385 0
    outer loop
      vertex -48.6229 12.4842 10
      vertex -49.8042 6.29173 0
      vertex -49.8042 6.29173 10
    endloop
  endfacet
  facet normal 0 0 1
    outer loop
      vertex 40 0 10
      vertex 50.2 0 10
      vertex 49.8042 6.29173 10
    endloop
  endfacet
  facet normal 0 0 1
    outer loop
      vertex 39.6846 5.01333 10
      vertex 49.8042 6.29173 10
      vertex 48.6229 12.4842 10
    endloop
  endfacet
  facet normal 0 0 1
    outer loop
      vertex 50.2 0 10
      vertex 40 0 10
      vertex 49.8042 -6.29173 10
    endloop
  endfacet
  facet normal 0 0 1
    outer loop
      vertex 38.7433 9.94759 10
      vertex 48.6229 12.4842 10
      vertex 46.6748 18.4799 10
    endloop
  endfacet
  facet normal -0 0 1
    outer loop
      vertex 39.6846 -5.01333 10
      vertex 49.8042 -6.29173 10
      vertex 40 0 10
    endloop
  endfacet
  facet normal 0 0 1
    outer loop
      vertex 37.1911 14.725 10
      vertex 46.6748 18.4799 10
      vertex 43.9906 24.184 10
    endloop
  endfacet
  facet normal 0 0 1
    outer loop
      vertex 49.8042 -6.29173 10
      vertex 39.6846 -5.01333 10
      vertex 48.6229 -12.4842 10
    endloop
  endfacet
  facet normal 0 0 1
    outer loop
      vertex 35.0523 19.2701 10
      vertex 43.9906 24.184 10
      vertex 40.6127 29.5068 10
    endloop
  endfacet
  facet normal -0 0 1
    outer loop
      vertex 38.7433 -9.94759 10
      vertex 48.6229 -12.4842 10
      vertex 39.6846 -5.01333 10
    endloop
  endfacet
  facet normal 0 0 1
    outer loop
      vertex 48.6229 -12.4842 10
      vertex 38.7433 -9.94759 10
      vertex 46.6748 -18.4799 10
    endloop
  endfacet
  facet normal 0 0 1
    outer loop
      vertex 49.8042 6.29173 10
      vertex 39.6846 5.01333 10
      vertex 40 0 10
    endloop
  endfacet
  facet normal 0 0 1
    outer loop
      vertex 48.6229 12.4842 10
      vertex 38.7433 9.94759 10
      vertex 39.6846 5.01333 10
    endloop
  endfacet
  facet normal 0 0 1
    outer loop
      vertex 46.6748 18.4799 10
      vertex 37.1911 14.725 10
      vertex 38.7433 9.94759 10
    endloop
  endfacet
  facet normal 0 0 1
    outer loop
      vertex 32.3607 23.5114 10
      vertex 40.6127 29.5068 10
      vertex 36.5942 34.3643 10
    endloop
  endfacet
  facet normal 0 0 1
    outer loop
      vertex 43.9906 24.184 10
      vertex 35.0523 19.2701 10
      vertex 37.1911 14.725 10
    endloop
  endfacet
  facet normal 0 0 1
    outer loop
      vertex 40.6127 29.5068 10
      vertex 32.3607 23.5114 10
      vertex 35.0523 19.2701 10
    endloop
  endfacet
  facet normal 0 0 1
    outer loop
      vertex 29.1587 27.3819 10
      vertex 36.5942 34.3643 10
      vertex 31.9987 38.6798 10
    endloop
  endfacet
  facet normal 0 0 1
    outer loop
      vertex 36.5942 34.3643 10
      vertex 29.1587 27.3819 10
      vertex 32.3607 23.5114 10
    endloop
  endfacet
  facet normal 0 0 1
    outer loop
      vertex 25.497 30.8205 10
      vertex 31.9987 38.6798 10
      vertex 26.8985 42.3853 10
    endloop
  endfacet
  facet normal 0 0 1
    outer loop
      vertex 31.9987 38.6798 10
      vertex 25.497 30.8205 10
      vertex 29.1587 27.3819 10
    endloop
  endfacet
  facet normal 0 0 1
    outer loop
      vertex 26.8985 42.3853 10
      vertex 21.4331 33.7731 10
      vertex 25.497 30.8205 10
    endloop
  endfacet
  facet normal 0 0 1
    outer loop
      vertex 21.3741 45.4223 10
      vertex 21.4331 33.7731 10
      vertex 26.8985 42.3853 10
    endloop
  endfacet
  facet normal 0 0 1
    outer loop
      vertex 21.3741 45.4223 10
      vertex 17.0312 36.1931 10
      vertex 21.4331 33.7731 10
    endloop
  endfacet
  facet normal 0 0 1
    outer loop
      vertex 15.5127 47.743 10
      vertex 17.0312 36.1931 10
      vertex 21.3741 45.4223 10
    endloop
  endfacet
  facet normal 0 0 1
    outer loop
      vertex 15.5127 47.743 10
      vertex 12.3607 38.0423 10
      vertex 17.0312 36.1931 10
    endloop
  endfacet
  facet normal 0 0 1
    outer loop
      vertex 9.40654 49.3108 10
      vertex 12.3607 38.0423 10
      vertex 15.5127 47.743 10
    endloop
  endfacet
  facet normal 0 0 1
    outer loop
      vertex 9.40654 49.3108 10
      vertex 7.49525 39.2915 10
      vertex 12.3607 38.0423 10
    endloop
  endfacet
  facet normal 0 0 1
    outer loop
      vertex 3.15208 50.1009 10
      vertex 7.49525 39.2915 10
      vertex 9.40654 49.3108 10
    endloop
  endfacet
  facet normal 0 0 1
    outer loop
      vertex 3.15208 50.1009 10
      vertex 2.51162 39.9211 10
      vertex 7.49525 39.2915 10
    endloop
  endfacet
  facet normal 0 0 1
    outer loop
      vertex 3.15208 50.1009 10
      vertex -2.51162 39.9211 10
      vertex 2.51162 39.9211 10
    endloop
  endfacet
  facet normal -0 0 1
    outer loop
      vertex -3.15208 50.1009 10
      vertex -2.51162 39.9211 10
      vertex 3.15208 50.1009 10
    endloop
  endfacet
  facet normal 0 0 1
    outer loop
      vertex -3.15208 50.1009 10
      vertex -7.49525 39.2915 10
      vertex -2.51162 39.9211 10
    endloop
  endfacet
  facet normal -0 0 1
    outer loop
      vertex -9.40654 49.3108 10
      vertex -7.49525 39.2915 10
      vertex -3.15208 50.1009 10
    endloop
  endfacet
  facet normal 0 0 1
    outer loop
      vertex -9.40654 49.3108 10
      vertex -12.3607 38.0423 10
      vertex -7.49525 39.2915 10
    endloop
  endfacet
  facet normal -0 0 1
    outer loop
      vertex -15.5127 47.743 10
      vertex -12.3607 38.0423 10
      vertex -9.40654 49.3108 10
    endloop
  endfacet
  facet normal 0 0 1
    outer loop
      vertex -15.5127 47.743 10
      vertex -17.0312 36.1931 10
      vertex -12.3607 38.0423 10
    endloop
  endfacet
  facet normal -0 0 1
    outer loop
      vertex -21.3741 45.4223 10
      vertex -17.0312 36.1931 10
      vertex -15.5127 47.743 10
    endloop
  endfacet
  facet normal 0 0 1
    outer loop
      vertex -21.3741 45.4223 10
      vertex -21.4331 33.7731 10
      vertex -17.0312 36.1931 10
    endloop
  endfacet
  facet normal -0 0 1
    outer loop
      vertex -26.8985 42.3853 10
      vertex -21.4331 33.7731 10
      vertex -21.3741 45.4223 10
    endloop
  endfacet
  facet normal 0 0 1
    outer loop
      vertex -21.4331 33.7731 10
      vertex -26.8985 42.3853 10
      vertex -25.497 30.8205 10
    endloop
  endfacet
  facet normal -0 0 1
    outer loop
      vertex -31.9987 38.6798 10
      vertex -25.497 30.8205 10
      vertex -26.8985 42.3853 10
    endloop
  endfacet
  facet normal 0 0 1
    outer loop
      vertex -25.497 30.8205 10
      vertex -31.9987 38.6798 10
      vertex -29.1587 27.3819 10
    endloop
  endfacet
  facet normal -0 0 1
    outer loop
      vertex -36.5942 34.3643 10
      vertex -29.1587 27.3819 10
      vertex -31.9987 38.6798 10
    endloop
  endfacet
  facet normal 0 0 1
    outer loop
      vertex -29.1587 27.3819 10
      vertex -36.5942 34.3643 10
      vertex -32.3607 23.5114 10
    endloop
  endfacet
  facet normal -0 0 1
    outer loop
      vertex -40.6127 29.5068 10
      vertex -32.3607 23.5114 10
      vertex -36.5942 34.3643 10
    endloop
  endfacet
  facet normal 0 0 1
    outer loop
      vertex -32.3607 23.5114 10
      vertex -40.6127 29.5068 10
      vertex -35.0523 19.2701 10
    endloop
  endfacet
  facet normal -0 0 1
    outer loop
      vertex -43.9906 24.184 10
      vertex -35.0523 19.2701 10
      vertex -40.6127 29.5068 10
    endloop
  endfacet
  facet normal 0 0 1
    outer loop
      vertex -35.0523 19.2701 10
      vertex -43.9906 24.184 10
      vertex -37.1911 14.725 10
    endloop
  endfacet
  facet normal 0 0 1
    outer loop
      vertex -37.1911 14.725 10
      vertex -46.6748 18.4799 10
      vertex -38.7433 9.94759 10
    endloop
  endfacet
  facet normal -0 0 1
    outer loop
      vertex -46.6748 18.4799 10
      vertex -37.1911 14.725 10
      vertex -43.9906 24.184 10
    endloop
  endfacet
  facet normal -0 0 1
    outer loop
      vertex 37.1911 -14.725 10
      vertex 46.6748 -18.4799 10
      vertex 38.7433 -9.94759 10
    endloop
  endfacet
  facet normal 0 0 1
    outer loop
      vertex 46.6748 -18.4799 10
      vertex 37.1911 -14.725 10
      vertex 43.9906 -24.184 10
    endloop
  endfacet
  facet normal -0 0 1
    outer loop
      vertex 35.0523 -19.2701 10
      vertex 43.9906 -24.184 10
      vertex 37.1911 -14.725 10
    endloop
  endfacet
  facet normal 0 0 1
    outer loop
      vertex 43.9906 -24.184 10
      vertex 35.0523 -19.2701 10
      vertex 40.6127 -29.5068 10
    endloop
  endfacet
  facet normal -0 0 1
    outer loop
      vertex 32.3607 -23.5114 10
      vertex 40.6127 -29.5068 10
      vertex 35.0523 -19.2701 10
    endloop
  endfacet
  facet normal 0 0 1
    outer loop
      vertex 40.6127 -29.5068 10
      vertex 32.3607 -23.5114 10
      vertex 36.5942 -34.3643 10
    endloop
  endfacet
  facet normal -0 0 1
    outer loop
      vertex 29.1587 -27.3819 10
      vertex 36.5942 -34.3643 10
      vertex 32.3607 -23.5114 10
    endloop
  endfacet
  facet normal 0 0 1
    outer loop
      vertex 36.5942 -34.3643 10
      vertex 29.1587 -27.3819 10
      vertex 31.9987 -38.6798 10
    endloop
  endfacet
  facet normal -0 0 1
    outer loop
      vertex 25.497 -30.8205 10
      vertex 31.9987 -38.6798 10
      vertex 29.1587 -27.3819 10
    endloop
  endfacet
  facet normal 0 0 1
    outer loop
      vertex 31.9987 -38.6798 10
      vertex 25.497 -30.8205 10
      vertex 26.8985 -42.3853 10
    endloop
  endfacet
  facet normal -0 0 1
    outer loop
      vertex 21.4331 -33.7731 10
      vertex 26.8985 -42.3853 10
      vertex 25.497 -30.8205 10
    endloop
  endfacet
  facet normal 0 0 1
    outer loop
      vertex 21.4331 -33.7731 10
      vertex 21.3741 -45.4223 10
      vertex 26.8985 -42.3853 10
    endloop
  endfacet
  facet normal -0 0 1
    outer loop
      vertex 17.0312 -36.1931 10
      vertex 21.3741 -45.4223 10
      vertex 21.4331 -33.7731 10
    endloop
  endfacet
  facet normal 0 0 1
    outer loop
      vertex 17.0312 -36.1931 10
      vertex 15.5127 -47.743 10
      vertex 21.3741 -45.4223 10
    endloop
  endfacet
  facet normal -0 0 1
    outer loop
      vertex 12.3607 -38.0423 10
      vertex 15.5127 -47.743 10
      vertex 17.0312 -36.1931 10
    endloop
  endfacet
  facet normal 0 0 1
    outer loop
      vertex 12.3607 -38.0423 10
      vertex 9.40654 -49.3108 10
      vertex 15.5127 -47.743 10
    endloop
  endfacet
  facet normal -0 0 1
    outer loop
      vertex 7.49525 -39.2915 10
      vertex 9.40654 -49.3108 10
      vertex 12.3607 -38.0423 10
    endloop
  endfacet
  facet normal 0 0 1
    outer loop
      vertex 7.49525 -39.2915 10
      vertex 3.15208 -50.1009 10
      vertex 9.40654 -49.3108 10
    endloop
  endfacet
  facet normal -0 0 1
    outer loop
      vertex 2.51162 -39.9211 10
      vertex 3.15208 -50.1009 10
      vertex 7.49525 -39.2915 10
    endloop
  endfacet
  facet normal -0 0 1
    outer loop
      vertex -2.51162 -39.9211 10
      vertex 3.15208 -50.1009 10
      vertex 2.51162 -39.9211 10
    endloop
  endfacet
  facet normal 0 0 1
    outer loop
      vertex -2.51162 -39.9211 10
      vertex -3.15208 -50.1009 10
      vertex 3.15208 -50.1009 10
    endloop
  endfacet
  facet normal 0 0 1
    outer loop
      vertex -7.49525 -39.2915 10
      vertex -3.15208 -50.1009 10
      vertex -2.51162 -39.9211 10
    endloop
  endfacet
  facet normal 0 0 1
    outer loop
      vertex -7.49525 -39.2915 10
      vertex -9.40654 -49.3108 10
      vertex -3.15208 -50.1009 10
    endloop
  endfacet
  facet normal 0 0 1
    outer loop
      vertex -12.3607 -38.0423 10
      vertex -9.40654 -49.3108 10
      vertex -7.49525 -39.2915 10
    endloop
  endfacet
  facet normal 0 0 1
    outer loop
      vertex -12.3607 -38.0423 10
      vertex -15.5127 -47.743 10
      vertex -9.40654 -49.3108 10
    endloop
  endfacet
  facet normal 0 0 1
    outer loop
      vertex -17.0312 -36.1931 10
      vertex -15.5127 -47.743 10
      vertex -12.3607 -38.0423 10
    endloop
  endfacet
  facet normal 0 0 1
    outer loop
      vertex -17.0312 -36.1931 10
      vertex -21.3741 -45.4223 10
      vertex -15.5127 -47.743 10
    endloop
  endfacet
  facet normal 0 0 1
    outer loop
      vertex -21.4331 -33.7731 10
      vertex -21.3741 -45.4223 10
      vertex -17.0312 -36.1931 10
    endloop
  endfacet
  facet normal 0 0 1
    outer loop
      vertex -26.8985 -42.3853 10
      vertex -21.4331 -33.7731 10
      vertex -25.497 -30.8205 10
    endloop
  endfacet
  facet normal 0 0 1
    outer loop
      vertex -21.4331 -33.7731 10
      vertex -26.8985 -42.3853 10
      vertex -21.3741 -45.4223 10
    endloop
  endfacet
  facet normal 0 0 1
    outer loop
      vertex -31.9987 -38.6798 10
      vertex -25.497 -30.8205 10
      vertex -29.1587 -27.3819 10
    endloop
  endfacet
  facet normal 0 0 1
    outer loop
      vertex -25.497 -30.8205 10
      vertex -31.9987 -38.6798 10
      vertex -26.8985 -42.3853 10
    endloop
  endfacet
  facet normal 0 0 1
    outer loop
      vertex -36.5942 -34.3643 10
      vertex -29.1587 -27.3819 10
      vertex -32.3607 -23.5114 10
    endloop
  endfacet
  facet normal 0 0 1
    outer loop
      vertex -40.6127 -29.5068 10
      vertex -32.3607 -23.5114 10
      vertex -35.0523 -19.2701 10
    endloop
  endfacet
  facet normal 0 0 1
    outer loop
      vertex -29.1587 -27.3819 10
      vertex -36.5942 -34.3643 10
      vertex -31.9987 -38.6798 10
    endloop
  endfacet
  facet normal 0 0 1
    outer loop
      vertex -43.9906 -24.184 10
      vertex -35.0523 -19.2701 10
      vertex -37.1911 -14.725 10
    endloop
  endfacet
  facet normal 0 0 1
    outer loop
      vertex -46.6748 -18.4799 10
      vertex -37.1911 -14.725 10
      vertex -38.7433 -9.94759 10
    endloop
  endfacet
  facet normal 0 0 1
    outer loop
      vertex -48.6229 -12.4842 10
      vertex -38.7433 -9.94759 10
      vertex -39.6846 -5.01333 10
    endloop
  endfacet
  facet normal 0 0 1
    outer loop
      vertex -32.3607 -23.5114 10
      vertex -40.6127 -29.5068 10
      vertex -36.5942 -34.3643 10
    endloop
  endfacet
  facet normal 0 0 1
    outer loop
      vertex -49.8042 -6.29173 10
      vertex -39.6846 -5.01333 10
      vertex -40 0 10
    endloop
  endfacet
  facet normal -0 0 1
    outer loop
      vertex -48.6229 12.4842 10
      vertex -38.7433 9.94759 10
      vertex -46.6748 18.4799 10
    endloop
  endfacet
  facet normal 0 0 1
    outer loop
      vertex -38.7433 9.94759 10
      vertex -48.6229 12.4842 10
      vertex -39.6846 5.01333 10
    endloop
  endfacet
  facet normal 0 0 1
    outer loop
      vertex -35.0523 -19.2701 10
      vertex -43.9906 -24.184 10
      vertex -40.6127 -29.5068 10
    endloop
  endfacet
  facet normal -0 0 1
    outer loop
      vertex -49.8042 6.29173 10
      vertex -39.6846 5.01333 10
      vertex -48.6229 12.4842 10
    endloop
  endfacet
  facet normal 0 0 1
    outer loop
      vertex -37.1911 -14.725 10
      vertex -46.6748 -18.4799 10
      vertex -43.9906 -24.184 10
    endloop
  endfacet
  facet normal 0 0 1
    outer loop
      vertex -39.6846 5.01333 10
      vertex -49.8042 6.29173 10
      vertex -40 0 10
    endloop
  endfacet
  facet normal 0 0 1
    outer loop
      vertex -38.7433 -9.94759 10
      vertex -48.6229 -12.4842 10
      vertex -46.6748 -18.4799 10
    endloop
  endfacet
  facet normal 0 0 1
    outer loop
      vertex -50.2 0 10
      vertex -40 0 10
      vertex -49.8042 6.29173 10
    endloop
  endfacet
  facet normal 0 0 1
    outer loop
      vertex -39.6846 -5.01333 10
      vertex -49.8042 -6.29173 10
      vertex -48.6229 -12.4842 10
    endloop
  endfacet
  facet normal 0 0 1
    outer loop
      vertex -40 0 10
      vertex -50.2 0 10
      vertex -49.8042 -6.29173 10
    endloop
  endfacet
  facet normal -0.481746 0.876311 0
    outer loop
      vertex -21.3741 45.4223 0
      vertex -26.8985 42.3853 10
      vertex -21.3741 45.4223 10
    endloop
  endfacet
  facet normal -0.481746 0.876311 0
    outer loop
      vertex -26.8985 42.3853 10
      vertex -21.3741 45.4223 0
      vertex -26.8985 42.3853 0
    endloop
  endfacet
  facet normal -0.587784 0.809018 0
    outer loop
      vertex -26.8985 42.3853 0
      vertex -31.9987 38.6798 10
      vertex -26.8985 42.3853 10
    endloop
  endfacet
  facet normal -0.587784 0.809018 0
    outer loop
      vertex -31.9987 38.6798 10
      vertex -26.8985 42.3853 0
      vertex -31.9987 38.6798 0
    endloop
  endfacet
  facet normal -0.248691 0.968583 0
    outer loop
      vertex -9.40654 49.3108 0
      vertex -15.5127 47.743 10
      vertex -9.40654 49.3108 10
    endloop
  endfacet
  facet normal -0.248691 0.968583 0
    outer loop
      vertex -15.5127 47.743 10
      vertex -9.40654 49.3108 0
      vertex -15.5127 47.743 0
    endloop
  endfacet
  facet normal 0.998027 -0.0627839 0
    outer loop
      vertex 49.8042 -6.29173 10
      vertex 50.2 0 0
      vertex 50.2 0 10
    endloop
  endfacet
  facet normal 0.998027 -0.0627839 0
    outer loop
      vertex 50.2 0 0
      vertex 49.8042 -6.29173 10
      vertex 49.8042 -6.29173 0
    endloop
  endfacet
  facet normal 0.481746 -0.876311 0
    outer loop
      vertex 21.3741 -45.4223 0
      vertex 26.8985 -42.3853 10
      vertex 21.3741 -45.4223 10
    endloop
  endfacet
  facet normal 0.481746 -0.876311 0
    outer loop
      vertex 26.8985 -42.3853 10
      vertex 21.3741 -45.4223 0
      vertex 26.8985 -42.3853 0
    endloop
  endfacet
  facet normal 0.68455 -0.728966 0
    outer loop
      vertex 31.9987 -38.6798 0
      vertex 36.5942 -34.3643 10
      vertex 31.9987 -38.6798 10
    endloop
  endfacet
  facet normal 0.68455 -0.728966 0
    outer loop
      vertex 36.5942 -34.3643 10
      vertex 31.9987 -38.6798 0
      vertex 36.5942 -34.3643 0
    endloop
  endfacet
  facet normal 0.982287 -0.187385 0
    outer loop
      vertex 48.6229 -12.4842 10
      vertex 49.8042 -6.29173 0
      vertex 49.8042 -6.29173 10
    endloop
  endfacet
  facet normal 0.982287 -0.187385 0
    outer loop
      vertex 49.8042 -6.29173 0
      vertex 48.6229 -12.4842 10
      vertex 48.6229 -12.4842 0
    endloop
  endfacet
  facet normal -0.68455 -0.728966 0
    outer loop
      vertex -36.5942 -34.3643 0
      vertex -31.9987 -38.6798 10
      vertex -36.5942 -34.3643 10
    endloop
  endfacet
  facet normal -0.68455 -0.728966 -0
    outer loop
      vertex -31.9987 -38.6798 10
      vertex -36.5942 -34.3643 0
      vertex -31.9987 -38.6798 0
    endloop
  endfacet
  facet normal -0.904824 -0.425786 0
    outer loop
      vertex -43.9906 -24.184 0
      vertex -46.6748 -18.4799 10
      vertex -46.6748 -18.4799 0
    endloop
  endfacet
  facet normal -0.904824 -0.425786 0
    outer loop
      vertex -46.6748 -18.4799 10
      vertex -43.9906 -24.184 0
      vertex -43.9906 -24.184 10
    endloop
  endfacet
  facet normal -0.844332 -0.535821 0
    outer loop
      vertex -40.6127 -29.5068 0
      vertex -43.9906 -24.184 10
      vertex -43.9906 -24.184 0
    endloop
  endfacet
  facet normal -0.844332 -0.535821 0
    outer loop
      vertex -43.9906 -24.184 10
      vertex -40.6127 -29.5068 0
      vertex -40.6127 -29.5068 10
    endloop
  endfacet
  facet normal 0 0 -1
    outer loop
      vertex 40 0 0
      vertex 50.2 0 0
      vertex 49.8042 -6.29173 0
    endloop
  endfacet
  facet normal 0 0 -1
    outer loop
      vertex 39.6846 -5.01333 0
      vertex 49.8042 -6.29173 0
      vertex 48.6229 -12.4842 0
    endloop
  endfacet
  facet normal 0 0 -1
    outer loop
      vertex 50.2 0 0
      vertex 40 0 0
      vertex 49.8042 6.29173 0
    endloop
  endfacet
  facet normal 0 0 -1
    outer loop
      vertex 38.7433 -9.94759 0
      vertex 48.6229 -12.4842 0
      vertex 46.6748 -18.4799 0
    endloop
  endfacet
  facet normal 0 0 -1
    outer loop
      vertex 39.6846 5.01333 0
      vertex 49.8042 6.29173 0
      vertex 40 0 0
    endloop
  endfacet
  facet normal 0 0 -1
    outer loop
      vertex 37.1911 -14.725 0
      vertex 46.6748 -18.4799 0
      vertex 43.9906 -24.184 0
    endloop
  endfacet
  facet normal -0 0 -1
    outer loop
      vertex 49.8042 6.29173 0
      vertex 39.6846 5.01333 0
      vertex 48.6229 12.4842 0
    endloop
  endfacet
  facet normal 0 0 -1
    outer loop
      vertex 35.0523 -19.2701 0
      vertex 43.9906 -24.184 0
      vertex 40.6127 -29.5068 0
    endloop
  endfacet
  facet normal 0 0 -1
    outer loop
      vertex 38.7433 9.94759 0
      vertex 48.6229 12.4842 0
      vertex 39.6846 5.01333 0
    endloop
  endfacet
  facet normal -0 0 -1
    outer loop
      vertex 48.6229 12.4842 0
      vertex 38.7433 9.94759 0
      vertex 46.6748 18.4799 0
    endloop
  endfacet
  facet normal 0 0 -1
    outer loop
      vertex 49.8042 -6.29173 0
      vertex 39.6846 -5.01333 0
      vertex 40 0 0
    endloop
  endfacet
  facet normal 0 0 -1
    outer loop
      vertex 48.6229 -12.4842 0
      vertex 38.7433 -9.94759 0
      vertex 39.6846 -5.01333 0
    endloop
  endfacet
  facet normal 0 0 -1
    outer loop
      vertex 46.6748 -18.4799 0
      vertex 37.1911 -14.725 0
      vertex 38.7433 -9.94759 0
    endloop
  endfacet
  facet normal 0 0 -1
    outer loop
      vertex 32.3607 -23.5114 0
      vertex 40.6127 -29.5068 0
      vertex 36.5942 -34.3643 0
    endloop
  endfacet
  facet normal 0 0 -1
    outer loop
      vertex 43.9906 -24.184 0
      vertex 35.0523 -19.2701 0
      vertex 37.1911 -14.725 0
    endloop
  endfacet
  facet normal 0 0 -1
    outer loop
      vertex 40.6127 -29.5068 0
      vertex 32.3607 -23.5114 0
      vertex 35.0523 -19.2701 0
    endloop
  endfacet
  facet normal 0 0 -1
    outer loop
      vertex 29.1587 -27.3819 0
      vertex 36.5942 -34.3643 0
      vertex 31.9987 -38.6798 0
    endloop
  endfacet
  facet normal 0 0 -1
    outer loop
      vertex 36.5942 -34.3643 0
      vertex 29.1587 -27.3819 0
      vertex 32.3607 -23.5114 0
    endloop
  endfacet
  facet normal 0 0 -1
    outer loop
      vertex 25.497 -30.8205 0
      vertex 31.9987 -38.6798 0
      vertex 26.8985 -42.3853 0
    endloop
  endfacet
  facet normal 0 0 -1
    outer loop
      vertex 31.9987 -38.6798 0
      vertex 25.497 -30.8205 0
      vertex 29.1587 -27.3819 0
    endloop
  endfacet
  facet normal 0 0 -1
    outer loop
      vertex 26.8985 -42.3853 0
      vertex 21.4331 -33.7731 0
      vertex 25.497 -30.8205 0
    endloop
  endfacet
  facet normal 0 0 -1
    outer loop
      vertex 21.3741 -45.4223 0
      vertex 21.4331 -33.7731 0
      vertex 26.8985 -42.3853 0
    endloop
  endfacet
  facet normal 0 0 -1
    outer loop
      vertex 21.3741 -45.4223 0
      vertex 17.0312 -36.1931 0
      vertex 21.4331 -33.7731 0
    endloop
  endfacet
  facet normal 0 0 -1
    outer loop
      vertex 15.5127 -47.743 0
      vertex 17.0312 -36.1931 0
      vertex 21.3741 -45.4223 0
    endloop
  endfacet
  facet normal 0 0 -1
    outer loop
      vertex 15.5127 -47.743 0
      vertex 12.3607 -38.0423 0
      vertex 17.0312 -36.1931 0
    endloop
  endfacet
  facet normal 0 0 -1
    outer loop
      vertex 9.40654 -49.3108 0
      vertex 12.3607 -38.0423 0
      vertex 15.5127 -47.743 0
    endloop
  endfacet
  facet normal 0 0 -1
    outer loop
      vertex 9.40654 -49.3108 0
      vertex 7.49525 -39.2915 0
      vertex 12.3607 -38.0423 0
    endloop
  endfacet
  facet normal 0 0 -1
    outer loop
      vertex 3.15208 -50.1009 0
      vertex 7.49525 -39.2915 0
      vertex 9.40654 -49.3108 0
    endloop
  endfacet
  facet normal 0 0 -1
    outer loop
      vertex 3.15208 -50.1009 0
      vertex 2.51162 -39.9211 0
      vertex 7.49525 -39.2915 0
    endloop
  endfacet
  facet normal 0 0 -1
    outer loop
      vertex 3.15208 -50.1009 0
      vertex -2.51162 -39.9211 0
      vertex 2.51162 -39.9211 0
    endloop
  endfacet
  facet normal 0 0 -1
    outer loop
      vertex -3.15208 -50.1009 0
      vertex -2.51162 -39.9211 0
      vertex 3.15208 -50.1009 0
    endloop
  endfacet
  facet normal 0 0 -1
    outer loop
      vertex -3.15208 -50.1009 0
      vertex -7.49525 -39.2915 0
      vertex -2.51162 -39.9211 0
    endloop
  endfacet
  facet normal 0 0 -1
    outer loop
      vertex -9.40654 -49.3108 0
      vertex -7.49525 -39.2915 0
      vertex -3.15208 -50.1009 0
    endloop
  endfacet
  facet normal 0 0 -1
    outer loop
      vertex -9.40654 -49.3108 0
      vertex -12.3607 -38.0423 0
      vertex -7.49525 -39.2915 0
    endloop
  endfacet
  facet normal 0 0 -1
    outer loop
      vertex -15.5127 -47.743 0
      vertex -12.3607 -38.0423 0
      vertex -9.40654 -49.3108 0
    endloop
  endfacet
  facet normal 0 0 -1
    outer loop
      vertex -15.5127 -47.743 0
      vertex -17.0312 -36.1931 0
      vertex -12.3607 -38.0423 0
    endloop
  endfacet
  facet normal 0 0 -1
    outer loop
      vertex -21.3741 -45.4223 0
      vertex -17.0312 -36.1931 0
      vertex -15.5127 -47.743 0
    endloop
  endfacet
  facet normal 0 0 -1
    outer loop
      vertex -21.3741 -45.4223 0
      vertex -21.4331 -33.7731 0
      vertex -17.0312 -36.1931 0
    endloop
  endfacet
  facet normal 0 0 -1
    outer loop
      vertex -26.8985 -42.3853 0
      vertex -21.4331 -33.7731 0
      vertex -21.3741 -45.4223 0
    endloop
  endfacet
  facet normal -0 0 -1
    outer loop
      vertex -21.4331 -33.7731 0
      vertex -26.8985 -42.3853 0
      vertex -25.497 -30.8205 0
    endloop
  endfacet
  facet normal 0 0 -1
    outer loop
      vertex -31.9987 -38.6798 0
      vertex -25.497 -30.8205 0
      vertex -26.8985 -42.3853 0
    endloop
  endfacet
  facet normal -0 0 -1
    outer loop
      vertex -25.497 -30.8205 0
      vertex -31.9987 -38.6798 0
      vertex -29.1587 -27.3819 0
    endloop
  endfacet
  facet normal 0 0 -1
    outer loop
      vertex -36.5942 -34.3643 0
      vertex -29.1587 -27.3819 0
      vertex -31.9987 -38.6798 0
    endloop
  endfacet
  facet normal -0 0 -1
    outer loop
      vertex -29.1587 -27.3819 0
      vertex -36.5942 -34.3643 0
      vertex -32.3607 -23.5114 0
    endloop
  endfacet
  facet normal 0 0 -1
    outer loop
      vertex -40.6127 -29.5068 0
      vertex -32.3607 -23.5114 0
      vertex -36.5942 -34.3643 0
    endloop
  endfacet
  facet normal -0 0 -1
    outer loop
      vertex -32.3607 -23.5114 0
      vertex -40.6127 -29.5068 0
      vertex -35.0523 -19.2701 0
    endloop
  endfacet
  facet normal 0 0 -1
    outer loop
      vertex -43.9906 -24.184 0
      vertex -35.0523 -19.2701 0
      vertex -40.6127 -29.5068 0
    endloop
  endfacet
  facet normal -0 0 -1
    outer loop
      vertex -35.0523 -19.2701 0
      vertex -43.9906 -24.184 0
      vertex -37.1911 -14.725 0
    endloop
  endfacet
  facet normal -0 0 -1
    outer loop
      vertex -37.1911 -14.725 0
      vertex -46.6748 -18.4799 0
      vertex -38.7433 -9.94759 0
    endloop
  endfacet
  facet normal 0 0 -1
    outer loop
      vertex -46.6748 -18.4799 0
      vertex -37.1911 -14.725 0
      vertex -43.9906 -24.184 0
    endloop
  endfacet
  facet normal 0 0 -1
    outer loop
      vertex 37.1911 14.725 0
      vertex 46.6748 18.4799 0
      vertex 38.7433 9.94759 0
    endloop
  endfacet
  facet normal -0 0 -1
    outer loop
      vertex 46.6748 18.4799 0
      vertex 37.1911 14.725 0
      vertex 43.9906 24.184 0
    endloop
  endfacet
  facet normal 0 0 -1
    outer loop
      vertex 35.0523 19.2701 0
      vertex 43.9906 24.184 0
      vertex 37.1911 14.725 0
    endloop
  endfacet
  facet normal -0 0 -1
    outer loop
      vertex 43.9906 24.184 0
      vertex 35.0523 19.2701 0
      vertex 40.6127 29.5068 0
    endloop
  endfacet
  facet normal 0 0 -1
    outer loop
      vertex 32.3607 23.5114 0
      vertex 40.6127 29.5068 0
      vertex 35.0523 19.2701 0
    endloop
  endfacet
  facet normal -0 0 -1
    outer loop
      vertex 40.6127 29.5068 0
      vertex 32.3607 23.5114 0
      vertex 36.5942 34.3643 0
    endloop
  endfacet
  facet normal 0 0 -1
    outer loop
      vertex 29.1587 27.3819 0
      vertex 36.5942 34.3643 0
      vertex 32.3607 23.5114 0
    endloop
  endfacet
  facet normal -0 0 -1
    outer loop
      vertex 36.5942 34.3643 0
      vertex 29.1587 27.3819 0
      vertex 31.9987 38.6798 0
    endloop
  endfacet
  facet normal 0 0 -1
    outer loop
      vertex 25.497 30.8205 0
      vertex 31.9987 38.6798 0
      vertex 29.1587 27.3819 0
    endloop
  endfacet
  facet normal -0 0 -1
    outer loop
      vertex 31.9987 38.6798 0
      vertex 25.497 30.8205 0
      vertex 26.8985 42.3853 0
    endloop
  endfacet
  facet normal 0 0 -1
    outer loop
      vertex 21.4331 33.7731 0
      vertex 26.8985 42.3853 0
      vertex 25.497 30.8205 0
    endloop
  endfacet
  facet normal 0 0 -1
    outer loop
      vertex 21.4331 33.7731 0
      vertex 21.3741 45.4223 0
      vertex 26.8985 42.3853 0
    endloop
  endfacet
  facet normal 0 0 -1
    outer loop
      vertex 17.0312 36.1931 0
      vertex 21.3741 45.4223 0
      vertex 21.4331 33.7731 0
    endloop
  endfacet
  facet normal 0 0 -1
    outer loop
      vertex 17.0312 36.1931 0
      vertex 15.5127 47.743 0
      vertex 21.3741 45.4223 0
    endloop
  endfacet
  facet normal 0 0 -1
    outer loop
      vertex 12.3607 38.0423 0
      vertex 15.5127 47.743 0
      vertex 17.0312 36.1931 0
    endloop
  endfacet
  facet normal 0 0 -1
    outer loop
      vertex 12.3607 38.0423 0
      vertex 9.40654 49.3108 0
      vertex 15.5127 47.743 0
    endloop
  endfacet
  facet normal 0 0 -1
    outer loop
      vertex 7.49525 39.2915 0
      vertex 9.40654 49.3108 0
      vertex 12.3607 38.0423 0
    endloop
  endfacet
  facet normal 0 0 -1
    outer loop
      vertex 7.49525 39.2915 0
      vertex 3.15208 50.1009 0
      vertex 9.40654 49.3108 0
    endloop
  endfacet
  facet normal 0 0 -1
    outer loop
      vertex 2.51162 39.9211 0
      vertex 3.15208 50.1009 0
      vertex 7.49525 39.2915 0
    endloop
  endfacet
  facet normal 0 0 -1
    outer loop
      vertex -2.51162 39.9211 0
      vertex 3.15208 50.1009 0
      vertex 2.51162 39.9211 0
    endloop
  endfacet
  facet normal 0 0 -1
    outer loop
      vertex -2.51162 39.9211 0
      vertex -3.15208 50.1009 0
      vertex 3.15208 50.1009 0
    endloop
  endfacet
  facet normal 0 0 -1
    outer loop
      vertex -7.49525 39.2915 0
      vertex -3.15208 50.1009 0
      vertex -2.51162 39.9211 0
    endloop
  endfacet
  facet normal 0 0 -1
    outer loop
      vertex -7.49525 39.2915 0
      vertex -9.40654 49.3108 0
      vertex -3.15208 50.1009 0
    endloop
  endfacet
  facet normal 0 0 -1
    outer loop
      vertex -12.3607 38.0423 0
      vertex -9.40654 49.3108 0
      vertex -7.49525 39.2915 0
    endloop
  endfacet
  facet normal 0 0 -1
    outer loop
      vertex -12.3607 38.0423 0
      vertex -15.5127 47.743 0
      vertex -9.40654 49.3108 0
    endloop
  endfacet
  facet normal 0 0 -1
    outer loop
      vertex -17.0312 36.1931 0
      vertex -15.5127 47.743 0
      vertex -12.3607 38.0423 0
    endloop
  endfacet
  facet normal 0 0 -1
    outer loop
      vertex -17.0312 36.1931 0
      vertex -21.3741 45.4223 0
      vertex -15.5127 47.743 0
    endloop
  endfacet
  facet normal 0 0 -1
    outer loop
      vertex -21.4331 33.7731 0
      vertex -21.3741 45.4223 0
      vertex -17.0312 36.1931 0
    endloop
  endfacet
  facet normal 0 0 -1
    outer loop
      vertex -26.8985 42.3853 0
      vertex -21.4331 33.7731 0
      vertex -25.497 30.8205 0
    endloop
  endfacet
  facet normal 0 0 -1
    outer loop
      vertex -21.4331 33.7731 0
      vertex -26.8985 42.3853 0
      vertex -21.3741 45.4223 0
    endloop
  endfacet
  facet normal 0 0 -1
    outer loop
      vertex -31.9987 38.6798 0
      vertex -25.497 30.8205 0
      vertex -29.1587 27.3819 0
    endloop
  endfacet
  facet normal 0 0 -1
    outer loop
      vertex -25.497 30.8205 0
      vertex -31.9987 38.6798 0
      vertex -26.8985 42.3853 0
    endloop
  endfacet
  facet normal 0 0 -1
    outer loop
      vertex -36.5942 34.3643 0
      vertex -29.1587 27.3819 0
      vertex -32.3607 23.5114 0
    endloop
  endfacet
  facet normal 0 0 -1
    outer loop
      vertex -40.6127 29.5068 0
      vertex -32.3607 23.5114 0
      vertex -35.0523 19.2701 0
    endloop
  endfacet
  facet normal 0 0 -1
    outer loop
      vertex -29.1587 27.3819 0
      vertex -36.5942 34.3643 0
      vertex -31.9987 38.6798 0
    endloop
  endfacet
  facet normal 0 0 -1
    outer loop
      vertex -43.9906 24.184 0
      vertex -35.0523 19.2701 0
      vertex -37.1911 14.725 0
    endloop
  endfacet
  facet normal 0 0 -1
    outer loop
      vertex -46.6748 18.4799 0
      vertex -37.1911 14.725 0
      vertex -38.7433 9.94759 0
    endloop
  endfacet
  facet normal 0 0 -1
    outer loop
      vertex -48.6229 12.4842 0
      vertex -38.7433 9.94759 0
      vertex -39.6846 5.01333 0
    endloop
  endfacet
  facet normal 0 0 -1
    outer loop
      vertex -32.3607 23.5114 0
      vertex -40.6127 29.5068 0
      vertex -36.5942 34.3643 0
    endloop
  endfacet
  facet normal 0 0 -1
    outer loop
      vertex -49.8042 6.29173 0
      vertex -39.6846 5.01333 0
      vertex -40 0 0
    endloop
  endfacet
  facet normal 0 0 -1
    outer loop
      vertex -48.6229 -12.4842 0
      vertex -38.7433 -9.94759 0
      vertex -46.6748 -18.4799 0
    endloop
  endfacet
  facet normal -0 0 -1
    outer loop
      vertex -38.7433 -9.94759 0
      vertex -48.6229 -12.4842 0
      vertex -39.6846 -5.01333 0
    endloop
  endfacet
  facet normal 0 0 -1
    outer loop
      vertex -35.0523 19.2701 0
      vertex -43.9906 24.184 0
      vertex -40.6127 29.5068 0
    endloop
  endfacet
  facet normal 0 0 -1
    outer loop
      vertex -49.8042 -6.29173 0
      vertex -39.6846 -5.01333 0
      vertex -48.6229 -12.4842 0
    endloop
  endfacet
  facet normal 0 0 -1
    outer loop
      vertex -37.1911 14.725 0
      vertex -46.6748 18.4799 0
      vertex -43.9906 24.184 0
    endloop
  endfacet
  facet normal -0 0 -1
    outer loop
      vertex -39.6846 -5.01333 0
      vertex -49.8042 -6.29173 0
      vertex -40 0 0
    endloop
  endfacet
  facet normal 0 0 -1
    outer loop
      vertex -38.7433 9.94759 0
      vertex -48.6229 12.4842 0
      vertex -46.6748 18.4799 0
    endloop
  endfacet
  facet normal 0 0 -1
    outer loop
      vertex -50.2 0 0
      vertex -40 0 0
      vertex -49.8042 -6.29173 0
    endloop
  endfacet
  facet normal 0 0 -1
    outer loop
      vertex -39.6846 5.01333 0
      vertex -49.8042 6.29173 0
      vertex -48.6229 12.4842 0
    endloop
  endfacet
  facet normal 0 0 -1
    outer loop
      vertex -40 0 0
      vertex -50.2 0 0
      vertex -49.8042 6.29173 0
    endloop
  endfacet
  facet normal 0.904824 -0.425786 0
    outer loop
      vertex 43.9906 -24.184 10
      vertex 46.6748 -18.4799 0
      vertex 46.6748 -18.4799 10
    endloop
  endfacet
  facet normal 0.904824 -0.425786 0
    outer loop
      vertex 46.6748 -18.4799 0
      vertex 43.9906 -24.184 10
      vertex 43.9906 -24.184 0
    endloop
  endfacet
  facet normal 0.770511 -0.637426 0
    outer loop
      vertex 36.5942 -34.3643 10
      vertex 40.6127 -29.5068 0
      vertex 40.6127 -29.5068 10
    endloop
  endfacet
  facet normal 0.770511 -0.637426 0
    outer loop
      vertex 40.6127 -29.5068 0
      vertex 36.5942 -34.3643 10
      vertex 36.5942 -34.3643 0
    endloop
  endfacet
  facet normal -0.770511 -0.637426 0
    outer loop
      vertex -36.5942 -34.3643 0
      vertex -40.6127 -29.5068 10
      vertex -40.6127 -29.5068 0
    endloop
  endfacet
  facet normal -0.770511 -0.637426 0
    outer loop
      vertex -40.6127 -29.5068 10
      vertex -36.5942 -34.3643 0
      vertex -36.5942 -34.3643 10
    endloop
  endfacet
  facet normal -0.951057 -0.309014 0
    outer loop
      vertex -46.6748 -18.4799 0
      vertex -48.6229 -12.4842 10
      vertex -48.6229 -12.4842 0
    endloop
  endfacet
  facet normal -0.951057 -0.309014 0
    outer loop
      vertex -48.6229 -12.4842 10
      vertex -46.6748 -18.4799 0
      vertex -46.6748 -18.4799 10
    endloop
  endfacet
  facet normal 0.248691 -0.968583 0
    outer loop
      vertex 9.40654 -49.3108 0
      vertex 15.5127 -47.743 10
      vertex 9.40654 -49.3108 10
    endloop
  endfacet
  facet normal 0.248691 -0.968583 0
    outer loop
      vertex 15.5127 -47.743 10
      vertex 9.40654 -49.3108 0
      vertex 15.5127 -47.743 0
    endloop
  endfacet
  facet normal 0.587784 -0.809018 0
    outer loop
      vertex 26.8985 -42.3853 0
      vertex 31.9987 -38.6798 10
      vertex 26.8985 -42.3853 10
    endloop
  endfacet
  facet normal 0.587784 -0.809018 0
    outer loop
      vertex 31.9987 -38.6798 10
      vertex 26.8985 -42.3853 0
      vertex 31.9987 -38.6798 0
    endloop
  endfacet
  facet normal 0.951057 -0.309014 0
    outer loop
      vertex 46.6748 -18.4799 10
      vertex 48.6229 -12.4842 0
      vertex 48.6229 -12.4842 10
    endloop
  endfacet
  facet normal 0.951057 -0.309014 0
    outer loop
      vertex 48.6229 -12.4842 0
      vertex 46.6748 -18.4799 10
      vertex 46.6748 -18.4799 0
    endloop
  endfacet
  facet normal 0.844332 -0.535821 0
    outer loop
      vertex 40.6127 -29.5068 10
      vertex 43.9906 -24.184 0
      vertex 43.9906 -24.184 10
    endloop
  endfacet
  facet normal 0.844332 -0.535821 0
    outer loop
      vertex 43.9906 -24.184 0
      vertex 40.6127 -29.5068 10
      vertex 40.6127 -29.5068 0
    endloop
  endfacet
  facet normal -0.12533 -0.992115 0
    outer loop
      vertex -9.40654 -49.3108 0
      vertex -3.15208 -50.1009 10
      vertex -9.40654 -49.3108 10
    endloop
  endfacet
  facet normal -0.12533 -0.992115 -0
    outer loop
      vertex -3.15208 -50.1009 10
      vertex -9.40654 -49.3108 0
      vertex -3.15208 -50.1009 0
    endloop
  endfacet
  facet normal -0.587784 -0.809018 0
    outer loop
      vertex -31.9987 -38.6798 0
      vertex -26.8985 -42.3853 10
      vertex -31.9987 -38.6798 10
    endloop
  endfacet
  facet normal -0.587784 -0.809018 -0
    outer loop
      vertex -26.8985 -42.3853 10
      vertex -31.9987 -38.6798 0
      vertex -26.8985 -42.3853 0
    endloop
  endfacet
  facet normal -0.982287 -0.187385 0
    outer loop
      vertex -48.6229 -12.4842 0
      vertex -49.8042 -6.29173 10
      vertex -49.8042 -6.29173 0
    endloop
  endfacet
  facet normal -0.982287 -0.187385 0
    outer loop
      vertex -49.8042 -6.29173 10
      vertex -48.6229 -12.4842 0
      vertex -48.6229 -12.4842 10
    endloop
  endfacet
  facet normal -0.998027 -0.0627839 0
    outer loop
      vertex -49.8042 -6.29173 0
      vertex -50.2 0 10
      vertex -50.2 0 0
    endloop
  endfacet
  facet normal -0.998027 -0.0627839 0
    outer loop
      vertex -50.2 0 10
      vertex -49.8042 -6.29173 0
      vertex -49.8042 -6.29173 10
    endloop
  endfacet
  facet normal -0.248691 -0.968583 0
    outer loop
      vertex -15.5127 -47.743 0
      vertex -9.40654 -49.3108 10
      vertex -15.5127 -47.743 10
    endloop
  endfacet
  facet normal -0.248691 -0.968583 -0
    outer loop
      vertex -9.40654 -49.3108 10
      vertex -15.5127 -47.743 0
      vertex -9.40654 -49.3108 0
    endloop
  endfacet
  facet normal -0.368126 -0.929776 0
    outer loop
      vertex -21.3741 -45.4223 0
      vertex -15.5127 -47.743 10
      vertex -21.3741 -45.4223 10
    endloop
  endfacet
  facet normal -0.368126 -0.929776 -0
    outer loop
      vertex -15.5127 -47.743 10
      vertex -21.3741 -45.4223 0
      vertex -15.5127 -47.743 0
    endloop
  endfacet
  facet normal -0.481746 -0.876311 0
    outer loop
      vertex -26.8985 -42.3853 0
      vertex -21.3741 -45.4223 10
      vertex -26.8985 -42.3853 10
    endloop
  endfacet
  facet normal -0.481746 -0.876311 -0
    outer loop
      vertex -21.3741 -45.4223 10
      vertex -26.8985 -42.3853 0
      vertex -21.3741 -45.4223 0
    endloop
  endfacet
  facet normal -0.998027 -0.0627881 0
    outer loop
      vertex 40 0 0
      vertex 39.6846 5.01333 10
      vertex 39.6846 5.01333 0
    endloop
  endfacet
  facet normal -0.998027 -0.0627881 0
    outer loop
      vertex 39.6846 5.01333 10
      vertex 40 0 0
      vertex 40 0 10
    endloop
  endfacet
  facet normal 0.998027 -0.0627881 0
    outer loop
      vertex -40 0 10
      vertex -39.6846 5.01333 0
      vertex -39.6846 5.01333 10
    endloop
  endfacet
  facet normal 0.998027 -0.0627881 0
    outer loop
      vertex -39.6846 5.01333 0
      vertex -40 0 10
      vertex -40 0 0
    endloop
  endfacet
  facet normal 0 -1 0
    outer loop
      vertex -2.51162 39.9211 0
      vertex 2.51162 39.9211 10
      vertex -2.51162 39.9211 10
    endloop
  endfacet
  facet normal 0 -1 -0
    outer loop
      vertex 2.51162 39.9211 10
      vertex -2.51162 39.9211 0
      vertex 2.51162 39.9211 0
    endloop
  endfacet
  facet normal 0 1 -0
    outer loop
      vertex 2.51162 -39.9211 0
      vertex -2.51162 -39.9211 10
      vertex 2.51162 -39.9211 10
    endloop
  endfacet
  facet normal 0 1 0
    outer loop
      vertex -2.51162 -39.9211 10
      vertex 2.51162 -39.9211 0
      vertex -2.51162 -39.9211 0
    endloop
  endfacet
  facet normal -0.684551 -0.728965 0
    outer loop
      vertex 25.497 30.8205 0
      vertex 29.1587 27.3819 10
      vertex 25.497 30.8205 10
    endloop
  endfacet
  facet normal -0.684551 -0.728965 -0
    outer loop
      vertex 29.1587 27.3819 10
      vertex 25.497 30.8205 0
      vertex 29.1587 27.3819 0
    endloop
  endfacet
  facet normal 0.684551 -0.728965 0
    outer loop
      vertex -29.1587 27.3819 0
      vertex -25.497 30.8205 10
      vertex -29.1587 27.3819 10
    endloop
  endfacet
  facet normal 0.684551 -0.728965 0
    outer loop
      vertex -25.497 30.8205 10
      vertex -29.1587 27.3819 0
      vertex -25.497 30.8205 0
    endloop
  endfacet
  facet normal 0.368128 -0.929775 0
    outer loop
      vertex -17.0312 36.1931 0
      vertex -12.3607 38.0423 10
      vertex -17.0312 36.1931 10
    endloop
  endfacet
  facet normal 0.368128 -0.929775 0
    outer loop
      vertex -12.3607 38.0423 10
      vertex -17.0312 36.1931 0
      vertex -12.3607 38.0423 0
    endloop
  endfacet
  facet normal -0.844329 0.535825 0
    outer loop
      vertex 32.3607 -23.5114 0
      vertex 35.0523 -19.2701 10
      vertex 35.0523 -19.2701 0
    endloop
  endfacet
  facet normal -0.844329 0.535825 0
    outer loop
      vertex 35.0523 -19.2701 10
      vertex 32.3607 -23.5114 0
      vertex 32.3607 -23.5114 10
    endloop
  endfacet
  facet normal -0.904824 -0.425786 0
    outer loop
      vertex 37.1911 14.725 0
      vertex 35.0523 19.2701 10
      vertex 35.0523 19.2701 0
    endloop
  endfacet
  facet normal -0.904824 -0.425786 0
    outer loop
      vertex 35.0523 19.2701 10
      vertex 37.1911 14.725 0
      vertex 37.1911 14.725 10
    endloop
  endfacet
  facet normal -0.982286 -0.187389 0
    outer loop
      vertex 39.6846 5.01333 0
      vertex 38.7433 9.94759 10
      vertex 38.7433 9.94759 0
    endloop
  endfacet
  facet normal -0.982286 -0.187389 0
    outer loop
      vertex 38.7433 9.94759 10
      vertex 39.6846 5.01333 0
      vertex 39.6846 5.01333 10
    endloop
  endfacet
  facet normal -0.844329 -0.535825 0
    outer loop
      vertex 35.0523 19.2701 0
      vertex 32.3607 23.5114 10
      vertex 32.3607 23.5114 0
    endloop
  endfacet
  facet normal -0.844329 -0.535825 0
    outer loop
      vertex 32.3607 23.5114 10
      vertex 35.0523 19.2701 0
      vertex 35.0523 19.2701 10
    endloop
  endfacet
  facet normal -0.368128 -0.929775 0
    outer loop
      vertex 12.3607 38.0423 0
      vertex 17.0312 36.1931 10
      vertex 12.3607 38.0423 10
    endloop
  endfacet
  facet normal -0.368128 -0.929775 -0
    outer loop
      vertex 17.0312 36.1931 10
      vertex 12.3607 38.0423 0
      vertex 17.0312 36.1931 0
    endloop
  endfacet
  facet normal -0.248683 -0.968585 0
    outer loop
      vertex 7.49525 39.2915 0
      vertex 12.3607 38.0423 10
      vertex 7.49525 39.2915 10
    endloop
  endfacet
  facet normal -0.248683 -0.968585 -0
    outer loop
      vertex 12.3607 38.0423 10
      vertex 7.49525 39.2915 0
      vertex 12.3607 38.0423 0
    endloop
  endfacet
  facet normal -0.481759 -0.876304 0
    outer loop
      vertex 17.0312 36.1931 0
      vertex 21.4331 33.7731 10
      vertex 17.0312 36.1931 10
    endloop
  endfacet
  facet normal -0.481759 -0.876304 -0
    outer loop
      vertex 21.4331 33.7731 10
      vertex 17.0312 36.1931 0
      vertex 21.4331 33.7731 0
    endloop
  endfacet
  facet normal 0.904824 -0.425786 0
    outer loop
      vertex -37.1911 14.725 10
      vertex -35.0523 19.2701 0
      vertex -35.0523 19.2701 10
    endloop
  endfacet
  facet normal 0.904824 -0.425786 0
    outer loop
      vertex -35.0523 19.2701 0
      vertex -37.1911 14.725 10
      vertex -37.1911 14.725 0
    endloop
  endfacet
  facet normal 0.770509 -0.637429 0
    outer loop
      vertex -32.3607 23.5114 10
      vertex -29.1587 27.3819 0
      vertex -29.1587 27.3819 10
    endloop
  endfacet
  facet normal 0.770509 -0.637429 0
    outer loop
      vertex -29.1587 27.3819 0
      vertex -32.3607 23.5114 10
      vertex -32.3607 23.5114 0
    endloop
  endfacet
  facet normal 0.951061 -0.309004 0
    outer loop
      vertex -38.7433 9.94759 10
      vertex -37.1911 14.725 0
      vertex -37.1911 14.725 10
    endloop
  endfacet
  facet normal 0.951061 -0.309004 0
    outer loop
      vertex -37.1911 14.725 0
      vertex -38.7433 9.94759 10
      vertex -38.7433 9.94759 0
    endloop
  endfacet
  facet normal 0.125337 -0.992114 0
    outer loop
      vertex -7.49525 39.2915 0
      vertex -2.51162 39.9211 10
      vertex -7.49525 39.2915 10
    endloop
  endfacet
  facet normal 0.125337 -0.992114 0
    outer loop
      vertex -2.51162 39.9211 10
      vertex -7.49525 39.2915 0
      vertex -2.51162 39.9211 0
    endloop
  endfacet
  facet normal -0.125337 0.992114 0
    outer loop
      vertex 7.49525 -39.2915 0
      vertex 2.51162 -39.9211 10
      vertex 7.49525 -39.2915 10
    endloop
  endfacet
  facet normal -0.125337 0.992114 0
    outer loop
      vertex 2.51162 -39.9211 10
      vertex 7.49525 -39.2915 0
      vertex 2.51162 -39.9211 0
    endloop
  endfacet
  facet normal -0.951061 -0.309004 0
    outer loop
      vertex 38.7433 9.94759 0
      vertex 37.1911 14.725 10
      vertex 37.1911 14.725 0
    endloop
  endfacet
  facet normal -0.951061 -0.309004 0
    outer loop
      vertex 37.1911 14.725 10
      vertex 38.7433 9.94759 0
      vertex 38.7433 9.94759 10
    endloop
  endfacet
  facet normal -0.770509 -0.637429 0
    outer loop
      vertex 32.3607 23.5114 0
      vertex 29.1587 27.3819 10
      vertex 29.1587 27.3819 0
    endloop
  endfacet
  facet normal -0.770509 -0.637429 0
    outer loop
      vertex 29.1587 27.3819 10
      vertex 32.3607 23.5114 0
      vertex 32.3607 23.5114 10
    endloop
  endfacet
  facet normal -0.125337 -0.992114 0
    outer loop
      vertex 2.51162 39.9211 0
      vertex 7.49525 39.2915 10
      vertex 2.51162 39.9211 10
    endloop
  endfacet
  facet normal -0.125337 -0.992114 -0
    outer loop
      vertex 7.49525 39.2915 10
      vertex 2.51162 39.9211 0
      vertex 7.49525 39.2915 0
    endloop
  endfacet
  facet normal -0.587786 -0.809017 0
    outer loop
      vertex 21.4331 33.7731 0
      vertex 25.497 30.8205 10
      vertex 21.4331 33.7731 10
    endloop
  endfacet
  facet normal -0.587786 -0.809017 -0
    outer loop
      vertex 25.497 30.8205 10
      vertex 21.4331 33.7731 0
      vertex 25.497 30.8205 0
    endloop
  endfacet
  facet normal 0.844329 -0.535825 0
    outer loop
      vertex -35.0523 19.2701 10
      vertex -32.3607 23.5114 0
      vertex -32.3607 23.5114 10
    endloop
  endfacet
  facet normal 0.844329 -0.535825 0
    outer loop
      vertex -32.3607 23.5114 0
      vertex -35.0523 19.2701 10
      vertex -35.0523 19.2701 0
    endloop
  endfacet
  facet normal 0.982286 -0.187389 0
    outer loop
      vertex -39.6846 5.01333 10
      vertex -38.7433 9.94759 0
      vertex -38.7433 9.94759 10
    endloop
  endfacet
  facet normal 0.982286 -0.187389 0
    outer loop
      vertex -38.7433 9.94759 0
      vertex -39.6846 5.01333 10
      vertex -39.6846 5.01333 0
    endloop
  endfacet
  facet normal 0.481759 -0.876304 0
    outer loop
      vertex -21.4331 33.7731 0
      vertex -17.0312 36.1931 10
      vertex -21.4331 33.7731 10
    endloop
  endfacet
  facet normal 0.481759 -0.876304 0
    outer loop
      vertex -17.0312 36.1931 10
      vertex -21.4331 33.7731 0
      vertex -17.0312 36.1931 0
    endloop
  endfacet
  facet normal 0.587786 -0.809017 0
    outer loop
      vertex -25.497 30.8205 0
      vertex -21.4331 33.7731 10
      vertex -25.497 30.8205 10
    endloop
  endfacet
  facet normal 0.587786 -0.809017 0
    outer loop
      vertex -21.4331 33.7731 10
      vertex -25.497 30.8205 0
      vertex -21.4331 33.7731 0
    endloop
  endfacet
  facet normal 0.248683 -0.968585 0
    outer loop
      vertex -12.3607 38.0423 0
      vertex -7.49525 39.2915 10
      vertex -12.3607 38.0423 10
    endloop
  endfacet
  facet normal 0.248683 -0.968585 0
    outer loop
      vertex -7.49525 39.2915 10
      vertex -12.3607 38.0423 0
      vertex -7.49525 39.2915 0
    endloop
  endfacet
  facet normal -0.770509 0.637429 0
    outer loop
      vertex 29.1587 -27.3819 0
      vertex 32.3607 -23.5114 10
      vertex 32.3607 -23.5114 0
    endloop
  endfacet
  facet normal -0.770509 0.637429 0
    outer loop
      vertex 32.3607 -23.5114 10
      vertex 29.1587 -27.3819 0
      vertex 29.1587 -27.3819 10
    endloop
  endfacet
  facet normal -0.951061 0.309004 0
    outer loop
      vertex 37.1911 -14.725 0
      vertex 38.7433 -9.94759 10
      vertex 38.7433 -9.94759 0
    endloop
  endfacet
  facet normal -0.951061 0.309004 0
    outer loop
      vertex 38.7433 -9.94759 10
      vertex 37.1911 -14.725 0
      vertex 37.1911 -14.725 10
    endloop
  endfacet
  facet normal -0.982286 0.187389 0
    outer loop
      vertex 38.7433 -9.94759 0
      vertex 39.6846 -5.01333 10
      vertex 39.6846 -5.01333 0
    endloop
  endfacet
  facet normal -0.982286 0.187389 0
    outer loop
      vertex 39.6846 -5.01333 10
      vertex 38.7433 -9.94759 0
      vertex 38.7433 -9.94759 10
    endloop
  endfacet
  facet normal 0.684551 0.728965 -0
    outer loop
      vertex -25.497 -30.8205 0
      vertex -29.1587 -27.3819 10
      vertex -25.497 -30.8205 10
    endloop
  endfacet
  facet normal 0.684551 0.728965 0
    outer loop
      vertex -29.1587 -27.3819 10
      vertex -25.497 -30.8205 0
      vertex -29.1587 -27.3819 0
    endloop
  endfacet
  facet normal 0.904824 0.425786 0
    outer loop
      vertex -35.0523 -19.2701 10
      vertex -37.1911 -14.725 0
      vertex -37.1911 -14.725 10
    endloop
  endfacet
  facet normal 0.904824 0.425786 0
    outer loop
      vertex -37.1911 -14.725 0
      vertex -35.0523 -19.2701 10
      vertex -35.0523 -19.2701 0
    endloop
  endfacet
  facet normal 0.770509 0.637429 0
    outer loop
      vertex -29.1587 -27.3819 10
      vertex -32.3607 -23.5114 0
      vertex -32.3607 -23.5114 10
    endloop
  endfacet
  facet normal 0.770509 0.637429 0
    outer loop
      vertex -32.3607 -23.5114 0
      vertex -29.1587 -27.3819 10
      vertex -29.1587 -27.3819 0
    endloop
  endfacet
  facet normal -0.481759 0.876304 0
    outer loop
      vertex 21.4331 -33.7731 0
      vertex 17.0312 -36.1931 10
      vertex 21.4331 -33.7731 10
    endloop
  endfacet
  facet normal -0.481759 0.876304 0
    outer loop
      vertex 17.0312 -36.1931 10
      vertex 21.4331 -33.7731 0
      vertex 17.0312 -36.1931 0
    endloop
  endfacet
  facet normal -0.684551 0.728965 0
    outer loop
      vertex 29.1587 -27.3819 0
      vertex 25.497 -30.8205 10
      vertex 29.1587 -27.3819 10
    endloop
  endfacet
  facet normal -0.684551 0.728965 0
    outer loop
      vertex 25.497 -30.8205 10
      vertex 29.1587 -27.3819 0
      vertex 25.497 -30.8205 0
    endloop
  endfacet
  facet normal -0.904824 0.425786 0
    outer loop
      vertex 35.0523 -19.2701 0
      vertex 37.1911 -14.725 10
      vertex 37.1911 -14.725 0
    endloop
  endfacet
  facet normal -0.904824 0.425786 0
    outer loop
      vertex 37.1911 -14.725 10
      vertex 35.0523 -19.2701 0
      vertex 35.0523 -19.2701 10
    endloop
  endfacet
  facet normal -0.998027 0.0627881 0
    outer loop
      vertex 39.6846 -5.01333 0
      vertex 40 0 10
      vertex 40 0 0
    endloop
  endfacet
  facet normal -0.998027 0.0627881 0
    outer loop
      vertex 40 0 10
      vertex 39.6846 -5.01333 0
      vertex 39.6846 -5.01333 10
    endloop
  endfacet
  facet normal 0.951061 0.309004 0
    outer loop
      vertex -37.1911 -14.725 10
      vertex -38.7433 -9.94759 0
      vertex -38.7433 -9.94759 10
    endloop
  endfacet
  facet normal 0.951061 0.309004 0
    outer loop
      vertex -38.7433 -9.94759 0
      vertex -37.1911 -14.725 10
      vertex -37.1911 -14.725 0
    endloop
  endfacet
  facet normal -0.368128 0.929775 0
    outer loop
      vertex 17.0312 -36.1931 0
      vertex 12.3607 -38.0423 10
      vertex 17.0312 -36.1931 10
    endloop
  endfacet
  facet normal -0.368128 0.929775 0
    outer loop
      vertex 12.3607 -38.0423 10
      vertex 17.0312 -36.1931 0
      vertex 12.3607 -38.0423 0
    endloop
  endfacet
  facet normal -0.248683 0.968585 0
    outer loop
      vertex 12.3607 -38.0423 0
      vertex 7.49525 -39.2915 10
      vertex 12.3607 -38.0423 10
    endloop
  endfacet
  facet normal -0.248683 0.968585 0
    outer loop
      vertex 7.49525 -39.2915 10
      vertex 12.3607 -38.0423 0
      vertex 7.49525 -39.2915 0
    endloop
  endfacet
  facet normal 0.368128 0.929775 -0
    outer loop
      vertex -12.3607 -38.0423 0
      vertex -17.0312 -36.1931 10
      vertex -12.3607 -38.0423 10
    endloop
  endfacet
  facet normal 0.368128 0.929775 0
    outer loop
      vertex -17.0312 -36.1931 10
      vertex -12.3607 -38.0423 0
      vertex -17.0312 -36.1931 0
    endloop
  endfacet
  facet normal 0.481759 0.876304 -0
    outer loop
      vertex -17.0312 -36.1931 0
      vertex -21.4331 -33.7731 10
      vertex -17.0312 -36.1931 10
    endloop
  endfacet
  facet normal 0.481759 0.876304 0
    outer loop
      vertex -21.4331 -33.7731 10
      vertex -17.0312 -36.1931 0
      vertex -21.4331 -33.7731 0
    endloop
  endfacet
  facet normal 0.248683 0.968585 -0
    outer loop
      vertex -7.49525 -39.2915 0
      vertex -12.3607 -38.0423 10
      vertex -7.49525 -39.2915 10
    endloop
  endfacet
  facet normal 0.248683 0.968585 0
    outer loop
      vertex -12.3607 -38.0423 10
      vertex -7.49525 -39.2915 0
      vertex -12.3607 -38.0423 0
    endloop
  endfacet
  facet normal 0.844329 0.535825 0
    outer loop
      vertex -32.3607 -23.5114 10
      vertex -35.0523 -19.2701 0
      vertex -35.0523 -19.2701 10
    endloop
  endfacet
  facet normal 0.844329 0.535825 0
    outer loop
      vertex -35.0523 -19.2701 0
      vertex -32.3607 -23.5114 10
      vertex -32.3607 -23.5114 0
    endloop
  endfacet
  facet normal 0.982286 0.187389 0
    outer loop
      vertex -38.7433 -9.94759 10
      vertex -39.6846 -5.01333 0
      vertex -39.6846 -5.01333 10
    endloop
  endfacet
  facet normal 0.982286 0.187389 0
    outer loop
      vertex -39.6846 -5.01333 0
      vertex -38.7433 -9.94759 10
      vertex -38.7433 -9.94759 0
    endloop
  endfacet
  facet normal 0.998027 0.0627881 0
    outer loop
      vertex -39.6846 -5.01333 10
      vertex -40 0 0
      vertex -40 0 10
    endloop
  endfacet
  facet normal 0.998027 0.0627881 0
    outer loop
      vertex -40 0 0
      vertex -39.6846 -5.01333 10
      vertex -39.6846 -5.01333 0
    endloop
  endfacet
  facet normal -0.587786 0.809017 0
    outer loop
      vertex 25.497 -30.8205 0
      vertex 21.4331 -33.7731 10
      vertex 25.497 -30.8205 10
    endloop
  endfacet
  facet normal -0.587786 0.809017 0
    outer loop
      vertex 21.4331 -33.7731 10
      vertex 25.497 -30.8205 0
      vertex 21.4331 -33.7731 0
    endloop
  endfacet
  facet normal 0.587786 0.809017 -0
    outer loop
      vertex -21.4331 -33.7731 0
      vertex -25.497 -30.8205 10
      vertex -21.4331 -33.7731 10
    endloop
  endfacet
  facet normal 0.587786 0.809017 0
    outer loop
      vertex -25.497 -30.8205 10
      vertex -21.4331 -33.7731 0
      vertex -25.497 -30.8205 0
    endloop
  endfacet
  facet normal 0.125337 0.992114 -0
    outer loop
      vertex -2.51162 -39.9211 0
      vertex -7.49525 -39.2915 10
      vertex -2.51162 -39.9211 10
    endloop
  endfacet
  facet normal 0.125337 0.992114 0
    outer loop
      vertex -7.49525 -39.2915 10
      vertex -2.51162 -39.9211 0
      vertex -7.49525 -39.2915 0
    endloop
  endfacet
endsolid OpenSCAD_Model
