solid OpenSCAD_Model
  facet normal 0.998027 0.0627878 0
    outer loop
      vertex 45.2 0 10
      vertex 44.8436 5.66506 0
      vertex 44.8436 5.66506 10
    endloop
  endfacet
  facet normal 0.998027 0.0627878 0
    outer loop
      vertex 44.8436 5.66506 0
      vertex 45.2 0 10
      vertex 45.2 0 0
    endloop
  endfacet
  facet normal -0.998027 0.0627878 0
    outer loop
      vertex -45.2 0 0
      vertex -44.8436 5.66506 10
      vertex -44.8436 5.66506 0
    endloop
  endfacet
  facet normal -0.998027 0.0627878 0
    outer loop
      vertex -44.8436 5.66506 10
      vertex -45.2 0 0
      vertex -45.2 0 10
    endloop
  endfacet
  facet normal 0 1 -0
    outer loop
      vertex 2.83813 45.1108 0
      vertex -2.83813 45.1108 10
      vertex 2.83813 45.1108 10
    endloop
  endfacet
  facet normal 0 1 0
    outer loop
      vertex -2.83813 45.1108 10
      vertex 2.83813 45.1108 0
      vertex -2.83813 45.1108 0
    endloop
  endfacet
  facet normal 0 -1 0
    outer loop
      vertex -2.83813 -45.1108 0
      vertex 2.83813 -45.1108 10
      vertex -2.83813 -45.1108 10
    endloop
  endfacet
  facet normal 0 -1 -0
    outer loop
      vertex 2.83813 -45.1108 10
      vertex -2.83813 -45.1108 0
      vertex 2.83813 -45.1108 0
    endloop
  endfacet
  facet normal 0.684552 0.728964 -0
    outer loop
      vertex 32.9494 30.9415 0
      vertex 28.8116 34.8272 10
      vertex 32.9494 30.9415 10
    endloop
  endfacet
  facet normal 0.684552 0.728964 0
    outer loop
      vertex 28.8116 34.8272 10
      vertex 32.9494 30.9415 0
      vertex 28.8116 34.8272 0
    endloop
  endfacet
  facet normal -0.684552 0.728964 0
    outer loop
      vertex -28.8116 34.8272 0
      vertex -32.9494 30.9415 10
      vertex -28.8116 34.8272 10
    endloop
  endfacet
  facet normal -0.684552 0.728964 0
    outer loop
      vertex -32.9494 30.9415 10
      vertex -28.8116 34.8272 0
      vertex -32.9494 30.9415 0
    endloop
  endfacet
  facet normal -0.368132 0.929773 0
    outer loop
      vertex -13.9676 42.9878 0
      vertex -19.2452 40.8982 10
      vertex -13.9676 42.9878 10
    endloop
  endfacet
  facet normal -0.368132 0.929773 0
    outer loop
      vertex -19.2452 40.8982 10
      vertex -13.9676 42.9878 0
      vertex -19.2452 40.8982 0
    endloop
  endfacet
  facet normal 0.904831 0.42577 0
    outer loop
      vertex 42.0259 16.6392 10
      vertex 39.6091 21.7753 0
      vertex 39.6091 21.7753 10
    endloop
  endfacet
  facet normal 0.904831 0.42577 0
    outer loop
      vertex 39.6091 21.7753 0
      vertex 42.0259 16.6392 10
      vertex 42.0259 16.6392 0
    endloop
  endfacet
  facet normal 0.844326 0.53583 0
    outer loop
      vertex 39.6091 21.7753 10
      vertex 36.5676 26.5679 0
      vertex 36.5676 26.5679 10
    endloop
  endfacet
  facet normal 0.844326 0.53583 0
    outer loop
      vertex 36.5676 26.5679 0
      vertex 39.6091 21.7753 10
      vertex 39.6091 21.7753 0
    endloop
  endfacet
  facet normal 0.368132 0.929773 -0
    outer loop
      vertex 19.2452 40.8982 0
      vertex 13.9676 42.9878 10
      vertex 19.2452 40.8982 10
    endloop
  endfacet
  facet normal 0.368132 0.929773 0
    outer loop
      vertex 13.9676 42.9878 10
      vertex 19.2452 40.8982 0
      vertex 13.9676 42.9878 0
    endloop
  endfacet
  facet normal 0.248684 0.968585 -0
    outer loop
      vertex 13.9676 42.9878 0
      vertex 8.46964 44.3994 10
      vertex 13.9676 42.9878 10
    endloop
  endfacet
  facet normal 0.248684 0.968585 0
    outer loop
      vertex 8.46964 44.3994 10
      vertex 13.9676 42.9878 0
      vertex 8.46964 44.3994 0
    endloop
  endfacet
  facet normal 0.587782 0.809019 -0
    outer loop
      vertex 28.8116 34.8272 0
      vertex 24.2194 38.1636 10
      vertex 28.8116 34.8272 10
    endloop
  endfacet
  facet normal 0.587782 0.809019 0
    outer loop
      vertex 24.2194 38.1636 10
      vertex 28.8116 34.8272 0
      vertex 24.2194 38.1636 0
    endloop
  endfacet
  facet normal -0.904831 0.42577 0
    outer loop
      vertex -42.0259 16.6392 0
      vertex -39.6091 21.7753 10
      vertex -39.6091 21.7753 0
    endloop
  endfacet
  facet normal -0.904831 0.42577 0
    outer loop
      vertex -39.6091 21.7753 10
      vertex -42.0259 16.6392 0
      vertex -42.0259 16.6392 10
    endloop
  endfacet
  facet normal -0.770509 0.637429 0
    outer loop
      vertex -36.5676 26.5679 0
      vertex -32.9494 30.9415 10
      vertex -32.9494 30.9415 0
    endloop
  endfacet
  facet normal -0.770509 0.637429 0
    outer loop
      vertex -32.9494 30.9415 10
      vertex -36.5676 26.5679 0
      vertex -36.5676 26.5679 10
    endloop
  endfacet
  facet normal -0.951054 0.309026 0
    outer loop
      vertex -43.78 11.2408 0
      vertex -42.0259 16.6392 10
      vertex -42.0259 16.6392 0
    endloop
  endfacet
  facet normal -0.951054 0.309026 0
    outer loop
      vertex -42.0259 16.6392 10
      vertex -43.78 11.2408 0
      vertex -43.78 11.2408 10
    endloop
  endfacet
  facet normal -0.481755 0.876306 0
    outer loop
      vertex -19.2452 40.8982 0
      vertex -24.2194 38.1636 10
      vertex -19.2452 40.8982 10
    endloop
  endfacet
  facet normal -0.481755 0.876306 0
    outer loop
      vertex -24.2194 38.1636 10
      vertex -19.2452 40.8982 0
      vertex -24.2194 38.1636 0
    endloop
  endfacet
  facet normal -0.125329 0.992115 0
    outer loop
      vertex -2.83813 45.1108 0
      vertex -8.46964 44.3994 10
      vertex -2.83813 45.1108 10
    endloop
  endfacet
  facet normal -0.125329 0.992115 0
    outer loop
      vertex -8.46964 44.3994 10
      vertex -2.83813 45.1108 0
      vertex -8.46964 44.3994 0
    endloop
  endfacet
  facet normal 0.125329 -0.992115 0
    outer loop
      vertex 2.83813 -45.1108 0
      vertex 8.46964 -44.3994 10
      vertex 2.83813 -45.1108 10
    endloop
  endfacet
  facet normal 0.125329 -0.992115 0
    outer loop
      vertex 8.46964 -44.3994 10
      vertex 2.83813 -45.1108 0
      vertex 8.46964 -44.3994 0
    endloop
  endfacet
  facet normal 0.951054 0.309026 0
    outer loop
      vertex 43.78 11.2408 10
      vertex 42.0259 16.6392 0
      vertex 42.0259 16.6392 10
    endloop
  endfacet
  facet normal 0.951054 0.309026 0
    outer loop
      vertex 42.0259 16.6392 0
      vertex 43.78 11.2408 10
      vertex 43.78 11.2408 0
    endloop
  endfacet
  facet normal 0.982288 0.187376 0
    outer loop
      vertex 44.8436 5.66506 10
      vertex 43.78 11.2408 0
      vertex 43.78 11.2408 10
    endloop
  endfacet
  facet normal 0.982288 0.187376 0
    outer loop
      vertex 43.78 11.2408 0
      vertex 44.8436 5.66506 10
      vertex 44.8436 5.66506 0
    endloop
  endfacet
  facet normal 0.770509 0.637429 0
    outer loop
      vertex 36.5676 26.5679 10
      vertex 32.9494 30.9415 0
      vertex 32.9494 30.9415 10
    endloop
  endfacet
  facet normal 0.770509 0.637429 0
    outer loop
      vertex 32.9494 30.9415 0
      vertex 36.5676 26.5679 10
      vertex 36.5676 26.5679 0
    endloop
  endfacet
  facet normal 0.125329 0.992115 -0
    outer loop
      vertex 8.46964 44.3994 0
      vertex 2.83813 45.1108 10
      vertex 8.46964 44.3994 10
    endloop
  endfacet
  facet normal 0.125329 0.992115 0
    outer loop
      vertex 2.83813 45.1108 10
      vertex 8.46964 44.3994 0
      vertex 2.83813 45.1108 0
    endloop
  endfacet
  facet normal 0.481755 0.876306 -0
    outer loop
      vertex 24.2194 38.1636 0
      vertex 19.2452 40.8982 10
      vertex 24.2194 38.1636 10
    endloop
  endfacet
  facet normal 0.481755 0.876306 0
    outer loop
      vertex 19.2452 40.8982 10
      vertex 24.2194 38.1636 0
      vertex 19.2452 40.8982 0
    endloop
  endfacet
  facet normal -0.844326 0.53583 0
    outer loop
      vertex -39.6091 21.7753 0
      vertex -36.5676 26.5679 10
      vertex -36.5676 26.5679 0
    endloop
  endfacet
  facet normal -0.844326 0.53583 0
    outer loop
      vertex -36.5676 26.5679 10
      vertex -39.6091 21.7753 0
      vertex -39.6091 21.7753 10
    endloop
  endfacet
  facet normal -0.982288 0.187376 0
    outer loop
      vertex -44.8436 5.66506 0
      vertex -43.78 11.2408 10
      vertex -43.78 11.2408 0
    endloop
  endfacet
  facet normal -0.982288 0.187376 0
    outer loop
      vertex -43.78 11.2408 10
      vertex -44.8436 5.66506 0
      vertex -44.8436 5.66506 10
    endloop
  endfacet
  facet normal 0 0 1
    outer loop
      vertex 35 0 10
      vertex 45.2 0 10
      vertex 44.8436 5.66506 10
    endloop
  endfacet
  facet normal 0 0 1
    outer loop
      vertex 34.724 4.38666 10
      vertex 44.8436 5.66506 10
      vertex 43.78 11.2408 10
    endloop
  endfacet
  facet normal 0 0 1
    outer loop
      vertex 45.2 0 10
      vertex 35 0 10
      vertex 44.8436 -5.66506 10
    endloop
  endfacet
  facet normal 0 0 1
    outer loop
      vertex 33.9004 8.70415 10
      vertex 43.78 11.2408 10
      vertex 42.0259 16.6392 10
    endloop
  endfacet
  facet normal -0 0 1
    outer loop
      vertex 34.724 -4.38666 10
      vertex 44.8436 -5.66506 10
      vertex 35 0 10
    endloop
  endfacet
  facet normal 0 0 1
    outer loop
      vertex 32.5422 12.8844 10
      vertex 42.0259 16.6392 10
      vertex 39.6091 21.7753 10
    endloop
  endfacet
  facet normal 0 0 1
    outer loop
      vertex 44.8436 -5.66506 10
      vertex 34.724 -4.38666 10
      vertex 43.78 -11.2408 10
    endloop
  endfacet
  facet normal 0 0 1
    outer loop
      vertex 30.6707 16.8614 10
      vertex 39.6091 21.7753 10
      vertex 36.5676 26.5679 10
    endloop
  endfacet
  facet normal -0 0 1
    outer loop
      vertex 33.9004 -8.70415 10
      vertex 43.78 -11.2408 10
      vertex 34.724 -4.38666 10
    endloop
  endfacet
  facet normal 0 0 1
    outer loop
      vertex 43.78 -11.2408 10
      vertex 33.9004 -8.70415 10
      vertex 42.0259 -16.6392 10
    endloop
  endfacet
  facet normal 0 0 1
    outer loop
      vertex 44.8436 5.66506 10
      vertex 34.724 4.38666 10
      vertex 35 0 10
    endloop
  endfacet
  facet normal 0 0 1
    outer loop
      vertex 43.78 11.2408 10
      vertex 33.9004 8.70415 10
      vertex 34.724 4.38666 10
    endloop
  endfacet
  facet normal 0 0 1
    outer loop
      vertex 28.3156 20.5725 10
      vertex 36.5676 26.5679 10
      vertex 32.9494 30.9415 10
    endloop
  endfacet
  facet normal 0 0 1
    outer loop
      vertex 42.0259 16.6392 10
      vertex 32.5422 12.8844 10
      vertex 33.9004 8.70415 10
    endloop
  endfacet
  facet normal 0 0 1
    outer loop
      vertex 39.6091 21.7753 10
      vertex 30.6707 16.8614 10
      vertex 32.5422 12.8844 10
    endloop
  endfacet
  facet normal 0 0 1
    outer loop
      vertex 25.5139 23.9591 10
      vertex 32.9494 30.9415 10
      vertex 28.8116 34.8272 10
    endloop
  endfacet
  facet normal 0 0 1
    outer loop
      vertex 36.5676 26.5679 10
      vertex 28.3156 20.5725 10
      vertex 30.6707 16.8614 10
    endloop
  endfacet
  facet normal 0 0 1
    outer loop
      vertex 32.9494 30.9415 10
      vertex 25.5139 23.9591 10
      vertex 28.3156 20.5725 10
    endloop
  endfacet
  facet normal 0 0 1
    outer loop
      vertex 22.3098 26.968 10
      vertex 28.8116 34.8272 10
      vertex 24.2194 38.1636 10
    endloop
  endfacet
  facet normal 0 0 1
    outer loop
      vertex 28.8116 34.8272 10
      vertex 22.3098 26.968 10
      vertex 25.5139 23.9591 10
    endloop
  endfacet
  facet normal 0 0 1
    outer loop
      vertex 18.7539 29.5515 10
      vertex 24.2194 38.1636 10
      vertex 19.2452 40.8982 10
    endloop
  endfacet
  facet normal 0 0 1
    outer loop
      vertex 24.2194 38.1636 10
      vertex 18.7539 29.5515 10
      vertex 22.3098 26.968 10
    endloop
  endfacet
  facet normal 0 0 1
    outer loop
      vertex 19.2452 40.8982 10
      vertex 14.9023 31.6689 10
      vertex 18.7539 29.5515 10
    endloop
  endfacet
  facet normal 0 0 1
    outer loop
      vertex 13.9676 42.9878 10
      vertex 14.9023 31.6689 10
      vertex 19.2452 40.8982 10
    endloop
  endfacet
  facet normal 0 0 1
    outer loop
      vertex 13.9676 42.9878 10
      vertex 10.8156 33.287 10
      vertex 14.9023 31.6689 10
    endloop
  endfacet
  facet normal 0 0 1
    outer loop
      vertex 8.46964 44.3994 10
      vertex 10.8156 33.287 10
      vertex 13.9676 42.9878 10
    endloop
  endfacet
  facet normal 0 0 1
    outer loop
      vertex 8.46964 44.3994 10
      vertex 6.55835 34.3801 10
      vertex 10.8156 33.287 10
    endloop
  endfacet
  facet normal 0 0 1
    outer loop
      vertex 2.83813 45.1108 10
      vertex 6.55835 34.3801 10
      vertex 8.46964 44.3994 10
    endloop
  endfacet
  facet normal 0 0 1
    outer loop
      vertex 2.83813 45.1108 10
      vertex 2.19767 34.9309 10
      vertex 6.55835 34.3801 10
    endloop
  endfacet
  facet normal 0 0 1
    outer loop
      vertex 2.83813 45.1108 10
      vertex -2.19767 34.9309 10
      vertex 2.19767 34.9309 10
    endloop
  endfacet
  facet normal -0 0 1
    outer loop
      vertex -2.83813 45.1108 10
      vertex -2.19767 34.9309 10
      vertex 2.83813 45.1108 10
    endloop
  endfacet
  facet normal 0 0 1
    outer loop
      vertex -2.83813 45.1108 10
      vertex -6.55835 34.3801 10
      vertex -2.19767 34.9309 10
    endloop
  endfacet
  facet normal -0 0 1
    outer loop
      vertex -8.46964 44.3994 10
      vertex -6.55835 34.3801 10
      vertex -2.83813 45.1108 10
    endloop
  endfacet
  facet normal 0 0 1
    outer loop
      vertex -8.46964 44.3994 10
      vertex -10.8156 33.287 10
      vertex -6.55835 34.3801 10
    endloop
  endfacet
  facet normal -0 0 1
    outer loop
      vertex -13.9676 42.9878 10
      vertex -10.8156 33.287 10
      vertex -8.46964 44.3994 10
    endloop
  endfacet
  facet normal 0 0 1
    outer loop
      vertex -13.9676 42.9878 10
      vertex -14.9023 31.6689 10
      vertex -10.8156 33.287 10
    endloop
  endfacet
  facet normal -0 0 1
    outer loop
      vertex -19.2452 40.8982 10
      vertex -14.9023 31.6689 10
      vertex -13.9676 42.9878 10
    endloop
  endfacet
  facet normal 0 0 1
    outer loop
      vertex -14.9023 31.6689 10
      vertex -19.2452 40.8982 10
      vertex -18.7539 29.5515 10
    endloop
  endfacet
  facet normal -0 0 1
    outer loop
      vertex -24.2194 38.1636 10
      vertex -18.7539 29.5515 10
      vertex -19.2452 40.8982 10
    endloop
  endfacet
  facet normal 0 0 1
    outer loop
      vertex -18.7539 29.5515 10
      vertex -24.2194 38.1636 10
      vertex -22.3098 26.968 10
    endloop
  endfacet
  facet normal -0 0 1
    outer loop
      vertex -28.8116 34.8272 10
      vertex -22.3098 26.968 10
      vertex -24.2194 38.1636 10
    endloop
  endfacet
  facet normal 0 0 1
    outer loop
      vertex -22.3098 26.968 10
      vertex -28.8116 34.8272 10
      vertex -25.5139 23.9591 10
    endloop
  endfacet
  facet normal -0 0 1
    outer loop
      vertex -32.9494 30.9415 10
      vertex -25.5139 23.9591 10
      vertex -28.8116 34.8272 10
    endloop
  endfacet
  facet normal 0 0 1
    outer loop
      vertex -25.5139 23.9591 10
      vertex -32.9494 30.9415 10
      vertex -28.3156 20.5725 10
    endloop
  endfacet
  facet normal -0 0 1
    outer loop
      vertex -36.5676 26.5679 10
      vertex -28.3156 20.5725 10
      vertex -32.9494 30.9415 10
    endloop
  endfacet
  facet normal 0 0 1
    outer loop
      vertex -28.3156 20.5725 10
      vertex -36.5676 26.5679 10
      vertex -30.6707 16.8614 10
    endloop
  endfacet
  facet normal -0 0 1
    outer loop
      vertex -39.6091 21.7753 10
      vertex -30.6707 16.8614 10
      vertex -36.5676 26.5679 10
    endloop
  endfacet
  facet normal 0 0 1
    outer loop
      vertex -30.6707 16.8614 10
      vertex -39.6091 21.7753 10
      vertex -32.5422 12.8844 10
    endloop
  endfacet
  facet normal 0 0 1
    outer loop
      vertex -32.5422 12.8844 10
      vertex -42.0259 16.6392 10
      vertex -33.9004 8.70415 10
    endloop
  endfacet
  facet normal -0 0 1
    outer loop
      vertex -42.0259 16.6392 10
      vertex -32.5422 12.8844 10
      vertex -39.6091 21.7753 10
    endloop
  endfacet
  facet normal -0 0 1
    outer loop
      vertex 32.5422 -12.8844 10
      vertex 42.0259 -16.6392 10
      vertex 33.9004 -8.70415 10
    endloop
  endfacet
  facet normal 0 0 1
    outer loop
      vertex 42.0259 -16.6392 10
      vertex 32.5422 -12.8844 10
      vertex 39.6091 -21.7753 10
    endloop
  endfacet
  facet normal -0 0 1
    outer loop
      vertex 30.6707 -16.8614 10
      vertex 39.6091 -21.7753 10
      vertex 32.5422 -12.8844 10
    endloop
  endfacet
  facet normal 0 0 1
    outer loop
      vertex 39.6091 -21.7753 10
      vertex 30.6707 -16.8614 10
      vertex 36.5676 -26.5679 10
    endloop
  endfacet
  facet normal -0 0 1
    outer loop
      vertex 28.3156 -20.5725 10
      vertex 36.5676 -26.5679 10
      vertex 30.6707 -16.8614 10
    endloop
  endfacet
  facet normal 0 0 1
    outer loop
      vertex 36.5676 -26.5679 10
      vertex 28.3156 -20.5725 10
      vertex 32.9494 -30.9415 10
    endloop
  endfacet
  facet normal -0 0 1
    outer loop
      vertex 25.5139 -23.9591 10
      vertex 32.9494 -30.9415 10
      vertex 28.3156 -20.5725 10
    endloop
  endfacet
  facet normal 0 0 1
    outer loop
      vertex 32.9494 -30.9415 10
      vertex 25.5139 -23.9591 10
      vertex 28.8116 -34.8272 10
    endloop
  endfacet
  facet normal -0 0 1
    outer loop
      vertex 22.3098 -26.968 10
      vertex 28.8116 -34.8272 10
      vertex 25.5139 -23.9591 10
    endloop
  endfacet
  facet normal 0 0 1
    outer loop
      vertex 28.8116 -34.8272 10
      vertex 22.3098 -26.968 10
      vertex 24.2194 -38.1636 10
    endloop
  endfacet
  facet normal -0 0 1
    outer loop
      vertex 18.7539 -29.5515 10
      vertex 24.2194 -38.1636 10
      vertex 22.3098 -26.968 10
    endloop
  endfacet
  facet normal 0 0 1
    outer loop
      vertex 24.2194 -38.1636 10
      vertex 18.7539 -29.5515 10
      vertex 19.2452 -40.8982 10
    endloop
  endfacet
  facet normal -0 0 1
    outer loop
      vertex 14.9023 -31.6689 10
      vertex 19.2452 -40.8982 10
      vertex 18.7539 -29.5515 10
    endloop
  endfacet
  facet normal 0 0 1
    outer loop
      vertex 14.9023 -31.6689 10
      vertex 13.9676 -42.9878 10
      vertex 19.2452 -40.8982 10
    endloop
  endfacet
  facet normal -0 0 1
    outer loop
      vertex 10.8156 -33.287 10
      vertex 13.9676 -42.9878 10
      vertex 14.9023 -31.6689 10
    endloop
  endfacet
  facet normal 0 0 1
    outer loop
      vertex 10.8156 -33.287 10
      vertex 8.46964 -44.3994 10
      vertex 13.9676 -42.9878 10
    endloop
  endfacet
  facet normal -0 0 1
    outer loop
      vertex 6.55835 -34.3801 10
      vertex 8.46964 -44.3994 10
      vertex 10.8156 -33.287 10
    endloop
  endfacet
  facet normal 0 0 1
    outer loop
      vertex 6.55835 -34.3801 10
      vertex 2.83813 -45.1108 10
      vertex 8.46964 -44.3994 10
    endloop
  endfacet
  facet normal -0 0 1
    outer loop
      vertex 2.19767 -34.9309 10
      vertex 2.83813 -45.1108 10
      vertex 6.55835 -34.3801 10
    endloop
  endfacet
  facet normal -0 0 1
    outer loop
      vertex -2.19767 -34.9309 10
      vertex 2.83813 -45.1108 10
      vertex 2.19767 -34.9309 10
    endloop
  endfacet
  facet normal 0 0 1
    outer loop
      vertex -2.19767 -34.9309 10
      vertex -2.83813 -45.1108 10
      vertex 2.83813 -45.1108 10
    endloop
  endfacet
  facet normal 0 0 1
    outer loop
      vertex -6.55835 -34.3801 10
      vertex -2.83813 -45.1108 10
      vertex -2.19767 -34.9309 10
    endloop
  endfacet
  facet normal 0 0 1
    outer loop
      vertex -6.55835 -34.3801 10
      vertex -8.46964 -44.3994 10
      vertex -2.83813 -45.1108 10
    endloop
  endfacet
  facet normal 0 0 1
    outer loop
      vertex -10.8156 -33.287 10
      vertex -8.46964 -44.3994 10
      vertex -6.55835 -34.3801 10
    endloop
  endfacet
  facet normal 0 0 1
    outer loop
      vertex -10.8156 -33.287 10
      vertex -13.9676 -42.9878 10
      vertex -8.46964 -44.3994 10
    endloop
  endfacet
  facet normal 0 0 1
    outer loop
      vertex -14.9023 -31.6689 10
      vertex -13.9676 -42.9878 10
      vertex -10.8156 -33.287 10
    endloop
  endfacet
  facet normal 0 0 1
    outer loop
      vertex -19.2452 -40.8982 10
      vertex -14.9023 -31.6689 10
      vertex -18.7539 -29.5515 10
    endloop
  endfacet
  facet normal 0 0 1
    outer loop
      vertex -14.9023 -31.6689 10
      vertex -19.2452 -40.8982 10
      vertex -13.9676 -42.9878 10
    endloop
  endfacet
  facet normal 0 0 1
    outer loop
      vertex -24.2194 -38.1636 10
      vertex -18.7539 -29.5515 10
      vertex -22.3098 -26.968 10
    endloop
  endfacet
  facet normal 0 0 1
    outer loop
      vertex -18.7539 -29.5515 10
      vertex -24.2194 -38.1636 10
      vertex -19.2452 -40.8982 10
    endloop
  endfacet
  facet normal 0 0 1
    outer loop
      vertex -28.8116 -34.8272 10
      vertex -22.3098 -26.968 10
      vertex -25.5139 -23.9591 10
    endloop
  endfacet
  facet normal 0 0 1
    outer loop
      vertex -32.9494 -30.9415 10
      vertex -25.5139 -23.9591 10
      vertex -28.3156 -20.5725 10
    endloop
  endfacet
  facet normal 0 0 1
    outer loop
      vertex -22.3098 -26.968 10
      vertex -28.8116 -34.8272 10
      vertex -24.2194 -38.1636 10
    endloop
  endfacet
  facet normal 0 0 1
    outer loop
      vertex -36.5676 -26.5679 10
      vertex -28.3156 -20.5725 10
      vertex -30.6707 -16.8614 10
    endloop
  endfacet
  facet normal 0 0 1
    outer loop
      vertex -39.6091 -21.7753 10
      vertex -30.6707 -16.8614 10
      vertex -32.5422 -12.8844 10
    endloop
  endfacet
  facet normal 0 0 1
    outer loop
      vertex -25.5139 -23.9591 10
      vertex -32.9494 -30.9415 10
      vertex -28.8116 -34.8272 10
    endloop
  endfacet
  facet normal 0 0 1
    outer loop
      vertex -42.0259 -16.6392 10
      vertex -32.5422 -12.8844 10
      vertex -33.9004 -8.70415 10
    endloop
  endfacet
  facet normal 0 0 1
    outer loop
      vertex -43.78 -11.2408 10
      vertex -33.9004 -8.70415 10
      vertex -34.724 -4.38666 10
    endloop
  endfacet
  facet normal 0 0 1
    outer loop
      vertex -28.3156 -20.5725 10
      vertex -36.5676 -26.5679 10
      vertex -32.9494 -30.9415 10
    endloop
  endfacet
  facet normal 0 0 1
    outer loop
      vertex -44.8436 -5.66506 10
      vertex -34.724 -4.38666 10
      vertex -35 0 10
    endloop
  endfacet
  facet normal -0 0 1
    outer loop
      vertex -43.78 11.2408 10
      vertex -33.9004 8.70415 10
      vertex -42.0259 16.6392 10
    endloop
  endfacet
  facet normal 0 0 1
    outer loop
      vertex -33.9004 8.70415 10
      vertex -43.78 11.2408 10
      vertex -34.724 4.38666 10
    endloop
  endfacet
  facet normal 0 0 1
    outer loop
      vertex -30.6707 -16.8614 10
      vertex -39.6091 -21.7753 10
      vertex -36.5676 -26.5679 10
    endloop
  endfacet
  facet normal -0 0 1
    outer loop
      vertex -44.8436 5.66506 10
      vertex -34.724 4.38666 10
      vertex -43.78 11.2408 10
    endloop
  endfacet
  facet normal 0 0 1
    outer loop
      vertex -32.5422 -12.8844 10
      vertex -42.0259 -16.6392 10
      vertex -39.6091 -21.7753 10
    endloop
  endfacet
  facet normal 0 0 1
    outer loop
      vertex -34.724 4.38666 10
      vertex -44.8436 5.66506 10
      vertex -35 0 10
    endloop
  endfacet
  facet normal 0 0 1
    outer loop
      vertex -33.9004 -8.70415 10
      vertex -43.78 -11.2408 10
      vertex -42.0259 -16.6392 10
    endloop
  endfacet
  facet normal 0 0 1
    outer loop
      vertex -45.2 0 10
      vertex -35 0 10
      vertex -44.8436 5.66506 10
    endloop
  endfacet
  facet normal 0 0 1
    outer loop
      vertex -34.724 -4.38666 10
      vertex -44.8436 -5.66506 10
      vertex -43.78 -11.2408 10
    endloop
  endfacet
  facet normal 0 0 1
    outer loop
      vertex -35 0 10
      vertex -45.2 0 10
      vertex -44.8436 -5.66506 10
    endloop
  endfacet
  facet normal -0.587782 0.809019 0
    outer loop
      vertex -24.2194 38.1636 0
      vertex -28.8116 34.8272 10
      vertex -24.2194 38.1636 10
    endloop
  endfacet
  facet normal -0.587782 0.809019 0
    outer loop
      vertex -28.8116 34.8272 10
      vertex -24.2194 38.1636 0
      vertex -28.8116 34.8272 0
    endloop
  endfacet
  facet normal -0.248684 0.968585 0
    outer loop
      vertex -8.46964 44.3994 0
      vertex -13.9676 42.9878 10
      vertex -8.46964 44.3994 10
    endloop
  endfacet
  facet normal -0.248684 0.968585 0
    outer loop
      vertex -13.9676 42.9878 10
      vertex -8.46964 44.3994 0
      vertex -13.9676 42.9878 0
    endloop
  endfacet
  facet normal 0.998027 -0.0627878 0
    outer loop
      vertex 44.8436 -5.66506 10
      vertex 45.2 0 0
      vertex 45.2 0 10
    endloop
  endfacet
  facet normal 0.998027 -0.0627878 0
    outer loop
      vertex 45.2 0 0
      vertex 44.8436 -5.66506 10
      vertex 44.8436 -5.66506 0
    endloop
  endfacet
  facet normal 0.951054 -0.309026 0
    outer loop
      vertex 42.0259 -16.6392 10
      vertex 43.78 -11.2408 0
      vertex 43.78 -11.2408 10
    endloop
  endfacet
  facet normal 0.951054 -0.309026 0
    outer loop
      vertex 43.78 -11.2408 0
      vertex 42.0259 -16.6392 10
      vertex 42.0259 -16.6392 0
    endloop
  endfacet
  facet normal 0.982288 -0.187376 0
    outer loop
      vertex 43.78 -11.2408 10
      vertex 44.8436 -5.66506 0
      vertex 44.8436 -5.66506 10
    endloop
  endfacet
  facet normal 0.982288 -0.187376 0
    outer loop
      vertex 44.8436 -5.66506 0
      vertex 43.78 -11.2408 10
      vertex 43.78 -11.2408 0
    endloop
  endfacet
  facet normal -0.904831 -0.42577 0
    outer loop
      vertex -39.6091 -21.7753 0
      vertex -42.0259 -16.6392 10
      vertex -42.0259 -16.6392 0
    endloop
  endfacet
  facet normal -0.904831 -0.42577 0
    outer loop
      vertex -42.0259 -16.6392 10
      vertex -39.6091 -21.7753 0
      vertex -39.6091 -21.7753 10
    endloop
  endfacet
  facet normal -0.770509 -0.637429 0
    outer loop
      vertex -32.9494 -30.9415 0
      vertex -36.5676 -26.5679 10
      vertex -36.5676 -26.5679 0
    endloop
  endfacet
  facet normal -0.770509 -0.637429 0
    outer loop
      vertex -36.5676 -26.5679 10
      vertex -32.9494 -30.9415 0
      vertex -32.9494 -30.9415 10
    endloop
  endfacet
  facet normal 0 0 -1
    outer loop
      vertex 35 0 0
      vertex 45.2 0 0
      vertex 44.8436 -5.66506 0
    endloop
  endfacet
  facet normal 0 0 -1
    outer loop
      vertex 34.724 -4.38666 0
      vertex 44.8436 -5.66506 0
      vertex 43.78 -11.2408 0
    endloop
  endfacet
  facet normal 0 0 -1
    outer loop
      vertex 45.2 0 0
      vertex 35 0 0
      vertex 44.8436 5.66506 0
    endloop
  endfacet
  facet normal 0 0 -1
    outer loop
      vertex 33.9004 -8.70415 0
      vertex 43.78 -11.2408 0
      vertex 42.0259 -16.6392 0
    endloop
  endfacet
  facet normal 0 0 -1
    outer loop
      vertex 34.724 4.38666 0
      vertex 44.8436 5.66506 0
      vertex 35 0 0
    endloop
  endfacet
  facet normal 0 0 -1
    outer loop
      vertex 32.5422 -12.8844 0
      vertex 42.0259 -16.6392 0
      vertex 39.6091 -21.7753 0
    endloop
  endfacet
  facet normal -0 0 -1
    outer loop
      vertex 44.8436 5.66506 0
      vertex 34.724 4.38666 0
      vertex 43.78 11.2408 0
    endloop
  endfacet
  facet normal 0 0 -1
    outer loop
      vertex 30.6707 -16.8614 0
      vertex 39.6091 -21.7753 0
      vertex 36.5676 -26.5679 0
    endloop
  endfacet
  facet normal 0 0 -1
    outer loop
      vertex 33.9004 8.70415 0
      vertex 43.78 11.2408 0
      vertex 34.724 4.38666 0
    endloop
  endfacet
  facet normal -0 0 -1
    outer loop
      vertex 43.78 11.2408 0
      vertex 33.9004 8.70415 0
      vertex 42.0259 16.6392 0
    endloop
  endfacet
  facet normal 0 0 -1
    outer loop
      vertex 44.8436 -5.66506 0
      vertex 34.724 -4.38666 0
      vertex 35 0 0
    endloop
  endfacet
  facet normal 0 0 -1
    outer loop
      vertex 43.78 -11.2408 0
      vertex 33.9004 -8.70415 0
      vertex 34.724 -4.38666 0
    endloop
  endfacet
  facet normal 0 0 -1
    outer loop
      vertex 28.3156 -20.5725 0
      vertex 36.5676 -26.5679 0
      vertex 32.9494 -30.9415 0
    endloop
  endfacet
  facet normal 0 0 -1
    outer loop
      vertex 42.0259 -16.6392 0
      vertex 32.5422 -12.8844 0
      vertex 33.9004 -8.70415 0
    endloop
  endfacet
  facet normal 0 0 -1
    outer loop
      vertex 39.6091 -21.7753 0
      vertex 30.6707 -16.8614 0
      vertex 32.5422 -12.8844 0
    endloop
  endfacet
  facet normal 0 0 -1
    outer loop
      vertex 25.5139 -23.9591 0
      vertex 32.9494 -30.9415 0
      vertex 28.8116 -34.8272 0
    endloop
  endfacet
  facet normal 0 0 -1
    outer loop
      vertex 36.5676 -26.5679 0
      vertex 28.3156 -20.5725 0
      vertex 30.6707 -16.8614 0
    endloop
  endfacet
  facet normal 0 0 -1
    outer loop
      vertex 32.9494 -30.9415 0
      vertex 25.5139 -23.9591 0
      vertex 28.3156 -20.5725 0
    endloop
  endfacet
  facet normal 0 0 -1
    outer loop
      vertex 22.3098 -26.968 0
      vertex 28.8116 -34.8272 0
      vertex 24.2194 -38.1636 0
    endloop
  endfacet
  facet normal 0 0 -1
    outer loop
      vertex 28.8116 -34.8272 0
      vertex 22.3098 -26.968 0
      vertex 25.5139 -23.9591 0
    endloop
  endfacet
  facet normal 0 0 -1
    outer loop
      vertex 18.7539 -29.5515 0
      vertex 24.2194 -38.1636 0
      vertex 19.2452 -40.8982 0
    endloop
  endfacet
  facet normal 0 0 -1
    outer loop
      vertex 24.2194 -38.1636 0
      vertex 18.7539 -29.5515 0
      vertex 22.3098 -26.968 0
    endloop
  endfacet
  facet normal 0 0 -1
    outer loop
      vertex 19.2452 -40.8982 0
      vertex 14.9023 -31.6689 0
      vertex 18.7539 -29.5515 0
    endloop
  endfacet
  facet normal 0 0 -1
    outer loop
      vertex 13.9676 -42.9878 0
      vertex 14.9023 -31.6689 0
      vertex 19.2452 -40.8982 0
    endloop
  endfacet
  facet normal 0 0 -1
    outer loop
      vertex 13.9676 -42.9878 0
      vertex 10.8156 -33.287 0
      vertex 14.9023 -31.6689 0
    endloop
  endfacet
  facet normal 0 0 -1
    outer loop
      vertex 8.46964 -44.3994 0
      vertex 10.8156 -33.287 0
      vertex 13.9676 -42.9878 0
    endloop
  endfacet
  facet normal 0 0 -1
    outer loop
      vertex 8.46964 -44.3994 0
      vertex 6.55835 -34.3801 0
      vertex 10.8156 -33.287 0
    endloop
  endfacet
  facet normal 0 0 -1
    outer loop
      vertex 2.83813 -45.1108 0
      vertex 6.55835 -34.3801 0
      vertex 8.46964 -44.3994 0
    endloop
  endfacet
  facet normal 0 0 -1
    outer loop
      vertex 2.83813 -45.1108 0
      vertex 2.19767 -34.9309 0
      vertex 6.55835 -34.3801 0
    endloop
  endfacet
  facet normal 0 0 -1
    outer loop
      vertex 2.83813 -45.1108 0
      vertex -2.19767 -34.9309 0
      vertex 2.19767 -34.9309 0
    endloop
  endfacet
  facet normal 0 0 -1
    outer loop
      vertex -2.83813 -45.1108 0
      vertex -2.19767 -34.9309 0
      vertex 2.83813 -45.1108 0
    endloop
  endfacet
  facet normal 0 0 -1
    outer loop
      vertex -2.83813 -45.1108 0
      vertex -6.55835 -34.3801 0
      vertex -2.19767 -34.9309 0
    endloop
  endfacet
  facet normal 0 0 -1
    outer loop
      vertex -8.46964 -44.3994 0
      vertex -6.55835 -34.3801 0
      vertex -2.83813 -45.1108 0
    endloop
  endfacet
  facet normal 0 0 -1
    outer loop
      vertex -8.46964 -44.3994 0
      vertex -10.8156 -33.287 0
      vertex -6.55835 -34.3801 0
    endloop
  endfacet
  facet normal 0 0 -1
    outer loop
      vertex -13.9676 -42.9878 0
      vertex -10.8156 -33.287 0
      vertex -8.46964 -44.3994 0
    endloop
  endfacet
  facet normal 0 0 -1
    outer loop
      vertex -13.9676 -42.9878 0
      vertex -14.9023 -31.6689 0
      vertex -10.8156 -33.287 0
    endloop
  endfacet
  facet normal 0 0 -1
    outer loop
      vertex -19.2452 -40.8982 0
      vertex -14.9023 -31.6689 0
      vertex -13.9676 -42.9878 0
    endloop
  endfacet
  facet normal -0 0 -1
    outer loop
      vertex -14.9023 -31.6689 0
      vertex -19.2452 -40.8982 0
      vertex -18.7539 -29.5515 0
    endloop
  endfacet
  facet normal 0 0 -1
    outer loop
      vertex -24.2194 -38.1636 0
      vertex -18.7539 -29.5515 0
      vertex -19.2452 -40.8982 0
    endloop
  endfacet
  facet normal -0 0 -1
    outer loop
      vertex -18.7539 -29.5515 0
      vertex -24.2194 -38.1636 0
      vertex -22.3098 -26.968 0
    endloop
  endfacet
  facet normal 0 0 -1
    outer loop
      vertex -28.8116 -34.8272 0
      vertex -22.3098 -26.968 0
      vertex -24.2194 -38.1636 0
    endloop
  endfacet
  facet normal -0 0 -1
    outer loop
      vertex -22.3098 -26.968 0
      vertex -28.8116 -34.8272 0
      vertex -25.5139 -23.9591 0
    endloop
  endfacet
  facet normal 0 0 -1
    outer loop
      vertex -32.9494 -30.9415 0
      vertex -25.5139 -23.9591 0
      vertex -28.8116 -34.8272 0
    endloop
  endfacet
  facet normal -0 0 -1
    outer loop
      vertex -25.5139 -23.9591 0
      vertex -32.9494 -30.9415 0
      vertex -28.3156 -20.5725 0
    endloop
  endfacet
  facet normal 0 0 -1
    outer loop
      vertex -36.5676 -26.5679 0
      vertex -28.3156 -20.5725 0
      vertex -32.9494 -30.9415 0
    endloop
  endfacet
  facet normal -0 0 -1
    outer loop
      vertex -28.3156 -20.5725 0
      vertex -36.5676 -26.5679 0
      vertex -30.6707 -16.8614 0
    endloop
  endfacet
  facet normal 0 0 -1
    outer loop
      vertex -39.6091 -21.7753 0
      vertex -30.6707 -16.8614 0
      vertex -36.5676 -26.5679 0
    endloop
  endfacet
  facet normal -0 0 -1
    outer loop
      vertex -30.6707 -16.8614 0
      vertex -39.6091 -21.7753 0
      vertex -32.5422 -12.8844 0
    endloop
  endfacet
  facet normal -0 0 -1
    outer loop
      vertex -32.5422 -12.8844 0
      vertex -42.0259 -16.6392 0
      vertex -33.9004 -8.70415 0
    endloop
  endfacet
  facet normal 0 0 -1
    outer loop
      vertex -42.0259 -16.6392 0
      vertex -32.5422 -12.8844 0
      vertex -39.6091 -21.7753 0
    endloop
  endfacet
  facet normal 0 0 -1
    outer loop
      vertex 32.5422 12.8844 0
      vertex 42.0259 16.6392 0
      vertex 33.9004 8.70415 0
    endloop
  endfacet
  facet normal -0 0 -1
    outer loop
      vertex 42.0259 16.6392 0
      vertex 32.5422 12.8844 0
      vertex 39.6091 21.7753 0
    endloop
  endfacet
  facet normal 0 0 -1
    outer loop
      vertex 30.6707 16.8614 0
      vertex 39.6091 21.7753 0
      vertex 32.5422 12.8844 0
    endloop
  endfacet
  facet normal -0 0 -1
    outer loop
      vertex 39.6091 21.7753 0
      vertex 30.6707 16.8614 0
      vertex 36.5676 26.5679 0
    endloop
  endfacet
  facet normal 0 0 -1
    outer loop
      vertex 28.3156 20.5725 0
      vertex 36.5676 26.5679 0
      vertex 30.6707 16.8614 0
    endloop
  endfacet
  facet normal -0 0 -1
    outer loop
      vertex 36.5676 26.5679 0
      vertex 28.3156 20.5725 0
      vertex 32.9494 30.9415 0
    endloop
  endfacet
  facet normal 0 0 -1
    outer loop
      vertex 25.5139 23.9591 0
      vertex 32.9494 30.9415 0
      vertex 28.3156 20.5725 0
    endloop
  endfacet
  facet normal -0 0 -1
    outer loop
      vertex 32.9494 30.9415 0
      vertex 25.5139 23.9591 0
      vertex 28.8116 34.8272 0
    endloop
  endfacet
  facet normal 0 0 -1
    outer loop
      vertex 22.3098 26.968 0
      vertex 28.8116 34.8272 0
      vertex 25.5139 23.9591 0
    endloop
  endfacet
  facet normal -0 0 -1
    outer loop
      vertex 28.8116 34.8272 0
      vertex 22.3098 26.968 0
      vertex 24.2194 38.1636 0
    endloop
  endfacet
  facet normal 0 0 -1
    outer loop
      vertex 18.7539 29.5515 0
      vertex 24.2194 38.1636 0
      vertex 22.3098 26.968 0
    endloop
  endfacet
  facet normal -0 0 -1
    outer loop
      vertex 24.2194 38.1636 0
      vertex 18.7539 29.5515 0
      vertex 19.2452 40.8982 0
    endloop
  endfacet
  facet normal 0 0 -1
    outer loop
      vertex 14.9023 31.6689 0
      vertex 19.2452 40.8982 0
      vertex 18.7539 29.5515 0
    endloop
  endfacet
  facet normal 0 0 -1
    outer loop
      vertex 14.9023 31.6689 0
      vertex 13.9676 42.9878 0
      vertex 19.2452 40.8982 0
    endloop
  endfacet
  facet normal 0 0 -1
    outer loop
      vertex 10.8156 33.287 0
      vertex 13.9676 42.9878 0
      vertex 14.9023 31.6689 0
    endloop
  endfacet
  facet normal 0 0 -1
    outer loop
      vertex 10.8156 33.287 0
      vertex 8.46964 44.3994 0
      vertex 13.9676 42.9878 0
    endloop
  endfacet
  facet normal 0 0 -1
    outer loop
      vertex 6.55835 34.3801 0
      vertex 8.46964 44.3994 0
      vertex 10.8156 33.287 0
    endloop
  endfacet
  facet normal 0 0 -1
    outer loop
      vertex 6.55835 34.3801 0
      vertex 2.83813 45.1108 0
      vertex 8.46964 44.3994 0
    endloop
  endfacet
  facet normal 0 0 -1
    outer loop
      vertex 2.19767 34.9309 0
      vertex 2.83813 45.1108 0
      vertex 6.55835 34.3801 0
    endloop
  endfacet
  facet normal 0 0 -1
    outer loop
      vertex -2.19767 34.9309 0
      vertex 2.83813 45.1108 0
      vertex 2.19767 34.9309 0
    endloop
  endfacet
  facet normal 0 0 -1
    outer loop
      vertex -2.19767 34.9309 0
      vertex -2.83813 45.1108 0
      vertex 2.83813 45.1108 0
    endloop
  endfacet
  facet normal 0 0 -1
    outer loop
      vertex -6.55835 34.3801 0
      vertex -2.83813 45.1108 0
      vertex -2.19767 34.9309 0
    endloop
  endfacet
  facet normal 0 0 -1
    outer loop
      vertex -6.55835 34.3801 0
      vertex -8.46964 44.3994 0
      vertex -2.83813 45.1108 0
    endloop
  endfacet
  facet normal 0 0 -1
    outer loop
      vertex -10.8156 33.287 0
      vertex -8.46964 44.3994 0
      vertex -6.55835 34.3801 0
    endloop
  endfacet
  facet normal 0 0 -1
    outer loop
      vertex -10.8156 33.287 0
      vertex -13.9676 42.9878 0
      vertex -8.46964 44.3994 0
    endloop
  endfacet
  facet normal 0 0 -1
    outer loop
      vertex -14.9023 31.6689 0
      vertex -13.9676 42.9878 0
      vertex -10.8156 33.287 0
    endloop
  endfacet
  facet normal 0 0 -1
    outer loop
      vertex -19.2452 40.8982 0
      vertex -14.9023 31.6689 0
      vertex -18.7539 29.5515 0
    endloop
  endfacet
  facet normal 0 0 -1
    outer loop
      vertex -14.9023 31.6689 0
      vertex -19.2452 40.8982 0
      vertex -13.9676 42.9878 0
    endloop
  endfacet
  facet normal 0 0 -1
    outer loop
      vertex -24.2194 38.1636 0
      vertex -18.7539 29.5515 0
      vertex -22.3098 26.968 0
    endloop
  endfacet
  facet normal 0 0 -1
    outer loop
      vertex -18.7539 29.5515 0
      vertex -24.2194 38.1636 0
      vertex -19.2452 40.8982 0
    endloop
  endfacet
  facet normal 0 0 -1
    outer loop
      vertex -28.8116 34.8272 0
      vertex -22.3098 26.968 0
      vertex -25.5139 23.9591 0
    endloop
  endfacet
  facet normal 0 0 -1
    outer loop
      vertex -32.9494 30.9415 0
      vertex -25.5139 23.9591 0
      vertex -28.3156 20.5725 0
    endloop
  endfacet
  facet normal 0 0 -1
    outer loop
      vertex -22.3098 26.968 0
      vertex -28.8116 34.8272 0
      vertex -24.2194 38.1636 0
    endloop
  endfacet
  facet normal 0 0 -1
    outer loop
      vertex -36.5676 26.5679 0
      vertex -28.3156 20.5725 0
      vertex -30.6707 16.8614 0
    endloop
  endfacet
  facet normal 0 0 -1
    outer loop
      vertex -39.6091 21.7753 0
      vertex -30.6707 16.8614 0
      vertex -32.5422 12.8844 0
    endloop
  endfacet
  facet normal 0 0 -1
    outer loop
      vertex -25.5139 23.9591 0
      vertex -32.9494 30.9415 0
      vertex -28.8116 34.8272 0
    endloop
  endfacet
  facet normal 0 0 -1
    outer loop
      vertex -42.0259 16.6392 0
      vertex -32.5422 12.8844 0
      vertex -33.9004 8.70415 0
    endloop
  endfacet
  facet normal 0 0 -1
    outer loop
      vertex -43.78 11.2408 0
      vertex -33.9004 8.70415 0
      vertex -34.724 4.38666 0
    endloop
  endfacet
  facet normal 0 0 -1
    outer loop
      vertex -28.3156 20.5725 0
      vertex -36.5676 26.5679 0
      vertex -32.9494 30.9415 0
    endloop
  endfacet
  facet normal 0 0 -1
    outer loop
      vertex -44.8436 5.66506 0
      vertex -34.724 4.38666 0
      vertex -35 0 0
    endloop
  endfacet
  facet normal 0 0 -1
    outer loop
      vertex -43.78 -11.2408 0
      vertex -33.9004 -8.70415 0
      vertex -42.0259 -16.6392 0
    endloop
  endfacet
  facet normal -0 0 -1
    outer loop
      vertex -33.9004 -8.70415 0
      vertex -43.78 -11.2408 0
      vertex -34.724 -4.38666 0
    endloop
  endfacet
  facet normal 0 0 -1
    outer loop
      vertex -30.6707 16.8614 0
      vertex -39.6091 21.7753 0
      vertex -36.5676 26.5679 0
    endloop
  endfacet
  facet normal 0 0 -1
    outer loop
      vertex -44.8436 -5.66506 0
      vertex -34.724 -4.38666 0
      vertex -43.78 -11.2408 0
    endloop
  endfacet
  facet normal 0 0 -1
    outer loop
      vertex -32.5422 12.8844 0
      vertex -42.0259 16.6392 0
      vertex -39.6091 21.7753 0
    endloop
  endfacet
  facet normal -0 0 -1
    outer loop
      vertex -34.724 -4.38666 0
      vertex -44.8436 -5.66506 0
      vertex -35 0 0
    endloop
  endfacet
  facet normal 0 0 -1
    outer loop
      vertex -33.9004 8.70415 0
      vertex -43.78 11.2408 0
      vertex -42.0259 16.6392 0
    endloop
  endfacet
  facet normal 0 0 -1
    outer loop
      vertex -45.2 0 0
      vertex -35 0 0
      vertex -44.8436 -5.66506 0
    endloop
  endfacet
  facet normal 0 0 -1
    outer loop
      vertex -34.724 4.38666 0
      vertex -44.8436 5.66506 0
      vertex -43.78 11.2408 0
    endloop
  endfacet
  facet normal 0 0 -1
    outer loop
      vertex -35 0 0
      vertex -45.2 0 0
      vertex -44.8436 5.66506 0
    endloop
  endfacet
  facet normal 0.587782 -0.809019 0
    outer loop
      vertex 24.2194 -38.1636 0
      vertex 28.8116 -34.8272 10
      vertex 24.2194 -38.1636 10
    endloop
  endfacet
  facet normal 0.587782 -0.809019 0
    outer loop
      vertex 28.8116 -34.8272 10
      vertex 24.2194 -38.1636 0
      vertex 28.8116 -34.8272 0
    endloop
  endfacet
  facet normal -0.951054 -0.309026 0
    outer loop
      vertex -42.0259 -16.6392 0
      vertex -43.78 -11.2408 10
      vertex -43.78 -11.2408 0
    endloop
  endfacet
  facet normal -0.951054 -0.309026 0
    outer loop
      vertex -43.78 -11.2408 10
      vertex -42.0259 -16.6392 0
      vertex -42.0259 -16.6392 10
    endloop
  endfacet
  facet normal 0.770509 -0.637429 0
    outer loop
      vertex 32.9494 -30.9415 10
      vertex 36.5676 -26.5679 0
      vertex 36.5676 -26.5679 10
    endloop
  endfacet
  facet normal 0.770509 -0.637429 0
    outer loop
      vertex 36.5676 -26.5679 0
      vertex 32.9494 -30.9415 10
      vertex 32.9494 -30.9415 0
    endloop
  endfacet
  facet normal 0.481755 -0.876306 0
    outer loop
      vertex 19.2452 -40.8982 0
      vertex 24.2194 -38.1636 10
      vertex 19.2452 -40.8982 10
    endloop
  endfacet
  facet normal 0.481755 -0.876306 0
    outer loop
      vertex 24.2194 -38.1636 10
      vertex 19.2452 -40.8982 0
      vertex 24.2194 -38.1636 0
    endloop
  endfacet
  facet normal 0.368132 -0.929773 0
    outer loop
      vertex 13.9676 -42.9878 0
      vertex 19.2452 -40.8982 10
      vertex 13.9676 -42.9878 10
    endloop
  endfacet
  facet normal 0.368132 -0.929773 0
    outer loop
      vertex 19.2452 -40.8982 10
      vertex 13.9676 -42.9878 0
      vertex 19.2452 -40.8982 0
    endloop
  endfacet
  facet normal 0.248684 -0.968585 0
    outer loop
      vertex 8.46964 -44.3994 0
      vertex 13.9676 -42.9878 10
      vertex 8.46964 -44.3994 10
    endloop
  endfacet
  facet normal 0.248684 -0.968585 0
    outer loop
      vertex 13.9676 -42.9878 10
      vertex 8.46964 -44.3994 0
      vertex 13.9676 -42.9878 0
    endloop
  endfacet
  facet normal 0.904831 -0.42577 0
    outer loop
      vertex 39.6091 -21.7753 10
      vertex 42.0259 -16.6392 0
      vertex 42.0259 -16.6392 10
    endloop
  endfacet
  facet normal 0.904831 -0.42577 0
    outer loop
      vertex 42.0259 -16.6392 0
      vertex 39.6091 -21.7753 10
      vertex 39.6091 -21.7753 0
    endloop
  endfacet
  facet normal 0.844326 -0.53583 0
    outer loop
      vertex 36.5676 -26.5679 10
      vertex 39.6091 -21.7753 0
      vertex 39.6091 -21.7753 10
    endloop
  endfacet
  facet normal 0.844326 -0.53583 0
    outer loop
      vertex 39.6091 -21.7753 0
      vertex 36.5676 -26.5679 10
      vertex 36.5676 -26.5679 0
    endloop
  endfacet
  facet normal -0.125329 -0.992115 0
    outer loop
      vertex -8.46964 -44.3994 0
      vertex -2.83813 -45.1108 10
      vertex -8.46964 -44.3994 10
    endloop
  endfacet
  facet normal -0.125329 -0.992115 -0
    outer loop
      vertex -2.83813 -45.1108 10
      vertex -8.46964 -44.3994 0
      vertex -2.83813 -45.1108 0
    endloop
  endfacet
  facet normal -0.368132 -0.929773 0
    outer loop
      vertex -19.2452 -40.8982 0
      vertex -13.9676 -42.9878 10
      vertex -19.2452 -40.8982 10
    endloop
  endfacet
  facet normal -0.368132 -0.929773 -0
    outer loop
      vertex -13.9676 -42.9878 10
      vertex -19.2452 -40.8982 0
      vertex -13.9676 -42.9878 0
    endloop
  endfacet
  facet normal -0.248684 -0.968585 0
    outer loop
      vertex -13.9676 -42.9878 0
      vertex -8.46964 -44.3994 10
      vertex -13.9676 -42.9878 10
    endloop
  endfacet
  facet normal -0.248684 -0.968585 -0
    outer loop
      vertex -8.46964 -44.3994 10
      vertex -13.9676 -42.9878 0
      vertex -8.46964 -44.3994 0
    endloop
  endfacet
  facet normal -0.844326 -0.53583 0
    outer loop
      vertex -36.5676 -26.5679 0
      vertex -39.6091 -21.7753 10
      vertex -39.6091 -21.7753 0
    endloop
  endfacet
  facet normal -0.844326 -0.53583 0
    outer loop
      vertex -39.6091 -21.7753 10
      vertex -36.5676 -26.5679 0
      vertex -36.5676 -26.5679 10
    endloop
  endfacet
  facet normal -0.982288 -0.187376 0
    outer loop
      vertex -43.78 -11.2408 0
      vertex -44.8436 -5.66506 10
      vertex -44.8436 -5.66506 0
    endloop
  endfacet
  facet normal -0.982288 -0.187376 0
    outer loop
      vertex -44.8436 -5.66506 10
      vertex -43.78 -11.2408 0
      vertex -43.78 -11.2408 10
    endloop
  endfacet
  facet normal -0.998027 -0.0627878 0
    outer loop
      vertex -44.8436 -5.66506 0
      vertex -45.2 0 10
      vertex -45.2 0 0
    endloop
  endfacet
  facet normal -0.998027 -0.0627878 0
    outer loop
      vertex -45.2 0 10
      vertex -44.8436 -5.66506 0
      vertex -44.8436 -5.66506 10
    endloop
  endfacet
  facet normal 0.684552 -0.728964 0
    outer loop
      vertex 28.8116 -34.8272 0
      vertex 32.9494 -30.9415 10
      vertex 28.8116 -34.8272 10
    endloop
  endfacet
  facet normal 0.684552 -0.728964 0
    outer loop
      vertex 32.9494 -30.9415 10
      vertex 28.8116 -34.8272 0
      vertex 32.9494 -30.9415 0
    endloop
  endfacet
  facet normal -0.481755 -0.876306 0
    outer loop
      vertex -24.2194 -38.1636 0
      vertex -19.2452 -40.8982 10
      vertex -24.2194 -38.1636 10
    endloop
  endfacet
  facet normal -0.481755 -0.876306 -0
    outer loop
      vertex -19.2452 -40.8982 10
      vertex -24.2194 -38.1636 0
      vertex -19.2452 -40.8982 0
    endloop
  endfacet
  facet normal -0.587782 -0.809019 0
    outer loop
      vertex -28.8116 -34.8272 0
      vertex -24.2194 -38.1636 10
      vertex -28.8116 -34.8272 10
    endloop
  endfacet
  facet normal -0.587782 -0.809019 -0
    outer loop
      vertex -24.2194 -38.1636 10
      vertex -28.8116 -34.8272 0
      vertex -24.2194 -38.1636 0
    endloop
  endfacet
  facet normal -0.684552 -0.728964 0
    outer loop
      vertex -32.9494 -30.9415 0
      vertex -28.8116 -34.8272 10
      vertex -32.9494 -30.9415 10
    endloop
  endfacet
  facet normal -0.684552 -0.728964 -0
    outer loop
      vertex -28.8116 -34.8272 10
      vertex -32.9494 -30.9415 0
      vertex -28.8116 -34.8272 0
    endloop
  endfacet
  facet normal -0.998027 -0.0627939 0
    outer loop
      vertex 35 0 0
      vertex 34.724 4.38666 10
      vertex 34.724 4.38666 0
    endloop
  endfacet
  facet normal -0.998027 -0.0627939 0
    outer loop
      vertex 34.724 4.38666 10
      vertex 35 0 0
      vertex 35 0 10
    endloop
  endfacet
  facet normal 0.998027 -0.0627939 0
    outer loop
      vertex -35 0 10
      vertex -34.724 4.38666 0
      vertex -34.724 4.38666 10
    endloop
  endfacet
  facet normal 0.998027 -0.0627939 0
    outer loop
      vertex -34.724 4.38666 0
      vertex -35 0 10
      vertex -35 0 0
    endloop
  endfacet
  facet normal 0 -1 0
    outer loop
      vertex -2.19767 34.9309 0
      vertex 2.19767 34.9309 10
      vertex -2.19767 34.9309 10
    endloop
  endfacet
  facet normal 0 -1 -0
    outer loop
      vertex 2.19767 34.9309 10
      vertex -2.19767 34.9309 0
      vertex 2.19767 34.9309 0
    endloop
  endfacet
  facet normal 0 1 -0
    outer loop
      vertex 2.19767 -34.9309 0
      vertex -2.19767 -34.9309 10
      vertex 2.19767 -34.9309 10
    endloop
  endfacet
  facet normal 0 1 0
    outer loop
      vertex -2.19767 -34.9309 10
      vertex 2.19767 -34.9309 0
      vertex -2.19767 -34.9309 0
    endloop
  endfacet
  facet normal -0.684553 -0.728963 0
    outer loop
      vertex 22.3098 26.968 0
      vertex 25.5139 23.9591 10
      vertex 22.3098 26.968 10
    endloop
  endfacet
  facet normal -0.684553 -0.728963 -0
    outer loop
      vertex 25.5139 23.9591 10
      vertex 22.3098 26.968 0
      vertex 25.5139 23.9591 0
    endloop
  endfacet
  facet normal 0.684553 -0.728963 0
    outer loop
      vertex -25.5139 23.9591 0
      vertex -22.3098 26.968 10
      vertex -25.5139 23.9591 10
    endloop
  endfacet
  facet normal 0.684553 -0.728963 0
    outer loop
      vertex -22.3098 26.968 10
      vertex -25.5139 23.9591 0
      vertex -22.3098 26.968 0
    endloop
  endfacet
  facet normal 0.368137 -0.929772 0
    outer loop
      vertex -14.9023 31.6689 0
      vertex -10.8156 33.287 10
      vertex -14.9023 31.6689 10
    endloop
  endfacet
  facet normal 0.368137 -0.929772 0
    outer loop
      vertex -10.8156 33.287 10
      vertex -14.9023 31.6689 0
      vertex -10.8156 33.287 0
    endloop
  endfacet
  facet normal -0.904821 -0.425792 0
    outer loop
      vertex 32.5422 12.8844 0
      vertex 30.6707 16.8614 10
      vertex 30.6707 16.8614 0
    endloop
  endfacet
  facet normal -0.904821 -0.425792 0
    outer loop
      vertex 30.6707 16.8614 10
      vertex 32.5422 12.8844 0
      vertex 32.5422 12.8844 10
    endloop
  endfacet
  facet normal -0.368137 -0.929772 0
    outer loop
      vertex 10.8156 33.287 0
      vertex 14.9023 31.6689 10
      vertex 10.8156 33.287 10
    endloop
  endfacet
  facet normal -0.368137 -0.929772 -0
    outer loop
      vertex 14.9023 31.6689 10
      vertex 10.8156 33.287 0
      vertex 14.9023 31.6689 0
    endloop
  endfacet
  facet normal -0.248695 -0.968582 0
    outer loop
      vertex 6.55835 34.3801 0
      vertex 10.8156 33.287 10
      vertex 6.55835 34.3801 10
    endloop
  endfacet
  facet normal -0.248695 -0.968582 -0
    outer loop
      vertex 10.8156 33.287 10
      vertex 6.55835 34.3801 0
      vertex 10.8156 33.287 0
    endloop
  endfacet
  facet normal -0.481748 -0.87631 0
    outer loop
      vertex 14.9023 31.6689 0
      vertex 18.7539 29.5515 10
      vertex 14.9023 31.6689 10
    endloop
  endfacet
  facet normal -0.481748 -0.87631 -0
    outer loop
      vertex 18.7539 29.5515 10
      vertex 14.9023 31.6689 0
      vertex 18.7539 29.5515 0
    endloop
  endfacet
  facet normal 0.904821 -0.425792 0
    outer loop
      vertex -32.5422 12.8844 10
      vertex -30.6707 16.8614 0
      vertex -30.6707 16.8614 10
    endloop
  endfacet
  facet normal 0.904821 -0.425792 0
    outer loop
      vertex -30.6707 16.8614 0
      vertex -32.5422 12.8844 10
      vertex -32.5422 12.8844 0
    endloop
  endfacet
  facet normal 0.125315 -0.992117 0
    outer loop
      vertex -6.55835 34.3801 0
      vertex -2.19767 34.9309 10
      vertex -6.55835 34.3801 10
    endloop
  endfacet
  facet normal 0.125315 -0.992117 0
    outer loop
      vertex -2.19767 34.9309 10
      vertex -6.55835 34.3801 0
      vertex -2.19767 34.9309 0
    endloop
  endfacet
  facet normal -0.125315 0.992117 0
    outer loop
      vertex 6.55835 -34.3801 0
      vertex 2.19767 -34.9309 10
      vertex 6.55835 -34.3801 10
    endloop
  endfacet
  facet normal -0.125315 0.992117 0
    outer loop
      vertex 2.19767 -34.9309 10
      vertex 6.55835 -34.3801 0
      vertex 2.19767 -34.9309 0
    endloop
  endfacet
  facet normal -0.95106 -0.309008 0
    outer loop
      vertex 33.9004 8.70415 0
      vertex 32.5422 12.8844 10
      vertex 32.5422 12.8844 0
    endloop
  endfacet
  facet normal -0.95106 -0.309008 0
    outer loop
      vertex 32.5422 12.8844 10
      vertex 33.9004 8.70415 0
      vertex 33.9004 8.70415 10
    endloop
  endfacet
  facet normal -0.982287 -0.18738 0
    outer loop
      vertex 34.724 4.38666 0
      vertex 33.9004 8.70415 10
      vertex 33.9004 8.70415 0
    endloop
  endfacet
  facet normal -0.982287 -0.18738 0
    outer loop
      vertex 33.9004 8.70415 10
      vertex 34.724 4.38666 0
      vertex 34.724 4.38666 10
    endloop
  endfacet
  facet normal -0.770506 -0.637432 0
    outer loop
      vertex 28.3156 20.5725 0
      vertex 25.5139 23.9591 10
      vertex 25.5139 23.9591 0
    endloop
  endfacet
  facet normal -0.770506 -0.637432 0
    outer loop
      vertex 25.5139 23.9591 10
      vertex 28.3156 20.5725 0
      vertex 28.3156 20.5725 10
    endloop
  endfacet
  facet normal -0.844332 -0.535821 0
    outer loop
      vertex 30.6707 16.8614 0
      vertex 28.3156 20.5725 10
      vertex 28.3156 20.5725 0
    endloop
  endfacet
  facet normal -0.844332 -0.535821 0
    outer loop
      vertex 28.3156 20.5725 10
      vertex 30.6707 16.8614 0
      vertex 30.6707 16.8614 10
    endloop
  endfacet
  facet normal -0.125315 -0.992117 0
    outer loop
      vertex 2.19767 34.9309 0
      vertex 6.55835 34.3801 10
      vertex 2.19767 34.9309 10
    endloop
  endfacet
  facet normal -0.125315 -0.992117 -0
    outer loop
      vertex 6.55835 34.3801 10
      vertex 2.19767 34.9309 0
      vertex 6.55835 34.3801 0
    endloop
  endfacet
  facet normal -0.587783 -0.809018 0
    outer loop
      vertex 18.7539 29.5515 0
      vertex 22.3098 26.968 10
      vertex 18.7539 29.5515 10
    endloop
  endfacet
  facet normal -0.587783 -0.809018 -0
    outer loop
      vertex 22.3098 26.968 10
      vertex 18.7539 29.5515 0
      vertex 22.3098 26.968 0
    endloop
  endfacet
  facet normal 0.844332 -0.535821 0
    outer loop
      vertex -30.6707 16.8614 10
      vertex -28.3156 20.5725 0
      vertex -28.3156 20.5725 10
    endloop
  endfacet
  facet normal 0.844332 -0.535821 0
    outer loop
      vertex -28.3156 20.5725 0
      vertex -30.6707 16.8614 10
      vertex -30.6707 16.8614 0
    endloop
  endfacet
  facet normal 0.770506 -0.637432 0
    outer loop
      vertex -28.3156 20.5725 10
      vertex -25.5139 23.9591 0
      vertex -25.5139 23.9591 10
    endloop
  endfacet
  facet normal 0.770506 -0.637432 0
    outer loop
      vertex -25.5139 23.9591 0
      vertex -28.3156 20.5725 10
      vertex -28.3156 20.5725 0
    endloop
  endfacet
  facet normal 0.95106 -0.309008 0
    outer loop
      vertex -33.9004 8.70415 10
      vertex -32.5422 12.8844 0
      vertex -32.5422 12.8844 10
    endloop
  endfacet
  facet normal 0.95106 -0.309008 0
    outer loop
      vertex -32.5422 12.8844 0
      vertex -33.9004 8.70415 10
      vertex -33.9004 8.70415 0
    endloop
  endfacet
  facet normal 0.982287 -0.18738 0
    outer loop
      vertex -34.724 4.38666 10
      vertex -33.9004 8.70415 0
      vertex -33.9004 8.70415 10
    endloop
  endfacet
  facet normal 0.982287 -0.18738 0
    outer loop
      vertex -33.9004 8.70415 0
      vertex -34.724 4.38666 10
      vertex -34.724 4.38666 0
    endloop
  endfacet
  facet normal 0.481748 -0.87631 0
    outer loop
      vertex -18.7539 29.5515 0
      vertex -14.9023 31.6689 10
      vertex -18.7539 29.5515 10
    endloop
  endfacet
  facet normal 0.481748 -0.87631 0
    outer loop
      vertex -14.9023 31.6689 10
      vertex -18.7539 29.5515 0
      vertex -14.9023 31.6689 0
    endloop
  endfacet
  facet normal 0.587783 -0.809018 0
    outer loop
      vertex -22.3098 26.968 0
      vertex -18.7539 29.5515 10
      vertex -22.3098 26.968 10
    endloop
  endfacet
  facet normal 0.587783 -0.809018 0
    outer loop
      vertex -18.7539 29.5515 10
      vertex -22.3098 26.968 0
      vertex -18.7539 29.5515 0
    endloop
  endfacet
  facet normal 0.248695 -0.968582 0
    outer loop
      vertex -10.8156 33.287 0
      vertex -6.55835 34.3801 10
      vertex -10.8156 33.287 10
    endloop
  endfacet
  facet normal 0.248695 -0.968582 0
    outer loop
      vertex -6.55835 34.3801 10
      vertex -10.8156 33.287 0
      vertex -6.55835 34.3801 0
    endloop
  endfacet
  facet normal -0.998027 0.0627939 0
    outer loop
      vertex 34.724 -4.38666 0
      vertex 35 0 10
      vertex 35 0 0
    endloop
  endfacet
  facet normal -0.998027 0.0627939 0
    outer loop
      vertex 35 0 10
      vertex 34.724 -4.38666 0
      vertex 34.724 -4.38666 10
    endloop
  endfacet
  facet normal -0.904821 0.425792 0
    outer loop
      vertex 30.6707 -16.8614 0
      vertex 32.5422 -12.8844 10
      vertex 32.5422 -12.8844 0
    endloop
  endfacet
  facet normal -0.904821 0.425792 0
    outer loop
      vertex 32.5422 -12.8844 10
      vertex 30.6707 -16.8614 0
      vertex 30.6707 -16.8614 10
    endloop
  endfacet
  facet normal 0.684553 0.728963 -0
    outer loop
      vertex -22.3098 -26.968 0
      vertex -25.5139 -23.9591 10
      vertex -22.3098 -26.968 10
    endloop
  endfacet
  facet normal 0.684553 0.728963 0
    outer loop
      vertex -25.5139 -23.9591 10
      vertex -22.3098 -26.968 0
      vertex -25.5139 -23.9591 0
    endloop
  endfacet
  facet normal 0.904821 0.425792 0
    outer loop
      vertex -30.6707 -16.8614 10
      vertex -32.5422 -12.8844 0
      vertex -32.5422 -12.8844 10
    endloop
  endfacet
  facet normal 0.904821 0.425792 0
    outer loop
      vertex -32.5422 -12.8844 0
      vertex -30.6707 -16.8614 10
      vertex -30.6707 -16.8614 0
    endloop
  endfacet
  facet normal 0.844332 0.535821 0
    outer loop
      vertex -28.3156 -20.5725 10
      vertex -30.6707 -16.8614 0
      vertex -30.6707 -16.8614 10
    endloop
  endfacet
  facet normal 0.844332 0.535821 0
    outer loop
      vertex -30.6707 -16.8614 0
      vertex -28.3156 -20.5725 10
      vertex -28.3156 -20.5725 0
    endloop
  endfacet
  facet normal -0.481748 0.87631 0
    outer loop
      vertex 18.7539 -29.5515 0
      vertex 14.9023 -31.6689 10
      vertex 18.7539 -29.5515 10
    endloop
  endfacet
  facet normal -0.481748 0.87631 0
    outer loop
      vertex 14.9023 -31.6689 10
      vertex 18.7539 -29.5515 0
      vertex 14.9023 -31.6689 0
    endloop
  endfacet
  facet normal -0.982287 0.18738 0
    outer loop
      vertex 33.9004 -8.70415 0
      vertex 34.724 -4.38666 10
      vertex 34.724 -4.38666 0
    endloop
  endfacet
  facet normal -0.982287 0.18738 0
    outer loop
      vertex 34.724 -4.38666 10
      vertex 33.9004 -8.70415 0
      vertex 33.9004 -8.70415 10
    endloop
  endfacet
  facet normal -0.95106 0.309008 0
    outer loop
      vertex 32.5422 -12.8844 0
      vertex 33.9004 -8.70415 10
      vertex 33.9004 -8.70415 0
    endloop
  endfacet
  facet normal -0.95106 0.309008 0
    outer loop
      vertex 33.9004 -8.70415 10
      vertex 32.5422 -12.8844 0
      vertex 32.5422 -12.8844 10
    endloop
  endfacet
  facet normal 0.770506 0.637432 0
    outer loop
      vertex -25.5139 -23.9591 10
      vertex -28.3156 -20.5725 0
      vertex -28.3156 -20.5725 10
    endloop
  endfacet
  facet normal 0.770506 0.637432 0
    outer loop
      vertex -28.3156 -20.5725 0
      vertex -25.5139 -23.9591 10
      vertex -25.5139 -23.9591 0
    endloop
  endfacet
  facet normal 0.982287 0.18738 0
    outer loop
      vertex -33.9004 -8.70415 10
      vertex -34.724 -4.38666 0
      vertex -34.724 -4.38666 10
    endloop
  endfacet
  facet normal 0.982287 0.18738 0
    outer loop
      vertex -34.724 -4.38666 0
      vertex -33.9004 -8.70415 10
      vertex -33.9004 -8.70415 0
    endloop
  endfacet
  facet normal 0.998027 0.0627939 0
    outer loop
      vertex -34.724 -4.38666 10
      vertex -35 0 0
      vertex -35 0 10
    endloop
  endfacet
  facet normal 0.998027 0.0627939 0
    outer loop
      vertex -35 0 0
      vertex -34.724 -4.38666 10
      vertex -34.724 -4.38666 0
    endloop
  endfacet
  facet normal 0.95106 0.309008 0
    outer loop
      vertex -32.5422 -12.8844 10
      vertex -33.9004 -8.70415 0
      vertex -33.9004 -8.70415 10
    endloop
  endfacet
  facet normal 0.95106 0.309008 0
    outer loop
      vertex -33.9004 -8.70415 0
      vertex -32.5422 -12.8844 10
      vertex -32.5422 -12.8844 0
    endloop
  endfacet
  facet normal -0.684553 0.728963 0
    outer loop
      vertex 25.5139 -23.9591 0
      vertex 22.3098 -26.968 10
      vertex 25.5139 -23.9591 10
    endloop
  endfacet
  facet normal -0.684553 0.728963 0
    outer loop
      vertex 22.3098 -26.968 10
      vertex 25.5139 -23.9591 0
      vertex 22.3098 -26.968 0
    endloop
  endfacet
  facet normal -0.368137 0.929772 0
    outer loop
      vertex 14.9023 -31.6689 0
      vertex 10.8156 -33.287 10
      vertex 14.9023 -31.6689 10
    endloop
  endfacet
  facet normal -0.368137 0.929772 0
    outer loop
      vertex 10.8156 -33.287 10
      vertex 14.9023 -31.6689 0
      vertex 10.8156 -33.287 0
    endloop
  endfacet
  facet normal -0.248695 0.968582 0
    outer loop
      vertex 10.8156 -33.287 0
      vertex 6.55835 -34.3801 10
      vertex 10.8156 -33.287 10
    endloop
  endfacet
  facet normal -0.248695 0.968582 0
    outer loop
      vertex 6.55835 -34.3801 10
      vertex 10.8156 -33.287 0
      vertex 6.55835 -34.3801 0
    endloop
  endfacet
  facet normal -0.844332 0.535821 0
    outer loop
      vertex 28.3156 -20.5725 0
      vertex 30.6707 -16.8614 10
      vertex 30.6707 -16.8614 0
    endloop
  endfacet
  facet normal -0.844332 0.535821 0
    outer loop
      vertex 30.6707 -16.8614 10
      vertex 28.3156 -20.5725 0
      vertex 28.3156 -20.5725 10
    endloop
  endfacet
  facet normal -0.770506 0.637432 0
    outer loop
      vertex 25.5139 -23.9591 0
      vertex 28.3156 -20.5725 10
      vertex 28.3156 -20.5725 0
    endloop
  endfacet
  facet normal -0.770506 0.637432 0
    outer loop
      vertex 28.3156 -20.5725 10
      vertex 25.5139 -23.9591 0
      vertex 25.5139 -23.9591 10
    endloop
  endfacet
  facet normal 0.368137 0.929772 -0
    outer loop
      vertex -10.8156 -33.287 0
      vertex -14.9023 -31.6689 10
      vertex -10.8156 -33.287 10
    endloop
  endfacet
  facet normal 0.368137 0.929772 0
    outer loop
      vertex -14.9023 -31.6689 10
      vertex -10.8156 -33.287 0
      vertex -14.9023 -31.6689 0
    endloop
  endfacet
  facet normal 0.248695 0.968582 -0
    outer loop
      vertex -6.55835 -34.3801 0
      vertex -10.8156 -33.287 10
      vertex -6.55835 -34.3801 10
    endloop
  endfacet
  facet normal 0.248695 0.968582 0
    outer loop
      vertex -10.8156 -33.287 10
      vertex -6.55835 -34.3801 0
      vertex -10.8156 -33.287 0
    endloop
  endfacet
  facet normal -0.587783 0.809018 0
    outer loop
      vertex 22.3098 -26.968 0
      vertex 18.7539 -29.5515 10
      vertex 22.3098 -26.968 10
    endloop
  endfacet
  facet normal -0.587783 0.809018 0
    outer loop
      vertex 18.7539 -29.5515 10
      vertex 22.3098 -26.968 0
      vertex 18.7539 -29.5515 0
    endloop
  endfacet
  facet normal 0.125315 0.992117 -0
    outer loop
      vertex -2.19767 -34.9309 0
      vertex -6.55835 -34.3801 10
      vertex -2.19767 -34.9309 10
    endloop
  endfacet
  facet normal 0.125315 0.992117 0
    outer loop
      vertex -6.55835 -34.3801 10
      vertex -2.19767 -34.9309 0
      vertex -6.55835 -34.3801 0
    endloop
  endfacet
  facet normal 0.481748 0.87631 -0
    outer loop
      vertex -14.9023 -31.6689 0
      vertex -18.7539 -29.5515 10
      vertex -14.9023 -31.6689 10
    endloop
  endfacet
  facet normal 0.481748 0.87631 0
    outer loop
      vertex -18.7539 -29.5515 10
      vertex -14.9023 -31.6689 0
      vertex -18.7539 -29.5515 0
    endloop
  endfacet
  facet normal 0.587783 0.809018 -0
    outer loop
      vertex -18.7539 -29.5515 0
      vertex -22.3098 -26.968 10
      vertex -18.7539 -29.5515 10
    endloop
  endfacet
  facet normal 0.587783 0.809018 0
    outer loop
      vertex -22.3098 -26.968 10
      vertex -18.7539 -29.5515 0
      vertex -22.3098 -26.968 0
    endloop
  endfacet
endsolid OpenSCAD_Model
