solid OpenSCAD_Model
  facet normal 0.998026 0.0628039 0
    outer loop
      vertex 29.2 0 7
      vertex 28.9697 3.65973 0
      vertex 28.9697 3.65973 7
    endloop
  endfacet
  facet normal 0.998026 0.0628039 0
    outer loop
      vertex 28.9697 3.65973 0
      vertex 29.2 0 7
      vertex 29.2 0 0
    endloop
  endfacet
  facet normal -0.998026 0.0628039 0
    outer loop
      vertex -29.2 0 0
      vertex -28.9697 3.65973 7
      vertex -28.9697 3.65973 0
    endloop
  endfacet
  facet normal -0.998026 0.0628039 0
    outer loop
      vertex -28.9697 3.65973 7
      vertex -29.2 0 0
      vertex -29.2 0 7
    endloop
  endfacet
  facet normal 0 1 -0
    outer loop
      vertex 1.83348 29.1424 0
      vertex -1.83348 29.1424 7
      vertex 1.83348 29.1424 7
    endloop
  endfacet
  facet normal 0 1 0
    outer loop
      vertex -1.83348 29.1424 7
      vertex 1.83348 29.1424 0
      vertex -1.83348 29.1424 0
    endloop
  endfacet
  facet normal 0 -1 0
    outer loop
      vertex -1.83348 -29.1424 0
      vertex 1.83348 -29.1424 7
      vertex -1.83348 -29.1424 7
    endloop
  endfacet
  facet normal 0 -1 -0
    outer loop
      vertex 1.83348 -29.1424 7
      vertex -1.83348 -29.1424 0
      vertex 1.83348 -29.1424 0
    endloop
  endfacet
  facet normal 0.684546 0.72897 -0
    outer loop
      vertex 21.2859 19.9888 0
      vertex 18.6128 22.499 7
      vertex 21.2859 19.9888 7
    endloop
  endfacet
  facet normal 0.684546 0.72897 0
    outer loop
      vertex 18.6128 22.499 7
      vertex 21.2859 19.9888 0
      vertex 18.6128 22.499 0
    endloop
  endfacet
  facet normal -0.684546 0.72897 0
    outer loop
      vertex -18.6128 22.499 0
      vertex -21.2859 19.9888 7
      vertex -18.6128 22.499 7
    endloop
  endfacet
  facet normal -0.684546 0.72897 0
    outer loop
      vertex -21.2859 19.9888 7
      vertex -18.6128 22.499 0
      vertex -21.2859 19.9888 0
    endloop
  endfacet
  facet normal -0.368144 0.929769 0
    outer loop
      vertex -9.0233 27.7709 0
      vertex -12.4328 26.4209 7
      vertex -9.0233 27.7709 7
    endloop
  endfacet
  facet normal -0.368144 0.929769 0
    outer loop
      vertex -12.4328 26.4209 7
      vertex -9.0233 27.7709 0
      vertex -12.4328 26.4209 0
    endloop
  endfacet
  facet normal 0.90483 0.425772 0
    outer loop
      vertex 27.1495 10.7492 7
      vertex 25.5882 14.0672 0
      vertex 25.5882 14.0672 7
    endloop
  endfacet
  facet normal 0.90483 0.425772 0
    outer loop
      vertex 25.5882 14.0672 0
      vertex 27.1495 10.7492 7
      vertex 27.1495 10.7492 0
    endloop
  endfacet
  facet normal 0.982288 0.187376 0
    outer loop
      vertex 28.9697 3.65973 7
      vertex 28.2826 7.26174 0
      vertex 28.2826 7.26174 7
    endloop
  endfacet
  facet normal 0.982288 0.187376 0
    outer loop
      vertex 28.2826 7.26174 0
      vertex 28.9697 3.65973 7
      vertex 28.9697 3.65973 0
    endloop
  endfacet
  facet normal 0.368144 0.929769 -0
    outer loop
      vertex 12.4328 26.4209 0
      vertex 9.0233 27.7709 7
      vertex 12.4328 26.4209 7
    endloop
  endfacet
  facet normal 0.368144 0.929769 0
    outer loop
      vertex 9.0233 27.7709 7
      vertex 12.4328 26.4209 0
      vertex 9.0233 27.7709 0
    endloop
  endfacet
  facet normal 0.587779 0.809021 -0
    outer loop
      vertex 18.6128 22.499 0
      vertex 15.6461 24.6544 7
      vertex 18.6128 22.499 7
    endloop
  endfacet
  facet normal 0.587779 0.809021 0
    outer loop
      vertex 15.6461 24.6544 7
      vertex 18.6128 22.499 0
      vertex 15.6461 24.6544 0
    endloop
  endfacet
  facet normal -0.90483 0.425772 0
    outer loop
      vertex -27.1495 10.7492 0
      vertex -25.5882 14.0672 7
      vertex -25.5882 14.0672 0
    endloop
  endfacet
  facet normal -0.90483 0.425772 0
    outer loop
      vertex -25.5882 14.0672 7
      vertex -27.1495 10.7492 0
      vertex -27.1495 10.7492 7
    endloop
  endfacet
  facet normal -0.770521 0.637415 0
    outer loop
      vertex -23.6233 17.1633 0
      vertex -21.2859 19.9888 7
      vertex -21.2859 19.9888 0
    endloop
  endfacet
  facet normal -0.770521 0.637415 0
    outer loop
      vertex -21.2859 19.9888 7
      vertex -23.6233 17.1633 0
      vertex -23.6233 17.1633 7
    endloop
  endfacet
  facet normal -0.95106 0.309006 0
    outer loop
      vertex -28.2826 7.26174 0
      vertex -27.1495 10.7492 7
      vertex -27.1495 10.7492 0
    endloop
  endfacet
  facet normal -0.95106 0.309006 0
    outer loop
      vertex -27.1495 10.7492 7
      vertex -28.2826 7.26174 0
      vertex -28.2826 7.26174 7
    endloop
  endfacet
  facet normal -0.481748 0.87631 0
    outer loop
      vertex -12.4328 26.4209 0
      vertex -15.6461 24.6544 7
      vertex -12.4328 26.4209 7
    endloop
  endfacet
  facet normal -0.481748 0.87631 0
    outer loop
      vertex -15.6461 24.6544 7
      vertex -12.4328 26.4209 0
      vertex -15.6461 24.6544 0
    endloop
  endfacet
  facet normal -0.24868 0.968586 0
    outer loop
      vertex -5.47153 28.6828 0
      vertex -9.0233 27.7709 7
      vertex -5.47153 28.6828 7
    endloop
  endfacet
  facet normal -0.24868 0.968586 0
    outer loop
      vertex -9.0233 27.7709 7
      vertex -5.47153 28.6828 0
      vertex -9.0233 27.7709 0
    endloop
  endfacet
  facet normal 0.368144 -0.929769 0
    outer loop
      vertex 9.0233 -27.7709 0
      vertex 12.4328 -26.4209 7
      vertex 9.0233 -27.7709 7
    endloop
  endfacet
  facet normal 0.368144 -0.929769 0
    outer loop
      vertex 12.4328 -26.4209 7
      vertex 9.0233 -27.7709 0
      vertex 12.4328 -26.4209 0
    endloop
  endfacet
  facet normal 0.95106 0.309006 0
    outer loop
      vertex 28.2826 7.26174 7
      vertex 27.1495 10.7492 0
      vertex 27.1495 10.7492 7
    endloop
  endfacet
  facet normal 0.95106 0.309006 0
    outer loop
      vertex 27.1495 10.7492 0
      vertex 28.2826 7.26174 7
      vertex 28.2826 7.26174 0
    endloop
  endfacet
  facet normal 0.770521 0.637415 0
    outer loop
      vertex 23.6233 17.1633 7
      vertex 21.2859 19.9888 0
      vertex 21.2859 19.9888 7
    endloop
  endfacet
  facet normal 0.770521 0.637415 0
    outer loop
      vertex 21.2859 19.9888 0
      vertex 23.6233 17.1633 7
      vertex 23.6233 17.1633 0
    endloop
  endfacet
  facet normal 0.844321 0.535838 0
    outer loop
      vertex 25.5882 14.0672 7
      vertex 23.6233 17.1633 0
      vertex 23.6233 17.1633 7
    endloop
  endfacet
  facet normal 0.844321 0.535838 0
    outer loop
      vertex 23.6233 17.1633 0
      vertex 25.5882 14.0672 7
      vertex 25.5882 14.0672 0
    endloop
  endfacet
  facet normal 0.24868 0.968586 -0
    outer loop
      vertex 9.0233 27.7709 0
      vertex 5.47153 28.6828 7
      vertex 9.0233 27.7709 7
    endloop
  endfacet
  facet normal 0.24868 0.968586 0
    outer loop
      vertex 5.47153 28.6828 7
      vertex 9.0233 27.7709 0
      vertex 5.47153 28.6828 0
    endloop
  endfacet
  facet normal 0.125335 0.992114 -0
    outer loop
      vertex 5.47153 28.6828 0
      vertex 1.83348 29.1424 7
      vertex 5.47153 28.6828 7
    endloop
  endfacet
  facet normal 0.125335 0.992114 0
    outer loop
      vertex 1.83348 29.1424 7
      vertex 5.47153 28.6828 0
      vertex 1.83348 29.1424 0
    endloop
  endfacet
  facet normal 0.481748 0.87631 -0
    outer loop
      vertex 15.6461 24.6544 0
      vertex 12.4328 26.4209 7
      vertex 15.6461 24.6544 7
    endloop
  endfacet
  facet normal 0.481748 0.87631 0
    outer loop
      vertex 12.4328 26.4209 7
      vertex 15.6461 24.6544 0
      vertex 12.4328 26.4209 0
    endloop
  endfacet
  facet normal -0.844321 0.535838 0
    outer loop
      vertex -25.5882 14.0672 0
      vertex -23.6233 17.1633 7
      vertex -23.6233 17.1633 0
    endloop
  endfacet
  facet normal -0.844321 0.535838 0
    outer loop
      vertex -23.6233 17.1633 7
      vertex -25.5882 14.0672 0
      vertex -25.5882 14.0672 7
    endloop
  endfacet
  facet normal -0.982288 0.187376 0
    outer loop
      vertex -28.9697 3.65973 0
      vertex -28.2826 7.26174 7
      vertex -28.2826 7.26174 0
    endloop
  endfacet
  facet normal -0.982288 0.187376 0
    outer loop
      vertex -28.2826 7.26174 7
      vertex -28.9697 3.65973 0
      vertex -28.9697 3.65973 7
    endloop
  endfacet
  facet normal 0 0 1
    outer loop
      vertex 22.5 0 7
      vertex 29.2 0 7
      vertex 28.9697 3.65973 7
    endloop
  endfacet
  facet normal 0 0 1
    outer loop
      vertex 22.3226 2.82 7
      vertex 28.9697 3.65973 7
      vertex 28.2826 7.26174 7
    endloop
  endfacet
  facet normal 0 0 1
    outer loop
      vertex 29.2 0 7
      vertex 22.5 0 7
      vertex 28.9697 -3.65973 7
    endloop
  endfacet
  facet normal 0 0 1
    outer loop
      vertex 21.7931 5.59552 7
      vertex 28.2826 7.26174 7
      vertex 27.1495 10.7492 7
    endloop
  endfacet
  facet normal -0 0 1
    outer loop
      vertex 22.3226 -2.82 7
      vertex 28.9697 -3.65973 7
      vertex 22.5 0 7
    endloop
  endfacet
  facet normal 0 0 1
    outer loop
      vertex 20.92 8.2828 7
      vertex 27.1495 10.7492 7
      vertex 25.5882 14.0672 7
    endloop
  endfacet
  facet normal 0 0 1
    outer loop
      vertex 28.9697 -3.65973 7
      vertex 22.3226 -2.82 7
      vertex 28.2826 -7.26174 7
    endloop
  endfacet
  facet normal 0 0 1
    outer loop
      vertex 19.7169 10.8395 7
      vertex 25.5882 14.0672 7
      vertex 23.6233 17.1633 7
    endloop
  endfacet
  facet normal -0 0 1
    outer loop
      vertex 21.7931 -5.59552 7
      vertex 28.2826 -7.26174 7
      vertex 22.3226 -2.82 7
    endloop
  endfacet
  facet normal 0 0 1
    outer loop
      vertex 28.2826 -7.26174 7
      vertex 21.7931 -5.59552 7
      vertex 27.1495 -10.7492 7
    endloop
  endfacet
  facet normal 0 0 1
    outer loop
      vertex 28.9697 3.65973 7
      vertex 22.3226 2.82 7
      vertex 22.5 0 7
    endloop
  endfacet
  facet normal 0 0 1
    outer loop
      vertex 28.2826 7.26174 7
      vertex 21.7931 5.59552 7
      vertex 22.3226 2.82 7
    endloop
  endfacet
  facet normal 0 0 1
    outer loop
      vertex 18.2029 13.2252 7
      vertex 23.6233 17.1633 7
      vertex 21.2859 19.9888 7
    endloop
  endfacet
  facet normal 0 0 1
    outer loop
      vertex 27.1495 10.7492 7
      vertex 20.92 8.2828 7
      vertex 21.7931 5.59552 7
    endloop
  endfacet
  facet normal 0 0 1
    outer loop
      vertex 25.5882 14.0672 7
      vertex 19.7169 10.8395 7
      vertex 20.92 8.2828 7
    endloop
  endfacet
  facet normal 0 0 1
    outer loop
      vertex 16.4018 15.4023 7
      vertex 21.2859 19.9888 7
      vertex 18.6128 22.499 7
    endloop
  endfacet
  facet normal 0 0 1
    outer loop
      vertex 23.6233 17.1633 7
      vertex 18.2029 13.2252 7
      vertex 19.7169 10.8395 7
    endloop
  endfacet
  facet normal 0 0 1
    outer loop
      vertex 21.2859 19.9888 7
      vertex 16.4018 15.4023 7
      vertex 18.2029 13.2252 7
    endloop
  endfacet
  facet normal 0 0 1
    outer loop
      vertex 14.342 17.3365 7
      vertex 18.6128 22.499 7
      vertex 15.6461 24.6544 7
    endloop
  endfacet
  facet normal 0 0 1
    outer loop
      vertex 18.6128 22.499 7
      vertex 14.342 17.3365 7
      vertex 16.4018 15.4023 7
    endloop
  endfacet
  facet normal 0 0 1
    outer loop
      vertex 12.0561 18.9974 7
      vertex 15.6461 24.6544 7
      vertex 12.4328 26.4209 7
    endloop
  endfacet
  facet normal 0 0 1
    outer loop
      vertex 15.6461 24.6544 7
      vertex 12.0561 18.9974 7
      vertex 14.342 17.3365 7
    endloop
  endfacet
  facet normal 0 0 1
    outer loop
      vertex 12.4328 26.4209 7
      vertex 9.58003 20.3586 7
      vertex 12.0561 18.9974 7
    endloop
  endfacet
  facet normal 0 0 1
    outer loop
      vertex 9.0233 27.7709 7
      vertex 9.58003 20.3586 7
      vertex 12.4328 26.4209 7
    endloop
  endfacet
  facet normal 0 0 1
    outer loop
      vertex 9.0233 27.7709 7
      vertex 6.95288 21.3988 7
      vertex 9.58003 20.3586 7
    endloop
  endfacet
  facet normal 0 0 1
    outer loop
      vertex 5.47153 28.6828 7
      vertex 6.95288 21.3988 7
      vertex 9.0233 27.7709 7
    endloop
  endfacet
  facet normal 0 0 1
    outer loop
      vertex 5.47153 28.6828 7
      vertex 4.21608 22.1015 7
      vertex 6.95288 21.3988 7
    endloop
  endfacet
  facet normal 0 0 1
    outer loop
      vertex 1.83348 29.1424 7
      vertex 4.21608 22.1015 7
      vertex 5.47153 28.6828 7
    endloop
  endfacet
  facet normal 0 0 1
    outer loop
      vertex 1.83348 29.1424 7
      vertex 1.41279 22.4556 7
      vertex 4.21608 22.1015 7
    endloop
  endfacet
  facet normal 0 0 1
    outer loop
      vertex 1.83348 29.1424 7
      vertex -1.41279 22.4556 7
      vertex 1.41279 22.4556 7
    endloop
  endfacet
  facet normal -0 0 1
    outer loop
      vertex -1.83348 29.1424 7
      vertex -1.41279 22.4556 7
      vertex 1.83348 29.1424 7
    endloop
  endfacet
  facet normal 0 0 1
    outer loop
      vertex -1.83348 29.1424 7
      vertex -4.21608 22.1015 7
      vertex -1.41279 22.4556 7
    endloop
  endfacet
  facet normal -0 0 1
    outer loop
      vertex -5.47153 28.6828 7
      vertex -4.21608 22.1015 7
      vertex -1.83348 29.1424 7
    endloop
  endfacet
  facet normal 0 0 1
    outer loop
      vertex -5.47153 28.6828 7
      vertex -6.95288 21.3988 7
      vertex -4.21608 22.1015 7
    endloop
  endfacet
  facet normal -0 0 1
    outer loop
      vertex -9.0233 27.7709 7
      vertex -6.95288 21.3988 7
      vertex -5.47153 28.6828 7
    endloop
  endfacet
  facet normal 0 0 1
    outer loop
      vertex -9.0233 27.7709 7
      vertex -9.58003 20.3586 7
      vertex -6.95288 21.3988 7
    endloop
  endfacet
  facet normal -0 0 1
    outer loop
      vertex -12.4328 26.4209 7
      vertex -9.58003 20.3586 7
      vertex -9.0233 27.7709 7
    endloop
  endfacet
  facet normal 0 0 1
    outer loop
      vertex -9.58003 20.3586 7
      vertex -12.4328 26.4209 7
      vertex -12.0561 18.9974 7
    endloop
  endfacet
  facet normal -0 0 1
    outer loop
      vertex -15.6461 24.6544 7
      vertex -12.0561 18.9974 7
      vertex -12.4328 26.4209 7
    endloop
  endfacet
  facet normal 0 0 1
    outer loop
      vertex -12.0561 18.9974 7
      vertex -15.6461 24.6544 7
      vertex -14.342 17.3365 7
    endloop
  endfacet
  facet normal -0 0 1
    outer loop
      vertex -18.6128 22.499 7
      vertex -14.342 17.3365 7
      vertex -15.6461 24.6544 7
    endloop
  endfacet
  facet normal 0 0 1
    outer loop
      vertex -14.342 17.3365 7
      vertex -18.6128 22.499 7
      vertex -16.4018 15.4023 7
    endloop
  endfacet
  facet normal -0 0 1
    outer loop
      vertex -21.2859 19.9888 7
      vertex -16.4018 15.4023 7
      vertex -18.6128 22.499 7
    endloop
  endfacet
  facet normal 0 0 1
    outer loop
      vertex -16.4018 15.4023 7
      vertex -21.2859 19.9888 7
      vertex -18.2029 13.2252 7
    endloop
  endfacet
  facet normal -0 0 1
    outer loop
      vertex -23.6233 17.1633 7
      vertex -18.2029 13.2252 7
      vertex -21.2859 19.9888 7
    endloop
  endfacet
  facet normal 0 0 1
    outer loop
      vertex -18.2029 13.2252 7
      vertex -23.6233 17.1633 7
      vertex -19.7169 10.8395 7
    endloop
  endfacet
  facet normal -0 0 1
    outer loop
      vertex -25.5882 14.0672 7
      vertex -19.7169 10.8395 7
      vertex -23.6233 17.1633 7
    endloop
  endfacet
  facet normal 0 0 1
    outer loop
      vertex -19.7169 10.8395 7
      vertex -25.5882 14.0672 7
      vertex -20.92 8.2828 7
    endloop
  endfacet
  facet normal -0 0 1
    outer loop
      vertex -27.1495 10.7492 7
      vertex -20.92 8.2828 7
      vertex -25.5882 14.0672 7
    endloop
  endfacet
  facet normal 0 0 1
    outer loop
      vertex -20.92 8.2828 7
      vertex -27.1495 10.7492 7
      vertex -21.7931 5.59552 7
    endloop
  endfacet
  facet normal -0 0 1
    outer loop
      vertex 20.92 -8.2828 7
      vertex 27.1495 -10.7492 7
      vertex 21.7931 -5.59552 7
    endloop
  endfacet
  facet normal 0 0 1
    outer loop
      vertex 27.1495 -10.7492 7
      vertex 20.92 -8.2828 7
      vertex 25.5882 -14.0672 7
    endloop
  endfacet
  facet normal -0 0 1
    outer loop
      vertex 19.7169 -10.8395 7
      vertex 25.5882 -14.0672 7
      vertex 20.92 -8.2828 7
    endloop
  endfacet
  facet normal 0 0 1
    outer loop
      vertex 25.5882 -14.0672 7
      vertex 19.7169 -10.8395 7
      vertex 23.6233 -17.1633 7
    endloop
  endfacet
  facet normal -0 0 1
    outer loop
      vertex 18.2029 -13.2252 7
      vertex 23.6233 -17.1633 7
      vertex 19.7169 -10.8395 7
    endloop
  endfacet
  facet normal 0 0 1
    outer loop
      vertex 23.6233 -17.1633 7
      vertex 18.2029 -13.2252 7
      vertex 21.2859 -19.9888 7
    endloop
  endfacet
  facet normal -0 0 1
    outer loop
      vertex 16.4018 -15.4023 7
      vertex 21.2859 -19.9888 7
      vertex 18.2029 -13.2252 7
    endloop
  endfacet
  facet normal 0 0 1
    outer loop
      vertex 21.2859 -19.9888 7
      vertex 16.4018 -15.4023 7
      vertex 18.6128 -22.499 7
    endloop
  endfacet
  facet normal -0 0 1
    outer loop
      vertex 14.342 -17.3365 7
      vertex 18.6128 -22.499 7
      vertex 16.4018 -15.4023 7
    endloop
  endfacet
  facet normal 0 0 1
    outer loop
      vertex 18.6128 -22.499 7
      vertex 14.342 -17.3365 7
      vertex 15.6461 -24.6544 7
    endloop
  endfacet
  facet normal -0 0 1
    outer loop
      vertex 12.0561 -18.9974 7
      vertex 15.6461 -24.6544 7
      vertex 14.342 -17.3365 7
    endloop
  endfacet
  facet normal 0 0 1
    outer loop
      vertex 15.6461 -24.6544 7
      vertex 12.0561 -18.9974 7
      vertex 12.4328 -26.4209 7
    endloop
  endfacet
  facet normal -0 0 1
    outer loop
      vertex 9.58003 -20.3586 7
      vertex 12.4328 -26.4209 7
      vertex 12.0561 -18.9974 7
    endloop
  endfacet
  facet normal 0 0 1
    outer loop
      vertex 9.58003 -20.3586 7
      vertex 9.0233 -27.7709 7
      vertex 12.4328 -26.4209 7
    endloop
  endfacet
  facet normal -0 0 1
    outer loop
      vertex 6.95288 -21.3988 7
      vertex 9.0233 -27.7709 7
      vertex 9.58003 -20.3586 7
    endloop
  endfacet
  facet normal 0 0 1
    outer loop
      vertex 6.95288 -21.3988 7
      vertex 5.47153 -28.6828 7
      vertex 9.0233 -27.7709 7
    endloop
  endfacet
  facet normal -0 0 1
    outer loop
      vertex 4.21608 -22.1015 7
      vertex 5.47153 -28.6828 7
      vertex 6.95288 -21.3988 7
    endloop
  endfacet
  facet normal 0 0 1
    outer loop
      vertex 4.21608 -22.1015 7
      vertex 1.83348 -29.1424 7
      vertex 5.47153 -28.6828 7
    endloop
  endfacet
  facet normal -0 0 1
    outer loop
      vertex 1.41279 -22.4556 7
      vertex 1.83348 -29.1424 7
      vertex 4.21608 -22.1015 7
    endloop
  endfacet
  facet normal -0 0 1
    outer loop
      vertex -1.41279 -22.4556 7
      vertex 1.83348 -29.1424 7
      vertex 1.41279 -22.4556 7
    endloop
  endfacet
  facet normal 0 0 1
    outer loop
      vertex -1.41279 -22.4556 7
      vertex -1.83348 -29.1424 7
      vertex 1.83348 -29.1424 7
    endloop
  endfacet
  facet normal 0 0 1
    outer loop
      vertex -4.21608 -22.1015 7
      vertex -1.83348 -29.1424 7
      vertex -1.41279 -22.4556 7
    endloop
  endfacet
  facet normal 0 0 1
    outer loop
      vertex -4.21608 -22.1015 7
      vertex -5.47153 -28.6828 7
      vertex -1.83348 -29.1424 7
    endloop
  endfacet
  facet normal 0 0 1
    outer loop
      vertex -6.95288 -21.3988 7
      vertex -5.47153 -28.6828 7
      vertex -4.21608 -22.1015 7
    endloop
  endfacet
  facet normal 0 0 1
    outer loop
      vertex -6.95288 -21.3988 7
      vertex -9.0233 -27.7709 7
      vertex -5.47153 -28.6828 7
    endloop
  endfacet
  facet normal 0 0 1
    outer loop
      vertex -9.58003 -20.3586 7
      vertex -9.0233 -27.7709 7
      vertex -6.95288 -21.3988 7
    endloop
  endfacet
  facet normal 0 0 1
    outer loop
      vertex -12.4328 -26.4209 7
      vertex -9.58003 -20.3586 7
      vertex -12.0561 -18.9974 7
    endloop
  endfacet
  facet normal 0 0 1
    outer loop
      vertex -9.58003 -20.3586 7
      vertex -12.4328 -26.4209 7
      vertex -9.0233 -27.7709 7
    endloop
  endfacet
  facet normal 0 0 1
    outer loop
      vertex -15.6461 -24.6544 7
      vertex -12.0561 -18.9974 7
      vertex -14.342 -17.3365 7
    endloop
  endfacet
  facet normal 0 0 1
    outer loop
      vertex -12.0561 -18.9974 7
      vertex -15.6461 -24.6544 7
      vertex -12.4328 -26.4209 7
    endloop
  endfacet
  facet normal 0 0 1
    outer loop
      vertex -18.6128 -22.499 7
      vertex -14.342 -17.3365 7
      vertex -16.4018 -15.4023 7
    endloop
  endfacet
  facet normal 0 0 1
    outer loop
      vertex -21.2859 -19.9888 7
      vertex -16.4018 -15.4023 7
      vertex -18.2029 -13.2252 7
    endloop
  endfacet
  facet normal 0 0 1
    outer loop
      vertex -14.342 -17.3365 7
      vertex -18.6128 -22.499 7
      vertex -15.6461 -24.6544 7
    endloop
  endfacet
  facet normal 0 0 1
    outer loop
      vertex -23.6233 -17.1633 7
      vertex -18.2029 -13.2252 7
      vertex -19.7169 -10.8395 7
    endloop
  endfacet
  facet normal 0 0 1
    outer loop
      vertex -25.5882 -14.0672 7
      vertex -19.7169 -10.8395 7
      vertex -20.92 -8.2828 7
    endloop
  endfacet
  facet normal 0 0 1
    outer loop
      vertex -16.4018 -15.4023 7
      vertex -21.2859 -19.9888 7
      vertex -18.6128 -22.499 7
    endloop
  endfacet
  facet normal 0 0 1
    outer loop
      vertex -27.1495 -10.7492 7
      vertex -20.92 -8.2828 7
      vertex -21.7931 -5.59552 7
    endloop
  endfacet
  facet normal 0 0 1
    outer loop
      vertex -28.2826 -7.26174 7
      vertex -21.7931 -5.59552 7
      vertex -22.3226 -2.82 7
    endloop
  endfacet
  facet normal 0 0 1
    outer loop
      vertex -28.9697 -3.65973 7
      vertex -22.3226 -2.82 7
      vertex -22.5 0 7
    endloop
  endfacet
  facet normal -0 0 1
    outer loop
      vertex -28.2826 7.26174 7
      vertex -21.7931 5.59552 7
      vertex -27.1495 10.7492 7
    endloop
  endfacet
  facet normal 0 0 1
    outer loop
      vertex -18.2029 -13.2252 7
      vertex -23.6233 -17.1633 7
      vertex -21.2859 -19.9888 7
    endloop
  endfacet
  facet normal 0 0 1
    outer loop
      vertex -21.7931 5.59552 7
      vertex -28.2826 7.26174 7
      vertex -22.3226 2.82 7
    endloop
  endfacet
  facet normal 0 0 1
    outer loop
      vertex -19.7169 -10.8395 7
      vertex -25.5882 -14.0672 7
      vertex -23.6233 -17.1633 7
    endloop
  endfacet
  facet normal -0 0 1
    outer loop
      vertex -28.9697 3.65973 7
      vertex -22.3226 2.82 7
      vertex -28.2826 7.26174 7
    endloop
  endfacet
  facet normal 0 0 1
    outer loop
      vertex -20.92 -8.2828 7
      vertex -27.1495 -10.7492 7
      vertex -25.5882 -14.0672 7
    endloop
  endfacet
  facet normal 0 0 1
    outer loop
      vertex -22.3226 2.82 7
      vertex -28.9697 3.65973 7
      vertex -22.5 0 7
    endloop
  endfacet
  facet normal 0 0 1
    outer loop
      vertex -21.7931 -5.59552 7
      vertex -28.2826 -7.26174 7
      vertex -27.1495 -10.7492 7
    endloop
  endfacet
  facet normal 0 0 1
    outer loop
      vertex -29.2 0 7
      vertex -22.5 0 7
      vertex -28.9697 3.65973 7
    endloop
  endfacet
  facet normal 0 0 1
    outer loop
      vertex -22.3226 -2.82 7
      vertex -28.9697 -3.65973 7
      vertex -28.2826 -7.26174 7
    endloop
  endfacet
  facet normal 0 0 1
    outer loop
      vertex -22.5 0 7
      vertex -29.2 0 7
      vertex -28.9697 -3.65973 7
    endloop
  endfacet
  facet normal -0.587779 0.809021 0
    outer loop
      vertex -15.6461 24.6544 0
      vertex -18.6128 22.499 7
      vertex -15.6461 24.6544 7
    endloop
  endfacet
  facet normal -0.587779 0.809021 0
    outer loop
      vertex -18.6128 22.499 7
      vertex -15.6461 24.6544 0
      vertex -18.6128 22.499 0
    endloop
  endfacet
  facet normal -0.125335 0.992114 0
    outer loop
      vertex -1.83348 29.1424 0
      vertex -5.47153 28.6828 7
      vertex -1.83348 29.1424 7
    endloop
  endfacet
  facet normal -0.125335 0.992114 0
    outer loop
      vertex -5.47153 28.6828 7
      vertex -1.83348 29.1424 0
      vertex -5.47153 28.6828 0
    endloop
  endfacet
  facet normal 0.998026 -0.0628039 0
    outer loop
      vertex 28.9697 -3.65973 7
      vertex 29.2 0 0
      vertex 29.2 0 7
    endloop
  endfacet
  facet normal 0.998026 -0.0628039 0
    outer loop
      vertex 29.2 0 0
      vertex 28.9697 -3.65973 7
      vertex 28.9697 -3.65973 0
    endloop
  endfacet
  facet normal 0.982288 -0.187376 0
    outer loop
      vertex 28.2826 -7.26174 7
      vertex 28.9697 -3.65973 0
      vertex 28.9697 -3.65973 7
    endloop
  endfacet
  facet normal 0.982288 -0.187376 0
    outer loop
      vertex 28.9697 -3.65973 0
      vertex 28.2826 -7.26174 7
      vertex 28.2826 -7.26174 0
    endloop
  endfacet
  facet normal -0.90483 -0.425772 0
    outer loop
      vertex -25.5882 -14.0672 0
      vertex -27.1495 -10.7492 7
      vertex -27.1495 -10.7492 0
    endloop
  endfacet
  facet normal -0.90483 -0.425772 0
    outer loop
      vertex -27.1495 -10.7492 7
      vertex -25.5882 -14.0672 0
      vertex -25.5882 -14.0672 7
    endloop
  endfacet
  facet normal -0.770521 -0.637415 0
    outer loop
      vertex -21.2859 -19.9888 0
      vertex -23.6233 -17.1633 7
      vertex -23.6233 -17.1633 0
    endloop
  endfacet
  facet normal -0.770521 -0.637415 0
    outer loop
      vertex -23.6233 -17.1633 7
      vertex -21.2859 -19.9888 0
      vertex -21.2859 -19.9888 7
    endloop
  endfacet
  facet normal 0 0 -1
    outer loop
      vertex 22.5 0 0
      vertex 29.2 0 0
      vertex 28.9697 -3.65973 0
    endloop
  endfacet
  facet normal 0 0 -1
    outer loop
      vertex 22.3226 -2.82 0
      vertex 28.9697 -3.65973 0
      vertex 28.2826 -7.26174 0
    endloop
  endfacet
  facet normal 0 0 -1
    outer loop
      vertex 29.2 0 0
      vertex 22.5 0 0
      vertex 28.9697 3.65973 0
    endloop
  endfacet
  facet normal 0 0 -1
    outer loop
      vertex 21.7931 -5.59552 0
      vertex 28.2826 -7.26174 0
      vertex 27.1495 -10.7492 0
    endloop
  endfacet
  facet normal 0 0 -1
    outer loop
      vertex 22.3226 2.82 0
      vertex 28.9697 3.65973 0
      vertex 22.5 0 0
    endloop
  endfacet
  facet normal 0 0 -1
    outer loop
      vertex 20.92 -8.2828 0
      vertex 27.1495 -10.7492 0
      vertex 25.5882 -14.0672 0
    endloop
  endfacet
  facet normal -0 0 -1
    outer loop
      vertex 28.9697 3.65973 0
      vertex 22.3226 2.82 0
      vertex 28.2826 7.26174 0
    endloop
  endfacet
  facet normal 0 0 -1
    outer loop
      vertex 19.7169 -10.8395 0
      vertex 25.5882 -14.0672 0
      vertex 23.6233 -17.1633 0
    endloop
  endfacet
  facet normal 0 0 -1
    outer loop
      vertex 21.7931 5.59552 0
      vertex 28.2826 7.26174 0
      vertex 22.3226 2.82 0
    endloop
  endfacet
  facet normal -0 0 -1
    outer loop
      vertex 28.2826 7.26174 0
      vertex 21.7931 5.59552 0
      vertex 27.1495 10.7492 0
    endloop
  endfacet
  facet normal 0 0 -1
    outer loop
      vertex 28.9697 -3.65973 0
      vertex 22.3226 -2.82 0
      vertex 22.5 0 0
    endloop
  endfacet
  facet normal 0 0 -1
    outer loop
      vertex 28.2826 -7.26174 0
      vertex 21.7931 -5.59552 0
      vertex 22.3226 -2.82 0
    endloop
  endfacet
  facet normal 0 0 -1
    outer loop
      vertex 18.2029 -13.2252 0
      vertex 23.6233 -17.1633 0
      vertex 21.2859 -19.9888 0
    endloop
  endfacet
  facet normal 0 0 -1
    outer loop
      vertex 27.1495 -10.7492 0
      vertex 20.92 -8.2828 0
      vertex 21.7931 -5.59552 0
    endloop
  endfacet
  facet normal 0 0 -1
    outer loop
      vertex 25.5882 -14.0672 0
      vertex 19.7169 -10.8395 0
      vertex 20.92 -8.2828 0
    endloop
  endfacet
  facet normal 0 0 -1
    outer loop
      vertex 16.4018 -15.4023 0
      vertex 21.2859 -19.9888 0
      vertex 18.6128 -22.499 0
    endloop
  endfacet
  facet normal 0 0 -1
    outer loop
      vertex 23.6233 -17.1633 0
      vertex 18.2029 -13.2252 0
      vertex 19.7169 -10.8395 0
    endloop
  endfacet
  facet normal 0 0 -1
    outer loop
      vertex 21.2859 -19.9888 0
      vertex 16.4018 -15.4023 0
      vertex 18.2029 -13.2252 0
    endloop
  endfacet
  facet normal 0 0 -1
    outer loop
      vertex 14.342 -17.3365 0
      vertex 18.6128 -22.499 0
      vertex 15.6461 -24.6544 0
    endloop
  endfacet
  facet normal 0 0 -1
    outer loop
      vertex 18.6128 -22.499 0
      vertex 14.342 -17.3365 0
      vertex 16.4018 -15.4023 0
    endloop
  endfacet
  facet normal 0 0 -1
    outer loop
      vertex 12.0561 -18.9974 0
      vertex 15.6461 -24.6544 0
      vertex 12.4328 -26.4209 0
    endloop
  endfacet
  facet normal 0 0 -1
    outer loop
      vertex 15.6461 -24.6544 0
      vertex 12.0561 -18.9974 0
      vertex 14.342 -17.3365 0
    endloop
  endfacet
  facet normal 0 0 -1
    outer loop
      vertex 12.4328 -26.4209 0
      vertex 9.58003 -20.3586 0
      vertex 12.0561 -18.9974 0
    endloop
  endfacet
  facet normal 0 0 -1
    outer loop
      vertex 9.0233 -27.7709 0
      vertex 9.58003 -20.3586 0
      vertex 12.4328 -26.4209 0
    endloop
  endfacet
  facet normal 0 0 -1
    outer loop
      vertex 9.0233 -27.7709 0
      vertex 6.95288 -21.3988 0
      vertex 9.58003 -20.3586 0
    endloop
  endfacet
  facet normal 0 0 -1
    outer loop
      vertex 5.47153 -28.6828 0
      vertex 6.95288 -21.3988 0
      vertex 9.0233 -27.7709 0
    endloop
  endfacet
  facet normal 0 0 -1
    outer loop
      vertex 5.47153 -28.6828 0
      vertex 4.21608 -22.1015 0
      vertex 6.95288 -21.3988 0
    endloop
  endfacet
  facet normal 0 0 -1
    outer loop
      vertex 1.83348 -29.1424 0
      vertex 4.21608 -22.1015 0
      vertex 5.47153 -28.6828 0
    endloop
  endfacet
  facet normal 0 0 -1
    outer loop
      vertex 1.83348 -29.1424 0
      vertex 1.41279 -22.4556 0
      vertex 4.21608 -22.1015 0
    endloop
  endfacet
  facet normal 0 0 -1
    outer loop
      vertex 1.83348 -29.1424 0
      vertex -1.41279 -22.4556 0
      vertex 1.41279 -22.4556 0
    endloop
  endfacet
  facet normal 0 0 -1
    outer loop
      vertex -1.83348 -29.1424 0
      vertex -1.41279 -22.4556 0
      vertex 1.83348 -29.1424 0
    endloop
  endfacet
  facet normal 0 0 -1
    outer loop
      vertex -1.83348 -29.1424 0
      vertex -4.21608 -22.1015 0
      vertex -1.41279 -22.4556 0
    endloop
  endfacet
  facet normal 0 0 -1
    outer loop
      vertex -5.47153 -28.6828 0
      vertex -4.21608 -22.1015 0
      vertex -1.83348 -29.1424 0
    endloop
  endfacet
  facet normal 0 0 -1
    outer loop
      vertex -5.47153 -28.6828 0
      vertex -6.95288 -21.3988 0
      vertex -4.21608 -22.1015 0
    endloop
  endfacet
  facet normal 0 0 -1
    outer loop
      vertex -9.0233 -27.7709 0
      vertex -6.95288 -21.3988 0
      vertex -5.47153 -28.6828 0
    endloop
  endfacet
  facet normal 0 0 -1
    outer loop
      vertex -9.0233 -27.7709 0
      vertex -9.58003 -20.3586 0
      vertex -6.95288 -21.3988 0
    endloop
  endfacet
  facet normal 0 0 -1
    outer loop
      vertex -12.4328 -26.4209 0
      vertex -9.58003 -20.3586 0
      vertex -9.0233 -27.7709 0
    endloop
  endfacet
  facet normal -0 0 -1
    outer loop
      vertex -9.58003 -20.3586 0
      vertex -12.4328 -26.4209 0
      vertex -12.0561 -18.9974 0
    endloop
  endfacet
  facet normal 0 0 -1
    outer loop
      vertex -15.6461 -24.6544 0
      vertex -12.0561 -18.9974 0
      vertex -12.4328 -26.4209 0
    endloop
  endfacet
  facet normal -0 0 -1
    outer loop
      vertex -12.0561 -18.9974 0
      vertex -15.6461 -24.6544 0
      vertex -14.342 -17.3365 0
    endloop
  endfacet
  facet normal 0 0 -1
    outer loop
      vertex -18.6128 -22.499 0
      vertex -14.342 -17.3365 0
      vertex -15.6461 -24.6544 0
    endloop
  endfacet
  facet normal -0 0 -1
    outer loop
      vertex -14.342 -17.3365 0
      vertex -18.6128 -22.499 0
      vertex -16.4018 -15.4023 0
    endloop
  endfacet
  facet normal 0 0 -1
    outer loop
      vertex -21.2859 -19.9888 0
      vertex -16.4018 -15.4023 0
      vertex -18.6128 -22.499 0
    endloop
  endfacet
  facet normal -0 0 -1
    outer loop
      vertex -16.4018 -15.4023 0
      vertex -21.2859 -19.9888 0
      vertex -18.2029 -13.2252 0
    endloop
  endfacet
  facet normal 0 0 -1
    outer loop
      vertex -23.6233 -17.1633 0
      vertex -18.2029 -13.2252 0
      vertex -21.2859 -19.9888 0
    endloop
  endfacet
  facet normal -0 0 -1
    outer loop
      vertex -18.2029 -13.2252 0
      vertex -23.6233 -17.1633 0
      vertex -19.7169 -10.8395 0
    endloop
  endfacet
  facet normal 0 0 -1
    outer loop
      vertex -25.5882 -14.0672 0
      vertex -19.7169 -10.8395 0
      vertex -23.6233 -17.1633 0
    endloop
  endfacet
  facet normal -0 0 -1
    outer loop
      vertex -19.7169 -10.8395 0
      vertex -25.5882 -14.0672 0
      vertex -20.92 -8.2828 0
    endloop
  endfacet
  facet normal 0 0 -1
    outer loop
      vertex -27.1495 -10.7492 0
      vertex -20.92 -8.2828 0
      vertex -25.5882 -14.0672 0
    endloop
  endfacet
  facet normal -0 0 -1
    outer loop
      vertex -20.92 -8.2828 0
      vertex -27.1495 -10.7492 0
      vertex -21.7931 -5.59552 0
    endloop
  endfacet
  facet normal 0 0 -1
    outer loop
      vertex 20.92 8.2828 0
      vertex 27.1495 10.7492 0
      vertex 21.7931 5.59552 0
    endloop
  endfacet
  facet normal -0 0 -1
    outer loop
      vertex 27.1495 10.7492 0
      vertex 20.92 8.2828 0
      vertex 25.5882 14.0672 0
    endloop
  endfacet
  facet normal 0 0 -1
    outer loop
      vertex 19.7169 10.8395 0
      vertex 25.5882 14.0672 0
      vertex 20.92 8.2828 0
    endloop
  endfacet
  facet normal -0 0 -1
    outer loop
      vertex 25.5882 14.0672 0
      vertex 19.7169 10.8395 0
      vertex 23.6233 17.1633 0
    endloop
  endfacet
  facet normal 0 0 -1
    outer loop
      vertex 18.2029 13.2252 0
      vertex 23.6233 17.1633 0
      vertex 19.7169 10.8395 0
    endloop
  endfacet
  facet normal -0 0 -1
    outer loop
      vertex 23.6233 17.1633 0
      vertex 18.2029 13.2252 0
      vertex 21.2859 19.9888 0
    endloop
  endfacet
  facet normal 0 0 -1
    outer loop
      vertex 16.4018 15.4023 0
      vertex 21.2859 19.9888 0
      vertex 18.2029 13.2252 0
    endloop
  endfacet
  facet normal -0 0 -1
    outer loop
      vertex 21.2859 19.9888 0
      vertex 16.4018 15.4023 0
      vertex 18.6128 22.499 0
    endloop
  endfacet
  facet normal 0 0 -1
    outer loop
      vertex 14.342 17.3365 0
      vertex 18.6128 22.499 0
      vertex 16.4018 15.4023 0
    endloop
  endfacet
  facet normal -0 0 -1
    outer loop
      vertex 18.6128 22.499 0
      vertex 14.342 17.3365 0
      vertex 15.6461 24.6544 0
    endloop
  endfacet
  facet normal 0 0 -1
    outer loop
      vertex 12.0561 18.9974 0
      vertex 15.6461 24.6544 0
      vertex 14.342 17.3365 0
    endloop
  endfacet
  facet normal -0 0 -1
    outer loop
      vertex 15.6461 24.6544 0
      vertex 12.0561 18.9974 0
      vertex 12.4328 26.4209 0
    endloop
  endfacet
  facet normal 0 0 -1
    outer loop
      vertex 9.58003 20.3586 0
      vertex 12.4328 26.4209 0
      vertex 12.0561 18.9974 0
    endloop
  endfacet
  facet normal 0 0 -1
    outer loop
      vertex 9.58003 20.3586 0
      vertex 9.0233 27.7709 0
      vertex 12.4328 26.4209 0
    endloop
  endfacet
  facet normal 0 0 -1
    outer loop
      vertex 6.95288 21.3988 0
      vertex 9.0233 27.7709 0
      vertex 9.58003 20.3586 0
    endloop
  endfacet
  facet normal 0 0 -1
    outer loop
      vertex 6.95288 21.3988 0
      vertex 5.47153 28.6828 0
      vertex 9.0233 27.7709 0
    endloop
  endfacet
  facet normal 0 0 -1
    outer loop
      vertex 4.21608 22.1015 0
      vertex 5.47153 28.6828 0
      vertex 6.95288 21.3988 0
    endloop
  endfacet
  facet normal 0 0 -1
    outer loop
      vertex 4.21608 22.1015 0
      vertex 1.83348 29.1424 0
      vertex 5.47153 28.6828 0
    endloop
  endfacet
  facet normal 0 0 -1
    outer loop
      vertex 1.41279 22.4556 0
      vertex 1.83348 29.1424 0
      vertex 4.21608 22.1015 0
    endloop
  endfacet
  facet normal 0 0 -1
    outer loop
      vertex -1.41279 22.4556 0
      vertex 1.83348 29.1424 0
      vertex 1.41279 22.4556 0
    endloop
  endfacet
  facet normal 0 0 -1
    outer loop
      vertex -1.41279 22.4556 0
      vertex -1.83348 29.1424 0
      vertex 1.83348 29.1424 0
    endloop
  endfacet
  facet normal 0 0 -1
    outer loop
      vertex -4.21608 22.1015 0
      vertex -1.83348 29.1424 0
      vertex -1.41279 22.4556 0
    endloop
  endfacet
  facet normal 0 0 -1
    outer loop
      vertex -4.21608 22.1015 0
      vertex -5.47153 28.6828 0
      vertex -1.83348 29.1424 0
    endloop
  endfacet
  facet normal 0 0 -1
    outer loop
      vertex -6.95288 21.3988 0
      vertex -5.47153 28.6828 0
      vertex -4.21608 22.1015 0
    endloop
  endfacet
  facet normal 0 0 -1
    outer loop
      vertex -6.95288 21.3988 0
      vertex -9.0233 27.7709 0
      vertex -5.47153 28.6828 0
    endloop
  endfacet
  facet normal 0 0 -1
    outer loop
      vertex -9.58003 20.3586 0
      vertex -9.0233 27.7709 0
      vertex -6.95288 21.3988 0
    endloop
  endfacet
  facet normal 0 0 -1
    outer loop
      vertex -12.4328 26.4209 0
      vertex -9.58003 20.3586 0
      vertex -12.0561 18.9974 0
    endloop
  endfacet
  facet normal 0 0 -1
    outer loop
      vertex -9.58003 20.3586 0
      vertex -12.4328 26.4209 0
      vertex -9.0233 27.7709 0
    endloop
  endfacet
  facet normal 0 0 -1
    outer loop
      vertex -15.6461 24.6544 0
      vertex -12.0561 18.9974 0
      vertex -14.342 17.3365 0
    endloop
  endfacet
  facet normal 0 0 -1
    outer loop
      vertex -12.0561 18.9974 0
      vertex -15.6461 24.6544 0
      vertex -12.4328 26.4209 0
    endloop
  endfacet
  facet normal 0 0 -1
    outer loop
      vertex -18.6128 22.499 0
      vertex -14.342 17.3365 0
      vertex -16.4018 15.4023 0
    endloop
  endfacet
  facet normal 0 0 -1
    outer loop
      vertex -21.2859 19.9888 0
      vertex -16.4018 15.4023 0
      vertex -18.2029 13.2252 0
    endloop
  endfacet
  facet normal 0 0 -1
    outer loop
      vertex -14.342 17.3365 0
      vertex -18.6128 22.499 0
      vertex -15.6461 24.6544 0
    endloop
  endfacet
  facet normal 0 0 -1
    outer loop
      vertex -23.6233 17.1633 0
      vertex -18.2029 13.2252 0
      vertex -19.7169 10.8395 0
    endloop
  endfacet
  facet normal 0 0 -1
    outer loop
      vertex -25.5882 14.0672 0
      vertex -19.7169 10.8395 0
      vertex -20.92 8.2828 0
    endloop
  endfacet
  facet normal 0 0 -1
    outer loop
      vertex -16.4018 15.4023 0
      vertex -21.2859 19.9888 0
      vertex -18.6128 22.499 0
    endloop
  endfacet
  facet normal 0 0 -1
    outer loop
      vertex -27.1495 10.7492 0
      vertex -20.92 8.2828 0
      vertex -21.7931 5.59552 0
    endloop
  endfacet
  facet normal 0 0 -1
    outer loop
      vertex -28.2826 7.26174 0
      vertex -21.7931 5.59552 0
      vertex -22.3226 2.82 0
    endloop
  endfacet
  facet normal 0 0 -1
    outer loop
      vertex -28.9697 3.65973 0
      vertex -22.3226 2.82 0
      vertex -22.5 0 0
    endloop
  endfacet
  facet normal 0 0 -1
    outer loop
      vertex -28.2826 -7.26174 0
      vertex -21.7931 -5.59552 0
      vertex -27.1495 -10.7492 0
    endloop
  endfacet
  facet normal 0 0 -1
    outer loop
      vertex -18.2029 13.2252 0
      vertex -23.6233 17.1633 0
      vertex -21.2859 19.9888 0
    endloop
  endfacet
  facet normal -0 0 -1
    outer loop
      vertex -21.7931 -5.59552 0
      vertex -28.2826 -7.26174 0
      vertex -22.3226 -2.82 0
    endloop
  endfacet
  facet normal 0 0 -1
    outer loop
      vertex -19.7169 10.8395 0
      vertex -25.5882 14.0672 0
      vertex -23.6233 17.1633 0
    endloop
  endfacet
  facet normal 0 0 -1
    outer loop
      vertex -28.9697 -3.65973 0
      vertex -22.3226 -2.82 0
      vertex -28.2826 -7.26174 0
    endloop
  endfacet
  facet normal 0 0 -1
    outer loop
      vertex -20.92 8.2828 0
      vertex -27.1495 10.7492 0
      vertex -25.5882 14.0672 0
    endloop
  endfacet
  facet normal -0 0 -1
    outer loop
      vertex -22.3226 -2.82 0
      vertex -28.9697 -3.65973 0
      vertex -22.5 0 0
    endloop
  endfacet
  facet normal 0 0 -1
    outer loop
      vertex -21.7931 5.59552 0
      vertex -28.2826 7.26174 0
      vertex -27.1495 10.7492 0
    endloop
  endfacet
  facet normal 0 0 -1
    outer loop
      vertex -29.2 0 0
      vertex -22.5 0 0
      vertex -28.9697 -3.65973 0
    endloop
  endfacet
  facet normal 0 0 -1
    outer loop
      vertex -22.3226 2.82 0
      vertex -28.9697 3.65973 0
      vertex -28.2826 7.26174 0
    endloop
  endfacet
  facet normal 0 0 -1
    outer loop
      vertex -22.5 0 0
      vertex -29.2 0 0
      vertex -28.9697 3.65973 0
    endloop
  endfacet
  facet normal 0.481748 -0.87631 0
    outer loop
      vertex 12.4328 -26.4209 0
      vertex 15.6461 -24.6544 7
      vertex 12.4328 -26.4209 7
    endloop
  endfacet
  facet normal 0.481748 -0.87631 0
    outer loop
      vertex 15.6461 -24.6544 7
      vertex 12.4328 -26.4209 0
      vertex 15.6461 -24.6544 0
    endloop
  endfacet
  facet normal 0.90483 -0.425772 0
    outer loop
      vertex 25.5882 -14.0672 7
      vertex 27.1495 -10.7492 0
      vertex 27.1495 -10.7492 7
    endloop
  endfacet
  facet normal 0.90483 -0.425772 0
    outer loop
      vertex 27.1495 -10.7492 0
      vertex 25.5882 -14.0672 7
      vertex 25.5882 -14.0672 0
    endloop
  endfacet
  facet normal -0.95106 -0.309006 0
    outer loop
      vertex -27.1495 -10.7492 0
      vertex -28.2826 -7.26174 7
      vertex -28.2826 -7.26174 0
    endloop
  endfacet
  facet normal -0.95106 -0.309006 0
    outer loop
      vertex -28.2826 -7.26174 7
      vertex -27.1495 -10.7492 0
      vertex -27.1495 -10.7492 7
    endloop
  endfacet
  facet normal 0.587779 -0.809021 0
    outer loop
      vertex 15.6461 -24.6544 0
      vertex 18.6128 -22.499 7
      vertex 15.6461 -24.6544 7
    endloop
  endfacet
  facet normal 0.587779 -0.809021 0
    outer loop
      vertex 18.6128 -22.499 7
      vertex 15.6461 -24.6544 0
      vertex 18.6128 -22.499 0
    endloop
  endfacet
  facet normal 0.24868 -0.968586 0
    outer loop
      vertex 5.47153 -28.6828 0
      vertex 9.0233 -27.7709 7
      vertex 5.47153 -28.6828 7
    endloop
  endfacet
  facet normal 0.24868 -0.968586 0
    outer loop
      vertex 9.0233 -27.7709 7
      vertex 5.47153 -28.6828 0
      vertex 9.0233 -27.7709 0
    endloop
  endfacet
  facet normal 0.125335 -0.992114 0
    outer loop
      vertex 1.83348 -29.1424 0
      vertex 5.47153 -28.6828 7
      vertex 1.83348 -29.1424 7
    endloop
  endfacet
  facet normal 0.125335 -0.992114 0
    outer loop
      vertex 5.47153 -28.6828 7
      vertex 1.83348 -29.1424 0
      vertex 5.47153 -28.6828 0
    endloop
  endfacet
  facet normal 0.844321 -0.535838 0
    outer loop
      vertex 23.6233 -17.1633 7
      vertex 25.5882 -14.0672 0
      vertex 25.5882 -14.0672 7
    endloop
  endfacet
  facet normal 0.844321 -0.535838 0
    outer loop
      vertex 25.5882 -14.0672 0
      vertex 23.6233 -17.1633 7
      vertex 23.6233 -17.1633 0
    endloop
  endfacet
  facet normal 0.770521 -0.637415 0
    outer loop
      vertex 21.2859 -19.9888 7
      vertex 23.6233 -17.1633 0
      vertex 23.6233 -17.1633 7
    endloop
  endfacet
  facet normal 0.770521 -0.637415 0
    outer loop
      vertex 23.6233 -17.1633 0
      vertex 21.2859 -19.9888 7
      vertex 21.2859 -19.9888 0
    endloop
  endfacet
  facet normal 0.95106 -0.309006 0
    outer loop
      vertex 27.1495 -10.7492 7
      vertex 28.2826 -7.26174 0
      vertex 28.2826 -7.26174 7
    endloop
  endfacet
  facet normal 0.95106 -0.309006 0
    outer loop
      vertex 28.2826 -7.26174 0
      vertex 27.1495 -10.7492 7
      vertex 27.1495 -10.7492 0
    endloop
  endfacet
  facet normal -0.125335 -0.992114 0
    outer loop
      vertex -5.47153 -28.6828 0
      vertex -1.83348 -29.1424 7
      vertex -5.47153 -28.6828 7
    endloop
  endfacet
  facet normal -0.125335 -0.992114 -0
    outer loop
      vertex -1.83348 -29.1424 7
      vertex -5.47153 -28.6828 0
      vertex -1.83348 -29.1424 0
    endloop
  endfacet
  facet normal -0.368144 -0.929769 0
    outer loop
      vertex -12.4328 -26.4209 0
      vertex -9.0233 -27.7709 7
      vertex -12.4328 -26.4209 7
    endloop
  endfacet
  facet normal -0.368144 -0.929769 -0
    outer loop
      vertex -9.0233 -27.7709 7
      vertex -12.4328 -26.4209 0
      vertex -9.0233 -27.7709 0
    endloop
  endfacet
  facet normal -0.24868 -0.968586 0
    outer loop
      vertex -9.0233 -27.7709 0
      vertex -5.47153 -28.6828 7
      vertex -9.0233 -27.7709 7
    endloop
  endfacet
  facet normal -0.24868 -0.968586 -0
    outer loop
      vertex -5.47153 -28.6828 7
      vertex -9.0233 -27.7709 0
      vertex -5.47153 -28.6828 0
    endloop
  endfacet
  facet normal -0.844321 -0.535838 0
    outer loop
      vertex -23.6233 -17.1633 0
      vertex -25.5882 -14.0672 7
      vertex -25.5882 -14.0672 0
    endloop
  endfacet
  facet normal -0.844321 -0.535838 0
    outer loop
      vertex -25.5882 -14.0672 7
      vertex -23.6233 -17.1633 0
      vertex -23.6233 -17.1633 7
    endloop
  endfacet
  facet normal -0.982288 -0.187376 0
    outer loop
      vertex -28.2826 -7.26174 0
      vertex -28.9697 -3.65973 7
      vertex -28.9697 -3.65973 0
    endloop
  endfacet
  facet normal -0.982288 -0.187376 0
    outer loop
      vertex -28.9697 -3.65973 7
      vertex -28.2826 -7.26174 0
      vertex -28.2826 -7.26174 7
    endloop
  endfacet
  facet normal -0.998026 -0.0628039 0
    outer loop
      vertex -28.9697 -3.65973 0
      vertex -29.2 0 7
      vertex -29.2 0 0
    endloop
  endfacet
  facet normal -0.998026 -0.0628039 0
    outer loop
      vertex -29.2 0 7
      vertex -28.9697 -3.65973 0
      vertex -28.9697 -3.65973 7
    endloop
  endfacet
  facet normal 0.684546 -0.72897 0
    outer loop
      vertex 18.6128 -22.499 0
      vertex 21.2859 -19.9888 7
      vertex 18.6128 -22.499 7
    endloop
  endfacet
  facet normal 0.684546 -0.72897 0
    outer loop
      vertex 21.2859 -19.9888 7
      vertex 18.6128 -22.499 0
      vertex 21.2859 -19.9888 0
    endloop
  endfacet
  facet normal -0.481748 -0.87631 0
    outer loop
      vertex -15.6461 -24.6544 0
      vertex -12.4328 -26.4209 7
      vertex -15.6461 -24.6544 7
    endloop
  endfacet
  facet normal -0.481748 -0.87631 -0
    outer loop
      vertex -12.4328 -26.4209 7
      vertex -15.6461 -24.6544 0
      vertex -12.4328 -26.4209 0
    endloop
  endfacet
  facet normal -0.587779 -0.809021 0
    outer loop
      vertex -18.6128 -22.499 0
      vertex -15.6461 -24.6544 7
      vertex -18.6128 -22.499 7
    endloop
  endfacet
  facet normal -0.587779 -0.809021 -0
    outer loop
      vertex -15.6461 -24.6544 7
      vertex -18.6128 -22.499 0
      vertex -15.6461 -24.6544 0
    endloop
  endfacet
  facet normal -0.684546 -0.72897 0
    outer loop
      vertex -21.2859 -19.9888 0
      vertex -18.6128 -22.499 7
      vertex -21.2859 -19.9888 7
    endloop
  endfacet
  facet normal -0.684546 -0.72897 -0
    outer loop
      vertex -18.6128 -22.499 7
      vertex -21.2859 -19.9888 0
      vertex -18.6128 -22.499 0
    endloop
  endfacet
  facet normal -0.998027 -0.0627837 0
    outer loop
      vertex 22.5 0 0
      vertex 22.3226 2.82 7
      vertex 22.3226 2.82 0
    endloop
  endfacet
  facet normal -0.998027 -0.0627837 0
    outer loop
      vertex 22.3226 2.82 7
      vertex 22.5 0 0
      vertex 22.5 0 7
    endloop
  endfacet
  facet normal 0.998027 -0.0627837 0
    outer loop
      vertex -22.5 0 7
      vertex -22.3226 2.82 0
      vertex -22.3226 2.82 7
    endloop
  endfacet
  facet normal 0.998027 -0.0627837 0
    outer loop
      vertex -22.3226 2.82 0
      vertex -22.5 0 7
      vertex -22.5 0 0
    endloop
  endfacet
  facet normal 0 -1 0
    outer loop
      vertex -1.41279 22.4556 0
      vertex 1.41279 22.4556 7
      vertex -1.41279 22.4556 7
    endloop
  endfacet
  facet normal 0 -1 -0
    outer loop
      vertex 1.41279 22.4556 7
      vertex -1.41279 22.4556 0
      vertex 1.41279 22.4556 0
    endloop
  endfacet
  facet normal 0 1 -0
    outer loop
      vertex 1.41279 -22.4556 0
      vertex -1.41279 -22.4556 7
      vertex 1.41279 -22.4556 7
    endloop
  endfacet
  facet normal 0 1 0
    outer loop
      vertex -1.41279 -22.4556 7
      vertex 1.41279 -22.4556 0
      vertex -1.41279 -22.4556 0
    endloop
  endfacet
  facet normal -0.684532 -0.728983 0
    outer loop
      vertex 14.342 17.3365 0
      vertex 16.4018 15.4023 7
      vertex 14.342 17.3365 7
    endloop
  endfacet
  facet normal -0.684532 -0.728983 -0
    outer loop
      vertex 16.4018 15.4023 7
      vertex 14.342 17.3365 0
      vertex 16.4018 15.4023 0
    endloop
  endfacet
  facet normal 0.684532 -0.728983 0
    outer loop
      vertex -16.4018 15.4023 0
      vertex -14.342 17.3365 7
      vertex -16.4018 15.4023 7
    endloop
  endfacet
  facet normal 0.684532 -0.728983 0
    outer loop
      vertex -14.342 17.3365 7
      vertex -16.4018 15.4023 0
      vertex -14.342 17.3365 0
    endloop
  endfacet
  facet normal 0.368136 -0.929772 0
    outer loop
      vertex -9.58003 20.3586 0
      vertex -6.95288 21.3988 7
      vertex -9.58003 20.3586 7
    endloop
  endfacet
  facet normal 0.368136 -0.929772 0
    outer loop
      vertex -6.95288 21.3988 7
      vertex -9.58003 20.3586 0
      vertex -6.95288 21.3988 0
    endloop
  endfacet
  facet normal -0.904826 -0.425782 0
    outer loop
      vertex 20.92 8.2828 0
      vertex 19.7169 10.8395 7
      vertex 19.7169 10.8395 0
    endloop
  endfacet
  facet normal -0.904826 -0.425782 0
    outer loop
      vertex 19.7169 10.8395 7
      vertex 20.92 8.2828 0
      vertex 20.92 8.2828 7
    endloop
  endfacet
  facet normal -0.368136 -0.929772 0
    outer loop
      vertex 6.95288 21.3988 0
      vertex 9.58003 20.3586 7
      vertex 6.95288 21.3988 7
    endloop
  endfacet
  facet normal -0.368136 -0.929772 -0
    outer loop
      vertex 9.58003 20.3586 7
      vertex 6.95288 21.3988 0
      vertex 9.58003 20.3586 0
    endloop
  endfacet
  facet normal -0.481745 -0.876311 0
    outer loop
      vertex 9.58003 20.3586 0
      vertex 12.0561 18.9974 7
      vertex 9.58003 20.3586 7
    endloop
  endfacet
  facet normal -0.481745 -0.876311 -0
    outer loop
      vertex 12.0561 18.9974 7
      vertex 9.58003 20.3586 0
      vertex 12.0561 18.9974 0
    endloop
  endfacet
  facet normal 0.904826 -0.425782 0
    outer loop
      vertex -20.92 8.2828 7
      vertex -19.7169 10.8395 0
      vertex -19.7169 10.8395 7
    endloop
  endfacet
  facet normal 0.904826 -0.425782 0
    outer loop
      vertex -19.7169 10.8395 0
      vertex -20.92 8.2828 7
      vertex -20.92 8.2828 0
    endloop
  endfacet
  facet normal 0.84433 -0.535824 0
    outer loop
      vertex -19.7169 10.8395 7
      vertex -18.2029 13.2252 0
      vertex -18.2029 13.2252 7
    endloop
  endfacet
  facet normal 0.84433 -0.535824 0
    outer loop
      vertex -18.2029 13.2252 0
      vertex -19.7169 10.8395 7
      vertex -19.7169 10.8395 0
    endloop
  endfacet
  facet normal 0.587808 -0.809001 0
    outer loop
      vertex -14.342 17.3365 0
      vertex -12.0561 18.9974 7
      vertex -14.342 17.3365 7
    endloop
  endfacet
  facet normal 0.587808 -0.809001 0
    outer loop
      vertex -12.0561 18.9974 7
      vertex -14.342 17.3365 0
      vertex -12.0561 18.9974 0
    endloop
  endfacet
  facet normal 0.248693 -0.968582 0
    outer loop
      vertex -6.95288 21.3988 0
      vertex -4.21608 22.1015 7
      vertex -6.95288 21.3988 7
    endloop
  endfacet
  facet normal 0.248693 -0.968582 0
    outer loop
      vertex -4.21608 22.1015 7
      vertex -6.95288 21.3988 0
      vertex -4.21608 22.1015 0
    endloop
  endfacet
  facet normal 0.904826 0.425782 0
    outer loop
      vertex -19.7169 -10.8395 7
      vertex -20.92 -8.2828 0
      vertex -20.92 -8.2828 7
    endloop
  endfacet
  facet normal 0.904826 0.425782 0
    outer loop
      vertex -20.92 -8.2828 0
      vertex -19.7169 -10.8395 7
      vertex -19.7169 -10.8395 0
    endloop
  endfacet
  facet normal -0.12532 0.992116 0
    outer loop
      vertex 4.21608 -22.1015 0
      vertex 1.41279 -22.4556 7
      vertex 4.21608 -22.1015 7
    endloop
  endfacet
  facet normal -0.12532 0.992116 0
    outer loop
      vertex 1.41279 -22.4556 7
      vertex 4.21608 -22.1015 0
      vertex 1.41279 -22.4556 0
    endloop
  endfacet
  facet normal -0.951062 -0.309001 0
    outer loop
      vertex 21.7931 5.59552 0
      vertex 20.92 8.2828 7
      vertex 20.92 8.2828 0
    endloop
  endfacet
  facet normal -0.951062 -0.309001 0
    outer loop
      vertex 20.92 8.2828 7
      vertex 21.7931 5.59552 0
      vertex 21.7931 5.59552 7
    endloop
  endfacet
  facet normal -0.982285 -0.187395 0
    outer loop
      vertex 22.3226 2.82 0
      vertex 21.7931 5.59552 7
      vertex 21.7931 5.59552 0
    endloop
  endfacet
  facet normal -0.982285 -0.187395 0
    outer loop
      vertex 21.7931 5.59552 7
      vertex 22.3226 2.82 0
      vertex 22.3226 2.82 7
    endloop
  endfacet
  facet normal -0.770505 -0.637434 0
    outer loop
      vertex 18.2029 13.2252 0
      vertex 16.4018 15.4023 7
      vertex 16.4018 15.4023 0
    endloop
  endfacet
  facet normal -0.770505 -0.637434 0
    outer loop
      vertex 16.4018 15.4023 7
      vertex 18.2029 13.2252 0
      vertex 18.2029 13.2252 7
    endloop
  endfacet
  facet normal -0.84433 -0.535824 0
    outer loop
      vertex 19.7169 10.8395 0
      vertex 18.2029 13.2252 7
      vertex 18.2029 13.2252 0
    endloop
  endfacet
  facet normal -0.84433 -0.535824 0
    outer loop
      vertex 18.2029 13.2252 7
      vertex 19.7169 10.8395 0
      vertex 19.7169 10.8395 7
    endloop
  endfacet
  facet normal -0.248693 -0.968582 0
    outer loop
      vertex 4.21608 22.1015 0
      vertex 6.95288 21.3988 7
      vertex 4.21608 22.1015 7
    endloop
  endfacet
  facet normal -0.248693 -0.968582 -0
    outer loop
      vertex 6.95288 21.3988 7
      vertex 4.21608 22.1015 0
      vertex 6.95288 21.3988 0
    endloop
  endfacet
  facet normal -0.12532 -0.992116 0
    outer loop
      vertex 1.41279 22.4556 0
      vertex 4.21608 22.1015 7
      vertex 1.41279 22.4556 7
    endloop
  endfacet
  facet normal -0.12532 -0.992116 -0
    outer loop
      vertex 4.21608 22.1015 7
      vertex 1.41279 22.4556 0
      vertex 4.21608 22.1015 0
    endloop
  endfacet
  facet normal -0.587808 -0.809001 0
    outer loop
      vertex 12.0561 18.9974 0
      vertex 14.342 17.3365 7
      vertex 12.0561 18.9974 7
    endloop
  endfacet
  facet normal -0.587808 -0.809001 -0
    outer loop
      vertex 14.342 17.3365 7
      vertex 12.0561 18.9974 0
      vertex 14.342 17.3365 0
    endloop
  endfacet
  facet normal 0.770505 -0.637434 0
    outer loop
      vertex -18.2029 13.2252 7
      vertex -16.4018 15.4023 0
      vertex -16.4018 15.4023 7
    endloop
  endfacet
  facet normal 0.770505 -0.637434 0
    outer loop
      vertex -16.4018 15.4023 0
      vertex -18.2029 13.2252 7
      vertex -18.2029 13.2252 0
    endloop
  endfacet
  facet normal 0.951062 -0.309001 0
    outer loop
      vertex -21.7931 5.59552 7
      vertex -20.92 8.2828 0
      vertex -20.92 8.2828 7
    endloop
  endfacet
  facet normal 0.951062 -0.309001 0
    outer loop
      vertex -20.92 8.2828 0
      vertex -21.7931 5.59552 7
      vertex -21.7931 5.59552 0
    endloop
  endfacet
  facet normal 0.982285 -0.187395 0
    outer loop
      vertex -22.3226 2.82 7
      vertex -21.7931 5.59552 0
      vertex -21.7931 5.59552 7
    endloop
  endfacet
  facet normal 0.982285 -0.187395 0
    outer loop
      vertex -21.7931 5.59552 0
      vertex -22.3226 2.82 7
      vertex -22.3226 2.82 0
    endloop
  endfacet
  facet normal 0.481745 -0.876311 0
    outer loop
      vertex -12.0561 18.9974 0
      vertex -9.58003 20.3586 7
      vertex -12.0561 18.9974 7
    endloop
  endfacet
  facet normal 0.481745 -0.876311 0
    outer loop
      vertex -9.58003 20.3586 7
      vertex -12.0561 18.9974 0
      vertex -9.58003 20.3586 0
    endloop
  endfacet
  facet normal 0.12532 -0.992116 0
    outer loop
      vertex -4.21608 22.1015 0
      vertex -1.41279 22.4556 7
      vertex -4.21608 22.1015 7
    endloop
  endfacet
  facet normal 0.12532 -0.992116 0
    outer loop
      vertex -1.41279 22.4556 7
      vertex -4.21608 22.1015 0
      vertex -1.41279 22.4556 0
    endloop
  endfacet
  facet normal -0.998027 0.0627837 0
    outer loop
      vertex 22.3226 -2.82 0
      vertex 22.5 0 7
      vertex 22.5 0 0
    endloop
  endfacet
  facet normal -0.998027 0.0627837 0
    outer loop
      vertex 22.5 0 7
      vertex 22.3226 -2.82 0
      vertex 22.3226 -2.82 7
    endloop
  endfacet
  facet normal -0.684532 0.728983 0
    outer loop
      vertex 16.4018 -15.4023 0
      vertex 14.342 -17.3365 7
      vertex 16.4018 -15.4023 7
    endloop
  endfacet
  facet normal -0.684532 0.728983 0
    outer loop
      vertex 14.342 -17.3365 7
      vertex 16.4018 -15.4023 0
      vertex 14.342 -17.3365 0
    endloop
  endfacet
  facet normal -0.904826 0.425782 0
    outer loop
      vertex 19.7169 -10.8395 0
      vertex 20.92 -8.2828 7
      vertex 20.92 -8.2828 0
    endloop
  endfacet
  facet normal -0.904826 0.425782 0
    outer loop
      vertex 20.92 -8.2828 7
      vertex 19.7169 -10.8395 0
      vertex 19.7169 -10.8395 7
    endloop
  endfacet
  facet normal 0.998027 0.0627837 0
    outer loop
      vertex -22.3226 -2.82 7
      vertex -22.5 0 0
      vertex -22.5 0 7
    endloop
  endfacet
  facet normal 0.998027 0.0627837 0
    outer loop
      vertex -22.5 0 0
      vertex -22.3226 -2.82 7
      vertex -22.3226 -2.82 0
    endloop
  endfacet
  facet normal -0.368136 0.929772 0
    outer loop
      vertex 9.58003 -20.3586 0
      vertex 6.95288 -21.3988 7
      vertex 9.58003 -20.3586 7
    endloop
  endfacet
  facet normal -0.368136 0.929772 0
    outer loop
      vertex 6.95288 -21.3988 7
      vertex 9.58003 -20.3586 0
      vertex 6.95288 -21.3988 0
    endloop
  endfacet
  facet normal -0.951062 0.309001 0
    outer loop
      vertex 20.92 -8.2828 0
      vertex 21.7931 -5.59552 7
      vertex 21.7931 -5.59552 0
    endloop
  endfacet
  facet normal -0.951062 0.309001 0
    outer loop
      vertex 21.7931 -5.59552 7
      vertex 20.92 -8.2828 0
      vertex 20.92 -8.2828 7
    endloop
  endfacet
  facet normal -0.982285 0.187395 0
    outer loop
      vertex 21.7931 -5.59552 0
      vertex 22.3226 -2.82 7
      vertex 22.3226 -2.82 0
    endloop
  endfacet
  facet normal -0.982285 0.187395 0
    outer loop
      vertex 22.3226 -2.82 7
      vertex 21.7931 -5.59552 0
      vertex 21.7931 -5.59552 7
    endloop
  endfacet
  facet normal -0.481745 0.876311 0
    outer loop
      vertex 12.0561 -18.9974 0
      vertex 9.58003 -20.3586 7
      vertex 12.0561 -18.9974 7
    endloop
  endfacet
  facet normal -0.481745 0.876311 0
    outer loop
      vertex 9.58003 -20.3586 7
      vertex 12.0561 -18.9974 0
      vertex 9.58003 -20.3586 0
    endloop
  endfacet
  facet normal -0.770505 0.637434 0
    outer loop
      vertex 16.4018 -15.4023 0
      vertex 18.2029 -13.2252 7
      vertex 18.2029 -13.2252 0
    endloop
  endfacet
  facet normal -0.770505 0.637434 0
    outer loop
      vertex 18.2029 -13.2252 7
      vertex 16.4018 -15.4023 0
      vertex 16.4018 -15.4023 7
    endloop
  endfacet
  facet normal 0.368136 0.929772 -0
    outer loop
      vertex -6.95288 -21.3988 0
      vertex -9.58003 -20.3586 7
      vertex -6.95288 -21.3988 7
    endloop
  endfacet
  facet normal 0.368136 0.929772 0
    outer loop
      vertex -9.58003 -20.3586 7
      vertex -6.95288 -21.3988 0
      vertex -9.58003 -20.3586 0
    endloop
  endfacet
  facet normal 0.684532 0.728983 -0
    outer loop
      vertex -14.342 -17.3365 0
      vertex -16.4018 -15.4023 7
      vertex -14.342 -17.3365 7
    endloop
  endfacet
  facet normal 0.684532 0.728983 0
    outer loop
      vertex -16.4018 -15.4023 7
      vertex -14.342 -17.3365 0
      vertex -16.4018 -15.4023 0
    endloop
  endfacet
  facet normal -0.248693 0.968582 0
    outer loop
      vertex 6.95288 -21.3988 0
      vertex 4.21608 -22.1015 7
      vertex 6.95288 -21.3988 7
    endloop
  endfacet
  facet normal -0.248693 0.968582 0
    outer loop
      vertex 4.21608 -22.1015 7
      vertex 6.95288 -21.3988 0
      vertex 4.21608 -22.1015 0
    endloop
  endfacet
  facet normal -0.587808 0.809001 0
    outer loop
      vertex 14.342 -17.3365 0
      vertex 12.0561 -18.9974 7
      vertex 14.342 -17.3365 7
    endloop
  endfacet
  facet normal -0.587808 0.809001 0
    outer loop
      vertex 12.0561 -18.9974 7
      vertex 14.342 -17.3365 0
      vertex 12.0561 -18.9974 0
    endloop
  endfacet
  facet normal -0.84433 0.535824 0
    outer loop
      vertex 18.2029 -13.2252 0
      vertex 19.7169 -10.8395 7
      vertex 19.7169 -10.8395 0
    endloop
  endfacet
  facet normal -0.84433 0.535824 0
    outer loop
      vertex 19.7169 -10.8395 7
      vertex 18.2029 -13.2252 0
      vertex 18.2029 -13.2252 7
    endloop
  endfacet
  facet normal 0.248693 0.968582 -0
    outer loop
      vertex -4.21608 -22.1015 0
      vertex -6.95288 -21.3988 7
      vertex -4.21608 -22.1015 7
    endloop
  endfacet
  facet normal 0.248693 0.968582 0
    outer loop
      vertex -6.95288 -21.3988 7
      vertex -4.21608 -22.1015 0
      vertex -6.95288 -21.3988 0
    endloop
  endfacet
  facet normal 0.84433 0.535824 0
    outer loop
      vertex -18.2029 -13.2252 7
      vertex -19.7169 -10.8395 0
      vertex -19.7169 -10.8395 7
    endloop
  endfacet
  facet normal 0.84433 0.535824 0
    outer loop
      vertex -19.7169 -10.8395 0
      vertex -18.2029 -13.2252 7
      vertex -18.2029 -13.2252 0
    endloop
  endfacet
  facet normal 0.951062 0.309001 0
    outer loop
      vertex -20.92 -8.2828 7
      vertex -21.7931 -5.59552 0
      vertex -21.7931 -5.59552 7
    endloop
  endfacet
  facet normal 0.951062 0.309001 0
    outer loop
      vertex -21.7931 -5.59552 0
      vertex -20.92 -8.2828 7
      vertex -20.92 -8.2828 0
    endloop
  endfacet
  facet normal 0.982285 0.187395 0
    outer loop
      vertex -21.7931 -5.59552 7
      vertex -22.3226 -2.82 0
      vertex -22.3226 -2.82 7
    endloop
  endfacet
  facet normal 0.982285 0.187395 0
    outer loop
      vertex -22.3226 -2.82 0
      vertex -21.7931 -5.59552 7
      vertex -21.7931 -5.59552 0
    endloop
  endfacet
  facet normal 0.12532 0.992116 -0
    outer loop
      vertex -1.41279 -22.4556 0
      vertex -4.21608 -22.1015 7
      vertex -1.41279 -22.4556 7
    endloop
  endfacet
  facet normal 0.12532 0.992116 0
    outer loop
      vertex -4.21608 -22.1015 7
      vertex -1.41279 -22.4556 0
      vertex -4.21608 -22.1015 0
    endloop
  endfacet
  facet normal 0.770505 0.637434 0
    outer loop
      vertex -16.4018 -15.4023 7
      vertex -18.2029 -13.2252 0
      vertex -18.2029 -13.2252 7
    endloop
  endfacet
  facet normal 0.770505 0.637434 0
    outer loop
      vertex -18.2029 -13.2252 0
      vertex -16.4018 -15.4023 7
      vertex -16.4018 -15.4023 0
    endloop
  endfacet
  facet normal 0.481745 0.876311 -0
    outer loop
      vertex -9.58003 -20.3586 0
      vertex -12.0561 -18.9974 7
      vertex -9.58003 -20.3586 7
    endloop
  endfacet
  facet normal 0.481745 0.876311 0
    outer loop
      vertex -12.0561 -18.9974 7
      vertex -9.58003 -20.3586 0
      vertex -12.0561 -18.9974 0
    endloop
  endfacet
  facet normal 0.587808 0.809001 -0
    outer loop
      vertex -12.0561 -18.9974 0
      vertex -14.342 -17.3365 7
      vertex -12.0561 -18.9974 7
    endloop
  endfacet
  facet normal 0.587808 0.809001 0
    outer loop
      vertex -14.342 -17.3365 7
      vertex -12.0561 -18.9974 0
      vertex -14.342 -17.3365 0
    endloop
  endfacet
endsolid OpenSCAD_Model
