solid OpenSCAD_Model
  facet normal 0.844334 0.535818 -4.48491e-18
    outer loop
      vertex 16.3869 9.00879 7
      vertex 15.1286 10.9916 0
      vertex 15.1286 10.9916 7
    endloop
  endfacet
  facet normal 0.844334 0.535818 -4.48491e-18
    outer loop
      vertex 15.1286 10.9916 0
      vertex 16.3869 9.00879 7
      vertex 16.3869 9.00879 0
    endloop
  endfacet
  facet normal 0.368129 0.929775 -0
    outer loop
      vertex 7.96207 16.9203 0
      vertex 5.77862 17.7848 7
      vertex 7.96207 16.9203 7
    endloop
  endfacet
  facet normal 0.368129 0.929775 0
    outer loop
      vertex 5.77862 17.7848 7
      vertex 7.96207 16.9203 0
      vertex 5.77862 17.7848 0
    endloop
  endfacet
  facet normal -0.368129 0.929775 0
    outer loop
      vertex -5.77862 17.7848 0
      vertex -7.96207 16.9203 7
      vertex -5.77862 17.7848 7
    endloop
  endfacet
  facet normal -0.368129 0.929775 0
    outer loop
      vertex -7.96207 16.9203 7
      vertex -5.77862 17.7848 0
      vertex -7.96207 16.9203 0
    endloop
  endfacet
  facet normal -0.904824 0.425785 -1.05791e-17
    outer loop
      vertex -17.3868 6.88393 0
      vertex -16.3869 9.00879 7
      vertex -16.3869 9.00879 0
    endloop
  endfacet
  facet normal -0.904824 0.425785 -1.05791e-17
    outer loop
      vertex -16.3869 9.00879 7
      vertex -17.3868 6.88393 0
      vertex -17.3868 6.88393 7
    endloop
  endfacet
  facet normal 0.98229 -0.187365 2.90202e-19
    outer loop
      vertex 18.1125 -4.6505 7
      vertex 18.5525 -2.34373 0
      vertex 18.5525 -2.34373 7
    endloop
  endfacet
  facet normal 0.98229 -0.187365 2.90202e-19
    outer loop
      vertex 18.5525 -2.34373 0
      vertex 18.1125 -4.6505 7
      vertex 18.1125 -4.6505 0
    endloop
  endfacet
  facet normal 0.125321 0.992116 -0
    outer loop
      vertex 3.50403 18.3688 0
      vertex 1.17418 18.6631 7
      vertex 3.50403 18.3688 7
    endloop
  endfacet
  facet normal 0.125321 0.992116 0
    outer loop
      vertex 1.17418 18.6631 7
      vertex 3.50403 18.3688 0
      vertex 1.17418 18.6631 0
    endloop
  endfacet
  facet normal 0.587789 0.809014 -0
    outer loop
      vertex 11.9198 14.4086 0
      vertex 10.02 15.7889 7
      vertex 11.9198 14.4086 7
    endloop
  endfacet
  facet normal 0.587789 0.809014 0
    outer loop
      vertex 10.02 15.7889 7
      vertex 11.9198 14.4086 0
      vertex 10.02 15.7889 0
    endloop
  endfacet
  facet normal -0.98229 0.187365 2.90202e-19
    outer loop
      vertex -18.5525 2.34373 0
      vertex -18.1125 4.6505 7
      vertex -18.1125 4.6505 0
    endloop
  endfacet
  facet normal -0.98229 0.187365 2.90202e-19
    outer loop
      vertex -18.1125 4.6505 7
      vertex -18.5525 2.34373 0
      vertex -18.5525 2.34373 7
    endloop
  endfacet
  facet normal -0.770506 0.637433 -3.69353e-19
    outer loop
      vertex -15.1286 10.9916 0
      vertex -13.6317 12.801 7
      vertex -13.6317 12.801 0
    endloop
  endfacet
  facet normal -0.770506 0.637433 -3.69353e-19
    outer loop
      vertex -13.6317 12.801 7
      vertex -15.1286 10.9916 0
      vertex -15.1286 10.9916 7
    endloop
  endfacet
  facet normal -0.125321 0.992116 0
    outer loop
      vertex -1.17418 18.6631 0
      vertex -3.50403 18.3688 7
      vertex -1.17418 18.6631 7
    endloop
  endfacet
  facet normal -0.125321 0.992116 0
    outer loop
      vertex -3.50403 18.3688 7
      vertex -1.17418 18.6631 0
      vertex -3.50403 18.3688 0
    endloop
  endfacet
  facet normal -0.684551 0.728965 0
    outer loop
      vertex -11.9198 14.4086 0
      vertex -13.6317 12.801 7
      vertex -11.9198 14.4086 7
    endloop
  endfacet
  facet normal -0.684551 0.728965 0
    outer loop
      vertex -13.6317 12.801 7
      vertex -11.9198 14.4086 0
      vertex -13.6317 12.801 0
    endloop
  endfacet
  facet normal 0.998026 0.0628096 -1.08166e-18
    outer loop
      vertex 18.7 0 7
      vertex 18.5525 2.34373 0
      vertex 18.5525 2.34373 7
    endloop
  endfacet
  facet normal 0.998026 0.0628096 -1.08166e-18
    outer loop
      vertex 18.5525 2.34373 0
      vertex 18.7 0 7
      vertex 18.7 0 0
    endloop
  endfacet
  facet normal 0.951055 -0.309023 -4.67618e-18
    outer loop
      vertex 17.3868 -6.88393 7
      vertex 18.1125 -4.6505 0
      vertex 18.1125 -4.6505 7
    endloop
  endfacet
  facet normal 0.951055 -0.309023 -4.67618e-18
    outer loop
      vertex 18.1125 -4.6505 0
      vertex 17.3868 -6.88393 7
      vertex 17.3868 -6.88393 0
    endloop
  endfacet
  facet normal 0.587789 -0.809014 0
    outer loop
      vertex 10.02 -15.7889 0
      vertex 11.9198 -14.4086 7
      vertex 10.02 -15.7889 7
    endloop
  endfacet
  facet normal 0.587789 -0.809014 0
    outer loop
      vertex 11.9198 -14.4086 7
      vertex 10.02 -15.7889 0
      vertex 11.9198 -14.4086 0
    endloop
  endfacet
  facet normal 0.684551 0.728965 -0
    outer loop
      vertex 13.6317 12.801 0
      vertex 11.9198 14.4086 7
      vertex 13.6317 12.801 7
    endloop
  endfacet
  facet normal 0.684551 0.728965 0
    outer loop
      vertex 11.9198 14.4086 7
      vertex 13.6317 12.801 0
      vertex 11.9198 14.4086 0
    endloop
  endfacet
  facet normal 0 1 -0
    outer loop
      vertex 1.17418 18.6631 0
      vertex -1.17418 18.6631 7
      vertex 1.17418 18.6631 7
    endloop
  endfacet
  facet normal 0 1 0
    outer loop
      vertex -1.17418 18.6631 7
      vertex 1.17418 18.6631 0
      vertex -1.17418 18.6631 0
    endloop
  endfacet
  facet normal 0.248684 0.968585 -0
    outer loop
      vertex 5.77862 17.7848 0
      vertex 3.50403 18.3688 7
      vertex 5.77862 17.7848 7
    endloop
  endfacet
  facet normal 0.248684 0.968585 0
    outer loop
      vertex 3.50403 18.3688 7
      vertex 5.77862 17.7848 0
      vertex 3.50403 18.3688 0
    endloop
  endfacet
  facet normal 0.481768 0.876299 -0
    outer loop
      vertex 10.02 15.7889 0
      vertex 7.96207 16.9203 7
      vertex 10.02 15.7889 7
    endloop
  endfacet
  facet normal 0.481768 0.876299 0
    outer loop
      vertex 7.96207 16.9203 7
      vertex 10.02 15.7889 0
      vertex 7.96207 16.9203 0
    endloop
  endfacet
  facet normal -0.998026 0.0628096 1.08166e-18
    outer loop
      vertex -18.7 0 0
      vertex -18.5525 2.34373 7
      vertex -18.5525 2.34373 0
    endloop
  endfacet
  facet normal -0.998026 0.0628096 1.08166e-18
    outer loop
      vertex -18.5525 2.34373 7
      vertex -18.7 0 0
      vertex -18.7 0 7
    endloop
  endfacet
  facet normal -0.951055 0.309023 -4.67618e-18
    outer loop
      vertex -18.1125 4.6505 0
      vertex -17.3868 6.88393 7
      vertex -17.3868 6.88393 0
    endloop
  endfacet
  facet normal -0.951055 0.309023 -4.67618e-18
    outer loop
      vertex -17.3868 6.88393 7
      vertex -18.1125 4.6505 0
      vertex -18.1125 4.6505 7
    endloop
  endfacet
  facet normal -0.844334 0.535818 4.48491e-18
    outer loop
      vertex -16.3869 9.00879 0
      vertex -15.1286 10.9916 7
      vertex -15.1286 10.9916 0
    endloop
  endfacet
  facet normal -0.844334 0.535818 4.48491e-18
    outer loop
      vertex -15.1286 10.9916 7
      vertex -16.3869 9.00879 0
      vertex -16.3869 9.00879 7
    endloop
  endfacet
  facet normal -0.248684 0.968585 0
    outer loop
      vertex -3.50403 18.3688 0
      vertex -5.77862 17.7848 7
      vertex -3.50403 18.3688 7
    endloop
  endfacet
  facet normal -0.248684 0.968585 0
    outer loop
      vertex -5.77862 17.7848 7
      vertex -3.50403 18.3688 0
      vertex -5.77862 17.7848 0
    endloop
  endfacet
  facet normal -0.587789 0.809014 0
    outer loop
      vertex -10.02 15.7889 0
      vertex -11.9198 14.4086 7
      vertex -10.02 15.7889 7
    endloop
  endfacet
  facet normal -0.587789 0.809014 0
    outer loop
      vertex -11.9198 14.4086 7
      vertex -10.02 15.7889 0
      vertex -11.9198 14.4086 0
    endloop
  endfacet
  facet normal -0.481768 0.876299 0
    outer loop
      vertex -7.96207 16.9203 0
      vertex -10.02 15.7889 7
      vertex -7.96207 16.9203 7
    endloop
  endfacet
  facet normal -0.481768 0.876299 0
    outer loop
      vertex -10.02 15.7889 7
      vertex -7.96207 16.9203 0
      vertex -10.02 15.7889 0
    endloop
  endfacet
  facet normal 0.998026 -0.0628096 1.08166e-18
    outer loop
      vertex 18.5525 -2.34373 7
      vertex 18.7 0 0
      vertex 18.7 0 7
    endloop
  endfacet
  facet normal 0.998026 -0.0628096 1.08166e-18
    outer loop
      vertex 18.7 0 0
      vertex 18.5525 -2.34373 7
      vertex 18.5525 -2.34373 0
    endloop
  endfacet
  facet normal 0.844334 -0.535818 4.48491e-18
    outer loop
      vertex 15.1286 -10.9916 7
      vertex 16.3869 -9.00879 0
      vertex 16.3869 -9.00879 7
    endloop
  endfacet
  facet normal 0.844334 -0.535818 4.48491e-18
    outer loop
      vertex 16.3869 -9.00879 0
      vertex 15.1286 -10.9916 7
      vertex 15.1286 -10.9916 0
    endloop
  endfacet
  facet normal -0.904824 -0.425785 1.05791e-17
    outer loop
      vertex -16.3869 -9.00879 0
      vertex -17.3868 -6.88393 7
      vertex -17.3868 -6.88393 0
    endloop
  endfacet
  facet normal -0.904824 -0.425785 1.05791e-17
    outer loop
      vertex -17.3868 -6.88393 7
      vertex -16.3869 -9.00879 0
      vertex -16.3869 -9.00879 7
    endloop
  endfacet
  facet normal 0.125321 -0.992116 0
    outer loop
      vertex 1.17418 -18.6631 0
      vertex 3.50403 -18.3688 7
      vertex 1.17418 -18.6631 7
    endloop
  endfacet
  facet normal 0.125321 -0.992116 0
    outer loop
      vertex 3.50403 -18.3688 7
      vertex 1.17418 -18.6631 0
      vertex 3.50403 -18.3688 0
    endloop
  endfacet
  facet normal 0.684551 -0.728965 0
    outer loop
      vertex 11.9198 -14.4086 0
      vertex 13.6317 -12.801 7
      vertex 11.9198 -14.4086 7
    endloop
  endfacet
  facet normal 0.684551 -0.728965 0
    outer loop
      vertex 13.6317 -12.801 7
      vertex 11.9198 -14.4086 0
      vertex 13.6317 -12.801 0
    endloop
  endfacet
  facet normal 0.904824 0.425785 1.05791e-17
    outer loop
      vertex 17.3868 6.88393 7
      vertex 16.3869 9.00879 0
      vertex 16.3869 9.00879 7
    endloop
  endfacet
  facet normal 0.904824 0.425785 1.05791e-17
    outer loop
      vertex 16.3869 9.00879 0
      vertex 17.3868 6.88393 7
      vertex 17.3868 6.88393 0
    endloop
  endfacet
  facet normal 0.951055 0.309023 4.67618e-18
    outer loop
      vertex 18.1125 4.6505 7
      vertex 17.3868 6.88393 0
      vertex 17.3868 6.88393 7
    endloop
  endfacet
  facet normal 0.951055 0.309023 4.67618e-18
    outer loop
      vertex 17.3868 6.88393 0
      vertex 18.1125 4.6505 7
      vertex 18.1125 4.6505 0
    endloop
  endfacet
  facet normal 0.98229 0.187365 -2.90202e-19
    outer loop
      vertex 18.5525 2.34373 7
      vertex 18.1125 4.6505 0
      vertex 18.1125 4.6505 7
    endloop
  endfacet
  facet normal 0.98229 0.187365 -2.90202e-19
    outer loop
      vertex 18.1125 4.6505 0
      vertex 18.5525 2.34373 7
      vertex 18.5525 2.34373 0
    endloop
  endfacet
  facet normal 0.770506 0.637433 3.69353e-19
    outer loop
      vertex 15.1286 10.9916 7
      vertex 13.6317 12.801 0
      vertex 13.6317 12.801 7
    endloop
  endfacet
  facet normal 0.770506 0.637433 3.69353e-19
    outer loop
      vertex 13.6317 12.801 0
      vertex 15.1286 10.9916 7
      vertex 15.1286 10.9916 0
    endloop
  endfacet
  facet normal 0 0 1
    outer loop
      vertex 12.5 0 7
      vertex 18.7 0 7
      vertex 18.5525 2.34373 7
    endloop
  endfacet
  facet normal 0 0 1
    outer loop
      vertex 12.4014 1.56666 7
      vertex 18.5525 2.34373 7
      vertex 18.1125 4.6505 7
    endloop
  endfacet
  facet normal 0 0 1
    outer loop
      vertex 18.7 0 7
      vertex 12.5 0 7
      vertex 18.5525 -2.34373 7
    endloop
  endfacet
  facet normal 0 0 1
    outer loop
      vertex 12.1073 3.10862 7
      vertex 18.1125 4.6505 7
      vertex 17.3868 6.88393 7
    endloop
  endfacet
  facet normal -0 0 1
    outer loop
      vertex 12.4014 -1.56666 7
      vertex 18.5525 -2.34373 7
      vertex 12.5 0 7
    endloop
  endfacet
  facet normal 0 0 1
    outer loop
      vertex 11.6222 4.60156 7
      vertex 17.3868 6.88393 7
      vertex 16.3869 9.00879 7
    endloop
  endfacet
  facet normal 0 0 1
    outer loop
      vertex 18.5525 -2.34373 7
      vertex 12.4014 -1.56666 7
      vertex 18.1125 -4.6505 7
    endloop
  endfacet
  facet normal 0 0 1
    outer loop
      vertex 10.9538 6.02192 7
      vertex 16.3869 9.00879 7
      vertex 15.1286 10.9916 7
    endloop
  endfacet
  facet normal -0 0 1
    outer loop
      vertex 12.1073 -3.10862 7
      vertex 18.1125 -4.6505 7
      vertex 12.4014 -1.56666 7
    endloop
  endfacet
  facet normal 0 0 1
    outer loop
      vertex 10.1127 7.34731 7
      vertex 15.1286 10.9916 7
      vertex 13.6317 12.801 7
    endloop
  endfacet
  facet normal 0 0 1
    outer loop
      vertex 18.1125 -4.6505 7
      vertex 12.1073 -3.10862 7
      vertex 17.3868 -6.88393 7
    endloop
  endfacet
  facet normal -0 0 1
    outer loop
      vertex 11.6222 -4.60156 7
      vertex 17.3868 -6.88393 7
      vertex 12.1073 -3.10862 7
    endloop
  endfacet
  facet normal 0 0 1
    outer loop
      vertex 18.5525 2.34373 7
      vertex 12.4014 1.56666 7
      vertex 12.5 0 7
    endloop
  endfacet
  facet normal 0 0 1
    outer loop
      vertex 18.1125 4.6505 7
      vertex 12.1073 3.10862 7
      vertex 12.4014 1.56666 7
    endloop
  endfacet
  facet normal 0 0 1
    outer loop
      vertex 9.11211 8.55684 7
      vertex 13.6317 12.801 7
      vertex 11.9198 14.4086 7
    endloop
  endfacet
  facet normal 0 0 1
    outer loop
      vertex 17.3868 6.88393 7
      vertex 11.6222 4.60156 7
      vertex 12.1073 3.10862 7
    endloop
  endfacet
  facet normal 0 0 1
    outer loop
      vertex 16.3869 9.00879 7
      vertex 10.9538 6.02192 7
      vertex 11.6222 4.60156 7
    endloop
  endfacet
  facet normal 0 0 1
    outer loop
      vertex 15.1286 10.9916 7
      vertex 10.1127 7.34731 7
      vertex 10.9538 6.02192 7
    endloop
  endfacet
  facet normal 0 0 1
    outer loop
      vertex 7.9678 9.63142 7
      vertex 11.9198 14.4086 7
      vertex 10.02 15.7889 7
    endloop
  endfacet
  facet normal 0 0 1
    outer loop
      vertex 13.6317 12.801 7
      vertex 9.11211 8.55684 7
      vertex 10.1127 7.34731 7
    endloop
  endfacet
  facet normal 0 0 1
    outer loop
      vertex 11.9198 14.4086 7
      vertex 7.9678 9.63142 7
      vertex 9.11211 8.55684 7
    endloop
  endfacet
  facet normal 0 0 1
    outer loop
      vertex 6.69783 10.5541 7
      vertex 10.02 15.7889 7
      vertex 7.96207 16.9203 7
    endloop
  endfacet
  facet normal 0 0 1
    outer loop
      vertex 10.02 15.7889 7
      vertex 6.69783 10.5541 7
      vertex 7.9678 9.63142 7
    endloop
  endfacet
  facet normal 0 0 1
    outer loop
      vertex 5.32224 11.3103 7
      vertex 7.96207 16.9203 7
      vertex 5.77862 17.7848 7
    endloop
  endfacet
  facet normal 0 0 1
    outer loop
      vertex 7.96207 16.9203 7
      vertex 5.32224 11.3103 7
      vertex 6.69783 10.5541 7
    endloop
  endfacet
  facet normal 0 0 1
    outer loop
      vertex 5.77862 17.7848 7
      vertex 3.86271 11.8882 7
      vertex 5.32224 11.3103 7
    endloop
  endfacet
  facet normal 0 0 1
    outer loop
      vertex 3.50403 18.3688 7
      vertex 3.86271 11.8882 7
      vertex 5.77862 17.7848 7
    endloop
  endfacet
  facet normal 0 0 1
    outer loop
      vertex 3.50403 18.3688 7
      vertex 2.34227 12.2786 7
      vertex 3.86271 11.8882 7
    endloop
  endfacet
  facet normal 0 0 1
    outer loop
      vertex 1.17418 18.6631 7
      vertex 2.34227 12.2786 7
      vertex 3.50403 18.3688 7
    endloop
  endfacet
  facet normal 0 0 1
    outer loop
      vertex 1.17418 18.6631 7
      vertex 0.784881 12.4753 7
      vertex 2.34227 12.2786 7
    endloop
  endfacet
  facet normal 0 0 1
    outer loop
      vertex 1.17418 18.6631 7
      vertex -0.784881 12.4753 7
      vertex 0.784881 12.4753 7
    endloop
  endfacet
  facet normal -0 0 1
    outer loop
      vertex -1.17418 18.6631 7
      vertex -0.784881 12.4753 7
      vertex 1.17418 18.6631 7
    endloop
  endfacet
  facet normal 0 0 1
    outer loop
      vertex -1.17418 18.6631 7
      vertex -2.34227 12.2786 7
      vertex -0.784881 12.4753 7
    endloop
  endfacet
  facet normal -0 0 1
    outer loop
      vertex -3.50403 18.3688 7
      vertex -2.34227 12.2786 7
      vertex -1.17418 18.6631 7
    endloop
  endfacet
  facet normal 0 0 1
    outer loop
      vertex -3.50403 18.3688 7
      vertex -3.86271 11.8882 7
      vertex -2.34227 12.2786 7
    endloop
  endfacet
  facet normal -0 0 1
    outer loop
      vertex -5.77862 17.7848 7
      vertex -3.86271 11.8882 7
      vertex -3.50403 18.3688 7
    endloop
  endfacet
  facet normal 0 0 1
    outer loop
      vertex -3.86271 11.8882 7
      vertex -5.77862 17.7848 7
      vertex -5.32224 11.3103 7
    endloop
  endfacet
  facet normal -0 0 1
    outer loop
      vertex -7.96207 16.9203 7
      vertex -5.32224 11.3103 7
      vertex -5.77862 17.7848 7
    endloop
  endfacet
  facet normal 0 0 1
    outer loop
      vertex -5.32224 11.3103 7
      vertex -7.96207 16.9203 7
      vertex -6.69783 10.5541 7
    endloop
  endfacet
  facet normal -0 0 1
    outer loop
      vertex -10.02 15.7889 7
      vertex -6.69783 10.5541 7
      vertex -7.96207 16.9203 7
    endloop
  endfacet
  facet normal 0 0 1
    outer loop
      vertex -6.69783 10.5541 7
      vertex -10.02 15.7889 7
      vertex -7.9678 9.63142 7
    endloop
  endfacet
  facet normal -0 0 1
    outer loop
      vertex -11.9198 14.4086 7
      vertex -7.9678 9.63142 7
      vertex -10.02 15.7889 7
    endloop
  endfacet
  facet normal 0 0 1
    outer loop
      vertex -7.9678 9.63142 7
      vertex -11.9198 14.4086 7
      vertex -9.11211 8.55684 7
    endloop
  endfacet
  facet normal -0 0 1
    outer loop
      vertex -13.6317 12.801 7
      vertex -9.11211 8.55684 7
      vertex -11.9198 14.4086 7
    endloop
  endfacet
  facet normal 0 0 1
    outer loop
      vertex -9.11211 8.55684 7
      vertex -13.6317 12.801 7
      vertex -10.1127 7.34731 7
    endloop
  endfacet
  facet normal -0 0 1
    outer loop
      vertex -15.1286 10.9916 7
      vertex -10.1127 7.34731 7
      vertex -13.6317 12.801 7
    endloop
  endfacet
  facet normal 0 0 1
    outer loop
      vertex -10.1127 7.34731 7
      vertex -15.1286 10.9916 7
      vertex -10.9538 6.02192 7
    endloop
  endfacet
  facet normal -0 0 1
    outer loop
      vertex -16.3869 9.00879 7
      vertex -10.9538 6.02192 7
      vertex -15.1286 10.9916 7
    endloop
  endfacet
  facet normal 0 0 1
    outer loop
      vertex -10.9538 6.02192 7
      vertex -16.3869 9.00879 7
      vertex -11.6222 4.60156 7
    endloop
  endfacet
  facet normal -0 0 1
    outer loop
      vertex -17.3868 6.88393 7
      vertex -11.6222 4.60156 7
      vertex -16.3869 9.00879 7
    endloop
  endfacet
  facet normal 0 0 1
    outer loop
      vertex 17.3868 -6.88393 7
      vertex 11.6222 -4.60156 7
      vertex 16.3869 -9.00879 7
    endloop
  endfacet
  facet normal -0 0 1
    outer loop
      vertex 10.9538 -6.02192 7
      vertex 16.3869 -9.00879 7
      vertex 11.6222 -4.60156 7
    endloop
  endfacet
  facet normal 0 0 1
    outer loop
      vertex 16.3869 -9.00879 7
      vertex 10.9538 -6.02192 7
      vertex 15.1286 -10.9916 7
    endloop
  endfacet
  facet normal -0 0 1
    outer loop
      vertex 10.1127 -7.34731 7
      vertex 15.1286 -10.9916 7
      vertex 10.9538 -6.02192 7
    endloop
  endfacet
  facet normal 0 0 1
    outer loop
      vertex 15.1286 -10.9916 7
      vertex 10.1127 -7.34731 7
      vertex 13.6317 -12.801 7
    endloop
  endfacet
  facet normal -0 0 1
    outer loop
      vertex 9.11211 -8.55684 7
      vertex 13.6317 -12.801 7
      vertex 10.1127 -7.34731 7
    endloop
  endfacet
  facet normal 0 0 1
    outer loop
      vertex 13.6317 -12.801 7
      vertex 9.11211 -8.55684 7
      vertex 11.9198 -14.4086 7
    endloop
  endfacet
  facet normal -0 0 1
    outer loop
      vertex 7.9678 -9.63142 7
      vertex 11.9198 -14.4086 7
      vertex 9.11211 -8.55684 7
    endloop
  endfacet
  facet normal 0 0 1
    outer loop
      vertex 11.9198 -14.4086 7
      vertex 7.9678 -9.63142 7
      vertex 10.02 -15.7889 7
    endloop
  endfacet
  facet normal -0 0 1
    outer loop
      vertex 6.69783 -10.5541 7
      vertex 10.02 -15.7889 7
      vertex 7.9678 -9.63142 7
    endloop
  endfacet
  facet normal 0 0 1
    outer loop
      vertex 10.02 -15.7889 7
      vertex 6.69783 -10.5541 7
      vertex 7.96207 -16.9203 7
    endloop
  endfacet
  facet normal -0 0 1
    outer loop
      vertex 5.32224 -11.3103 7
      vertex 7.96207 -16.9203 7
      vertex 6.69783 -10.5541 7
    endloop
  endfacet
  facet normal 0 0 1
    outer loop
      vertex 7.96207 -16.9203 7
      vertex 5.32224 -11.3103 7
      vertex 5.77862 -17.7848 7
    endloop
  endfacet
  facet normal -0 0 1
    outer loop
      vertex 3.86271 -11.8882 7
      vertex 5.77862 -17.7848 7
      vertex 5.32224 -11.3103 7
    endloop
  endfacet
  facet normal 0 0 1
    outer loop
      vertex 3.86271 -11.8882 7
      vertex 3.50403 -18.3688 7
      vertex 5.77862 -17.7848 7
    endloop
  endfacet
  facet normal -0 0 1
    outer loop
      vertex 2.34227 -12.2786 7
      vertex 3.50403 -18.3688 7
      vertex 3.86271 -11.8882 7
    endloop
  endfacet
  facet normal 0 0 1
    outer loop
      vertex 2.34227 -12.2786 7
      vertex 1.17418 -18.6631 7
      vertex 3.50403 -18.3688 7
    endloop
  endfacet
  facet normal -0 0 1
    outer loop
      vertex 0.784881 -12.4753 7
      vertex 1.17418 -18.6631 7
      vertex 2.34227 -12.2786 7
    endloop
  endfacet
  facet normal -0 0 1
    outer loop
      vertex -0.784881 -12.4753 7
      vertex 1.17418 -18.6631 7
      vertex 0.784881 -12.4753 7
    endloop
  endfacet
  facet normal 0 0 1
    outer loop
      vertex -0.784881 -12.4753 7
      vertex -1.17418 -18.6631 7
      vertex 1.17418 -18.6631 7
    endloop
  endfacet
  facet normal 0 0 1
    outer loop
      vertex -2.34227 -12.2786 7
      vertex -1.17418 -18.6631 7
      vertex -0.784881 -12.4753 7
    endloop
  endfacet
  facet normal 0 0 1
    outer loop
      vertex -2.34227 -12.2786 7
      vertex -3.50403 -18.3688 7
      vertex -1.17418 -18.6631 7
    endloop
  endfacet
  facet normal 0 0 1
    outer loop
      vertex -3.86271 -11.8882 7
      vertex -3.50403 -18.3688 7
      vertex -2.34227 -12.2786 7
    endloop
  endfacet
  facet normal 0 0 1
    outer loop
      vertex -5.77862 -17.7848 7
      vertex -3.86271 -11.8882 7
      vertex -5.32224 -11.3103 7
    endloop
  endfacet
  facet normal 0 0 1
    outer loop
      vertex -3.86271 -11.8882 7
      vertex -5.77862 -17.7848 7
      vertex -3.50403 -18.3688 7
    endloop
  endfacet
  facet normal 0 0 1
    outer loop
      vertex -7.96207 -16.9203 7
      vertex -5.32224 -11.3103 7
      vertex -6.69783 -10.5541 7
    endloop
  endfacet
  facet normal 0 0 1
    outer loop
      vertex -5.32224 -11.3103 7
      vertex -7.96207 -16.9203 7
      vertex -5.77862 -17.7848 7
    endloop
  endfacet
  facet normal 0 0 1
    outer loop
      vertex -10.02 -15.7889 7
      vertex -6.69783 -10.5541 7
      vertex -7.9678 -9.63142 7
    endloop
  endfacet
  facet normal 0 0 1
    outer loop
      vertex -11.9198 -14.4086 7
      vertex -7.9678 -9.63142 7
      vertex -9.11211 -8.55684 7
    endloop
  endfacet
  facet normal 0 0 1
    outer loop
      vertex -6.69783 -10.5541 7
      vertex -10.02 -15.7889 7
      vertex -7.96207 -16.9203 7
    endloop
  endfacet
  facet normal 0 0 1
    outer loop
      vertex -13.6317 -12.801 7
      vertex -9.11211 -8.55684 7
      vertex -10.1127 -7.34731 7
    endloop
  endfacet
  facet normal 0 0 1
    outer loop
      vertex -15.1286 -10.9916 7
      vertex -10.1127 -7.34731 7
      vertex -10.9538 -6.02192 7
    endloop
  endfacet
  facet normal 0 0 1
    outer loop
      vertex -16.3869 -9.00879 7
      vertex -10.9538 -6.02192 7
      vertex -11.6222 -4.60156 7
    endloop
  endfacet
  facet normal 0 0 1
    outer loop
      vertex -7.9678 -9.63142 7
      vertex -11.9198 -14.4086 7
      vertex -10.02 -15.7889 7
    endloop
  endfacet
  facet normal 0 0 1
    outer loop
      vertex -17.3868 -6.88393 7
      vertex -11.6222 -4.60156 7
      vertex -12.1073 -3.10862 7
    endloop
  endfacet
  facet normal 0 0 1
    outer loop
      vertex -18.1125 -4.6505 7
      vertex -12.1073 -3.10862 7
      vertex -12.4014 -1.56666 7
    endloop
  endfacet
  facet normal 0 0 1
    outer loop
      vertex -18.5525 -2.34373 7
      vertex -12.4014 -1.56666 7
      vertex -12.5 0 7
    endloop
  endfacet
  facet normal 0 0 1
    outer loop
      vertex -11.6222 4.60156 7
      vertex -17.3868 6.88393 7
      vertex -12.1073 3.10862 7
    endloop
  endfacet
  facet normal 0 0 1
    outer loop
      vertex -9.11211 -8.55684 7
      vertex -13.6317 -12.801 7
      vertex -11.9198 -14.4086 7
    endloop
  endfacet
  facet normal -0 0 1
    outer loop
      vertex -18.1125 4.6505 7
      vertex -12.1073 3.10862 7
      vertex -17.3868 6.88393 7
    endloop
  endfacet
  facet normal 0 0 1
    outer loop
      vertex -10.1127 -7.34731 7
      vertex -15.1286 -10.9916 7
      vertex -13.6317 -12.801 7
    endloop
  endfacet
  facet normal 0 0 1
    outer loop
      vertex -12.1073 3.10862 7
      vertex -18.1125 4.6505 7
      vertex -12.4014 1.56666 7
    endloop
  endfacet
  facet normal 0 0 1
    outer loop
      vertex -10.9538 -6.02192 7
      vertex -16.3869 -9.00879 7
      vertex -15.1286 -10.9916 7
    endloop
  endfacet
  facet normal -0 0 1
    outer loop
      vertex -18.5525 2.34373 7
      vertex -12.4014 1.56666 7
      vertex -18.1125 4.6505 7
    endloop
  endfacet
  facet normal 0 0 1
    outer loop
      vertex -11.6222 -4.60156 7
      vertex -17.3868 -6.88393 7
      vertex -16.3869 -9.00879 7
    endloop
  endfacet
  facet normal 0 0 1
    outer loop
      vertex -12.4014 1.56666 7
      vertex -18.5525 2.34373 7
      vertex -12.5 0 7
    endloop
  endfacet
  facet normal 0 0 1
    outer loop
      vertex -12.1073 -3.10862 7
      vertex -18.1125 -4.6505 7
      vertex -17.3868 -6.88393 7
    endloop
  endfacet
  facet normal 0 0 1
    outer loop
      vertex -18.7 0 7
      vertex -12.5 0 7
      vertex -18.5525 2.34373 7
    endloop
  endfacet
  facet normal 0 0 1
    outer loop
      vertex -12.4014 -1.56666 7
      vertex -18.5525 -2.34373 7
      vertex -18.1125 -4.6505 7
    endloop
  endfacet
  facet normal 0 0 1
    outer loop
      vertex -12.5 0 7
      vertex -18.7 0 7
      vertex -18.5525 -2.34373 7
    endloop
  endfacet
  facet normal 0.904824 -0.425785 -1.05791e-17
    outer loop
      vertex 16.3869 -9.00879 7
      vertex 17.3868 -6.88393 0
      vertex 17.3868 -6.88393 7
    endloop
  endfacet
  facet normal 0.904824 -0.425785 -1.05791e-17
    outer loop
      vertex 17.3868 -6.88393 0
      vertex 16.3869 -9.00879 7
      vertex 16.3869 -9.00879 0
    endloop
  endfacet
  facet normal -0.248684 -0.968585 0
    outer loop
      vertex -5.77862 -17.7848 0
      vertex -3.50403 -18.3688 7
      vertex -5.77862 -17.7848 7
    endloop
  endfacet
  facet normal -0.248684 -0.968585 -0
    outer loop
      vertex -3.50403 -18.3688 7
      vertex -5.77862 -17.7848 0
      vertex -3.50403 -18.3688 0
    endloop
  endfacet
  facet normal -0.125321 -0.992116 0
    outer loop
      vertex -3.50403 -18.3688 0
      vertex -1.17418 -18.6631 7
      vertex -3.50403 -18.3688 7
    endloop
  endfacet
  facet normal -0.125321 -0.992116 -0
    outer loop
      vertex -1.17418 -18.6631 7
      vertex -3.50403 -18.3688 0
      vertex -1.17418 -18.6631 0
    endloop
  endfacet
  facet normal -0.998026 -0.0628096 -1.08166e-18
    outer loop
      vertex -18.5525 -2.34373 0
      vertex -18.7 0 7
      vertex -18.7 0 0
    endloop
  endfacet
  facet normal -0.998026 -0.0628096 -1.08166e-18
    outer loop
      vertex -18.7 0 7
      vertex -18.5525 -2.34373 0
      vertex -18.5525 -2.34373 7
    endloop
  endfacet
  facet normal -0.951055 -0.309023 4.67618e-18
    outer loop
      vertex -17.3868 -6.88393 0
      vertex -18.1125 -4.6505 7
      vertex -18.1125 -4.6505 0
    endloop
  endfacet
  facet normal -0.951055 -0.309023 4.67618e-18
    outer loop
      vertex -18.1125 -4.6505 7
      vertex -17.3868 -6.88393 0
      vertex -17.3868 -6.88393 7
    endloop
  endfacet
  facet normal 0.368129 -0.929775 0
    outer loop
      vertex 5.77862 -17.7848 0
      vertex 7.96207 -16.9203 7
      vertex 5.77862 -17.7848 7
    endloop
  endfacet
  facet normal 0.368129 -0.929775 0
    outer loop
      vertex 7.96207 -16.9203 7
      vertex 5.77862 -17.7848 0
      vertex 7.96207 -16.9203 0
    endloop
  endfacet
  facet normal 0.248684 -0.968585 0
    outer loop
      vertex 3.50403 -18.3688 0
      vertex 5.77862 -17.7848 7
      vertex 3.50403 -18.3688 7
    endloop
  endfacet
  facet normal 0.248684 -0.968585 0
    outer loop
      vertex 5.77862 -17.7848 7
      vertex 3.50403 -18.3688 0
      vertex 5.77862 -17.7848 0
    endloop
  endfacet
  facet normal 0.481768 -0.876299 0
    outer loop
      vertex 7.96207 -16.9203 0
      vertex 10.02 -15.7889 7
      vertex 7.96207 -16.9203 7
    endloop
  endfacet
  facet normal 0.481768 -0.876299 0
    outer loop
      vertex 10.02 -15.7889 7
      vertex 7.96207 -16.9203 0
      vertex 10.02 -15.7889 0
    endloop
  endfacet
  facet normal -0.587789 -0.809014 0
    outer loop
      vertex -11.9198 -14.4086 0
      vertex -10.02 -15.7889 7
      vertex -11.9198 -14.4086 7
    endloop
  endfacet
  facet normal -0.587789 -0.809014 -0
    outer loop
      vertex -10.02 -15.7889 7
      vertex -11.9198 -14.4086 0
      vertex -10.02 -15.7889 0
    endloop
  endfacet
  facet normal 0 -1 0
    outer loop
      vertex -1.17418 -18.6631 0
      vertex 1.17418 -18.6631 7
      vertex -1.17418 -18.6631 7
    endloop
  endfacet
  facet normal 0 -1 -0
    outer loop
      vertex 1.17418 -18.6631 7
      vertex -1.17418 -18.6631 0
      vertex 1.17418 -18.6631 0
    endloop
  endfacet
  facet normal -0.770506 -0.637433 3.69353e-19
    outer loop
      vertex -13.6317 -12.801 0
      vertex -15.1286 -10.9916 7
      vertex -15.1286 -10.9916 0
    endloop
  endfacet
  facet normal -0.770506 -0.637433 3.69353e-19
    outer loop
      vertex -15.1286 -10.9916 7
      vertex -13.6317 -12.801 0
      vertex -13.6317 -12.801 7
    endloop
  endfacet
  facet normal -0.684551 -0.728965 0
    outer loop
      vertex -13.6317 -12.801 0
      vertex -11.9198 -14.4086 7
      vertex -13.6317 -12.801 7
    endloop
  endfacet
  facet normal -0.684551 -0.728965 -0
    outer loop
      vertex -11.9198 -14.4086 7
      vertex -13.6317 -12.801 0
      vertex -11.9198 -14.4086 0
    endloop
  endfacet
  facet normal 0 0 -1
    outer loop
      vertex 12.5 0 0
      vertex 18.7 0 0
      vertex 18.5525 -2.34373 0
    endloop
  endfacet
  facet normal 0 0 -1
    outer loop
      vertex 12.4014 -1.56666 0
      vertex 18.5525 -2.34373 0
      vertex 18.1125 -4.6505 0
    endloop
  endfacet
  facet normal 0 0 -1
    outer loop
      vertex 18.7 0 0
      vertex 12.5 0 0
      vertex 18.5525 2.34373 0
    endloop
  endfacet
  facet normal 0 0 -1
    outer loop
      vertex 12.1073 -3.10862 0
      vertex 18.1125 -4.6505 0
      vertex 17.3868 -6.88393 0
    endloop
  endfacet
  facet normal 0 0 -1
    outer loop
      vertex 12.4014 1.56666 0
      vertex 18.5525 2.34373 0
      vertex 12.5 0 0
    endloop
  endfacet
  facet normal 0 0 -1
    outer loop
      vertex 11.6222 -4.60156 0
      vertex 17.3868 -6.88393 0
      vertex 16.3869 -9.00879 0
    endloop
  endfacet
  facet normal -0 0 -1
    outer loop
      vertex 18.5525 2.34373 0
      vertex 12.4014 1.56666 0
      vertex 18.1125 4.6505 0
    endloop
  endfacet
  facet normal 0 0 -1
    outer loop
      vertex 10.9538 -6.02192 0
      vertex 16.3869 -9.00879 0
      vertex 15.1286 -10.9916 0
    endloop
  endfacet
  facet normal 0 0 -1
    outer loop
      vertex 12.1073 3.10862 0
      vertex 18.1125 4.6505 0
      vertex 12.4014 1.56666 0
    endloop
  endfacet
  facet normal 0 0 -1
    outer loop
      vertex 10.1127 -7.34731 0
      vertex 15.1286 -10.9916 0
      vertex 13.6317 -12.801 0
    endloop
  endfacet
  facet normal -0 0 -1
    outer loop
      vertex 18.1125 4.6505 0
      vertex 12.1073 3.10862 0
      vertex 17.3868 6.88393 0
    endloop
  endfacet
  facet normal 0 0 -1
    outer loop
      vertex 11.6222 4.60156 0
      vertex 17.3868 6.88393 0
      vertex 12.1073 3.10862 0
    endloop
  endfacet
  facet normal 0 0 -1
    outer loop
      vertex 18.5525 -2.34373 0
      vertex 12.4014 -1.56666 0
      vertex 12.5 0 0
    endloop
  endfacet
  facet normal 0 0 -1
    outer loop
      vertex 18.1125 -4.6505 0
      vertex 12.1073 -3.10862 0
      vertex 12.4014 -1.56666 0
    endloop
  endfacet
  facet normal 0 0 -1
    outer loop
      vertex 9.11211 -8.55684 0
      vertex 13.6317 -12.801 0
      vertex 11.9198 -14.4086 0
    endloop
  endfacet
  facet normal 0 0 -1
    outer loop
      vertex 17.3868 -6.88393 0
      vertex 11.6222 -4.60156 0
      vertex 12.1073 -3.10862 0
    endloop
  endfacet
  facet normal 0 0 -1
    outer loop
      vertex 16.3869 -9.00879 0
      vertex 10.9538 -6.02192 0
      vertex 11.6222 -4.60156 0
    endloop
  endfacet
  facet normal 0 0 -1
    outer loop
      vertex 15.1286 -10.9916 0
      vertex 10.1127 -7.34731 0
      vertex 10.9538 -6.02192 0
    endloop
  endfacet
  facet normal 0 0 -1
    outer loop
      vertex 7.9678 -9.63142 0
      vertex 11.9198 -14.4086 0
      vertex 10.02 -15.7889 0
    endloop
  endfacet
  facet normal 0 0 -1
    outer loop
      vertex 13.6317 -12.801 0
      vertex 9.11211 -8.55684 0
      vertex 10.1127 -7.34731 0
    endloop
  endfacet
  facet normal 0 0 -1
    outer loop
      vertex 11.9198 -14.4086 0
      vertex 7.9678 -9.63142 0
      vertex 9.11211 -8.55684 0
    endloop
  endfacet
  facet normal 0 0 -1
    outer loop
      vertex 6.69783 -10.5541 0
      vertex 10.02 -15.7889 0
      vertex 7.96207 -16.9203 0
    endloop
  endfacet
  facet normal 0 0 -1
    outer loop
      vertex 10.02 -15.7889 0
      vertex 6.69783 -10.5541 0
      vertex 7.9678 -9.63142 0
    endloop
  endfacet
  facet normal 0 0 -1
    outer loop
      vertex 5.32224 -11.3103 0
      vertex 7.96207 -16.9203 0
      vertex 5.77862 -17.7848 0
    endloop
  endfacet
  facet normal 0 0 -1
    outer loop
      vertex 7.96207 -16.9203 0
      vertex 5.32224 -11.3103 0
      vertex 6.69783 -10.5541 0
    endloop
  endfacet
  facet normal 0 0 -1
    outer loop
      vertex 5.77862 -17.7848 0
      vertex 3.86271 -11.8882 0
      vertex 5.32224 -11.3103 0
    endloop
  endfacet
  facet normal 0 0 -1
    outer loop
      vertex 3.50403 -18.3688 0
      vertex 3.86271 -11.8882 0
      vertex 5.77862 -17.7848 0
    endloop
  endfacet
  facet normal 0 0 -1
    outer loop
      vertex 3.50403 -18.3688 0
      vertex 2.34227 -12.2786 0
      vertex 3.86271 -11.8882 0
    endloop
  endfacet
  facet normal 0 0 -1
    outer loop
      vertex 1.17418 -18.6631 0
      vertex 2.34227 -12.2786 0
      vertex 3.50403 -18.3688 0
    endloop
  endfacet
  facet normal 0 0 -1
    outer loop
      vertex 1.17418 -18.6631 0
      vertex 0.784881 -12.4753 0
      vertex 2.34227 -12.2786 0
    endloop
  endfacet
  facet normal 0 0 -1
    outer loop
      vertex 1.17418 -18.6631 0
      vertex -0.784881 -12.4753 0
      vertex 0.784881 -12.4753 0
    endloop
  endfacet
  facet normal 0 0 -1
    outer loop
      vertex -1.17418 -18.6631 0
      vertex -0.784881 -12.4753 0
      vertex 1.17418 -18.6631 0
    endloop
  endfacet
  facet normal 0 0 -1
    outer loop
      vertex -1.17418 -18.6631 0
      vertex -2.34227 -12.2786 0
      vertex -0.784881 -12.4753 0
    endloop
  endfacet
  facet normal 0 0 -1
    outer loop
      vertex -3.50403 -18.3688 0
      vertex -2.34227 -12.2786 0
      vertex -1.17418 -18.6631 0
    endloop
  endfacet
  facet normal 0 0 -1
    outer loop
      vertex -3.50403 -18.3688 0
      vertex -3.86271 -11.8882 0
      vertex -2.34227 -12.2786 0
    endloop
  endfacet
  facet normal 0 0 -1
    outer loop
      vertex -5.77862 -17.7848 0
      vertex -3.86271 -11.8882 0
      vertex -3.50403 -18.3688 0
    endloop
  endfacet
  facet normal -0 0 -1
    outer loop
      vertex -3.86271 -11.8882 0
      vertex -5.77862 -17.7848 0
      vertex -5.32224 -11.3103 0
    endloop
  endfacet
  facet normal 0 0 -1
    outer loop
      vertex -7.96207 -16.9203 0
      vertex -5.32224 -11.3103 0
      vertex -5.77862 -17.7848 0
    endloop
  endfacet
  facet normal -0 0 -1
    outer loop
      vertex -5.32224 -11.3103 0
      vertex -7.96207 -16.9203 0
      vertex -6.69783 -10.5541 0
    endloop
  endfacet
  facet normal 0 0 -1
    outer loop
      vertex -10.02 -15.7889 0
      vertex -6.69783 -10.5541 0
      vertex -7.96207 -16.9203 0
    endloop
  endfacet
  facet normal -0 0 -1
    outer loop
      vertex -6.69783 -10.5541 0
      vertex -10.02 -15.7889 0
      vertex -7.9678 -9.63142 0
    endloop
  endfacet
  facet normal 0 0 -1
    outer loop
      vertex -11.9198 -14.4086 0
      vertex -7.9678 -9.63142 0
      vertex -10.02 -15.7889 0
    endloop
  endfacet
  facet normal -0 0 -1
    outer loop
      vertex -7.9678 -9.63142 0
      vertex -11.9198 -14.4086 0
      vertex -9.11211 -8.55684 0
    endloop
  endfacet
  facet normal 0 0 -1
    outer loop
      vertex -13.6317 -12.801 0
      vertex -9.11211 -8.55684 0
      vertex -11.9198 -14.4086 0
    endloop
  endfacet
  facet normal -0 0 -1
    outer loop
      vertex -9.11211 -8.55684 0
      vertex -13.6317 -12.801 0
      vertex -10.1127 -7.34731 0
    endloop
  endfacet
  facet normal 0 0 -1
    outer loop
      vertex -15.1286 -10.9916 0
      vertex -10.1127 -7.34731 0
      vertex -13.6317 -12.801 0
    endloop
  endfacet
  facet normal -0 0 -1
    outer loop
      vertex -10.1127 -7.34731 0
      vertex -15.1286 -10.9916 0
      vertex -10.9538 -6.02192 0
    endloop
  endfacet
  facet normal 0 0 -1
    outer loop
      vertex -16.3869 -9.00879 0
      vertex -10.9538 -6.02192 0
      vertex -15.1286 -10.9916 0
    endloop
  endfacet
  facet normal -0 0 -1
    outer loop
      vertex -10.9538 -6.02192 0
      vertex -16.3869 -9.00879 0
      vertex -11.6222 -4.60156 0
    endloop
  endfacet
  facet normal 0 0 -1
    outer loop
      vertex -17.3868 -6.88393 0
      vertex -11.6222 -4.60156 0
      vertex -16.3869 -9.00879 0
    endloop
  endfacet
  facet normal -0 0 -1
    outer loop
      vertex 17.3868 6.88393 0
      vertex 11.6222 4.60156 0
      vertex 16.3869 9.00879 0
    endloop
  endfacet
  facet normal 0 0 -1
    outer loop
      vertex 10.9538 6.02192 0
      vertex 16.3869 9.00879 0
      vertex 11.6222 4.60156 0
    endloop
  endfacet
  facet normal -0 0 -1
    outer loop
      vertex 16.3869 9.00879 0
      vertex 10.9538 6.02192 0
      vertex 15.1286 10.9916 0
    endloop
  endfacet
  facet normal 0 0 -1
    outer loop
      vertex 10.1127 7.34731 0
      vertex 15.1286 10.9916 0
      vertex 10.9538 6.02192 0
    endloop
  endfacet
  facet normal -0 0 -1
    outer loop
      vertex 15.1286 10.9916 0
      vertex 10.1127 7.34731 0
      vertex 13.6317 12.801 0
    endloop
  endfacet
  facet normal 0 0 -1
    outer loop
      vertex 9.11211 8.55684 0
      vertex 13.6317 12.801 0
      vertex 10.1127 7.34731 0
    endloop
  endfacet
  facet normal -0 0 -1
    outer loop
      vertex 13.6317 12.801 0
      vertex 9.11211 8.55684 0
      vertex 11.9198 14.4086 0
    endloop
  endfacet
  facet normal 0 0 -1
    outer loop
      vertex 7.9678 9.63142 0
      vertex 11.9198 14.4086 0
      vertex 9.11211 8.55684 0
    endloop
  endfacet
  facet normal -0 0 -1
    outer loop
      vertex 11.9198 14.4086 0
      vertex 7.9678 9.63142 0
      vertex 10.02 15.7889 0
    endloop
  endfacet
  facet normal 0 0 -1
    outer loop
      vertex 6.69783 10.5541 0
      vertex 10.02 15.7889 0
      vertex 7.9678 9.63142 0
    endloop
  endfacet
  facet normal -0 0 -1
    outer loop
      vertex 10.02 15.7889 0
      vertex 6.69783 10.5541 0
      vertex 7.96207 16.9203 0
    endloop
  endfacet
  facet normal 0 0 -1
    outer loop
      vertex 5.32224 11.3103 0
      vertex 7.96207 16.9203 0
      vertex 6.69783 10.5541 0
    endloop
  endfacet
  facet normal -0 0 -1
    outer loop
      vertex 7.96207 16.9203 0
      vertex 5.32224 11.3103 0
      vertex 5.77862 17.7848 0
    endloop
  endfacet
  facet normal 0 0 -1
    outer loop
      vertex 3.86271 11.8882 0
      vertex 5.77862 17.7848 0
      vertex 5.32224 11.3103 0
    endloop
  endfacet
  facet normal 0 0 -1
    outer loop
      vertex 3.86271 11.8882 0
      vertex 3.50403 18.3688 0
      vertex 5.77862 17.7848 0
    endloop
  endfacet
  facet normal 0 0 -1
    outer loop
      vertex 2.34227 12.2786 0
      vertex 3.50403 18.3688 0
      vertex 3.86271 11.8882 0
    endloop
  endfacet
  facet normal 0 0 -1
    outer loop
      vertex 2.34227 12.2786 0
      vertex 1.17418 18.6631 0
      vertex 3.50403 18.3688 0
    endloop
  endfacet
  facet normal 0 0 -1
    outer loop
      vertex 0.784881 12.4753 0
      vertex 1.17418 18.6631 0
      vertex 2.34227 12.2786 0
    endloop
  endfacet
  facet normal 0 0 -1
    outer loop
      vertex -0.784881 12.4753 0
      vertex 1.17418 18.6631 0
      vertex 0.784881 12.4753 0
    endloop
  endfacet
  facet normal 0 0 -1
    outer loop
      vertex -0.784881 12.4753 0
      vertex -1.17418 18.6631 0
      vertex 1.17418 18.6631 0
    endloop
  endfacet
  facet normal 0 0 -1
    outer loop
      vertex -2.34227 12.2786 0
      vertex -1.17418 18.6631 0
      vertex -0.784881 12.4753 0
    endloop
  endfacet
  facet normal 0 0 -1
    outer loop
      vertex -2.34227 12.2786 0
      vertex -3.50403 18.3688 0
      vertex -1.17418 18.6631 0
    endloop
  endfacet
  facet normal 0 0 -1
    outer loop
      vertex -3.86271 11.8882 0
      vertex -3.50403 18.3688 0
      vertex -2.34227 12.2786 0
    endloop
  endfacet
  facet normal 0 0 -1
    outer loop
      vertex -5.77862 17.7848 0
      vertex -3.86271 11.8882 0
      vertex -5.32224 11.3103 0
    endloop
  endfacet
  facet normal 0 0 -1
    outer loop
      vertex -3.86271 11.8882 0
      vertex -5.77862 17.7848 0
      vertex -3.50403 18.3688 0
    endloop
  endfacet
  facet normal 0 0 -1
    outer loop
      vertex -7.96207 16.9203 0
      vertex -5.32224 11.3103 0
      vertex -6.69783 10.5541 0
    endloop
  endfacet
  facet normal 0 0 -1
    outer loop
      vertex -5.32224 11.3103 0
      vertex -7.96207 16.9203 0
      vertex -5.77862 17.7848 0
    endloop
  endfacet
  facet normal 0 0 -1
    outer loop
      vertex -10.02 15.7889 0
      vertex -6.69783 10.5541 0
      vertex -7.9678 9.63142 0
    endloop
  endfacet
  facet normal 0 0 -1
    outer loop
      vertex -11.9198 14.4086 0
      vertex -7.9678 9.63142 0
      vertex -9.11211 8.55684 0
    endloop
  endfacet
  facet normal 0 0 -1
    outer loop
      vertex -6.69783 10.5541 0
      vertex -10.02 15.7889 0
      vertex -7.96207 16.9203 0
    endloop
  endfacet
  facet normal 0 0 -1
    outer loop
      vertex -13.6317 12.801 0
      vertex -9.11211 8.55684 0
      vertex -10.1127 7.34731 0
    endloop
  endfacet
  facet normal 0 0 -1
    outer loop
      vertex -15.1286 10.9916 0
      vertex -10.1127 7.34731 0
      vertex -10.9538 6.02192 0
    endloop
  endfacet
  facet normal 0 0 -1
    outer loop
      vertex -16.3869 9.00879 0
      vertex -10.9538 6.02192 0
      vertex -11.6222 4.60156 0
    endloop
  endfacet
  facet normal 0 0 -1
    outer loop
      vertex -7.9678 9.63142 0
      vertex -11.9198 14.4086 0
      vertex -10.02 15.7889 0
    endloop
  endfacet
  facet normal 0 0 -1
    outer loop
      vertex -17.3868 6.88393 0
      vertex -11.6222 4.60156 0
      vertex -12.1073 3.10862 0
    endloop
  endfacet
  facet normal 0 0 -1
    outer loop
      vertex -18.1125 4.6505 0
      vertex -12.1073 3.10862 0
      vertex -12.4014 1.56666 0
    endloop
  endfacet
  facet normal 0 0 -1
    outer loop
      vertex -18.5525 2.34373 0
      vertex -12.4014 1.56666 0
      vertex -12.5 0 0
    endloop
  endfacet
  facet normal -0 0 -1
    outer loop
      vertex -11.6222 -4.60156 0
      vertex -17.3868 -6.88393 0
      vertex -12.1073 -3.10862 0
    endloop
  endfacet
  facet normal 0 0 -1
    outer loop
      vertex -9.11211 8.55684 0
      vertex -13.6317 12.801 0
      vertex -11.9198 14.4086 0
    endloop
  endfacet
  facet normal 0 0 -1
    outer loop
      vertex -18.1125 -4.6505 0
      vertex -12.1073 -3.10862 0
      vertex -17.3868 -6.88393 0
    endloop
  endfacet
  facet normal 0 0 -1
    outer loop
      vertex -10.1127 7.34731 0
      vertex -15.1286 10.9916 0
      vertex -13.6317 12.801 0
    endloop
  endfacet
  facet normal -0 0 -1
    outer loop
      vertex -12.1073 -3.10862 0
      vertex -18.1125 -4.6505 0
      vertex -12.4014 -1.56666 0
    endloop
  endfacet
  facet normal 0 0 -1
    outer loop
      vertex -10.9538 6.02192 0
      vertex -16.3869 9.00879 0
      vertex -15.1286 10.9916 0
    endloop
  endfacet
  facet normal 0 0 -1
    outer loop
      vertex -18.5525 -2.34373 0
      vertex -12.4014 -1.56666 0
      vertex -18.1125 -4.6505 0
    endloop
  endfacet
  facet normal 0 0 -1
    outer loop
      vertex -11.6222 4.60156 0
      vertex -17.3868 6.88393 0
      vertex -16.3869 9.00879 0
    endloop
  endfacet
  facet normal -0 0 -1
    outer loop
      vertex -12.4014 -1.56666 0
      vertex -18.5525 -2.34373 0
      vertex -12.5 0 0
    endloop
  endfacet
  facet normal 0 0 -1
    outer loop
      vertex -12.1073 3.10862 0
      vertex -18.1125 4.6505 0
      vertex -17.3868 6.88393 0
    endloop
  endfacet
  facet normal 0 0 -1
    outer loop
      vertex -18.7 0 0
      vertex -12.5 0 0
      vertex -18.5525 -2.34373 0
    endloop
  endfacet
  facet normal 0 0 -1
    outer loop
      vertex -12.4014 1.56666 0
      vertex -18.5525 2.34373 0
      vertex -18.1125 4.6505 0
    endloop
  endfacet
  facet normal 0 0 -1
    outer loop
      vertex -12.5 0 0
      vertex -18.7 0 0
      vertex -18.5525 2.34373 0
    endloop
  endfacet
  facet normal -0.98229 -0.187365 -2.90202e-19
    outer loop
      vertex -18.1125 -4.6505 0
      vertex -18.5525 -2.34373 7
      vertex -18.5525 -2.34373 0
    endloop
  endfacet
  facet normal -0.98229 -0.187365 -2.90202e-19
    outer loop
      vertex -18.5525 -2.34373 7
      vertex -18.1125 -4.6505 0
      vertex -18.1125 -4.6505 7
    endloop
  endfacet
  facet normal 0.770506 -0.637433 -3.69353e-19
    outer loop
      vertex 13.6317 -12.801 7
      vertex 15.1286 -10.9916 0
      vertex 15.1286 -10.9916 7
    endloop
  endfacet
  facet normal 0.770506 -0.637433 -3.69353e-19
    outer loop
      vertex 15.1286 -10.9916 0
      vertex 13.6317 -12.801 7
      vertex 13.6317 -12.801 0
    endloop
  endfacet
  facet normal -0.481768 -0.876299 0
    outer loop
      vertex -10.02 -15.7889 0
      vertex -7.96207 -16.9203 7
      vertex -10.02 -15.7889 7
    endloop
  endfacet
  facet normal -0.481768 -0.876299 -0
    outer loop
      vertex -7.96207 -16.9203 7
      vertex -10.02 -15.7889 0
      vertex -7.96207 -16.9203 0
    endloop
  endfacet
  facet normal -0.844334 -0.535818 -4.48491e-18
    outer loop
      vertex -15.1286 -10.9916 0
      vertex -16.3869 -9.00879 7
      vertex -16.3869 -9.00879 0
    endloop
  endfacet
  facet normal -0.844334 -0.535818 -4.48491e-18
    outer loop
      vertex -16.3869 -9.00879 7
      vertex -15.1286 -10.9916 0
      vertex -15.1286 -10.9916 7
    endloop
  endfacet
  facet normal -0.368129 -0.929775 0
    outer loop
      vertex -7.96207 -16.9203 0
      vertex -5.77862 -17.7848 7
      vertex -7.96207 -16.9203 7
    endloop
  endfacet
  facet normal -0.368129 -0.929775 -0
    outer loop
      vertex -5.77862 -17.7848 7
      vertex -7.96207 -16.9203 0
      vertex -5.77862 -17.7848 0
    endloop
  endfacet
  facet normal -0.998025 -0.0628122 6.5738e-19
    outer loop
      vertex 12.5 0 0
      vertex 12.4014 1.56666 7
      vertex 12.4014 1.56666 0
    endloop
  endfacet
  facet normal -0.998025 -0.0628122 6.5738e-19
    outer loop
      vertex 12.4014 1.56666 7
      vertex 12.5 0 0
      vertex 12.5 0 7
    endloop
  endfacet
  facet normal 0.998025 -0.0628122 -6.5738e-19
    outer loop
      vertex -12.5 0 7
      vertex -12.4014 1.56666 0
      vertex -12.4014 1.56666 7
    endloop
  endfacet
  facet normal 0.998025 -0.0628122 -6.5738e-19
    outer loop
      vertex -12.4014 1.56666 0
      vertex -12.5 0 7
      vertex -12.5 0 0
    endloop
  endfacet
  facet normal 0 -1 0
    outer loop
      vertex -0.784881 12.4753 0
      vertex 0.784881 12.4753 7
      vertex -0.784881 12.4753 7
    endloop
  endfacet
  facet normal 0 -1 -0
    outer loop
      vertex 0.784881 12.4753 7
      vertex -0.784881 12.4753 0
      vertex 0.784881 12.4753 0
    endloop
  endfacet
  facet normal 0 1 -0
    outer loop
      vertex 0.784881 -12.4753 0
      vertex -0.784881 -12.4753 7
      vertex 0.784881 -12.4753 7
    endloop
  endfacet
  facet normal 0 1 0
    outer loop
      vertex -0.784881 -12.4753 7
      vertex 0.784881 -12.4753 0
      vertex -0.784881 -12.4753 0
    endloop
  endfacet
  facet normal -0.684548 -0.728968 0
    outer loop
      vertex 7.9678 9.63142 0
      vertex 9.11211 8.55684 7
      vertex 7.9678 9.63142 7
    endloop
  endfacet
  facet normal -0.684548 -0.728968 -0
    outer loop
      vertex 9.11211 8.55684 7
      vertex 7.9678 9.63142 0
      vertex 9.11211 8.55684 0
    endloop
  endfacet
  facet normal 0.684548 -0.728968 0
    outer loop
      vertex -9.11211 8.55684 0
      vertex -7.9678 9.63142 7
      vertex -9.11211 8.55684 7
    endloop
  endfacet
  facet normal 0.684548 -0.728968 0
    outer loop
      vertex -7.9678 9.63142 7
      vertex -9.11211 8.55684 0
      vertex -7.9678 9.63142 0
    endloop
  endfacet
  facet normal 0.368142 -0.92977 0
    outer loop
      vertex -5.32224 11.3103 0
      vertex -3.86271 11.8882 7
      vertex -5.32224 11.3103 7
    endloop
  endfacet
  facet normal 0.368142 -0.92977 0
    outer loop
      vertex -3.86271 11.8882 7
      vertex -5.32224 11.3103 0
      vertex -3.86271 11.8882 0
    endloop
  endfacet
  facet normal -0.90482 -0.425795 1.27282e-18
    outer loop
      vertex 11.6222 4.60156 0
      vertex 10.9538 6.02192 7
      vertex 10.9538 6.02192 0
    endloop
  endfacet
  facet normal -0.90482 -0.425795 1.27282e-18
    outer loop
      vertex 10.9538 6.02192 7
      vertex 11.6222 4.60156 0
      vertex 11.6222 4.60156 7
    endloop
  endfacet
  facet normal -0.982292 -0.187354 8.48552e-19
    outer loop
      vertex 12.4014 1.56666 0
      vertex 12.1073 3.10862 7
      vertex 12.1073 3.10862 0
    endloop
  endfacet
  facet normal -0.982292 -0.187354 8.48552e-19
    outer loop
      vertex 12.1073 3.10862 7
      vertex 12.4014 1.56666 0
      vertex 12.4014 1.56666 7
    endloop
  endfacet
  facet normal -0.844333 -0.535819 -6.97592e-18
    outer loop
      vertex 10.9538 6.02192 0
      vertex 10.1127 7.34731 7
      vertex 10.1127 7.34731 0
    endloop
  endfacet
  facet normal -0.844333 -0.535819 -6.97592e-18
    outer loop
      vertex 10.1127 7.34731 7
      vertex 10.9538 6.02192 0
      vertex 10.9538 6.02192 7
    endloop
  endfacet
  facet normal -0.368142 -0.92977 0
    outer loop
      vertex 3.86271 11.8882 0
      vertex 5.32224 11.3103 7
      vertex 3.86271 11.8882 7
    endloop
  endfacet
  facet normal -0.368142 -0.92977 -0
    outer loop
      vertex 5.32224 11.3103 7
      vertex 3.86271 11.8882 0
      vertex 5.32224 11.3103 0
    endloop
  endfacet
  facet normal -0.2487 -0.96858 0
    outer loop
      vertex 2.34227 12.2786 0
      vertex 3.86271 11.8882 7
      vertex 2.34227 12.2786 7
    endloop
  endfacet
  facet normal -0.2487 -0.96858 -0
    outer loop
      vertex 3.86271 11.8882 7
      vertex 2.34227 12.2786 0
      vertex 3.86271 11.8882 0
    endloop
  endfacet
  facet normal -0.481736 -0.876317 0
    outer loop
      vertex 5.32224 11.3103 0
      vertex 6.69783 10.5541 7
      vertex 5.32224 11.3103 7
    endloop
  endfacet
  facet normal -0.481736 -0.876317 -0
    outer loop
      vertex 6.69783 10.5541 7
      vertex 5.32224 11.3103 0
      vertex 6.69783 10.5541 0
    endloop
  endfacet
  facet normal 0.90482 -0.425795 -1.27282e-18
    outer loop
      vertex -11.6222 4.60156 7
      vertex -10.9538 6.02192 0
      vertex -10.9538 6.02192 7
    endloop
  endfacet
  facet normal 0.90482 -0.425795 -1.27282e-18
    outer loop
      vertex -10.9538 6.02192 0
      vertex -11.6222 4.60156 7
      vertex -11.6222 4.60156 0
    endloop
  endfacet
  facet normal 0.77052 -0.637416 -4.9729e-18
    outer loop
      vertex -10.1127 7.34731 7
      vertex -9.11211 8.55684 0
      vertex -9.11211 8.55684 7
    endloop
  endfacet
  facet normal 0.77052 -0.637416 -4.9729e-18
    outer loop
      vertex -9.11211 8.55684 0
      vertex -10.1127 7.34731 7
      vertex -10.1127 7.34731 0
    endloop
  endfacet
  facet normal 0.951054 -0.309025 -1.72668e-18
    outer loop
      vertex -12.1073 3.10862 7
      vertex -11.6222 4.60156 0
      vertex -11.6222 4.60156 7
    endloop
  endfacet
  facet normal 0.951054 -0.309025 -1.72668e-18
    outer loop
      vertex -11.6222 4.60156 0
      vertex -12.1073 3.10862 7
      vertex -12.1073 3.10862 0
    endloop
  endfacet
  facet normal 0.125306 -0.992118 0
    outer loop
      vertex -2.34227 12.2786 0
      vertex -0.784881 12.4753 7
      vertex -2.34227 12.2786 7
    endloop
  endfacet
  facet normal 0.125306 -0.992118 0
    outer loop
      vertex -0.784881 12.4753 7
      vertex -2.34227 12.2786 0
      vertex -0.784881 12.4753 0
    endloop
  endfacet
  facet normal -0.125306 0.992118 0
    outer loop
      vertex 2.34227 -12.2786 0
      vertex 0.784881 -12.4753 7
      vertex 2.34227 -12.2786 7
    endloop
  endfacet
  facet normal -0.125306 0.992118 0
    outer loop
      vertex 0.784881 -12.4753 7
      vertex 2.34227 -12.2786 0
      vertex 0.784881 -12.4753 0
    endloop
  endfacet
  facet normal -0.951054 -0.309025 1.72668e-18
    outer loop
      vertex 12.1073 3.10862 0
      vertex 11.6222 4.60156 7
      vertex 11.6222 4.60156 0
    endloop
  endfacet
  facet normal -0.951054 -0.309025 1.72668e-18
    outer loop
      vertex 11.6222 4.60156 7
      vertex 12.1073 3.10862 0
      vertex 12.1073 3.10862 7
    endloop
  endfacet
  facet normal -0.77052 -0.637416 4.9729e-18
    outer loop
      vertex 10.1127 7.34731 0
      vertex 9.11211 8.55684 7
      vertex 9.11211 8.55684 0
    endloop
  endfacet
  facet normal -0.77052 -0.637416 4.9729e-18
    outer loop
      vertex 9.11211 8.55684 7
      vertex 10.1127 7.34731 0
      vertex 10.1127 7.34731 7
    endloop
  endfacet
  facet normal -0.125306 -0.992118 0
    outer loop
      vertex 0.784881 12.4753 0
      vertex 2.34227 12.2786 7
      vertex 0.784881 12.4753 7
    endloop
  endfacet
  facet normal -0.125306 -0.992118 -0
    outer loop
      vertex 2.34227 12.2786 7
      vertex 0.784881 12.4753 0
      vertex 2.34227 12.2786 0
    endloop
  endfacet
  facet normal -0.587782 -0.809019 0
    outer loop
      vertex 6.69783 10.5541 0
      vertex 7.9678 9.63142 7
      vertex 6.69783 10.5541 7
    endloop
  endfacet
  facet normal -0.587782 -0.809019 -0
    outer loop
      vertex 7.9678 9.63142 7
      vertex 6.69783 10.5541 0
      vertex 7.9678 9.63142 0
    endloop
  endfacet
  facet normal 0.844333 -0.535819 6.97592e-18
    outer loop
      vertex -10.9538 6.02192 7
      vertex -10.1127 7.34731 0
      vertex -10.1127 7.34731 7
    endloop
  endfacet
  facet normal 0.844333 -0.535819 6.97592e-18
    outer loop
      vertex -10.1127 7.34731 0
      vertex -10.9538 6.02192 7
      vertex -10.9538 6.02192 0
    endloop
  endfacet
  facet normal 0.982292 -0.187354 -8.48552e-19
    outer loop
      vertex -12.4014 1.56666 7
      vertex -12.1073 3.10862 0
      vertex -12.1073 3.10862 7
    endloop
  endfacet
  facet normal 0.982292 -0.187354 -8.48552e-19
    outer loop
      vertex -12.1073 3.10862 0
      vertex -12.4014 1.56666 7
      vertex -12.4014 1.56666 0
    endloop
  endfacet
  facet normal 0.481736 -0.876317 0
    outer loop
      vertex -6.69783 10.5541 0
      vertex -5.32224 11.3103 7
      vertex -6.69783 10.5541 7
    endloop
  endfacet
  facet normal 0.481736 -0.876317 0
    outer loop
      vertex -5.32224 11.3103 7
      vertex -6.69783 10.5541 0
      vertex -5.32224 11.3103 0
    endloop
  endfacet
  facet normal 0.587782 -0.809019 0
    outer loop
      vertex -7.9678 9.63142 0
      vertex -6.69783 10.5541 7
      vertex -7.9678 9.63142 7
    endloop
  endfacet
  facet normal 0.587782 -0.809019 0
    outer loop
      vertex -6.69783 10.5541 7
      vertex -7.9678 9.63142 0
      vertex -6.69783 10.5541 0
    endloop
  endfacet
  facet normal 0.2487 -0.96858 0
    outer loop
      vertex -3.86271 11.8882 0
      vertex -2.34227 12.2786 7
      vertex -3.86271 11.8882 7
    endloop
  endfacet
  facet normal 0.2487 -0.96858 0
    outer loop
      vertex -2.34227 12.2786 7
      vertex -3.86271 11.8882 0
      vertex -2.34227 12.2786 0
    endloop
  endfacet
  facet normal -0.481736 0.876317 0
    outer loop
      vertex 6.69783 -10.5541 0
      vertex 5.32224 -11.3103 7
      vertex 6.69783 -10.5541 7
    endloop
  endfacet
  facet normal -0.481736 0.876317 0
    outer loop
      vertex 5.32224 -11.3103 7
      vertex 6.69783 -10.5541 0
      vertex 5.32224 -11.3103 0
    endloop
  endfacet
  facet normal -0.684548 0.728968 0
    outer loop
      vertex 9.11211 -8.55684 0
      vertex 7.9678 -9.63142 7
      vertex 9.11211 -8.55684 7
    endloop
  endfacet
  facet normal -0.684548 0.728968 0
    outer loop
      vertex 7.9678 -9.63142 7
      vertex 9.11211 -8.55684 0
      vertex 7.9678 -9.63142 0
    endloop
  endfacet
  facet normal -0.982292 0.187354 -8.48552e-19
    outer loop
      vertex 12.1073 -3.10862 0
      vertex 12.4014 -1.56666 7
      vertex 12.4014 -1.56666 0
    endloop
  endfacet
  facet normal -0.982292 0.187354 -8.48552e-19
    outer loop
      vertex 12.4014 -1.56666 7
      vertex 12.1073 -3.10862 0
      vertex 12.1073 -3.10862 7
    endloop
  endfacet
  facet normal -0.77052 0.637416 -4.9729e-18
    outer loop
      vertex 9.11211 -8.55684 0
      vertex 10.1127 -7.34731 7
      vertex 10.1127 -7.34731 0
    endloop
  endfacet
  facet normal -0.77052 0.637416 -4.9729e-18
    outer loop
      vertex 10.1127 -7.34731 7
      vertex 9.11211 -8.55684 0
      vertex 9.11211 -8.55684 7
    endloop
  endfacet
  facet normal -0.90482 0.425795 -1.27282e-18
    outer loop
      vertex 10.9538 -6.02192 0
      vertex 11.6222 -4.60156 7
      vertex 11.6222 -4.60156 0
    endloop
  endfacet
  facet normal -0.90482 0.425795 -1.27282e-18
    outer loop
      vertex 11.6222 -4.60156 7
      vertex 10.9538 -6.02192 0
      vertex 10.9538 -6.02192 7
    endloop
  endfacet
  facet normal -0.998025 0.0628122 -6.5738e-19
    outer loop
      vertex 12.4014 -1.56666 0
      vertex 12.5 0 7
      vertex 12.5 0 0
    endloop
  endfacet
  facet normal -0.998025 0.0628122 -6.5738e-19
    outer loop
      vertex 12.5 0 7
      vertex 12.4014 -1.56666 0
      vertex 12.4014 -1.56666 7
    endloop
  endfacet
  facet normal 0.951054 0.309025 1.72668e-18
    outer loop
      vertex -11.6222 -4.60156 7
      vertex -12.1073 -3.10862 0
      vertex -12.1073 -3.10862 7
    endloop
  endfacet
  facet normal 0.951054 0.309025 1.72668e-18
    outer loop
      vertex -12.1073 -3.10862 0
      vertex -11.6222 -4.60156 7
      vertex -11.6222 -4.60156 0
    endloop
  endfacet
  facet normal 0.998025 0.0628122 6.5738e-19
    outer loop
      vertex -12.4014 -1.56666 7
      vertex -12.5 0 0
      vertex -12.5 0 7
    endloop
  endfacet
  facet normal 0.998025 0.0628122 6.5738e-19
    outer loop
      vertex -12.5 0 0
      vertex -12.4014 -1.56666 7
      vertex -12.4014 -1.56666 0
    endloop
  endfacet
  facet normal -0.368142 0.92977 0
    outer loop
      vertex 5.32224 -11.3103 0
      vertex 3.86271 -11.8882 7
      vertex 5.32224 -11.3103 7
    endloop
  endfacet
  facet normal -0.368142 0.92977 0
    outer loop
      vertex 3.86271 -11.8882 7
      vertex 5.32224 -11.3103 0
      vertex 3.86271 -11.8882 0
    endloop
  endfacet
  facet normal -0.2487 0.96858 0
    outer loop
      vertex 3.86271 -11.8882 0
      vertex 2.34227 -12.2786 7
      vertex 3.86271 -11.8882 7
    endloop
  endfacet
  facet normal -0.2487 0.96858 0
    outer loop
      vertex 2.34227 -12.2786 7
      vertex 3.86271 -11.8882 0
      vertex 2.34227 -12.2786 0
    endloop
  endfacet
  facet normal -0.844333 0.535819 6.97592e-18
    outer loop
      vertex 10.1127 -7.34731 0
      vertex 10.9538 -6.02192 7
      vertex 10.9538 -6.02192 0
    endloop
  endfacet
  facet normal -0.844333 0.535819 6.97592e-18
    outer loop
      vertex 10.9538 -6.02192 7
      vertex 10.1127 -7.34731 0
      vertex 10.1127 -7.34731 7
    endloop
  endfacet
  facet normal -0.587782 0.809019 0
    outer loop
      vertex 7.9678 -9.63142 0
      vertex 6.69783 -10.5541 7
      vertex 7.9678 -9.63142 7
    endloop
  endfacet
  facet normal -0.587782 0.809019 0
    outer loop
      vertex 6.69783 -10.5541 7
      vertex 7.9678 -9.63142 0
      vertex 6.69783 -10.5541 0
    endloop
  endfacet
  facet normal -0.951054 0.309025 -1.72668e-18
    outer loop
      vertex 11.6222 -4.60156 0
      vertex 12.1073 -3.10862 7
      vertex 12.1073 -3.10862 0
    endloop
  endfacet
  facet normal -0.951054 0.309025 -1.72668e-18
    outer loop
      vertex 12.1073 -3.10862 7
      vertex 11.6222 -4.60156 0
      vertex 11.6222 -4.60156 7
    endloop
  endfacet
  facet normal 0.125306 0.992118 -0
    outer loop
      vertex -0.784881 -12.4753 0
      vertex -2.34227 -12.2786 7
      vertex -0.784881 -12.4753 7
    endloop
  endfacet
  facet normal 0.125306 0.992118 0
    outer loop
      vertex -2.34227 -12.2786 7
      vertex -0.784881 -12.4753 0
      vertex -2.34227 -12.2786 0
    endloop
  endfacet
  facet normal 0.368142 0.92977 -0
    outer loop
      vertex -3.86271 -11.8882 0
      vertex -5.32224 -11.3103 7
      vertex -3.86271 -11.8882 7
    endloop
  endfacet
  facet normal 0.368142 0.92977 0
    outer loop
      vertex -5.32224 -11.3103 7
      vertex -3.86271 -11.8882 0
      vertex -5.32224 -11.3103 0
    endloop
  endfacet
  facet normal 0.2487 0.96858 -0
    outer loop
      vertex -2.34227 -12.2786 0
      vertex -3.86271 -11.8882 7
      vertex -2.34227 -12.2786 7
    endloop
  endfacet
  facet normal 0.2487 0.96858 0
    outer loop
      vertex -3.86271 -11.8882 7
      vertex -2.34227 -12.2786 0
      vertex -3.86271 -11.8882 0
    endloop
  endfacet
  facet normal 0.90482 0.425795 1.27282e-18
    outer loop
      vertex -10.9538 -6.02192 7
      vertex -11.6222 -4.60156 0
      vertex -11.6222 -4.60156 7
    endloop
  endfacet
  facet normal 0.90482 0.425795 1.27282e-18
    outer loop
      vertex -11.6222 -4.60156 0
      vertex -10.9538 -6.02192 7
      vertex -10.9538 -6.02192 0
    endloop
  endfacet
  facet normal 0.77052 0.637416 4.9729e-18
    outer loop
      vertex -9.11211 -8.55684 7
      vertex -10.1127 -7.34731 0
      vertex -10.1127 -7.34731 7
    endloop
  endfacet
  facet normal 0.77052 0.637416 4.9729e-18
    outer loop
      vertex -10.1127 -7.34731 0
      vertex -9.11211 -8.55684 7
      vertex -9.11211 -8.55684 0
    endloop
  endfacet
  facet normal 0.844333 0.535819 -6.97592e-18
    outer loop
      vertex -10.1127 -7.34731 7
      vertex -10.9538 -6.02192 0
      vertex -10.9538 -6.02192 7
    endloop
  endfacet
  facet normal 0.844333 0.535819 -6.97592e-18
    outer loop
      vertex -10.9538 -6.02192 0
      vertex -10.1127 -7.34731 7
      vertex -10.1127 -7.34731 0
    endloop
  endfacet
  facet normal 0.684548 0.728968 -0
    outer loop
      vertex -7.9678 -9.63142 0
      vertex -9.11211 -8.55684 7
      vertex -7.9678 -9.63142 7
    endloop
  endfacet
  facet normal 0.684548 0.728968 0
    outer loop
      vertex -9.11211 -8.55684 7
      vertex -7.9678 -9.63142 0
      vertex -9.11211 -8.55684 0
    endloop
  endfacet
  facet normal 0.982292 0.187354 8.48552e-19
    outer loop
      vertex -12.1073 -3.10862 7
      vertex -12.4014 -1.56666 0
      vertex -12.4014 -1.56666 7
    endloop
  endfacet
  facet normal 0.982292 0.187354 8.48552e-19
    outer loop
      vertex -12.4014 -1.56666 0
      vertex -12.1073 -3.10862 7
      vertex -12.1073 -3.10862 0
    endloop
  endfacet
  facet normal 0.587782 0.809019 -0
    outer loop
      vertex -6.69783 -10.5541 0
      vertex -7.9678 -9.63142 7
      vertex -6.69783 -10.5541 7
    endloop
  endfacet
  facet normal 0.587782 0.809019 0
    outer loop
      vertex -7.9678 -9.63142 7
      vertex -6.69783 -10.5541 0
      vertex -7.9678 -9.63142 0
    endloop
  endfacet
  facet normal 0.481736 0.876317 -0
    outer loop
      vertex -5.32224 -11.3103 0
      vertex -6.69783 -10.5541 7
      vertex -5.32224 -11.3103 7
    endloop
  endfacet
  facet normal 0.481736 0.876317 0
    outer loop
      vertex -6.69783 -10.5541 7
      vertex -5.32224 -11.3103 0
      vertex -6.69783 -10.5541 0
    endloop
  endfacet
endsolid OpenSCAD_Model
