solid OpenSCAD_Model
  facet normal 0 -1 0
    outer loop
      vertex -1.73099 -2.99817 0
      vertex 1.73099 -2.99817 2.5
      vertex -1.73099 -2.99817 2.5
    endloop
  endfacet
  facet normal 0 -1 -0
    outer loop
      vertex 1.73099 -2.99817 2.5
      vertex -1.73099 -2.99817 0
      vertex 1.73099 -2.99817 0
    endloop
  endfacet
  facet normal -0 0 -1
    outer loop
      vertex 3.46199 0 0
      vertex 1.78581 -0.225599 0
      vertex 1.8 0 0
    endloop
  endfacet
  facet normal 0 0 -1
    outer loop
      vertex 3.46199 0 0
      vertex 1.74345 -0.447641 0
      vertex 1.78581 -0.225599 0
    endloop
  endfacet
  facet normal 0 0 -1
    outer loop
      vertex 1.57735 -0.867156 0
      vertex 3.46199 0 0
      vertex 1.73099 -2.99817 0
    endloop
  endfacet
  facet normal 0 0 -1
    outer loop
      vertex 3.46199 0 0
      vertex 1.6736 -0.662623 0
      vertex 1.74345 -0.447641 0
    endloop
  endfacet
  facet normal 0 0 -1
    outer loop
      vertex 3.46199 0 0
      vertex 1.57735 -0.867156 0
      vertex 1.6736 -0.662623 0
    endloop
  endfacet
  facet normal 0 0 -1
    outer loop
      vertex 1.73099 -2.99817 0
      vertex 1.45623 -1.05801 0
      vertex 1.57735 -0.867156 0
    endloop
  endfacet
  facet normal 0 0 -1
    outer loop
      vertex 1.73099 -2.99817 0
      vertex 1.31214 -1.23218 0
      vertex 1.45623 -1.05801 0
    endloop
  endfacet
  facet normal 0 0 -1
    outer loop
      vertex 1.73099 -2.99817 0
      vertex 1.14736 -1.38692 0
      vertex 1.31214 -1.23218 0
    endloop
  endfacet
  facet normal 0 0 -1
    outer loop
      vertex 1.73099 -2.99817 0
      vertex 0.964488 -1.51979 0
      vertex 1.14736 -1.38692 0
    endloop
  endfacet
  facet normal 0 0 -1
    outer loop
      vertex 1.73099 -2.99817 0
      vertex 0.766402 -1.62869 0
      vertex 0.964488 -1.51979 0
    endloop
  endfacet
  facet normal 0 0 -1
    outer loop
      vertex 1.73099 -2.99817 0
      vertex 0.556231 -1.7119 0
      vertex 0.766402 -1.62869 0
    endloop
  endfacet
  facet normal 0 0 -1
    outer loop
      vertex 1.73099 -2.99817 0
      vertex 0.337286 -1.76812 0
      vertex 0.556231 -1.7119 0
    endloop
  endfacet
  facet normal 0 0 -1
    outer loop
      vertex 1.73099 -2.99817 0
      vertex 0.113023 -1.79645 0
      vertex 0.337286 -1.76812 0
    endloop
  endfacet
  facet normal 0 0 -1
    outer loop
      vertex 1.73099 -2.99817 0
      vertex -0.113023 -1.79645 0
      vertex 0.113023 -1.79645 0
    endloop
  endfacet
  facet normal 0 0 -1
    outer loop
      vertex -1.73099 -2.99817 0
      vertex -0.113023 -1.79645 0
      vertex 1.73099 -2.99817 0
    endloop
  endfacet
  facet normal -0 0 -1
    outer loop
      vertex -0.113023 -1.79645 0
      vertex -1.73099 -2.99817 0
      vertex -0.337286 -1.76812 0
    endloop
  endfacet
  facet normal -0 0 -1
    outer loop
      vertex -0.337286 -1.76812 0
      vertex -1.73099 -2.99817 0
      vertex -0.556231 -1.7119 0
    endloop
  endfacet
  facet normal -0 0 -1
    outer loop
      vertex -0.556231 -1.7119 0
      vertex -1.73099 -2.99817 0
      vertex -0.766402 -1.62869 0
    endloop
  endfacet
  facet normal 0 0 -1
    outer loop
      vertex -1.73099 -2.99817 0
      vertex -0.964488 -1.51979 0
      vertex -0.766402 -1.62869 0
    endloop
  endfacet
  facet normal 0 0 -1
    outer loop
      vertex -1.73099 -2.99817 0
      vertex -1.14736 -1.38692 0
      vertex -0.964488 -1.51979 0
    endloop
  endfacet
  facet normal 0 0 -1
    outer loop
      vertex -1.73099 -2.99817 0
      vertex -1.31214 -1.23218 0
      vertex -1.14736 -1.38692 0
    endloop
  endfacet
  facet normal 0 0 -1
    outer loop
      vertex -1.73099 -2.99817 0
      vertex -1.45623 -1.05801 0
      vertex -1.31214 -1.23218 0
    endloop
  endfacet
  facet normal 0 0 -1
    outer loop
      vertex -1.73099 -2.99817 0
      vertex -1.57735 -0.867156 0
      vertex -1.45623 -1.05801 0
    endloop
  endfacet
  facet normal 0 0 -1
    outer loop
      vertex -3.46199 0 0
      vertex -1.57735 -0.867156 0
      vertex -1.73099 -2.99817 0
    endloop
  endfacet
  facet normal 0 0 -1
    outer loop
      vertex -1.57735 -0.867156 0
      vertex -3.46199 0 0
      vertex -1.6736 -0.662623 0
    endloop
  endfacet
  facet normal 0 0 -1
    outer loop
      vertex -1.6736 -0.662623 0
      vertex -3.46199 0 0
      vertex -1.74345 -0.447641 0
    endloop
  endfacet
  facet normal 0 0 -1
    outer loop
      vertex -1.74345 -0.447641 0
      vertex -3.46199 0 0
      vertex -1.78581 -0.225599 0
    endloop
  endfacet
  facet normal 0 0 -1
    outer loop
      vertex -1.78581 -0.225599 0
      vertex -3.46199 0 0
      vertex -1.8 0 0
    endloop
  endfacet
  facet normal 0 0 -1
    outer loop
      vertex 1.78581 0.225599 0
      vertex 3.46199 0 0
      vertex 1.8 0 0
    endloop
  endfacet
  facet normal 0 0 -1
    outer loop
      vertex 1.74345 0.447641 0
      vertex 3.46199 0 0
      vertex 1.78581 0.225599 0
    endloop
  endfacet
  facet normal 0 0 -1
    outer loop
      vertex 1.6736 0.662623 0
      vertex 3.46199 0 0
      vertex 1.74345 0.447641 0
    endloop
  endfacet
  facet normal 0 0 -1
    outer loop
      vertex 1.57735 0.867156 0
      vertex 3.46199 0 0
      vertex 1.6736 0.662623 0
    endloop
  endfacet
  facet normal 0 0 -1
    outer loop
      vertex 3.46199 0 0
      vertex 1.57735 0.867156 0
      vertex 1.73099 2.99817 0
    endloop
  endfacet
  facet normal 0 0 -1
    outer loop
      vertex 1.45623 1.05801 0
      vertex 1.73099 2.99817 0
      vertex 1.57735 0.867156 0
    endloop
  endfacet
  facet normal 0 0 -1
    outer loop
      vertex 1.31214 1.23218 0
      vertex 1.73099 2.99817 0
      vertex 1.45623 1.05801 0
    endloop
  endfacet
  facet normal 0 0 -1
    outer loop
      vertex 1.14736 1.38692 0
      vertex 1.73099 2.99817 0
      vertex 1.31214 1.23218 0
    endloop
  endfacet
  facet normal 0 0 -1
    outer loop
      vertex 0.964488 1.51979 0
      vertex 1.73099 2.99817 0
      vertex 1.14736 1.38692 0
    endloop
  endfacet
  facet normal 0 0 -1
    outer loop
      vertex 0.766402 1.62869 0
      vertex 1.73099 2.99817 0
      vertex 0.964488 1.51979 0
    endloop
  endfacet
  facet normal 0 0 -1
    outer loop
      vertex 0.556231 1.7119 0
      vertex 1.73099 2.99817 0
      vertex 0.766402 1.62869 0
    endloop
  endfacet
  facet normal 0 0 -1
    outer loop
      vertex 0.337286 1.76812 0
      vertex 1.73099 2.99817 0
      vertex 0.556231 1.7119 0
    endloop
  endfacet
  facet normal 0 0 -1
    outer loop
      vertex 0.113023 1.79645 0
      vertex 1.73099 2.99817 0
      vertex 0.337286 1.76812 0
    endloop
  endfacet
  facet normal 0 0 -1
    outer loop
      vertex -0.113023 1.79645 0
      vertex 1.73099 2.99817 0
      vertex 0.113023 1.79645 0
    endloop
  endfacet
  facet normal 0 0 -1
    outer loop
      vertex -1.73099 2.99817 0
      vertex -0.113023 1.79645 0
      vertex -0.337286 1.76812 0
    endloop
  endfacet
  facet normal 0 0 -1
    outer loop
      vertex -1.73099 2.99817 0
      vertex -0.337286 1.76812 0
      vertex -0.556231 1.7119 0
    endloop
  endfacet
  facet normal 0 0 -1
    outer loop
      vertex -1.73099 2.99817 0
      vertex -0.556231 1.7119 0
      vertex -0.766402 1.62869 0
    endloop
  endfacet
  facet normal 0 0 -1
    outer loop
      vertex -0.113023 1.79645 0
      vertex -1.73099 2.99817 0
      vertex 1.73099 2.99817 0
    endloop
  endfacet
  facet normal 0 0 -1
    outer loop
      vertex -0.964488 1.51979 0
      vertex -1.73099 2.99817 0
      vertex -0.766402 1.62869 0
    endloop
  endfacet
  facet normal 0 0 -1
    outer loop
      vertex -1.14736 1.38692 0
      vertex -1.73099 2.99817 0
      vertex -0.964488 1.51979 0
    endloop
  endfacet
  facet normal 0 0 -1
    outer loop
      vertex -1.31214 1.23218 0
      vertex -1.73099 2.99817 0
      vertex -1.14736 1.38692 0
    endloop
  endfacet
  facet normal 0 0 -1
    outer loop
      vertex -1.45623 1.05801 0
      vertex -1.73099 2.99817 0
      vertex -1.31214 1.23218 0
    endloop
  endfacet
  facet normal 0 0 -1
    outer loop
      vertex -1.57735 0.867156 0
      vertex -1.73099 2.99817 0
      vertex -1.45623 1.05801 0
    endloop
  endfacet
  facet normal 0 0 -1
    outer loop
      vertex -3.46199 0 0
      vertex -1.57735 0.867156 0
      vertex -1.6736 0.662623 0
    endloop
  endfacet
  facet normal 0 0 -1
    outer loop
      vertex -3.46199 0 0
      vertex -1.6736 0.662623 0
      vertex -1.74345 0.447641 0
    endloop
  endfacet
  facet normal 0 0 -1
    outer loop
      vertex -3.46199 0 0
      vertex -1.74345 0.447641 0
      vertex -1.78581 0.225599 0
    endloop
  endfacet
  facet normal 0 0 -1
    outer loop
      vertex -3.46199 0 0
      vertex -1.78581 0.225599 0
      vertex -1.8 0 0
    endloop
  endfacet
  facet normal -0 0 -1
    outer loop
      vertex -1.57735 0.867156 0
      vertex -3.46199 0 0
      vertex -1.73099 2.99817 0
    endloop
  endfacet
  facet normal 0.866025 -0.500001 -1.7237e-17
    outer loop
      vertex 1.73099 -2.99817 2.5
      vertex 3.46199 0 0
      vertex 3.46199 0 2.5
    endloop
  endfacet
  facet normal 0.866025 -0.500001 -1.7237e-17
    outer loop
      vertex 3.46199 0 0
      vertex 1.73099 -2.99817 2.5
      vertex 1.73099 -2.99817 0
    endloop
  endfacet
  facet normal 0.866025 0.500001 1.7237e-17
    outer loop
      vertex 3.46199 0 2.5
      vertex 1.73099 2.99817 0
      vertex 1.73099 2.99817 2.5
    endloop
  endfacet
  facet normal 0.866025 0.500001 1.7237e-17
    outer loop
      vertex 1.73099 2.99817 0
      vertex 3.46199 0 2.5
      vertex 3.46199 0 0
    endloop
  endfacet
  facet normal -0.866025 -0.500001 1.7237e-17
    outer loop
      vertex -1.73099 -2.99817 0
      vertex -3.46199 0 2.5
      vertex -3.46199 0 0
    endloop
  endfacet
  facet normal -0.866025 -0.500001 1.7237e-17
    outer loop
      vertex -3.46199 0 2.5
      vertex -1.73099 -2.99817 0
      vertex -1.73099 -2.99817 2.5
    endloop
  endfacet
  facet normal -0.866025 0.500001 -1.7237e-17
    outer loop
      vertex -3.46199 0 0
      vertex -1.73099 2.99817 2.5
      vertex -1.73099 2.99817 0
    endloop
  endfacet
  facet normal -0.866025 0.500001 -1.7237e-17
    outer loop
      vertex -1.73099 2.99817 2.5
      vertex -3.46199 0 0
      vertex -3.46199 0 2.5
    endloop
  endfacet
  facet normal 0 0 1
    outer loop
      vertex 3.46199 0 2.5
      vertex 1.78581 0.225599 2.5
      vertex 1.8 0 2.5
    endloop
  endfacet
  facet normal 0 0 1
    outer loop
      vertex 3.46199 0 2.5
      vertex 1.74345 0.447641 2.5
      vertex 1.78581 0.225599 2.5
    endloop
  endfacet
  facet normal -0 0 1
    outer loop
      vertex 1.57735 0.867156 2.5
      vertex 3.46199 0 2.5
      vertex 1.73099 2.99817 2.5
    endloop
  endfacet
  facet normal 0 0 1
    outer loop
      vertex 3.46199 0 2.5
      vertex 1.6736 0.662623 2.5
      vertex 1.74345 0.447641 2.5
    endloop
  endfacet
  facet normal 0 0 1
    outer loop
      vertex 3.46199 0 2.5
      vertex 1.57735 0.867156 2.5
      vertex 1.6736 0.662623 2.5
    endloop
  endfacet
  facet normal 0 0 1
    outer loop
      vertex 1.73099 2.99817 2.5
      vertex 1.45623 1.05801 2.5
      vertex 1.57735 0.867156 2.5
    endloop
  endfacet
  facet normal 0 0 1
    outer loop
      vertex 1.73099 2.99817 2.5
      vertex 1.31214 1.23218 2.5
      vertex 1.45623 1.05801 2.5
    endloop
  endfacet
  facet normal 0 0 1
    outer loop
      vertex 1.73099 2.99817 2.5
      vertex 1.14736 1.38692 2.5
      vertex 1.31214 1.23218 2.5
    endloop
  endfacet
  facet normal 0 0 1
    outer loop
      vertex 1.73099 2.99817 2.5
      vertex 0.964488 1.51979 2.5
      vertex 1.14736 1.38692 2.5
    endloop
  endfacet
  facet normal 0 0 1
    outer loop
      vertex 1.73099 2.99817 2.5
      vertex 0.766402 1.62869 2.5
      vertex 0.964488 1.51979 2.5
    endloop
  endfacet
  facet normal 0 0 1
    outer loop
      vertex 1.73099 2.99817 2.5
      vertex 0.556231 1.7119 2.5
      vertex 0.766402 1.62869 2.5
    endloop
  endfacet
  facet normal 0 0 1
    outer loop
      vertex 1.73099 2.99817 2.5
      vertex 0.337286 1.76812 2.5
      vertex 0.556231 1.7119 2.5
    endloop
  endfacet
  facet normal 0 0 1
    outer loop
      vertex 1.73099 2.99817 2.5
      vertex 0.113023 1.79645 2.5
      vertex 0.337286 1.76812 2.5
    endloop
  endfacet
  facet normal 0 0 1
    outer loop
      vertex 1.73099 2.99817 2.5
      vertex -0.113023 1.79645 2.5
      vertex 0.113023 1.79645 2.5
    endloop
  endfacet
  facet normal -0 0 1
    outer loop
      vertex -1.73099 2.99817 2.5
      vertex -0.113023 1.79645 2.5
      vertex 1.73099 2.99817 2.5
    endloop
  endfacet
  facet normal 0 0 1
    outer loop
      vertex -0.113023 1.79645 2.5
      vertex -1.73099 2.99817 2.5
      vertex -0.337286 1.76812 2.5
    endloop
  endfacet
  facet normal 0 0 1
    outer loop
      vertex -0.337286 1.76812 2.5
      vertex -1.73099 2.99817 2.5
      vertex -0.556231 1.7119 2.5
    endloop
  endfacet
  facet normal 0 0 1
    outer loop
      vertex -0.556231 1.7119 2.5
      vertex -1.73099 2.99817 2.5
      vertex -0.766402 1.62869 2.5
    endloop
  endfacet
  facet normal 0 0 1
    outer loop
      vertex -1.73099 2.99817 2.5
      vertex -0.964488 1.51979 2.5
      vertex -0.766402 1.62869 2.5
    endloop
  endfacet
  facet normal 0 0 1
    outer loop
      vertex -1.73099 2.99817 2.5
      vertex -1.14736 1.38692 2.5
      vertex -0.964488 1.51979 2.5
    endloop
  endfacet
  facet normal 0 0 1
    outer loop
      vertex -1.73099 2.99817 2.5
      vertex -1.31214 1.23218 2.5
      vertex -1.14736 1.38692 2.5
    endloop
  endfacet
  facet normal 0 0 1
    outer loop
      vertex -1.73099 2.99817 2.5
      vertex -1.45623 1.05801 2.5
      vertex -1.31214 1.23218 2.5
    endloop
  endfacet
  facet normal 0 0 1
    outer loop
      vertex -1.73099 2.99817 2.5
      vertex -1.57735 0.867156 2.5
      vertex -1.45623 1.05801 2.5
    endloop
  endfacet
  facet normal 0 0 1
    outer loop
      vertex -3.46199 0 2.5
      vertex -1.57735 0.867156 2.5
      vertex -1.73099 2.99817 2.5
    endloop
  endfacet
  facet normal 0 0 1
    outer loop
      vertex -1.57735 0.867156 2.5
      vertex -3.46199 0 2.5
      vertex -1.6736 0.662623 2.5
    endloop
  endfacet
  facet normal 0 0 1
    outer loop
      vertex -1.6736 0.662623 2.5
      vertex -3.46199 0 2.5
      vertex -1.74345 0.447641 2.5
    endloop
  endfacet
  facet normal 0 0 1
    outer loop
      vertex -1.74345 0.447641 2.5
      vertex -3.46199 0 2.5
      vertex -1.78581 0.225599 2.5
    endloop
  endfacet
  facet normal 0 0 1
    outer loop
      vertex -1.78581 0.225599 2.5
      vertex -3.46199 0 2.5
      vertex -1.8 0 2.5
    endloop
  endfacet
  facet normal 0 0 1
    outer loop
      vertex 1.78581 -0.225599 2.5
      vertex 3.46199 0 2.5
      vertex 1.8 0 2.5
    endloop
  endfacet
  facet normal 0 0 1
    outer loop
      vertex 1.74345 -0.447641 2.5
      vertex 3.46199 0 2.5
      vertex 1.78581 -0.225599 2.5
    endloop
  endfacet
  facet normal 0 0 1
    outer loop
      vertex 1.6736 -0.662623 2.5
      vertex 3.46199 0 2.5
      vertex 1.74345 -0.447641 2.5
    endloop
  endfacet
  facet normal 0 0 1
    outer loop
      vertex 1.57735 -0.867156 2.5
      vertex 3.46199 0 2.5
      vertex 1.6736 -0.662623 2.5
    endloop
  endfacet
  facet normal 0 0 1
    outer loop
      vertex 3.46199 0 2.5
      vertex 1.57735 -0.867156 2.5
      vertex 1.73099 -2.99817 2.5
    endloop
  endfacet
  facet normal -0 0 1
    outer loop
      vertex 1.45623 -1.05801 2.5
      vertex 1.73099 -2.99817 2.5
      vertex 1.57735 -0.867156 2.5
    endloop
  endfacet
  facet normal -0 0 1
    outer loop
      vertex 1.31214 -1.23218 2.5
      vertex 1.73099 -2.99817 2.5
      vertex 1.45623 -1.05801 2.5
    endloop
  endfacet
  facet normal -0 0 1
    outer loop
      vertex 1.14736 -1.38692 2.5
      vertex 1.73099 -2.99817 2.5
      vertex 1.31214 -1.23218 2.5
    endloop
  endfacet
  facet normal -0 0 1
    outer loop
      vertex 0.964488 -1.51979 2.5
      vertex 1.73099 -2.99817 2.5
      vertex 1.14736 -1.38692 2.5
    endloop
  endfacet
  facet normal -0 0 1
    outer loop
      vertex 0.766402 -1.62869 2.5
      vertex 1.73099 -2.99817 2.5
      vertex 0.964488 -1.51979 2.5
    endloop
  endfacet
  facet normal -0 0 1
    outer loop
      vertex 0.556231 -1.7119 2.5
      vertex 1.73099 -2.99817 2.5
      vertex 0.766402 -1.62869 2.5
    endloop
  endfacet
  facet normal -0 0 1
    outer loop
      vertex 0.337286 -1.76812 2.5
      vertex 1.73099 -2.99817 2.5
      vertex 0.556231 -1.7119 2.5
    endloop
  endfacet
  facet normal -0 0 1
    outer loop
      vertex 0.113023 -1.79645 2.5
      vertex 1.73099 -2.99817 2.5
      vertex 0.337286 -1.76812 2.5
    endloop
  endfacet
  facet normal -0 0 1
    outer loop
      vertex -0.113023 -1.79645 2.5
      vertex 1.73099 -2.99817 2.5
      vertex 0.113023 -1.79645 2.5
    endloop
  endfacet
  facet normal 0 0 1
    outer loop
      vertex -1.73099 -2.99817 2.5
      vertex -0.113023 -1.79645 2.5
      vertex -0.337286 -1.76812 2.5
    endloop
  endfacet
  facet normal 0 0 1
    outer loop
      vertex -1.73099 -2.99817 2.5
      vertex -0.337286 -1.76812 2.5
      vertex -0.556231 -1.7119 2.5
    endloop
  endfacet
  facet normal 0 0 1
    outer loop
      vertex -1.73099 -2.99817 2.5
      vertex -0.556231 -1.7119 2.5
      vertex -0.766402 -1.62869 2.5
    endloop
  endfacet
  facet normal 0 0 1
    outer loop
      vertex -0.113023 -1.79645 2.5
      vertex -1.73099 -2.99817 2.5
      vertex 1.73099 -2.99817 2.5
    endloop
  endfacet
  facet normal 0 0 1
    outer loop
      vertex -0.964488 -1.51979 2.5
      vertex -1.73099 -2.99817 2.5
      vertex -0.766402 -1.62869 2.5
    endloop
  endfacet
  facet normal 0 0 1
    outer loop
      vertex -1.14736 -1.38692 2.5
      vertex -1.73099 -2.99817 2.5
      vertex -0.964488 -1.51979 2.5
    endloop
  endfacet
  facet normal 0 0 1
    outer loop
      vertex -1.31214 -1.23218 2.5
      vertex -1.73099 -2.99817 2.5
      vertex -1.14736 -1.38692 2.5
    endloop
  endfacet
  facet normal 0 0 1
    outer loop
      vertex -1.45623 -1.05801 2.5
      vertex -1.73099 -2.99817 2.5
      vertex -1.31214 -1.23218 2.5
    endloop
  endfacet
  facet normal 0 0 1
    outer loop
      vertex -1.57735 -0.867156 2.5
      vertex -1.73099 -2.99817 2.5
      vertex -1.45623 -1.05801 2.5
    endloop
  endfacet
  facet normal 0 0 1
    outer loop
      vertex -3.46199 0 2.5
      vertex -1.57735 -0.867156 2.5
      vertex -1.6736 -0.662623 2.5
    endloop
  endfacet
  facet normal 0 0 1
    outer loop
      vertex -3.46199 0 2.5
      vertex -1.6736 -0.662623 2.5
      vertex -1.74345 -0.447641 2.5
    endloop
  endfacet
  facet normal 0 0 1
    outer loop
      vertex -3.46199 0 2.5
      vertex -1.74345 -0.447641 2.5
      vertex -1.78581 -0.225599 2.5
    endloop
  endfacet
  facet normal -0 0 1
    outer loop
      vertex -3.46199 0 2.5
      vertex -1.78581 -0.225599 2.5
      vertex -1.8 0 2.5
    endloop
  endfacet
  facet normal 0 0 1
    outer loop
      vertex -1.57735 -0.867156 2.5
      vertex -3.46199 0 2.5
      vertex -1.73099 -2.99817 2.5
    endloop
  endfacet
  facet normal 0 1 -0
    outer loop
      vertex 1.73099 2.99817 0
      vertex -1.73099 2.99817 2.5
      vertex 1.73099 2.99817 2.5
    endloop
  endfacet
  facet normal 0 1 0
    outer loop
      vertex -1.73099 2.99817 2.5
      vertex 1.73099 2.99817 0
      vertex -1.73099 2.99817 0
    endloop
  endfacet
  facet normal -0.998028 -0.0627752 1.94854e-19
    outer loop
      vertex 1.8 0 0
      vertex 1.78581 0.225599 2.5
      vertex 1.78581 0.225599 0
    endloop
  endfacet
  facet normal -0.998028 -0.0627752 1.94854e-19
    outer loop
      vertex 1.78581 0.225599 2.5
      vertex 1.8 0 0
      vertex 1.8 0 2.5
    endloop
  endfacet
  facet normal 0.998028 -0.0627752 -1.94854e-19
    outer loop
      vertex -1.8 0 2.5
      vertex -1.78581 0.225599 0
      vertex -1.78581 0.225599 2.5
    endloop
  endfacet
  facet normal 0.998028 -0.0627752 -1.94854e-19
    outer loop
      vertex -1.78581 0.225599 0
      vertex -1.8 0 2.5
      vertex -1.8 0 0
    endloop
  endfacet
  facet normal 0 -1 0
    outer loop
      vertex -0.113023 1.79645 0
      vertex 0.113023 1.79645 2.5
      vertex -0.113023 1.79645 2.5
    endloop
  endfacet
  facet normal 0 -1 -0
    outer loop
      vertex 0.113023 1.79645 2.5
      vertex -0.113023 1.79645 0
      vertex 0.113023 1.79645 0
    endloop
  endfacet
  facet normal 0 1 -0
    outer loop
      vertex 0.113023 -1.79645 0
      vertex -0.113023 -1.79645 2.5
      vertex 0.113023 -1.79645 2.5
    endloop
  endfacet
  facet normal 0 1 0
    outer loop
      vertex -0.113023 -1.79645 2.5
      vertex 0.113023 -1.79645 0
      vertex -0.113023 -1.79645 0
    endloop
  endfacet
  facet normal -0.68455 -0.728966 0
    outer loop
      vertex 1.14736 1.38692 0
      vertex 1.31214 1.23218 2.5
      vertex 1.14736 1.38692 2.5
    endloop
  endfacet
  facet normal -0.68455 -0.728966 -0
    outer loop
      vertex 1.31214 1.23218 2.5
      vertex 1.14736 1.38692 0
      vertex 1.31214 1.23218 0
    endloop
  endfacet
  facet normal 0.68455 -0.728966 0
    outer loop
      vertex -1.31214 1.23218 0
      vertex -1.14736 1.38692 2.5
      vertex -1.31214 1.23218 2.5
    endloop
  endfacet
  facet normal 0.68455 -0.728966 0
    outer loop
      vertex -1.14736 1.38692 2.5
      vertex -1.31214 1.23218 0
      vertex -1.14736 1.38692 0
    endloop
  endfacet
  facet normal 0.368115 -0.92978 0
    outer loop
      vertex -0.766402 1.62869 0
      vertex -0.556231 1.7119 2.5
      vertex -0.766402 1.62869 2.5
    endloop
  endfacet
  facet normal 0.368115 -0.92978 0
    outer loop
      vertex -0.556231 1.7119 2.5
      vertex -0.766402 1.62869 0
      vertex -0.556231 1.7119 0
    endloop
  endfacet
  facet normal -0.844327 0.535828 -2.75496e-18
    outer loop
      vertex 1.45623 -1.05801 0
      vertex 1.57735 -0.867156 2.5
      vertex 1.57735 -0.867156 0
    endloop
  endfacet
  facet normal -0.844327 0.535828 -2.75496e-18
    outer loop
      vertex 1.57735 -0.867156 2.5
      vertex 1.45623 -1.05801 0
      vertex 1.45623 -1.05801 2.5
    endloop
  endfacet
  facet normal -0.90482 -0.425794 3.59725e-19
    outer loop
      vertex 1.6736 0.662623 0
      vertex 1.57735 0.867156 2.5
      vertex 1.57735 0.867156 0
    endloop
  endfacet
  facet normal -0.90482 -0.425794 3.59725e-19
    outer loop
      vertex 1.57735 0.867156 2.5
      vertex 1.6736 0.662623 0
      vertex 1.6736 0.662623 2.5
    endloop
  endfacet
  facet normal -0.982285 -0.187395 -8.96321e-19
    outer loop
      vertex 1.78581 0.225599 0
      vertex 1.74345 0.447641 2.5
      vertex 1.74345 0.447641 0
    endloop
  endfacet
  facet normal -0.982285 -0.187395 -8.96321e-19
    outer loop
      vertex 1.74345 0.447641 2.5
      vertex 1.78581 0.225599 0
      vertex 1.78581 0.225599 2.5
    endloop
  endfacet
  facet normal -0.368115 -0.92978 0
    outer loop
      vertex 0.556231 1.7119 0
      vertex 0.766402 1.62869 2.5
      vertex 0.556231 1.7119 2.5
    endloop
  endfacet
  facet normal -0.368115 -0.92978 -0
    outer loop
      vertex 0.766402 1.62869 2.5
      vertex 0.556231 1.7119 0
      vertex 0.766402 1.62869 0
    endloop
  endfacet
  facet normal -0.248708 -0.968578 0
    outer loop
      vertex 0.337286 1.76812 0
      vertex 0.556231 1.7119 2.5
      vertex 0.337286 1.76812 2.5
    endloop
  endfacet
  facet normal -0.248708 -0.968578 -0
    outer loop
      vertex 0.556231 1.7119 2.5
      vertex 0.337286 1.76812 0
      vertex 0.556231 1.7119 0
    endloop
  endfacet
  facet normal -0.587802 -0.809005 0
    outer loop
      vertex 0.964488 1.51979 0
      vertex 1.14736 1.38692 2.5
      vertex 0.964488 1.51979 2.5
    endloop
  endfacet
  facet normal -0.587802 -0.809005 -0
    outer loop
      vertex 1.14736 1.38692 2.5
      vertex 0.964488 1.51979 0
      vertex 1.14736 1.38692 0
    endloop
  endfacet
  facet normal 0.90482 -0.425794 -3.59725e-19
    outer loop
      vertex -1.6736 0.662623 2.5
      vertex -1.57735 0.867156 0
      vertex -1.57735 0.867156 2.5
    endloop
  endfacet
  facet normal 0.90482 -0.425794 -3.59725e-19
    outer loop
      vertex -1.57735 0.867156 0
      vertex -1.6736 0.662623 2.5
      vertex -1.6736 0.662623 0
    endloop
  endfacet
  facet normal 0.951059 -0.309009 -2.84786e-20
    outer loop
      vertex -1.74345 0.447641 2.5
      vertex -1.6736 0.662623 0
      vertex -1.6736 0.662623 2.5
    endloop
  endfacet
  facet normal 0.951059 -0.309009 -2.84786e-20
    outer loop
      vertex -1.6736 0.662623 0
      vertex -1.74345 0.447641 2.5
      vertex -1.74345 0.447641 0
    endloop
  endfacet
  facet normal 0.248708 -0.968578 0
    outer loop
      vertex -0.556231 1.7119 0
      vertex -0.337286 1.76812 2.5
      vertex -0.556231 1.7119 2.5
    endloop
  endfacet
  facet normal 0.248708 -0.968578 0
    outer loop
      vertex -0.337286 1.76812 2.5
      vertex -0.556231 1.7119 0
      vertex -0.337286 1.76812 0
    endloop
  endfacet
  facet normal -0.125329 0.992115 0
    outer loop
      vertex 0.337286 -1.76812 0
      vertex 0.113023 -1.79645 2.5
      vertex 0.337286 -1.76812 2.5
    endloop
  endfacet
  facet normal -0.125329 0.992115 0
    outer loop
      vertex 0.113023 -1.79645 2.5
      vertex 0.337286 -1.76812 0
      vertex 0.113023 -1.79645 0
    endloop
  endfacet
  facet normal -0.368115 0.92978 0
    outer loop
      vertex 0.766402 -1.62869 0
      vertex 0.556231 -1.7119 2.5
      vertex 0.766402 -1.62869 2.5
    endloop
  endfacet
  facet normal -0.368115 0.92978 0
    outer loop
      vertex 0.556231 -1.7119 2.5
      vertex 0.766402 -1.62869 0
      vertex 0.556231 -1.7119 0
    endloop
  endfacet
  facet normal -0.951059 -0.309009 2.84786e-20
    outer loop
      vertex 1.74345 0.447641 0
      vertex 1.6736 0.662623 2.5
      vertex 1.6736 0.662623 0
    endloop
  endfacet
  facet normal -0.951059 -0.309009 2.84786e-20
    outer loop
      vertex 1.6736 0.662623 2.5
      vertex 1.74345 0.447641 0
      vertex 1.74345 0.447641 2.5
    endloop
  endfacet
  facet normal -0.770504 -0.637435 1.73868e-18
    outer loop
      vertex 1.45623 1.05801 0
      vertex 1.31214 1.23218 2.5
      vertex 1.31214 1.23218 0
    endloop
  endfacet
  facet normal -0.770504 -0.637435 1.73868e-18
    outer loop
      vertex 1.31214 1.23218 2.5
      vertex 1.45623 1.05801 0
      vertex 1.45623 1.05801 2.5
    endloop
  endfacet
  facet normal -0.844327 -0.535828 2.75496e-18
    outer loop
      vertex 1.57735 0.867156 0
      vertex 1.45623 1.05801 2.5
      vertex 1.45623 1.05801 0
    endloop
  endfacet
  facet normal -0.844327 -0.535828 2.75496e-18
    outer loop
      vertex 1.45623 1.05801 2.5
      vertex 1.57735 0.867156 0
      vertex 1.57735 0.867156 2.5
    endloop
  endfacet
  facet normal -0.125329 -0.992115 0
    outer loop
      vertex 0.113023 1.79645 0
      vertex 0.337286 1.76812 2.5
      vertex 0.113023 1.79645 2.5
    endloop
  endfacet
  facet normal -0.125329 -0.992115 -0
    outer loop
      vertex 0.337286 1.76812 2.5
      vertex 0.113023 1.79645 0
      vertex 0.337286 1.76812 0
    endloop
  endfacet
  facet normal -0.481758 -0.876304 0
    outer loop
      vertex 0.766402 1.62869 0
      vertex 0.964488 1.51979 2.5
      vertex 0.766402 1.62869 2.5
    endloop
  endfacet
  facet normal -0.481758 -0.876304 -0
    outer loop
      vertex 0.964488 1.51979 2.5
      vertex 0.766402 1.62869 0
      vertex 0.964488 1.51979 0
    endloop
  endfacet
  facet normal 0.844327 -0.535828 -2.75496e-18
    outer loop
      vertex -1.57735 0.867156 2.5
      vertex -1.45623 1.05801 0
      vertex -1.45623 1.05801 2.5
    endloop
  endfacet
  facet normal 0.844327 -0.535828 -2.75496e-18
    outer loop
      vertex -1.45623 1.05801 0
      vertex -1.57735 0.867156 2.5
      vertex -1.57735 0.867156 0
    endloop
  endfacet
  facet normal 0.770504 -0.637435 -1.73868e-18
    outer loop
      vertex -1.45623 1.05801 2.5
      vertex -1.31214 1.23218 0
      vertex -1.31214 1.23218 2.5
    endloop
  endfacet
  facet normal 0.770504 -0.637435 -1.73868e-18
    outer loop
      vertex -1.31214 1.23218 0
      vertex -1.45623 1.05801 2.5
      vertex -1.45623 1.05801 0
    endloop
  endfacet
  facet normal 0.982285 -0.187395 8.96321e-19
    outer loop
      vertex -1.78581 0.225599 2.5
      vertex -1.74345 0.447641 0
      vertex -1.74345 0.447641 2.5
    endloop
  endfacet
  facet normal 0.982285 -0.187395 8.96321e-19
    outer loop
      vertex -1.74345 0.447641 0
      vertex -1.78581 0.225599 2.5
      vertex -1.78581 0.225599 0
    endloop
  endfacet
  facet normal 0.481758 -0.876304 0
    outer loop
      vertex -0.964488 1.51979 0
      vertex -0.766402 1.62869 2.5
      vertex -0.964488 1.51979 2.5
    endloop
  endfacet
  facet normal 0.481758 -0.876304 0
    outer loop
      vertex -0.766402 1.62869 2.5
      vertex -0.964488 1.51979 0
      vertex -0.766402 1.62869 0
    endloop
  endfacet
  facet normal 0.587802 -0.809005 0
    outer loop
      vertex -1.14736 1.38692 0
      vertex -0.964488 1.51979 2.5
      vertex -1.14736 1.38692 2.5
    endloop
  endfacet
  facet normal 0.587802 -0.809005 0
    outer loop
      vertex -0.964488 1.51979 2.5
      vertex -1.14736 1.38692 0
      vertex -0.964488 1.51979 0
    endloop
  endfacet
  facet normal 0.125329 -0.992115 0
    outer loop
      vertex -0.337286 1.76812 0
      vertex -0.113023 1.79645 2.5
      vertex -0.337286 1.76812 2.5
    endloop
  endfacet
  facet normal 0.125329 -0.992115 0
    outer loop
      vertex -0.113023 1.79645 2.5
      vertex -0.337286 1.76812 0
      vertex -0.113023 1.79645 0
    endloop
  endfacet
  facet normal -0.998028 0.0627752 -1.94854e-19
    outer loop
      vertex 1.78581 -0.225599 0
      vertex 1.8 0 2.5
      vertex 1.8 0 0
    endloop
  endfacet
  facet normal -0.998028 0.0627752 -1.94854e-19
    outer loop
      vertex 1.8 0 2.5
      vertex 1.78581 -0.225599 0
      vertex 1.78581 -0.225599 2.5
    endloop
  endfacet
  facet normal -0.68455 0.728966 0
    outer loop
      vertex 1.31214 -1.23218 0
      vertex 1.14736 -1.38692 2.5
      vertex 1.31214 -1.23218 2.5
    endloop
  endfacet
  facet normal -0.68455 0.728966 0
    outer loop
      vertex 1.14736 -1.38692 2.5
      vertex 1.31214 -1.23218 0
      vertex 1.14736 -1.38692 0
    endloop
  endfacet
  facet normal -0.982285 0.187395 8.96321e-19
    outer loop
      vertex 1.74345 -0.447641 0
      vertex 1.78581 -0.225599 2.5
      vertex 1.78581 -0.225599 0
    endloop
  endfacet
  facet normal -0.982285 0.187395 8.96321e-19
    outer loop
      vertex 1.78581 -0.225599 2.5
      vertex 1.74345 -0.447641 0
      vertex 1.74345 -0.447641 2.5
    endloop
  endfacet
  facet normal -0.90482 0.425794 -3.59725e-19
    outer loop
      vertex 1.57735 -0.867156 0
      vertex 1.6736 -0.662623 2.5
      vertex 1.6736 -0.662623 0
    endloop
  endfacet
  facet normal -0.90482 0.425794 -3.59725e-19
    outer loop
      vertex 1.6736 -0.662623 2.5
      vertex 1.57735 -0.867156 0
      vertex 1.57735 -0.867156 2.5
    endloop
  endfacet
  facet normal -0.770504 0.637435 -1.73868e-18
    outer loop
      vertex 1.31214 -1.23218 0
      vertex 1.45623 -1.05801 2.5
      vertex 1.45623 -1.05801 0
    endloop
  endfacet
  facet normal -0.770504 0.637435 -1.73868e-18
    outer loop
      vertex 1.45623 -1.05801 2.5
      vertex 1.31214 -1.23218 0
      vertex 1.31214 -1.23218 2.5
    endloop
  endfacet
  facet normal 0.248708 0.968578 -0
    outer loop
      vertex -0.337286 -1.76812 0
      vertex -0.556231 -1.7119 2.5
      vertex -0.337286 -1.76812 2.5
    endloop
  endfacet
  facet normal 0.248708 0.968578 0
    outer loop
      vertex -0.556231 -1.7119 2.5
      vertex -0.337286 -1.76812 0
      vertex -0.556231 -1.7119 0
    endloop
  endfacet
  facet normal 0.951059 0.309009 2.84786e-20
    outer loop
      vertex -1.6736 -0.662623 2.5
      vertex -1.74345 -0.447641 0
      vertex -1.74345 -0.447641 2.5
    endloop
  endfacet
  facet normal 0.951059 0.309009 2.84786e-20
    outer loop
      vertex -1.74345 -0.447641 0
      vertex -1.6736 -0.662623 2.5
      vertex -1.6736 -0.662623 0
    endloop
  endfacet
  facet normal -0.248708 0.968578 0
    outer loop
      vertex 0.556231 -1.7119 0
      vertex 0.337286 -1.76812 2.5
      vertex 0.556231 -1.7119 2.5
    endloop
  endfacet
  facet normal -0.248708 0.968578 0
    outer loop
      vertex 0.337286 -1.76812 2.5
      vertex 0.556231 -1.7119 0
      vertex 0.337286 -1.76812 0
    endloop
  endfacet
  facet normal -0.587802 0.809005 0
    outer loop
      vertex 1.14736 -1.38692 0
      vertex 0.964488 -1.51979 2.5
      vertex 1.14736 -1.38692 2.5
    endloop
  endfacet
  facet normal -0.587802 0.809005 0
    outer loop
      vertex 0.964488 -1.51979 2.5
      vertex 1.14736 -1.38692 0
      vertex 0.964488 -1.51979 0
    endloop
  endfacet
  facet normal -0.481758 0.876304 0
    outer loop
      vertex 0.964488 -1.51979 0
      vertex 0.766402 -1.62869 2.5
      vertex 0.964488 -1.51979 2.5
    endloop
  endfacet
  facet normal -0.481758 0.876304 0
    outer loop
      vertex 0.766402 -1.62869 2.5
      vertex 0.964488 -1.51979 0
      vertex 0.766402 -1.62869 0
    endloop
  endfacet
  facet normal -0.951059 0.309009 -2.84786e-20
    outer loop
      vertex 1.6736 -0.662623 0
      vertex 1.74345 -0.447641 2.5
      vertex 1.74345 -0.447641 0
    endloop
  endfacet
  facet normal -0.951059 0.309009 -2.84786e-20
    outer loop
      vertex 1.74345 -0.447641 2.5
      vertex 1.6736 -0.662623 0
      vertex 1.6736 -0.662623 2.5
    endloop
  endfacet
  facet normal 0.125329 0.992115 -0
    outer loop
      vertex -0.113023 -1.79645 0
      vertex -0.337286 -1.76812 2.5
      vertex -0.113023 -1.79645 2.5
    endloop
  endfacet
  facet normal 0.125329 0.992115 0
    outer loop
      vertex -0.337286 -1.76812 2.5
      vertex -0.113023 -1.79645 0
      vertex -0.337286 -1.76812 0
    endloop
  endfacet
  facet normal 0.368115 0.92978 -0
    outer loop
      vertex -0.556231 -1.7119 0
      vertex -0.766402 -1.62869 2.5
      vertex -0.556231 -1.7119 2.5
    endloop
  endfacet
  facet normal 0.368115 0.92978 0
    outer loop
      vertex -0.766402 -1.62869 2.5
      vertex -0.556231 -1.7119 0
      vertex -0.766402 -1.62869 0
    endloop
  endfacet
  facet normal 0.587802 0.809005 -0
    outer loop
      vertex -0.964488 -1.51979 0
      vertex -1.14736 -1.38692 2.5
      vertex -0.964488 -1.51979 2.5
    endloop
  endfacet
  facet normal 0.587802 0.809005 0
    outer loop
      vertex -1.14736 -1.38692 2.5
      vertex -0.964488 -1.51979 0
      vertex -1.14736 -1.38692 0
    endloop
  endfacet
  facet normal 0.68455 0.728966 -0
    outer loop
      vertex -1.14736 -1.38692 0
      vertex -1.31214 -1.23218 2.5
      vertex -1.14736 -1.38692 2.5
    endloop
  endfacet
  facet normal 0.68455 0.728966 0
    outer loop
      vertex -1.31214 -1.23218 2.5
      vertex -1.14736 -1.38692 0
      vertex -1.31214 -1.23218 0
    endloop
  endfacet
  facet normal 0.982285 0.187395 -8.96321e-19
    outer loop
      vertex -1.74345 -0.447641 2.5
      vertex -1.78581 -0.225599 0
      vertex -1.78581 -0.225599 2.5
    endloop
  endfacet
  facet normal 0.982285 0.187395 -8.96321e-19
    outer loop
      vertex -1.78581 -0.225599 0
      vertex -1.74345 -0.447641 2.5
      vertex -1.74345 -0.447641 0
    endloop
  endfacet
  facet normal 0.998028 0.0627752 1.94854e-19
    outer loop
      vertex -1.78581 -0.225599 2.5
      vertex -1.8 0 0
      vertex -1.8 0 2.5
    endloop
  endfacet
  facet normal 0.998028 0.0627752 1.94854e-19
    outer loop
      vertex -1.8 0 0
      vertex -1.78581 -0.225599 2.5
      vertex -1.78581 -0.225599 0
    endloop
  endfacet
  facet normal 0.481758 0.876304 -0
    outer loop
      vertex -0.766402 -1.62869 0
      vertex -0.964488 -1.51979 2.5
      vertex -0.766402 -1.62869 2.5
    endloop
  endfacet
  facet normal 0.481758 0.876304 0
    outer loop
      vertex -0.964488 -1.51979 2.5
      vertex -0.766402 -1.62869 0
      vertex -0.964488 -1.51979 0
    endloop
  endfacet
  facet normal 0.844327 0.535828 2.75496e-18
    outer loop
      vertex -1.45623 -1.05801 2.5
      vertex -1.57735 -0.867156 0
      vertex -1.57735 -0.867156 2.5
    endloop
  endfacet
  facet normal 0.844327 0.535828 2.75496e-18
    outer loop
      vertex -1.57735 -0.867156 0
      vertex -1.45623 -1.05801 2.5
      vertex -1.45623 -1.05801 0
    endloop
  endfacet
  facet normal 0.90482 0.425794 3.59725e-19
    outer loop
      vertex -1.57735 -0.867156 2.5
      vertex -1.6736 -0.662623 0
      vertex -1.6736 -0.662623 2.5
    endloop
  endfacet
  facet normal 0.90482 0.425794 3.59725e-19
    outer loop
      vertex -1.6736 -0.662623 0
      vertex -1.57735 -0.867156 2.5
      vertex -1.57735 -0.867156 0
    endloop
  endfacet
  facet normal 0.770504 0.637435 1.73868e-18
    outer loop
      vertex -1.31214 -1.23218 2.5
      vertex -1.45623 -1.05801 0
      vertex -1.45623 -1.05801 2.5
    endloop
  endfacet
  facet normal 0.770504 0.637435 1.73868e-18
    outer loop
      vertex -1.45623 -1.05801 0
      vertex -1.31214 -1.23218 2.5
      vertex -1.31214 -1.23218 0
    endloop
  endfacet
endsolid OpenSCAD_Model
